<?xml version="1.0" encoding="UTF-8" standalone="no"?>
<!-- Created with Inkscape (http://www.inkscape.org/) -->

<svg
   xmlns:dc="http://purl.org/dc/elements/1.1/"
   xmlns:cc="http://creativecommons.org/ns#"
   xmlns:rdf="http://www.w3.org/1999/02/22-rdf-syntax-ns#"
   xmlns:svg="http://www.w3.org/2000/svg"
   xmlns="http://www.w3.org/2000/svg"
   xmlns:sodipodi="http://sodipodi.sourceforge.net/DTD/sodipodi-0.dtd"
   xmlns:inkscape="http://www.inkscape.org/namespaces/inkscape"
   width="800"
   height="400"
   id="svg2"
   version="1.1"
   inkscape:version="0.48.2 r9819"
   sodipodi:docname="mt.svg">
  <defs
     id="defs4" />
  <sodipodi:namedview
     id="base"
     pagecolor="#ffffff"
     bordercolor="#666666"
     borderopacity="1.0"
     inkscape:pageopacity="0.0"
     inkscape:pageshadow="2"
     inkscape:zoom="2"
     inkscape:cx="387.93063"
     inkscape:cy="129.39031"
     inkscape:document-units="px"
     inkscape:current-layer="layer1"
     showgrid="false"
     showguides="true"
     inkscape:guide-bbox="true"
     inkscape:window-width="1366"
     inkscape:window-height="746"
     inkscape:window-x="-8"
     inkscape:window-y="-8"
     inkscape:window-maximized="1"
     width="0px"
     height="0px"
     fit-margin-top="0"
     fit-margin-left="0"
     fit-margin-right="0"
     fit-margin-bottom="0">
    <sodipodi:guide
       orientation="1,0"
       position="400.22244,349.31075"
       id="guide3178" />
  </sodipodi:namedview>
  <metadata
     id="metadata7">
    <rdf:RDF>
      <cc:Work
         rdf:about="">
        <dc:format>image/svg+xml</dc:format>
        <dc:type
           rdf:resource="http://purl.org/dc/dcmitype/StillImage" />
        <dc:title></dc:title>
        <cc:license
           rdf:resource="" />
      </cc:Work>
    </rdf:RDF>
  </metadata>
  <g
     inkscape:label="Layer 1"
     inkscape:groupmode="layer"
     id="layer1"
     transform="translate(0,-652.36218)">
    <path
       id="rect3116"
       transform="translate(0,652.36218)"
       style="fill:#ff0000"
       d="m 221.8125,289.53125 c -0.85391,0 -3.78202,1.13812 -6.53125,2.53125 -4.67115,2.36705 -5.12972,2.42915 -6.8125,0.90625 -2.90656,-2.6304 -8.78244,-2.85808 -13.25,-0.53125 -2.14195,1.11566 -4.13127,1.62049 -4.4375,1.125 -1.34927,-2.18311 -5.94694,-2.23172 -9.40625,-0.0937 -3.80394,2.35096 -4.82805,4.88175 -4.84375,12 -0.0105,4.73566 4.76501,16.0958 7.8125,18.625 0.89816,0.74539 1.13542,1.67841 0.625,2.34375 -0.88707,1.15631 -1.49772,3.42572 -5.4375,20.34375 -4.0891,17.5594 -4.59375,20.6373 -4.59375,27.75 0,6.4361 1.24843,10.7544 4.1875,14.4375 1.37042,1.7174 3.15404,1.5328 4.90625,-0.5 1.30703,-1.5162 2.38442,-5.85625 4.15625,-16.53125 1.3548,-8.1625 2.12566,-10.2663 5.46875,-15.3125 1.99084,-3.0052 3.90187,-6.2178 4.25,-7.125 1.05048,-2.73753 8.43484,-6.86303 10.90625,-6.09375 6.91915,2.15372 13.31115,10.16385 19.4375,24.34375 1.82092,4.2147 4.12167,8.4045 5.125,9.3125 1.71211,1.5494 1.96525,1.5347 3.875,-0.375 4.5658,-4.5658 4.19413,-27.43372 -0.59375,-37.03125 -0.83808,-1.67996 -1.5,-3.43518 -1.5,-3.90625 0,-0.47106 -1.19294,-2.61726 -2.625,-4.78125 l -2.59375,-3.9375 3.1875,-9.875 c 3.48219,-10.77268 3.49098,-14.81094 0.0312,-20.5 -1.85582,-3.05166 -8.34133,-7.125 -11.34375,-7.125 z M 221.125,292 c 0.68592,-0.0796 1.78107,0.49398 3.96875,1.875 4.80801,3.03516 7.09375,6.9589 7.09375,12.21875 0,4.82593 -2.64354,12.9556 -5.03125,15.46875 -1.62537,1.71076 -3.42308,1.94149 -16.40625,2.15625 -19.08585,0.3153 -23.31567,-0.58842 -26.59375,-5.78125 -4.0763,-6.45727 -5.2956,-11.09252 -4.34375,-16.1875 0.46253,-2.47583 1.29617,-4.95243 1.875,-5.53125 1.55547,-1.55547 6.99071,-1.12792 9.03125,0.71875 1.21108,1.096 2.01263,1.26926 2.46875,0.53125 0.36804,-0.59549 2.62889,-2.027 5.03125,-3.15625 4.12533,-1.93913 4.50623,-1.95833 6.875,-0.40625 1.37944,0.90384 2.98851,2.73413 3.59375,4.0625 1.39383,3.05884 2.51121,3.06177 3.90625,0 0.64707,-1.42018 2.28263,-2.66778 3.9375,-3.03125 1.55028,-0.3405 3.19171,-1.2949 3.65625,-2.125 0.27254,-0.487 0.52595,-0.76476 0.9375,-0.8125 z m -32.28125,34.53125 19.21875,0 c 16.38223,0 19.27871,0.24409 19.6875,1.53125 0.26375,0.83046 2.03625,3.92395 3.9375,6.875 1.90125,2.95104 3.46875,6.32237 3.46875,7.5 0,1.17763 0.65785,3.41395 1.46875,4.96875 2.73283,5.24 1.5811,28.07175 -1.40625,27.96875 -0.77394,-0.0267 -5,-9.41215 -5,-11.09375 0,-0.7258 -1.9496,-4.5513 -4.3125,-8.5 -4.78681,-7.9994 -11.89825,-14.54683 -16.8125,-15.46875 -8.5957,-1.61256 -21.15049,14.856 -23.34375,30.625 -0.5325,3.8284 -1.5206,9.1518 -2.1875,11.8125 -0.66691,2.6608 -1.69508,4.9956 -2.28125,5.1875 -0.60073,0.1968 -1.81121,-2.6729 -2.75,-6.5625 -1.63763,-6.7849 -1.55132,-11.4391 0.34375,-18.8125 0.4883,-1.8999 2.28347,-8.99585 3.96875,-15.78125 1.68529,-6.78534 3.72454,-14.10993 4.53125,-16.28125 l 1.46875,-3.96875 z" />
  </g>
</svg>
