<?xml version="1.0" encoding="UTF-8" standalone="no"?>
<!-- Created with Inkscape (http://www.inkscape.org/) -->

<svg
   xmlns:dc="http://purl.org/dc/elements/1.1/"
   xmlns:cc="http://creativecommons.org/ns#"
   xmlns:rdf="http://www.w3.org/1999/02/22-rdf-syntax-ns#"
   xmlns:svg="http://www.w3.org/2000/svg"
   xmlns="http://www.w3.org/2000/svg"
   xmlns:sodipodi="http://sodipodi.sourceforge.net/DTD/sodipodi-0.dtd"
   xmlns:inkscape="http://www.inkscape.org/namespaces/inkscape"
   width="800"
   height="400"
   id="svg2"
   version="1.1"
   inkscape:version="0.48.2 r9819"
   sodipodi:docname="ft.svg">
  <defs
     id="defs4" />
  <sodipodi:namedview
     id="base"
     pagecolor="#ffffff"
     bordercolor="#666666"
     borderopacity="1.0"
     inkscape:pageopacity="0.0"
     inkscape:pageshadow="2"
     inkscape:zoom="2"
     inkscape:cx="387.93063"
     inkscape:cy="149.39031"
     inkscape:document-units="px"
     inkscape:current-layer="layer1"
     showgrid="false"
     showguides="true"
     inkscape:guide-bbox="true"
     inkscape:window-width="1366"
     inkscape:window-height="746"
     inkscape:window-x="-8"
     inkscape:window-y="-8"
     inkscape:window-maximized="1"
     width="0px"
     height="0px"
     fit-margin-top="0"
     fit-margin-left="0"
     fit-margin-right="0"
     fit-margin-bottom="0">
    <sodipodi:guide
       orientation="1,0"
       position="400.22244,349.31075"
       id="guide3178" />
  </sodipodi:namedview>
  <metadata
     id="metadata7">
    <rdf:RDF>
      <cc:Work
         rdf:about="">
        <dc:format>image/svg+xml</dc:format>
        <dc:type
           rdf:resource="http://purl.org/dc/dcmitype/StillImage" />
        <dc:title></dc:title>
        <cc:license
           rdf:resource="" />
      </cc:Work>
    </rdf:RDF>
  </metadata>
  <g
     inkscape:label="Layer 1"
     inkscape:groupmode="layer"
     id="layer1"
     transform="translate(0,-652.36218)">
    <path
       id="rect3105"
       transform="translate(0,652.36218)"
       style="fill:#ff0000"
       d="m 193.5,225.0625 c -3.06595,0.12555 -4.55377,0.74613 -6.21875,1.9375 -5.43237,3.88711 -10.3647,16.1039 -10.375,25.71875 -0.008,7.0557 1.29281,9.7775 5.65625,12.03125 2.05749,1.06271 4.26503,2.82379 4.9375,3.9375 0.67246,1.11371 2.69848,2.45778 4.46875,2.96875 4.77547,1.37834 29.72883,1.32827 32.78125,-0.0625 9.6167,-4.38166 7.76408,-34.56088 -2.59375,-42.21875 -2.37748,-1.75775 -5.2181,-2.46134 -13.03125,-3.25 -7.91598,-0.79903 -12.55905,-1.18805 -15.625,-1.0625 z m 1,2.625 c 0.51476,-0.029 1.01384,-0.006 1.53125,0.0937 1.56064,0.30234 3.86135,0.5625 5.125,0.5625 2.15765,0 2.28108,0.28486 1.78125,4.6875 -0.29273,2.57845 -0.12959,5.76803 0.375,7.09375 0.66399,1.7445 0.48178,3.22339 -0.65625,5.375 -3.3269,6.29007 -6.09829,7.14915 -9.9375,3.0625 -1.27491,-1.35708 -2.8937,-2.46875 -3.5625,-2.46875 -0.73011,0 -0.99743,-0.7836 -0.6875,-1.96875 0.72516,-2.77303 -1.14138,-2.44845 -3.09375,0.53125 -1.92264,2.93431 -1.35362,4.44048 1.40625,3.71875 1.30161,-0.34037 2.60491,0.25135 3.84375,1.78125 1.83944,2.27144 1.83551,2.33935 0,3.625 -1.02865,0.7205 -1.875,2.01019 -1.875,2.84375 0,0.83356 -0.77523,2.51095 -1.75,3.75 l -1.78125,2.25 -2.4375,-1.96875 c -2.17864,-1.76802 -2.41385,-2.66884 -2.34375,-9 0.1141,-10.30994 3.24857,-18.20091 8.625,-21.71875 2.25748,-1.47709 3.89323,-2.16316 5.4375,-2.25 z m 16.21875,0.375 c 1.58766,-0.0132 3.48714,0.42407 5.625,1.34375 4.20118,1.8073 5.16613,2.82788 8.09375,8.59375 2.78998,5.49476 3.37057,7.77743 3.65625,14.5 0.37904,8.91931 -1.38079,13.75279 -5.84375,16.03125 -3.1699,1.61826 -11.71842,1.64518 -12.21875,0.0312 -0.39418,-1.2715 -1.43144,-6.12574 -1.8125,-8.5 -0.11863,-0.73911 0.6726,-1.85079 1.75,-2.46875 1.0774,-0.61795 2.53242,-1.8938 3.25,-2.84375 1.7569,-2.32584 2.8,-2.20001 5.78125,0.78125 2.71905,2.71905 3.18068,2.7151 3.75,-0.15625 0.20291,-1.02341 0.53157,-2.47235 0.71875,-3.21875 0.18719,-0.74639 -0.22771,-1.56371 -0.90625,-1.8125 -0.67854,-0.24881 -1.25,0.23426 -1.25,1.09375 0,1.89361 -0.10239,1.93047 -3.28125,0.28125 -2.5058,-1.30002 -2.49087,-1.35613 -0.75,-4.21875 1.69505,-2.78728 1.74357,-5.34375 0.125,-5.34375 -0.43174,0 -1.34715,1.45455 -2.0625,3.21875 -0.71536,1.7642 -2.42193,4.61319 -3.78125,6.34375 -2.4049,3.06168 -2.53785,3.09076 -5.125,1.5625 -2.42048,-1.42982 -2.59037,-1.84261 -1.65625,-4.625 0.56434,-1.68098 1.4804,-3.58466 2,-4.25 0.61853,-0.79205 0.4134,-2.76293 -0.59375,-5.71875 -2.23761,-6.56702 -0.23172,-10.58547 4.53125,-10.625 z m -12.03125,25.375 c 2.09684,0.0454 4.17366,1.08236 5.34375,2.90625 0.74077,1.1547 1.66313,4.15727 2.03125,6.6875 0.5822,4.00165 0.40286,4.75273 -1.34375,5.6875 -4.14688,2.21934 -14.06767,-0.0742 -15.40625,-3.5625 -0.75527,-1.96822 2.97025,-8.84566 5.78125,-10.6875 1.09472,-0.71729 2.33564,-1.0585 3.59375,-1.03125 z" />
  </g>
</svg>
