<?xml version="1.0" encoding="UTF-8" standalone="no"?>
<!-- Created with Inkscape (http://www.inkscape.org/) -->

<svg
   xmlns:dc="http://purl.org/dc/elements/1.1/"
   xmlns:cc="http://creativecommons.org/ns#"
   xmlns:rdf="http://www.w3.org/1999/02/22-rdf-syntax-ns#"
   xmlns:svg="http://www.w3.org/2000/svg"
   xmlns="http://www.w3.org/2000/svg"
   xmlns:sodipodi="http://sodipodi.sourceforge.net/DTD/sodipodi-0.dtd"
   xmlns:inkscape="http://www.inkscape.org/namespaces/inkscape"
   width="800"
   height="700"
   id="svg2"
   version="1.1"
   inkscape:version="0.48.2 r9819"
   sodipodi:docname="l2.svg">
  <defs
     id="defs4" />
  <sodipodi:namedview
     id="base"
     pagecolor="#ffffff"
     bordercolor="#666666"
     borderopacity="1.0"
     inkscape:pageopacity="0.0"
     inkscape:pageshadow="2"
     inkscape:zoom="4.0000001"
     inkscape:cx="115.56401"
     inkscape:cy="446.92297"
     inkscape:document-units="px"
     inkscape:current-layer="layer1"
     showgrid="false"
     showguides="true"
     inkscape:guide-bbox="true"
     inkscape:window-width="1366"
     inkscape:window-height="746"
     inkscape:window-x="-8"
     inkscape:window-y="-8"
     inkscape:window-maximized="1"
     width="0px"
     height="0px"
     fit-margin-top="0"
     fit-margin-left="0"
     fit-margin-right="0"
     fit-margin-bottom="0">
    <sodipodi:guide
       orientation="1,0"
       position="400.22244,349.31075"
       id="guide3178" />
    <sodipodi:guide
       orientation="0,1"
       position="400.22244,349.31075"
       id="guide3180" />
  </sodipodi:namedview>
  <metadata
     id="metadata7">
    <rdf:RDF>
      <cc:Work
         rdf:about="">
        <dc:format>image/svg+xml</dc:format>
        <dc:type
           rdf:resource="http://purl.org/dc/dcmitype/StillImage" />
        <dc:title></dc:title>
      </cc:Work>
    </rdf:RDF>
  </metadata>
  <g
     inkscape:label="Layer 1"
     inkscape:groupmode="layer"
     id="layer1"
     transform="translate(0,-352.36218)">
    <path
       style="fill:#ff0000"
       d="m 70.09375,559.42468 c 1.85019,0 3.25,0.68269 3.25,1.5625 0,0.73144 -0.0031,0.73075 -2.75,-0.15625 -2.45116,-0.79158 -2.65651,-1.40625 -0.5,-1.40625 z"
       id="path3982" />
    <path
       style="fill:#ff0000"
       d="m 89.90625,560.14343 c 1.21282,-0.0294 2.20602,0.54047 3.71875,1.65625 2.41138,1.77865 4.0625,4.96769 4.0625,7.90625 0,2.46818 -1.64944,8.8051 -3.0625,11.625 -1.20387,2.40242 -2.8512,4.13651 -4.25,4.4375 -0.62435,0.13434 -2.54465,-0.17464 -4.21875,-0.65625 -4.09,-1.17667 -5.4816,-1.11581 -10.03125,0.46875 -2.13188,0.74247 -4.96527,1.44247 -6.28125,1.5625 -2.90856,0.26524 -3.06253,0.0821 -6.78125,-6.1875 -2.92055,-4.92403 -4.61115,-8.53082 -5.40625,-11.75 -1.58958,-6.43585 4.01677,-9.79494 11.8125,-7.0625 3.64234,1.27667 5.83191,2.9988 7.4375,5.84375 0.85934,1.52268 1.57813,2.34375 2.125,2.34375 0.98475,0 1.0489,-0.36113 0.1875,-1.5 -1.5656,-2.06991 -0.14352,-3.78843 5.75,-6.84375 2.33186,-1.20893 3.72473,-1.8144 4.9375,-1.84375 z"
       id="path3980" />
  </g>
</svg>
