<?xml version="1.0" encoding="UTF-8" standalone="no"?>
<!-- Created with Inkscape (http://www.inkscape.org/) -->

<svg
   xmlns:dc="http://purl.org/dc/elements/1.1/"
   xmlns:cc="http://creativecommons.org/ns#"
   xmlns:rdf="http://www.w3.org/1999/02/22-rdf-syntax-ns#"
   xmlns:svg="http://www.w3.org/2000/svg"
   xmlns="http://www.w3.org/2000/svg"
   xmlns:sodipodi="http://sodipodi.sourceforge.net/DTD/sodipodi-0.dtd"
   xmlns:inkscape="http://www.inkscape.org/namespaces/inkscape"
   width="800"
   height="700"
   id="svg2"
   version="1.1"
   inkscape:version="0.48.2 r9819"
   sodipodi:docname="l2-fill.svg">
  <defs
     id="defs4" />
  <sodipodi:namedview
     id="base"
     pagecolor="#ffffff"
     bordercolor="#666666"
     borderopacity="1.0"
     inkscape:pageopacity="0.0"
     inkscape:pageshadow="2"
     inkscape:zoom="4.0000001"
     inkscape:cx="115.56401"
     inkscape:cy="466.92297"
     inkscape:document-units="px"
     inkscape:current-layer="layer1"
     showgrid="false"
     showguides="true"
     inkscape:guide-bbox="true"
     inkscape:window-width="1024"
     inkscape:window-height="538"
     inkscape:window-x="-8"
     inkscape:window-y="-8"
     inkscape:window-maximized="1"
     width="0px"
     height="0px"
     fit-margin-top="0"
     fit-margin-left="0"
     fit-margin-right="0"
     fit-margin-bottom="0">
    <sodipodi:guide
       orientation="1,0"
       position="400.22244,349.31075"
       id="guide3178" />
    <sodipodi:guide
       orientation="0,1"
       position="400.22244,349.31075"
       id="guide3180" />
  </sodipodi:namedview>
  <metadata
     id="metadata7">
    <rdf:RDF>
      <cc:Work
         rdf:about="">
        <dc:format>image/svg+xml</dc:format>
        <dc:type
           rdf:resource="http://purl.org/dc/dcmitype/StillImage" />
        <dc:title />
      </cc:Work>
    </rdf:RDF>
  </metadata>
  <g
     inkscape:label="Layer 1"
     inkscape:groupmode="layer"
     id="layer1"
     transform="translate(0,-352.36218)">
    <path
       id="rect3238"
       transform="translate(0,352.36218)"
       style="fill:#00ff00"
       d="m 70.09375,207.0625 c -2.15651,0 -1.95116,0.61467 0.5,1.40625 2.7469,0.887 2.75,0.88769 2.75,0.15625 0,-0.87981 -1.39981,-1.5625 -3.25,-1.5625 z m 17.3125,0.71875 c -1.21277,0.0293 -2.60564,0.63482 -4.9375,1.84375 -5.89352,3.05532 -7.3156,4.77384 -5.75,6.84375 0.8614,1.13887 0.79725,1.5 -0.1875,1.5 -0.54687,0 -1.26566,-0.82107 -2.125,-2.34375 -1.60559,-2.84495 -3.79516,-4.56708 -7.4375,-5.84375 -7.79573,-2.73244 -13.40208,0.62665 -11.8125,7.0625 0.7951,3.21918 2.4857,6.82597 5.40625,11.75 3.71872,6.2696 3.87269,6.45274 6.78125,6.1875 1.31598,-0.12003 4.14937,-0.82003 6.28125,-1.5625 4.54965,-1.58456 5.94125,-1.64542 10.03125,-0.46875 1.6741,0.48161 3.5944,0.79059 4.21875,0.65625 1.3988,-0.30099 3.04613,-2.03508 4.25,-4.4375 1.41306,-2.8199 3.0625,-9.15682 3.0625,-11.625 0,-2.93856 -1.65112,-6.1276 -4.0625,-7.90625 -1.51273,-1.11578 -2.50593,-1.68565 -3.71875,-1.65625 z" />
  </g>
</svg>
