<?xml version="1.0" encoding="UTF-8" standalone="no"?>
<!-- Created with Inkscape (http://www.inkscape.org/) -->

<svg
   xmlns:dc="http://purl.org/dc/elements/1.1/"
   xmlns:cc="http://creativecommons.org/ns#"
   xmlns:rdf="http://www.w3.org/1999/02/22-rdf-syntax-ns#"
   xmlns:svg="http://www.w3.org/2000/svg"
   xmlns="http://www.w3.org/2000/svg"
   xmlns:sodipodi="http://sodipodi.sourceforge.net/DTD/sodipodi-0.dtd"
   xmlns:inkscape="http://www.inkscape.org/namespaces/inkscape"
   width="800"
   height="700"
   id="svg2"
   version="1.1"
   inkscape:version="0.48.2 r9819"
   sodipodi:docname="f5.svg">
  <defs
     id="defs4" />
  <sodipodi:namedview
     id="base"
     pagecolor="#ffffff"
     bordercolor="#666666"
     borderopacity="1.0"
     inkscape:pageopacity="0.0"
     inkscape:pageshadow="2"
     inkscape:zoom="5"
     inkscape:cx="234.56181"
     inkscape:cy="593.04434"
     inkscape:document-units="px"
     inkscape:current-layer="layer1"
     showgrid="false"
     showguides="true"
     inkscape:guide-bbox="true"
     inkscape:window-width="1366"
     inkscape:window-height="746"
     inkscape:window-x="-8"
     inkscape:window-y="-8"
     inkscape:window-maximized="1"
     width="0px"
     height="0px"
     fit-margin-top="0"
     fit-margin-left="0"
     fit-margin-right="0"
     fit-margin-bottom="0">
    <sodipodi:guide
       orientation="1,0"
       position="400.22244,349.31075"
       id="guide3178" />
    <sodipodi:guide
       orientation="0,1"
       position="400.22244,349.31075"
       id="guide3180" />
  </sodipodi:namedview>
  <metadata
     id="metadata7">
    <rdf:RDF>
      <cc:Work
         rdf:about="">
        <dc:format>image/svg+xml</dc:format>
        <dc:type
           rdf:resource="http://purl.org/dc/dcmitype/StillImage" />
        <dc:title></dc:title>
      </cc:Work>
    </rdf:RDF>
  </metadata>
  <g
     inkscape:label="Layer 1"
     inkscape:groupmode="layer"
     id="layer1"
     transform="translate(0,-352.36218)">
    <path
       style="fill:#ff0000"
       d="m 230.15625,439.42468 c 1.26804,-0.0311 2.39451,0.15135 3.25,0.59375 1.77617,0.91848 4.04605,4.04401 5.4375,7.5 0.65102,1.61696 1.456,3.44185 1.78125,4.0625 1.20302,2.29559 3.28083,9.41591 3.53125,12.15625 0.32128,3.51563 -0.4005,7.51899 -1.6875,9.40625 -0.5381,0.78902 -2.09031,2.0208 -3.40625,2.75 -1.31598,0.72919 -3.59572,2.41118 -5.09375,3.71875 -2.1365,1.86485 -3.01967,2.39664 -4.125,2.375 -2.24066,-0.0439 -3.1118,-0.61519 -6.71875,-4.21875 -1.86809,-1.86632 -4.14207,-3.93662 -5.0625,-4.625 -0.92042,-0.68837 -2.08326,-2.04477 -2.53125,-3.03125 -1.74447,-3.84159 -0.6284,-11.21823 2.875,-19.21875 0.31431,-0.71779 1.10689,-2.66888 1.75,-4.34375 0.64311,-1.67484 1.68924,-3.59271 2.3125,-4.25 1.61184,-1.69992 4.89784,-2.8066 7.6875,-2.875 z"
       id="rect3062" />
  </g>
</svg>
