<?xml version="1.0" encoding="UTF-8" standalone="no"?>
<!-- Created with Inkscape (http://www.inkscape.org/) -->

<svg
   xmlns:dc="http://purl.org/dc/elements/1.1/"
   xmlns:cc="http://creativecommons.org/ns#"
   xmlns:rdf="http://www.w3.org/1999/02/22-rdf-syntax-ns#"
   xmlns:svg="http://www.w3.org/2000/svg"
   xmlns="http://www.w3.org/2000/svg"
   xmlns:sodipodi="http://sodipodi.sourceforge.net/DTD/sodipodi-0.dtd"
   xmlns:inkscape="http://www.inkscape.org/namespaces/inkscape"
   width="800"
   height="700"
   id="svg2"
   version="1.1"
   inkscape:version="0.48.2 r9819"
   sodipodi:docname="f6.svg">
  <defs
     id="defs4" />
  <sodipodi:namedview
     id="base"
     pagecolor="#ffffff"
     bordercolor="#666666"
     borderopacity="1.0"
     inkscape:pageopacity="0.0"
     inkscape:pageshadow="2"
     inkscape:zoom="3.5355339"
     inkscape:cx="345.67451"
     inkscape:cy="612.49069"
     inkscape:document-units="px"
     inkscape:current-layer="layer1"
     showgrid="false"
     showguides="true"
     inkscape:guide-bbox="true"
     inkscape:window-width="1366"
     inkscape:window-height="746"
     inkscape:window-x="-8"
     inkscape:window-y="-8"
     inkscape:window-maximized="1"
     width="0px"
     height="0px"
     fit-margin-top="0"
     fit-margin-left="0"
     fit-margin-right="0"
     fit-margin-bottom="0">
    <sodipodi:guide
       orientation="1,0"
       position="400.22244,349.31075"
       id="guide3178" />
    <sodipodi:guide
       orientation="0,1"
       position="400.22244,349.31075"
       id="guide3180" />
  </sodipodi:namedview>
  <metadata
     id="metadata7">
    <rdf:RDF>
      <cc:Work
         rdf:about="">
        <dc:format>image/svg+xml</dc:format>
        <dc:type
           rdf:resource="http://purl.org/dc/dcmitype/StillImage" />
        <dc:title></dc:title>
      </cc:Work>
    </rdf:RDF>
  </metadata>
  <g
     inkscape:label="Layer 1"
     inkscape:groupmode="layer"
     id="layer1"
     transform="translate(0,-352.36218)">
    <path
       style="fill:#ff0000"
       d="m 276.21875,439.11218 c 0.9408,-0.0483 1.9956,0.0396 3.15625,0.21875 2.33204,0.35991 3.14741,0.66249 3.65625,1.4375 0.35889,0.54665 1.07419,1.39598 1.5625,1.875 2.00445,1.96621 4.61235,7.21915 5.0625,10.15625 0.24358,1.58955 1.09899,5.26739 1.90625,8.1875 0.80725,2.92012 1.46875,6.11622 1.46875,7.09375 0,2.91173 -3.01901,7.82705 -5.96875,9.71875 -0.89853,0.5762 -2.02147,1.41986 -2.5,1.875 -2.27834,2.16718 -6.23395,5.1267 -7.8125,5.84375 -0.9643,0.43804 -2.07486,0.8385 -2.4375,0.84375 -1.36086,0.0198 -3.49661,-1.5917 -5.21875,-3.90625 -0.97912,-1.31596 -3.19743,-3.86455 -4.875,-5.625 -1.67759,-1.76046 -3.3203,-3.82102 -3.65625,-4.625 -1.14157,-2.73222 -0.55252,-8.62035 1.09375,-11 4.72709,-6.83281 6.22731,-9.83151 7.15625,-14.0625 1.1862,-5.40246 3.32945,-7.82166 7.40625,-8.03125 z"
       id="rect3074" />
  </g>
</svg>
