<?xml version="1.0" encoding="UTF-8" standalone="no"?>
<!-- Created with Inkscape (http://www.inkscape.org/) -->

<svg
   xmlns:dc="http://purl.org/dc/elements/1.1/"
   xmlns:cc="http://creativecommons.org/ns#"
   xmlns:rdf="http://www.w3.org/1999/02/22-rdf-syntax-ns#"
   xmlns:svg="http://www.w3.org/2000/svg"
   xmlns="http://www.w3.org/2000/svg"
   xmlns:sodipodi="http://sodipodi.sourceforge.net/DTD/sodipodi-0.dtd"
   xmlns:inkscape="http://www.inkscape.org/namespaces/inkscape"
   width="800"
   height="700"
   id="svg2"
   version="1.1"
   inkscape:version="0.48.2 r9819"
   sodipodi:docname="f6-fill.svg">
  <defs
     id="defs4" />
  <sodipodi:namedview
     id="base"
     pagecolor="#ffffff"
     bordercolor="#666666"
     borderopacity="1.0"
     inkscape:pageopacity="0.0"
     inkscape:pageshadow="2"
     inkscape:zoom="3.5355339"
     inkscape:cx="345.67451"
     inkscape:cy="596.3423"
     inkscape:document-units="px"
     inkscape:current-layer="layer1"
     showgrid="false"
     showguides="true"
     inkscape:guide-bbox="true"
     inkscape:window-width="1024"
     inkscape:window-height="538"
     inkscape:window-x="-8"
     inkscape:window-y="-8"
     inkscape:window-maximized="1"
     width="0px"
     height="0px"
     fit-margin-top="0"
     fit-margin-left="0"
     fit-margin-right="0"
     fit-margin-bottom="0">
    <sodipodi:guide
       orientation="1,0"
       position="400.22244,349.31075"
       id="guide3178" />
    <sodipodi:guide
       orientation="0,1"
       position="400.22244,349.31075"
       id="guide3180" />
  </sodipodi:namedview>
  <metadata
     id="metadata7">
    <rdf:RDF>
      <cc:Work
         rdf:about="">
        <dc:format>image/svg+xml</dc:format>
        <dc:type
           rdf:resource="http://purl.org/dc/dcmitype/StillImage" />
        <dc:title />
      </cc:Work>
    </rdf:RDF>
  </metadata>
  <g
     inkscape:label="Layer 1"
     inkscape:groupmode="layer"
     id="layer1"
     transform="translate(0,-352.36218)">
    <path
       id="rect3475"
       transform="translate(0,352.36218)"
       style="fill:#00ff00"
       d="m 276.21875,86.75 c -4.0768,0.20959 -6.22005,2.62879 -7.40625,8.03125 -0.92894,4.23099 -2.42916,7.22969 -7.15625,14.0625 -1.64627,2.37965 -2.23532,8.26778 -1.09375,11 0.33595,0.80398 1.97866,2.86454 3.65625,4.625 1.67757,1.76045 3.89588,4.30904 4.875,5.625 1.72214,2.31455 3.85789,3.92605 5.21875,3.90625 0.36264,-0.005 1.4732,-0.40571 2.4375,-0.84375 1.57855,-0.71705 5.53416,-3.67657 7.8125,-5.84375 0.47853,-0.45514 1.60147,-1.2988 2.5,-1.875 2.94974,-1.8917 5.96875,-6.80702 5.96875,-9.71875 0,-0.97753 -0.6615,-4.17363 -1.46875,-7.09375 -0.80726,-2.92011 -1.66267,-6.59795 -1.90625,-8.1875 -0.45015,-2.9371 -3.05805,-8.19004 -5.0625,-10.15625 -0.48831,-0.47902 -1.20361,-1.32835 -1.5625,-1.875 -0.50884,-0.77501 -1.32421,-1.07759 -3.65625,-1.4375 -1.16065,-0.17915 -2.21545,-0.26705 -3.15625,-0.21875 z" />
  </g>
</svg>
