<?xml version="1.0" encoding="UTF-8" standalone="no"?>
<!-- Created with Inkscape (http://www.inkscape.org/) -->

<svg
   xmlns:dc="http://purl.org/dc/elements/1.1/"
   xmlns:cc="http://creativecommons.org/ns#"
   xmlns:rdf="http://www.w3.org/1999/02/22-rdf-syntax-ns#"
   xmlns:svg="http://www.w3.org/2000/svg"
   xmlns="http://www.w3.org/2000/svg"
   xmlns:sodipodi="http://sodipodi.sourceforge.net/DTD/sodipodi-0.dtd"
   xmlns:inkscape="http://www.inkscape.org/namespaces/inkscape"
   width="800"
   height="400"
   id="svg2"
   version="1.1"
   inkscape:version="0.48.2 r9819"
   sodipodi:docname="f4.svg">
  <defs
     id="defs4" />
  <sodipodi:namedview
     id="base"
     pagecolor="#ffffff"
     bordercolor="#666666"
     borderopacity="1.0"
     inkscape:pageopacity="0.0"
     inkscape:pageshadow="2"
     inkscape:zoom="2"
     inkscape:cx="249.15404"
     inkscape:cy="298.31862"
     inkscape:document-units="px"
     inkscape:current-layer="layer1"
     showgrid="false"
     showguides="true"
     inkscape:guide-bbox="true"
     inkscape:window-width="1366"
     inkscape:window-height="746"
     inkscape:window-x="-8"
     inkscape:window-y="-8"
     inkscape:window-maximized="1"
     width="0px"
     height="0px"
     fit-margin-top="0"
     fit-margin-left="0"
     fit-margin-right="0"
     fit-margin-bottom="0">
    <sodipodi:guide
       orientation="1,0"
       position="400.22244,349.31075"
       id="guide3178" />
    <sodipodi:guide
       orientation="0,1"
       position="-117.37973,199.40411"
       id="guide3180" />
  </sodipodi:namedview>
  <metadata
     id="metadata7">
    <rdf:RDF>
      <cc:Work
         rdf:about="">
        <dc:format>image/svg+xml</dc:format>
        <dc:type
           rdf:resource="http://purl.org/dc/dcmitype/StillImage" />
        <dc:title></dc:title>
      </cc:Work>
    </rdf:RDF>
  </metadata>
  <g
     inkscape:label="Layer 1"
     inkscape:groupmode="layer"
     id="layer1"
     transform="translate(0,-652.36218)">
    <path
       id="rect3165"
       transform="translate(0,652.36218)"
       style="fill:#ff0000"
       d="m 178.625,20 c -0.99776,0 -3.43115,1.95968 -4.3125,3.46875 -1.15802,1.98279 -1.09771,7.16006 0.1875,15.25 0.7099,4.46859 1.01251,8.63455 1.1875,17.40625 0.2692,13.49362 -0.44888,30.76264 -1.34375,32.53125 -0.32641,0.64515 -0.71719,1.90886 -0.875,2.78125 -0.15779,0.8724 -1.26409,4.56443 -2.46875,8.21875 -1.62356,4.92514 -2.27961,7.57004 -2.46875,10.25 -0.24114,3.41692 -0.14418,3.76587 1.125,6.34375 2.36426,4.80223 5.55075,7.59734 9.84375,8.625 5.28143,1.26423 9.72155,-0.51222 13.28125,-5.3125 0.59399,-0.80097 1.76847,-2.03221 2.59375,-2.75 5.38247,-4.68152 5.72325,-6.25423 3.4375,-15.65625 -1.50454,-6.18858 -2.44521,-8.85337 -3.53125,-10.03125 -0.43685,-0.47378 -0.87629,-1.23547 -0.96875,-1.71875 -0.30765,-1.60914 -2.36459,-24.16519 -2.84375,-31.125 -0.77067,-11.1945 -2.11515,-18.33983 -4.84375,-25.875 -0.51986,-1.43557 -1.16851,-2.8911 -1.46875,-3.25 -0.30022,-0.3589 -1.29096,-2.1951 -2.1875,-4.0625 C 181.42546,21.87988 179.80536,20 178.625,20 z m -0.125,3.5625 c 0.27502,0.0101 0.59265,0.06677 0.875,0.15625 0.49782,0.15799 1.3062,1.29123 1.9375,2.71875 0.59607,1.34779 1.37453,2.80388 1.75,3.21875 0.71916,0.79463 4.20216,13.83011 4.6875,17.53125 0.15628,1.19181 0.46834,3.04831 0.6875,4.125 0.21918,1.07669 0.7166,5.4066 1.09375,9.59375 0.37713,4.18715 1.05455,10.23868 1.5,13.46875 0.44546,3.23009 0.93356,7.58871 1.09375,9.65625 0.18199,2.34923 0.11476,3.83266 -0.15625,4 -0.23833,0.14727 -0.978,-0.15266 -1.65625,-0.71875 -2.52606,-2.10842 -3.98458,-2.61296 -7.0625,-2.3125 -1.57086,0.15336 -3.44135,0.35105 -4.15625,0.40625 l -1.3125,0.09375 -0.0625,-21.53125 -0.0625,-21.5625 -1.375,-6.75 c -0.74132,-3.70864 -1.31168,-7.29886 -1.3125,-7.96875 -0.003,-2.41114 1.60611,-4.19533 3.53125,-4.125 z m 4,62.71875 c 0.61682,-0.0262 1.19769,0.16161 2.25,0.65625 1.06436,0.50031 2.03767,0.9375 2.15625,0.9375 0.52178,0 4.5625,2.71226 4.5625,3.0625 0,0.21389 0.79393,1.42651 1.75,2.6875 0.95602,1.261 1.74695,2.57861 1.75,2.9375 0.002,0.35887 0.30988,1.25096 0.6875,1.96875 1.56231,2.96969 1.99453,5.12165 1.84375,9.03125 l -0.15625,3.875 -2.4375,2.25 c -1.34754,1.23981 -2.97206,3.13868 -3.59375,4.25 -1.33848,2.39252 -3.24805,4.13732 -5.84375,5.25 -1.99643,0.85575 -3.79438,0.98336 -4.875,0.375 -0.35891,-0.2021 -1.5203,-0.61812 -2.59375,-0.9375 -2.37343,-0.70617 -4.26893,-2.31247 -6.09375,-5.15625 -1.12045,-1.74603 -1.4264,-2.74885 -1.625,-5.375 -0.34807,-4.60185 0.17952,-6.68153 4.21875,-16.1875 0.91503,-2.1534 1.80561,-4.43835 1.96875,-5.09375 0.37226,-1.49503 2.7119,-3.56705 4.78125,-4.25 0.51454,-0.16989 0.87991,-0.26551 1.25,-0.28125 z" />
  </g>
</svg>
