<?xml version="1.0" encoding="UTF-8" standalone="no"?>
<!-- Created with Inkscape (http://www.inkscape.org/) -->

<svg
   xmlns:dc="http://purl.org/dc/elements/1.1/"
   xmlns:cc="http://creativecommons.org/ns#"
   xmlns:rdf="http://www.w3.org/1999/02/22-rdf-syntax-ns#"
   xmlns:svg="http://www.w3.org/2000/svg"
   xmlns="http://www.w3.org/2000/svg"
   xmlns:sodipodi="http://sodipodi.sourceforge.net/DTD/sodipodi-0.dtd"
   xmlns:inkscape="http://www.inkscape.org/namespaces/inkscape"
   width="800"
   height="700"
   id="svg2"
   version="1.1"
   inkscape:version="0.48.2 r9819"
   sodipodi:docname="l3.svg">
  <defs
     id="defs4" />
  <sodipodi:namedview
     id="base"
     pagecolor="#ffffff"
     bordercolor="#666666"
     borderopacity="1.0"
     inkscape:pageopacity="0.0"
     inkscape:pageshadow="2"
     inkscape:zoom="2.5"
     inkscape:cx="177.35158"
     inkscape:cy="621.93284"
     inkscape:document-units="px"
     inkscape:current-layer="layer1"
     showgrid="false"
     showguides="true"
     inkscape:guide-bbox="true"
     inkscape:window-width="1366"
     inkscape:window-height="746"
     inkscape:window-x="-8"
     inkscape:window-y="-8"
     inkscape:window-maximized="1"
     width="0px"
     height="0px"
     fit-margin-top="0"
     fit-margin-left="0"
     fit-margin-right="0"
     fit-margin-bottom="0">
    <sodipodi:guide
       orientation="1,0"
       position="400.22244,349.31075"
       id="guide3178" />
    <sodipodi:guide
       orientation="0,1"
       position="400.22244,349.31075"
       id="guide3180" />
  </sodipodi:namedview>
  <metadata
     id="metadata7">
    <rdf:RDF>
      <cc:Work
         rdf:about="">
        <dc:format>image/svg+xml</dc:format>
        <dc:type
           rdf:resource="http://purl.org/dc/dcmitype/StillImage" />
        <dc:title></dc:title>
      </cc:Work>
    </rdf:RDF>
  </metadata>
  <g
     inkscape:label="Layer 1"
     inkscape:groupmode="layer"
     id="layer1"
     transform="translate(0,-352.36218)">
    <path
       id="rect3050"
       transform="translate(0,352.36218)"
       style="fill:#ff0000"
       d="m 177.09375,28.28125 c -0.99776,0 -3.43115,1.95968 -4.3125,3.46875 -1.15802,1.98279 -1.09771,7.12881 0.1875,15.21875 0.7099,4.46859 0.98126,8.63455 1.15625,17.40625 0.2692,13.49362 -0.41763,30.79389 -1.3125,32.5625 -0.32641,0.64515 -0.74844,1.87761 -0.90625,2.75 -0.15779,0.8724 -1.26409,4.59568 -2.46875,8.25 -1.98209,5.58513 -3.42951,12.33748 -1.34375,16.59375 2.36426,4.80223 5.55075,7.56609 9.84375,8.59375 5.28143,1.26423 9.72155,-0.48097 13.28125,-5.28125 0.59399,-0.80097 1.76847,-2.06346 2.59375,-2.78125 5.38247,-4.68152 5.72325,-6.25423 3.4375,-15.65625 -1.50454,-6.18858 -2.44521,-8.82212 -3.53125,-10 -0.43685,-0.47378 -0.84504,-1.26672 -0.9375,-1.75 -0.30765,-1.60914 -2.39584,-24.16519 -2.875,-31.125 -0.77067,-11.1945 -2.0839,-18.33983 -4.8125,-25.875 -0.51986,-1.43557 -1.19976,-2.85985 -1.5,-3.21875 -0.30022,-0.3589 -1.29096,-2.1951 -2.1875,-4.0625 -1.54309,-3.21387 -3.13214,-5.09375 -4.3125,-5.09375 z m -0.125,3.5625 c 0.27502,0.0101 0.5614,0.06677 0.84375,0.15625 0.49782,0.15799 1.3062,1.29123 1.9375,2.71875 0.59607,1.34779 1.37453,2.80388 1.75,3.21875 0.71916,0.79463 4.20216,13.83011 4.6875,17.53125 0.15628,1.19181 0.49959,3.04831 0.71875,4.125 0.21918,1.07669 0.68535,5.4066 1.0625,9.59375 0.37713,4.18715 1.05455,10.23868 1.5,13.46875 0.44546,3.23009 0.96481,7.58871 1.125,9.65625 0.18199,2.34923 0.11476,3.83266 -0.15625,4 -0.23833,0.14727 -0.978,-0.18391 -1.65625,-0.75 -2.52606,-2.10842 -4.01583,-2.58171 -7.09375,-2.28125 -1.57086,0.15336 -3.44135,0.3198 -4.15625,0.375 l -1.3125,0.09375 -0.0625,-21.53125 -0.0625,-21.5625 L 174.75,43.9375 c -0.74132,-3.70864 -1.34293,-7.29886 -1.34375,-7.96875 -0.003,-2.41114 1.63736,-4.19533 3.5625,-4.125 z m 4,62.71875 c 0.61682,-0.0262 1.16644,0.16161 2.21875,0.65625 1.06436,0.50031 2.03767,0.9375 2.15625,0.9375 0.52178,0 4.5625,2.71226 4.5625,3.0625 0,0.21389 0.79393,1.39526 1.75,2.65625 0.95602,1.261 1.74695,2.60986 1.75,2.96875 0.002,0.35887 0.30988,1.25096 0.6875,1.96875 1.56231,2.96969 1.99453,5.12165 1.84375,9.03125 l -0.15625,3.875 -2.4375,2.25 c -1.34754,1.23981 -2.97206,3.13868 -3.59375,4.25 -1.33848,2.39252 -3.24805,4.13732 -5.84375,5.25 -1.99643,0.85575 -3.76313,0.98336 -4.84375,0.375 -0.35891,-0.2021 -1.55155,-0.64937 -2.625,-0.96875 -2.37343,-0.70617 -4.26893,-2.28122 -6.09375,-5.125 -1.12045,-1.74603 -1.4264,-2.74885 -1.625,-5.375 -0.34807,-4.60185 0.21077,-6.68153 4.25,-16.1875 0.91503,-2.1534 1.80561,-4.43835 1.96875,-5.09375 0.37226,-1.49503 2.68065,-3.56705 4.75,-4.25 0.51474,-0.16989 0.91116,-0.26551 1.28125,-0.28125 z" />
  </g>
</svg>
