<?xml version="1.0" encoding="UTF-8" standalone="no"?>
<!-- Created with Inkscape (http://www.inkscape.org/) -->

<svg
   xmlns:dc="http://purl.org/dc/elements/1.1/"
   xmlns:cc="http://creativecommons.org/ns#"
   xmlns:rdf="http://www.w3.org/1999/02/22-rdf-syntax-ns#"
   xmlns:svg="http://www.w3.org/2000/svg"
   xmlns="http://www.w3.org/2000/svg"
   xmlns:sodipodi="http://sodipodi.sourceforge.net/DTD/sodipodi-0.dtd"
   xmlns:inkscape="http://www.inkscape.org/namespaces/inkscape"
   width="900"
   height="800"
   id="svg2"
   version="1.1"
   inkscape:version="0.48.2 r9819"
   sodipodi:docname="l5.svg">
  <defs
     id="defs4" />
  <sodipodi:namedview
     id="base"
     pagecolor="#ffffff"
     bordercolor="#666666"
     borderopacity="1.0"
     inkscape:pageopacity="0.0"
     inkscape:pageshadow="2"
     inkscape:zoom="1.4142136"
     inkscape:cx="368.09503"
     inkscape:cy="649.04726"
     inkscape:document-units="px"
     inkscape:current-layer="layer1"
     showgrid="false"
     showguides="true"
     inkscape:guide-bbox="true"
     inkscape:window-width="1366"
     inkscape:window-height="746"
     inkscape:window-x="-8"
     inkscape:window-y="-8"
     inkscape:window-maximized="1"
     width="0px"
     height="0px"
     fit-margin-top="0"
     fit-margin-left="0"
     fit-margin-right="0"
     fit-margin-bottom="0">
    <sodipodi:guide
       orientation="1,0"
       position="450,784"
       id="guide3178" />
    <sodipodi:guide
       orientation="0,1"
       position="-61,400"
       id="guide3180" />
  </sodipodi:namedview>
  <metadata
     id="metadata7">
    <rdf:RDF>
      <cc:Work
         rdf:about="">
        <dc:format>image/svg+xml</dc:format>
        <dc:type
           rdf:resource="http://purl.org/dc/dcmitype/StillImage" />
        <dc:title></dc:title>
      </cc:Work>
    </rdf:RDF>
  </metadata>
  <g
     inkscape:label="Layer 1"
     inkscape:groupmode="layer"
     id="layer1"
     transform="translate(0,-252.36218)">
    <path
       id="rect3103"
       transform="translate(0,252.36218)"
       style="fill:#ff0000"
       d="m 199.09375,32 c -1.12791,0 -3.87869,2.20032 -4.875,3.90625 -1.30909,2.24145 -1.23411,8.10471 0.21875,17.25 0.8025,5.05154 1.11467,9.74027 1.3125,19.65625 0.30431,15.2539 -0.4884,34.81317 -1.5,36.8125 -0.36899,0.72931 -0.82161,2.1388 -1,3.125 -0.17838,0.9862 -1.45068,5.1502 -2.8125,9.28125 -1.83537,5.56764 -2.5362,8.56418 -2.75,11.59375 -0.2726,3.86266 -0.18473,4.27332 1.25,7.1875 2.6727,5.42869 6.27196,8.55703 11.125,9.71875 5.9704,1.42915 10.97592,-0.54226 15,-5.96875 0.67147,-0.90545 2.03582,-2.31357 2.96875,-3.125 6.08465,-5.29223 6.45893,-7.09021 3.875,-17.71875 -1.70082,-6.99591 -2.77229,-9.98097 -4,-11.3125 -0.49384,-0.53559 -0.95797,-1.42243 -1.0625,-1.96875 -0.34779,-1.81905 -2.70834,-27.28852 -3.25,-35.15625 C 212.72254,62.62639 211.24079,54.51816 208.15625,46 c -0.58767,-1.62285 -1.3481,-3.25052 -1.6875,-3.65625 C 206.12936,41.93803 205.0135,39.861 204,37.75 202.25561,34.11686 200.42809,32 199.09375,32 z m -0.125,4.03125 c 0.31089,0.0115 0.64956,0.08621 0.96875,0.1875 0.56275,0.1786 1.47385,1.44874 2.1875,3.0625 0.67383,1.52361 1.54428,3.15601 1.96875,3.625 0.81296,0.89831 4.76385,15.65978 5.3125,19.84375 0.17666,1.34728 0.53349,3.43909 0.78125,4.65625 0.24776,1.21713 0.79238,6.11036 1.21875,10.84375 0.42634,4.73337 1.18393,11.56729 1.6875,15.21875 0.50357,3.65148 1.10017,8.569 1.28125,10.90625 0.20572,2.6557 0.11887,4.34208 -0.1875,4.53125 -0.26942,0.16649 -1.10828,-0.20381 -1.875,-0.84375 -2.85559,-2.38347 -4.52057,-2.90216 -8,-2.5625 -1.77578,0.17337 -3.91058,0.37511 -4.71875,0.4375 L 198.125,106.03125 198.0625,81.6875 198,57.3125 196.4375,49.71875 c -0.83803,-4.19244 -1.49905,-8.27398 -1.5,-9.03125 -0.003,-2.72568 1.85496,-4.73575 4.03125,-4.65625 z m 4.5,70.90625 c 0.69729,-0.0296 1.34165,0.19083 2.53125,0.75 1.20321,0.56557 2.30345,1.03125 2.4375,1.03125 0.58985,0 5.15625,3.10408 5.15625,3.5 0,0.2418 0.91922,1.57452 2,3 1.08074,1.42551 1.9653,2.93804 1.96875,3.34375 0.002,0.4057 0.35436,1.40732 0.78125,2.21875 1.7661,3.3571 2.2642,5.76789 2.09375,10.1875 l -0.1875,4.40625 -2.78125,2.53125 c -1.52334,1.40155 -3.32845,3.5562 -4.03125,4.8125 -1.5131,2.70463 -3.69067,4.67967 -6.625,5.9375 -2.25687,0.96738 -4.24716,1.09397 -5.46875,0.40625 -0.40572,-0.22846 -1.75527,-0.70147 -2.96875,-1.0625 -2.68306,-0.79829 -4.81212,-2.59776 -6.875,-5.8125 -1.26661,-1.97382 -1.61922,-3.09377 -1.84375,-6.0625 -0.39346,-5.20217 0.21508,-7.56644 4.78125,-18.3125 1.0344,-2.43432 2.03432,-5.0091 2.21875,-5.75 0.42083,-1.69006 3.0357,-4.04046 5.375,-4.8125 0.58189,-0.19206 1.01912,-0.2947 1.4375,-0.3125 z" />
  </g>
</svg>
