<?xml version="1.0" encoding="UTF-8" standalone="no"?>
<!-- Created with Inkscape (http://www.inkscape.org/) -->

<svg
   xmlns:dc="http://purl.org/dc/elements/1.1/"
   xmlns:cc="http://creativecommons.org/ns#"
   xmlns:rdf="http://www.w3.org/1999/02/22-rdf-syntax-ns#"
   xmlns:svg="http://www.w3.org/2000/svg"
   xmlns="http://www.w3.org/2000/svg"
   xmlns:sodipodi="http://sodipodi.sourceforge.net/DTD/sodipodi-0.dtd"
   xmlns:inkscape="http://www.inkscape.org/namespaces/inkscape"
   width="800"
   height="700"
   id="svg2"
   version="1.1"
   inkscape:version="0.48.2 r9819"
   sodipodi:docname="m4.svg">
  <defs
     id="defs4" />
  <sodipodi:namedview
     id="base"
     pagecolor="#ffffff"
     bordercolor="#666666"
     borderopacity="1.0"
     inkscape:pageopacity="0.0"
     inkscape:pageshadow="2"
     inkscape:zoom="2.5"
     inkscape:cx="177.35158"
     inkscape:cy="449.29046"
     inkscape:document-units="px"
     inkscape:current-layer="layer1"
     showgrid="false"
     showguides="true"
     inkscape:guide-bbox="true"
     inkscape:window-width="1366"
     inkscape:window-height="746"
     inkscape:window-x="-8"
     inkscape:window-y="-8"
     inkscape:window-maximized="1"
     width="0px"
     height="0px"
     fit-margin-top="0"
     fit-margin-left="0"
     fit-margin-right="0"
     fit-margin-bottom="0">
    <sodipodi:guide
       orientation="1,0"
       position="400.22244,349.31075"
       id="guide3178" />
    <sodipodi:guide
       orientation="0,1"
       position="400.22244,349.31075"
       id="guide3180" />
  </sodipodi:namedview>
  <metadata
     id="metadata7">
    <rdf:RDF>
      <cc:Work
         rdf:about="">
        <dc:format>image/svg+xml</dc:format>
        <dc:type
           rdf:resource="http://purl.org/dc/dcmitype/StillImage" />
        <dc:title></dc:title>
      </cc:Work>
    </rdf:RDF>
  </metadata>
  <g
     inkscape:label="Layer 1"
     inkscape:groupmode="layer"
     id="layer1"
     transform="translate(0,-352.36218)">
    <path
       id="rect3058"
       transform="translate(0,352.36218)"
       style="fill:#ff0000"
       d="m 181.90625,205.84375 c -3.15368,-0.008 -5.74044,1.05278 -8.15625,3.3125 -2.51775,2.35506 -3.40543,3.76793 -4.6875,7.4375 -0.84703,2.42469 -0.97117,3.4002 -0.78125,7.40625 0.19916,4.20064 1.18523,9.41793 2.78125,14.96875 0.33468,1.16398 0.59375,2.50927 0.59375,2.96875 0,0.45947 0.25626,1.28256 0.59375,1.8125 0.71315,1.11968 2.17027,11.43833 3.375,24.21875 0.6873,7.29101 0.25349,24.79315 -0.71875,28.96875 -0.83245,3.57527 -0.72576,9.68144 0.1875,10.78125 1.06393,1.28119 2.73254,0.8789 4.65625,-1.125 1.45797,-1.51883 2.08443,-2.80537 3.53125,-7.09375 1.71907,-5.09518 2.91663,-10.96205 4.25,-21.09375 0.99917,-7.59223 2.70857,-18.77704 3.6875,-24.125 0.48179,-2.63193 1.17857,-6.53411 1.5625,-8.6875 0.38395,-2.15338 1.10399,-4.79647 1.5625,-5.84375 0.45853,-1.04729 0.81207,-2.23668 0.8125,-2.625 6.5e-4,-0.3883 0.59532,-3.00685 1.3125,-5.84375 1.00486,-3.97507 1.28125,-6.11969 1.28125,-9.375 l 0,-4.25 -3.0625,-3.84375 c -4.10132,-5.17772 -7.48196,-7.53978 -11.40625,-7.90625 -0.47481,-0.0443 -0.92448,-0.0612 -1.375,-0.0625 z m 0.5625,0.84375 c 1.10153,0.0175 2.19945,0.28832 3.28125,0.8125 1.96606,0.9527 9.98976,9.33255 9.71875,10.15625 -0.0919,0.27923 -0.57268,0.57962 -1.09375,0.65625 -0.69745,0.10257 -1.16024,-0.23656 -1.71875,-1.28125 -1.96573,-3.67685 -7.11992,-7.78125 -9.78125,-7.78125 -1.1011,0 -3.52783,1.09716 -4.90625,2.25 -3.76456,3.14859 -6.53739,5.03886 -6.8125,4.59375 -0.48142,-0.77896 1.39963,-3.72207 3.6875,-5.78125 2.74933,-2.47456 5.2016,-3.66311 7.625,-3.625 z m -0.34375,4.53125 c 2.18449,-0.0216 4.55212,1.3708 7.09375,4.1875 3.03094,3.35901 4.40564,7.12915 3.96875,10.9375 -0.5942,5.17976 -3.37011,12.43263 -5.84375,15.25 -0.79726,0.90801 -2.08611,1.77743 -3,2.03125 -2.73224,0.75891 -4.13868,0.54177 -5.40625,-0.78125 -1.2665,-1.32194 -3.1688,-5.55996 -4.03125,-9 -0.29992,-1.19629 -1.07501,-3.94036 -1.71875,-6.09375 -0.94864,-3.17335 -1.13877,-4.46647 -0.9375,-6.71875 0.13658,-1.52837 0.60207,-3.26768 1,-3.875 0.90134,-1.37563 2.71812,-3.09375 3.28125,-3.09375 0.23257,0 1.06254,-0.59532 1.84375,-1.28125 1.17932,-1.03542 2.43929,-1.54955 3.75,-1.5625 z M 170.1875,218.25 c 0.0591,-0.0675 0.0682,0.34494 0.0937,1.21875 0.0553,1.88072 1.90665,11.03255 2.59375,12.84375 0.22694,0.59815 0.54695,2.11885 0.71875,3.375 0.58331,4.26461 -0.50813,2.09849 -2.03125,-4.03125 -1.9971,-8.03736 -2.1841,-9.24291 -1.75,-11.625 0.20779,-1.13947 0.31581,-1.7138 0.375,-1.78125 z m 25.78125,1.53125 c 0.1916,-0.002 0.36159,0.10691 0.53125,0.375 0.216,0.3413 0.37194,1.0534 0.375,1.5625 0.0119,1.67552 -2.23214,11.63869 -3.03125,13.46875 -0.84608,1.93754 -1.75,2.80024 -1.75,1.6875 0,-0.37605 0.43145,-2.08086 0.9375,-3.8125 0.61674,-2.11046 0.95302,-4.6667 1.03125,-7.71875 0.10597,-4.13982 0.19267,-4.5787 1.0625,-5.15625 0.41332,-0.27434 0.65214,-0.40416 0.84375,-0.40625 z M 192.40625,239 c 0.11494,-0.0556 0.0717,0.30109 -0.0312,0.9375 -0.11631,0.7178 -0.89974,4.52085 -1.75,8.46875 -0.85031,3.94788 -2.05611,10.69321 -2.65625,15 -0.60014,4.30679 -1.25699,8.63671 -1.5,9.59375 -0.24301,0.95706 -0.66676,3.60198 -0.90625,5.875 -0.49447,4.69246 -1.86021,12.53927 -2.8125,16.09375 -0.35258,1.31595 -0.91882,3.46299 -1.25,4.8125 -0.33122,1.34952 -1.21235,3.36937 -1.96875,4.46875 -2.86387,4.16247 -4.39543,3.50451 -3.5625,-1.5625 1.64302,-9.9952 2.01643,-25.72811 0.84375,-37.53125 -0.40415,-4.06752 -0.87754,-9.7467 -1.03125,-12.59375 -0.15371,-2.84702 -0.42269,-5.59293 -0.625,-6.125 -0.20232,-0.5321 -0.52198,-2.42239 -0.65625,-4.1875 -0.18612,-2.44499 -0.10543,-2.87125 0.21875,-1.84375 0.23407,0.74177 1.27642,2.26248 2.3125,3.375 1.87745,2.0157 1.86184,2.03125 4.75,2.03125 2.38462,0 3.41628,-0.25543 5.75,-1.40625 1.55979,-0.76916 2.81148,-1.62728 2.8125,-1.875 8.2e-4,-0.24773 0.51504,-1.23043 1.125,-2.1875 0.54068,-0.84867 0.82252,-1.28803 0.9375,-1.34375 z" />
  </g>
</svg>
