<?xml version="1.0" encoding="UTF-8" standalone="no"?>
<!-- Created with Inkscape (http://www.inkscape.org/) -->

<svg
   xmlns:dc="http://purl.org/dc/elements/1.1/"
   xmlns:cc="http://creativecommons.org/ns#"
   xmlns:rdf="http://www.w3.org/1999/02/22-rdf-syntax-ns#"
   xmlns:svg="http://www.w3.org/2000/svg"
   xmlns="http://www.w3.org/2000/svg"
   xmlns:sodipodi="http://sodipodi.sourceforge.net/DTD/sodipodi-0.dtd"
   xmlns:inkscape="http://www.inkscape.org/namespaces/inkscape"
   width="900"
   height="800"
   id="svg2"
   version="1.1"
   inkscape:version="0.48.2 r9819"
   sodipodi:docname="m4.svg">
  <defs
     id="defs4" />
  <sodipodi:namedview
     id="base"
     pagecolor="#ffffff"
     bordercolor="#666666"
     borderopacity="1.0"
     inkscape:pageopacity="0.0"
     inkscape:pageshadow="2"
     inkscape:zoom="1.4142136"
     inkscape:cx="368.09503"
     inkscape:cy="620.76299"
     inkscape:document-units="px"
     inkscape:current-layer="layer1"
     showgrid="false"
     showguides="true"
     inkscape:guide-bbox="true"
     inkscape:window-width="1366"
     inkscape:window-height="746"
     inkscape:window-x="-8"
     inkscape:window-y="-8"
     inkscape:window-maximized="1"
     width="0px"
     height="0px"
     fit-margin-top="0"
     fit-margin-left="0"
     fit-margin-right="0"
     fit-margin-bottom="0">
    <sodipodi:guide
       orientation="1,0"
       position="450,784"
       id="guide3178" />
    <sodipodi:guide
       orientation="0,1"
       position="-61,400"
       id="guide3180" />
  </sodipodi:namedview>
  <metadata
     id="metadata7">
    <rdf:RDF>
      <cc:Work
         rdf:about="">
        <dc:format>image/svg+xml</dc:format>
        <dc:type
           rdf:resource="http://purl.org/dc/dcmitype/StillImage" />
        <dc:title></dc:title>
      </cc:Work>
    </rdf:RDF>
  </metadata>
  <g
     inkscape:label="Layer 1"
     inkscape:groupmode="layer"
     id="layer1"
     transform="translate(0,-252.36218)">
    <path
       id="rect3111"
       transform="translate(0,252.36218)"
       style="fill:#ff0000"
       d="m 204.5625,232.75 c -3.56507,-0.009 -6.4878,1.1955 -9.21875,3.75 -2.84619,2.66228 -3.86319,4.22672 -5.3125,8.375 -0.95754,2.74101 -1.08971,3.84636 -0.875,8.375 0.22512,4.74863 1.32079,10.66256 3.125,16.9375 0.37835,1.31583 0.6875,2.82433 0.6875,3.34375 0,0.51942 0.30598,1.46343 0.6875,2.0625 0.80618,1.26574 2.41935,12.92734 3.78125,27.375 0.77696,8.24215 0.28658,28.02968 -0.8125,32.75 -0.94106,4.04168 -0.81365,10.94424 0.21875,12.1875 1.20274,1.44834 3.1066,0.98406 5.28125,-1.28125 1.64818,-1.71696 2.33318,-3.15219 3.96875,-8 1.94332,-5.75986 3.30518,-12.39033 4.8125,-23.84375 1.1295,-8.58264 3.04959,-21.23565 4.15625,-27.28125 0.54463,-2.97528 1.34724,-7.40943 1.78125,-9.84375 0.43404,-2.43429 1.23168,-5.40984 1.75,-6.59375 0.51836,-1.18392 0.93703,-2.49853 0.9375,-2.9375 7.3e-4,-0.43896 0.65803,-3.41801 1.46875,-6.625 1.13595,-4.49362 1.46875,-6.94503 1.46875,-10.625 l 0,-4.78125 -3.46875,-4.375 c -4.63635,-5.85316 -8.47003,-8.49198 -12.90625,-8.90625 -0.53675,-0.05 -1.02194,-0.0611 -1.53125,-0.0625 z m 0.65625,0.9375 c 1.24523,0.0198 2.46457,0.34494 3.6875,0.9375 2.22255,1.07698 11.27512,10.53759 10.96875,11.46875 -0.10386,0.31565 -0.66096,0.63211 -1.25,0.71875 -0.78844,0.11595 -1.30614,-0.25654 -1.9375,-1.4375 -2.22217,-4.15652 -8.05399,-8.78125 -11.0625,-8.78125 -1.24474,0 -3.97302,1.25926 -5.53125,2.5625 -4.25567,3.55934 -7.40777,5.65941 -7.71875,5.15625 -0.54422,-0.88059 1.60116,-4.20344 4.1875,-6.53125 3.10797,-2.79737 5.9167,-4.13684 8.65625,-4.09375 z m -0.40625,5.125 c 2.46948,-0.0244 5.12681,1.56585 8,4.75 3.42633,3.79719 4.99388,8.03857 4.5,12.34375 -0.67172,5.85547 -3.82866,14.03385 -6.625,17.21875 -0.90126,1.02647 -2.34191,2.02557 -3.375,2.3125 -3.08868,0.85791 -4.69208,0.62059 -6.125,-0.875 -1.43171,-1.49439 -3.58754,-6.29869 -4.5625,-10.1875 -0.33905,-1.35237 -1.20977,-4.4407 -1.9375,-6.875 -1.07238,-3.58733 -1.25879,-5.04764 -1.03125,-7.59375 0.1544,-1.72774 0.64392,-3.68845 1.09375,-4.375 1.01894,-1.55507 3.11342,-3.53125 3.75,-3.53125 0.26291,0 1.17938,-0.63084 2.0625,-1.40625 1.33317,-1.17049 2.7683,-1.76661 4.25,-1.78125 z m -13.5,7.9375 c 0.0668,-0.0763 0.0647,0.41844 0.0937,1.40625 0.0624,2.12606 2.12951,12.45252 2.90625,14.5 0.25654,0.67619 0.64952,2.39249 0.84375,3.8125 0.6594,4.82094 -0.59069,2.36687 -2.3125,-4.5625 -2.25764,-9.08587 -2.45949,-10.4634 -1.96875,-13.15625 0.23489,-1.28811 0.37059,-1.92376 0.4375,-2 z m 29.15625,1.71875 c 0.2166,-0.002 0.37071,0.13443 0.5625,0.4375 0.24418,0.38581 0.43405,1.17449 0.4375,1.75 0.0134,1.89409 -2.50289,13.21245 -3.40625,15.28125 -0.95644,2.1903 -1.96875,3.13288 -1.96875,1.875 0,-0.42511 0.45919,-2.32371 1.03125,-4.28125 0.69721,-2.38577 1.09904,-5.2998 1.1875,-8.75 0.11977,-4.67988 0.20421,-5.19086 1.1875,-5.84375 0.46724,-0.31013 0.75215,-0.46639 0.96875,-0.46875 z m -4.0625,21.75 c 0.12995,-0.0629 0.085,0.34307 -0.0312,1.0625 -0.13149,0.81144 -1.00756,5.09958 -1.96875,9.5625 -0.96123,4.4629 -2.32159,12.10013 -3,16.96875 -0.67844,4.86862 -1.44402,9.76186 -1.71875,10.84375 -0.2747,1.08191 -0.72925,4.05546 -1,6.625 -0.55897,5.30461 -2.11097,14.20059 -3.1875,18.21875 -0.39855,1.48764 -1.03186,3.91194 -1.40625,5.4375 -0.37443,1.52556 -1.36367,3.78845 -2.21875,5.03125 -3.23746,4.70546 -4.97284,3.978 -4.03125,-1.75 1.85737,-11.29911 2.26317,-29.09461 0.9375,-42.4375 -0.45686,-4.59815 -0.98248,-11.0003 -1.15625,-14.21875 -0.17375,-3.21843 -0.49004,-6.33602 -0.71875,-6.9375 -0.2287,-0.60151 -0.56696,-2.72339 -0.71875,-4.71875 -0.21039,-2.76396 -0.14774,-3.25529 0.21875,-2.09375 0.26458,0.83852 1.45377,2.55484 2.625,3.8125 2.12238,2.27866 2.11007,2.28125 5.375,2.28125 2.6957,0 3.86183,-0.26155 6.5,-1.5625 1.76326,-0.86948 3.18634,-1.84496 3.1875,-2.125 9.2e-4,-0.28005 0.59174,-1.38685 1.28125,-2.46875 0.61121,-0.95939 0.90129,-1.46826 1.03125,-1.53125 z" />
  </g>
</svg>
