<?xml version="1.0" encoding="UTF-8" standalone="no"?>
<!-- Created with Inkscape (http://www.inkscape.org/) -->

<svg
   xmlns:dc="http://purl.org/dc/elements/1.1/"
   xmlns:cc="http://creativecommons.org/ns#"
   xmlns:rdf="http://www.w3.org/1999/02/22-rdf-syntax-ns#"
   xmlns:svg="http://www.w3.org/2000/svg"
   xmlns="http://www.w3.org/2000/svg"
   xmlns:sodipodi="http://sodipodi.sourceforge.net/DTD/sodipodi-0.dtd"
   xmlns:inkscape="http://www.inkscape.org/namespaces/inkscape"
   width="800"
   height="400"
   id="svg2"
   version="1.1"
   inkscape:version="0.48.2 r9819"
   sodipodi:docname="m4.svg">
  <defs
     id="defs4" />
  <sodipodi:namedview
     id="base"
     pagecolor="#ffffff"
     bordercolor="#666666"
     borderopacity="1.0"
     inkscape:pageopacity="0.0"
     inkscape:pageshadow="2"
     inkscape:zoom="2"
     inkscape:cx="249.15404"
     inkscape:cy="218.30642"
     inkscape:document-units="px"
     inkscape:current-layer="layer1"
     showgrid="false"
     showguides="true"
     inkscape:guide-bbox="true"
     inkscape:window-width="1366"
     inkscape:window-height="746"
     inkscape:window-x="-8"
     inkscape:window-y="-8"
     inkscape:window-maximized="1"
     width="0px"
     height="0px"
     fit-margin-top="0"
     fit-margin-left="0"
     fit-margin-right="0"
     fit-margin-bottom="0">
    <sodipodi:guide
       orientation="1,0"
       position="400.22244,349.31075"
       id="guide3178" />
    <sodipodi:guide
       orientation="0,1"
       position="-117.37973,199.40411"
       id="guide3180" />
  </sodipodi:namedview>
  <metadata
     id="metadata7">
    <rdf:RDF>
      <cc:Work
         rdf:about="">
        <dc:format>image/svg+xml</dc:format>
        <dc:type
           rdf:resource="http://purl.org/dc/dcmitype/StillImage" />
        <dc:title></dc:title>
      </cc:Work>
    </rdf:RDF>
  </metadata>
  <g
     inkscape:label="Layer 1"
     inkscape:groupmode="layer"
     id="layer1"
     transform="translate(0,-652.36218)">
    <path
       id="rect3185"
       transform="translate(0,652.36218)"
       style="fill:#ff0000"
       d="m 191.15625,135.34375 c -0.40708,8.2e-4 -0.87412,0.0417 -1.4375,0.0937 -3.33996,0.30946 -5.76886,1.43753 -8.46875,3.9375 -1.19634,1.10775 -2.96734,2.41721 -3.96875,2.90625 -1.0566,0.51598 -2.26898,1.56799 -2.84375,2.5 -0.89747,1.4569 -0.96034,2.05592 -0.875,6.59375 0.0844,4.4905 0.27309,5.53147 1.8125,10.3125 0.94324,2.92959 2.50291,6.86304 3.46875,8.71875 1.87138,3.59579 5.21647,7.79881 6.71875,8.40625 1.95888,0.79206 6.29209,0.47153 8.4375,-0.625 5.36376,-2.74138 7.92645,-8.33955 9.4375,-20.5 0.38647,-3.11046 0.81554,-6.05979 0.9375,-6.5625 0.3635,-1.49818 -0.70406,-6.34153 -1.8125,-8.25 -1.12814,-1.94236 -4.32108,-4.53746 -7.9375,-6.4375 -1.51171,-0.79407 -2.24751,-1.09714 -3.46875,-1.09375 z m -1.0625,1.84375 c 0.98001,0.0243 2.05002,0.53773 5.0625,2.03125 4.39287,2.17786 4.65236,2.37715 5.65625,4.5 1.33929,2.83221 1.91498,6.13684 1.4375,8.09375 -0.2043,0.83745 -0.64217,4.01294 -0.96875,7.03125 -0.63717,5.88824 -2.4203,11.99729 -4.0625,13.90625 -0.49501,0.57537 -1.3879,1.59918 -1.96875,2.28125 -0.74941,0.88003 -1.77803,1.41655 -3.59375,1.84375 -4.38379,1.03129 -6.08583,0.65547 -8.59375,-1.90625 -2.58565,-2.64114 -4.80268,-7.24312 -6.21875,-13.0625 -2.77448,-11.40181 -2.10453,-16.83087 2.25,-18.84375 0.95703,-0.44241 2.93636,-1.76783 4.40625,-2.9375 1.77606,-1.41333 3.3845,-2.30618 4.84375,-2.65625 0.54868,-0.13161 0.9631,-0.21159 1.34375,-0.25 0.14275,-0.0145 0.26624,-0.0345 0.40625,-0.0312 z m -6.71875,14 c -0.0388,8.1e-4 -0.0893,0.0122 -0.125,0.0312 -0.1716,0.0922 -0.30169,0.42123 -0.375,0.9375 -0.16486,1.16083 -0.81355,1.23888 -1.90625,0.25 -0.67737,-0.61289 -0.8125,-0.61779 -0.8125,-0.0625 0,0.73462 1.28588,1.99174 2.75,2.71875 1.12133,0.55678 1.54818,2.36067 0.6875,2.90625 -0.32003,0.20282 -1.02083,0.37195 -1.53125,0.375 -0.58794,0.005 -0.99725,0.36073 -1.15625,0.96875 -0.32201,1.23142 -0.14632,1.3925 0.9375,0.8125 1.18841,-0.63598 2.67975,-0.57445 2.65625,0.0937 -0.0104,0.29908 -0.31144,1.29296 -0.65625,2.25 -0.34479,0.95707 -0.62194,1.91431 -0.625,2.09375 -0.0181,0.89394 0.92022,0.11079 1.9375,-1.625 0.90932,-1.5517 1.46875,-2.05881 2.875,-2.4375 2.90258,-0.78157 4.32104,-0.4267 5.25,1.3125 0.76847,1.43879 0.8125,1.47135 0.8125,0.40625 0,-1.22342 0.96613,-2.31383 2.5,-2.78125 1.31441,-0.40058 1.25992,-1.09375 -0.0937,-1.09375 -1.30899,0 -1.41119,-0.49474 -0.28125,-2.0625 1.21397,-1.68436 1.64172,-3.59375 0.78125,-3.59375 -0.36871,0 -0.79032,0.37998 -0.9375,0.84375 -0.14723,0.46381 -0.97819,1.42371 -1.8125,2.15625 -1.21314,1.06517 -1.86672,1.34375 -3.4375,1.34375 -3.12017,0 -5.70167,-1.7765 -6.59375,-4.5625 -0.27022,-0.84346 -0.57336,-1.28909 -0.84375,-1.28125 z" />
  </g>
</svg>
