<?xml version="1.0" encoding="UTF-8" standalone="no"?>
<!-- Created with Inkscape (http://www.inkscape.org/) -->

<svg
   xmlns:dc="http://purl.org/dc/elements/1.1/"
   xmlns:cc="http://creativecommons.org/ns#"
   xmlns:rdf="http://www.w3.org/1999/02/22-rdf-syntax-ns#"
   xmlns:svg="http://www.w3.org/2000/svg"
   xmlns="http://www.w3.org/2000/svg"
   xmlns:sodipodi="http://sodipodi.sourceforge.net/DTD/sodipodi-0.dtd"
   xmlns:inkscape="http://www.inkscape.org/namespaces/inkscape"
   width="900"
   height="800"
   id="svg2"
   version="1.1"
   inkscape:version="0.48.2 r9819"
   sodipodi:docname="f4.svg">
  <defs
     id="defs4" />
  <sodipodi:namedview
     id="base"
     pagecolor="#ffffff"
     bordercolor="#666666"
     borderopacity="1.0"
     inkscape:pageopacity="0.0"
     inkscape:pageshadow="2"
     inkscape:zoom="1.4142136"
     inkscape:cx="368.09503"
     inkscape:cy="649.04726"
     inkscape:document-units="px"
     inkscape:current-layer="layer1"
     showgrid="false"
     showguides="true"
     inkscape:guide-bbox="true"
     inkscape:window-width="1366"
     inkscape:window-height="746"
     inkscape:window-x="-8"
     inkscape:window-y="-8"
     inkscape:window-maximized="1"
     width="0px"
     height="0px"
     fit-margin-top="0"
     fit-margin-left="0"
     fit-margin-right="0"
     fit-margin-bottom="0">
    <sodipodi:guide
       orientation="1,0"
       position="450,784"
       id="guide3178" />
    <sodipodi:guide
       orientation="0,1"
       position="-61,400"
       id="guide3180" />
  </sodipodi:namedview>
  <metadata
     id="metadata7">
    <rdf:RDF>
      <cc:Work
         rdf:about="">
        <dc:format>image/svg+xml</dc:format>
        <dc:type
           rdf:resource="http://purl.org/dc/dcmitype/StillImage" />
        <dc:title></dc:title>
      </cc:Work>
    </rdf:RDF>
  </metadata>
  <g
     inkscape:label="Layer 1"
     inkscape:groupmode="layer"
     id="layer1"
     transform="translate(0,-252.36218)">
    <path
       id="rect3107"
       transform="translate(0,252.36218)"
       style="fill:#ff0000"
       d="m 213.25,162.40625 c -0.46019,9.2e-4 -0.98814,0.0348 -1.625,0.0937 -3.77568,0.34983 -6.54165,1.61141 -9.59375,4.4375 -1.3524,1.25228 -3.3367,2.72842 -4.46875,3.28125 -1.19445,0.58329 -2.53774,1.79014 -3.1875,2.84375 -1.01455,1.64694 -1.12773,2.33895 -1.03125,7.46875 0.0955,5.07629 0.32227,6.25151 2.0625,11.65625 1.0663,3.31177 2.81441,7.74594 3.90625,9.84375 2.11551,4.06485 5.92675,8.81331 7.625,9.5 2.21442,0.89539 7.10596,0.52082 9.53125,-0.71875 6.06346,-3.09899 8.94809,-9.40943 10.65625,-23.15625 0.4369,-3.51622 0.92463,-6.86921 1.0625,-7.4375 0.4109,-1.69361 -0.80945,-7.15507 -2.0625,-9.3125 -1.27531,-2.19575 -4.88055,-5.13334 -8.96875,-7.28125 -1.70869,-0.89764 -2.5257,-1.22258 -3.90625,-1.21875 z m -1.1875,2.0625 c 1.10786,0.0275 2.31329,0.62415 5.71875,2.3125 4.96593,2.46198 5.24016,2.69397 6.375,5.09375 1.51401,3.20168 2.19599,6.94405 1.65625,9.15625 -0.23097,0.94669 -0.7558,4.52546 -1.125,7.9375 -0.72029,6.65638 -2.73733,13.56077 -4.59375,15.71875 -0.55958,0.65044 -1.56213,1.79144 -2.21875,2.5625 -0.84718,0.99482 -2.00991,1.61084 -4.0625,2.09375 -4.95566,1.16583 -6.88366,0.73966 -9.71875,-2.15625 -2.92296,-2.98567 -5.3992,-8.20272 -7,-14.78125 -3.13642,-12.88922 -2.42258,-19.00579 2.5,-21.28125 1.0819,-0.50012 3.33837,-1.99024 5,-3.3125 2.00777,-1.59773 3.85037,-2.60426 5.5,-3 0.62025,-0.14879 1.06969,-0.26908 1.5,-0.3125 0.16138,-0.0163 0.31049,-0.0351 0.46875,-0.0312 z m -7.625,15.84375 c -0.0437,9.1e-4 -0.0846,0.01 -0.125,0.0312 -0.19398,0.10418 -0.35461,0.44762 -0.4375,1.03125 -0.18637,1.31225 -0.921,1.39914 -2.15625,0.28125 -0.76573,-0.69284 -0.90625,-0.69033 -0.90625,-0.0625 0,0.83045 1.43864,2.27191 3.09375,3.09375 1.26762,0.62942 1.75422,2.63324 0.78125,3.25 -0.36177,0.22928 -1.14173,0.43406 -1.71875,0.4375 -0.66462,0.005 -1.13277,0.43767 -1.3125,1.125 -0.36403,1.39207 -0.1627,1.56192 1.0625,0.90625 1.34345,-0.71894 3.0578,-0.66162 3.03125,0.0937 -0.0118,0.33811 -0.36022,1.48061 -0.75,2.5625 -0.38977,1.08192 -0.7153,2.1409 -0.71875,2.34375 -0.0204,1.01056 1.03751,0.14973 2.1875,-1.8125 1.02795,-1.75413 1.66031,-2.35317 3.25,-2.78125 3.28123,-0.88353 4.88735,-0.43484 5.9375,1.53125 0.86872,1.62649 0.9375,1.6103 0.9375,0.40625 0,-1.38303 1.04728,-2.5966 2.78125,-3.125 1.48588,-0.45282 1.43652,-1.25 -0.0937,-1.25 -1.47975,0 -1.55861,-0.54023 -0.28125,-2.3125 1.37232,-1.90408 1.81647,-4.0625 0.84375,-4.0625 -0.41683,0 -0.86486,0.44448 -1.03125,0.96875 -0.16643,0.52432 -1.11935,1.60942 -2.0625,2.4375 -1.37139,1.20414 -2.13055,1.5 -3.90625,1.5 -3.52719,0 -6.42905,-2.0068 -7.4375,-5.15625 -0.30548,-0.95349 -0.6631,-1.44636 -0.96875,-1.4375 z m 9.71875,40.59375 c -0.17084,0.006 -0.32454,0.0745 -0.40625,0.15625 -0.16342,0.16341 0.13783,0.27136 0.65625,0.25 0.57291,-0.0236 0.67355,-0.15546 0.28125,-0.3125 -0.17749,-0.071 -0.36039,-0.10079 -0.53125,-0.0937 z" />
  </g>
</svg>
