<?xml version="1.0" encoding="UTF-8" standalone="no"?>
<!-- Created with Inkscape (http://www.inkscape.org/) -->

<svg
   xmlns:dc="http://purl.org/dc/elements/1.1/"
   xmlns:cc="http://creativecommons.org/ns#"
   xmlns:rdf="http://www.w3.org/1999/02/22-rdf-syntax-ns#"
   xmlns:svg="http://www.w3.org/2000/svg"
   xmlns="http://www.w3.org/2000/svg"
   xmlns:sodipodi="http://sodipodi.sourceforge.net/DTD/sodipodi-0.dtd"
   xmlns:inkscape="http://www.inkscape.org/namespaces/inkscape"
   width="800"
   height="700"
   id="svg2"
   version="1.1"
   inkscape:version="0.48.2 r9819"
   sodipodi:docname="f2-fill.svg">
  <defs
     id="defs4" />
  <sodipodi:namedview
     id="base"
     pagecolor="#ffffff"
     bordercolor="#666666"
     borderopacity="1.0"
     inkscape:pageopacity="0.0"
     inkscape:pageshadow="2"
     inkscape:zoom="2.8284271"
     inkscape:cx="152.88307"
     inkscape:cy="576.87681"
     inkscape:document-units="px"
     inkscape:current-layer="layer1"
     showgrid="false"
     showguides="true"
     inkscape:guide-bbox="true"
     inkscape:window-width="1024"
     inkscape:window-height="538"
     inkscape:window-x="-8"
     inkscape:window-y="-8"
     inkscape:window-maximized="1"
     width="0px"
     height="0px"
     fit-margin-top="0"
     fit-margin-left="0"
     fit-margin-right="0"
     fit-margin-bottom="0">
    <sodipodi:guide
       orientation="1,0"
       position="400.22244,349.31075"
       id="guide3178" />
    <sodipodi:guide
       orientation="0,1"
       position="400.22244,349.31075"
       id="guide3180" />
  </sodipodi:namedview>
  <metadata
     id="metadata7">
    <rdf:RDF>
      <cc:Work
         rdf:about="">
        <dc:format>image/svg+xml</dc:format>
        <dc:type
           rdf:resource="http://purl.org/dc/dcmitype/StillImage" />
        <dc:title />
      </cc:Work>
    </rdf:RDF>
  </metadata>
  <g
     inkscape:label="Layer 1"
     inkscape:groupmode="layer"
     id="layer1"
     transform="translate(0,-352.36218)">
    <path
       id="rect3218"
       transform="translate(0,352.36218)"
       style="fill:#00ff00"
       d="m 79.40625,101.75 c -1.83089,0.009 -4.14665,0.19059 -8.21875,0.46875 -10.096,0.68977 -10.4269,0.73965 -10.75,2.125 -0.15006,0.64347 -0.7982,2.34567 -1.46875,3.78125 -3.122,6.68389 -3.18888,16.36137 -0.09375,17.34375 0.43866,0.13923 1.48365,1.15424 2.28125,2.21875 0.7976,1.06449 2.04096,2.2055 2.78125,2.5625 0.74031,0.35698 2.06883,1.15213 2.90625,1.75 1.84875,1.32053 3.63807,1.41651 5.5,0.28125 2.58048,-1.57344 3.1875,-3.53116 3.1875,-10.4375 0,-5.57133 -0.06283,-6.14961 -0.875,-6.90625 -0.8855,-0.82497 -0.89474,-0.82193 0.75,-1.09375 0.90705,-0.14992 2.12059,-0.28625 2.71875,-0.28125 l 1.09375,0 -1.09375,0.90625 c -0.91854,0.76425 -1.10521,1.40411 -1.375,4.4375 -0.43731,4.917 -0.10683,6.61198 1.65625,8.375 2.1388,2.1388 6.88448,4.3367 9.21875,4.25 2.26924,-0.0842 6.40016,-2.01647 7.09375,-3.3125 0.27419,-0.51232 0.75894,-2.85323 1.0625,-5.1875 0.52108,-4.00669 0.48371,-4.47136 -0.46875,-8.28125 -0.95939,-3.83762 -2.93879,-8.68932 -4.15625,-10.15625 -1.03522,-1.24737 -3.20935,-2.04473 -6.5,-2.4375 -2.09023,-0.24948 -3.4191,-0.41425 -5.25,-0.40625 z" />
  </g>
</svg>
