<?xml version="1.0" encoding="UTF-8" standalone="no"?>
<!-- Created with Inkscape (http://www.inkscape.org/) -->

<svg
   xmlns:dc="http://purl.org/dc/elements/1.1/"
   xmlns:cc="http://creativecommons.org/ns#"
   xmlns:rdf="http://www.w3.org/1999/02/22-rdf-syntax-ns#"
   xmlns:svg="http://www.w3.org/2000/svg"
   xmlns="http://www.w3.org/2000/svg"
   xmlns:sodipodi="http://sodipodi.sourceforge.net/DTD/sodipodi-0.dtd"
   xmlns:inkscape="http://www.inkscape.org/namespaces/inkscape"
   width="800"
   height="700"
   id="svg2"
   version="1.1"
   inkscape:version="0.48.2 r9819"
   sodipodi:docname="f2.svg">
  <defs
     id="defs4" />
  <sodipodi:namedview
     id="base"
     pagecolor="#ffffff"
     bordercolor="#666666"
     borderopacity="1.0"
     inkscape:pageopacity="0.0"
     inkscape:pageshadow="2"
     inkscape:zoom="2.8284271"
     inkscape:cx="152.88307"
     inkscape:cy="585.3118"
     inkscape:document-units="px"
     inkscape:current-layer="layer1"
     showgrid="false"
     showguides="true"
     inkscape:guide-bbox="true"
     inkscape:window-width="1366"
     inkscape:window-height="746"
     inkscape:window-x="-8"
     inkscape:window-y="-8"
     inkscape:window-maximized="1"
     width="0px"
     height="0px"
     fit-margin-top="0"
     fit-margin-left="0"
     fit-margin-right="0"
     fit-margin-bottom="0">
    <sodipodi:guide
       orientation="1,0"
       position="400.22244,349.31075"
       id="guide3178" />
    <sodipodi:guide
       orientation="0,1"
       position="400.22244,349.31075"
       id="guide3180" />
  </sodipodi:namedview>
  <metadata
     id="metadata7">
    <rdf:RDF>
      <cc:Work
         rdf:about="">
        <dc:format>image/svg+xml</dc:format>
        <dc:type
           rdf:resource="http://purl.org/dc/dcmitype/StillImage" />
        <dc:title></dc:title>
      </cc:Work>
    </rdf:RDF>
  </metadata>
  <g
     inkscape:label="Layer 1"
     inkscape:groupmode="layer"
     id="layer1"
     transform="translate(0,-352.36218)">
    <path
       style="fill:#ff0000"
       d="m 79.40625,454.11218 c 1.8309,-0.008 3.15977,0.15677 5.25,0.40625 3.29065,0.39277 5.46478,1.19013 6.5,2.4375 1.21746,1.46693 3.19686,6.31863 4.15625,10.15625 0.95246,3.80989 0.98983,4.27456 0.46875,8.28125 -0.30356,2.33427 -0.78831,4.67518 -1.0625,5.1875 -0.69359,1.29603 -4.82451,3.22833 -7.09375,3.3125 -2.33427,0.0867 -7.07995,-2.1112 -9.21875,-4.25 -1.76308,-1.76302 -2.09356,-3.458 -1.65625,-8.375 0.26979,-3.03339 0.45646,-3.67325 1.375,-4.4375 l 1.09375,-0.90625 -1.09375,0 c -0.59816,-0.005 -1.8117,0.13133 -2.71875,0.28125 -1.64474,0.27182 -1.6355,0.26878 -0.75,1.09375 0.81217,0.75664 0.875,1.33492 0.875,6.90625 0,6.90634 -0.60702,8.86406 -3.1875,10.4375 -1.86193,1.13526 -3.65125,1.03928 -5.5,-0.28125 -0.83742,-0.59787 -2.16594,-1.39302 -2.90625,-1.75 -0.74029,-0.357 -1.98365,-1.49801 -2.78125,-2.5625 -0.7976,-1.06451 -1.84259,-2.07952 -2.28125,-2.21875 -3.09513,-0.98238 -3.02825,-10.65986 0.09375,-17.34375 0.67055,-1.43558 1.31869,-3.13778 1.46875,-3.78125 0.3231,-1.38535 0.654,-1.43523 10.75,-2.125 4.0721,-0.27816 6.38786,-0.46022 8.21875,-0.46875 z"
       id="rect3009" />
  </g>
</svg>
