<?xml version="1.0" encoding="UTF-8" standalone="no"?>
<!-- Created with Inkscape (http://www.inkscape.org/) -->

<svg
   xmlns:dc="http://purl.org/dc/elements/1.1/"
   xmlns:cc="http://creativecommons.org/ns#"
   xmlns:rdf="http://www.w3.org/1999/02/22-rdf-syntax-ns#"
   xmlns:svg="http://www.w3.org/2000/svg"
   xmlns="http://www.w3.org/2000/svg"
   xmlns:sodipodi="http://sodipodi.sourceforge.net/DTD/sodipodi-0.dtd"
   xmlns:inkscape="http://www.inkscape.org/namespaces/inkscape"
   width="800"
   height="700"
   id="svg2"
   version="1.1"
   inkscape:version="0.48.2 r9819"
   sodipodi:docname="f25-fill.svg">
  <defs
     id="defs4" />
  <sodipodi:namedview
     id="base"
     pagecolor="#ffffff"
     bordercolor="#666666"
     borderopacity="1.0"
     inkscape:pageopacity="0.0"
     inkscape:pageshadow="2"
     inkscape:zoom="2.5"
     inkscape:cx="502.68159"
     inkscape:cy="196.33869"
     inkscape:document-units="px"
     inkscape:current-layer="layer1"
     showgrid="false"
     showguides="true"
     inkscape:guide-bbox="true"
     inkscape:window-width="1024"
     inkscape:window-height="538"
     inkscape:window-x="-8"
     inkscape:window-y="-8"
     inkscape:window-maximized="1"
     width="0px"
     height="0px"
     fit-margin-top="0"
     fit-margin-left="0"
     fit-margin-right="0"
     fit-margin-bottom="0">
    <sodipodi:guide
       orientation="1,0"
       position="400.22244,349.31075"
       id="guide3178" />
    <sodipodi:guide
       orientation="0,1"
       position="400.22244,349.31075"
       id="guide3180" />
  </sodipodi:namedview>
  <metadata
     id="metadata7">
    <rdf:RDF>
      <cc:Work
         rdf:about="">
        <dc:format>image/svg+xml</dc:format>
        <dc:type
           rdf:resource="http://purl.org/dc/dcmitype/StillImage" />
        <dc:title />
      </cc:Work>
    </rdf:RDF>
  </metadata>
  <g
     inkscape:label="Layer 1"
     inkscape:groupmode="layer"
     id="layer1"
     transform="translate(0,-352.36218)">
    <path
       id="rect4381"
       transform="translate(0,352.36218)"
       style="fill:#00ff00"
       d="m 422.59375,469.4375 c -0.66521,0.0285 -1.25576,0.43967 -2.40625,1.46875 -2.05993,1.84377 -5.09375,6.97928 -5.09375,8.625 0,0.59325 -0.30924,1.91217 -0.65625,2.9375 -0.34697,1.02532 -0.69098,3.23134 -0.8125,4.90625 -0.12155,1.67477 -0.25355,3.0625 -0.28125,3.0625 -0.1344,0 -0.4717,2.48764 -0.78125,5.625 -0.41489,4.20531 -0.009,6.44075 1.5625,8.15625 l 1.1875,1.28125 5.875,-0.28125 c 3.23011,-0.14948 6.9788,-0.45861 8.34375,-0.71875 3.64601,-0.69498 4.06705,-1.35003 3.96875,-6.1875 -0.0444,-2.18682 -0.28243,-4.86073 -0.53125,-5.9375 -0.24879,-1.07663 -0.4315,-3.40445 -0.4375,-5.15625 -0.007,-2.09569 -0.23501,-3.39134 -0.625,-3.78125 -0.32594,-0.32599 -0.73812,-1.60294 -0.90625,-2.875 -0.16816,-1.27196 -0.66024,-2.70909 -1.09375,-3.1875 -0.43345,-0.47863 -0.9941,-1.60312 -1.28125,-2.5 -0.64224,-2.00581 -3.59036,-4.96543 -5.3125,-5.34375 -0.26667,-0.0584 -0.49702,-0.10375 -0.71875,-0.0937 z m -4.375,9 c 0.44395,0 0.44355,0.48106 -0.0937,4.375 -0.24759,1.79451 -0.81389,6.19216 -1.28125,9.78125 -1.14411,8.78575 -1.78421,10.63589 -1.5,4.34375 0.37512,-8.30541 1.94535,-18.5 2.875,-18.5 z m 8.34375,0.59375 c 0.0239,-0.0124 0.0659,-0.0129 0.125,0 0.079,0.0174 0.16663,0.069 0.3125,0.125 0.81646,0.31329 0.72884,0.0128 2.25,8.4375 1.38447,7.66756 1.82628,12.78536 1.125,13.21875 -0.27281,0.16861 -0.5878,0.0642 -0.6875,-0.25 -0.0997,-0.3143 -0.28267,-2.69556 -0.4375,-5.28125 -0.15485,-2.58549 -0.52647,-5.59567 -0.84375,-6.71875 -0.31727,-1.12299 -0.71157,-3.49476 -0.84375,-5.25 -0.13214,-1.75538 -0.4647,-3.4687 -0.75,-3.8125 -0.2372,-0.2858 -0.3217,-0.43135 -0.25,-0.46875 z" />
  </g>
</svg>
