<?xml version="1.0" encoding="UTF-8" standalone="no"?>
<!-- Created with Inkscape (http://www.inkscape.org/) -->

<svg
   xmlns:dc="http://purl.org/dc/elements/1.1/"
   xmlns:cc="http://creativecommons.org/ns#"
   xmlns:rdf="http://www.w3.org/1999/02/22-rdf-syntax-ns#"
   xmlns:svg="http://www.w3.org/2000/svg"
   xmlns="http://www.w3.org/2000/svg"
   xmlns:sodipodi="http://sodipodi.sourceforge.net/DTD/sodipodi-0.dtd"
   xmlns:inkscape="http://www.inkscape.org/namespaces/inkscape"
   width="800"
   height="700"
   id="svg2"
   version="1.1"
   inkscape:version="0.48.2 r9819"
   sodipodi:docname="f25.svg">
  <defs
     id="defs4" />
  <sodipodi:namedview
     id="base"
     pagecolor="#ffffff"
     bordercolor="#666666"
     borderopacity="1.0"
     inkscape:pageopacity="0.0"
     inkscape:pageshadow="2"
     inkscape:zoom="2.5"
     inkscape:cx="502.68159"
     inkscape:cy="196.33869"
     inkscape:document-units="px"
     inkscape:current-layer="layer1"
     showgrid="false"
     showguides="true"
     inkscape:guide-bbox="true"
     inkscape:window-width="1366"
     inkscape:window-height="746"
     inkscape:window-x="-8"
     inkscape:window-y="-8"
     inkscape:window-maximized="1"
     width="0px"
     height="0px"
     fit-margin-top="0"
     fit-margin-left="0"
     fit-margin-right="0"
     fit-margin-bottom="0">
    <sodipodi:guide
       orientation="1,0"
       position="400.22244,349.31075"
       id="guide3178" />
    <sodipodi:guide
       orientation="0,1"
       position="400.22244,349.31075"
       id="guide3180" />
  </sodipodi:namedview>
  <metadata
     id="metadata7">
    <rdf:RDF>
      <cc:Work
         rdf:about="">
        <dc:format>image/svg+xml</dc:format>
        <dc:type
           rdf:resource="http://purl.org/dc/dcmitype/StillImage" />
        <dc:title></dc:title>
      </cc:Work>
    </rdf:RDF>
  </metadata>
  <g
     inkscape:label="Layer 1"
     inkscape:groupmode="layer"
     id="layer1"
     transform="translate(0,-352.36218)">
    <path
       style="fill:#ff0000"
       d="m 422.59375,821.79968 c 0.22173,-0.01 0.45208,0.0353 0.71875,0.0937 1.72214,0.37832 4.67026,3.33794 5.3125,5.34375 0.28715,0.89688 0.8478,2.02137 1.28125,2.5 0.43351,0.47841 0.92559,1.91554 1.09375,3.1875 0.16813,1.27206 0.58031,2.54901 0.90625,2.875 0.38999,0.38991 0.61788,1.68556 0.625,3.78125 0.006,1.7518 0.18871,4.07962 0.4375,5.15625 0.24882,1.07677 0.48685,3.75068 0.53125,5.9375 0.0983,4.83747 -0.32274,5.49252 -3.96875,6.1875 -1.36495,0.26014 -5.11364,0.56927 -8.34375,0.71875 l -5.875,0.28125 -1.1875,-1.28125 c -1.57129,-1.7155 -1.97739,-3.95094 -1.5625,-8.15625 0.30955,-3.13736 0.64685,-5.625 0.78125,-5.625 0.0277,0 0.1597,-1.38773 0.28125,-3.0625 0.12152,-1.67491 0.46553,-3.88093 0.8125,-4.90625 0.34701,-1.02533 0.65625,-2.34425 0.65625,-2.9375 0,-1.64572 3.03382,-6.78123 5.09375,-8.625 1.15049,-1.02908 1.74104,-1.4402 2.40625,-1.46875 z"
       id="path3295" />
    <path
       style="fill:#ff0000"
       d="m 418.21875,830.79968 c -0.92965,0 -2.49988,10.19459 -2.875,18.5 -0.28421,6.29214 0.35589,4.442 1.5,-4.34375 0.46736,-3.58909 1.03366,-7.98674 1.28125,-9.78125 0.5373,-3.89394 0.53765,-4.375 0.0937,-4.375 z"
       id="path3293" />
    <path
       style="fill:#ff0000"
       d="m 426.5625,831.39343 c -0.0717,0.0374 0.0128,0.18295 0.25,0.46875 0.2853,0.3438 0.61786,2.05712 0.75,3.8125 0.13218,1.75524 0.52648,4.12701 0.84375,5.25 0.31728,1.12308 0.6889,4.13326 0.84375,6.71875 0.15483,2.58569 0.3378,4.96695 0.4375,5.28125 0.0997,0.31421 0.41469,0.41861 0.6875,0.25 0.70128,-0.43339 0.25947,-5.55119 -1.125,-13.21875 -1.52116,-8.42471 -1.43354,-8.12421 -2.25,-8.4375 -0.14587,-0.056 -0.23352,-0.10759 -0.3125,-0.125 -0.0591,-0.0129 -0.10111,-0.0124 -0.125,0 z"
       id="rect3304" />
  </g>
</svg>
