<?xml version="1.0" encoding="UTF-8" standalone="no"?>
<!-- Created with Inkscape (http://www.inkscape.org/) -->

<svg
   xmlns:dc="http://purl.org/dc/elements/1.1/"
   xmlns:cc="http://creativecommons.org/ns#"
   xmlns:rdf="http://www.w3.org/1999/02/22-rdf-syntax-ns#"
   xmlns:svg="http://www.w3.org/2000/svg"
   xmlns="http://www.w3.org/2000/svg"
   xmlns:sodipodi="http://sodipodi.sourceforge.net/DTD/sodipodi-0.dtd"
   xmlns:inkscape="http://www.inkscape.org/namespaces/inkscape"
   width="800"
   height="700"
   id="svg2"
   version="1.1"
   inkscape:version="0.48.2 r9819"
   sodipodi:docname="l18.svg">
  <defs
     id="defs4" />
  <sodipodi:namedview
     id="base"
     pagecolor="#ffffff"
     bordercolor="#666666"
     borderopacity="1.0"
     inkscape:pageopacity="0.0"
     inkscape:pageshadow="2"
     inkscape:zoom="2.5"
     inkscape:cx="91.772203"
     inkscape:cy="225.64248"
     inkscape:document-units="px"
     inkscape:current-layer="layer1"
     showgrid="false"
     showguides="true"
     inkscape:guide-bbox="true"
     inkscape:window-width="1366"
     inkscape:window-height="746"
     inkscape:window-x="-8"
     inkscape:window-y="-8"
     inkscape:window-maximized="1"
     width="0px"
     height="0px"
     fit-margin-top="0"
     fit-margin-left="0"
     fit-margin-right="0"
     fit-margin-bottom="0">
    <sodipodi:guide
       orientation="1,0"
       position="400.22244,349.31075"
       id="guide3178" />
    <sodipodi:guide
       orientation="0,1"
       position="400.22244,349.31075"
       id="guide3180" />
  </sodipodi:namedview>
  <metadata
     id="metadata7">
    <rdf:RDF>
      <cc:Work
         rdf:about="">
        <dc:format>image/svg+xml</dc:format>
        <dc:type
           rdf:resource="http://purl.org/dc/dcmitype/StillImage" />
        <dc:title></dc:title>
      </cc:Work>
    </rdf:RDF>
  </metadata>
  <g
     inkscape:label="Layer 1"
     inkscape:groupmode="layer"
     id="layer1"
     transform="translate(0,-352.36218)">
    <path
       id="rect3230"
       transform="translate(0,352.36218)"
       style="fill:#ff0000"
       d="m 132.53125,419.28125 c -1.6638,0 -3.25,1.66078 -3.25,3.40625 0,1.5605 2.84116,9.64787 4.90625,14 2.35811,4.96958 3.68906,9.29737 4.25,13.8125 0.67327,5.41822 -0.30588,9.92255 -2.65625,12.4375 -1.14065,1.22045 -1.27382,1.25789 -2.5,0.75 -1.47208,-0.60982 -3.14986,-2.80495 -4.25,-5.59375 -0.40292,-1.02137 -1.7996,-3.46804 -3.09375,-5.4375 -3.33091,-5.06899 -4.23177,-7.28074 -5.3125,-12.625 -1.39541,-6.90032 -2.10595,-8.46103 -6.40625,-14.59375 -0.94659,-1.34998 -4.1723,-2.7644 -5.9375,-2.59375 -1.13677,0.10995 -1.55877,0.44116 -2.1875,1.78125 -0.95931,2.04473 -0.5876,3.65851 2.03125,9.03125 l 1.78125,3.6875 0,7.8125 c 0.006,11.10648 0.67046,13.38904 6.28125,21.53125 l 2.875,4.15625 -0.0625,4.6875 c -0.0321,2.57389 -0.23387,4.92143 -0.46875,5.21875 -0.23485,0.29734 -0.93757,1.82385 -1.5625,3.40625 -0.62492,1.58231 -1.85761,4.06307 -2.6875,5.53125 -0.82987,1.46829 -1.39086,2.6875 -1.28125,2.6875 0.10966,0 -0.33324,0.80579 -0.96875,1.8125 -1.53493,2.43135 -1.50012,6.20882 0.0625,8.875 1.40325,2.39434 1.7815,2.66418 5.03125,3.5 4.22589,1.087 5.64245,1.00879 7.84375,-0.46875 2.20335,-1.47877 6.31793,-3.28125 7.53125,-3.28125 0.45593,-8.3e-4 1.4471,0.42541 2.1875,0.96875 1.5036,1.10308 2.19415,1.45594 6.5625,3.3125 1.67483,0.71184 3.30619,1.22712 3.625,1.125 0.31863,-0.1013 0.94729,-0.15625 1.40625,-0.15625 0.45896,0 1.22708,-0.41466 1.6875,-0.875 1.344,-1.34409 2.43009,-1.78125 4.5625,-1.78125 2.51446,0 4.79224,-0.90064 5.5,-2.21875 0.7329,-1.36484 0.77878,-9.0628 0.0625,-12.1875 -0.31032,-1.35335 -0.98174,-2.90802 -1.46875,-3.46875 -1.34004,-1.54289 -2.53125,-4.50311 -2.53125,-6.21875 0,-0.84222 -0.29217,-2.38094 -0.625,-3.40625 -0.98086,-3.02124 -2.00066,-6.56481 -2.15625,-7.5 -0.0796,-0.47854 -0.2826,-1.37053 -0.4375,-1.96875 -0.15488,-0.59812 -0.34919,-4.69856 -0.4375,-9.125 -0.25061,-12.55356 -1.6299,-20.61498 -4.6875,-26.96875 -2.07049,-4.30253 -4.55917,-7.71615 -6.8125,-9.40625 -0.88004,-0.66002 -1.75514,-1.45384 -1.9375,-1.75 -0.54028,-0.87758 -2.93803,-1.90625 -4.46875,-1.90625 z m 0.3125,1.75 c 0.97167,0 4.71419,2.70512 6.71875,4.84375 1.93893,2.06865 3.625,4.70583 3.625,5.65625 0,0.44517 0.17413,0.8125 0.375,0.8125 0.53631,0 1.24598,1.73477 2.4375,6 1.93856,6.93953 2.4375,10.61066 2.4375,18.40625 0,8.27208 0.4124,11.95936 2.03125,17.34375 0.61149,2.03385 1.16076,4.31342 1.1875,5.03125 0.0429,1.15196 -0.12925,1.32608 -1.28125,1.40625 -0.71781,0.0503 -1.67772,-0.11711 -2.15625,-0.3125 -0.47854,-0.1954 -2.42962,-0.46019 -4.34375,-0.625 -1.91414,-0.16482 -4.65353,-0.72365 -6.0625,-1.21875 -2.77379,-0.97464 -4.3184,-0.89973 -8.53125,0.3125 -1.31595,0.37862 -3.69202,0.79614 -5.28125,0.9375 -2.60872,0.2322 -2.91382,0.1783 -3.34375,-0.625 -0.31643,-0.59112 -0.34732,-1.61202 -0.0937,-2.96875 0.70514,-3.77447 -0.32437,-6.77717 -4.15625,-12.40625 -1.85904,-2.731 -3.70095,-5.9599 -4.0625,-7.15625 -0.44425,-1.46992 -0.71162,-4.96394 -0.875,-10.84375 -0.19859,-7.1475 -0.3746,-8.95005 -1,-10.09375 -0.41873,-0.76576 -0.78125,-1.69173 -0.78125,-2.0625 0,-0.37082 -0.1245,-0.6875 -0.3125,-0.6875 -0.31143,0 -1.86134,-6.09558 -1.84375,-7.25 0.0158,-1.03652 1.22335,-1.54965 2.53125,-1.09375 1.21463,0.42346 5.3125,4.24411 5.3125,4.96875 0,0.19519 0.34266,1.18381 0.8125,2.15625 0.46982,0.97243 1.37096,3.92895 2,6.59375 0.62905,2.6648 1.3454,5.29413 1.5625,5.84375 0.21708,0.54958 0.39712,1.3425 0.40625,1.75 0.0207,1.03466 1.16662,3.22114 3.65625,7.03125 1.1726,1.79448 2.72686,4.43942 3.4375,5.875 0.71063,1.43556 1.44931,2.66974 1.65625,2.75 0.20696,0.0797 0.375,0.39544 0.375,0.6875 0,0.7034 2.48493,3.04101 4.125,3.875 1.17893,0.59984 1.45051,0.57604 2.53125,-0.0625 0.65799,-0.3887 1.15625,-0.94271 1.15625,-1.25 0,-0.30729 0.19824,-0.5625 0.4375,-0.5625 0.23929,0 0.46875,-0.25486 0.46875,-0.59375 0,-0.33899 0.1692,-0.70096 0.40625,-0.78125 0.23701,-0.0797 0.69478,-1.21529 1.03125,-2.53125 1.74593,-6.82868 1.16508,-13.45661 -1.75,-19.875 -0.56354,-1.24082 -1,-2.44491 -1,-2.6875 0,-0.24263 -0.69443,-1.581 -1.53125,-2.96875 -0.83683,-1.38777 -1.53083,-2.75153 -1.53125,-3.03125 -6.2e-4,-0.27969 -0.2588,-1.07261 -0.59375,-1.75 -2.0386,-4.12236 -2.13474,-8.84375 -0.1875,-8.84375 z M 134,480.1875 c 1.93665,-0.0132 3.84103,0.19799 5.3125,0.59375 1.33697,0.35962 3.78365,0.74519 5.4375,0.90625 1.65387,0.16107 3.92452,0.61876 5.03125,0.96875 1.73037,0.54721 2.05236,0.82989 2.28125,2.03125 0.14639,0.76823 0.59788,2.46528 1,3.78125 0.40207,1.31595 0.80851,3.6684 0.90625,5.25 0.16142,2.61007 0.0466,3.10059 -1.15625,5.03125 -0.72894,1.16994 -2.67926,3.3171 -4.34375,4.8125 -1.66448,1.49543 -3.27712,2.71129 -3.59375,2.6875 -1.3871,-0.10531 -4.01846,-0.88114 -5.6875,-1.6875 -0.99529,-0.48084 -2.04132,-0.875 -2.34375,-0.875 -0.30245,0 -1.25433,-0.75986 -2.125,-1.65625 -1.3483,-1.3882 -1.57407,-1.80461 -1.375,-3.03125 0.24349,-1.50062 0.003,-2.6875 -0.5625,-2.6875 -0.18093,0 -0.66273,1.01029 -1.0625,2.28125 -0.55386,1.76084 -1.15635,2.6619 -2.53125,3.71875 -0.99243,0.76275 -2.2324,1.375 -2.75,1.375 -0.51759,0 -1.28569,0.39648 -1.71875,0.875 -0.98004,1.08296 -4.12236,1.1859 -5.8125,0.1875 -1.39572,-0.82444 -3.01794,-3.17452 -4.0625,-5.84375 -1.01908,-2.60388 -1.00104,-3.08176 0.46875,-6.21875 1.64866,-3.51885 3.53125,-8.44668 3.53125,-9.21875 0,-1.27147 1.16302,-1.78188 4.375,-1.90625 1.7715,-0.0686 4.20991,-0.38219 5.40625,-0.71875 1.47836,-0.41581 3.43832,-0.64305 5.375,-0.65625 z m 20.59375,7.4375 c 0.0563,-0.0185 0.15563,0.0445 0.28125,0.1875 0.65403,0.74435 1.71695,4.30128 2.21875,7.34375 0.62166,3.76924 0.0208,7.38782 -1.40625,8.28125 -1.3138,0.8225 -4.09081,1.24855 -4.4375,0.6875 -0.15465,-0.25008 0.68995,-1.73007 1.875,-3.3125 2.52913,-3.37709 2.89311,-5.2695 1.96875,-9.6875 -0.53103,-2.53755 -0.66876,-3.44471 -0.5,-3.5 z m -42.25,10.1875 c 0.20288,0.0736 0.45353,0.78369 0.59375,1.71875 0.16027,1.06871 0.4933,2.04827 0.71875,2.1875 0.22543,0.13932 0.375,0.46231 0.375,0.6875 0,0.76061 -0.73066,0.3914 -1.4375,-0.6875 -0.75616,-1.15399 -0.9747,-3.48508 -0.34375,-3.875 0.0266,-0.0161 0.0648,-0.0417 0.0937,-0.0312 z" />
  </g>
</svg>
