<?xml version="1.0" encoding="UTF-8" standalone="no"?>
<!-- Created with Inkscape (http://www.inkscape.org/) -->

<svg
   xmlns:dc="http://purl.org/dc/elements/1.1/"
   xmlns:cc="http://creativecommons.org/ns#"
   xmlns:rdf="http://www.w3.org/1999/02/22-rdf-syntax-ns#"
   xmlns:svg="http://www.w3.org/2000/svg"
   xmlns="http://www.w3.org/2000/svg"
   xmlns:sodipodi="http://sodipodi.sourceforge.net/DTD/sodipodi-0.dtd"
   xmlns:inkscape="http://www.inkscape.org/namespaces/inkscape"
   width="900"
   height="800"
   id="svg2"
   version="1.1"
   inkscape:version="0.48.2 r9819"
   sodipodi:docname="l3.svg">
  <defs
     id="defs4" />
  <sodipodi:namedview
     id="base"
     pagecolor="#ffffff"
     bordercolor="#666666"
     borderopacity="1.0"
     inkscape:pageopacity="0.0"
     inkscape:pageshadow="2"
     inkscape:zoom="2"
     inkscape:cx="239.0722"
     inkscape:cy="243.1687"
     inkscape:document-units="px"
     inkscape:current-layer="layer1"
     showgrid="false"
     showguides="true"
     inkscape:guide-bbox="true"
     inkscape:window-width="1366"
     inkscape:window-height="746"
     inkscape:window-x="-8"
     inkscape:window-y="-8"
     inkscape:window-maximized="1"
     width="0px"
     height="0px"
     fit-margin-top="0"
     fit-margin-left="0"
     fit-margin-right="0"
     fit-margin-bottom="0">
    <sodipodi:guide
       orientation="1,0"
       position="450,784"
       id="guide3178" />
    <sodipodi:guide
       orientation="0,1"
       position="-61,400"
       id="guide3180" />
  </sodipodi:namedview>
  <metadata
     id="metadata7">
    <rdf:RDF>
      <cc:Work
         rdf:about="">
        <dc:format>image/svg+xml</dc:format>
        <dc:type
           rdf:resource="http://purl.org/dc/dcmitype/StillImage" />
        <dc:title></dc:title>
      </cc:Work>
    </rdf:RDF>
  </metadata>
  <g
     inkscape:label="Layer 1"
     inkscape:groupmode="layer"
     id="layer1"
     transform="translate(0,-252.36218)">
    <path
       id="rect3132"
       transform="translate(0,252.36218)"
       style="fill:#ff0000"
       d="m 148.71875,474.03125 c -1.88083,0 -3.65625,1.87057 -3.65625,3.84375 0,1.76406 3.19674,10.89263 5.53125,15.8125 2.66572,5.61788 4.17839,10.52086 4.8125,15.625 0.76111,6.12506 -0.31176,11.1882 -2.96875,14.03125 -1.28944,1.37965 -1.4576,1.44913 -2.84375,0.875 -1.66411,-0.68937 -3.56884,-3.15987 -4.8125,-6.3125 -0.4555,-1.1546 -2.00579,-3.92987 -3.46875,-6.15625 -3.76543,-5.73027 -4.80953,-8.23982 -6.03125,-14.28125 -1.57744,-7.8005 -2.35747,-9.536 -7.21875,-16.46875 -1.07009,-1.52609 -4.72327,-3.13041 -6.71875,-2.9375 -1.28507,0.1243 -1.75801,0.48507 -2.46875,2 -1.08447,2.31146 -0.67924,4.11387 2.28125,10.1875 l 2,4.15625 0,8.875 c 0.006,12.55535 0.78227,15.13936 7.125,24.34375 l 3.21875,4.65625 -0.0625,5.3125 c -0.0362,2.90967 -0.26573,5.57014 -0.53125,5.90625 -0.2655,0.33613 -1.0748,2.08617 -1.78125,3.875 -0.70645,1.78872 -2.06184,4.59028 -3,6.25 -0.93813,1.65984 -1.59266,3 -1.46875,3 0.12395,0 -0.37533,0.9557 -1.09375,2.09375 -1.73515,2.74852 -1.6727,6.98601 0.0937,10 1.58628,2.70669 1.98256,3.02391 5.65625,3.96875 4.77718,1.22882 6.38653,1.10779 8.875,-0.5625 2.49078,-1.67167 7.1284,-3.6875 8.5,-3.6875 0.51541,-9.2e-4 1.63177,0.51077 2.46875,1.125 1.69975,1.24698 2.4993,1.61998 7.4375,3.71875 1.89334,0.8047 3.73336,1.36545 4.09375,1.25 0.3602,-0.11452 1.07492,-0.15625 1.59375,-0.15625 0.51883,0 1.38577,-0.44835 1.90625,-0.96875 1.51933,-1.51944 2.74566,-2.03125 5.15625,-2.03125 2.84247,0 5.41865,-1.00995 6.21875,-2.5 0.8285,-1.5429 0.87232,-10.24893 0.0625,-13.78125 -0.35079,-1.5299 -1.1057,-3.27236 -1.65625,-3.90625 -1.51485,-1.74415 -2.875,-5.12306 -2.875,-7.0625 0,-0.95209 -0.31124,-2.65342 -0.6875,-3.8125 -1.10881,-3.41536 -2.26161,-7.4428 -2.4375,-8.5 -0.09,-0.54095 -0.3249,-1.54248 -0.5,-2.21875 -0.17507,-0.67615 -0.40017,-5.33988 -0.5,-10.34375 -0.28331,-14.19122 -1.85603,-23.28611 -5.3125,-30.46875 -2.3406,-4.8638 -5.14022,-8.71443 -7.6875,-10.625 -0.99484,-0.74612 -1.98136,-1.63395 -2.1875,-1.96875 -0.61078,-0.99205 -3.33209,-2.15625 -5.0625,-2.15625 z m 0.375,1.96875 c 1.09843,0 5.32769,3.05113 7.59375,5.46875 2.19188,2.33852 4.09375,5.3006 4.09375,6.375 0,0.50325 0.21043,0.9375 0.4375,0.9375 0.60627,0 1.37179,1.95961 2.71875,6.78125 2.19145,7.84481 2.78125,11.99996 2.78125,20.8125 0,9.35119 0.45122,13.53821 2.28125,19.625 0.69125,2.29917 1.31353,4.84478 1.34375,5.65625 0.0485,1.30223 -0.13523,1.50313 -1.4375,1.59375 -0.81146,0.0568 -1.89655,-0.12292 -2.4375,-0.34375 -0.54096,-0.2209 -2.77367,-0.53243 -4.9375,-0.71875 -2.16385,-0.18633 -5.21972,-0.78408 -6.8125,-1.34375 -3.13564,-1.10178 -4.89383,-1.05785 -9.65625,0.3125 -1.48764,0.42802 -4.17221,0.93395 -5.96875,1.09375 -2.94904,0.26249 -3.29522,0.18933 -3.78125,-0.71875 -0.35769,-0.66824 -0.4116,-1.81004 -0.125,-3.34375 0.79715,-4.26686 -0.35575,-7.66785 -4.6875,-14.03125 -2.10157,-3.08728 -4.15377,-6.74132 -4.5625,-8.09375 -0.5022,-1.66167 -0.8153,-5.6344 -1,-12.28125 -0.22451,-8.0799 -0.44927,-10.11335 -1.15625,-11.40625 -0.47335,-0.86564 -0.875,-1.92461 -0.875,-2.34375 0,-0.4192 -0.13123,-0.75 -0.34375,-0.75 -0.35205,0 -2.11362,-6.88248 -2.09375,-8.1875 0.0179,-1.17175 1.39648,-1.76537 2.875,-1.25 1.37309,0.4787 6,4.80585 6,5.625 0,0.22066 0.40637,1.30696 0.9375,2.40625 0.53111,1.09929 1.53889,4.45632 2.25,7.46875 0.71111,3.01243 1.53582,6.00369 1.78125,6.625 0.2454,0.62127 0.42717,1.50809 0.4375,1.96875 0.0233,1.16962 1.34185,3.66161 4.15625,7.96875 1.32556,2.02858 3.07166,5.00215 3.875,6.625 0.80334,1.62285 1.6098,3.00302 1.84375,3.09375 0.23397,0.0901 0.4375,0.45109 0.4375,0.78125 0,0.79517 2.80223,3.46346 4.65625,4.40625 1.33273,0.6781 1.62204,0.62799 2.84375,-0.0937 0.74383,-0.4394 1.34375,-1.02761 1.34375,-1.375 0,-0.34737 0.22952,-0.65625 0.5,-0.65625 0.27049,0 0.5,-0.30439 0.5,-0.6875 0,-0.38321 0.20079,-0.78423 0.46875,-0.875 0.26794,-0.0901 0.80714,-1.35612 1.1875,-2.84375 1.97369,-7.7195 1.3266,-15.24431 -1.96875,-22.5 -0.63707,-1.4027 -1.15625,-2.75701 -1.15625,-3.03125 0,-0.27428 -0.77276,-1.77496 -1.71875,-3.34375 -0.94598,-1.5688 -1.71827,-3.12128 -1.71875,-3.4375 -7e-4,-0.31617 -0.30885,-1.23424 -0.6875,-2 C 147.00796,481.30862 146.8925,476 149.09375,476 z m 1.28125,66.875 c 2.18929,-0.0149 4.36781,0.20886 6.03125,0.65625 1.51138,0.40653 4.28666,0.84917 6.15625,1.03125 1.8696,0.18207 4.40514,0.69811 5.65625,1.09375 1.95611,0.6186 2.33501,0.92318 2.59375,2.28125 0.16548,0.86845 0.70168,2.79362 1.15625,4.28125 0.45453,1.48764 0.8895,4.18082 1,5.96875 0.18248,2.95056 0.0473,3.47374 -1.3125,5.65625 -0.82404,1.32257 -3.02463,3.77826 -4.90625,5.46875 -1.88163,1.69051 -3.70456,3.02689 -4.0625,3 -1.56804,-0.11903 -4.51948,-0.99471 -6.40625,-1.90625 -1.12514,-0.54358 -2.31435,-0.96875 -2.65625,-0.96875 -0.34189,0 -1.42199,-0.83043 -2.40625,-1.84375 -1.52417,-1.56931 -1.78755,-2.08209 -1.5625,-3.46875 0.27526,-1.69638 -0.0171,-3.03125 -0.65625,-3.03125 -0.20454,0 -0.7043,1.12574 -1.15625,2.5625 -0.6261,1.99055 -1.32074,3.02403 -2.875,4.21875 -1.12191,0.86225 -2.53988,1.5625 -3.125,1.5625 -0.5851,0 -1.44794,0.42781 -1.9375,0.96875 -1.10789,1.22423 -4.68312,1.3474 -6.59375,0.21875 -1.57779,-0.93199 -3.41293,-3.57631 -4.59375,-6.59375 -1.15202,-2.94356 -1.09903,-3.48504 0.5625,-7.03125 1.86372,-3.9779 3.96875,-9.53344 3.96875,-10.40625 0,-1.43732 1.33777,-2.01564 4.96875,-2.15625 2.00259,-0.0775 4.74135,-0.46329 6.09375,-0.84375 1.67121,-0.47006 3.87319,-0.70382 6.0625,-0.71875 z m 23.3125,8.40625 c 0.0636,-0.0209 0.17048,0.0571 0.3125,0.21875 0.73935,0.84146 1.93273,4.84188 2.5,8.28125 0.70277,4.26095 0.0197,8.365 -1.59375,9.375 -1.48518,0.92979 -4.60808,1.38424 -5,0.75 -0.17483,-0.28271 0.78536,-1.9299 2.125,-3.71875 2.85907,-3.81765 3.2637,-5.97441 2.21875,-10.96875 -0.6003,-2.86858 -0.75328,-3.87499 -0.5625,-3.9375 z m -47.75,11.53125 c 0.22935,0.0832 0.49774,0.88046 0.65625,1.9375 0.18116,1.20814 0.55763,2.31137 0.8125,2.46875 0.25484,0.15751 0.4375,0.49544 0.4375,0.75 0,0.85984 -0.85719,0.46964 -1.65625,-0.75 -0.85479,-1.30452 -1.08826,-3.93422 -0.375,-4.375 0.03,-0.0183 0.0922,-0.043 0.125,-0.0312 z" />
  </g>
</svg>
