<?xml version="1.0" encoding="UTF-8" standalone="no"?>
<!-- Created with Inkscape (http://www.inkscape.org/) -->

<svg
   xmlns:dc="http://purl.org/dc/elements/1.1/"
   xmlns:cc="http://creativecommons.org/ns#"
   xmlns:rdf="http://www.w3.org/1999/02/22-rdf-syntax-ns#"
   xmlns:svg="http://www.w3.org/2000/svg"
   xmlns="http://www.w3.org/2000/svg"
   xmlns:sodipodi="http://sodipodi.sourceforge.net/DTD/sodipodi-0.dtd"
   xmlns:inkscape="http://www.inkscape.org/namespaces/inkscape"
   width="800"
   height="400"
   id="svg2"
   version="1.1"
   inkscape:version="0.48.2 r9819"
   sodipodi:docname="f19.svg">
  <defs
     id="defs4" />
  <sodipodi:namedview
     id="base"
     pagecolor="#ffffff"
     bordercolor="#666666"
     borderopacity="1.0"
     inkscape:pageopacity="0.0"
     inkscape:pageshadow="2"
     inkscape:zoom="4"
     inkscape:cx="743.27216"
     inkscape:cy="78.965456"
     inkscape:document-units="px"
     inkscape:current-layer="layer1"
     showgrid="false"
     showguides="true"
     inkscape:guide-bbox="true"
     inkscape:window-width="1366"
     inkscape:window-height="746"
     inkscape:window-x="-8"
     inkscape:window-y="-8"
     inkscape:window-maximized="1"
     width="0px"
     height="0px"
     fit-margin-top="0"
     fit-margin-left="0"
     fit-margin-right="0"
     fit-margin-bottom="0">
    <sodipodi:guide
       orientation="1,0"
       position="400.22244,349.31075"
       id="guide3178" />
    <sodipodi:guide
       orientation="0,1"
       position="655.48799,210.71782"
       id="guide3180" />
  </sodipodi:namedview>
  <metadata
     id="metadata7">
    <rdf:RDF>
      <cc:Work
         rdf:about="">
        <dc:format>image/svg+xml</dc:format>
        <dc:type
           rdf:resource="http://purl.org/dc/dcmitype/StillImage" />
        <dc:title></dc:title>
      </cc:Work>
    </rdf:RDF>
  </metadata>
  <g
     inkscape:label="Layer 1"
     inkscape:groupmode="layer"
     id="layer1"
     transform="translate(0,-652.36218)">
    <path
       id="rect3867"
       transform="translate(0,652.36218)"
       style="fill:#ff0000"
       d="m 658.40625,262.40625 c -1.9239,0 -3.39515,0.6725 -5.625,2.5 -2.60655,2.1358 -4.07165,4.6942 -4.0625,7.125 0.0128,3.12 1.13976,9.49155 2.3125,13.03125 1.08572,3.2766 1.09545,3.40955 1.28125,22.40625 l 0.1875,19.125 1.25,4.59375 c 0.69257,2.5373 1.46223,4.88495 1.71875,5.21875 0.25651,0.3339 0.8445,1.38665 1.28125,2.34375 1.0615,2.3261 6.44917,7.6569 9.15625,9.0625 1.19635,0.6211 2.35409,1.1174 2.59375,1.125 2.60429,0.081 2.09903,-4.654 -1.28125,-11.9375 -3.75612,-8.0935 -4.1411,-9.46925 -4.15625,-15.46875 -0.0103,-4.0604 0.56794,-6.6959 2.03125,-9.5 0.31905,-0.6113 0.59375,-1.391 0.59375,-1.75 0.005,-0.8728 3.78739,-5.65625 4.46875,-5.65625 0.29563,0 1.07349,1.49215 1.75,3.34375 1.41819,3.882 3.57747,8.2125 4.71875,9.4375 0.43327,0.4651 0.8125,1.001 0.8125,1.1875 0,0.1866 1.24899,1.8324 2.8125,3.625 3.35853,3.8509 3.97956,5.1633 4.53125,9.6875 0.51802,4.2479 2.55775,10.4651 3.96875,12.125 1.01853,1.1981 3.40992,2.34375 4.875,2.34375 1.01935,0 1.17562,-0.92945 0.90625,-4.65625 -0.13398,-1.8542 -0.0383,-4.5645 0.21875,-6 1.30192,-7.2704 1.50872,-10.151 0.78125,-12.375 -0.38588,-1.1798 -0.71875,-2.3578 -0.71875,-2.625 0,-0.5864 -1.10709,-3.07775 -4.0625,-9.15625 L 688.53125,307 l 0,-7.625 -0.0312,-7.59375 2.28125,-4.5625 c 1.24966,-2.5124 2.69205,-6.2019 3.21875,-8.1875 0.85608,-3.2273 0.92264,-3.97345 0.5,-6.96875 -0.69585,-4.9319 -0.99509,-5.8205 -2.15625,-6.9375 -0.95239,-0.9164 -1.3022,-1.0108 -3.75,-0.75 -2.52682,0.2696 -2.7639,0.20845 -3.75,-0.84375 -0.71662,-0.7647 -1.50504,-1.125 -2.46875,-1.125 -1.97961,0 -7.49122,1.20045 -9.03125,1.96875 -1.69557,0.8459 -2.97326,0.8018 -5.90625,-0.1875 -2.79628,-0.9427 -7.0448,-1.78125 -9.03125,-1.78125 z m 0.4375,2.28125 c 0.68218,-0.012 1.44853,0.0912 2.53125,0.28125 3.9243,0.6904 7.90256,2.36035 8.5,3.59375 0.27029,0.5579 0.59903,3.18125 0.75,5.84375 0.27417,4.8373 0.29256,4.86965 -0.8125,5.59375 -1.49233,0.9777 -1.0217,1.5625 1.3125,1.5625 1.97427,0 2.24968,-0.32535 1.5,-1.65625 -0.44064,-0.7824 -1.27301,-11.2347 -0.96875,-12.125 0.28348,-0.8293 4.40067,-2.37435 7.5625,-2.84375 2.49263,-0.37 3.16645,-0.3372 4.0625,0.25 1.58024,1.0354 4.15625,6.82445 4.15625,9.34375 0,1.9401 0.52597,3.09375 1.4375,3.09375 0.2486,0 0.28724,-1.46755 0.0937,-3.78125 -0.59838,-7.1581 -0.63655,-6.81635 0.9375,-6.96875 2.18279,-0.2112 2.95686,1.61225 2.90625,6.84375 -0.0375,3.8733 -0.15326,4.3766 -1.875,8.25 -1.01034,2.2731 -2.25837,4.48865 -2.78125,4.90625 -1.04147,0.832 -6.15883,2.5 -7.65625,2.5 -0.51692,0 -1.83665,0.50775 -2.96875,1.09375 -3.43956,1.7795 -8.61834,1.73415 -11.84375,-0.0937 -1.53702,-0.8713 -3.46809,-1.4557 -7.84375,-2.3125 -1.31597,-0.2576 -2.7007,-0.68025 -3.0625,-0.96875 -2.20647,-1.7598 -5.01363,-13.74365 -3.90625,-16.65625 0.68049,-1.7899 3.9632,-4.6925 6.03125,-5.375 0.66994,-0.2209 1.25535,-0.3631 1.9375,-0.375 z m -3.65625,25.1875 c 1.9947,-0.1026 6.58263,0.9437 9.28125,2.1875 2.78621,1.2843 3.55795,1.4375 6.84375,1.4375 3.06583,0 4.0078,-0.1296 5.375,-0.9375 1.66985,-0.9869 6.80921,-2.37115 9.21875,-2.46875 1.19863,-0.048 1.27593,0.0515 1.15625,1.25 -0.51872,5.1939 -0.55255,10.5614 -0.0937,14.125 0.44358,3.4451 0.94823,4.99455 2.90625,9.21875 1.29191,2.7871 2.34375,5.3521 2.34375,5.6875 0,0.3354 0.15891,0.7726 0.375,1 0.21607,0.2272 0.71372,1.64935 1.09375,3.15625 0.62298,2.4699 0.61626,3.2079 0.0312,7.375 -0.35689,2.5424 -0.625,6.2579 -0.625,8.25 l 0,3.625 -1.25,0 c -1.39495,0 -2.87661,-1.4084 -3.25,-3.0625 -0.13499,-0.5982 -0.63137,-2.4552 -1.125,-4.125 -0.49367,-1.6696 -0.90625,-3.87585 -0.90625,-4.90625 0,-2.8818 -2.0822,-8.6294 -3.5625,-9.875 -0.68365,-0.5752 -1.21875,-1.11715 -1.21875,-1.21875 0,-0.1017 -0.71512,-0.94545 -1.5625,-1.84375 -0.84736,-0.8983 -2.01005,-2.56685 -2.59375,-3.71875 -0.58363,-1.1518 -1.2424,-2.20455 -1.46875,-2.34375 -0.2264,-0.1397 -0.66413,-0.9812 -0.9375,-1.875 -0.27342,-0.8942 -0.63084,-2.0215 -0.84375,-2.5 -0.21291,-0.4786 -0.83894,-2.25615 -1.34375,-3.96875 -0.50486,-1.7126 -1.29362,-3.462 -1.75,-3.875 -0.79721,-0.7214 -0.88004,-0.68115 -2.875,1.53125 -2.78771,3.0912 -3.74421,4.7267 -5.5625,9.75 -1.47831,4.084 -1.53125,4.51645 -1.53125,10.15625 0,5.4093 0.0996,6.18655 1.3125,9.71875 1.1645,3.3914 2.2628,5.75205 4.375,9.53125 0.75206,1.3455 1.71063,3.958 1.71875,4.6875 0.0106,0.8867 -1.04326,0.6079 -3.1875,-0.8125 -3.97343,-2.6318 -8.47229,-8.63555 -9.21875,-12.28125 -0.15671,-0.7652 -0.717,-2.66355 -1.21875,-4.21875 -0.8511,-2.6383 -0.8991,-4.0244 -1.0625,-20.5625 C 653.87941,292.60325 653.94147,290.2143 654.5,290 c 0.16612,-0.063 0.40254,-0.1104 0.6875,-0.125 z" />
  </g>
</svg>
