<?xml version="1.0" encoding="UTF-8" standalone="no"?>
<!-- Created with Inkscape (http://www.inkscape.org/) -->

<svg
   xmlns:dc="http://purl.org/dc/elements/1.1/"
   xmlns:cc="http://creativecommons.org/ns#"
   xmlns:rdf="http://www.w3.org/1999/02/22-rdf-syntax-ns#"
   xmlns:svg="http://www.w3.org/2000/svg"
   xmlns="http://www.w3.org/2000/svg"
   xmlns:sodipodi="http://sodipodi.sourceforge.net/DTD/sodipodi-0.dtd"
   xmlns:inkscape="http://www.inkscape.org/namespaces/inkscape"
   width="900"
   height="800"
   id="svg2"
   version="1.1"
   inkscape:version="0.48.2 r9819"
   sodipodi:docname="m19.svg">
  <defs
     id="defs4" />
  <sodipodi:namedview
     id="base"
     pagecolor="#ffffff"
     bordercolor="#666666"
     borderopacity="1.0"
     inkscape:pageopacity="0.0"
     inkscape:pageshadow="2"
     inkscape:zoom="2"
     inkscape:cx="239.0722"
     inkscape:cy="163.1687"
     inkscape:document-units="px"
     inkscape:current-layer="layer1"
     showgrid="false"
     showguides="true"
     inkscape:guide-bbox="true"
     inkscape:window-width="1366"
     inkscape:window-height="746"
     inkscape:window-x="-8"
     inkscape:window-y="-8"
     inkscape:window-maximized="1"
     width="0px"
     height="0px"
     fit-margin-top="0"
     fit-margin-left="0"
     fit-margin-right="0"
     fit-margin-bottom="0">
    <sodipodi:guide
       orientation="1,0"
       position="450,784"
       id="guide3178" />
    <sodipodi:guide
       orientation="0,1"
       position="-61,400"
       id="guide3180" />
  </sodipodi:namedview>
  <metadata
     id="metadata7">
    <rdf:RDF>
      <cc:Work
         rdf:about="">
        <dc:format>image/svg+xml</dc:format>
        <dc:type
           rdf:resource="http://purl.org/dc/dcmitype/StillImage" />
        <dc:title></dc:title>
      </cc:Work>
    </rdf:RDF>
  </metadata>
  <g
     inkscape:label="Layer 1"
     inkscape:groupmode="layer"
     id="layer1"
     transform="translate(0,-252.36218)">
    <path
       id="rect3140"
       transform="translate(0,252.36218)"
       style="fill:#ff0000"
       d="m 143.65625,643.53125 c -1.37224,0.0626 -2.44505,0.67371 -3.71875,1.875 -1.30102,1.22698 -2.28636,1.71875 -3.40625,1.71875 -2.36341,0 -7.6875,3.29418 -7.6875,4.75 0,0.36542 -0.20583,0.6875 -0.46875,0.6875 -0.26291,0 -0.8954,1.23916 -1.34375,2.78125 -1.42494,4.90184 -0.56717,9.70022 3.0625,17.65625 0.38883,0.85249 0.71875,1.81702 0.71875,2.125 0,0.30799 0.45529,1.49599 1.03125,2.625 0.99278,1.94586 1.01338,2.32335 0.5,7.46875 -0.98472,9.86973 -1.5713,12.29115 -6.1875,25.34375 -4.88604,13.81526 -5.48857,24.39569 -1.78125,31.3125 0.54705,1.02078 1.51227,2.12864 2.125,2.46875 1.82889,1.01582 4.50687,0.78869 5.6875,-0.46875 1.2994,-1.38321 2.3471,-6.01896 3.28125,-14.34375 0.39458,-3.51633 0.98437,-7.40997 1.28125,-8.625 0.62075,-2.54061 3.94382,-9.21376 5.375,-10.75 0.53279,-0.57197 0.96875,-1.24072 0.96875,-1.5 0,-0.25905 0.14089,-0.53424 0.34375,-0.625 0.20287,-0.0902 1.34169,-1.44494 2.5,-3 1.15828,-1.55541 2.29832,-2.84375 2.5625,-2.84375 0.68265,0 3.46875,2.70206 3.46875,3.375 0,0.30879 0.17253,0.59375 0.40625,0.59375 0.23374,0 0.82269,1.02775 1.28125,2.3125 0.45856,1.28478 1.02688,2.76177 1.3125,3.28125 0.28563,0.51994 0.51368,2.98858 0.5,5.46875 -0.0215,3.93792 -0.2324,5.04852 -1.71875,8.875 -2.83133,7.28897 -3.899,11.05025 -3.84375,13.5 0.10248,4.5478 1.46904,5.89105 5.21875,5.1875 2.73159,-0.51236 9.33239,-7.96852 10.65625,-12.03125 0.31947,-0.98046 0.75708,-1.87227 1,-2.03125 0.24293,-0.1583 0.97844,-1.84846 1.625,-3.71875 1.01937,-2.94852 1.24528,-4.94759 1.71875,-14.96875 0.94446,-19.98925 1.39129,-26.96285 1.78125,-27.59375 0.20793,-0.3367 0.52842,-1.53335 0.71875,-2.625 0.48402,-2.77688 1.89824,-7.72114 2.375,-8.34375 0.42624,-0.55681 2.13407,-5.60898 3,-8.9375 0.28964,-1.11326 0.5,-4.70754 0.5,-7.96875 l 0,-5.90625 -1.53125,-1.5 c -0.83233,-0.83238 -2.05832,-1.66156 -2.78125,-1.8125 -0.7229,-0.15129 -1.77407,-0.50371 -2.28125,-0.78125 -0.50714,-0.27742 -2.47911,-0.61064 -4.40625,-0.75 -2.96237,-0.21494 -4.06918,-0.0494 -7.1875,1.0625 -5.65314,2.01641 -5.54235,2.02499 -8.03125,0.125 -1.23487,-0.94267 -3.17703,-2.0961 -4.34375,-2.53125 -1.47415,-0.54989 -2.65369,-0.87397 -3.65625,-0.9375 -0.20887,-0.0128 -0.42896,-0.009 -0.625,0 z m 0.0312,2.65625 c 1.2585,-0.0667 2.67766,0.43355 4.65625,1.46875 4.51747,2.36344 4.33112,1.93061 3.71875,9.25 -0.57931,6.92423 -1.01486,8.2185 -2.90625,8.9375 -0.68174,0.25905 -1.11189,0.72591 -1,1.0625 0.29036,0.87168 6.33289,0.87489 6.625,0 0.12122,-0.36312 -0.2645,-0.77851 -0.875,-0.9375 -0.94792,-0.24803 -1.01483,-0.518 -0.75,-2.0625 0.16721,-0.97517 0.42433,-3.86785 0.59375,-6.4375 0.1694,-2.56954 0.48172,-5.069 0.71875,-5.53125 0.52231,-1.01907 2.52513,-1.96512 7,-3.3125 4.23626,-1.2751 6.72536,-1.28418 9.0625,-0.0312 1.0093,0.54083 2.40827,1 3.125,1 2.38391,0 3.05121,1.87745 2.75,7.59375 -0.37576,7.1309 -2.43615,15.64712 -5.0625,20.9375 l -1.125,2.21875 -4.84375,0.84375 c -4.33618,0.75495 -15.45123,1.3483 -17.53125,0.9375 -0.44326,-0.0874 -0.8125,-0.33092 -0.8125,-0.5625 0,-0.89603 -8.92254,-4.40625 -11.1875,-4.40625 -1.43189,0 -1.68256,-0.24662 -2.6875,-2.59375 -0.60799,-1.41986 -1.68954,-3.71765 -2.4375,-5.125 -2.46728,-4.6429 -3.19784,-10.87312 -1.625,-14.1875 0.46045,-0.97024 0.98253,-1.6428 1.125,-1.5 0.14242,0.14233 0.32525,1.5048 0.4375,3.0625 0.25706,3.56723 1.125,4.67548 1.125,1.4375 0,-3.05741 0.96421,-4.80398 3.65625,-6.65625 1.20981,-0.83237 3.25937,-2.42614 4.5,-3.5 1.40347,-1.21438 2.4915,-1.83943 3.75,-1.90625 z m -7.78125,33.46875 c 0.46188,-0.0103 1.19988,0.21813 2.59375,0.625 1.59116,0.46457 4.62201,1.70555 6.75,2.8125 3.76925,1.96093 3.91606,1.99683 6.375,1.46875 2.17836,-0.46823 4.98167,-0.65771 15.8125,-1.1875 1.90087,-0.0933 1.98012,-0.0508 1.875,1.375 -0.0599,0.81147 -0.33616,7.10276 -0.59375,14 -0.50276,13.46361 -1.22268,22.68491 -2.0625,25.84375 -0.28763,1.0819 -1.2989,3.52908 -2.21875,5.40625 -0.91984,1.87718 -1.68719,3.61952 -1.6875,3.90625 -3.3e-4,0.28661 -0.56009,1.16691 -1.25,1.96875 -0.68989,0.8024 -1.70314,2.20885 -2.25,3.09375 -1.33704,2.16338 -4.73192,4.14521 -5.9375,3.5 -1.13929,-0.60975 -1.18518,-5.1317 -0.0937,-8.03125 1.74626,-4.63948 3.22675,-9.71641 3.8125,-13.09375 0.7592,-4.37731 0.27465,-7.86365 -2.03125,-14.46875 -1.22083,-3.49693 -1.95308,-4.79891 -3.53125,-6.28125 -2.75834,-2.59102 -3.64155,-2.36747 -6.53125,1.84375 -1.2981,1.89177 -2.99904,4.12451 -3.78125,4.9375 -3.04081,3.16021 -5.71136,10.29058 -6.9375,18.6875 -1.13319,7.76053 -2.97233,16.20322 -3.75,17.0625 -1.03181,1.14001 -1.61304,1.11503 -3.21875,-0.21875 -1.88039,-1.5629 -2.8125,-5.83634 -2.8125,-12.5625 0,-2.98333 0.20891,-6.59072 0.5,-8.03125 0.81488,-4.03292 2.04665,-8.51292 2.5,-9.03125 0.22476,-0.25709 0.40625,-0.95263 0.40625,-1.5625 0,-0.61011 0.87495,-3.08541 1.9375,-5.5 2.41981,-5.49897 4.46875,-15.01842 4.46875,-20.8125 0,-2.73588 0.21329,-4.45677 0.65625,-5.0625 0.32389,-0.443 0.53808,-0.67767 1,-0.6875 z" />
  </g>
</svg>
