<?xml version="1.0" encoding="UTF-8" standalone="no"?>
<!-- Created with Inkscape (http://www.inkscape.org/) -->

<svg
   xmlns:dc="http://purl.org/dc/elements/1.1/"
   xmlns:cc="http://creativecommons.org/ns#"
   xmlns:rdf="http://www.w3.org/1999/02/22-rdf-syntax-ns#"
   xmlns:svg="http://www.w3.org/2000/svg"
   xmlns="http://www.w3.org/2000/svg"
   xmlns:sodipodi="http://sodipodi.sourceforge.net/DTD/sodipodi-0.dtd"
   xmlns:inkscape="http://www.inkscape.org/namespaces/inkscape"
   width="800"
   height="700"
   id="svg2"
   version="1.1"
   inkscape:version="0.48.2 r9819"
   sodipodi:docname="f19.svg">
  <defs
     id="defs4" />
  <sodipodi:namedview
     id="base"
     pagecolor="#ffffff"
     bordercolor="#666666"
     borderopacity="1.0"
     inkscape:pageopacity="0.0"
     inkscape:pageshadow="2"
     inkscape:zoom="2.5"
     inkscape:cx="91.772203"
     inkscape:cy="129.64248"
     inkscape:document-units="px"
     inkscape:current-layer="layer1"
     showgrid="false"
     showguides="true"
     inkscape:guide-bbox="true"
     inkscape:window-width="1366"
     inkscape:window-height="746"
     inkscape:window-x="-8"
     inkscape:window-y="-8"
     inkscape:window-maximized="1"
     width="0px"
     height="0px"
     fit-margin-top="0"
     fit-margin-left="0"
     fit-margin-right="0"
     fit-margin-bottom="0">
    <sodipodi:guide
       orientation="1,0"
       position="400.22244,349.31075"
       id="guide3178" />
    <sodipodi:guide
       orientation="0,1"
       position="400.22244,349.31075"
       id="guide3180" />
  </sodipodi:namedview>
  <metadata
     id="metadata7">
    <rdf:RDF>
      <cc:Work
         rdf:about="">
        <dc:format>image/svg+xml</dc:format>
        <dc:type
           rdf:resource="http://purl.org/dc/dcmitype/StillImage" />
        <dc:title></dc:title>
      </cc:Work>
    </rdf:RDF>
  </metadata>
  <g
     inkscape:label="Layer 1"
     inkscape:groupmode="layer"
     id="layer1"
     transform="translate(0,-352.36218)">
    <path
       id="rect3234"
       transform="translate(0,352.36218)"
       style="fill:#ff0000"
       d="m 123.4375,516.40625 c -0.3228,-0.005 -0.58801,0.0307 -0.8125,0.0625 -6.50818,0.91772 -8.8152,2.26559 -11.84375,7 -1.30994,2.0476 -1.5221,2.71932 -1.53125,5.09375 -0.006,1.5068 -0.21292,3.5117 -0.46875,4.46875 -0.85462,3.19725 -0.92564,4.64912 -0.40625,8 0.9606,6.1969 3.01331,9.42736 7.3125,11.4375 1.59784,0.74689 3.13191,1.58009 3.375,1.875 0.65543,0.79456 4.30712,3.1949 5.71875,3.75 0.67608,0.2658 2.24116,0.6285 3.4375,0.8125 3.2124,0.4934 3.50554,0.4899 4.84375,-0.0625 0.75128,-0.3095 4.17349,-0.50175 8.84375,-0.53125 8.49774,-0.054 10.22483,-0.52432 12.8125,-3.28125 1.1239,-1.19747 1.32011,-1.74448 1.46875,-4.375 0.1097,-1.94092 -0.079,-4.1208 -0.5625,-6.09375 -0.7395,-3.01746 -0.73729,-3.13718 0.1875,-5.875 0.7831,-2.31833 0.88405,-3.33663 0.65625,-6.15625 -0.37346,-4.62183 -1.24872,-7.48718 -2.84375,-9.28125 -0.73783,-0.83023 -1.46298,-1.7081 -1.625,-1.96875 -0.16204,-0.26097 -1.31291,-1.19807 -2.5,-2.09375 l -2.15625,-1.625 -5.65625,0.1875 c -3.11975,0.10589 -6.39337,0.35666 -7.3125,0.53125 -0.96773,0.18414 -2.11246,0.10654 -2.65625,-0.15625 -1.70296,-0.82297 -6.02156,-1.6863 -8.28125,-1.71875 z m -1.59375,1.9375 c 1.65911,-0.0513 3.42184,0.1728 5.25,0.75 3.96743,1.25276 4.4649,1.58907 4.1875,2.84375 -0.96477,4.36453 -1.22464,7.96755 -0.71875,9.65625 0.29334,0.9789 0.41271,1.86817 0.28125,2 -0.13153,0.13158 -1.27039,0.60725 -2.53125,1.0625 -3.98979,1.44045 -5.0405,1.63617 -5.59375,0.96875 -0.29082,-0.35019 -1.30819,-0.625 -2.4375,-0.625 -2.94253,0 -5.72601,-1.96139 -4.5,-3.1875 0.53201,-0.53188 0.59211,-1.59375 0.0937,-1.59375 -0.19198,0 -0.69012,0.97824 -1.125,2.1875 -0.74204,2.06642 -0.87837,2.21846 -2.15625,2.09375 l -1.375,-0.15625 0.1875,-4.53125 c 0.15849,-4.36994 0.20538,-4.62801 1.71875,-6.875 1.96417,-2.91616 5.06871,-4.48079 8.71875,-4.59375 z m 19.28125,0.59375 c 2.28519,0.0192 6.66939,1.03782 7.65625,1.78125 4.98461,3.75492 6.91937,9.75179 5.28125,16.4375 -0.80256,3.27556 -0.7277,7.23067 0.1875,9.5625 1.07171,2.7303 0.3881,5.13161 -2.125,7.34375 -2.77738,2.44481 -8.19843,3.3389 -13.1875,2.1875 -1.85403,-0.4282 -2.66757,-0.3645 -5.8125,0.4375 -2.01087,0.5129 -3.83103,0.92675 -4.0625,0.90625 -2.10352,-0.187 -6.20665,-2.29908 -8.6875,-4.46875 -1.19181,-1.042 -3.19619,-2.40254 -4.4375,-3.03125 -2.04984,-1.03823 -4.5,-3.46628 -4.5,-4.46875 0,-0.2204 -0.38212,-1.14316 -0.875,-2.0625 -1.12241,-2.09425 -1.56058,-5.50013 -0.875,-6.78125 0.43333,-0.80949 0.73001,-0.88753 2.09375,-0.65625 0.88431,0.14991 2.06689,0.76749 2.59375,1.34375 1.04649,1.14474 1.87421,1.43474 0.96875,0.34375 -0.45906,-0.55312 -0.44955,-0.80075 0.0625,-1.3125 0.50215,-0.5022 1.15167,-0.52397 3.21875,-0.1875 2.94579,0.47932 3.40017,0.92587 2.5625,2.53125 -0.32886,0.63034 -0.58767,1.94933 -0.59375,2.90625 -0.005,0.95705 -0.30961,2.90816 -0.65625,4.34375 -0.81707,3.38381 -0.81452,3.4333 0.1875,2.5 0.57699,-0.53756 1.0164,-1.82663 1.34375,-4.03125 0.57145,-3.84822 1.43164,-5.79416 2.84375,-6.4375 0.91235,-0.41573 1.13906,-0.32746 1.8125,0.8125 0.41875,0.70899 0.87481,1.28125 1.0625,1.28125 0.4536,0 0.43918,-0.19308 -0.15625,-1.5 -0.74331,-1.63129 0.48252,-2.84375 2.875,-2.84375 2.10024,0 2.91178,0.49602 4.0625,2.59375 1.50188,2.7377 1.93026,4.87168 1.875,8.84375 -0.0429,3.07855 -0.21772,4.19847 -0.90625,5.3125 -0.9557,1.54634 -1.11102,2.375 -0.4375,2.375 0.23926,0 0.4375,-0.28223 0.4375,-0.625 0,-0.34286 0.36522,-0.72317 0.84375,-0.875 1.01519,-0.32222 2.65625,0.10012 2.65625,0.6875 0,0.22325 0.26609,0.375 0.625,0.375 1.11174,0 0.73686,-1.25978 -0.46875,-1.5625 -1.07286,-0.26928 -1.1621,-0.39528 -0.9375,-2.28125 0.3616,-3.03626 1.02131,-4.40625 2.09375,-4.40625 0.87005,0 0.85457,-0.0996 -0.375,-1.5 -0.71966,-0.81974 -1.46405,-2.07962 -1.625,-2.8125 -0.16095,-0.73287 -0.46665,-1.45739 -0.6875,-1.59375 -0.22086,-0.13649 -0.375,-0.5628 -0.375,-0.96875 0,-0.63187 0.48837,-0.73297 3.375,-0.71875 7.82197,0.0367 8.66692,0.13316 10.03125,1.28125 0.71088,0.59813 1.42782,1.09375 1.59375,1.09375 0.35847,0 -0.12632,-3.3196 -0.65625,-4.5625 -0.20398,-0.47851 -0.47041,-1.27716 -0.625,-1.75 -0.25557,-0.78166 -0.37461,-0.73465 -1.15625,0.5 -0.58016,0.9161 -1.33357,1.44127 -2.3125,1.625 -1.98396,0.37224 -2.85863,-0.043 -3.15625,-1.53125 -0.34411,-1.72039 -1,-2.0355 -1,-0.46875 0,1.08153 -0.22307,1.33223 -1.375,1.5625 -5.34091,1.06811 -9.96875,-2.55351 -9.96875,-7.8125 0,-2.26996 0.91744,-6.31217 1.65625,-7.375 0.52136,-0.74954 6.04319,-2.35899 8.03125,-2.34375 z" />
  </g>
</svg>
