<?xml version="1.0" encoding="UTF-8" standalone="no"?>
<!-- Created with Inkscape (http://www.inkscape.org/) -->

<svg
   xmlns:dc="http://purl.org/dc/elements/1.1/"
   xmlns:cc="http://creativecommons.org/ns#"
   xmlns:rdf="http://www.w3.org/1999/02/22-rdf-syntax-ns#"
   xmlns:svg="http://www.w3.org/2000/svg"
   xmlns="http://www.w3.org/2000/svg"
   xmlns:sodipodi="http://sodipodi.sourceforge.net/DTD/sodipodi-0.dtd"
   xmlns:inkscape="http://www.inkscape.org/namespaces/inkscape"
   width="900"
   height="800"
   id="svg2"
   version="1.1"
   inkscape:version="0.48.2 r9819"
   sodipodi:docname="f19.svg">
  <defs
     id="defs4" />
  <sodipodi:namedview
     id="base"
     pagecolor="#ffffff"
     bordercolor="#666666"
     borderopacity="1.0"
     inkscape:pageopacity="0.0"
     inkscape:pageshadow="2"
     inkscape:zoom="2"
     inkscape:cx="239.0722"
     inkscape:cy="163.1687"
     inkscape:document-units="px"
     inkscape:current-layer="layer1"
     showgrid="false"
     showguides="true"
     inkscape:guide-bbox="true"
     inkscape:window-width="1366"
     inkscape:window-height="746"
     inkscape:window-x="-8"
     inkscape:window-y="-8"
     inkscape:window-maximized="1"
     width="0px"
     height="0px"
     fit-margin-top="0"
     fit-margin-left="0"
     fit-margin-right="0"
     fit-margin-bottom="0">
    <sodipodi:guide
       orientation="1,0"
       position="450,784"
       id="guide3178" />
    <sodipodi:guide
       orientation="0,1"
       position="-61,400"
       id="guide3180" />
  </sodipodi:namedview>
  <metadata
     id="metadata7">
    <rdf:RDF>
      <cc:Work
         rdf:about="">
        <dc:format>image/svg+xml</dc:format>
        <dc:type
           rdf:resource="http://purl.org/dc/dcmitype/StillImage" />
        <dc:title></dc:title>
      </cc:Work>
    </rdf:RDF>
  </metadata>
  <g
     inkscape:label="Layer 1"
     inkscape:groupmode="layer"
     id="layer1"
     transform="translate(0,-252.36218)">
    <path
       id="rect3136"
       transform="translate(0,252.36218)"
       style="fill:#ff0000"
       d="m 138.46875,583.8125 c -0.36492,-0.005 -0.68371,0.0266 -0.9375,0.0625 -7.35719,1.03744 -9.98262,2.58546 -13.40625,7.9375 -1.48083,2.31472 -1.7084,3.06582 -1.71875,5.75 -0.006,1.70336 -0.24206,3.98059 -0.53125,5.0625 -0.9661,3.61433 -1.02466,5.24324 -0.4375,9.03125 1.08592,7.00531 3.38997,10.66514 8.25,12.9375 1.80628,0.84433 3.5377,1.79162 3.8125,2.125 0.74093,0.89821 4.87295,3.59119 6.46875,4.21875 0.76428,0.30051 2.52259,0.72957 3.875,0.9375 3.63146,0.55783 3.98721,0.56161 5.5,-0.0625 0.84928,-0.34991 4.68923,-0.59169 9.96875,-0.625 9.60631,-0.0609 11.57475,-0.57094 14.5,-3.6875 1.2705,-1.3537 1.48821,-1.99508 1.65625,-4.96875 0.12399,-2.19412 -0.10976,-4.64467 -0.65625,-6.875 -0.83597,-3.41111 -0.82668,-3.56128 0.21875,-6.65625 0.88525,-2.62077 1.00752,-3.7813 0.75,-6.96875 -0.42217,-5.22475 -1.41565,-8.44064 -3.21875,-10.46875 -0.83408,-0.93853 -1.6606,-1.9241 -1.84375,-2.21875 -0.18318,-0.29502 -1.43932,-1.36247 -2.78125,-2.375 L 165.5,585.125 l -6.40625,0.21875 c -3.52673,0.1197 -7.24222,0.39638 -8.28125,0.59375 -1.09397,0.20815 -2.354,0.10957 -2.96875,-0.1875 -1.92512,-0.93032 -6.82053,-1.90081 -9.375,-1.9375 z M 136.65625,586 c 1.87554,-0.0579 3.87085,0.19126 5.9375,0.84375 4.485,1.41619 5.06357,1.80038 4.75,3.21875 -1.09062,4.93389 -1.41564,8.99725 -0.84375,10.90625 0.33158,1.10659 0.46112,2.10098 0.3125,2.25 -0.14867,0.14875 -1.41841,0.70411 -2.84375,1.21875 -4.51027,1.62837 -5.71831,1.84825 -6.34375,1.09375 -0.32876,-0.39587 -1.47339,-0.6875 -2.75,-0.6875 -3.32642,0 -6.44848,-2.23893 -5.0625,-3.625 0.60141,-0.60125 0.65707,-1.78125 0.0937,-1.78125 -0.21704,0 -0.78964,1.10174 -1.28125,2.46875 -0.83884,2.336 -0.9929,2.51596 -2.4375,2.375 l -1.5625,-0.1875 0.21875,-5.125 c 0.17915,-4.93999 0.22672,-5.24113 1.9375,-7.78125 2.22041,-3.29657 5.7488,-5.05981 9.875,-5.1875 z m 21.8125,0.6875 c 2.5833,0.0217 7.50939,1.15958 8.625,2 5.63487,4.24476 7.82055,11.03586 5.96875,18.59375 -0.90727,3.70288 -0.81584,8.17648 0.21875,10.8125 1.21152,3.08649 0.43469,5.78054 -2.40625,8.28125 -3.13971,2.76378 -9.26634,3.77039 -14.90625,2.46875 -2.09588,-0.48399 -3.0073,-0.37545 -6.5625,0.53125 -2.27318,0.57978 -4.33209,1.02321 -4.59375,1 -2.37794,-0.21137 -7.03926,-2.60979 -9.84375,-5.0625 -1.34728,-1.17794 -3.56552,-2.69553 -4.96875,-3.40625 -2.31723,-1.17368 -5.09375,-3.92925 -5.09375,-5.0625 0,-0.24917 -0.47408,-1.30448 -1.03125,-2.34375 -1.26884,-2.36746 -1.74375,-6.20802 -0.96875,-7.65625 0.48988,-0.91511 0.83337,-1.01145 2.375,-0.75 0.9997,0.16945 2.31065,0.84855 2.90625,1.5 1.18301,1.29408 2.14858,1.63956 1.125,0.40625 -0.51894,-0.62527 -0.51625,-0.89025 0.0625,-1.46875 0.56766,-0.56772 1.28826,-0.59911 3.625,-0.21875 3.33007,0.54186 3.85321,1.06021 2.90625,2.875 -0.37175,0.71258 -0.68063,2.19948 -0.6875,3.28125 -0.005,1.0819 -0.32688,3.28339 -0.71875,4.90625 -0.92366,3.82524 -0.91398,3.89878 0.21875,2.84375 0.65225,-0.60769 1.16119,-2.07028 1.53125,-4.5625 0.64598,-4.35022 1.59117,-6.55397 3.1875,-7.28125 1.03139,-0.46996 1.26996,-0.38242 2.03125,0.90625 0.47338,0.80149 1.00658,1.4375 1.21875,1.4375 0.51279,0 0.51686,-0.21009 -0.15625,-1.6875 -0.84028,-1.8441 0.54541,-3.21875 3.25,-3.21875 2.37423,0 3.26167,0.56611 4.5625,2.9375 1.69781,3.09485 2.21874,5.50975 2.15625,10 -0.0485,3.48015 -0.2529,4.77189 -1.03125,6.03125 -1.08036,1.74807 -1.26137,2.6875 -0.5,2.6875 0.27047,0 0.5,-0.33128 0.5,-0.71875 0,-0.38759 0.4278,-0.82838 0.96875,-1 1.14763,-0.36426 2.96875,0.11725 2.96875,0.78125 0,0.25237 0.31301,0.4375 0.71875,0.4375 1.25677,0 0.83164,-1.43904 -0.53125,-1.78125 -1.21281,-0.30441 -1.3164,-0.43051 -1.0625,-2.5625 0.40876,-3.43235 1.16266,-5 2.375,-5 0.98354,0 0.95247,-0.10434 -0.4375,-1.6875 -0.81353,-0.9267 -1.63054,-2.35902 -1.8125,-3.1875 -0.18195,-0.82848 -0.53158,-1.65836 -0.78125,-1.8125 -0.24966,-0.15431 -0.4375,-0.63482 -0.4375,-1.09375 0,-0.71429 0.5493,-0.82858 3.8125,-0.8125 8.84237,0.0415 9.80145,0.13964 11.34375,1.4375 0.80361,0.67615 1.59366,1.28125 1.78125,1.28125 0.40522,0 -0.1197,-3.78247 -0.71875,-5.1875 -0.23059,-0.54094 -0.54399,-1.43422 -0.71875,-1.96875 -0.28891,-0.88362 -0.39765,-0.83323 -1.28125,0.5625 -0.65584,1.03559 -1.51835,1.63606 -2.625,1.84375 -2.24277,0.4208 -3.25729,-0.0363 -3.59375,-1.71875 -0.389,-1.94483 -1.125,-2.30239 -1.125,-0.53125 0,1.22263 -0.22905,1.4897 -1.53125,1.75 -6.03764,1.20746 -11.28125,-2.89873 -11.28125,-8.84375 0,-2.56609 1.03983,-7.11103 1.875,-8.3125 0.58938,-0.84733 6.84634,-2.67348 9.09375,-2.65625 z" />
  </g>
</svg>
