<?xml version="1.0" encoding="UTF-8" standalone="no"?>
<!-- Created with Inkscape (http://www.inkscape.org/) -->

<svg
   xmlns:dc="http://purl.org/dc/elements/1.1/"
   xmlns:cc="http://creativecommons.org/ns#"
   xmlns:rdf="http://www.w3.org/1999/02/22-rdf-syntax-ns#"
   xmlns:svg="http://www.w3.org/2000/svg"
   xmlns="http://www.w3.org/2000/svg"
   xmlns:sodipodi="http://sodipodi.sourceforge.net/DTD/sodipodi-0.dtd"
   xmlns:inkscape="http://www.inkscape.org/namespaces/inkscape"
   width="800"
   height="400"
   id="svg2"
   version="1.1"
   inkscape:version="0.48.2 r9819"
   sodipodi:docname="m19.svg">
  <defs
     id="defs4" />
  <sodipodi:namedview
     id="base"
     pagecolor="#ffffff"
     bordercolor="#666666"
     borderopacity="1.0"
     inkscape:pageopacity="0.0"
     inkscape:pageshadow="2"
     inkscape:zoom="4"
     inkscape:cx="743.27216"
     inkscape:cy="172.15968"
     inkscape:document-units="px"
     inkscape:current-layer="layer1"
     showgrid="false"
     showguides="true"
     inkscape:guide-bbox="true"
     inkscape:window-width="1366"
     inkscape:window-height="746"
     inkscape:window-x="-8"
     inkscape:window-y="-8"
     inkscape:window-maximized="1"
     width="0px"
     height="0px"
     fit-margin-top="0"
     fit-margin-left="0"
     fit-margin-right="0"
     fit-margin-bottom="0">
    <sodipodi:guide
       orientation="1,0"
       position="400.22244,349.31075"
       id="guide3178" />
    <sodipodi:guide
       orientation="0,1"
       position="655.48799,210.71782"
       id="guide3180" />
  </sodipodi:namedview>
  <metadata
     id="metadata7">
    <rdf:RDF>
      <cc:Work
         rdf:about="">
        <dc:format>image/svg+xml</dc:format>
        <dc:type
           rdf:resource="http://purl.org/dc/dcmitype/StillImage" />
        <dc:title></dc:title>
      </cc:Work>
    </rdf:RDF>
  </metadata>
  <g
     inkscape:label="Layer 1"
     inkscape:groupmode="layer"
     id="layer1"
     transform="translate(0,-652.36218)">
    <path
       id="rect3889"
       transform="translate(0,652.36218)"
       style="fill:#ff0000"
       d="m 679.25,213.125 c -1.42233,0.0442 -2.80661,0.19557 -4.03125,0.4375 -1.65297,0.32679 -3.06638,0.33404 -4.59375,0.0312 -4.6395,-0.91986 -12.045,1.3459 -14.46875,4.40625 -1.2308,1.55428 -3.43545,7.63625 -4.40625,12.21875 -0.27877,1.31607 -0.88543,3.49837 -1.34375,4.875 -0.5743,1.72486 -0.84375,3.7672 -0.84375,6.46875 0,3.76752 0.071,4.00321 1.5625,6.25 1.908,2.87369 3.79624,3.55638 8.4375,3.125 1.87857,-0.17458 3.48261,-0.0586 4.25,0.25 0.67403,0.27122 2.2778,0.71471 3.59375,1.03125 3.86845,0.93084 7.07717,0.4876 11.21875,-1.59375 2.52759,-1.27013 4.37065,-1.89143 6.28125,-2.09375 3.18744,-0.33758 3.37892,-0.43343 6.78125,-3.4375 l 2.59375,-2.3125 0.5,-3.5 c 0.55221,-3.77688 0.33891,-6.33587 -0.75,-8.40625 -0.53811,-1.02348 -0.66753,-2.4904 -0.59375,-6.84375 0.0876,-5.15909 0.006,-5.67278 -0.90625,-6.90625 -0.53976,-0.73022 -1.55421,-1.67545 -2.28125,-2.125 -2.05415,-1.26921 -6.73304,-2.00717 -11,-1.875 z m 2.09375,1.53125 c 2.52696,-0.0654 6.83556,0.9321 8.5,2.0625 1.99975,1.35845 2.30984,2.34635 2.03125,6.6875 -0.17658,2.75133 -0.3703,3.44199 -1.0625,3.8125 -1.44893,0.77546 -2.16951,0.17416 -1.84375,-1.5625 0.24092,-1.28474 0.16772,-1.50128 -0.40625,-1.28125 -0.37694,0.14482 -0.79381,0.64112 -0.9375,1.09375 -0.30366,0.95672 -3.35714,3.49467 -5.125,4.25 -2.22183,0.94893 -5.28781,0.25746 -6.90625,-1.53125 -0.68865,-0.76103 -0.67635,-0.93596 0.0937,-2.65625 0.47351,-1.05757 0.64259,-1.94771 0.40625,-2.09375 -0.22512,-0.13911 -0.40625,-0.003 -0.40625,0.25 0,0.25344 -0.3007,0.4375 -0.625,0.4375 -0.40706,0 -0.63478,-0.84678 -0.8125,-2.75 -0.2684,-2.87378 -1.03973,-5.0625 -1.75,-5.0625 -0.23855,0 -0.26367,0.56237 -0.0937,1.375 0.16249,0.77779 0.37347,3.01224 0.5,4.9375 0.22704,3.45586 0.22818,3.5144 -0.90625,4.03125 -1.4413,0.65705 -2.63398,0.66968 -3.65625,0.0312 -0.9776,-0.61053 -3.6657,-0.17366 -4.40625,0.71875 -0.74615,0.89902 -3.61973,0.81722 -4.46875,-0.125 -0.37737,-0.41876 -0.83315,-1.3003 -1,-1.96875 -0.42087,-1.68627 -1.19655,-1.22913 -1.625,0.9375 -0.27592,1.39533 -0.5591,1.8125 -1.21875,1.8125 -1.27884,0 -1.48675,-1.19235 -0.625,-3.4375 0.42298,-1.10186 0.93096,-2.66818 1.125,-3.46875 0.34803,-1.43647 1.9421,-3.5625 2.6875,-3.5625 0.21067,0 1.28284,-0.41234 2.40625,-0.9375 1.75151,-0.81928 3.16011,-1.02808 9.875,-1.3125 4.30678,-0.18241 8.48884,-0.4346 9.28125,-0.59375 0.27509,-0.055 0.60777,-0.0846 0.96875,-0.0937 z m -14.8125,13.53125 c 0.27713,-0.008 0.47408,0.13031 0.75,0.40625 0.49584,0.49579 0.52225,0.98426 0.1875,2.3125 -0.78665,3.12063 -1.52152,8.88482 -1.1875,9.21875 0.62432,0.62443 1.44487,-1.19207 1.71875,-3.8125 0.28912,-2.76627 1.11152,-4.78514 2.59375,-6.40625 1.19107,-1.30266 2.04367,-1.24215 4,0.3125 0.89905,0.71448 2.28405,1.49516 3.09375,1.71875 1.50671,0.41603 4.9375,3.67355 4.9375,4.6875 0,0.90887 3.09392,4.02893 4.875,4.9375 1.96841,1.00419 2.09375,1.0246 2.09375,0.21875 0,-0.34386 -0.88412,-1.25222 -1.96875,-2.03125 -2.04569,-1.46899 -4.5625,-5.05148 -4.5625,-6.46875 0,-0.44752 0.49155,-1.10541 1.09375,-1.5 0.89262,-0.58491 1.40982,-0.61918 2.78125,-0.25 0.92517,0.24916 1.95351,0.73646 2.25,1.09375 0.29643,0.3571 0.6963,0.625 0.90625,0.625 0.76806,0 0.36642,-0.96751 -0.90625,-2.15625 -0.71779,-0.67046 -1.3125,-1.31281 -1.3125,-1.4375 0,-0.34115 3.05156,-1.2921 3.3125,-1.03125 0.12455,0.12458 0.39177,0.89101 0.59375,1.6875 0.20199,0.7966 0.69493,2.3295 1.09375,3.40625 1.41198,3.81153 -0.0177,8.67717 -3.3125,11.34375 -1.16522,0.94302 -2.22613,1.33163 -4.5625,1.625 -2.10657,0.26452 -4.06655,0.89555 -6.3125,2.03125 -4.12076,2.0837 -7.97929,2.44207 -11.71875,1.0625 -1.9916,-0.73409 -3.01633,-0.86397 -6.1875,-0.65625 -5.00775,0.32783 -6.95611,-0.19317 -8.375,-2.28125 -1.57289,-2.31498 -1.53842,-7.4779 0.0625,-12.4375 0.62721,-1.94305 1.19609,-3.78921 1.28125,-4.09375 0.22416,-0.80116 1.46388,-1.16107 2.03125,-0.59375 0.35824,0.35834 0.2316,1.00379 -0.46875,2.40625 -1.19796,2.39862 -1.30265,5.18326 -0.1875,4.96875 0.5637,-0.10842 0.85551,-0.74605 1.0625,-2.4375 0.18133,-1.48179 0.65616,-2.79786 1.40625,-3.78125 1.09416,-1.43506 1.28085,-1.53125 3.75,-1.53125 1.53442,0 3.18225,-0.28062 3.96875,-0.6875 0.58447,-0.30125 0.94163,-0.46042 1.21875,-0.46875 z" />
  </g>
</svg>
