<?xml version="1.0" encoding="UTF-8" standalone="no"?>
<!-- Created with Inkscape (http://www.inkscape.org/) -->

<svg
   xmlns:dc="http://purl.org/dc/elements/1.1/"
   xmlns:cc="http://creativecommons.org/ns#"
   xmlns:rdf="http://www.w3.org/1999/02/22-rdf-syntax-ns#"
   xmlns:svg="http://www.w3.org/2000/svg"
   xmlns="http://www.w3.org/2000/svg"
   xmlns:sodipodi="http://sodipodi.sourceforge.net/DTD/sodipodi-0.dtd"
   xmlns:inkscape="http://www.inkscape.org/namespaces/inkscape"
   width="800"
   height="400"
   id="svg2"
   version="1.1"
   inkscape:version="0.48.2 r9819"
   sodipodi:docname="mc.svg">
  <defs
     id="defs4" />
  <sodipodi:namedview
     id="base"
     pagecolor="#ffffff"
     bordercolor="#666666"
     borderopacity="1.0"
     inkscape:pageopacity="0.0"
     inkscape:pageshadow="2"
     inkscape:zoom="5.6568542"
     inkscape:cx="399.46485"
     inkscape:cy="316.15998"
     inkscape:document-units="px"
     inkscape:current-layer="layer1"
     showgrid="false"
     showguides="true"
     inkscape:guide-bbox="true"
     inkscape:window-width="1366"
     inkscape:window-height="746"
     inkscape:window-x="-8"
     inkscape:window-y="-8"
     inkscape:window-maximized="1"
     width="0px"
     height="0px"
     fit-margin-top="0"
     fit-margin-left="0"
     fit-margin-right="0"
     fit-margin-bottom="0">
    <sodipodi:guide
       orientation="1,0"
       position="400.22244,349.31075"
       id="guide3178" />
  </sodipodi:namedview>
  <metadata
     id="metadata7">
    <rdf:RDF>
      <cc:Work
         rdf:about="">
        <dc:format>image/svg+xml</dc:format>
        <dc:type
           rdf:resource="http://purl.org/dc/dcmitype/StillImage" />
        <dc:title></dc:title>
        <cc:license
           rdf:resource="" />
      </cc:Work>
    </rdf:RDF>
  </metadata>
  <g
     inkscape:label="Layer 1"
     inkscape:groupmode="layer"
     id="layer1"
     transform="translate(0,-652.36218)">
    <path
       id="rect3039"
       transform="translate(0,652.36218)"
       style="fill:#ff0000"
       d="m 344.78125,35.9375 c -1.2096,-0.04975 -2.42563,0.456884 -3.59375,1.625 -1.50167,1.50167 -1.60451,2.91236 -0.84375,12.59375 1.14152,14.52695 0.63735,32.99862 -1.125,41.5 -1.68413,8.12411 -1.86375,18.56198 -0.375,21.34375 0.57833,1.08059 2.03287,2.3347 3.21875,2.8125 1.18589,0.4778 5.86618,0.9031 10.4375,0.9375 10.5287,0.0793 11.9375,-0.93991 11.9375,-8.625 0,-6.54495 -1.55369,-12.20835 -4.75,-17.375 -1.59696,-2.5814 -2.68981,-6.33752 -3.28125,-11.34375 -2.13671,-18.08615 -4.05417,-31.50696 -5.09375,-35.4375 -1.33218,-5.036817 -3.87012,-7.921793 -6.53125,-8.03125 z M 344.4375,39 c 0.16667,-0.0012 0.34385,0.0031 0.53125,0.03125 1.61972,0.24336 2.31551,1.75108 3.75,8.1875 3.50347,15.71986 5.78572,36.03125 4.0625,36.03125 -0.58929,0 -1.32076,-0.42592 -1.65625,-0.96875 -0.33549,-0.54283 -1.34357,-1 -2.21875,-1 -0.87518,0 -2.44767,0.76879 -3.5,1.71875 -1.88416,1.70085 -1.89344,1.6082 -1.21875,-7.625 0.47087,-6.44385 0.19734,-12.95697 -0.84375,-20.8125 C 341.74621,42.508313 341.93749,39.017465 344.4375,39 z m 3.6875,45.03125 c 0.6247,-0.05785 1.32367,0.34586 2.65625,1.15625 3.70157,2.25106 8.2846,8.69435 9.15625,12.90625 1.84624,8.92127 1.74088,12.24248 -0.40625,14.53125 -1.5543,1.65682 -3.14913,2.1831 -6.25,2.125 -2.28588,-0.0429 -4.58217,-0.22517 -5.125,-0.40625 -0.54283,-0.18108 -2.17439,-0.5876 -3.625,-0.90625 -6.72437,-1.47714 -5.74951,-20.34522 1.4375,-27.8125 0.98669,-1.025175 1.53155,-1.535899 2.15625,-1.59375 z" />
  </g>
</svg>
