<?xml version="1.0" encoding="UTF-8" standalone="no"?>
<!-- Created with Inkscape (http://www.inkscape.org/) -->

<svg
   xmlns:dc="http://purl.org/dc/elements/1.1/"
   xmlns:cc="http://creativecommons.org/ns#"
   xmlns:rdf="http://www.w3.org/1999/02/22-rdf-syntax-ns#"
   xmlns:svg="http://www.w3.org/2000/svg"
   xmlns="http://www.w3.org/2000/svg"
   xmlns:sodipodi="http://sodipodi.sourceforge.net/DTD/sodipodi-0.dtd"
   xmlns:inkscape="http://www.inkscape.org/namespaces/inkscape"
   width="800"
   height="400"
   id="svg2"
   version="1.1"
   inkscape:version="0.48.2 r9819"
   sodipodi:docname="fd.svg">
  <defs
     id="defs4" />
  <sodipodi:namedview
     id="base"
     pagecolor="#ffffff"
     bordercolor="#666666"
     borderopacity="1.0"
     inkscape:pageopacity="0.0"
     inkscape:pageshadow="2"
     inkscape:zoom="5.6568542"
     inkscape:cx="399.46485"
     inkscape:cy="252.52037"
     inkscape:document-units="px"
     inkscape:current-layer="layer1"
     showgrid="false"
     showguides="true"
     inkscape:guide-bbox="true"
     inkscape:window-width="1366"
     inkscape:window-height="746"
     inkscape:window-x="-8"
     inkscape:window-y="-8"
     inkscape:window-maximized="1"
     width="0px"
     height="0px"
     fit-margin-top="0"
     fit-margin-left="0"
     fit-margin-right="0"
     fit-margin-bottom="0">
    <sodipodi:guide
       orientation="1,0"
       position="400.22244,349.31075"
       id="guide3178" />
  </sodipodi:namedview>
  <metadata
     id="metadata7">
    <rdf:RDF>
      <cc:Work
         rdf:about="">
        <dc:format>image/svg+xml</dc:format>
        <dc:type
           rdf:resource="http://purl.org/dc/dcmitype/StillImage" />
        <dc:title></dc:title>
        <cc:license
           rdf:resource="" />
      </cc:Work>
    </rdf:RDF>
  </metadata>
  <g
     inkscape:label="Layer 1"
     inkscape:groupmode="layer"
     id="layer1"
     transform="translate(0,-652.36218)">
    <path
       id="rect3043"
       transform="translate(0,652.36218)"
       style="fill:#ff0000"
       d="m 356.5,132.8125 c -1.8176,-0.005 -4.01016,0.12594 -6.625,0.34375 -10.7001,0.89131 -12.64113,2.31688 -12.4375,9.1875 0.28836,9.72955 4.43087,16.96122 11.6875,20.375 1.62849,0.7661 3.0078,1.4162 3.0625,1.4375 0.0547,0.0213 1.50115,-0.46374 3.21875,-1.0625 2.04387,-0.7125 4.31135,-2.85849 6.5625,-6.25 3.05487,-4.60236 3.46875,-5.91851 3.46875,-11.6875 0,-9.69317 -1.06125,-12.32027 -8.9375,-12.34375 z m -1.1875,2 c 3.08916,-0.12332 3.73805,0.40497 5.59375,2.40625 4.54208,4.89844 2.68216,14.42935 -4.21875,21.78125 -1.65598,1.7642 -3.47694,3.21875 -4.0625,3.21875 -0.58555,0 -2.94261,-1.74812 -5.25,-3.875 -4.46183,-4.11277 -7.634,-10.99733 -7.625,-16.59375 0.007,-4.27233 2.69509,-5.80797 11.53125,-6.625 1.71133,-0.15824 3.00153,-0.27139 4.03125,-0.3125 z" />
  </g>
</svg>
