<?xml version="1.0" encoding="UTF-8" standalone="no"?>
<!-- Created with Inkscape (http://www.inkscape.org/) -->

<svg
   xmlns:dc="http://purl.org/dc/elements/1.1/"
   xmlns:cc="http://creativecommons.org/ns#"
   xmlns:rdf="http://www.w3.org/1999/02/22-rdf-syntax-ns#"
   xmlns:svg="http://www.w3.org/2000/svg"
   xmlns="http://www.w3.org/2000/svg"
   xmlns:sodipodi="http://sodipodi.sourceforge.net/DTD/sodipodi-0.dtd"
   xmlns:inkscape="http://www.inkscape.org/namespaces/inkscape"
   width="800"
   height="700"
   id="svg2"
   version="1.1"
   inkscape:version="0.48.2 r9819"
   sodipodi:docname="m23.svg">
  <defs
     id="defs4" />
  <sodipodi:namedview
     id="base"
     pagecolor="#ffffff"
     bordercolor="#666666"
     borderopacity="1.0"
     inkscape:pageopacity="0.0"
     inkscape:pageshadow="2"
     inkscape:zoom="7.0710678"
     inkscape:cx="341.0746"
     inkscape:cy="136.12209"
     inkscape:document-units="px"
     inkscape:current-layer="layer1"
     showgrid="false"
     showguides="true"
     inkscape:guide-bbox="true"
     inkscape:window-width="1366"
     inkscape:window-height="746"
     inkscape:window-x="-8"
     inkscape:window-y="-8"
     inkscape:window-maximized="1"
     width="0px"
     height="0px"
     fit-margin-top="0"
     fit-margin-left="0"
     fit-margin-right="0"
     fit-margin-bottom="0">
    <sodipodi:guide
       orientation="1,0"
       position="400.22244,349.31075"
       id="guide3178" />
    <sodipodi:guide
       orientation="0,1"
       position="400.22244,349.31075"
       id="guide3180" />
  </sodipodi:namedview>
  <metadata
     id="metadata7">
    <rdf:RDF>
      <cc:Work
         rdf:about="">
        <dc:format>image/svg+xml</dc:format>
        <dc:type
           rdf:resource="http://purl.org/dc/dcmitype/StillImage" />
        <dc:title></dc:title>
      </cc:Work>
    </rdf:RDF>
  </metadata>
  <g
     inkscape:label="Layer 1"
     inkscape:groupmode="layer"
     id="layer1"
     transform="translate(0,-352.36218)">
    <path
       style="fill:#ff0000"
       d="m 324.6875,890.42468 c 1.10282,-0.0435 2.18541,0.20454 2.875,0.6875 0.54444,0.38138 1.7918,2.36087 2.75,4.40625 0.95819,2.04538 2.19297,4.31883 2.75,5.0625 3.79221,5.06193 3.69674,8.94815 -0.28125,11.90625 -0.40935,0.3045 -1.00165,0.8312 -1.3125,1.125 -0.31084,0.2936 -1.68142,1.06055 -3.0625,1.71875 -1.39195,0.6632 -3.22608,1.16465 -4.125,1.15625 -2.09796,-0.02 -5.84407,-1.7726 -7.59375,-3.5625 -1.51992,-1.5547 -5.125,-9.2578 -5.125,-10.96875 0,-1.29698 0.89835,-1.4226 4.15625,-0.5 1.17993,0.33413 4.34347,1.02768 7,1.5625 3.9448,0.79387 5.44419,0.93602 8.25,0.65625 3.96874,-0.39539 3.16107,-0.94789 -1.5625,-1.0625 -1.55522,-0.0377 -4.20014,-0.43615 -5.875,-0.90625 -6.23084,-1.74864 -8.90625,-2.69369 -8.90625,-3.125 0,-0.57657 7.10261,-7.35975 8.15625,-7.78125 0.57466,-0.22966 1.24457,-0.34893 1.90625,-0.375 z"
       id="rect3282" />
  </g>
</svg>
