<?xml version="1.0" encoding="UTF-8" standalone="no"?>
<!-- Created with Inkscape (http://www.inkscape.org/) -->

<svg
   xmlns:dc="http://purl.org/dc/elements/1.1/"
   xmlns:cc="http://creativecommons.org/ns#"
   xmlns:rdf="http://www.w3.org/1999/02/22-rdf-syntax-ns#"
   xmlns:svg="http://www.w3.org/2000/svg"
   xmlns="http://www.w3.org/2000/svg"
   xmlns:sodipodi="http://sodipodi.sourceforge.net/DTD/sodipodi-0.dtd"
   xmlns:inkscape="http://www.inkscape.org/namespaces/inkscape"
   width="800"
   height="700"
   id="svg2"
   version="1.1"
   inkscape:version="0.48.2 r9819"
   sodipodi:docname="m23-fill.svg">
  <defs
     id="defs4" />
  <sodipodi:namedview
     id="base"
     pagecolor="#ffffff"
     bordercolor="#666666"
     borderopacity="1.0"
     inkscape:pageopacity="0.0"
     inkscape:pageshadow="2"
     inkscape:zoom="7.0710678"
     inkscape:cx="341.0746"
     inkscape:cy="141.77894"
     inkscape:document-units="px"
     inkscape:current-layer="layer1"
     showgrid="false"
     showguides="true"
     inkscape:guide-bbox="true"
     inkscape:window-width="1024"
     inkscape:window-height="538"
     inkscape:window-x="-8"
     inkscape:window-y="-8"
     inkscape:window-maximized="1"
     width="0px"
     height="0px"
     fit-margin-top="0"
     fit-margin-left="0"
     fit-margin-right="0"
     fit-margin-bottom="0">
    <sodipodi:guide
       orientation="1,0"
       position="400.22244,349.31075"
       id="guide3178" />
    <sodipodi:guide
       orientation="0,1"
       position="400.22244,349.31075"
       id="guide3180" />
  </sodipodi:namedview>
  <metadata
     id="metadata7">
    <rdf:RDF>
      <cc:Work
         rdf:about="">
        <dc:format>image/svg+xml</dc:format>
        <dc:type
           rdf:resource="http://purl.org/dc/dcmitype/StillImage" />
        <dc:title />
      </cc:Work>
    </rdf:RDF>
  </metadata>
  <g
     inkscape:label="Layer 1"
     inkscape:groupmode="layer"
     id="layer1"
     transform="translate(0,-352.36218)">
    <path
       id="rect4307"
       transform="translate(0,352.36218)"
       style="fill:#00ff00"
       d="m 324.6875,538.0625 c -0.66168,0.0261 -1.33159,0.14534 -1.90625,0.375 -1.05364,0.4215 -8.15625,7.20468 -8.15625,7.78125 0,0.43131 2.67541,1.37636 8.90625,3.125 1.67486,0.4701 4.31978,0.86855 5.875,0.90625 4.72357,0.11461 5.53124,0.66711 1.5625,1.0625 -2.80581,0.27977 -4.3052,0.13762 -8.25,-0.65625 -2.65653,-0.53482 -5.82007,-1.22837 -7,-1.5625 -3.2579,-0.9226 -4.15625,-0.79698 -4.15625,0.5 0,1.71095 3.60508,9.41405 5.125,10.96875 1.74968,1.7899 5.49579,3.5425 7.59375,3.5625 0.89892,0.008 2.73305,-0.49305 4.125,-1.15625 1.38108,-0.6582 2.75166,-1.42515 3.0625,-1.71875 0.31085,-0.2938 0.90315,-0.8205 1.3125,-1.125 3.97799,-2.9581 4.07346,-6.84432 0.28125,-11.90625 -0.55703,-0.74367 -1.79181,-3.01712 -2.75,-5.0625 -0.9582,-2.04538 -2.20556,-4.02487 -2.75,-4.40625 -0.68959,-0.48296 -1.77218,-0.731 -2.875,-0.6875 z" />
  </g>
</svg>
