<?xml version="1.0" encoding="UTF-8" standalone="no"?>
<!-- Created with Inkscape (http://www.inkscape.org/) -->

<svg
   xmlns:dc="http://purl.org/dc/elements/1.1/"
   xmlns:cc="http://creativecommons.org/ns#"
   xmlns:rdf="http://www.w3.org/1999/02/22-rdf-syntax-ns#"
   xmlns:svg="http://www.w3.org/2000/svg"
   xmlns="http://www.w3.org/2000/svg"
   xmlns:sodipodi="http://sodipodi.sourceforge.net/DTD/sodipodi-0.dtd"
   xmlns:inkscape="http://www.inkscape.org/namespaces/inkscape"
   width="800"
   height="400"
   id="svg2"
   version="1.1"
   inkscape:version="0.48.2 r9819"
   sodipodi:docname="f20.svg">
  <defs
     id="defs4" />
  <sodipodi:namedview
     id="base"
     pagecolor="#ffffff"
     bordercolor="#666666"
     borderopacity="1.0"
     inkscape:pageopacity="0.0"
     inkscape:pageshadow="2"
     inkscape:zoom="2"
     inkscape:cx="571.39309"
     inkscape:cy="119.02314"
     inkscape:document-units="px"
     inkscape:current-layer="layer1"
     showgrid="false"
     showguides="true"
     inkscape:guide-bbox="true"
     inkscape:window-width="1366"
     inkscape:window-height="746"
     inkscape:window-x="-8"
     inkscape:window-y="-8"
     inkscape:window-maximized="1"
     width="0px"
     height="0px"
     fit-margin-top="0"
     fit-margin-left="0"
     fit-margin-right="0"
     fit-margin-bottom="0">
    <sodipodi:guide
       orientation="1,0"
       position="400.22244,349.31075"
       id="guide3178" />
    <sodipodi:guide
       orientation="0,1"
       position="655.48799,210.71782"
       id="guide3180" />
  </sodipodi:namedview>
  <metadata
     id="metadata7">
    <rdf:RDF>
      <cc:Work
         rdf:about="">
        <dc:format>image/svg+xml</dc:format>
        <dc:type
           rdf:resource="http://purl.org/dc/dcmitype/StillImage" />
        <dc:title></dc:title>
      </cc:Work>
    </rdf:RDF>
  </metadata>
  <g
     inkscape:label="Layer 1"
     inkscape:groupmode="layer"
     id="layer1"
     transform="translate(0,-652.36218)">
    <path
       id="rect3827"
       transform="translate(0,652.36218)"
       style="fill:#ff0000"
       d="m 615.46875,263.71875 c -2.50847,0 -5.55579,1.97695 -9.96875,6.46875 l -4.21875,4.28125 0,4.46875 c 0,4.4004 0.378,7.31555 1.59375,13.21875 0.41637,2.0215 0.58968,5.9731 0.59375,12.1875 0.004,8.7963 1.02905,26.85565 1.5625,27.71875 0.44439,0.7189 1.79428,6.14095 2.3125,9.21875 0.27472,1.6316 1.1046,4.1636 1.8125,5.625 0.7079,1.4613 1.25,2.9337 1.25,3.25 0,0.3167 0.16428,0.5473 0.34375,0.5625 0.17945,0.01 0.8081,0.8347 1.40625,1.8125 0.59819,0.9776 1.49023,1.9278 1.96875,2.125 1.49834,0.6168 2.75314,0.4358 3.625,-0.5 0.75122,-0.8064 0.89605,-1.7884 1.125,-9.4375 0.33264,-11.1121 1.46079,-26.42615 2.25,-30.40625 0.34198,-1.7244 0.59375,-4.609 0.59375,-6.375 0,-3.1898 1.13113,-7.64035 4.0625,-16.15625 4.1986,-12.1974 4.58199,-14.59045 2.71875,-18.15625 -1.27231,-2.4348 -1.80264,-3.0485 -5.125,-6.375 -2.16196,-2.1645 -5.19376,-3.53125 -7.90625,-3.53125 z m 0.71875,2.53125 c 1.874,-0.022 2.78125,0.2405 4.28125,1.1875 2.50746,1.583 2.70155,1.8227 4.96875,5.5 1.34677,2.1845 1.94157,3.6174 1.9375,4.6875 -0.002,0.8486 -0.98614,4.37445 -2.1875,7.84375 -1.20142,3.4693 -2.39546,7.16575 -2.6875,8.21875 -0.36392,1.3123 -1.08122,2.32685 -2.1875,3.21875 -2.01498,1.6247 -4.88211,1.93895 -7.75,0.84375 -2.69818,-1.0301 -2.83249,-1.15995 -4.46875,-3.71875 -2.12754,-3.327 -4.57117,-10.06755 -4.6875,-12.90625 -0.24734,-6.0333 -0.26873,-5.9778 3.4375,-9.5 4.48841,-4.2654 6.33382,-5.3385 9.34375,-5.375 z m -10.28125,29.65625 c 0.15483,0 1.08082,0.6462 2.0625,1.4375 2.3134,1.8643 6.08254,3.78125 7.40625,3.78125 0.57246,0 1.81954,-0.2747 2.8125,-0.625 l 1.8125,-0.65625 -0.21875,2.71875 c -0.80892,9.1288 -1.19281,13.26425 -1.53125,17.59375 -0.2096,2.6805 -0.50975,5.0875 -0.6875,5.375 -0.17775,0.2876 -0.42718,6.4658 -0.59375,13.75 -0.24303,10.6279 -0.44909,13.34715 -0.9375,13.65625 -0.33472,0.2119 -0.74313,0.40255 -0.90625,0.40625 -0.77011,0.017 -3.73306,-5.4476 -4.84375,-8.9375 -2.00049,-6.2863 -3.7846,-15.83285 -4.21875,-22.59375 -0.49302,-7.6777 -0.60099,-25.90625 -0.15625,-25.90625 z" />
  </g>
</svg>
