<?xml version="1.0" encoding="UTF-8" standalone="no"?>
<!-- Created with Inkscape (http://www.inkscape.org/) -->

<svg
   xmlns:dc="http://purl.org/dc/elements/1.1/"
   xmlns:cc="http://creativecommons.org/ns#"
   xmlns:rdf="http://www.w3.org/1999/02/22-rdf-syntax-ns#"
   xmlns:svg="http://www.w3.org/2000/svg"
   xmlns="http://www.w3.org/2000/svg"
   xmlns:sodipodi="http://sodipodi.sourceforge.net/DTD/sodipodi-0.dtd"
   xmlns:inkscape="http://www.inkscape.org/namespaces/inkscape"
   width="900"
   height="800"
   id="svg2"
   version="1.1"
   inkscape:version="0.48.2 r9819"
   sodipodi:docname="l19.svg">
  <defs
     id="defs4" />
  <sodipodi:namedview
     id="base"
     pagecolor="#ffffff"
     bordercolor="#666666"
     borderopacity="1.0"
     inkscape:pageopacity="0.0"
     inkscape:pageshadow="2"
     inkscape:zoom="2"
     inkscape:cx="239.0722"
     inkscape:cy="234.08636"
     inkscape:document-units="px"
     inkscape:current-layer="layer1"
     showgrid="false"
     showguides="true"
     inkscape:guide-bbox="true"
     inkscape:window-width="1366"
     inkscape:window-height="746"
     inkscape:window-x="-8"
     inkscape:window-y="-8"
     inkscape:window-maximized="1"
     width="0px"
     height="0px"
     fit-margin-top="0"
     fit-margin-left="0"
     fit-margin-right="0"
     fit-margin-bottom="0">
    <sodipodi:guide
       orientation="1,0"
       position="450,784"
       id="guide3178" />
    <sodipodi:guide
       orientation="0,1"
       position="-61,400"
       id="guide3180" />
  </sodipodi:namedview>
  <metadata
     id="metadata7">
    <rdf:RDF>
      <cc:Work
         rdf:about="">
        <dc:format>image/svg+xml</dc:format>
        <dc:type
           rdf:resource="http://purl.org/dc/dcmitype/StillImage" />
        <dc:title></dc:title>
      </cc:Work>
    </rdf:RDF>
  </metadata>
  <g
     inkscape:label="Layer 1"
     inkscape:groupmode="layer"
     id="layer1"
     transform="translate(0,-252.36218)">
    <path
       id="rect3144"
       transform="translate(0,252.36218)"
       style="fill:#ff0000"
       d="m 201.53125,466.71875 c -0.93957,-0.009 -1.62842,0.36357 -2.34375,1.125 -1.31193,1.39648 -1.24862,2.65476 0.46875,8.875 0.93202,3.37589 1.09635,5.4494 1.21875,14.375 0.0784,5.72112 -0.0254,12.35675 -0.25,14.75 -0.22455,2.39329 -0.67772,6.97307 -1,10.21875 -0.32227,3.2458 -0.57284,6.25052 -0.5625,6.65625 0.0115,0.40564 -0.29279,2.95139 -0.65625,5.65625 -0.36349,2.70474 -0.91292,6.79469 -1.21875,9.09375 -0.50754,3.81571 -2.50126,10.821 -4.15625,14.5 -1.2939,2.87487 -1.81904,7.20444 -1.28125,10.34375 1.01381,5.91781 1.20407,6.40338 3.625,8.25 0.92169,0.70315 2.3819,2.36585 3.25,3.71875 0.86815,1.35287 2.29599,2.91781 3.15625,3.46875 1.05991,0.67904 2.36979,1.02563 4.125,1.03125 2.1864,0.006 3.18498,-0.32939 6.1875,-2.125 1.95636,-1.17 4.44934,-2.51361 5.53125,-3 4.57228,-2.05579 6.28046,-5.72403 6.15625,-13.03125 -0.0463,-2.7237 -0.35089,-5.27078 -0.75,-6.15625 -0.37385,-0.82973 -0.80221,-2.27206 -0.9375,-3.21875 -0.13519,-0.94668 -0.61526,-2.98111 -1.0625,-4.46875 -1.18474,-3.94079 -2.20016,-16.02534 -2.65625,-31.21875 -0.54021,-17.99439 -1.04971,-22.10842 -3.8125,-30.96875 -0.67473,-2.16386 -1.53917,-5.05388 -1.90625,-6.40625 -1.42813,-5.26137 -3.81042,-8.59325 -7.3125,-10.25 -1.661,-0.78588 -2.87294,-1.20912 -3.8125,-1.21875 z m 0.6875,1.6875 c 0.63189,-0.0883 1.37828,0.20431 2.96875,1.125 2.82998,1.63823 4.71723,4.16963 5.15625,6.875 0.15765,0.97153 0.60891,2.31042 0.96875,3 0.35988,0.68951 0.62384,1.75279 0.625,2.34375 9.1e-4,0.59098 0.28626,1.67607 0.59375,2.4375 1.97073,4.87966 3.25937,17.72728 3.875,38.53125 0.41508,14.02749 0.69102,18.80353 1.25,21.5 0.3245,1.5653 -0.2458,1.37058 -2.59375,-0.875 -2.32559,-2.22423 -5.91099,-3.90625 -8.21875,-3.90625 -1.10633,0.002 -2.47941,0.70588 -4.75,2.4375 -1.75811,1.34072 -3.3284,2.426 -3.53125,2.4375 -0.56949,0.0276 -0.46959,-1.80738 0.375,-5.84375 0.42448,-2.02865 0.86319,-4.83519 0.96875,-6.1875 0.10546,-1.35243 0.2184,-2.4375 0.25,-2.4375 0.0316,0 0.13432,-0.65739 0.21875,-1.46875 0.0845,-0.81149 0.48466,-3.89972 0.90625,-6.875 0.42162,-2.97526 0.75219,-6.32435 0.71875,-7.40625 -0.0334,-1.08189 0.31238,-5.5996 0.78125,-10.0625 0.73625,-7.00792 0.78853,-9.35232 0.3125,-17.1875 -0.30322,-4.98967 -0.66006,-9.24142 -0.78125,-9.4375 -0.20135,-0.32579 -0.91821,-3.65149 -1.5,-6.9375 -0.17438,-0.98501 0.0174,-1.46611 0.78125,-1.875 0.21192,-0.11355 0.41436,-0.15809 0.625,-0.1875 z m 5.28125,73 c 1.44172,-0.0423 2.93449,0.19716 4.09375,0.75 0.90173,0.42998 2.52532,2.02984 3.59375,3.5 3.14884,4.3331 4.59046,12.68789 2.90625,16.71875 -0.65861,1.57654 -0.65023,1.73023 0.0312,1.46875 1.2301,-0.47212 3.1768,1.11723 3,2.4375 -0.24807,1.85237 -3.07699,4.98503 -5.125,5.65625 -2.27864,0.74704 -3.73055,1.64732 -6.125,3.75 -1.15665,1.01584 -2.37222,1.60558 -3.21875,1.59375 -1.49769,-0.0219 -4.03125,-1.24662 -4.03125,-1.9375 0,-0.24365 -0.40166,-0.5663 -0.875,-0.71875 -0.47331,-0.15302 -1.38148,-1.11018 -2.03125,-2.125 -0.64979,-1.01444 -1.60546,-2.43898 -2.09375,-3.15625 -0.8796,-1.29235 -0.88499,-1.29312 0.3125,-1.59375 0.66474,-0.16692 1.21875,-0.63079 1.21875,-1.03125 0,-0.88546 -0.22265,-0.93454 -1.46875,-0.15625 -0.76114,0.47522 -1.08722,0.47522 -1.5625,0 -0.92079,-0.92073 -2.08444,-5.48766 -2,-7.875 0.10325,-2.92266 2.95187,-10.2635 4.1875,-10.8125 0.20287,-0.0901 0.34375,-0.32116 0.34375,-0.53125 0,-0.65595 3.26081,-3.87722 5,-4.9375 1.01173,-0.61663 2.40201,-0.95755 3.84375,-1 z m 13.65625,14.21875 c 0.2637,-0.0143 0.62912,1.42004 0.90625,4.125 0.18481,1.80401 0.24358,3.28125 0.125,3.28125 -0.90952,0 -1.38718,-1.63881 -1.375,-4.65625 0.008,-1.86101 0.13864,-2.7388 0.34375,-2.75 z m -3.875,9.09375 c -0.0362,-0.0118 -0.0899,0.008 -0.15625,0.0312 -0.17693,0.0614 -0.47882,0.23527 -0.875,0.59375 -1.49818,1.35551 -3.97334,2.125 -6.84375,2.125 -2.64215,0 -3.0798,0.64659 -1,1.40625 1.79174,0.65434 1.98806,0.62804 4.25,0 1.06631,-0.29602 2.55308,-1.18692 3.3125,-2 1.07826,-1.15412 1.56564,-2.07345 1.3125,-2.15625 z" />
  </g>
</svg>
