<?xml version="1.0" encoding="UTF-8" standalone="no"?>
<!-- Created with Inkscape (http://www.inkscape.org/) -->

<svg
   xmlns:dc="http://purl.org/dc/elements/1.1/"
   xmlns:cc="http://creativecommons.org/ns#"
   xmlns:rdf="http://www.w3.org/1999/02/22-rdf-syntax-ns#"
   xmlns:svg="http://www.w3.org/2000/svg"
   xmlns="http://www.w3.org/2000/svg"
   xmlns:sodipodi="http://sodipodi.sourceforge.net/DTD/sodipodi-0.dtd"
   xmlns:inkscape="http://www.inkscape.org/namespaces/inkscape"
   width="800"
   height="700"
   id="svg2"
   version="1.1"
   inkscape:version="0.48.2 r9819"
   sodipodi:docname="l19.svg">
  <defs
     id="defs4" />
  <sodipodi:namedview
     id="base"
     pagecolor="#ffffff"
     bordercolor="#666666"
     borderopacity="1.0"
     inkscape:pageopacity="0.0"
     inkscape:pageshadow="2"
     inkscape:zoom="2.5"
     inkscape:cx="109.16336"
     inkscape:cy="242.27357"
     inkscape:document-units="px"
     inkscape:current-layer="layer1"
     showgrid="false"
     showguides="true"
     inkscape:guide-bbox="true"
     inkscape:window-width="1366"
     inkscape:window-height="746"
     inkscape:window-x="-8"
     inkscape:window-y="-8"
     inkscape:window-maximized="1"
     width="0px"
     height="0px"
     fit-margin-top="0"
     fit-margin-left="0"
     fit-margin-right="0"
     fit-margin-bottom="0">
    <sodipodi:guide
       orientation="1,0"
       position="400.22244,349.31075"
       id="guide3178" />
    <sodipodi:guide
       orientation="0,1"
       position="400.22244,349.31075"
       id="guide3180" />
  </sodipodi:namedview>
  <metadata
     id="metadata7">
    <rdf:RDF>
      <cc:Work
         rdf:about="">
        <dc:format>image/svg+xml</dc:format>
        <dc:type
           rdf:resource="http://purl.org/dc/dcmitype/StillImage" />
        <dc:title></dc:title>
      </cc:Work>
    </rdf:RDF>
  </metadata>
  <g
     inkscape:label="Layer 1"
     inkscape:groupmode="layer"
     id="layer1"
     transform="translate(0,-352.36218)">
    <path
       id="rect3242"
       transform="translate(0,352.36218)"
       style="fill:#ff0000"
       d="m 179.25,412.8125 c -0.83115,-0.008 -1.42972,0.35769 -2.0625,1.03125 -1.16053,1.23532 -1.11293,2.34133 0.40625,7.84375 0.82447,2.98632 0.9542,4.7919 1.0625,12.6875 0.0694,5.06091 -0.02,10.94544 -0.21875,13.0625 -0.19862,2.1171 -0.5899,6.16012 -0.875,9.03125 -0.28506,2.87124 -0.54039,5.51609 -0.53125,5.875 0.0101,0.35884 -0.24099,2.63852 -0.5625,5.03125 -0.32155,2.39262 -0.79196,5.99749 -1.0625,8.03125 -0.44897,3.37538 -2.2235,9.55805 -3.6875,12.8125 -1.14459,2.54312 -1.63199,6.37921 -1.15625,9.15625 0.89682,5.2349 1.0772,5.67898 3.21875,7.3125 0.81533,0.62201 2.10706,2.11572 2.875,3.3125 0.76796,1.19674 2.05151,2.54387 2.8125,3.03125 0.93759,0.60067 2.10358,0.93255 3.65625,0.9375 1.93408,0.006 2.78148,-0.28659 5.4375,-1.875 1.73061,-1.03499 3.94919,-2.25723 4.90625,-2.6875 4.04464,-1.81855 5.57863,-5.06728 5.46875,-11.53125 -0.0409,-2.40938 -0.33444,-4.62296 -0.6875,-5.40625 -0.33071,-0.73398 -0.69281,-2.03757 -0.8125,-2.875 -0.11959,-0.83744 -0.57313,-2.62155 -0.96875,-3.9375 -1.04803,-3.48603 -1.94029,-14.1849 -2.34375,-27.625 -0.47787,-15.91786 -0.93103,-19.5684 -3.375,-27.40625 -0.59685,-1.91415 -1.33155,-4.45993 -1.65625,-5.65625 -1.26333,-4.65421 -3.40207,-7.59694 -6.5,-9.0625 -1.46933,-0.69519 -2.51261,-1.08522 -3.34375,-1.09375 z m 0.59375,1.5 c 0.55897,-0.0781 1.21805,0.18555 2.625,1 2.5034,1.44918 4.17415,3.66933 4.5625,6.0625 0.13947,0.85942 0.52544,2.0775 0.84375,2.6875 0.31837,0.60994 0.56148,1.53975 0.5625,2.0625 8.1e-4,0.52277 0.25924,1.48269 0.53125,2.15625 1.7433,4.31655 2.86167,15.65929 3.40625,34.0625 0.36718,12.40873 0.63052,16.64595 1.125,19.03125 0.28705,1.38467 -0.20425,1.23644 -2.28125,-0.75 -2.05723,-1.96755 -5.23981,-3.46875 -7.28125,-3.46875 -0.97866,0.002 -2.17892,0.62445 -4.1875,2.15625 -1.55522,1.186 -2.9768,2.14608 -3.15625,2.15625 -0.50378,0.0244 -0.40337,-1.61694 0.34375,-5.1875 0.3755,-1.79454 0.78163,-4.24124 0.875,-5.4375 0.0933,-1.19636 0.19078,-2.1875 0.21875,-2.1875 0.0279,0 0.11284,-0.56351 0.1875,-1.28125 0.0748,-0.71784 0.40833,-3.46181 0.78125,-6.09375 0.37298,-2.63191 0.68584,-5.60544 0.65625,-6.5625 -0.0295,-0.95702 0.27272,-4.92711 0.6875,-8.875 0.65127,-6.19921 0.67109,-8.28774 0.25,-15.21875 -0.26823,-4.41387 -0.54905,-8.1703 -0.65625,-8.34375 -0.17811,-0.28818 -0.82911,-3.21819 -1.34375,-6.125 -0.15426,-0.87134 0.043,-1.29455 0.71875,-1.65625 0.18746,-0.10045 0.34492,-0.16147 0.53125,-0.1875 z M 184.5,478.90625 c 1.27535,-0.0375 2.59953,0.1672 3.625,0.65625 0.79767,0.38036 2.24237,1.79325 3.1875,3.09375 2.78547,3.83307 4.05235,11.21555 2.5625,14.78125 -0.5826,1.39461 -0.57162,1.5438 0.0312,1.3125 1.08815,-0.41765 2.81263,0.98833 2.65625,2.15625 -0.21946,1.63859 -2.71957,4.37499 -4.53125,4.96875 -2.0157,0.66083 -3.31935,1.48372 -5.4375,3.34375 -1.02316,0.89862 -2.06365,1.41671 -2.8125,1.40625 -1.32487,-0.0194 -3.59375,-1.1076 -3.59375,-1.71875 0,-0.21553 -0.33128,-0.49015 -0.75,-0.625 -0.41871,-0.13537 -1.2377,-0.97728 -1.8125,-1.875 -0.5748,-0.89736 -1.41181,-2.17801 -1.84375,-2.8125 -0.7781,-1.14322 -0.77804,-1.10906 0.28125,-1.375 0.58804,-0.14766 1.09375,-0.58324 1.09375,-0.9375 0,-0.78327 -0.2102,-0.81348 -1.3125,-0.125 -0.67331,0.42038 -0.98582,0.42038 -1.40625,0 -0.81452,-0.81448 -1.8247,-4.88816 -1.75,-7 0.0913,-2.5854 2.59446,-9.04561 3.6875,-9.53125 0.17947,-0.0797 0.3125,-0.31415 0.3125,-0.5 0,-0.58026 2.899,-3.40584 4.4375,-4.34375 0.89497,-0.54547 2.09964,-0.83745 3.375,-0.875 z m 12.09375,12.5625 c 0.23326,-0.0127 0.56736,1.26344 0.8125,3.65625 0.16349,1.59584 0.19866,2.875 0.0937,2.875 -0.80454,0 -1.22951,-1.42451 -1.21875,-4.09375 0.007,-1.64625 0.13107,-2.42759 0.3125,-2.4375 z m -3.5625,8.0625 c -0.1565,0.0543 -0.43077,0.21415 -0.78125,0.53125 -1.32529,1.19909 -3.52335,1.875 -6.0625,1.875 -2.33725,0 -2.7148,0.57799 -0.875,1.25 1.58496,0.57881 1.78034,0.55555 3.78125,0 0.94326,-0.26187 2.23447,-1.062 2.90625,-1.78125 1.09008,-1.16677 1.50081,-2.03792 1.03125,-1.875 z" />
  </g>
</svg>
