<?xml version="1.0" encoding="UTF-8" standalone="no"?>
<!-- Created with Inkscape (http://www.inkscape.org/) -->

<svg
   xmlns:dc="http://purl.org/dc/elements/1.1/"
   xmlns:cc="http://creativecommons.org/ns#"
   xmlns:rdf="http://www.w3.org/1999/02/22-rdf-syntax-ns#"
   xmlns:svg="http://www.w3.org/2000/svg"
   xmlns="http://www.w3.org/2000/svg"
   xmlns:sodipodi="http://sodipodi.sourceforge.net/DTD/sodipodi-0.dtd"
   xmlns:inkscape="http://www.inkscape.org/namespaces/inkscape"
   width="900"
   height="800"
   id="svg2"
   version="1.1"
   inkscape:version="0.48.2 r9819"
   sodipodi:docname="m20.svg">
  <defs
     id="defs4" />
  <sodipodi:namedview
     id="base"
     pagecolor="#ffffff"
     bordercolor="#666666"
     borderopacity="1.0"
     inkscape:pageopacity="0.0"
     inkscape:pageshadow="2"
     inkscape:zoom="2"
     inkscape:cx="239.0722"
     inkscape:cy="151.62472"
     inkscape:document-units="px"
     inkscape:current-layer="layer1"
     showgrid="false"
     showguides="true"
     inkscape:guide-bbox="true"
     inkscape:window-width="1366"
     inkscape:window-height="746"
     inkscape:window-x="-8"
     inkscape:window-y="-8"
     inkscape:window-maximized="1"
     width="0px"
     height="0px"
     fit-margin-top="0"
     fit-margin-left="0"
     fit-margin-right="0"
     fit-margin-bottom="0">
    <sodipodi:guide
       orientation="1,0"
       position="450,784"
       id="guide3178" />
    <sodipodi:guide
       orientation="0,1"
       position="-61,400"
       id="guide3180" />
  </sodipodi:namedview>
  <metadata
     id="metadata7">
    <rdf:RDF>
      <cc:Work
         rdf:about="">
        <dc:format>image/svg+xml</dc:format>
        <dc:type
           rdf:resource="http://purl.org/dc/dcmitype/StillImage" />
        <dc:title></dc:title>
      </cc:Work>
    </rdf:RDF>
  </metadata>
  <g
     inkscape:label="Layer 1"
     inkscape:groupmode="layer"
     id="layer1"
     transform="translate(0,-252.36218)">
    <path
       id="rect3152"
       transform="translate(0,252.36218)"
       style="fill:#ff0000"
       d="m 208.40625,649.59375 c -1.64029,0 -5.69075,2.24225 -8.59375,4.75 -1.29761,1.12084 -3.57486,2.97684 -5.0625,4.15625 -3.60346,2.85753 -5.70932,6.88398 -5.59375,10.75 0.13781,4.61007 3.51796,16.42822 5.8125,20.34375 1.18185,2.01675 1.25,2.51186 1.25,9.21875 0,3.90002 0.19763,7.86765 0.46875,8.8125 0.27111,0.94507 0.72151,4.83837 1,8.625 0.27848,3.78675 0.82045,10.62051 1.21875,15.21875 0.39828,4.59796 0.75094,11.9086 0.75,16.21875 -9.2e-4,5.7557 0.22303,8.5867 0.8125,10.6875 l 0.78125,2.84375 2.46875,0 c 3.29366,0 5.44179,-1.57555 6.15625,-4.53125 1.48114,-6.1278 3.52206,-23.33283 3.53125,-29.65625 0.0253,-15.14241 3.08801,-38.9419 5.625,-43.75 0.42814,-0.81149 0.7801,-1.88392 0.78125,-2.375 9.2e-4,-0.49121 0.22354,-1.2959 0.5,-1.8125 1.15687,-2.16162 2.9375,-10.5089 2.9375,-13.75 0,-2.99871 -0.20731,-3.7402 -1.6875,-6.25 -1.52962,-2.59379 -3.29573,-4.1714 -7.59375,-6.78125 -0.4454,-0.27053 -1.61897,-1.01639 -2.59375,-1.625 -0.9748,-0.60822 -2.29426,-1.09375 -2.96875,-1.09375 z m -0.375,3.4375 c 2.8365,0 8.47303,2.67406 11.3125,5.375 l 1.9375,1.875 0,3.875 c -0.0205,4.55077 -0.66442,7.49601 -3.09375,14.21875 -0.97729,2.70461 -2.03675,6.21929 -2.34375,7.8125 -0.62785,3.25843 -1.6979,4.4994 -5.15625,6.125 -3.44274,1.61836 -5.87108,1.30616 -10.875,-1.5 -1.53548,-0.86111 -2.8566,-2.04481 -3.34375,-3 -0.44249,-0.86754 -1.1774,-2.25103 -1.65625,-3.0625 -0.98109,-1.66261 -2.80575,-8.09788 -3.34375,-11.8125 -0.44175,-3.05028 -0.25586,-7.039 0.40625,-8.34375 0.61343,-1.20917 3.39163,-4.1875 3.90625,-4.1875 0.20658,0 1.40133,-1.09586 2.65625,-2.4375 2.86578,-3.06328 6.50813,-4.9375 9.59375,-4.9375 z M 198.34375,693.5 c 0.65757,0.0169 1.77229,0.24414 2.84375,0.5625 3.30141,0.9839 6.44056,0.98276 9.75,0 3.53192,-1.04905 3.82566,-0.69324 3.09375,3.84375 -0.76213,4.72437 -1.52724,14.83442 -2.09375,28.5 -0.84285,20.33143 -2.35002,29.51695 -5.375,32.40625 -1.06574,1.0179 -2.5834,1.49605 -3.28125,1.03125 -1.62775,-1.0758 -1.89573,-2.89713 -2.25,-15.34375 -0.33617,-11.80913 -0.79794,-17.95809 -2.5625,-35.65625 -1.43853,-14.42835 -1.42491,-14.94294 -0.625,-15.25 0.10041,-0.0381 0.2808,-0.0995 0.5,-0.0937 z" />
  </g>
</svg>
