<?xml version="1.0" encoding="UTF-8" standalone="no"?>
<!-- Created with Inkscape (http://www.inkscape.org/) -->

<svg
   xmlns:dc="http://purl.org/dc/elements/1.1/"
   xmlns:cc="http://creativecommons.org/ns#"
   xmlns:rdf="http://www.w3.org/1999/02/22-rdf-syntax-ns#"
   xmlns:svg="http://www.w3.org/2000/svg"
   xmlns="http://www.w3.org/2000/svg"
   xmlns:sodipodi="http://sodipodi.sourceforge.net/DTD/sodipodi-0.dtd"
   xmlns:inkscape="http://www.inkscape.org/namespaces/inkscape"
   width="900"
   height="800"
   id="svg2"
   version="1.1"
   inkscape:version="0.48.2 r9819"
   sodipodi:docname="f20.svg">
  <defs
     id="defs4" />
  <sodipodi:namedview
     id="base"
     pagecolor="#ffffff"
     bordercolor="#666666"
     borderopacity="1.0"
     inkscape:pageopacity="0.0"
     inkscape:pageshadow="2"
     inkscape:zoom="2"
     inkscape:cx="239.0722"
     inkscape:cy="174.08636"
     inkscape:document-units="px"
     inkscape:current-layer="layer1"
     showgrid="false"
     showguides="true"
     inkscape:guide-bbox="true"
     inkscape:window-width="1366"
     inkscape:window-height="746"
     inkscape:window-x="-8"
     inkscape:window-y="-8"
     inkscape:window-maximized="1"
     width="0px"
     height="0px"
     fit-margin-top="0"
     fit-margin-left="0"
     fit-margin-right="0"
     fit-margin-bottom="0">
    <sodipodi:guide
       orientation="1,0"
       position="450,784"
       id="guide3178" />
    <sodipodi:guide
       orientation="0,1"
       position="-61,400"
       id="guide3180" />
  </sodipodi:namedview>
  <metadata
     id="metadata7">
    <rdf:RDF>
      <cc:Work
         rdf:about="">
        <dc:format>image/svg+xml</dc:format>
        <dc:type
           rdf:resource="http://purl.org/dc/dcmitype/StillImage" />
        <dc:title></dc:title>
      </cc:Work>
    </rdf:RDF>
  </metadata>
  <g
     inkscape:label="Layer 1"
     inkscape:groupmode="layer"
     id="layer1"
     transform="translate(0,-252.36218)">
    <path
       id="rect3148"
       transform="translate(0,252.36218)"
       style="fill:#ff0000"
       d="m 212.375,599.53125 c -2.09199,-0.005 -4.38684,0.29612 -5,0.78125 -0.328,0.25939 -2.41536,0.57286 -4.65625,0.71875 -2.35577,0.15348 -4.52638,0.57946 -5.15625,1 -3.21511,2.14553 -4.10454,3.43779 -7.25,10.4375 -1.02023,2.27017 -1.09549,2.93681 -0.8125,8.53125 0.29514,5.83485 0.35852,6.16497 2.03125,8.875 2.67211,4.32921 7.60036,8.38873 11.75,9.6875 3.23261,1.01171 6.0303,0.81693 9.34375,-0.625 3.2302,-1.40585 7.88789,-5.47168 9.9375,-8.65625 2.58304,-4.01363 3.18808,-9.85411 1.8125,-18.34375 -0.73021,-4.50643 -5.45323,-10.9435 -8.84375,-12.0625 -0.71354,-0.23523 -1.90105,-0.34021 -3.15625,-0.34375 z M 211.71875,601 c 1.71554,-0.0371 3.39502,0.45254 4.34375,1.34375 0.60919,0.57232 1.30945,1.03125 1.5625,1.03125 0.84853,0.0194 3.25455,3.9514 4,6.53125 0.4059,1.40471 1.0944,4.33609 1.5,6.5 1.25017,6.66955 -0.25185,10.52815 -6.6875,17.0625 l -4.28125,4.34375 -3.46875,0 c -2.9894,0 -3.97732,-0.26924 -6.9375,-1.75 -4.41024,-2.20652 -7.62934,-5.5756 -8.75,-9.15625 -0.45486,-1.45341 -0.95163,-5.04092 -1.09375,-7.96875 l -0.25,-5.34375 L 193.5,610 c 2.70816,-5.33551 3.7113,-6.08432 8.9375,-6.875 2.39453,-0.3621 5.23873,-1.04623 6.3125,-1.5 0.92852,-0.39202 1.93943,-0.60268 2.96875,-0.625 z m -2.6875,4.03125 c -0.34409,-0.006 -0.78276,0.13461 -1.28125,0.5 -0.85134,0.62387 -0.97574,1.28489 -0.9375,5.625 0.0415,4.71965 0.002,4.92412 -1.125,5.4375 -2.03972,0.92935 -3.48904,0.64125 -4.65625,-0.9375 -1.06908,-1.44615 -2.67422,-2.08694 -2.21875,-0.875 0.84104,2.23812 0.78815,2.70797 -0.15625,3.5625 -0.61676,0.55819 -0.96875,1.5069 -0.96875,2.53125 0,2.01043 1.22138,2.28331 2.0625,0.4375 0.31941,-0.70108 1.09629,-1.3509 1.8125,-1.5 0.69747,-0.14543 2.7419,-0.82244 4.5,-1.46875 2.10383,-0.77298 4.58006,-1.24865 7.28125,-1.375 l 4.09375,-0.15625 1.0625,1.625 c 0.58272,0.90006 1.21358,1.625 1.40625,1.625 0.30883,0.005 -0.0134,-6.3801 -0.34375,-6.78125 -0.0712,-0.0864 -0.6776,0.1372 -1.3125,0.46875 -2.51362,1.31302 -2.94258,1.4375 -5.0625,1.4375 -1.20811,0 -2.74028,-0.29023 -3.40625,-0.59375 -2.0167,-0.91899 -2.41016,-4.35827 -0.75,-6.46875 1.24927,-1.58798 1.0323,-3.07297 0,-3.09375 z" />
  </g>
</svg>
