<?xml version="1.0" encoding="UTF-8" standalone="no"?>
<!-- Created with Inkscape (http://www.inkscape.org/) -->

<svg
   xmlns:dc="http://purl.org/dc/elements/1.1/"
   xmlns:cc="http://creativecommons.org/ns#"
   xmlns:rdf="http://www.w3.org/1999/02/22-rdf-syntax-ns#"
   xmlns:svg="http://www.w3.org/2000/svg"
   xmlns="http://www.w3.org/2000/svg"
   xmlns:sodipodi="http://sodipodi.sourceforge.net/DTD/sodipodi-0.dtd"
   xmlns:inkscape="http://www.inkscape.org/namespaces/inkscape"
   width="800"
   height="700"
   id="svg2"
   version="1.1"
   inkscape:version="0.48.2 r9819"
   sodipodi:docname="l1.svg">
  <defs
     id="defs4" />
  <sodipodi:namedview
     id="base"
     pagecolor="#ffffff"
     bordercolor="#666666"
     borderopacity="1.0"
     inkscape:pageopacity="0.0"
     inkscape:pageshadow="2"
     inkscape:zoom="2.8284271"
     inkscape:cx="152.88307"
     inkscape:cy="585.3118"
     inkscape:document-units="px"
     inkscape:current-layer="layer1"
     showgrid="false"
     showguides="true"
     inkscape:guide-bbox="true"
     inkscape:window-width="1366"
     inkscape:window-height="746"
     inkscape:window-x="-8"
     inkscape:window-y="-8"
     inkscape:window-maximized="1"
     width="0px"
     height="0px"
     fit-margin-top="0"
     fit-margin-left="0"
     fit-margin-right="0"
     fit-margin-bottom="0">
    <sodipodi:guide
       orientation="1,0"
       position="400.22244,349.31075"
       id="guide3178" />
    <sodipodi:guide
       orientation="0,1"
       position="400.22244,349.31075"
       id="guide3180" />
  </sodipodi:namedview>
  <metadata
     id="metadata7">
    <rdf:RDF>
      <cc:Work
         rdf:about="">
        <dc:format>image/svg+xml</dc:format>
        <dc:type
           rdf:resource="http://purl.org/dc/dcmitype/StillImage" />
        <dc:title></dc:title>
      </cc:Work>
    </rdf:RDF>
  </metadata>
  <g
     inkscape:label="Layer 1"
     inkscape:groupmode="layer"
     id="layer1"
     transform="translate(0,-352.36218)">
    <path
       id="rect3009"
       transform="translate(0,352.36218)"
       style="fill:#ff0000"
       d="m 85.28125,47.875 c -1.08169,0.0261 -2.30824,0.89783 -3,2.3125 L 81.5,51.875 l 1.34375,4.40625 c 0.74538,2.42669 1.59937,5.34937 1.875,6.5 0.86072,3.5929 -0.10487,9.1361 -1.4375,8.3125 -0.93636,-0.5787 -3.8405,-7.55339 -4.25,-10.1875 -0.70702,-4.54764 -1.65771,-7.12421 -3.09375,-8.5 -1.28029,-1.22661 -1.35829,-1.23209 -2.5,-0.5625 -2.0899,1.22566 -2.86239,3.47359 -3.21875,9.5 -0.17696,2.99266 -0.47714,5.9001 -0.6875,6.46875 l -0.375,1.0625 -0.96875,-1.21875 C 67.33967,66.57843 67.25,65.91459 67.25,61.46875 67.25,55.48798 66.72968,53.12719 65.03125,51.5 L 63.75,50.28125 62.46875,51.5625 c -0.8357,0.84126 -1.70698,2.56456 -2.5,5 -1.12487,3.45465 -1.16182,4.062 -0.875,8.0625 0.39841,5.557 1.45712,12.75295 2.71875,18.25 0.54912,2.39265 1.22523,5.32313 1.5,6.53125 0.35573,1.56394 0.3883,2.54915 0.0625,3.40625 -0.25171,0.66212 -0.75552,2.53405 -1.09375,4.15625 -0.55276,2.65098 -2.95493,7.33937 -4.125,8.0625 -0.69897,0.432 -2.57859,4.76135 -3.28125,7.5625 -0.86083,3.43165 -0.86965,5.13731 -0.03125,9.15625 0.7905,3.78918 1.24626,4.53551 3.15625,5.5625 0.79744,0.42879 1.82966,1.45397 2.28125,2.21875 0.45161,0.76479 1.68622,1.78986 2.71875,2.3125 1.03251,0.52261 2.33619,1.32677 2.9375,1.75 0.60129,0.42322 1.59247,0.82656 2.1875,0.9375 3.21579,0.60054 4.7725,0.10018 7,-2.3125 l 1.59375,-1.75 3.625,1.375 c 4.64523,1.72704 7.03525,1.75779 11.0625,0.125 5.73989,-2.32723 7.42086,-4.44023 7.875,-9.8125 0.25709,-3.04161 0.17288,-3.44917 -1.25,-6.6875 -0.83253,-1.89478 -2.01452,-4.72602 -2.65625,-6.28125 -0.64172,-1.55523 -1.46058,-3.38514 -1.8125,-4.0625 -1.21492,-2.33845 -0.84241,-7.60332 1.125,-15.53125 2.06971,-8.3399 2.63118,-14.81788 1.75,-20.875 -0.51719,-3.55539 -0.72512,-4.09568 -5.28125,-13.6875 -1.08921,-2.29307 -3.9442,-6.32107 -4.875,-6.90625 -0.30912,-0.1944 -0.63943,-0.25865 -1,-0.25 z m -0.40625,2 c 0.80779,-0.30997 4.282,4.2982 5,6.625 0.26425,0.85631 1.23954,3.34661 2.15625,5.5 1.28292,3.01372 1.87536,5.17452 2.46875,9.375 0.72311,5.11922 0.73289,5.68887 0.0625,9.34375 -0.39315,2.14284 -0.87737,4.7983 -1.03125,5.875 -0.15387,1.0767 -0.73822,3.79184 -1.3125,6.03125 -0.57433,2.23942 -1.03125,5.26633 -1.03125,6.78125 0,1.51491 -0.16434,2.84578 -0.34375,2.9375 -0.45385,0.2318 -1.96876,-0.14407 -2.5625,-0.625 -0.27153,-0.21999 -1.82614,-0.51072 -3.46875,-0.65625 -1.64258,-0.14553 -3.52951,-0.55933 -4.1875,-0.9375 -1.09904,-0.6317 -1.30803,-0.62332 -2.46875,0.0625 -1.01957,0.60235 -2.33179,0.75 -6.90625,0.75 -5.87315,0 -7.90625,-0.38534 -7.90625,-1.5 0,-0.35799 0.47549,-1.77364 1.09375,-3.15625 1.28786,-2.87985 1.23384,-5.15301 -0.21875,-9.375 -1.84905,-5.37437 -3.9375,-18.5331 -3.9375,-24.71875 0,-3.83487 0.83423,-7.02628 2.21875,-8.5 0.77653,-0.82659 1.09051,-0.91765 1.59375,-0.5 1.17798,0.97765 1.55701,2.72187 1.84375,8.59375 l 0.28125,5.875 3.125,6 c 1.71607,3.29844 3.125,6.26936 3.125,6.625 0,0.35566 0.56708,1.86885 1.25,3.375 0.97632,2.15322 1.53677,2.92429 2.75,3.5 2.47285,1.17347 4.65459,0.78644 6.40625,-1.09375 1.23451,-1.32508 1.73473,-3.24428 2.21875,-8.40625 0.22439,-2.39266 0.68307,-5.72276 1.03125,-7.375 C 86.83208,66.9259 86.42339,61.30474 85.21875,58.0625 83.59159,53.68323 83.46069,50.41775 84.875,49.875 z m -10.5,3.4375 c 0.20968,-0.0167 0.42506,0.04708 0.6875,0.1875 1.03759,0.55532 1.52954,2.17003 2.65625,8.6875 0.72993,4.22246 1.11936,5.46557 2.625,8 3.01468,5.07443 3.96505,11.12712 2.15625,14.09375 -0.77206,1.26621 -1.07755,1.40625 -2.875,1.40625 -1.6826,0 -2.22724,-0.18418 -3.28125,-1.3125 C 75.65105,83.63346 74.71088,81.77338 74.25,80.28125 73.78997,78.7918 72.71276,76.26307 71.84375,74.625 70.93886,72.91927 70.34462,71.36356 70.5,70.96875 c 0.14925,-0.3792 0.47456,-3.26456 0.6875,-6.375 0.5521,-8.0642 0.76686,-9.10942 1.96875,-10.40625 0.54337,-0.58638 0.86925,-0.8473 1.21875,-0.875 z m 5.03125,48.4375 c 1.8309,-0.008 3.15977,0.15677 5.25,0.40625 3.29065,0.39277 5.46478,1.19013 6.5,2.4375 1.21746,1.46693 3.19686,6.31863 4.15625,10.15625 0.95246,3.80989 0.98983,4.27456 0.46875,8.28125 -0.30356,2.33427 -0.78831,4.67518 -1.0625,5.1875 -0.69359,1.29603 -4.82451,3.22833 -7.09375,3.3125 -2.33427,0.0867 -7.07995,-2.1112 -9.21875,-4.25 -1.76308,-1.76302 -2.09356,-3.458 -1.65625,-8.375 0.26979,-3.03339 0.45646,-3.67325 1.375,-4.4375 l 1.09375,-0.90625 -1.09375,0 c -0.59816,-0.005 -1.8117,0.13133 -2.71875,0.28125 -1.64474,0.27182 -1.6355,0.26878 -0.75,1.09375 0.81217,0.75664 0.875,1.33492 0.875,6.90625 0,6.90634 -0.60702,8.86406 -3.1875,10.4375 -1.86193,1.13526 -3.65125,1.03928 -5.5,-0.28125 -0.83742,-0.59787 -2.16594,-1.39302 -2.90625,-1.75 -0.74029,-0.357 -1.98365,-1.49801 -2.78125,-2.5625 -0.7976,-1.06451 -1.84259,-2.07952 -2.28125,-2.21875 -3.09513,-0.98238 -3.02825,-10.65986 0.09375,-17.34375 0.67055,-1.43558 1.31869,-3.13778 1.46875,-3.78125 0.3231,-1.38535 0.654,-1.43523 10.75,-2.125 4.0721,-0.27816 6.38786,-0.46022 8.21875,-0.46875 z" />
  </g>
</svg>
