<?xml version="1.0" encoding="UTF-8" standalone="no"?>
<!-- Created with Inkscape (http://www.inkscape.org/) -->

<svg
   xmlns:dc="http://purl.org/dc/elements/1.1/"
   xmlns:cc="http://creativecommons.org/ns#"
   xmlns:rdf="http://www.w3.org/1999/02/22-rdf-syntax-ns#"
   xmlns:svg="http://www.w3.org/2000/svg"
   xmlns="http://www.w3.org/2000/svg"
   xmlns:sodipodi="http://sodipodi.sourceforge.net/DTD/sodipodi-0.dtd"
   xmlns:inkscape="http://www.inkscape.org/namespaces/inkscape"
   width="900"
   height="800"
   id="svg2"
   version="1.1"
   inkscape:version="0.48+devel r11738"
   sodipodi:docname="f2.svg">
  <defs
     id="defs4" />
  <sodipodi:namedview
     id="base"
     pagecolor="#ffffff"
     bordercolor="#666666"
     borderopacity="1.0"
     inkscape:pageopacity="0.0"
     inkscape:pageshadow="2"
     inkscape:zoom="2"
     inkscape:cx="218.06383"
     inkscape:cy="657.3086"
     inkscape:document-units="px"
     inkscape:current-layer="layer1"
     showgrid="false"
     showguides="true"
     inkscape:guide-bbox="true"
     inkscape:window-width="1366"
     inkscape:window-height="705"
     inkscape:window-x="-4"
     inkscape:window-y="-4"
     inkscape:window-maximized="1"
     width="0px"
     height="0px"
     fit-margin-top="0"
     fit-margin-left="0"
     fit-margin-right="0"
     fit-margin-bottom="0">
    <sodipodi:guide
       orientation="1,0"
       position="450,784"
       id="guide3178" />
    <sodipodi:guide
       orientation="0,1"
       position="-61,400"
       id="guide3180" />
  </sodipodi:namedview>
  <metadata
     id="metadata7">
    <rdf:RDF>
      <cc:Work
         rdf:about="">
        <dc:format>image/svg+xml</dc:format>
        <dc:type
           rdf:resource="http://purl.org/dc/dcmitype/StillImage" />
        <dc:title />
      </cc:Work>
    </rdf:RDF>
  </metadata>
  <g
     inkscape:label="Layer 1"
     inkscape:groupmode="layer"
     id="layer1"
     transform="translate(0,-252.36218)">
    <path
       id="rect64"
       transform="translate(0,252.36218)"
       style="fill:#ff0000;fill-opacity:1;stroke:none"
       d="m 95.3125,54.15625 c -1.222797,0.0294 -2.593016,1.02578 -3.375,2.625 l -0.875,1.90625 1.5,4.96875 c 0.842613,2.74327 1.813404,6.04304 2.125,7.34375 0.973005,4.06161 -0.118576,10.33728 -1.625,9.40625 C 92.003966,79.75204 88.712919,71.85274 88.25,68.875 87.45076,63.73411 86.404618,60.83652 84.78125,59.28125 83.333942,57.89463 83.228143,57.89932 81.9375,58.65625 79.574957,60.04181 78.715353,62.56243 78.3125,69.375 78.112461,72.75807 77.737791,76.04467 77.5,76.6875 L 77.09375,77.875 76,76.53125 c -0.958438,-1.21843 -1.0625,-1.97418 -1.0625,-7 0,-6.76098 -0.611258,-9.44178 -2.53125,-11.28125 l -1.4375,-1.375 -1.4375,1.4375 c -0.944742,0.95102 -1.916037,2.93433 -2.8125,5.6875 -1.271613,3.90529 -1.32423,4.60263 -1,9.125 0.450388,6.28193 1.636289,14.37958 3.0625,20.59375 0.620774,2.70478 1.376878,6.04054 1.6875,7.40625 0.40214,1.76799 0.462137,2.87484 0.09375,3.84375 -0.284561,0.7485 -0.836391,2.85367 -1.21875,4.6875 -0.624857,2.9968 -3.364791,8.30753 -4.6875,9.125 -0.790159,0.48836 -2.893158,5.36468 -3.6875,8.53125 -0.973111,3.87932 -0.979075,5.80053 -0.03125,10.34375 0.893631,4.28349 1.37207,5.15153 3.53125,6.3125 0.901468,0.48472 2.08325,1.63546 2.59375,2.5 0.510517,0.86454 1.895277,2.00293 3.0625,2.59375 1.167223,0.5908 2.664011,1.52156 3.34375,2 0.679737,0.47843 1.796093,0.93708 2.46875,1.0625 3.635319,0.67888 5.388157,0.10253 7.90625,-2.625 l 1.78125,-1.96875 4.125,1.53125 c 5.251209,1.95234 7.947392,2.00205 12.5,0.15625 6.48868,-2.63083 8.39288,-5.02067 8.90625,-11.09375 0.29063,-3.43841 0.20225,-3.87046 -1.40625,-7.53125 -0.94113,-2.14195 -2.27455,-5.36688 -3,-7.125 -0.72543,-1.7581 -1.66466,-3.82802 -2.0625,-4.59375 -1.37341,-2.64351 -0.97408,-8.56911 1.25,-17.53125 2.33969,-9.42787 2.96488,-16.7777 1.96875,-23.625 -0.58467,-4.01918 -0.78701,-4.62566 -5.9375,-15.46875 -1.23131,-2.5922 -4.447758,-7.15098 -5.5,-7.8125 C 96.119307,54.21776 95.720109,54.14646 95.3125,54.15625 z m -0.46875,2.25 c 0.913169,-0.3504 4.875824,4.90091 5.6875,7.53125 0.29871,0.96801 1.40121,3.75319 2.4375,6.1875 1.45027,3.40687 2.07922,5.8453 2.75,10.59375 0.81744,5.78704 0.8517,6.43082 0.0937,10.5625 -0.44444,2.42236 -0.9823,5.40783 -1.15625,6.625 -0.17394,1.21714 -0.81954,4.31222 -1.46875,6.84375 -0.64925,2.53156 -1.1875,5.94369 -1.1875,7.65625 0,1.71254 -0.20342,3.20883 -0.40625,3.3125 -0.51305,0.26205 -2.203811,-0.14382 -2.875,-0.6875 -0.306954,-0.24866 -2.080618,-0.58547 -3.9375,-0.75 -1.856871,-0.1645 -4.006176,-0.63499 -4.75,-1.0625 -1.242425,-0.71411 -1.437872,-0.71268 -2.75,0.0625 -1.152584,0.68092 -2.672521,0.875 -7.84375,0.875 -6.63931,0 -8.9375,-0.42742 -8.9375,-1.6875 0,-0.40468 0.582317,-2.03077 1.28125,-3.59375 1.455831,-3.25553 1.392072,-5.821 -0.25,-10.59375 -2.090277,-6.07549 -4.46875,-20.94492 -4.46875,-27.9375 0,-4.33515 0.966111,-7.95903 2.53125,-9.625 0.877826,-0.93443 1.212359,-1.03463 1.78125,-0.5625 1.331673,1.10519 1.769601,3.08087 2.09375,9.71875 l 0.3125,6.65625 3.53125,6.78125 c 1.939939,3.72874 3.53125,7.09797 3.53125,7.5 0,0.40206 0.63424,2.10984 1.40625,3.8125 1.103687,2.43412 1.753512,3.28667 3.125,3.9375 2.795439,1.32655 5.238572,0.90674 7.21875,-1.21875 1.395543,-1.49791 1.952823,-3.66465 2.5,-9.5 C 95.347398,85.13896 95.887641,81.36776 96.28125,79.5 97.080581,75.70694 96.611789,69.35271 95.25,65.6875 93.41057,60.73695 93.244927,57.01979 94.84375,56.40625 Z M 83,60.28125 c 0.237053,-0.0189 0.453336,0.05996 0.75,0.21875 1.172943,0.62776 1.757561,2.47606 3.03125,9.84375 0.825166,4.77329 1.266676,6.19745 2.96875,9.0625 3.407954,5.73643 4.451013,12.58387 2.40625,15.9375 -0.872764,1.43141 -1.186804,1.5625 -3.21875,1.5625 -1.902086,0 -2.527249,-0.22449 -3.71875,-1.5 -0.783081,-0.83829 -1.822756,-2.90697 -2.34375,-4.59375 -0.520056,-1.68376 -1.767602,-4.58572 -2.75,-6.4375 -1.022932,-1.92824 -1.675663,-3.67867 -1.5,-4.125 0.168699,-0.42865 0.509273,-3.6713 0.75,-7.1875 0.624104,-9.11619 0.860093,-10.284 2.21875,-11.75 C 82.208013,60.64962 82.604915,60.31258 83,60.28125 z m 5.6875,54.78125 c 2.069732,-0.009 3.543335,0.15548 5.90625,0.4375 3.71993,0.444 6.20472,1.37116 7.375,2.78125 1.37627,1.65829 3.60296,7.1305 4.6875,11.46875 1.07671,4.30689 1.1203,4.84563 0.53125,9.375 -0.34315,2.63878 -0.90879,5.2646 -1.21875,5.84375 -0.78407,1.46509 -5.43474,3.65487 -8,3.75 -2.63879,0.0979 -7.988429,-2.36343 -10.40625,-4.78125 -1.993076,-1.99302 -2.400625,-3.91031 -1.90625,-9.46875 0.304974,-3.42911 0.555388,-4.16729 1.59375,-5.03125 l 1.21875,-1 -1.21875,0 c -0.676188,-0.005 -2.068375,0.11179 -3.09375,0.28125 -1.859291,0.30728 -1.876001,0.31741 -0.875,1.25 0.918134,0.85535 1.03125,1.51437 1.03125,7.8125 0,7.80729 -0.676625,10.00255 -3.59375,11.78125 -2.104817,1.28336 -4.160099,1.1803 -6.25,-0.3125 -0.946678,-0.67587 -2.444376,-1.5652 -3.28125,-1.96875 -0.836879,-0.40357 -2.254602,-1.70289 -3.15625,-2.90625 -0.901646,-1.20337 -2.035371,-2.31135 -2.53125,-2.46875 -3.498914,-1.11052 -3.466664,-12.10044 0.0625,-19.65625 0.758013,-1.62287 1.517851,-3.52259 1.6875,-4.25 0.365245,-1.56607 0.711955,-1.62651 12.125,-2.40625 C 83.978328,115.2793 86.617759,115.07214 88.6875,115.0625 Z" />
  </g>
</svg>
