<?xml version="1.0" encoding="UTF-8" standalone="no"?>
<!-- Created with Inkscape (http://www.inkscape.org/) -->

<svg
   xmlns:dc="http://purl.org/dc/elements/1.1/"
   xmlns:cc="http://creativecommons.org/ns#"
   xmlns:rdf="http://www.w3.org/1999/02/22-rdf-syntax-ns#"
   xmlns:svg="http://www.w3.org/2000/svg"
   xmlns="http://www.w3.org/2000/svg"
   xmlns:sodipodi="http://sodipodi.sourceforge.net/DTD/sodipodi-0.dtd"
   xmlns:inkscape="http://www.inkscape.org/namespaces/inkscape"
   width="800"
   height="400"
   id="svg2"
   version="1.1"
   inkscape:version="0.48.2 r9819"
   sodipodi:docname="f2.svg">
  <defs
     id="defs4" />
  <sodipodi:namedview
     id="base"
     pagecolor="#ffffff"
     bordercolor="#666666"
     borderopacity="1.0"
     inkscape:pageopacity="0.0"
     inkscape:pageshadow="2"
     inkscape:zoom="4"
     inkscape:cx="87.90643"
     inkscape:cy="313.79762"
     inkscape:document-units="px"
     inkscape:current-layer="layer1"
     showgrid="false"
     showguides="true"
     inkscape:guide-bbox="true"
     inkscape:window-width="1366"
     inkscape:window-height="746"
     inkscape:window-x="-8"
     inkscape:window-y="-8"
     inkscape:window-maximized="1"
     width="0px"
     height="0px"
     fit-margin-top="0"
     fit-margin-left="0"
     fit-margin-right="0"
     fit-margin-bottom="0">
    <sodipodi:guide
       orientation="1,0"
       position="400.22244,349.31075"
       id="guide3178" />
    <sodipodi:guide
       orientation="0,1"
       position="-117.37973,199.40411"
       id="guide3180" />
  </sodipodi:namedview>
  <metadata
     id="metadata7">
    <rdf:RDF>
      <cc:Work
         rdf:about="">
        <dc:format>image/svg+xml</dc:format>
        <dc:type
           rdf:resource="http://purl.org/dc/dcmitype/StillImage" />
        <dc:title></dc:title>
      </cc:Work>
    </rdf:RDF>
  </metadata>
  <g
     inkscape:label="Layer 1"
     inkscape:groupmode="layer"
     id="layer1"
     transform="translate(0,-652.36218)">
    <path
       id="rect3245"
       transform="translate(0,652.36218)"
       style="fill:#ff0000"
       d="m 86.84375,39.59375 c -1.08169,0.0261 -2.30824,0.89783 -3,2.3125 L 83.0625,43.59375 84.375,48 c 0.74538,2.42669 1.59937,5.34937 1.875,6.5 0.86072,3.5929 -0.07362,9.1361 -1.40625,8.3125 C 83.90739,62.2338 80.972,55.25911 80.5625,52.625 79.85548,48.07736 78.93604,45.53204 77.5,44.15625 76.21971,42.92964 76.14171,42.89291 75,43.5625 c -2.0899,1.22566 -2.86239,3.47359 -3.21875,9.5 -0.17696,2.99266 -0.47714,5.9001 -0.6875,6.46875 L 70.6875,60.59375 69.75,59.375 c -0.84783,-1.07782 -0.96875,-1.74166 -0.96875,-6.1875 0,-5.98077 -0.52032,-8.34156 -2.21875,-9.96875 L 65.3125,42 64.03125,43.28125 c -0.8357,0.84126 -1.70698,2.59581 -2.5,5.03125 -1.12487,3.45465 -1.19307,4.062 -0.90625,8.0625 0.39841,5.557 1.48837,12.7217 2.75,18.21875 0.54912,2.39265 1.19398,5.32313 1.46875,6.53125 0.35573,1.56394 0.3883,2.54915 0.0625,3.40625 -0.25171,0.66212 -0.72427,2.53405 -1.0625,4.15625 -0.55276,2.65098 -2.95493,7.33937 -4.125,8.0625 -0.69897,0.432 -2.57859,4.76135 -3.28125,7.5625 -0.86083,3.43165 -0.86965,5.13731 -0.03125,9.15625 0.7905,3.78918 1.24626,4.56676 3.15625,5.59375 0.79744,0.42879 1.82966,1.42272 2.28125,2.1875 0.45161,0.76479 1.65497,1.78986 2.6875,2.3125 1.03251,0.52261 2.36744,1.32677 2.96875,1.75 0.60129,0.42322 1.59247,0.82656 2.1875,0.9375 3.21579,0.60054 4.74125,0.10018 6.96875,-2.3125 l 1.59375,-1.75 3.65625,1.375 c 4.64523,1.72704 7.03525,1.75779 11.0625,0.125 5.739889,-2.32723 7.42086,-4.44023 7.875,-9.8125 0.25709,-3.04161 0.17288,-3.41792 -1.25,-6.65625 -0.83253,-1.89478 -2.01452,-4.75727 -2.65625,-6.3125 -0.64172,-1.55523 -1.46058,-3.38514 -1.8125,-4.0625 -1.21492,-2.33845 -0.87366,-7.60332 1.09375,-15.53125 2.069709,-8.3399 2.631179,-14.81788 1.75,-20.875 -0.51719,-3.55539 -0.69387,-4.09568 -5.25,-13.6875 -1.08921,-2.29307 -3.9442,-6.32107 -4.875,-6.90625 -0.30932,-0.1944 -0.63943,-0.25865 -1,-0.25 z m -0.4375,2 c 0.80779,-0.30997 4.31325,4.32945 5.03125,6.65625 0.26425,0.85631 1.23954,3.31536 2.15625,5.46875 1.28292,3.01372 1.84411,5.17452 2.4375,9.375 0.72311,5.11922 0.73289,5.68887 0.0625,9.34375 -0.39315,2.14284 -0.84612,4.7983 -1,5.875 -0.15387,1.0767 -0.73822,3.79184 -1.3125,6.03125 C 93.20692,86.58317 92.75,89.61008 92.75,91.125 c 0,1.51491 -0.19559,2.84578 -0.375,2.9375 -0.45385,0.2318 -1.93751,-0.11282 -2.53125,-0.59375 -0.27153,-0.21999 -1.85739,-0.54197 -3.5,-0.6875 -1.64258,-0.14553 -3.52951,-0.55933 -4.1875,-0.9375 -1.09904,-0.6317 -1.27678,-0.62332 -2.4375,0.0625 -1.01957,0.60235 -2.36304,0.75 -6.9375,0.75 -5.87315,0 -7.90625,-0.38534 -7.90625,-1.5 0,-0.35799 0.50674,-1.77364 1.125,-3.15625 1.28786,-2.87985 1.23384,-5.15301 -0.21875,-9.375 -1.84905,-5.37437 -3.9375,-18.50185 -3.9375,-24.6875 0,-3.83487 0.83423,-7.05753 2.21875,-8.53125 0.77653,-0.82659 1.09051,-0.91765 1.59375,-0.5 C 66.83423,45.8839 67.21326,47.62812 67.5,53.5 l 0.28125,5.875 3.09375,6 c 1.71607,3.29844 3.15625,6.30061 3.15625,6.65625 0,0.35566 0.56708,1.8376 1.25,3.34375 0.97632,2.15322 1.53677,2.92429 2.75,3.5 2.47285,1.17347 4.62334,0.81769 6.375,-1.0625 1.23451,-1.32508 1.76598,-3.27553 2.25,-8.4375 0.22439,-2.39266 0.68307,-5.69151 1.03125,-7.34375 0.70708,-3.35535 0.29839,-9.00776 -0.90625,-12.25 -1.62736,-4.37927 -1.78931,-7.64475 -0.375,-8.1875 z m -10.46875,3.4375 c 0.20968,-0.0167 0.39381,0.04708 0.65625,0.1875 1.03759,0.55532 1.56079,2.17003 2.6875,8.6875 0.72993,4.22246 1.11936,5.49682 2.625,8.03125 3.01468,5.07443 3.9338,11.12712 2.125,14.09375 -0.77206,1.26621 -1.0463,1.375 -2.84375,1.375 -1.6826,0 -2.22724,-0.18418 -3.28125,-1.3125 -0.6927,-0.74154 -1.63287,-2.57037 -2.09375,-4.0625 -0.46003,-1.48945 -1.53724,-4.04943 -2.40625,-5.6875 -0.90489,-1.70573 -1.49913,-3.26144 -1.34375,-3.65625 0.14925,-0.3792 0.44331,-3.23331 0.65625,-6.34375 0.5521,-8.0642 0.76686,-9.14067 1.96875,-10.4375 0.54317,-0.58638 0.9005,-0.8473 1.25,-0.875 z M 80.96875,93.5 c 1.8309,-0.008 3.12852,0.12552 5.21875,0.375 3.29065,0.39277 5.49603,1.19013 6.53125,2.4375 1.21746,1.46693 3.19686,6.31863 4.15625,10.15625 0.95246,3.80989 0.98983,4.30581 0.46875,8.3125 -0.30356,2.33427 -0.81956,4.64393 -1.09375,5.15625 -0.69359,1.29603 -4.79326,3.22833 -7.0625,3.3125 -2.33427,0.0867 -7.07995,-2.07995 -9.21875,-4.21875 -1.76308,-1.76302 -2.12481,-3.48925 -1.6875,-8.40625 0.26979,-3.03339 0.48771,-3.67325 1.40625,-4.4375 l 1.09375,-0.875 -1.09375,0 c -0.59816,-0.005 -1.8117,0.10008 -2.71875,0.25 -1.64474,0.27182 -1.66675,0.26878 -0.78125,1.09375 0.81217,0.75664 0.90625,1.33492 0.90625,6.90625 0,6.90634 -0.60702,8.86406 -3.1875,10.4375 -1.86193,1.13526 -3.6825,1.03928 -5.53125,-0.28125 -0.83742,-0.59787 -2.13469,-1.39302 -2.875,-1.75 -0.74029,-0.357 -2.0149,-1.49801 -2.8125,-2.5625 -0.7976,-1.06451 -1.81134,-2.04827 -2.25,-2.1875 -3.09513,-0.98238 -3.0595,-10.69111 0.0625,-17.375 0.67055,-1.43558 1.34994,-3.13778 1.5,-3.78125 0.3231,-1.38535 0.62275,-1.43523 10.71875,-2.125 4.0719,-0.27816 6.41911,-0.42897 8.25,-0.4375 z" />
  </g>
</svg>
