<?xml version="1.0" encoding="UTF-8" standalone="no"?>
<!-- Created with Inkscape (http://www.inkscape.org/) -->

<svg
   xmlns:dc="http://purl.org/dc/elements/1.1/"
   xmlns:cc="http://creativecommons.org/ns#"
   xmlns:rdf="http://www.w3.org/1999/02/22-rdf-syntax-ns#"
   xmlns:svg="http://www.w3.org/2000/svg"
   xmlns="http://www.w3.org/2000/svg"
   xmlns:sodipodi="http://sodipodi.sourceforge.net/DTD/sodipodi-0.dtd"
   xmlns:inkscape="http://www.inkscape.org/namespaces/inkscape"
   width="900"
   height="800"
   id="svg2"
   version="1.1"
   inkscape:version="0.48+devel r11738"
   sodipodi:docname="l2.svg">
  <defs
     id="defs4" />
  <sodipodi:namedview
     id="base"
     pagecolor="#ffffff"
     bordercolor="#666666"
     borderopacity="1.0"
     inkscape:pageopacity="0.0"
     inkscape:pageshadow="2"
     inkscape:zoom="2"
     inkscape:cx="218.06383"
     inkscape:cy="537.3086"
     inkscape:document-units="px"
     inkscape:current-layer="layer1"
     showgrid="false"
     showguides="true"
     inkscape:guide-bbox="true"
     inkscape:window-width="1366"
     inkscape:window-height="705"
     inkscape:window-x="-4"
     inkscape:window-y="-4"
     inkscape:window-maximized="1"
     width="0px"
     height="0px"
     fit-margin-top="0"
     fit-margin-left="0"
     fit-margin-right="0"
     fit-margin-bottom="0">
    <sodipodi:guide
       orientation="1,0"
       position="450,784"
       id="guide3178" />
    <sodipodi:guide
       orientation="0,1"
       position="-61,400"
       id="guide3180" />
  </sodipodi:namedview>
  <metadata
     id="metadata7">
    <rdf:RDF>
      <cc:Work
         rdf:about="">
        <dc:format>image/svg+xml</dc:format>
        <dc:type
           rdf:resource="http://purl.org/dc/dcmitype/StillImage" />
        <dc:title />
      </cc:Work>
    </rdf:RDF>
  </metadata>
  <g
     inkscape:label="Layer 1"
     inkscape:groupmode="layer"
     id="layer1"
     transform="translate(0,-252.36218)">
    <path
       id="rect76"
       transform="translate(0,252.36218)"
       style="fill:#ff0000;fill-opacity:1;stroke:none"
       d="m 76.65625,232.65625 c -4.567094,0 -4.81494,0.0665 -8.28125,1.96875 -1.96594,1.07897 -4.069274,2.41972 -4.625,3.03125 -2.391215,2.63135 -1.511032,9.98629 2,17.125 1.130748,2.29909 2.143232,4.30223 2.28125,4.4375 0.353886,0.34672 1.054966,1.44861 4.5,7.59375 l 3,5.4375 -0.0625,4.3125 c -0.06346,4.70937 -1.968191,14.49134 -4.4375,22.5 -2.741967,8.89301 -3,9.9276 -3,14.8125 0,4.57588 0.0913,4.89017 1.375,6.28125 2.03702,2.20747 3.686863,2.4069 5.4375,0.65625 1.460929,-1.46092 2.484628,-4.2507 3.53125,-9.71875 0.310623,-1.62287 0.664542,-3.45393 0.78125,-4.0625 0.371211,-1.93474 1.287201,-1.24683 1,0.75 -1.068245,7.42703 -0.460852,15.32197 1.25,16.40625 2.680265,1.69869 7.00934,-2.46115 10.8125,-10.3125 l 2.34375,-4.75 0.03125,5.40625 c 0.03785,5.46898 0.630818,9.27724 1.59375,10.4375 0.76699,0.92415 3.55815,0.75806 4.4375,-0.25 0.4129,-0.47332 1.13733,-2.07487 1.625,-3.5625 0.78418,-2.39213 0.90313,-4.9127 1,-21.875 0.11236,-19.65649 0.3716,-22.73656 2.375,-29.875 0.44017,-1.56845 0.78125,-3.50256 0.78125,-4.25 0,-0.74742 0.42779,-2.25533 0.96875,-3.375 0.54096,-1.11961 1,-2.66712 1,-3.4375 0,-0.77044 0.22443,-1.63071 0.5,-1.90625 0.93551,-0.93554 2.47678,-7.28458 2.46875,-10.25 -0.0189,-7.22936 -2.28652,-11.52403 -6.71875,-12.8125 -3.63207,-1.05588 -6.388221,-0.4129 -11.4375,2.71875 -4.406367,2.73292 -5.107337,2.89498 -6.0625,1.53125 -0.356744,-0.50929 -1.809995,-1.82392 -3.21875,-2.9375 L 81.34375,232.65625 76.65625,232.65625 z m 1.5,1.46875 c 2.09154,0 3.65625,0.75541 3.65625,1.75 0,0.82684 0.04277,0.81521 -3.0625,-0.1875 C 75.979083,234.79264 75.718415,234.125 78.15625,234.125 z m 22.40625,0.8125 c 1.37103,-0.0332 2.47744,0.61365 4.1875,1.875 2.72595,2.01068 4.59375,5.6156 4.59375,8.9375 0,2.79017 -1.87135,9.93723 -3.46875,13.125 -1.36091,2.71583 -3.23124,4.65975 -4.8125,5 -0.70581,0.15188 -2.857507,-0.1743 -4.75,-0.71875 -4.623552,-1.33017 -6.200578,-1.26002 -11.34375,0.53125 -2.409967,0.83933 -5.606117,1.64558 -7.09375,1.78125 -3.288005,0.29985 -3.483667,0.0876 -7.6875,-7 -3.301549,-5.56638 -5.194922,-9.6421 -6.09375,-13.28125 -1.796943,-7.27543 4.531039,-11.05765 13.34375,-7.96875 4.117494,1.44324 6.591205,3.37768 8.40625,6.59375 0.971443,1.72133 1.788041,2.625 2.40625,2.625 1.113217,0 1.192508,-0.40006 0.21875,-1.6875 -1.769856,-2.33993 -0.162345,-4.26486 6.5,-7.71875 C 97.604815,235.66462 99.191498,234.9707 100.5625,234.9375 z m -9.46875,29.34375 c 1.418312,0.0179 2.915643,0.18956 4.4375,0.5625 1.897873,0.46511 3.812937,1.12632 4.28125,1.46875 0.80102,0.58573 0.80404,0.72484 0.03125,2.65625 -1.352331,3.37983 -2.658088,10.231 -3.28125,17.28125 -0.563943,6.38035 -1.361098,11.18307 -3.40625,20.15625 -1.135968,4.98398 -4.813974,12.62645 -7.21875,15.03125 -1.906357,1.90634 -2.692222,2.08361 -3.6875,0.875 -0.861579,-1.04619 -0.826804,-10.48868 0.0625,-15.6875 1.043573,-6.10078 0.416281,-16.45441 -1.4375,-23.5625 -0.846486,-3.24574 -1.852818,-6.56357 -2.21875,-7.375 -0.365918,-0.81144 -1.03112,-2.64654 -1.5,-4.09375 -1.038263,-3.20446 -0.687606,-3.79817 2.9375,-4.5 1.347657,-0.26091 3.405435,-0.91846 4.53125,-1.46875 C 86.559965,264.67908 88.729894,264.25129 91.09375,264.28125 z m 12.375,2.8125 c 0.098,-0.0241 0.1819,0.0258 0.25,0.0937 0.17396,0.17395 -0.29631,3.23506 -1.03125,6.84375 -1.50793,7.40412 -1.71834,13.06002 -1.0625,31.15625 0.47113,12.99924 0.2413,15.5176 -1.71875,17.75 -1.742771,1.9849 -2.103929,2.0419 -3.09375,0.53125 -0.656129,-1.00139 -0.665411,-3.01505 -0.25,-16.125 0.646894,-20.41583 1.562358,-28.87098 3.71875,-34.65625 C 101.42829,269.60993 102.78275,267.26213 103.46875,267.09375 Z M 77.1875,278.4375 c 0.160837,-0.0823 0.295028,0.0905 0.4375,0.46875 1.45126,3.85304 2.625162,9.54498 3.0625,15.09375 0.311723,3.95485 0.253748,4.19872 -1.4375,7.65625 -1.822668,3.72619 -2.84375,7.50242 -2.84375,10.625 0,2.71221 -1.3558,6.82736 -2.4375,7.40625 -1.408541,0.75381 -1.770349,0.64708 -3.15625,-1 -1.142943,-1.35824 -1.282744,-1.9543 -1.28125,-5.5625 0.0016,-3.26782 0.418196,-5.47792 2.21875,-11.875 1.218089,-4.32766 2.786736,-11.05254 3.46875,-14.96875 C 76.114122,281.1399 76.704988,278.68427 77.1875,278.4375 Z" />
  </g>
</svg>
