<?xml version="1.0" encoding="UTF-8" standalone="no"?>
<!-- Created with Inkscape (http://www.inkscape.org/) -->

<svg
   xmlns:dc="http://purl.org/dc/elements/1.1/"
   xmlns:cc="http://creativecommons.org/ns#"
   xmlns:rdf="http://www.w3.org/1999/02/22-rdf-syntax-ns#"
   xmlns:svg="http://www.w3.org/2000/svg"
   xmlns="http://www.w3.org/2000/svg"
   xmlns:sodipodi="http://sodipodi.sourceforge.net/DTD/sodipodi-0.dtd"
   xmlns:inkscape="http://www.inkscape.org/namespaces/inkscape"
   width="800"
   height="700"
   id="svg2"
   version="1.1"
   inkscape:version="0.48.2 r9819"
   sodipodi:docname="m2.svg">
  <defs
     id="defs4" />
  <sodipodi:namedview
     id="base"
     pagecolor="#ffffff"
     bordercolor="#666666"
     borderopacity="1.0"
     inkscape:pageopacity="0.0"
     inkscape:pageshadow="2"
     inkscape:zoom="1.4142136"
     inkscape:cx="152.30002"
     inkscape:cy="474.15607"
     inkscape:document-units="px"
     inkscape:current-layer="layer1"
     showgrid="false"
     showguides="true"
     inkscape:guide-bbox="true"
     inkscape:window-width="1366"
     inkscape:window-height="746"
     inkscape:window-x="-8"
     inkscape:window-y="-8"
     inkscape:window-maximized="1"
     width="0px"
     height="0px"
     fit-margin-top="0"
     fit-margin-left="0"
     fit-margin-right="0"
     fit-margin-bottom="0">
    <sodipodi:guide
       orientation="1,0"
       position="400.22244,349.31075"
       id="guide3178" />
    <sodipodi:guide
       orientation="0,1"
       position="400.22244,349.31075"
       id="guide3180" />
  </sodipodi:namedview>
  <metadata
     id="metadata7">
    <rdf:RDF>
      <cc:Work
         rdf:about="">
        <dc:format>image/svg+xml</dc:format>
        <dc:type
           rdf:resource="http://purl.org/dc/dcmitype/StillImage" />
        <dc:title></dc:title>
      </cc:Work>
    </rdf:RDF>
  </metadata>
  <g
     inkscape:label="Layer 1"
     inkscape:groupmode="layer"
     id="layer1"
     transform="translate(0,-352.36218)">
    <path
       id="rect3028"
       transform="translate(0,352.36218)"
       style="fill:#ff0000"
       d="m 68.78125,205.75 c -4.04006,0 -4.27746,0.0673 -7.34375,1.75 -1.73907,0.95446 -3.57088,2.17779 -4.0625,2.71875 -2.11526,2.3277 -1.35586,8.81008 1.75,15.125 1.00026,2.03378 1.90915,3.78659 2.03125,3.90625 0.31306,0.30671 0.92127,1.314 3.96875,6.75 l 2.65625,4.78125 -0.0625,3.8125 c -0.0562,4.1659 -1.75315,12.82177 -3.9375,19.90625 -2.42555,7.86676 -2.625,8.80382 -2.625,13.125 0,4.04783 0.05178,4.33195 1.1875,5.5625 1.80193,1.95274 3.29514,2.11113 4.84375,0.5625 1.29234,-1.29232 2.16791,-3.7567 3.09375,-8.59375 0.27477,-1.43559 0.61551,-3.0554 0.71875,-3.59375 0.32838,-1.71146 1.12905,-1.11013 0.875,0.65625 -0.94498,6.56997 -0.41967,13.57208 1.09375,14.53125 2.37096,1.50266 6.22949,-2.17969 9.59375,-9.125 l 2.0625,-4.21875 0.03125,4.78125 c 0.0336,4.83787 0.52319,8.22364 1.375,9.25 0.67848,0.81752 3.15963,0.67298 3.9375,-0.21875 0.36525,-0.4187 1.00611,-1.84029 1.4375,-3.15625 0.69368,-2.11608 0.82055,-4.37013 0.90625,-19.375 0.0994,-17.38815 0.32154,-20.09158 2.09375,-26.40625 0.38938,-1.38746 0.6875,-3.08882 0.6875,-3.75 0,-0.66117 0.36521,-1.97829 0.84375,-2.96875 0.47854,-0.9904 0.90625,-2.38102 0.90625,-3.0625 0,-0.68153 0.19372,-1.44376 0.4375,-1.6875 0.82756,-0.82758 2.16336,-6.43929 2.15625,-9.0625 -0.0167,-6.39509 -2.01673,-10.20397 -5.9375,-11.34375 -3.21293,-0.93404 -5.62716,-0.36402 -10.09375,2.40625 -3.89788,2.41754 -4.53008,2.58135 -5.375,1.375 -0.31558,-0.45052 -1.59755,-1.63992 -2.84375,-2.625 l -2.25,-1.8125 -4.15625,0 z m 1.3125,1.3125 c 1.85019,0 3.25,0.68269 3.25,1.5625 0,0.73144 -0.0031,0.73075 -2.75,-0.15625 -2.45116,-0.79158 -2.65651,-1.40625 -0.5,-1.40625 z m 19.8125,0.71875 c 1.21282,-0.0294 2.20602,0.54047 3.71875,1.65625 2.41138,1.77865 4.0625,4.96769 4.0625,7.90625 0,2.46818 -1.64944,8.8051 -3.0625,11.625 -1.20387,2.40242 -2.8512,4.13651 -4.25,4.4375 -0.62435,0.13434 -2.54465,-0.17464 -4.21875,-0.65625 -4.09,-1.17667 -5.4816,-1.11581 -10.03125,0.46875 -2.13188,0.74247 -4.96527,1.44247 -6.28125,1.5625 -2.90856,0.26524 -3.06253,0.0821 -6.78125,-6.1875 -2.92055,-4.92403 -4.61115,-8.53082 -5.40625,-11.75 -1.58958,-6.43585 4.01677,-9.79494 11.8125,-7.0625 3.64234,1.27667 5.83191,2.9988 7.4375,5.84375 0.85934,1.52268 1.57813,2.34375 2.125,2.34375 0.98475,0 1.0489,-0.36113 0.1875,-1.5 -1.5656,-2.06991 -0.14352,-3.78843 5.75,-6.84375 2.33186,-1.20893 3.72473,-1.8144 4.9375,-1.84375 z m -8.375,25.96875 c 1.25464,0.0158 2.59126,0.1701 3.9375,0.5 1.67888,0.41144 3.36698,1.00958 3.78125,1.3125 0.7086,0.51814 0.71483,0.63523 0.03125,2.34375 -1.19627,2.98982 -2.35501,9.0446 -2.90625,15.28125 -0.49889,5.64406 -1.19086,9.90606 -3,17.84375 -1.00488,4.40883 -4.24775,11.12272 -6.375,13.25 -1.68637,1.68637 -2.40083,1.88163 -3.28125,0.8125 -0.76216,-0.92546 -0.72427,-9.27611 0.0625,-13.875 0.92315,-5.39675 0.35861,-14.58719 -1.28125,-20.875 -0.7488,-2.8712 -1.64504,-5.7822 -1.96875,-6.5 -0.32368,-0.7178 -0.89774,-2.3448 -1.3125,-3.625 -0.91846,-2.83467 -0.61301,-3.34791 2.59375,-3.96875 1.19214,-0.23081 3.0041,-0.82572 4,-1.3125 1.71168,-0.83677 3.62769,-1.214 5.71875,-1.1875 z M 92.5,236.25 c 0.0868,-0.0213 0.15851,0.003 0.21875,0.0625 0.15389,0.15388 -0.28737,2.87025 -0.9375,6.0625 -1.33393,6.5497 -1.48642,11.55455 -0.90625,27.5625 0.41677,11.49914 0.20262,13.71272 -1.53125,15.6875 -1.54166,1.75585 -1.84315,1.80507 -2.71875,0.46875 -0.5804,-0.88584 -0.61748,-2.65292 -0.25,-14.25 0.57223,-18.05985 1.3737,-25.56985 3.28125,-30.6875 1.01467,-2.72242 2.23693,-4.7573 2.84375,-4.90625 z m -23.25,10.03125 c 0.14228,-0.0728 0.24897,0.0715 0.375,0.40625 1.28379,3.4084 2.30063,8.43531 2.6875,13.34375 0.27575,3.49847 0.24608,3.72272 -1.25,6.78125 -1.61234,3.29619 -2.53125,6.61276 -2.53125,9.375 0,2.39923 -1.19937,6.08166 -2.15625,6.59375 -1.24599,0.66682 -1.55529,0.55076 -2.78125,-0.90625 -1.01105,-1.2015 -1.12633,-1.71443 -1.125,-4.90625 0.002,-2.89072 0.34473,-4.87238 1.9375,-10.53125 1.07753,-3.82825 2.49044,-9.75447 3.09375,-13.21875 0.79204,-4.54805 1.32318,-6.71921 1.75,-6.9375 z" />
  </g>
</svg>
