<?xml version="1.0" encoding="UTF-8" standalone="no"?>
<!-- Created with Inkscape (http://www.inkscape.org/) -->

<svg
   xmlns:dc="http://purl.org/dc/elements/1.1/"
   xmlns:cc="http://creativecommons.org/ns#"
   xmlns:rdf="http://www.w3.org/1999/02/22-rdf-syntax-ns#"
   xmlns:svg="http://www.w3.org/2000/svg"
   xmlns="http://www.w3.org/2000/svg"
   xmlns:sodipodi="http://sodipodi.sourceforge.net/DTD/sodipodi-0.dtd"
   xmlns:inkscape="http://www.inkscape.org/namespaces/inkscape"
   width="800"
   height="700"
   id="svg2"
   version="1.1"
   inkscape:version="0.48.2 r9819"
   sodipodi:docname="f2.svg">
  <defs
     id="defs4" />
  <sodipodi:namedview
     id="base"
     pagecolor="#ffffff"
     bordercolor="#666666"
     borderopacity="1.0"
     inkscape:pageopacity="0.0"
     inkscape:pageshadow="2"
     inkscape:zoom="1.4142136"
     inkscape:cx="152.30002"
     inkscape:cy="615.57742"
     inkscape:document-units="px"
     inkscape:current-layer="layer1"
     showgrid="false"
     showguides="true"
     inkscape:guide-bbox="true"
     inkscape:window-width="1366"
     inkscape:window-height="746"
     inkscape:window-x="-8"
     inkscape:window-y="-8"
     inkscape:window-maximized="1"
     width="0px"
     height="0px"
     fit-margin-top="0"
     fit-margin-left="0"
     fit-margin-right="0"
     fit-margin-bottom="0">
    <sodipodi:guide
       orientation="1,0"
       position="400.22244,349.31075"
       id="guide3178" />
    <sodipodi:guide
       orientation="0,1"
       position="400.22244,349.31075"
       id="guide3180" />
  </sodipodi:namedview>
  <metadata
     id="metadata7">
    <rdf:RDF>
      <cc:Work
         rdf:about="">
        <dc:format>image/svg+xml</dc:format>
        <dc:type
           rdf:resource="http://purl.org/dc/dcmitype/StillImage" />
        <dc:title></dc:title>
      </cc:Work>
    </rdf:RDF>
  </metadata>
  <g
     inkscape:label="Layer 1"
     inkscape:groupmode="layer"
     id="layer1"
     transform="translate(0,-352.36218)">
    <path
       id="rect3024"
       transform="translate(0,352.36218)"
       style="fill:#ff0000"
       d="m 94.0625,142.78125 c -2.59493,0.0216 -6.18284,1.05513 -10.5,3.0625 -3.82349,1.77786 -4.02313,1.84098 -7.96875,1.71875 -7.15723,-0.22166 -10.61367,1.37907 -13.1875,6.125 l -1.4375,2.6875 0.09375,6.03125 c 0.10989,5.38365 -0.0045,6.49175 -1.03125,10.25 -1.47188,5.38732 -1.30365,7.95931 0.75,10.96875 2.1866,3.20429 4.5751,4.32117 11.875,5.46875 8.60954,1.35347 13.93552,1.07122 18.25,-0.9375 5.65082,-2.6309 8.441781,-6.3542 9.15625,-12.15625 0.1747,-1.41879 0.70029,-3.27432 1.15625,-4.125 0.45592,-0.85068 0.8125,-1.88694 0.8125,-2.3125 0,-0.42558 0.8083,-3.16605 1.78125,-6.09375 1.6715,-5.02998 1.75507,-5.56448 1.625,-9.6875 -0.13642,-4.32489 -0.14694,-4.38195 -1.78125,-6.375 -1.88381,-2.29731 -5.4235,-4.22567 -8.53125,-4.59375 -0.32947,-0.0391 -0.69179,-0.0342 -1.0625,-0.0312 z m 0.9375,1.375 c 0.94022,-0.024 1.47671,0.20567 2.65625,0.8125 1.21267,0.62387 3.02268,2.19992 4.5625,4.03125 l 2.53125,3.03125 -0.28125,2.8125 c -0.26256,2.62748 -2.36185,10.01107 -3.40625,12 -0.86202,1.64161 -1.08303,2.17023 -1.46875,3.46875 -0.51724,1.74106 -1.44094,1.8121 -2.9375,0.25 -1.3959,-1.45701 -1.26631,-2.64711 0.28125,-2.65625 0.80036,-0.005 0.83872,-0.0662 0.3125,-0.40625 -0.35891,-0.23195 -1.06953,-0.43445 -1.59375,-0.4375 -1.31341,-0.01 -1.60028,-0.69413 -0.96875,-2.21875 0.90342,-2.18104 0.07108,-1.98389 -2.3125,0.5625 -2.57003,2.74557 -3.69317,3.13937 -7.25,2.5625 -3.32717,-0.53966 -3.73972,-1.2018 -4.0625,-6.5 -0.27693,-4.5457 -1.20485,-7.69222 -2.15625,-7.34375 -0.30249,0.11082 -0.51926,0.45229 -0.4375,0.78125 0.0819,0.329 0.3442,2.47695 0.5625,4.75 0.33501,3.48877 0.31234,4.44309 -0.3125,6.1875 -0.40708,1.13654 -0.99892,2.0625 -1.28125,2.0625 -0.28232,0 -0.75539,0.26135 -1.03125,0.59375 -1.5008,1.80833 -5.56144,0.54174 -8.15625,-2.5625 L 66.59375,164 l -0.6875,0.9375 -0.71875,0.9375 -1.09375,-1.03125 c -1.65588,-1.65588 -1.92811,-4.95959 -0.71875,-8.59375 1.66659,-5.00801 3.33995,-5.95798 11.5,-6.59375 5.03257,-0.39211 6.21777,-0.74018 11.5,-3.1875 1.79448,-0.83142 4.62945,-1.75032 6.28125,-2.03125 1.06299,-0.18087 1.77963,-0.26694 2.34375,-0.28125 z m -30.5625,23.75 c 0.55066,0.012 1.13852,0.36934 1.78125,1.0625 0.77404,0.83486 1.32681,1.03779 2.21875,0.875 0.6545,-0.11941 1.40632,-0.0609 1.65625,0.125 0.77363,0.57549 2.46807,3.72652 3.09375,5.78125 0.6979,2.29201 0.78326,7.07843 0.15625,8.25 -0.58066,1.08499 0.33792,1.74093 1.0625,0.75 0.89473,-1.22361 1.25895,-6.26013 0.53125,-7.71875 -0.96305,-1.93055 -1.29241,-3.76363 -0.78125,-4.71875 0.53528,-1.00018 5.02154,-3.5 6.25,-3.5 0.45969,0 1.52881,0.30081 2.34375,0.6875 1.47409,0.69949 4.58866,0.65957 8.34375,-0.0937 1.24763,-0.2503 1.65173,-0.0898 2.9375,1.15625 0.81967,0.79443 2.02552,2.18361 2.65625,3.09375 0.97262,1.40345 1.07069,1.96943 0.84375,3.625 -0.38463,2.80624 -2.51844,6.78626 -4.4375,8.25 -0.89895,0.68566 -2.88395,1.69746 -4.40625,2.25 -4.145,1.50456 -10.83331,1.22332 -15.5625,-0.6875 -0.71781,-0.2909 -2.00632,-0.41072 -2.84375,-0.28125 -3.75786,0.581 -6.58808,-1.23586 -8.46875,-5.34375 -1.22474,-2.6752 -1.3583,-5.22191 -0.46875,-8.5625 0.89949,-3.37783 1.88229,-5.02625 3.09375,-5 z" />
  </g>
</svg>
