<?xml version="1.0" encoding="UTF-8" standalone="no"?>
<!-- Created with Inkscape (http://www.inkscape.org/) -->

<svg
   xmlns:dc="http://purl.org/dc/elements/1.1/"
   xmlns:cc="http://creativecommons.org/ns#"
   xmlns:rdf="http://www.w3.org/1999/02/22-rdf-syntax-ns#"
   xmlns:svg="http://www.w3.org/2000/svg"
   xmlns="http://www.w3.org/2000/svg"
   xmlns:sodipodi="http://sodipodi.sourceforge.net/DTD/sodipodi-0.dtd"
   xmlns:inkscape="http://www.inkscape.org/namespaces/inkscape"
   width="900"
   height="800"
   id="svg2"
   version="1.1"
   inkscape:version="0.48+devel r11738"
   sodipodi:docname="m2.svg">
  <defs
     id="defs4" />
  <sodipodi:namedview
     id="base"
     pagecolor="#ffffff"
     bordercolor="#666666"
     borderopacity="1.0"
     inkscape:pageopacity="0.0"
     inkscape:pageshadow="2"
     inkscape:zoom="2"
     inkscape:cx="218.06383"
     inkscape:cy="657.3086"
     inkscape:document-units="px"
     inkscape:current-layer="layer1"
     showgrid="false"
     showguides="true"
     inkscape:guide-bbox="true"
     inkscape:window-width="1366"
     inkscape:window-height="705"
     inkscape:window-x="-4"
     inkscape:window-y="-4"
     inkscape:window-maximized="1"
     width="0px"
     height="0px"
     fit-margin-top="0"
     fit-margin-left="0"
     fit-margin-right="0"
     fit-margin-bottom="0">
    <sodipodi:guide
       orientation="1,0"
       position="450,784"
       id="guide3178" />
    <sodipodi:guide
       orientation="0,1"
       position="-61,400"
       id="guide3180" />
  </sodipodi:namedview>
  <metadata
     id="metadata7">
    <rdf:RDF>
      <cc:Work
         rdf:about="">
        <dc:format>image/svg+xml</dc:format>
        <dc:type
           rdf:resource="http://purl.org/dc/dcmitype/StillImage" />
        <dc:title />
      </cc:Work>
    </rdf:RDF>
  </metadata>
  <g
     inkscape:label="Layer 1"
     inkscape:groupmode="layer"
     id="layer1"
     transform="translate(0,-252.36218)">
    <path
       id="rect88"
       transform="translate(0,252.36218)"
       style="fill:#ff0000;fill-opacity:1;stroke:none"
       d="m 105.25,161.46875 c -2.93346,0.0244 -6.994642,1.16826 -11.875,3.4375 -4.322269,2.0098 -4.539673,2.07569 -9,1.9375 -8.090914,-0.25057 -11.996648,1.57244 -14.90625,6.9375 l -1.65625,3.03125 0.125,6.84375 c 0.124223,6.08597 0.0045,7.31397 -1.15625,11.5625 -1.663888,6.09012 -1.446546,9.00422 0.875,12.40625 2.471868,3.62231 5.154051,4.89021 13.40625,6.1875 9.732687,1.53004 15.747689,1.20826 20.625,-1.0625 6.38799,-2.97411 9.56732,-7.19105 10.375,-13.75 0.19749,-1.60387 0.76581,-3.69459 1.28125,-4.65625 0.51541,-0.96166 0.9375,-2.14392 0.9375,-2.625 0,-0.48109 0.90013,-3.56537 2,-6.875 1.88955,-5.68616 1.99079,-6.30788 1.84375,-10.96875 -0.1542,-4.8891 -0.47001,-5.27026 -2.03125,-7.21875 -2.28301,-2.84928 -6.1431,-4.74016 -9.65625,-5.15625 C 106.06505,161.45595 105.66906,161.46525 105.25,161.46875 Z M 106.3125,163 c 1.06288,-0.0271 1.66657,0.25151 3,0.9375 1.37086,0.70526 3.41554,2.49226 5.15625,4.5625 l 2.84375,3.40625 -0.3125,3.1875 c -0.2968,2.97023 -2.66309,11.28285 -3.84375,13.53125 -0.97447,1.85575 -1.22022,2.50084 -1.65625,3.96875 -0.5847,1.96819 -1.65195,2.04712 -3.34375,0.28125 -1.57798,-1.64709 -1.40571,-3.02091 0.34375,-3.03125 0.90475,-0.005 0.9386,-0.0844 0.34375,-0.46875 -0.40572,-0.26222 -1.18865,-0.49654 -1.78125,-0.5 -1.48476,-0.0104 -1.83891,-0.77648 -1.125,-2.5 1.02126,-2.46556 0.0696,-2.22232 -2.625,0.65625 -2.90529,3.10373 -4.166673,3.55839 -8.1875,2.90625 -3.761211,-0.61004 -4.228867,-1.38564 -4.59375,-7.375 -0.313069,-5.1387 -1.361986,-8.67519 -2.4375,-8.28125 -0.341953,0.12527 -0.56119,0.53436 -0.46875,0.90625 0.09239,0.37192 0.378235,2.77419 0.625,5.34375 0.37871,3.94391 0.33136,5.02804 -0.375,7 -0.460199,1.28481 -1.118331,2.3125 -1.4375,2.3125 -0.31916,0 -0.813144,0.31174 -1.125,0.6875 -1.696579,2.04425 -6.285446,0.60295 -9.21875,-2.90625 l -1.875,-2.1875 -0.8125,1.03125 -0.8125,1.09375 -1.21875,-1.1875 c -1.871895,-1.8719 -2.179632,-5.57926 -0.8125,-9.6875 1.883977,-5.66132 3.74419,-6.75005 12.96875,-7.46875 5.689078,-0.44326 7.059959,-0.82717 13.03125,-3.59375 2.028588,-0.93988 5.22646,-1.99491 7.09375,-2.3125 C 104.85791,163.10805 105.67478,163.01617 106.3125,163 z m -34.53125,26.84375 c 0.622499,0.0135 1.273432,0.40391 2,1.1875 0.875009,0.94376 1.491704,1.18402 2.5,1 0.739884,-0.135 1.592457,-0.054 1.875,0.15625 0.874546,0.65057 2.792705,4.20847 3.5,6.53125 0.788962,2.59102 0.865038,8.01935 0.15625,9.34375 -0.656427,1.22653 0.399658,1.9327 1.21875,0.8125 1.011445,-1.38323 1.416353,-7.06984 0.59375,-8.71875 -1.088701,-2.18239 -1.452858,-4.23279 -0.875,-5.3125 0.605104,-1.13065 5.673788,-3.96875 7.0625,-3.96875 0.519677,0 1.703774,0.34411 2.625,0.78125 1.666407,0.79073 5.19256,0.72662 9.4375,-0.125 1.41038,-0.28296 1.89023,-0.0649 3.34375,1.34375 0.92659,0.89807 2.28701,2.43987 3,3.46875 1.09951,1.58654 1.22529,2.22219 0.96875,4.09375 -0.43481,3.17231 -2.86185,7.68906 -5.03125,9.34375 -1.01622,0.77511 -3.27912,1.90664 -5,2.53125 -4.685729,1.70083 -12.247595,1.37886 -17.59375,-0.78125 -0.811437,-0.32884 -2.240822,-0.45887 -3.1875,-0.3125 -4.248076,0.65679 -7.467753,-1.38747 -9.59375,-6.03125 C 67.396744,202.16331 67.24441,199.27637 68.25,195.5 69.266834,191.68152 70.411756,189.81408 71.78125,189.84375 Z" />
  </g>
</svg>
