<?xml version="1.0" encoding="UTF-8" standalone="no"?>
<!-- Created with Inkscape (http://www.inkscape.org/) -->

<svg
   xmlns:dc="http://purl.org/dc/elements/1.1/"
   xmlns:cc="http://creativecommons.org/ns#"
   xmlns:rdf="http://www.w3.org/1999/02/22-rdf-syntax-ns#"
   xmlns:svg="http://www.w3.org/2000/svg"
   xmlns="http://www.w3.org/2000/svg"
   xmlns:sodipodi="http://sodipodi.sourceforge.net/DTD/sodipodi-0.dtd"
   xmlns:inkscape="http://www.inkscape.org/namespaces/inkscape"
   width="800"
   height="400"
   id="svg2"
   version="1.1"
   inkscape:version="0.48.2 r9819"
   sodipodi:docname="mo.svg">
  <defs
     id="defs4" />
  <sodipodi:namedview
     id="base"
     pagecolor="#ffffff"
     bordercolor="#666666"
     borderopacity="1.0"
     inkscape:pageopacity="0.0"
     inkscape:pageshadow="2"
     inkscape:zoom="2.8284271"
     inkscape:cx="517.91887"
     inkscape:cy="56.126695"
     inkscape:document-units="px"
     inkscape:current-layer="layer1"
     showgrid="false"
     showguides="true"
     inkscape:guide-bbox="true"
     inkscape:window-width="1366"
     inkscape:window-height="746"
     inkscape:window-x="-8"
     inkscape:window-y="-8"
     inkscape:window-maximized="1"
     width="0px"
     height="0px"
     fit-margin-top="0"
     fit-margin-left="0"
     fit-margin-right="0"
     fit-margin-bottom="0">
    <sodipodi:guide
       orientation="1,0"
       position="400.22244,349.31075"
       id="guide3178" />
  </sodipodi:namedview>
  <metadata
     id="metadata7">
    <rdf:RDF>
      <cc:Work
         rdf:about="">
        <dc:format>image/svg+xml</dc:format>
        <dc:type
           rdf:resource="http://purl.org/dc/dcmitype/StillImage" />
        <dc:title></dc:title>
        <cc:license
           rdf:resource="" />
      </cc:Work>
    </rdf:RDF>
  </metadata>
  <g
     inkscape:label="Layer 1"
     inkscape:groupmode="layer"
     id="layer1"
     transform="translate(0,-652.36218)">
    <path
       id="rect3156"
       transform="translate(0,652.36218)"
       style="fill:#ff0000"
       d="m 425.6875,288.53125 c -4.55082,-0.071 -9.14516,1.51024 -11.15625,4.40625 -1.40854,2.02832 -0.6863,12.94797 1.25,19.125 1.44128,4.59786 1.9544,9.18606 2,17.28125 0.0969,17.17917 1.25938,26.494 3.8125,30.625 2.34614,3.7962 4.37809,4.40325 7.34375,2.15625 1.64961,-1.2499 1.85387,-3.51064 2.28125,-23.875 0.25942,-12.36125 0.87161,-23.24691 1.375,-24.1875 1.22974,-2.29779 3.90625,-15.05365 3.90625,-18.6875 0,-2.22492 -0.76701,-3.38014 -3.21875,-4.875 -2.14054,-1.30512 -4.86326,-1.92613 -7.59375,-1.96875 z m -0.84375,2.0625 c 2.35024,-0.0538 4.8346,0.42978 6.84375,1.46875 2.88373,1.49125 3.00463,1.77358 2.375,6.1875 -1.14606,8.03427 -2.39031,11.41615 -5.53125,15.21875 -1.6814,2.03562 -3.39785,3.6875 -3.84375,3.6875 -1.85253,0 -6.7367,-5.70618 -7.90625,-9.25 -1.87146,-5.67056 -0.85032,-13.29147 2.0625,-15.53125 1.45428,-1.11826 3.64976,-1.72744 6,-1.78125 z m 3.84375,27 c 0.58548,0.0303 0.65286,5.5859 0.3125,20.28125 -0.36359,15.69802 -0.84825,22.4041 -1.6875,22.9375 -1.71381,1.0894 -2.67982,0.93545 -3.1875,-0.46875 -3.26722,-9.0365 -3.59374,-11.26756 -4.125,-26.90625 -0.56546,-16.64569 -0.55615,-16.74478 1.375,-15.03125 2.67809,2.37628 5.70317,2.15707 7.03125,-0.5 0.10507,-0.2102 0.19761,-0.31683 0.28125,-0.3125 z" />
  </g>
</svg>
