<?xml version="1.0" encoding="UTF-8" standalone="no"?>
<!-- Created with Inkscape (http://www.inkscape.org/) -->

<svg
   xmlns:dc="http://purl.org/dc/elements/1.1/"
   xmlns:cc="http://creativecommons.org/ns#"
   xmlns:rdf="http://www.w3.org/1999/02/22-rdf-syntax-ns#"
   xmlns:svg="http://www.w3.org/2000/svg"
   xmlns="http://www.w3.org/2000/svg"
   xmlns:sodipodi="http://sodipodi.sourceforge.net/DTD/sodipodi-0.dtd"
   xmlns:inkscape="http://www.inkscape.org/namespaces/inkscape"
   width="800"
   height="400"
   id="svg2"
   version="1.1"
   inkscape:version="0.48.2 r9819"
   sodipodi:docname="fp.svg">
  <defs
     id="defs4" />
  <sodipodi:namedview
     id="base"
     pagecolor="#ffffff"
     bordercolor="#666666"
     borderopacity="1.0"
     inkscape:pageopacity="0.0"
     inkscape:pageshadow="2"
     inkscape:zoom="2.8284271"
     inkscape:cx="517.91887"
     inkscape:cy="100.86535"
     inkscape:document-units="px"
     inkscape:current-layer="layer1"
     showgrid="false"
     showguides="true"
     inkscape:guide-bbox="true"
     inkscape:window-width="1366"
     inkscape:window-height="746"
     inkscape:window-x="-8"
     inkscape:window-y="-8"
     inkscape:window-maximized="1"
     width="0px"
     height="0px"
     fit-margin-top="0"
     fit-margin-left="0"
     fit-margin-right="0"
     fit-margin-bottom="0">
    <sodipodi:guide
       orientation="1,0"
       position="400.22244,349.31075"
       id="guide3178" />
  </sodipodi:namedview>
  <metadata
     id="metadata7">
    <rdf:RDF>
      <cc:Work
         rdf:about="">
        <dc:format>image/svg+xml</dc:format>
        <dc:type
           rdf:resource="http://purl.org/dc/dcmitype/StillImage" />
        <dc:title></dc:title>
        <cc:license
           rdf:resource="" />
      </cc:Work>
    </rdf:RDF>
  </metadata>
  <g
     inkscape:label="Layer 1"
     inkscape:groupmode="layer"
     id="layer1"
     transform="translate(0,-652.36218)">
    <path
       id="rect3152"
       transform="translate(0,652.36218)"
       style="fill:#ff0000"
       d="m 425.03125,246.3125 c -0.87316,0.0743 -1.9524,0.56249 -3.65625,1.375 -4.3832,2.09021 -6.13431,5.28049 -7.5625,13.875 -1.03289,6.21568 -0.96932,7.39896 0.46875,9.59375 1.47993,2.25865 4.24125,3.60977 9.875,4.875 5.92665,1.33101 8.2887,0.21288 10.28125,-4.875 1.83455,-4.68443 -0.74767,-15.92203 -4.84375,-21.09375 -2.22926,-2.81467 -3.10724,-3.8738 -4.5625,-3.75 z m -0.34375,2.03125 c 0.58039,-0.0131 1.10688,0.45427 2.03125,1.28125 4.9031,4.38651 7.90993,16.16049 5.375,21.0625 -1.42795,2.76137 -2.02658,3.0625 -6.28125,3.0625 -6.0976,0 -11.67892,-4.14684 -10.75,-7.96875 0.322,-1.32483 1.08541,-4.43958 1.6875,-6.9375 0.70742,-2.93487 2.28199,-5.72427 4.46875,-7.84375 1.89393,-1.83567 2.72254,-2.63939 3.46875,-2.65625 z" />
  </g>
</svg>
