<?xml version="1.0" encoding="UTF-8" standalone="no"?>
<!-- Created with Inkscape (http://www.inkscape.org/) -->

<svg
   xmlns:dc="http://purl.org/dc/elements/1.1/"
   xmlns:cc="http://creativecommons.org/ns#"
   xmlns:rdf="http://www.w3.org/1999/02/22-rdf-syntax-ns#"
   xmlns:svg="http://www.w3.org/2000/svg"
   xmlns="http://www.w3.org/2000/svg"
   xmlns:sodipodi="http://sodipodi.sourceforge.net/DTD/sodipodi-0.dtd"
   xmlns:inkscape="http://www.inkscape.org/namespaces/inkscape"
   width="800"
   height="700"
   id="svg2"
   version="1.1"
   inkscape:version="0.48.2 r9819"
   sodipodi:docname="m4-fill.svg">
  <defs
     id="defs4" />
  <sodipodi:namedview
     id="base"
     pagecolor="#ffffff"
     bordercolor="#666666"
     borderopacity="1.0"
     inkscape:pageopacity="0.0"
     inkscape:pageshadow="2"
     inkscape:zoom="1.28"
     inkscape:cx="226.40271"
     inkscape:cy="523.14123"
     inkscape:document-units="px"
     inkscape:current-layer="layer1"
     showgrid="false"
     showguides="true"
     inkscape:guide-bbox="true"
     inkscape:window-width="1024"
     inkscape:window-height="538"
     inkscape:window-x="-8"
     inkscape:window-y="-8"
     inkscape:window-maximized="1"
     width="0px"
     height="0px"
     fit-margin-top="0"
     fit-margin-left="0"
     fit-margin-right="0"
     fit-margin-bottom="0">
    <sodipodi:guide
       orientation="1,0"
       position="400.22244,349.31075"
       id="guide3178" />
    <sodipodi:guide
       orientation="0,1"
       position="400.22244,349.31075"
       id="guide3180" />
  </sodipodi:namedview>
  <metadata
     id="metadata7">
    <rdf:RDF>
      <cc:Work
         rdf:about="">
        <dc:format>image/svg+xml</dc:format>
        <dc:type
           rdf:resource="http://purl.org/dc/dcmitype/StillImage" />
        <dc:title />
      </cc:Work>
    </rdf:RDF>
  </metadata>
  <g
     inkscape:label="Layer 1"
     inkscape:groupmode="layer"
     id="layer1"
     transform="translate(0,-352.36218)">
    <path
       id="rect4163"
       transform="translate(0,352.36218)"
       style="fill:#00ff00"
       d="m 188.5625,145.46875 c -0.14001,-0.003 -0.29475,0.0168 -0.4375,0.0312 -0.38065,0.0384 -0.76382,0.11839 -1.3125,0.25 -1.45925,0.35007 -3.09894,1.24292 -4.875,2.65625 -1.46989,1.16967 -3.44922,2.49509 -4.40625,2.9375 -4.35453,2.01288 -4.99323,7.41069 -2.21875,18.8125 1.41607,5.81938 3.60185,10.45261 6.1875,13.09375 2.50792,2.56172 4.20996,2.93754 8.59375,1.90625 1.81572,-0.4272 2.84434,-0.96372 3.59375,-1.84375 0.58085,-0.68207 1.47374,-1.70588 1.96875,-2.28125 1.6422,-1.90896 3.42533,-8.01801 4.0625,-13.90625 0.32658,-3.01831 0.7957,-6.1938 1,-7.03125 0.47748,-1.95691 -0.12946,-5.26154 -1.46875,-8.09375 -1.00389,-2.12285 -1.26338,-2.32214 -5.65625,-4.5 -3.01248,-1.49352 -4.05124,-2.00695 -5.03125,-2.03125 z m -6.75,14 c 0.27039,-0.008 0.60478,0.40654 0.875,1.25 0.89208,2.786 3.44233,4.59375 6.5625,4.59375 1.57078,0 2.25561,-0.27858 3.46875,-1.34375 0.83431,-0.73254 1.66527,-1.69244 1.8125,-2.15625 0.14718,-0.46377 0.53754,-0.84375 0.90625,-0.84375 0.86047,0 0.46397,1.87814 -0.75,3.5625 -1.12994,1.56776 -1.05899,2.0625 0.25,2.0625 1.35362,0 1.40816,0.72442 0.0937,1.125 -1.53387,0.46742 -2.46875,1.52658 -2.46875,2.75 0,1.0651 -0.0753,1.06379 -0.84375,-0.375 -0.92896,-1.7392 -2.31617,-2.09407 -5.21875,-1.3125 -1.40625,0.37869 -1.99693,0.8858 -2.90625,2.4375 -1.01728,1.73579 -1.9556,2.51894 -1.9375,1.625 0.003,-0.17944 0.28021,-1.13668 0.625,-2.09375 0.34481,-0.95704 0.6771,-1.98217 0.6875,-2.28125 0.0235,-0.66815 -1.49909,-0.72973 -2.6875,-0.0937 -1.08382,0.58 -1.25951,0.45017 -0.9375,-0.78125 0.159,-0.60802 0.56831,-0.995 1.15625,-1 0.51042,-0.003 1.21122,-0.17218 1.53125,-0.375 0.86068,-0.54558 0.43383,-2.31822 -0.6875,-2.875 -1.46412,-0.72701 -2.71875,-2.01538 -2.71875,-2.75 0,-0.55529 0.10388,-0.55039 0.78125,0.0625 1.0927,0.98888 1.74139,0.91083 1.90625,-0.25 0.0733,-0.51627 0.2034,-0.81405 0.375,-0.90625 0.0357,-0.019 0.0862,-0.0304 0.125,-0.0312 z m 8.59375,35.90625 c -0.15112,0.006 -0.30273,0.0528 -0.375,0.125 -0.14456,0.14455 0.13517,0.23766 0.59375,0.21875 0.5068,-0.0209 0.59703,-0.11108 0.25,-0.25 -0.15701,-0.0629 -0.31759,-0.10005 -0.46875,-0.0937 z" />
  </g>
</svg>
