<?xml version="1.0" encoding="UTF-8" standalone="no"?>
<!-- Created with Inkscape (http://www.inkscape.org/) -->

<svg
   xmlns:dc="http://purl.org/dc/elements/1.1/"
   xmlns:cc="http://creativecommons.org/ns#"
   xmlns:rdf="http://www.w3.org/1999/02/22-rdf-syntax-ns#"
   xmlns:svg="http://www.w3.org/2000/svg"
   xmlns="http://www.w3.org/2000/svg"
   xmlns:sodipodi="http://sodipodi.sourceforge.net/DTD/sodipodi-0.dtd"
   xmlns:inkscape="http://www.inkscape.org/namespaces/inkscape"
   width="800"
   height="700"
   id="svg2"
   version="1.1"
   inkscape:version="0.48.2 r9819"
   sodipodi:docname="m4.svg">
  <defs
     id="defs4" />
  <sodipodi:namedview
     id="base"
     pagecolor="#ffffff"
     bordercolor="#666666"
     borderopacity="1.0"
     inkscape:pageopacity="0.0"
     inkscape:pageshadow="2"
     inkscape:zoom="5"
     inkscape:cx="214.34818"
     inkscape:cy="524.7827"
     inkscape:document-units="px"
     inkscape:current-layer="layer1"
     showgrid="false"
     showguides="true"
     inkscape:guide-bbox="true"
     inkscape:window-width="1366"
     inkscape:window-height="746"
     inkscape:window-x="-8"
     inkscape:window-y="-8"
     inkscape:window-maximized="1"
     width="0px"
     height="0px"
     fit-margin-top="0"
     fit-margin-left="0"
     fit-margin-right="0"
     fit-margin-bottom="0">
    <sodipodi:guide
       orientation="1,0"
       position="400.22244,349.31075"
       id="guide3178" />
    <sodipodi:guide
       orientation="0,1"
       position="400.22244,349.31075"
       id="guide3180" />
  </sodipodi:namedview>
  <metadata
     id="metadata7">
    <rdf:RDF>
      <cc:Work
         rdf:about="">
        <dc:format>image/svg+xml</dc:format>
        <dc:type
           rdf:resource="http://purl.org/dc/dcmitype/StillImage" />
        <dc:title></dc:title>
      </cc:Work>
    </rdf:RDF>
  </metadata>
  <g
     inkscape:label="Layer 1"
     inkscape:groupmode="layer"
     id="layer1"
     transform="translate(0,-352.36218)">
    <path
       style="fill:#ff0000"
       d="m 188.5625,497.83093 c 0.98001,0.0243 2.01877,0.53773 5.03125,2.03125 4.39287,2.17786 4.65236,2.37715 5.65625,4.5 1.33929,2.83221 1.94623,6.13684 1.46875,8.09375 -0.2043,0.83745 -0.67342,4.01294 -1,7.03125 -0.63717,5.88824 -2.4203,11.99729 -4.0625,13.90625 -0.49501,0.57537 -1.3879,1.59918 -1.96875,2.28125 -0.74941,0.88003 -1.77803,1.41655 -3.59375,1.84375 -4.38379,1.03129 -6.08583,0.65547 -8.59375,-1.90625 -2.58565,-2.64114 -4.77143,-7.27437 -6.1875,-13.09375 -2.77448,-11.40181 -2.13578,-16.79962 2.21875,-18.8125 0.95703,-0.44241 2.93636,-1.76783 4.40625,-2.9375 1.77606,-1.41333 3.41575,-2.30618 4.875,-2.65625 0.54868,-0.13161 0.93185,-0.21159 1.3125,-0.25 0.14275,-0.0145 0.29749,-0.0345 0.4375,-0.0312 z"
       id="path3057" />
    <path
       style="fill:#ff0000"
       d="m 181.8125,511.83093 c -0.0388,8.1e-4 -0.0893,0.0122 -0.125,0.0312 -0.1716,0.0922 -0.30169,0.38998 -0.375,0.90625 -0.16486,1.16083 -0.81355,1.23888 -1.90625,0.25 -0.67737,-0.61289 -0.78125,-0.61779 -0.78125,-0.0625 0,0.73462 1.25463,2.02299 2.71875,2.75 1.12133,0.55678 1.54818,2.32942 0.6875,2.875 -0.32003,0.20282 -1.02083,0.37195 -1.53125,0.375 -0.58794,0.005 -0.99725,0.39198 -1.15625,1 -0.32201,1.23142 -0.14632,1.36125 0.9375,0.78125 1.18841,-0.63598 2.711,-0.57445 2.6875,0.0937 -0.0104,0.29908 -0.34269,1.32421 -0.6875,2.28125 -0.34479,0.95707 -0.62194,1.91431 -0.625,2.09375 -0.0181,0.89394 0.92022,0.11079 1.9375,-1.625 0.90932,-1.5517 1.5,-2.05881 2.90625,-2.4375 2.90258,-0.78157 4.28979,-0.4267 5.21875,1.3125 0.76847,1.43879 0.84375,1.4401 0.84375,0.375 0,-1.22342 0.93488,-2.28258 2.46875,-2.75 1.31441,-0.40058 1.25992,-1.125 -0.0937,-1.125 -1.30899,0 -1.37994,-0.49474 -0.25,-2.0625 1.21397,-1.68436 1.61047,-3.5625 0.75,-3.5625 -0.36871,0 -0.75907,0.37998 -0.90625,0.84375 -0.14723,0.46381 -0.97819,1.42371 -1.8125,2.15625 -1.21314,1.06517 -1.89797,1.34375 -3.46875,1.34375 -3.12017,0 -5.67042,-1.80775 -6.5625,-4.59375 -0.27022,-0.84346 -0.60461,-1.25784 -0.875,-1.25 z"
       id="path3055" />
    <path
       style="fill:#ff0000"
       d="m 190.40625,547.73718 c -0.15112,0.006 -0.30273,0.0528 -0.375,0.125 -0.14456,0.14455 0.13517,0.23766 0.59375,0.21875 0.5068,-0.0209 0.59703,-0.11108 0.25,-0.25 -0.15701,-0.0629 -0.31759,-0.1 -0.46875,-0.0937 z"
       id="rect3054" />
  </g>
</svg>
