<?xml version="1.0" encoding="UTF-8" standalone="no"?>
<!-- Created with Inkscape (http://www.inkscape.org/) -->

<svg
   xmlns:dc="http://purl.org/dc/elements/1.1/"
   xmlns:cc="http://creativecommons.org/ns#"
   xmlns:rdf="http://www.w3.org/1999/02/22-rdf-syntax-ns#"
   xmlns:svg="http://www.w3.org/2000/svg"
   xmlns="http://www.w3.org/2000/svg"
   xmlns:sodipodi="http://sodipodi.sourceforge.net/DTD/sodipodi-0.dtd"
   xmlns:inkscape="http://www.inkscape.org/namespaces/inkscape"
   width="800"
   height="400"
   id="svg2"
   version="1.1"
   inkscape:version="0.48.2 r9819"
   sodipodi:docname="f8.svg">
  <defs
     id="defs4" />
  <sodipodi:namedview
     id="base"
     pagecolor="#ffffff"
     bordercolor="#666666"
     borderopacity="1.0"
     inkscape:pageopacity="0.0"
     inkscape:pageshadow="2"
     inkscape:zoom="2.8284271"
     inkscape:cx="466.95075"
     inkscape:cy="314.21042"
     inkscape:document-units="px"
     inkscape:current-layer="layer1"
     showgrid="false"
     showguides="true"
     inkscape:guide-bbox="true"
     inkscape:window-width="1366"
     inkscape:window-height="746"
     inkscape:window-x="-8"
     inkscape:window-y="-8"
     inkscape:window-maximized="1"
     width="0px"
     height="0px"
     fit-margin-top="0"
     fit-margin-left="0"
     fit-margin-right="0"
     fit-margin-bottom="0">
    <sodipodi:guide
       orientation="1,0"
       position="400.22244,349.31075"
       id="guide3178" />
    <sodipodi:guide
       orientation="0,1"
       position="-117.37973,199.40411"
       id="guide3180" />
  </sodipodi:namedview>
  <metadata
     id="metadata7">
    <rdf:RDF>
      <cc:Work
         rdf:about="">
        <dc:format>image/svg+xml</dc:format>
        <dc:type
           rdf:resource="http://purl.org/dc/dcmitype/StillImage" />
        <dc:title />
      </cc:Work>
    </rdf:RDF>
  </metadata>
  <g
     inkscape:label="Layer 1"
     inkscape:groupmode="layer"
     id="layer1"
     transform="translate(0,-652.36218)">
    <path
       id="rect3003"
       transform="translate(0,652.36218)"
       style="fill:#ff0000"
       d="m 371.96875,16.4375 c -1.2189,0.055 -3.00905,1.32548 -4.34375,3.28125 -1.3585,1.9905 -1.46875,2.39848 -1.46875,5.6875 0,1.94128 0.2374,5.58149 0.5625,8.09375 0.5485,4.2386 0.5485,4.95663 -0.3125,10.40625 -0.5104,3.23012 -1.20305,7.16354 -1.53125,8.71875 -1.0807,5.12022 -2.4446,20.35696 -2.4375,27.28125 0.01,3.60127 -1.55235,10.06414 -3.34375,14 -0.8031,1.76456 -1.4375,3.38343 -1.4375,3.59375 0,0.2103 -0.88605,2.22904 -1.96875,4.5 -1.0827,2.27093 -2.2149,5.1489 -2.5,6.40625 -0.5634,2.48423 -0.60605,8.68727 -0.0937,11.34375 0.8242,4.27568 4.7339,5.77164 14.375,5.4375 3.3497,-0.11617 6.459,-0.0664 6.9375,0.125 1.4435,0.57693 8.7249,0.45751 11.1875,-0.1875 3.0185,-0.79068 5.5625,-2.04113 5.5625,-2.71875 0,-0.29752 0.28685,-0.84931 0.65625,-1.21875 0.8845,-0.88446 1.09155,-10.77207 0.34375,-17.21875 -0.2915,-2.5123 -0.73005,-6.35342 -0.96875,-8.5625 -0.2675,-2.47663 -0.74255,-4.49203 -1.21875,-5.21875 -0.6101,-0.9312 -0.8226,-2.54313 -1.0625,-7.71875 -0.4694,-10.12608 -3.6349,-34.2514 -4.6875,-35.71875 -0.6506,-0.90693 -2.6129,-7.11437 -3.4375,-10.875 -0.4722,-2.15338 -1.15325,-4.4697 -1.53125,-5.1875 -0.378,-0.7178 -0.71775,-1.77299 -0.71875,-2.28125 -0.01,-1.99126 -3.73675,-10.59375 -4.59375,-10.59375 -0.2945,0 -0.6122,-0.26611 -0.75,-0.625 -0.1998,-0.51945 -0.66465,-0.77499 -1.21875,-0.75 z m -0.78125,3.1875 c 0.5307,0.0218 1.0373,0.31195 1.625,0.9375 1.2228,1.30163 3.7361,7.18902 4.6875,11.03125 0.961,3.88138 3.1118,10.8833 3.9375,12.71875 0.3585,0.79683 0.93185,3.60872 1.28125,6.28125 0.5734,4.38623 2.21935,16.4577 3.21875,23.78125 1.0993,8.05503 0.9799,11.16242 -0.3125,9.03125 -0.4426,-0.72979 -3.6686,-2.97117 -6.1875,-4.25 -1.6754,-0.8505 -2.38365,-0.92845 -5.15625,-0.71875 -3.4246,0.25899 -5.4516,1.25501 -8.0625,3.96875 -0.6708,0.69721 -1.49045,1.75608 -1.84375,2.375 -0.5804,1.01686 -0.6192,0.54298 -0.375,-5.15625 0.3478,-8.11438 1.59315,-18.75656 3.28125,-28.09375 2.8026,-15.50129 2.74585,-14.46019 1.21875,-24.34375 -0.605,-3.91611 -0.3788,-5.4655 1,-6.75 0.618,-0.57595 1.1569,-0.83433 1.6875,-0.8125 z m 3.9375,60.84375 c 5.3697,0.008 8.3207,2.38893 11.75,9.375 0.9466,1.92831 1.4151,3.43101 3,9.34375 0.2245,0.8374 0.64065,4.56705 0.90625,8.28125 0.419,5.85977 0.3714,7.21401 -0.25,10.21875 -0.8106,3.91935 -1.74105,5.00388 -4.90625,5.8125 -2.0058,0.51243 -7.58585,0.53635 -11.65625,0.0312 -1.4356,-0.17811 -5.3287,-0.34899 -8.6875,-0.375 -5.4122,-0.0419 -6.37355,-0.16382 -8.09375,-1.03125 -1.5366,-0.77486 -2.0385,-1.34125 -2.5,-2.71875 -1.1995,-3.57999 0.31585,-10.06493 4.21875,-17.90625 0.9776,-1.96405 1.78125,-3.75636 1.78125,-3.96875 0,-0.66259 1.4081,-3.28254 2.25,-4.21875 0.442,-0.49154 1.28975,-2.17652 1.90625,-3.71875 1.5498,-3.87668 3.49345,-6.56914 5.65625,-7.9375 1.4944,-0.94548 2.3556,-1.19055 4.625,-1.1875 z" />
  </g>
</svg>
