<?xml version="1.0" encoding="UTF-8" standalone="no"?>
<!-- Created with Inkscape (http://www.inkscape.org/) -->

<svg
   xmlns:dc="http://purl.org/dc/elements/1.1/"
   xmlns:cc="http://creativecommons.org/ns#"
   xmlns:rdf="http://www.w3.org/1999/02/22-rdf-syntax-ns#"
   xmlns:svg="http://www.w3.org/2000/svg"
   xmlns="http://www.w3.org/2000/svg"
   xmlns:sodipodi="http://sodipodi.sourceforge.net/DTD/sodipodi-0.dtd"
   xmlns:inkscape="http://www.inkscape.org/namespaces/inkscape"
   width="800"
   height="700"
   id="svg2"
   version="1.1"
   inkscape:version="0.48.2 r9819"
   sodipodi:docname="l7.svg">
  <defs
     id="defs4" />
  <sodipodi:namedview
     id="base"
     pagecolor="#ffffff"
     bordercolor="#666666"
     borderopacity="1.0"
     inkscape:pageopacity="0.0"
     inkscape:pageshadow="2"
     inkscape:zoom="2.5"
     inkscape:cx="360.94843"
     inkscape:cy="625.81956"
     inkscape:document-units="px"
     inkscape:current-layer="layer1"
     showgrid="false"
     showguides="true"
     inkscape:guide-bbox="true"
     inkscape:window-width="1366"
     inkscape:window-height="746"
     inkscape:window-x="-8"
     inkscape:window-y="-8"
     inkscape:window-maximized="1"
     width="0px"
     height="0px"
     fit-margin-top="0"
     fit-margin-left="0"
     fit-margin-right="0"
     fit-margin-bottom="0">
    <sodipodi:guide
       orientation="1,0"
       position="400.22244,349.31075"
       id="guide3178" />
    <sodipodi:guide
       orientation="0,1"
       position="400.22244,349.31075"
       id="guide3180" />
  </sodipodi:namedview>
  <metadata
     id="metadata7">
    <rdf:RDF>
      <cc:Work
         rdf:about="">
        <dc:format>image/svg+xml</dc:format>
        <dc:type
           rdf:resource="http://purl.org/dc/dcmitype/StillImage" />
        <dc:title></dc:title>
      </cc:Work>
    </rdf:RDF>
  </metadata>
  <g
     inkscape:label="Layer 1"
     inkscape:groupmode="layer"
     id="layer1"
     transform="translate(0,-352.36218)">
    <path
       id="rect3098"
       transform="translate(0,352.36218)"
       style="fill:#ff0000"
       d="m 370.40625,24.71875 c -1.21896,0.055 -3.009,1.32548 -4.34375,3.28125 -1.35846,1.9905 -1.46875,2.39848 -1.46875,5.6875 0,1.94128 0.26866,5.58149 0.59375,8.09375 0.54846,4.2386 0.51732,4.95663 -0.34375,10.40625 -0.51038,3.23012 -1.17175,7.16354 -1.5,8.71875 -1.0807,5.12022 -2.47587,20.32571 -2.46875,27.25 0.005,3.60127 -1.52114,10.09539 -3.3125,14.03125 -0.80312,1.76456 -1.46875,3.35218 -1.46875,3.5625 0,0.2103 -0.88607,2.26029 -1.96875,4.53125 -1.08266,2.27093 -2.18364,5.1489 -2.46875,6.40625 -0.56337,2.48423 -0.60589,8.68727 -0.0937,11.34375 0.82422,4.27568 4.70269,5.77164 14.34375,5.4375 3.34972,-0.11617 6.49022,-0.0664 6.96875,0.125 1.44348,0.57693 8.69364,0.45751 11.15625,-0.1875 3.01852,-0.79068 5.5625,-2.04113 5.5625,-2.71875 0,-0.29752 0.28679,-0.84931 0.65625,-1.21875 0.88446,-0.88446 1.12287,-10.77207 0.375,-17.21875 -0.29145,-2.5123 -0.7613,-6.38467 -1,-8.59375 -0.26757,-2.47663 -0.74259,-4.46078 -1.21875,-5.1875 -0.61014,-0.9312 -0.82256,-2.54313 -1.0625,-7.71875 -0.4694,-10.12608 -3.60364,-34.2514 -4.65625,-35.71875 -0.6506,-0.90693 -2.61281,-7.11437 -3.4375,-10.875 -0.4722,-2.15338 -1.18449,-4.50095 -1.5625,-5.21875 -0.37798,-0.7178 -0.68648,-1.74174 -0.6875,-2.25 -0.006,-1.99126 -3.76803,-10.59375 -4.625,-10.59375 -0.29447,0 -0.61226,-0.29736 -0.75,-0.65625 -0.19942,-0.51945 -0.66467,-0.74374 -1.21875,-0.71875 z m -0.78125,3.1875 c 0.53063,0.0218 1.06857,0.31195 1.65625,0.9375 1.22282,1.30163 3.70483,7.18902 4.65625,11.03125 0.96106,3.88138 3.11177,10.85205 3.9375,12.6875 0.35848,0.79683 0.96312,3.63997 1.3125,6.3125 0.57346,4.38623 2.18804,16.4577 3.1875,23.78125 1.09928,8.05503 0.97988,11.13117 -0.3125,9 -0.44255,-0.72979 -3.6686,-2.93992 -6.1875,-4.21875 -1.67543,-0.8505 -2.38363,-0.92845 -5.15625,-0.71875 -3.4246,0.25899 -5.45158,1.25501 -8.0625,3.96875 -0.67079,0.69721 -1.49043,1.75608 -1.84375,2.375 -0.58036,1.01686 -0.61924,0.51173 -0.375,-5.1875 0.34776,-8.11438 1.59313,-18.72531 3.28125,-28.0625 2.80258,-15.50129 2.77703,-14.46019 1.25,-24.34375 -0.60502,-3.91611 -0.41,-5.4655 0.96875,-6.75 0.61818,-0.57595 1.15687,-0.83433 1.6875,-0.8125 z M 373.5625,88.75 c 5.3697,0.008 8.3207,2.38893 11.75,9.375 0.94655,1.92831 1.41505,3.39976 3,9.3125 0.2245,0.8374 0.64063,4.5983 0.90625,8.3125 0.41907,5.85977 0.40264,7.21401 -0.21875,10.21875 -0.81056,3.91935 -1.77231,5.00388 -4.9375,5.8125 -2.00584,0.51243 -7.58585,0.53635 -11.65625,0.0312 -1.43559,-0.17811 -5.32867,-0.34899 -8.6875,-0.375 -5.41217,-0.0419 -6.34231,-0.16382 -8.0625,-1.03125 -1.53661,-0.77486 -2.06973,-1.34125 -2.53125,-2.71875 -1.19948,-3.57999 0.34702,-10.09618 4.25,-17.9375 0.97759,-1.96405 1.78125,-3.75636 1.78125,-3.96875 0,-0.66259 1.40811,-3.28254 2.25,-4.21875 0.442,-0.49154 1.28972,-2.17652 1.90625,-3.71875 1.54978,-3.87668 3.49337,-6.56914 5.65625,-7.9375 1.49456,-0.94548 2.32431,-1.1593 4.59375,-1.15625 z" />
  </g>
</svg>
