<?xml version="1.0" encoding="UTF-8" standalone="no"?>
<!-- Created with Inkscape (http://www.inkscape.org/) -->

<svg
   xmlns:dc="http://purl.org/dc/elements/1.1/"
   xmlns:cc="http://creativecommons.org/ns#"
   xmlns:rdf="http://www.w3.org/1999/02/22-rdf-syntax-ns#"
   xmlns:svg="http://www.w3.org/2000/svg"
   xmlns="http://www.w3.org/2000/svg"
   xmlns:sodipodi="http://sodipodi.sourceforge.net/DTD/sodipodi-0.dtd"
   xmlns:inkscape="http://www.inkscape.org/namespaces/inkscape"
   width="900"
   height="800"
   id="svg2"
   version="1.1"
   inkscape:version="0.48.2 r9819"
   sodipodi:docname="l9.svg">
  <defs
     id="defs4" />
  <sodipodi:namedview
     id="base"
     pagecolor="#ffffff"
     bordercolor="#666666"
     borderopacity="1.0"
     inkscape:pageopacity="0.0"
     inkscape:pageshadow="2"
     inkscape:zoom="1.4142136"
     inkscape:cx="510.20531"
     inkscape:cy="597.9668"
     inkscape:document-units="px"
     inkscape:current-layer="layer1"
     showgrid="false"
     showguides="true"
     inkscape:guide-bbox="true"
     inkscape:window-width="1366"
     inkscape:window-height="746"
     inkscape:window-x="-8"
     inkscape:window-y="-8"
     inkscape:window-maximized="1"
     width="0px"
     height="0px"
     fit-margin-top="0"
     fit-margin-left="0"
     fit-margin-right="0"
     fit-margin-bottom="0">
    <sodipodi:guide
       orientation="1,0"
       position="450,784"
       id="guide3178" />
    <sodipodi:guide
       orientation="0,1"
       position="-61,400"
       id="guide3180" />
  </sodipodi:namedview>
  <metadata
     id="metadata7">
    <rdf:RDF>
      <cc:Work
         rdf:about="">
        <dc:format>image/svg+xml</dc:format>
        <dc:type
           rdf:resource="http://purl.org/dc/dcmitype/StillImage" />
        <dc:title></dc:title>
      </cc:Work>
    </rdf:RDF>
  </metadata>
  <g
     inkscape:label="Layer 1"
     inkscape:groupmode="layer"
     id="layer1"
     transform="translate(0,-252.36218)">
    <path
       id="rect3053"
       transform="translate(0,252.36218)"
       style="fill:#ff0000"
       d="m 417.65625,28 c -1.37798,0.0621 -3.39738,1.47659 -4.90625,3.6875 -1.53568,2.25016 -1.65625,2.71941 -1.65625,6.4375 0,2.19453 0.25751,6.285 0.625,9.125 0.62002,4.79154 0.62965,5.62071 -0.34375,11.78125 -0.57696,3.65149 -1.34768,8.08566 -1.71875,9.84375 -1.22168,5.78817 -2.78929,23.01616 -2.78125,30.84375 0.005,4.07107 -1.72495,11.36319 -3.75,15.8125 -0.90789,1.99475 -1.65625,3.82476 -1.65625,4.0625 0,0.23774 -0.99483,2.52654 -2.21875,5.09375 -1.22388,2.56719 -2.4902,5.82863 -2.8125,7.25 -0.63686,2.8083 -0.67267,9.84072 -0.0937,12.84375 0.93174,4.83345 5.31999,6.50273 16.21875,6.125 3.7867,-0.13132 7.3028,-0.0601 7.84375,0.15625 1.63179,0.65219 9.87239,0.51039 12.65625,-0.21875 3.41229,-0.89384 6.28125,-2.29648 6.28125,-3.0625 0,-0.33632 0.33234,-0.98862 0.75,-1.40625 0.99984,-0.99985 1.25169,-12.14982 0.40625,-19.4375 -0.32946,-2.84002 -0.85515,-7.2215 -1.125,-9.71875 -0.30247,-2.79972 -0.83672,-5.05348 -1.375,-5.875 -0.68973,-1.05268 -0.94751,-2.86795 -1.21875,-8.71875 C 436.25062,91.17793 432.68993,63.90876 431.5,62.25 c -0.73548,-1.02525 -2.94272,-8.03003 -3.875,-12.28125 -0.53379,-2.43431 -1.32268,-5.09481 -1.75,-5.90625 -0.4273,-0.81145 -0.7801,-1.95668 -0.78125,-2.53125 -0.006,-2.25103 -4.24999,-12 -5.21875,-12 -0.33288,0 -0.68804,-0.31303 -0.84375,-0.71875 -0.22544,-0.5872 -0.74863,-0.84073 -1.375,-0.8125 z M 416.75,31.5625 c 0.59986,0.0247 1.21066,0.3866 1.875,1.09375 1.38234,1.47143 4.20572,8.12528 5.28125,12.46875 1.08643,4.38771 3.50405,12.26886 4.4375,14.34375 0.40525,0.90078 1.07378,4.10383 1.46875,7.125 0.64826,4.95842 2.49515,18.59608 3.625,26.875 1.24268,9.10585 1.11723,12.59668 -0.34375,10.1875 -0.50028,-0.825 -4.15249,-3.33558 -7,-4.78125 -1.89398,-0.96144 -2.67818,-1.04955 -5.8125,-0.8125 -3.87134,0.29278 -6.17348,1.43224 -9.125,4.5 -0.75829,0.78816 -1.69434,1.98785 -2.09375,2.6875 -0.65608,1.14952 -0.68235,0.56771 -0.40625,-5.875 0.39313,-9.17293 1.77916,-21.16349 3.6875,-31.71875 3.16818,-17.52347 3.13248,-16.35835 1.40625,-27.53125 -0.68395,-4.42698 -0.46487,-6.17294 1.09375,-7.625 0.69882,-0.65109 1.30639,-0.96217 1.90625,-0.9375 z m 4.46875,68.8125 c 6.0702,0.009 9.40459,2.66507 13.28125,10.5625 1.07003,2.17986 1.61454,3.87843 3.40625,10.5625 0.25378,0.94664 0.69973,5.17628 1,9.375 0.47374,6.62421 0.45245,8.1658 -0.25,11.5625 -0.9163,4.43064 -1.98441,5.64839 -5.5625,6.5625 -2.26751,0.57928 -8.58611,0.60228 -13.1875,0.0312 -1.62286,-0.20135 -6.0155,-0.4081 -9.8125,-0.4375 -6.11821,-0.0474 -7.18041,-0.14439 -9.125,-1.125 -1.73706,-0.87594 -2.32203,-1.53653 -2.84375,-3.09375 -1.35596,-4.04701 0.36912,-11.38574 4.78125,-20.25 1.10512,-2.22027 2,-4.25991 2,-4.5 0,-0.74903 1.61078,-3.69167 2.5625,-4.75 0.49966,-0.55567 1.4593,-2.47534 2.15625,-4.21875 1.75196,-4.38241 3.92997,-7.42188 6.375,-8.96875 1.68954,-1.06882 2.65327,-1.31593 5.21875,-1.3125 z" />
  </g>
</svg>
