<?xml version="1.0" encoding="UTF-8" standalone="no"?>
<!-- Created with Inkscape (http://www.inkscape.org/) -->

<svg
   xmlns:dc="http://purl.org/dc/elements/1.1/"
   xmlns:cc="http://creativecommons.org/ns#"
   xmlns:rdf="http://www.w3.org/1999/02/22-rdf-syntax-ns#"
   xmlns:svg="http://www.w3.org/2000/svg"
   xmlns="http://www.w3.org/2000/svg"
   xmlns:sodipodi="http://sodipodi.sourceforge.net/DTD/sodipodi-0.dtd"
   xmlns:inkscape="http://www.inkscape.org/namespaces/inkscape"
   width="900"
   height="800"
   id="svg2"
   version="1.1"
   inkscape:version="0.48.2 r9819"
   sodipodi:docname="m8.svg">
  <defs
     id="defs4" />
  <sodipodi:namedview
     id="base"
     pagecolor="#ffffff"
     bordercolor="#666666"
     borderopacity="1.0"
     inkscape:pageopacity="0.0"
     inkscape:pageshadow="2"
     inkscape:zoom="1.4142136"
     inkscape:cx="510.20531"
     inkscape:cy="597.9668"
     inkscape:document-units="px"
     inkscape:current-layer="layer1"
     showgrid="false"
     showguides="true"
     inkscape:guide-bbox="true"
     inkscape:window-width="1366"
     inkscape:window-height="746"
     inkscape:window-x="-8"
     inkscape:window-y="-8"
     inkscape:window-maximized="1"
     width="0px"
     height="0px"
     fit-margin-top="0"
     fit-margin-left="0"
     fit-margin-right="0"
     fit-margin-bottom="0">
    <sodipodi:guide
       orientation="1,0"
       position="450,784"
       id="guide3178" />
    <sodipodi:guide
       orientation="0,1"
       position="-61,400"
       id="guide3180" />
  </sodipodi:namedview>
  <metadata
     id="metadata7">
    <rdf:RDF>
      <cc:Work
         rdf:about="">
        <dc:format>image/svg+xml</dc:format>
        <dc:type
           rdf:resource="http://purl.org/dc/dcmitype/StillImage" />
        <dc:title></dc:title>
      </cc:Work>
    </rdf:RDF>
  </metadata>
  <g
     inkscape:label="Layer 1"
     inkscape:groupmode="layer"
     id="layer1"
     transform="translate(0,-252.36218)">
    <path
       id="rect3061"
       transform="translate(0,252.36218)"
       style="fill:#ff0000"
       d="m 425.9375,232.71875 c -8.61126,0.1113 -20.08973,1.37935 -23.25,2.6875 -2.79619,1.1574 -3.24019,2.10888 -3.78125,8.25 -0.67952,7.7125 0.73201,23.29241 3.25,36.1875 0.673,3.44661 1.37395,7.26507 3,16.25 0.36711,2.0286 1.34592,7.00532 2.1875,11.0625 3.84552,18.53943 4.6602,25.17869 4.21875,35.1875 -0.31816,7.21357 -0.27191,7.81205 0.75,10.1875 0.59655,1.38673 1.45989,2.63154 1.90625,2.75 5.85406,1.55419 9.1273,-2.38485 11.625,-13.9375 0.4386,-2.02857 1.09865,-4.49218 1.46875,-5.46875 0.37004,-0.97654 1.02842,-4.6074 1.46875,-8.09375 0.44033,-3.48635 1.21265,-8.26343 1.71875,-10.5625 0.5061,-2.29907 1.3671,-6.57853 1.9375,-9.53125 0.57039,-2.95271 1.13592,-5.50279 1.25,-5.6875 0.11419,-0.18472 0.5916,-2.99993 1.03125,-6.21875 3.29173,-24.09935 4.33741,-30.99 5.375,-34.84375 1.84797,-6.86352 2.7999,-21.38199 1.5625,-23.84375 -0.33991,-0.67621 -1.79938,-1.88672 -3.28125,-2.6875 -2.49623,-1.34893 -3.17974,-1.47212 -8.9375,-1.65625 -1.07992,-0.0345 -2.26983,-0.0471 -3.5,-0.0312 z m 6.96875,1.9375 c 4.12249,0.0504 5.16462,0.73063 6.78125,2.84375 1.27342,1.66456 1.3727,2.07688 1.34375,6.1875 -0.0331,4.71535 -1.14431,9.03789 -3.46875,13.625 -0.65834,1.29914 -1.15625,2.61357 -1.15625,2.9375 0,0.32395 -0.80333,2.25557 -1.75,4.25 -0.94668,1.99443 -1.71875,3.75506 -1.71875,3.9375 0,0.18244 -0.85527,2.10731 -1.90625,4.28125 -1.05098,2.17393 -2.71701,5.67025 -3.71875,7.75 -1.24663,2.58826 -2.66759,4.5465 -4.46875,6.25 -2.21764,2.09735 -2.92106,2.50273 -4.5,2.5 -2.10406,-0.004 -4.32542,-1.25744 -5.3125,-3 -1.45978,-2.57702 -2.35714,-4.72793 -2.75,-6.6875 -0.46833,-2.3359 -2.48873,-7.69562 -6.59375,-17.375 -2.48697,-5.86412 -2.84423,-7.18592 -3.1875,-11.3125 -0.38693,-4.65103 -0.0434,-8.68714 1.0625,-11.5 1.20354,-3.06174 4.75523,-3.6554 26.0625,-4.53125 2.19678,-0.0901 3.90709,-0.17302 5.28125,-0.15625 z m 0,3.4375 c -0.0936,-9.2e-4 -0.1645,0.0394 -0.21875,0.0937 -0.0999,0.0999 0.39874,1.32901 1.09375,2.78125 1.54484,3.228 1.36681,5.82545 -0.71875,9.875 -4.40533,8.55386 -6.04976,11.54973 -6.5,12 -0.27708,0.27705 -0.5,0.71925 -0.5,0.96875 0,0.24949 0.37043,0.13961 0.84375,-0.21875 C 429.00857,262.00203 430,260.93576 430,260.25 c 0,-0.40637 1.06853,-2.50383 2.375,-4.6875 3.90064,-6.51951 4.99635,-11.68539 3.25,-15.0625 -0.59541,-1.15148 -2.06437,-2.39855 -2.71875,-2.40625 z m -25.6875,6.5625 c -0.26765,0.0499 -1.01274,0.69932 -1.75,1.59375 -2.3611,2.86441 -1.92103,6.49001 1.625,13.46875 1.16818,2.29907 2.26412,4.69882 2.46875,5.375 0.20462,0.6762 0.74059,1.65169 1.15625,2.125 1.11892,1.27424 1.91859,1.03879 2.53125,-0.71875 0.30033,-0.86148 0.88061,-1.96024 1.3125,-2.4375 0.74325,-0.82124 0.69838,-0.86122 -1.0625,-0.375 -1.67191,0.46163 -1.97457,0.42407 -2.71875,-0.5625 -2.04978,-2.71745 -4.3244,-8.253 -4.90625,-11.90625 -0.59439,-3.73207 -0.57787,-3.85063 0.53125,-5.03125 0.62571,-0.66603 1.02515,-1.3811 0.875,-1.53125 -0.0188,-0.0187 -0.0243,-0.007 -0.0625,0 z m 29.03125,21.8125 c 0.16331,-0.10419 0.15625,0.27705 0.15625,1.0625 0,0.86953 -0.27367,2.02281 -0.5625,2.5625 -0.61902,1.15666 -1.62058,9.48742 -2.875,23.53125 -0.27779,3.11051 -0.7852,7.31516 -1.15625,9.34375 -1.18333,6.47002 -2.80767,14.42831 -3.5,17.21875 -0.36909,1.48762 -0.95571,4.2629 -1.28125,6.15625 -0.32556,1.89337 -1.02435,5.17993 -1.5625,7.34375 -0.53814,2.16384 -1.14197,5.04684 -1.375,6.375 -0.23301,1.32814 -0.8871,3.82756 -1.4375,5.53125 -0.5504,1.70366 -1.03125,3.42774 -1.03125,3.84375 0,0.41599 -0.77184,1.63606 -1.75,2.71875 -2.26157,2.50331 -4.07006,2.65247 -5.625,0.46875 -1.46455,-2.05676 -1.70681,-4.62112 -0.8125,-8.625 0.92267,-4.13089 0.69483,-10.20242 -0.6875,-18.0625 -0.53349,-3.03337 -1.27959,-7.50318 -1.6875,-9.9375 -0.4079,-2.43428 -1.17409,-6.26344 -1.6875,-8.5625 -1.46891,-6.57789 -1.97736,-9.40813 -2.21875,-12.84375 -0.12352,-1.75812 -0.56539,-4.81515 -1,-6.84375 -1.483,-6.92207 -3.55858,-20.81145 -2.875,-19.21875 0.17414,0.40571 0.81117,1.43858 1.40625,2.25 0.59505,0.81147 2.22754,4.61474 3.65625,8.46875 2.57747,6.95276 2.64624,7.02887 5.78125,9.78125 l 3.15625,2.78125 1.9375,-0.59375 c 1.27843,-0.38303 3.09826,-1.71493 5.3125,-3.875 3.35394,-3.27187 4.77397,-5.44169 5.96875,-9.21875 0.62576,-1.97814 2.18682,-5.28417 4.59375,-9.75 0.64523,-1.19713 0.99293,-1.80206 1.15625,-1.90625 z" />
  </g>
</svg>
