<?xml version="1.0" encoding="UTF-8" standalone="no"?>
<!-- Created with Inkscape (http://www.inkscape.org/) -->

<svg
   xmlns:dc="http://purl.org/dc/elements/1.1/"
   xmlns:cc="http://creativecommons.org/ns#"
   xmlns:rdf="http://www.w3.org/1999/02/22-rdf-syntax-ns#"
   xmlns:svg="http://www.w3.org/2000/svg"
   xmlns="http://www.w3.org/2000/svg"
   xmlns:sodipodi="http://sodipodi.sourceforge.net/DTD/sodipodi-0.dtd"
   xmlns:inkscape="http://www.inkscape.org/namespaces/inkscape"
   width="800"
   height="700"
   id="svg2"
   version="1.1"
   inkscape:version="0.48.2 r9819"
   sodipodi:docname="m8.svg">
  <defs
     id="defs4" />
  <sodipodi:namedview
     id="base"
     pagecolor="#ffffff"
     bordercolor="#666666"
     borderopacity="1.0"
     inkscape:pageopacity="0.0"
     inkscape:pageshadow="2"
     inkscape:zoom="1.4142136"
     inkscape:cx="580.58713"
     inkscape:cy="488.50589"
     inkscape:document-units="px"
     inkscape:current-layer="layer1"
     showgrid="false"
     showguides="true"
     inkscape:guide-bbox="true"
     inkscape:window-width="1366"
     inkscape:window-height="746"
     inkscape:window-x="-8"
     inkscape:window-y="-8"
     inkscape:window-maximized="1"
     width="0px"
     height="0px"
     fit-margin-top="0"
     fit-margin-left="0"
     fit-margin-right="0"
     fit-margin-bottom="0">
    <sodipodi:guide
       orientation="1,0"
       position="400.22244,349.31075"
       id="guide3178" />
    <sodipodi:guide
       orientation="0,1"
       position="400.22244,349.31075"
       id="guide3180" />
  </sodipodi:namedview>
  <metadata
     id="metadata7">
    <rdf:RDF>
      <cc:Work
         rdf:about="">
        <dc:format>image/svg+xml</dc:format>
        <dc:type
           rdf:resource="http://purl.org/dc/dcmitype/StillImage" />
        <dc:title></dc:title>
      </cc:Work>
    </rdf:RDF>
  </metadata>
  <g
     inkscape:label="Layer 1"
     inkscape:groupmode="layer"
     id="layer1"
     transform="translate(0,-352.36218)">
    <path
       id="rect3139"
       transform="translate(0,352.36218)"
       style="fill:#ff0000"
       d="m 377.75,205.8125 c -7.61753,0.0985 -17.76693,1.24906 -20.5625,2.40625 -2.47353,1.02384 -2.86513,1.84881 -3.34375,7.28125 -0.6011,6.82249 0.61632,20.62423 2.84375,32.03125 0.59533,3.04888 1.2491,6.39568 2.6875,14.34375 0.32475,1.7945 1.19304,6.22352 1.9375,9.8125 3.40174,16.4 4.10926,22.2712 3.71875,31.125 -0.28145,6.38114 -0.24773,6.89869 0.65625,9 0.52771,1.22671 1.29265,2.33271 1.6875,2.4375 5.17851,1.37483 8.07178,-2.12427 10.28125,-12.34375 0.38798,-1.79449 0.98511,-3.94861 1.3125,-4.8125 0.32734,-0.86383 0.89173,-4.10346 1.28125,-7.1875 0.38951,-3.08404 1.08356,-7.27874 1.53125,-9.3125 0.4477,-2.03376 1.21418,-5.85676 1.71875,-8.46875 0.50457,-2.61195 1.02409,-4.83661 1.125,-5 0.10101,-0.1634 0.48609,-2.65263 0.875,-5.5 2.91188,-21.31832 3.83214,-27.43472 4.75,-30.84375 1.63471,-6.07148 2.50085,-18.91607 1.40625,-21.09375 -0.30069,-0.59817 -1.59538,-1.66663 -2.90625,-2.375 -2.20816,-1.19327 -2.81293,-1.30587 -7.90625,-1.46875 -0.95529,-0.0305 -2.00554,-0.0452 -3.09375,-0.0312 z m 6.15625,1.71875 c 3.64676,0.0446 4.56993,0.66197 6,2.53125 1.12648,1.47246 1.21311,1.83251 1.1875,5.46875 -0.0293,4.17121 -1.0063,8.00474 -3.0625,12.0625 -0.58237,1.14923 -1.03125,2.3072 -1.03125,2.59375 0,0.28656 -0.69382,1.98575 -1.53125,3.75 -0.83742,1.76429 -1.53125,3.3386 -1.53125,3.5 0,0.16138 -0.75779,1.82691 -1.6875,3.75 -0.9297,1.92304 -2.39511,5.03525 -3.28125,6.875 -1.10277,2.28959 -2.34419,4.02433 -3.9375,5.53125 -1.96172,1.85532 -2.60326,2.22116 -4,2.21875 -1.86125,-0.004 -3.84557,-1.11477 -4.71875,-2.65625 -1.29131,-2.27963 -2.05873,-4.17281 -2.40625,-5.90625 -0.41429,-2.06632 -2.21244,-6.81261 -5.84375,-15.375 -2.19998,-5.1874 -2.50885,-6.34963 -2.8125,-10 -0.34228,-4.1143 -0.0408,-7.69924 0.9375,-10.1875 1.06465,-2.70843 4.21407,-3.25648 23.0625,-4.03125 1.94327,-0.0797 3.44066,-0.13984 4.65625,-0.125 z m 0,3.0625 c -0.0828,-8.3e-4 -0.13951,0.0143 -0.1875,0.0625 -0.0883,0.0883 0.35394,1.1841 0.96875,2.46875 1.36656,2.85548 1.18864,5.16777 -0.65625,8.75 -3.89696,7.56676 -5.35172,10.19544 -5.75,10.59375 -0.24511,0.24508 -0.4375,0.62302 -0.4375,0.84375 0,0.22069 0.3313,0.1295 0.75,-0.1875 1.85972,-1.40803 2.75,-2.33087 2.75,-2.9375 0,-0.35947 0.93805,-2.22457 2.09375,-4.15625 3.45051,-5.76717 4.41982,-10.32511 2.875,-13.3125 -0.52671,-1.01861 -1.82739,-2.1182 -2.40625,-2.125 z m -22.71875,5.8125 c -0.23677,0.0442 -0.87907,0.61504 -1.53125,1.40625 -2.08862,2.53387 -1.69933,5.73285 1.4375,11.90625 1.03337,2.03377 2.00649,4.15185 2.1875,4.75 0.18101,0.59816 0.63231,1.45631 1,1.875 0.98979,1.1272 1.67678,0.92972 2.21875,-0.625 0.26567,-0.76207 0.80544,-1.73407 1.1875,-2.15625 0.65748,-0.72647 0.58893,-0.77386 -0.96875,-0.34375 -1.47898,0.40836 -1.7167,0.37272 -2.375,-0.5 -1.81323,-2.40387 -3.82905,-7.29958 -4.34375,-10.53125 -0.5258,-3.30138 -0.51238,-3.39311 0.46875,-4.4375 0.5535,-0.58916 0.91408,-1.21093 0.78125,-1.34375 -0.0166,-0.0165 -0.0288,-0.007 -0.0625,0 z m 25.6875,19.28125 c 0.14447,-0.0922 0.125,0.2427 0.125,0.9375 0,0.76921 -0.2445,1.77258 -0.5,2.25 -0.54759,1.02319 -1.4216,8.42057 -2.53125,20.84375 -0.24574,2.75156 -0.70302,6.45549 -1.03125,8.25 -1.04677,5.72338 -2.48132,12.78157 -3.09375,15.25 -0.3265,1.31594 -0.83702,3.76265 -1.125,5.4375 -0.28799,1.67488 -0.89895,4.58588 -1.375,6.5 -0.47604,1.91414 -1.04387,4.45011 -1.25,5.625 -0.20613,1.17488 -0.76312,3.36791 -1.25,4.875 -0.48689,1.50706 -0.90625,3.03825 -0.90625,3.40625 0,0.368 -0.69723,1.44849 -1.5625,2.40625 -2.00059,2.21442 -3.59325,2.36921 -4.96875,0.4375 -1.29555,-1.8194 -1.50986,-4.08316 -0.71875,-7.625 0.81619,-3.65418 0.59781,-9.04696 -0.625,-16 -0.47192,-2.68332 -1.13917,-6.62785 -1.5,-8.78125 -0.36083,-2.15337 -1.01459,-5.56 -1.46875,-7.59375 -1.2994,-5.81881 -1.72396,-8.3046 -1.9375,-11.34375 -0.10927,-1.55525 -0.5218,-4.268 -0.90625,-6.0625 -1.31187,-6.12328 -3.13594,-18.37766 -2.53125,-16.96875 0.15405,0.35889 0.69235,1.25097 1.21875,1.96875 0.52639,0.71782 1.98617,4.0595 3.25,7.46875 2.28004,6.15043 2.35177,6.25274 5.125,8.6875 l 2.78125,2.4375 1.71875,-0.5 c 1.1309,-0.33883 2.72878,-1.52671 4.6875,-3.4375 2.9669,-2.8943 4.22435,-4.81505 5.28125,-8.15625 0.55355,-1.74987 1.93333,-4.67451 4.0625,-8.625 0.57077,-1.05897 0.88678,-1.59533 1.03125,-1.6875 z" />
  </g>
</svg>
