<?xml version="1.0" encoding="UTF-8" standalone="no"?>
<!-- Created with Inkscape (http://www.inkscape.org/) -->

<svg
   xmlns:dc="http://purl.org/dc/elements/1.1/"
   xmlns:cc="http://creativecommons.org/ns#"
   xmlns:rdf="http://www.w3.org/1999/02/22-rdf-syntax-ns#"
   xmlns:svg="http://www.w3.org/2000/svg"
   xmlns="http://www.w3.org/2000/svg"
   xmlns:sodipodi="http://sodipodi.sourceforge.net/DTD/sodipodi-0.dtd"
   xmlns:inkscape="http://www.inkscape.org/namespaces/inkscape"
   width="800"
   height="700"
   id="svg2"
   version="1.1"
   inkscape:version="0.48.2 r9819"
   sodipodi:docname="f8.svg">
  <defs
     id="defs4" />
  <sodipodi:namedview
     id="base"
     pagecolor="#ffffff"
     bordercolor="#666666"
     borderopacity="1.0"
     inkscape:pageopacity="0.0"
     inkscape:pageshadow="2"
     inkscape:zoom="2.5"
     inkscape:cx="360.94843"
     inkscape:cy="529.81956"
     inkscape:document-units="px"
     inkscape:current-layer="layer1"
     showgrid="false"
     showguides="true"
     inkscape:guide-bbox="true"
     inkscape:window-width="1366"
     inkscape:window-height="746"
     inkscape:window-x="-8"
     inkscape:window-y="-8"
     inkscape:window-maximized="1"
     width="0px"
     height="0px"
     fit-margin-top="0"
     fit-margin-left="0"
     fit-margin-right="0"
     fit-margin-bottom="0">
    <sodipodi:guide
       orientation="1,0"
       position="400.22244,349.31075"
       id="guide3178" />
    <sodipodi:guide
       orientation="0,1"
       position="400.22244,349.31075"
       id="guide3180" />
  </sodipodi:namedview>
  <metadata
     id="metadata7">
    <rdf:RDF>
      <cc:Work
         rdf:about="">
        <dc:format>image/svg+xml</dc:format>
        <dc:type
           rdf:resource="http://purl.org/dc/dcmitype/StillImage" />
        <dc:title></dc:title>
      </cc:Work>
    </rdf:RDF>
  </metadata>
  <g
     inkscape:label="Layer 1"
     inkscape:groupmode="layer"
     id="layer1"
     transform="translate(0,-352.36218)">
    <path
       id="rect3102"
       transform="translate(0,352.36218)"
       style="fill:#ff0000"
       d="m 377.09375,143.78125 c -2.55537,0.0729 -5.22648,0.45602 -7.53125,1.15625 -5.5557,1.6879 -8.36192,3.1609 -10.125,5.3125 -2.34847,2.86602 -3.75,6.42117 -3.75,9.46875 0,3.07056 0.8155,4.87983 3.90625,8.59375 1.20014,1.44212 2.1875,2.71737 2.1875,2.84375 0,0.46496 9.30059,9.52395 10.59375,10.3125 2.94417,1.79537 7.08699,0.62938 9.15625,-2.59375 1.09377,-1.70369 4.48073,-5.21772 9.125,-9.5 2.2815,-2.10368 3.22591,-3.41413 4.40625,-5.96875 1.64143,-3.55267 1.85477,-5.60577 0.84375,-7.78125 -1.09422,-2.35455 -2.41692,-4.42586 -3.28125,-5.03125 -0.45229,-0.31679 -0.84375,-0.8117 -0.84375,-1.125 0,-0.87645 -5.1093,-4.10543 -7.8125,-4.9375 -1.88645,-0.58067 -4.31963,-0.8229 -6.875,-0.75 z m -0.125,2.03125 c 3.36218,0.0418 7.16998,0.3967 8.625,0.9375 2.69416,1.00133 4.65849,2.70613 6.9375,6.09375 2.60342,3.86986 2.86612,5.98077 1.25,9.40625 -2.01178,4.26411 -2.10656,4.40088 -10.28125,11.5625 -0.82693,0.72442 -1.77466,1.85974 -2.125,2.53125 -0.84381,1.61743 -3.31713,3.75 -4.34375,3.75 -0.45066,0 -1.08754,0.0779 -1.40625,0.1875 -0.76931,0.26475 -3.67942,-0.77521 -4.6875,-1.6875 -0.44148,-0.39954 -1.08592,-1.24535 -1.40625,-1.90625 -0.32032,-0.66094 -1.54983,-2.04677 -2.6875,-3.03125 -2.53341,-2.19231 -7.6875,-8.04423 -7.6875,-8.71875 0,-0.27055 -0.19824,-0.5 -0.4375,-0.5 -0.61984,0 -0.55416,-3.93456 0.0937,-5.3125 1.20578,-2.56414 5.12285,-3.22007 12.34375,-2.09375 3.69051,0.57563 4.17034,0.51669 8.03125,-0.34375 7.09718,-1.58171 9.09462,-1.59771 11.90625,-0.21875 2.83202,1.38896 3.6756,1.02972 1.71875,-0.71875 -2.57081,-2.29698 -7.44476,-2.74112 -13.71875,-1.25 -3.58957,0.85309 -4.21743,0.87566 -7.25,0.375 -3.77877,-0.62381 -9.7209,-0.75172 -11.5,-0.25 -1.01575,0.28646 -1.1875,0.23099 -1.1875,-0.5 0,-1.20469 2.34638,-4.0475 4.53125,-5.46875 1.01012,-0.65708 2.78674,-1.40379 3.96875,-1.65625 1.18201,-0.25245 3.11618,-0.6541 4.3125,-0.90625 1.09595,-0.23107 2.98268,-0.30631 5,-0.28125 z m -6.40625,12.75 c -2.17449,-0.0558 -4.18891,0.3452 -5.375,1.125 -2.37549,1.56181 -2.78689,2.53563 -1.8125,4.34375 1.65122,3.06418 6.49778,9.05139 7.75,9.5625 1.38448,0.56512 1.41517,0.51954 1.1875,-1.5 -0.15193,-1.34795 -0.0264,-2.19934 0.46875,-2.90625 0.83625,-1.19392 0.96202,-2.69296 0.1875,-2.4375 -0.29909,0.0987 -0.78098,0.59633 -1.0625,1.15625 -0.99624,1.9816 -1.66815,1.92094 -3.90625,-0.46875 -1.15458,-1.23276 -2.46582,-2.60913 -2.90625,-3.03125 -1.1262,-1.07931 -0.74168,-2.22145 1.03125,-3.125 1.29381,-0.65934 2.1665,-0.74488 6.0625,-0.5 6.01599,0.37805 8.79637,0.37803 12.03125,-0.0312 2.57298,-0.32559 2.7159,-0.28883 3.4375,0.8125 0.69678,1.06345 0.69389,1.20755 0.0312,2.21875 -0.3919,0.59816 -0.85339,1.125 -1.03125,1.125 -0.17783,0 -1.41062,0.95991 -2.71875,2.15625 -1.30816,1.19634 -2.65645,2.1875 -3.03125,2.1875 -0.89198,0 -1.71875,-0.86424 -1.71875,-1.78125 0,-0.71777 -1.19,-1.99753 -1.53125,-1.65625 -0.096,0.096 0.0682,0.99894 0.34375,2.03125 0.4236,1.58698 0.3678,2.07977 -0.25,3.15625 -0.70331,1.22538 -0.67566,1.25 0.15625,1.25 0.77622,0 3.48304,-1.23858 5.8125,-2.6875 0.4774,-0.29694 1.99808,-1.49607 3.375,-2.65625 2.41098,-2.03155 2.5,-2.19577 2.5,-4.21875 0,-1.77016 -0.18563,-2.24318 -1.1875,-3.03125 -1.26216,-0.99281 -0.92031,-0.98493 -8.9375,-0.1875 -2.00265,0.19921 -3.61044,0.119 -5,-0.28125 -1.24245,-0.35797 -2.60156,-0.59148 -3.90625,-0.625 z" />
  </g>
</svg>
