<?xml version="1.0" encoding="UTF-8" standalone="no"?>
<!-- Created with Inkscape (http://www.inkscape.org/) -->

<svg
   xmlns:dc="http://purl.org/dc/elements/1.1/"
   xmlns:cc="http://creativecommons.org/ns#"
   xmlns:rdf="http://www.w3.org/1999/02/22-rdf-syntax-ns#"
   xmlns:svg="http://www.w3.org/2000/svg"
   xmlns="http://www.w3.org/2000/svg"
   xmlns:sodipodi="http://sodipodi.sourceforge.net/DTD/sodipodi-0.dtd"
   xmlns:inkscape="http://www.inkscape.org/namespaces/inkscape"
   width="800"
   height="400"
   id="svg2"
   version="1.1"
   inkscape:version="0.48.2 r9819"
   sodipodi:docname="m8.svg">
  <defs
     id="defs4" />
  <sodipodi:namedview
     id="base"
     pagecolor="#ffffff"
     bordercolor="#666666"
     borderopacity="1.0"
     inkscape:pageopacity="0.0"
     inkscape:pageshadow="2"
     inkscape:zoom="2.8284271"
     inkscape:cx="466.95075"
     inkscape:cy="259.65915"
     inkscape:document-units="px"
     inkscape:current-layer="layer1"
     showgrid="false"
     showguides="true"
     inkscape:guide-bbox="true"
     inkscape:window-width="1366"
     inkscape:window-height="746"
     inkscape:window-x="-8"
     inkscape:window-y="-8"
     inkscape:window-maximized="1"
     width="0px"
     height="0px"
     fit-margin-top="0"
     fit-margin-left="0"
     fit-margin-right="0"
     fit-margin-bottom="0">
    <sodipodi:guide
       orientation="1,0"
       position="400.22244,349.31075"
       id="guide3178" />
    <sodipodi:guide
       orientation="0,1"
       position="-117.37973,199.40411"
       id="guide3180" />
  </sodipodi:namedview>
  <metadata
     id="metadata7">
    <rdf:RDF>
      <cc:Work
         rdf:about="">
        <dc:format>image/svg+xml</dc:format>
        <dc:type
           rdf:resource="http://purl.org/dc/dcmitype/StillImage" />
        <dc:title></dc:title>
      </cc:Work>
    </rdf:RDF>
  </metadata>
  <g
     inkscape:label="Layer 1"
     inkscape:groupmode="layer"
     id="layer1"
     transform="translate(0,-652.36218)">
    <path
       id="rect3023"
       transform="translate(0,652.36218)"
       style="fill:#ff0000"
       d="m 378.625,135.5 c -2.5554,0.0729 -5.1952,0.48727 -7.5,1.1875 -5.5557,1.6879 -8.39315,3.12965 -10.15625,5.28125 -2.3485,2.86602 -3.75,6.42117 -3.75,9.46875 0,3.07056 0.81545,4.91108 3.90625,8.625 1.2001,1.44212 2.21875,2.68612 2.21875,2.8125 0,0.46496 9.30055,9.52395 10.59375,10.3125 2.9442,1.79537 7.08695,0.62938 9.15625,-2.59375 1.0938,-1.70369 4.44955,-5.21772 9.09375,-9.5 2.2815,-2.10368 3.2572,-3.41413 4.4375,-5.96875 1.6414,-3.55267 1.85475,-5.60577 0.84375,-7.78125 -1.0942,-2.35455 -2.4481,-4.39461 -3.3125,-5 -0.4523,-0.31679 -0.8125,-0.84295 -0.8125,-1.15625 0,-0.87645 -5.1093,-4.10543 -7.8125,-4.9375 -1.8866,-0.58067 -4.35095,-0.8229 -6.90625,-0.75 z m -0.125,2.03125 c 3.3621,0.0418 7.20115,0.42795 8.65625,0.96875 2.6941,1.00133 4.62715,2.70613 6.90625,6.09375 2.6034,3.86986 2.89735,5.98077 1.28125,9.40625 -2.0118,4.26411 -2.10655,4.36963 -10.28125,11.53125 -0.827,0.72442 -1.7746,1.89099 -2.125,2.5625 -0.8438,1.61743 -3.3484,3.75 -4.375,3.75 -0.4507,0 -1.0563,0.0779 -1.375,0.1875 -0.7693,0.26475 -3.71065,-0.80646 -4.71875,-1.71875 -0.4414,-0.39954 -1.0547,-1.24535 -1.375,-1.90625 -0.3203,-0.66094 -1.5499,-2.04677 -2.6875,-3.03125 -2.5334,-2.19231 -7.71875,-8.04423 -7.71875,-8.71875 0,-0.27055 -0.16705,-0.46875 -0.40625,-0.46875 -0.6199,0 -0.55395,-3.96581 0.0937,-5.34375 1.2058,-2.56414 5.0916,-3.22007 12.3125,-2.09375 3.6905,0.57563 4.17035,0.54794 8.03125,-0.3125 7.0972,-1.58171 9.09455,-1.59771 11.90625,-0.21875 2.832,1.38896 3.67555,0.99847 1.71875,-0.75 -2.5708,-2.29698 -7.44475,-2.70987 -13.71875,-1.21875 -3.5895,0.85309 -4.18615,0.87566 -7.21875,0.375 -3.7788,-0.62381 -9.7209,-0.75172 -11.5,-0.25 -1.0157,0.28646 -1.21875,0.19974 -1.21875,-0.53125 0,-1.20469 2.3777,-4.01625 4.5625,-5.4375 1.0101,-0.65708 2.78675,-1.40379 3.96875,-1.65625 1.182,-0.25245 3.1162,-0.68535 4.3125,-0.9375 1.0962,-0.23107 2.95145,-0.30631 4.96875,-0.28125 z m -6.375,12.78125 c -2.1745,-0.0558 -4.22015,0.31395 -5.40625,1.09375 -2.3755,1.56181 -2.7869,2.53563 -1.8125,4.34375 1.6513,3.06418 6.4978,9.05139 7.75,9.5625 1.3845,0.56512 1.44645,0.55079 1.21875,-1.46875 -0.1519,-1.34795 -0.0265,-2.23059 0.46875,-2.9375 0.8363,-1.19392 0.93075,-2.69296 0.15625,-2.4375 -0.2991,0.0987 -0.74975,0.59633 -1.03125,1.15625 -0.9963,1.9816 -1.66815,1.92094 -3.90625,-0.46875 -1.1546,-1.23276 -2.4971,-2.57788 -2.9375,-3 -1.1262,-1.07931 -0.7104,-2.2527 1.0625,-3.15625 1.2938,-0.65934 2.1665,-0.71363 6.0625,-0.46875 6.016,0.37805 8.79635,0.37803 12.03125,-0.0312 2.5729,-0.32559 2.7159,-0.32008 3.4375,0.78125 0.6968,1.06345 0.69355,1.20755 0.0312,2.21875 -0.3919,0.59816 -0.8846,1.125 -1.0625,1.125 -0.1778,0 -1.3794,0.95991 -2.6875,2.15625 -1.3082,1.19634 -2.6877,2.1875 -3.0625,2.1875 -0.892,0 -1.71875,-0.86424 -1.71875,-1.78125 0,-0.71777 -1.1587,-1.99753 -1.5,-1.65625 -0.096,0.096 0.0684,0.99894 0.34375,2.03125 0.4236,1.58698 0.3678,2.07977 -0.25,3.15625 -0.7033,1.22538 -0.67565,1.28125 0.15625,1.28125 0.7762,0 3.483,-1.26983 5.8125,-2.71875 0.4774,-0.29694 1.96685,-1.49607 3.34375,-2.65625 2.411,-2.03155 2.53125,-2.16452 2.53125,-4.1875 0,-1.77016 -0.1857,-2.27443 -1.1875,-3.0625 -1.2622,-0.99281 -0.9203,-0.98493 -8.9375,-0.1875 -2.0026,0.19921 -3.6104,0.119 -5,-0.28125 -1.2427,-0.35797 -2.60165,-0.56023 -3.90625,-0.59375 z" />
  </g>
</svg>
