<?xml version="1.0" encoding="UTF-8" standalone="no"?>
<!-- Created with Inkscape (http://www.inkscape.org/) -->

<svg
   xmlns:dc="http://purl.org/dc/elements/1.1/"
   xmlns:cc="http://creativecommons.org/ns#"
   xmlns:rdf="http://www.w3.org/1999/02/22-rdf-syntax-ns#"
   xmlns:svg="http://www.w3.org/2000/svg"
   xmlns="http://www.w3.org/2000/svg"
   xmlns:sodipodi="http://sodipodi.sourceforge.net/DTD/sodipodi-0.dtd"
   xmlns:inkscape="http://www.inkscape.org/namespaces/inkscape"
   width="900"
   height="800"
   id="svg2"
   version="1.1"
   inkscape:version="0.48.2 r9819"
   sodipodi:docname="f8.svg">
  <defs
     id="defs4" />
  <sodipodi:namedview
     id="base"
     pagecolor="#ffffff"
     bordercolor="#666666"
     borderopacity="1.0"
     inkscape:pageopacity="0.0"
     inkscape:pageshadow="2"
     inkscape:zoom="1.4142136"
     inkscape:cx="510.20531"
     inkscape:cy="597.9668"
     inkscape:document-units="px"
     inkscape:current-layer="layer1"
     showgrid="false"
     showguides="true"
     inkscape:guide-bbox="true"
     inkscape:window-width="1366"
     inkscape:window-height="746"
     inkscape:window-x="-8"
     inkscape:window-y="-8"
     inkscape:window-maximized="1"
     width="0px"
     height="0px"
     fit-margin-top="0"
     fit-margin-left="0"
     fit-margin-right="0"
     fit-margin-bottom="0">
    <sodipodi:guide
       orientation="1,0"
       position="450,784"
       id="guide3178" />
    <sodipodi:guide
       orientation="0,1"
       position="-61,400"
       id="guide3180" />
  </sodipodi:namedview>
  <metadata
     id="metadata7">
    <rdf:RDF>
      <cc:Work
         rdf:about="">
        <dc:format>image/svg+xml</dc:format>
        <dc:type
           rdf:resource="http://purl.org/dc/dcmitype/StillImage" />
        <dc:title></dc:title>
      </cc:Work>
    </rdf:RDF>
  </metadata>
  <g
     inkscape:label="Layer 1"
     inkscape:groupmode="layer"
     id="layer1"
     transform="translate(0,-252.36218)">
    <path
       id="rect3057"
       transform="translate(0,252.36218)"
       style="fill:#ff0000"
       d="m 425.1875,162.5625 c -2.88873,0.0824 -5.89456,0.55216 -8.5,1.34375 -6.28045,1.90809 -9.47567,3.56773 -11.46875,6 -2.65485,3.23991 -4.21875,7.24234 -4.21875,10.6875 0,3.47112 0.9123,5.52034 4.40625,9.71875 1.3567,1.63025 2.46875,3.07588 2.46875,3.21875 0,0.52562 10.53815,10.76483 12,11.65625 3.32824,2.02959 8.00455,0.70609 10.34375,-2.9375 1.23645,-1.92593 5.06237,-5.90908 10.3125,-10.75 2.57912,-2.37811 3.63443,-3.86212 4.96875,-6.75 1.85556,-4.01612 2.11166,-6.32195 0.96875,-8.78125 -1.23697,-2.6617 -2.74166,-5.00313 -3.71875,-5.6875 -0.51129,-0.35812 -0.9375,-0.92709 -0.9375,-1.28125 0,-0.99078 -5.7879,-4.62187 -8.84375,-5.5625 -2.13253,-0.6564 -4.89253,-0.9574 -7.78125,-0.875 z m -1.8125,2.3125 c 0.53849,-0.009 1.11738,-0.007 1.6875,0 3.80079,0.0473 8.10517,0.45115 9.75,1.0625 3.04563,1.13197 5.2362,3.0767 7.8125,6.90625 2.94305,4.3747 3.26445,6.75264 1.4375,10.625 -2.27423,4.82036 -2.38389,4.96663 -11.625,13.0625 -0.93481,0.81894 -2.01021,2.11588 -2.40625,2.875 -0.95388,1.82843 -3.7457,4.21875 -4.90625,4.21875 -0.50945,0 -1.23345,0.0949 -1.59375,0.21875 -0.86966,0.29929 -4.1729,-0.90619 -5.3125,-1.9375 -0.49906,-0.45166 -1.20038,-1.40913 -1.5625,-2.15625 -0.3621,-0.74714 -1.74517,-2.29334 -3.03125,-3.40625 -2.86391,-2.47831 -8.71875,-9.11249 -8.71875,-9.875 0,-0.30585 -0.19828,-0.53125 -0.46875,-0.53125 -0.7007,0 -0.60746,-4.47355 0.125,-6.03125 1.36307,-2.89864 5.74335,-3.64825 13.90625,-2.375 4.17195,0.65071 4.72918,0.62893 9.09375,-0.34375 8.02304,-1.78805 10.29033,-1.80886 13.46875,-0.25 3.20146,1.57014 4.14962,1.1328 1.9375,-0.84375 -2.90618,-2.59665 -8.40755,-3.06064 -15.5,-1.375 -4.05783,0.96438 -4.75932,0.97221 -8.1875,0.40625 -4.27172,-0.7052 -10.98882,-0.84842 -13,-0.28125 -1.14826,0.32383 -1.375,0.26385 -1.375,-0.5625 0,-1.36186 2.6551,-4.58084 5.125,-6.1875 1.14189,-0.74279 3.16379,-1.5896 4.5,-1.875 1.33621,-0.28539 3.52261,-0.74621 4.875,-1.03125 0.92919,-0.19592 2.35327,-0.28681 3.96875,-0.3125 z m -5.53125,14.4375 c -2.45816,-0.0631 -4.78419,0.36848 -6.125,1.25 -2.68539,1.76553 -3.13275,2.86226 -2.03125,4.90625 1.86663,3.46391 7.33443,10.23471 8.75,10.8125 1.56509,0.63885 1.63237,0.59549 1.375,-1.6875 -0.17175,-1.52379 -0.0285,-2.51338 0.53125,-3.3125 0.94535,-1.34968 1.06305,-3.03879 0.1875,-2.75 -0.33811,0.11153 -0.86926,0.67953 -1.1875,1.3125 -1.12621,2.24011 -1.87619,2.1702 -4.40625,-0.53125 -1.30521,-1.39357 -2.81461,-2.92906 -3.3125,-3.40625 -1.27312,-1.2201 -0.81672,-2.54108 1.1875,-3.5625 1.46259,-0.74535 2.4395,-0.80806 6.84375,-0.53125 6.80079,0.42738 9.96811,0.43139 13.625,-0.0312 2.90862,-0.36807 3.05927,-0.33874 3.875,0.90625 0.78768,1.20218 0.78038,1.35688 0.0312,2.5 -0.44303,0.6762 -0.98644,1.25 -1.1875,1.25 -0.20104,0 -1.58373,1.08509 -3.0625,2.4375 -1.47881,1.35241 -3.01381,2.5 -3.4375,2.5 -1.00834,0 -1.9375,-0.9946 -1.9375,-2.03125 0,-0.81141 -1.33298,-2.22955 -1.71875,-1.84375 -0.10856,0.10857 0.0635,1.11427 0.375,2.28125 0.47887,1.79401 0.41716,2.34559 -0.28125,3.5625 -0.79505,1.38525 -0.75294,1.4375 0.1875,1.4375 0.87748,0 3.92915,-1.42457 6.5625,-3.0625 0.53968,-0.33568 2.25596,-1.68848 3.8125,-3 2.7255,-2.29658 2.84375,-2.46312 2.84375,-4.75 0,-2.00108 -0.21118,-2.54662 -1.34375,-3.4375 -1.42682,-1.12232 -1.06194,-1.12021 -10.125,-0.21875 -2.2639,0.22519 -4.05416,0.1087 -5.625,-0.34375 -1.40452,-0.40466 -2.93136,-0.61834 -4.40625,-0.65625 z" />
  </g>
</svg>
