<?xml version="1.0" encoding="UTF-8" standalone="no"?>
<!-- Created with Inkscape (http://www.inkscape.org/) -->

<svg
   xmlns:dc="http://purl.org/dc/elements/1.1/"
   xmlns:cc="http://creativecommons.org/ns#"
   xmlns:rdf="http://www.w3.org/1999/02/22-rdf-syntax-ns#"
   xmlns:svg="http://www.w3.org/2000/svg"
   xmlns="http://www.w3.org/2000/svg"
   xmlns:sodipodi="http://sodipodi.sourceforge.net/DTD/sodipodi-0.dtd"
   xmlns:inkscape="http://www.inkscape.org/namespaces/inkscape"
   width="800"
   height="400"
   id="svg2"
   version="1.1"
   inkscape:version="0.48.2 r9819"
   sodipodi:docname="mq.svg">
  <defs
     id="defs4" />
  <sodipodi:namedview
     id="base"
     pagecolor="#ffffff"
     bordercolor="#666666"
     borderopacity="1.0"
     inkscape:pageopacity="0.0"
     inkscape:pageshadow="2"
     inkscape:zoom="2.8284271"
     inkscape:cx="245.1674"
     inkscape:cy="72.581075"
     inkscape:document-units="px"
     inkscape:current-layer="layer1"
     showgrid="false"
     showguides="true"
     inkscape:guide-bbox="true"
     inkscape:window-width="1366"
     inkscape:window-height="746"
     inkscape:window-x="-8"
     inkscape:window-y="-8"
     inkscape:window-maximized="1"
     width="0px"
     height="0px"
     fit-margin-top="0"
     fit-margin-left="0"
     fit-margin-right="0"
     fit-margin-bottom="0">
    <sodipodi:guide
       orientation="1,0"
       position="400.22244,349.31075"
       id="guide3178" />
  </sodipodi:namedview>
  <metadata
     id="metadata7">
    <rdf:RDF>
      <cc:Work
         rdf:about="">
        <dc:format>image/svg+xml</dc:format>
        <dc:type
           rdf:resource="http://purl.org/dc/dcmitype/StillImage" />
        <dc:title></dc:title>
        <cc:license
           rdf:resource="" />
      </cc:Work>
    </rdf:RDF>
  </metadata>
  <g
     inkscape:label="Layer 1"
     inkscape:groupmode="layer"
     id="layer1"
     transform="translate(0,-652.36218)">
    <path
       id="rect3140"
       transform="translate(0,652.36218)"
       style="fill:#ff0000"
       d="m 357.59375,287.6875 c -1.05492,0.005 -2.174,0.026 -3.34375,0.0937 -7.1871,0.41605 -8.12065,0.70183 -10.3125,3.25 -2.89492,3.36555 -2.65522,6.86015 1.28125,18.25 2.8808,8.33534 4.47074,23.39113 4.8125,45.53125 0.16932,10.9697 0.54326,13.9494 1.96875,16.125 1.70967,2.6093 1.79313,2.61415 3.78125,0.84375 4.47188,-3.9821 6.00662,-12.67548 7.6875,-43.25 0.44765,-8.14247 1.47482,-18.14752 2.28125,-22.21875 1.82267,-9.20163 1.15884,-16.44764 -1.625,-17.9375 -0.88189,-0.472 -3.3665,-0.70276 -6.53125,-0.6875 z m -2.3125,1.84375 c 6.78722,0 9.15625,2.16134 9.15625,8.34375 0,8.82208 -3.22966,19.23459 -6.8125,21.96875 -2.06612,1.57672 -2.0914,1.56716 -5.34375,-1.09375 -2.13256,-1.74476 -3.4039,-4.33395 -5.28125,-11 -3.89639,-13.83524 -1.89832,-18.21875 8.28125,-18.21875 z m 5.6875,30.625 0.3125,4.53125 c 0.16797,2.50012 -0.14366,7.57472 -0.71875,11.28125 -0.57509,3.70653 -1.0535,9.54436 -1.0625,12.96875 -0.008,3.4245 -0.59811,8.7153 -1.3125,11.75 -1.55189,6.5925 -3.98337,10.6002 -5.21875,8.625 -0.44934,-0.7184 -0.8459,-8.2111 -0.875,-16.625 -0.0291,-8.41384 -0.43331,-18.95914 -0.90625,-23.4375 -0.47293,-4.47835 -0.5438,-8.125 -0.15625,-8.125 0.38756,0 1.52995,0.43286 2.53125,0.96875 1.29179,0.69134 2.63639,0.5361 4.625,-0.5 l 2.78125,-1.4375 z" />
  </g>
</svg>
