<?xml version="1.0" encoding="UTF-8" standalone="no"?>
<!-- Created with Inkscape (http://www.inkscape.org/) -->

<svg
   xmlns:dc="http://purl.org/dc/elements/1.1/"
   xmlns:cc="http://creativecommons.org/ns#"
   xmlns:rdf="http://www.w3.org/1999/02/22-rdf-syntax-ns#"
   xmlns:svg="http://www.w3.org/2000/svg"
   xmlns="http://www.w3.org/2000/svg"
   xmlns:sodipodi="http://sodipodi.sourceforge.net/DTD/sodipodi-0.dtd"
   xmlns:inkscape="http://www.inkscape.org/namespaces/inkscape"
   width="800"
   height="400"
   id="svg2"
   version="1.1"
   inkscape:version="0.48.2 r9819"
   sodipodi:docname="ma.svg">
  <defs
     id="defs4" />
  <sodipodi:namedview
     id="base"
     pagecolor="#ffffff"
     bordercolor="#666666"
     borderopacity="1.0"
     inkscape:pageopacity="0.0"
     inkscape:pageshadow="2"
     inkscape:zoom="4"
     inkscape:cx="263.33157"
     inkscape:cy="214.03772"
     inkscape:document-units="px"
     inkscape:current-layer="layer1"
     showgrid="false"
     showguides="true"
     inkscape:guide-bbox="true"
     inkscape:window-width="1366"
     inkscape:window-height="746"
     inkscape:window-x="-8"
     inkscape:window-y="-8"
     inkscape:window-maximized="1"
     width="0px"
     height="0px"
     fit-margin-top="0"
     fit-margin-left="0"
     fit-margin-right="0"
     fit-margin-bottom="0">
    <sodipodi:guide
       orientation="1,0"
       position="400.22244,349.31075"
       id="guide3178" />
  </sodipodi:namedview>
  <metadata
     id="metadata7">
    <rdf:RDF>
      <cc:Work
         rdf:about="">
        <dc:format>image/svg+xml</dc:format>
        <dc:type
           rdf:resource="http://purl.org/dc/dcmitype/StillImage" />
        <dc:title></dc:title>
        <cc:license
           rdf:resource="" />
      </cc:Work>
    </rdf:RDF>
  </metadata>
  <g
     inkscape:label="Layer 1"
     inkscape:groupmode="layer"
     id="layer1"
     transform="translate(0,-652.36218)">
    <path
       style="fill:#ff0000"
       d="m 218.59375,790.89343 c 6.32802,0 9.20447,2.09341 10.21875,7.5 1.20167,6.40546 0.9417,22.44398 -0.4375,27.1875 l -1.3125,4.59375 -2.84375,-1.625 c -2.15423,-1.23091 -3.26334,-1.37678 -4.5625,-0.5625 -2.59495,1.62645 -5.07545,6.44397 -5.15625,10 -0.0472,2.07577 -0.75107,3.51909 -2,4.1875 -5.2039,2.78504 -8.49395,0.17265 -12.96875,-10.25 -2.07763,-4.83919 -4.3609,-9.16128 -5.0625,-9.625 -1.02076,-0.67467 -0.97675,-1.09031 0.21875,-2.0625 0.82171,-0.66823 2.24069,-2.37992 3.15625,-3.8125 0.9831,-1.53826 3.49664,-3.22943 6.125,-4.125 l 4.4375,-1.53125 3.4375,4.78125 c 2.97481,4.14072 3.23771,4.97812 1.96875,6.03125 -0.87929,0.72976 -1.09992,1.55632 -0.5625,2.09375 0.53743,0.53742 2.19031,-0.26148 4.09375,-2 l 3.15625,-2.90625 -3.03125,-2.15625 c -1.67373,-1.1918 -3.0625,-2.7539 -3.0625,-3.46875 0,-0.71486 -1.03063,-1.97259 -2.3125,-2.8125 -1.28187,-0.83992 -2.62702,-2.78295 -2.96875,-4.3125 -0.34173,-1.52955 -1.77202,-4.1215 -3.1875,-5.75 l -2.5625,-2.96875 0.65625,2.96875 c 0.36722,1.6285 1.33112,3.70925 2.15625,4.625 2.00065,2.22036 1.05712,3.466 -3.75,4.90625 -2.19953,0.659 -4.72604,2.24992 -5.625,3.53125 -3.29331,4.69412 -5.30038,6.78038 -4.71875,4.9375 0.29982,-0.94995 0.17516,-1.71875 -0.28125,-1.71875 -0.45642,0 -1.09528,-1.73483 -1.4375,-3.875 -0.59411,-3.71536 -2.08915,-5.84834 -3.28125,-4.65625 -0.30628,0.30628 -0.0885,2.46277 0.5,4.78125 0.9594,3.77975 0.86267,4.45276 -1.03125,6.46875 -1.60564,1.70912 -1.84139,2.53361 -0.96875,3.40625 0.87265,0.87264 1.56191,0.74785 2.90625,-0.46875 1.65339,-1.49631 1.92483,-1.38408 4.09375,1.78125 2.42212,3.53485 7.39772,16.19603 6.65625,16.9375 -0.57147,0.57148 -10.49883,-4.45642 -12.78125,-6.46875 -3.43278,-3.02656 -4.625,-7.83256 -4.625,-18.875 0,-5.82385 0.49421,-11.99891 1.09375,-13.71875 1.72705,-4.95423 7.53495,-7.66026 18,-8.40625 4.79836,-0.34204 9.52986,-1.05783 10.53125,-1.59375 1.0014,-0.53593 4.2061,-0.96875 7.125,-0.96875 z"
       id="path3233" />
    <path
       style="fill:#ff0000"
       d="m 223.96875,802.92468 c -0.53055,0.0381 -1.05186,0.57131 -1.34375,1.6875 -0.29886,1.14286 -0.92673,2.0625 -1.40625,2.0625 -1.56403,0 -0.9152,1.70395 1.8125,4.8125 2.77926,3.1673 5.21053,2.82347 3.65625,-0.53125 -0.45704,-0.98644 -0.8528,-3.10893 -0.875,-4.6875 -0.0299,-2.13224 -0.95949,-3.40727 -1.84375,-3.34375 z"
       id="path3231" />
    <path
       style="fill:#ff0000"
       d="m 221.21875,829.67468 c 0.56565,-0.0775 1.17349,0.34874 2.03125,1.125 2.78472,2.52014 2.55241,3.90102 -1.1875,7.40625 -1.7642,1.65349 -3.4947,2.997 -3.84375,3 -1.49018,0.0107 -1.70536,-3.30227 -0.40625,-6.21875 1.62994,-3.65919 2.4635,-5.18339 3.40625,-5.3125 z"
       id="rect3018" />
  </g>
</svg>
