<?xml version="1.0" encoding="UTF-8" standalone="no"?>
<!-- Created with Inkscape (http://www.inkscape.org/) -->

<svg
   xmlns:dc="http://purl.org/dc/elements/1.1/"
   xmlns:cc="http://creativecommons.org/ns#"
   xmlns:rdf="http://www.w3.org/1999/02/22-rdf-syntax-ns#"
   xmlns:svg="http://www.w3.org/2000/svg"
   xmlns="http://www.w3.org/2000/svg"
   xmlns:sodipodi="http://sodipodi.sourceforge.net/DTD/sodipodi-0.dtd"
   xmlns:inkscape="http://www.inkscape.org/namespaces/inkscape"
   width="800"
   height="400"
   id="svg2"
   version="1.1"
   inkscape:version="0.48.2 r9819"
   sodipodi:docname="ma31-fill.svg">
  <defs
     id="defs4" />
  <sodipodi:namedview
     id="base"
     pagecolor="#ffffff"
     bordercolor="#666666"
     borderopacity="1.0"
     inkscape:pageopacity="0.0"
     inkscape:pageshadow="2"
     inkscape:zoom="4"
     inkscape:cx="263.33157"
     inkscape:cy="234.03772"
     inkscape:document-units="px"
     inkscape:current-layer="layer1"
     showgrid="false"
     showguides="true"
     inkscape:guide-bbox="true"
     inkscape:window-width="1024"
     inkscape:window-height="538"
     inkscape:window-x="-8"
     inkscape:window-y="-8"
     inkscape:window-maximized="1"
     width="0px"
     height="0px"
     fit-margin-top="0"
     fit-margin-left="0"
     fit-margin-right="0"
     fit-margin-bottom="0">
    <sodipodi:guide
       orientation="1,0"
       position="400.22244,349.31075"
       id="guide3178" />
  </sodipodi:namedview>
  <metadata
     id="metadata7">
    <rdf:RDF>
      <cc:Work
         rdf:about="">
        <dc:format>image/svg+xml</dc:format>
        <dc:type
           rdf:resource="http://purl.org/dc/dcmitype/StillImage" />
        <dc:title></dc:title>
        <cc:license
           rdf:resource="" />
      </cc:Work>
    </rdf:RDF>
  </metadata>
  <g
     inkscape:label="Layer 1"
     inkscape:groupmode="layer"
     id="layer1"
     transform="translate(0,-652.36218)">
    <path
       style="fill:#00ff00;fill-opacity:1;stroke:none"
       d="M 218.59375 138.53125 C 215.67485 138.53125 212.47015 138.96407 211.46875 139.5 C 210.46736 140.03592 205.73586 140.75171 200.9375 141.09375 C 190.47245 141.83974 184.66455 144.54577 182.9375 149.5 C 182.33796 151.21984 181.84375 157.3949 181.84375 163.21875 C 181.84375 174.26119 183.03597 179.06719 186.46875 182.09375 C 188.75117 184.10608 198.67853 189.13398 199.25 188.5625 C 199.99147 187.82103 195.01587 175.15985 192.59375 171.625 C 190.42483 168.45967 190.15339 168.34744 188.5 169.84375 C 187.15566 171.06035 186.4664 171.18514 185.59375 170.3125 C 184.72111 169.43986 184.95686 168.61537 186.5625 166.90625 C 188.45642 164.89026 188.55315 164.21725 187.59375 160.4375 C 187.00525 158.11902 186.78747 155.96253 187.09375 155.65625 C 188.28585 154.46416 189.78089 156.59714 190.375 160.3125 C 190.71722 162.45267 191.35608 164.1875 191.8125 164.1875 C 192.26891 164.1875 192.39357 164.9563 192.09375 165.90625 C 191.51212 167.74913 193.51919 165.66287 196.8125 160.96875 C 197.71146 159.68742 200.23797 158.0965 202.4375 157.4375 C 207.24462 155.99725 208.18815 154.75161 206.1875 152.53125 C 205.36237 151.6155 204.39847 149.53475 204.03125 147.90625 L 203.375 144.9375 L 205.9375 147.90625 C 207.35298 149.53475 208.78327 152.1267 209.125 153.65625 C 209.46673 155.1858 210.81188 157.12883 212.09375 157.96875 C 213.37562 158.80866 214.40625 160.06639 214.40625 160.78125 C 214.40625 161.4961 215.79502 163.0582 217.46875 164.25 L 220.5 166.40625 L 217.34375 169.3125 C 215.44031 171.05102 213.78743 171.84992 213.25 171.3125 C 212.71258 170.77507 212.93321 169.94851 213.8125 169.21875 C 215.08146 168.16562 214.81856 167.32822 211.84375 163.1875 L 208.40625 158.40625 L 203.96875 159.9375 C 201.34039 160.83307 198.82685 162.52424 197.84375 164.0625 C 196.92819 165.49508 195.50921 167.20677 194.6875 167.875 C 193.492 168.84719 193.44799 169.26283 194.46875 169.9375 C 195.17035 170.40122 197.45362 174.72331 199.53125 179.5625 C 204.00605 189.98515 207.2961 192.59754 212.5 189.8125 C 213.74893 189.14409 214.4528 187.70077 214.5 185.625 C 214.5808 182.06897 217.0613 177.25145 219.65625 175.625 C 220.95541 174.81072 222.06452 174.95659 224.21875 176.1875 L 227.0625 177.8125 L 228.375 173.21875 C 229.7542 168.47523 230.01417 152.43671 228.8125 146.03125 C 227.79822 140.62466 224.92177 138.53125 218.59375 138.53125 z M 221.21875 177.3125 C 220.276 177.44161 219.44244 178.96581 217.8125 182.625 C 216.51339 185.54148 216.72857 188.85445 218.21875 188.84375 C 218.5678 188.84075 220.2983 187.49724 222.0625 185.84375 C 225.80241 182.33852 226.03472 180.95764 223.25 178.4375 C 222.39224 177.66124 221.7844 177.235 221.21875 177.3125 z "
       id="rect33"
       transform="translate(0,652.36218)" />
  </g>
</svg>
