<?xml version="1.0" encoding="UTF-8" standalone="no"?>
<!-- Created with Inkscape (http://www.inkscape.org/) -->

<svg
   xmlns:dc="http://purl.org/dc/elements/1.1/"
   xmlns:cc="http://creativecommons.org/ns#"
   xmlns:rdf="http://www.w3.org/1999/02/22-rdf-syntax-ns#"
   xmlns:svg="http://www.w3.org/2000/svg"
   xmlns="http://www.w3.org/2000/svg"
   xmlns:sodipodi="http://sodipodi.sourceforge.net/DTD/sodipodi-0.dtd"
   xmlns:inkscape="http://www.inkscape.org/namespaces/inkscape"
   width="800"
   height="400"
   id="svg2"
   version="1.1"
   inkscape:version="0.48.2 r9819"
   sodipodi:docname="ma22-fill.svg">
  <defs
     id="defs4" />
  <sodipodi:namedview
     id="base"
     pagecolor="#ffffff"
     bordercolor="#666666"
     borderopacity="1.0"
     inkscape:pageopacity="0.0"
     inkscape:pageshadow="2"
     inkscape:zoom="4"
     inkscape:cx="206.93079"
     inkscape:cy="234.03772"
     inkscape:document-units="px"
     inkscape:current-layer="layer1"
     showgrid="false"
     showguides="true"
     inkscape:guide-bbox="true"
     inkscape:window-width="1024"
     inkscape:window-height="538"
     inkscape:window-x="-8"
     inkscape:window-y="-8"
     inkscape:window-maximized="1"
     width="0px"
     height="0px"
     fit-margin-top="0"
     fit-margin-left="0"
     fit-margin-right="0"
     fit-margin-bottom="0">
    <sodipodi:guide
       orientation="1,0"
       position="400.22244,349.31075"
       id="guide3178" />
  </sodipodi:namedview>
  <metadata
     id="metadata7">
    <rdf:RDF>
      <cc:Work
         rdf:about="">
        <dc:format>image/svg+xml</dc:format>
        <dc:type
           rdf:resource="http://purl.org/dc/dcmitype/StillImage" />
        <dc:title></dc:title>
        <cc:license
           rdf:resource="" />
      </cc:Work>
    </rdf:RDF>
  </metadata>
  <g
     inkscape:label="Layer 1"
     inkscape:groupmode="layer"
     id="layer1"
     transform="translate(0,-652.36218)">
    <path
       id="rect33"
       transform="translate(0,652.36218)"
       style="fill:#00ff00;fill-opacity:1;stroke:none"
       d="m 182.09375,155.78125 c -0.15846,2.29033 -0.25,4.87296 -0.25,7.4375 0,4.40082 0.21117,7.79814 0.65625,10.5 l 11.28125,0 c -0.43428,-0.83418 -0.83564,-1.58024 -1.1875,-2.09375 -2.16892,-3.16533 -2.44036,-3.27756 -4.09375,-1.78125 -1.34434,1.2166 -2.0336,1.34139 -2.90625,0.46875 -0.87264,-0.87264 -0.63689,-1.69713 0.96875,-3.40625 1.89392,-2.01599 1.99065,-2.689 1.03125,-6.46875 -0.53946,-2.12527 -0.76417,-4.10357 -0.5625,-4.65625 l -4.9375,0 z m 6.53125,0 c 0.73012,0.73298 1.39963,2.34016 1.75,4.53125 0.34222,2.14017 0.98108,3.875 1.4375,3.875 0.45641,0 0.58107,0.7688 0.28125,1.71875 -0.58163,1.84288 1.42544,-0.24338 4.71875,-4.9375 0.21794,-0.31063 0.52485,-0.63941 0.90625,-0.96875 l 0,-4.21875 -9.09375,0 z m 9.09375,8.46875 c -0.91572,1.39215 -2.24444,2.98515 -3.03125,3.625 -1.1955,0.97219 -1.23951,1.38783 -0.21875,2.0625 0.38734,0.25601 1.26174,1.73545 2.3125,3.78125 l 0.9375,0 0,-9.46875 z" />
  </g>
</svg>
