<?xml version="1.0" encoding="UTF-8" standalone="no"?>
<!-- Created with Inkscape (http://www.inkscape.org/) -->

<svg
   xmlns:dc="http://purl.org/dc/elements/1.1/"
   xmlns:cc="http://creativecommons.org/ns#"
   xmlns:rdf="http://www.w3.org/1999/02/22-rdf-syntax-ns#"
   xmlns:svg="http://www.w3.org/2000/svg"
   xmlns="http://www.w3.org/2000/svg"
   xmlns:sodipodi="http://sodipodi.sourceforge.net/DTD/sodipodi-0.dtd"
   xmlns:inkscape="http://www.inkscape.org/namespaces/inkscape"
   width="800"
   height="400"
   id="svg2"
   version="1.1"
   inkscape:version="0.48.2 r9819"
   sodipodi:docname="ma33-fill.svg">
  <defs
     id="defs4" />
  <sodipodi:namedview
     id="base"
     pagecolor="#ffffff"
     bordercolor="#666666"
     borderopacity="1.0"
     inkscape:pageopacity="0.0"
     inkscape:pageshadow="2"
     inkscape:zoom="8"
     inkscape:cx="203.12465"
     inkscape:cy="235.01886"
     inkscape:document-units="px"
     inkscape:current-layer="layer1"
     showgrid="false"
     showguides="true"
     inkscape:guide-bbox="true"
     inkscape:window-width="1366"
     inkscape:window-height="746"
     inkscape:window-x="-8"
     inkscape:window-y="-8"
     inkscape:window-maximized="1"
     width="0px"
     height="0px"
     fit-margin-top="0"
     fit-margin-left="0"
     fit-margin-right="0"
     fit-margin-bottom="0">
    <sodipodi:guide
       orientation="1,0"
       position="400.22244,349.31075"
       id="guide3178" />
  </sodipodi:namedview>
  <metadata
     id="metadata7">
    <rdf:RDF>
      <cc:Work
         rdf:about="">
        <dc:format>image/svg+xml</dc:format>
        <dc:type
           rdf:resource="http://purl.org/dc/dcmitype/StillImage" />
        <dc:title></dc:title>
        <cc:license
           rdf:resource="" />
      </cc:Work>
    </rdf:RDF>
  </metadata>
  <g
     inkscape:label="Layer 1"
     inkscape:groupmode="layer"
     id="layer1"
     transform="translate(0,-652.36218)">
    <path
       style="fill:#d45500;fill-opacity:1;stroke:none"
       d="M 182.125 155.5 C 181.95522 157.85191 181.84375 160.55311 181.84375 163.21875 C 181.84375 167.32969 182.02168 170.57529 182.40625 173.1875 L 193.5 173.1875 C 193.16748 172.57368 192.87157 172.03045 192.59375 171.625 C 190.42483 168.45967 190.15339 168.34744 188.5 169.84375 C 187.15566 171.06035 186.4664 171.18514 185.59375 170.3125 C 184.72111 169.43986 184.95686 168.61537 186.5625 166.90625 C 188.45642 164.89026 188.55315 164.21725 187.59375 160.4375 C 187.00525 158.11902 186.78747 155.96253 187.09375 155.65625 C 187.15686 155.59314 187.21662 155.54473 187.28125 155.5 L 182.125 155.5 z M 188.3125 155.5 C 189.16114 156.03654 189.97531 157.81298 190.375 160.3125 C 190.71722 162.45267 191.35608 164.1875 191.8125 164.1875 C 192.26891 164.1875 192.39357 164.9563 192.09375 165.90625 C 191.51212 167.74913 193.51919 165.66287 196.8125 160.96875 C 196.87463 160.88019 196.95421 160.77861 197.03125 160.6875 L 197.03125 155.5 L 188.3125 155.5 z M 197.03125 165.25 C 196.22305 166.33537 195.28732 167.38722 194.6875 167.875 C 193.492 168.84719 193.44799 169.26283 194.46875 169.9375 C 194.82467 170.17274 195.56335 171.40259 196.5 173.1875 L 197.03125 173.1875 L 197.03125 165.25 z "
       transform="translate(0,652.36218)"
       id="rect4070-8" />
  </g>
</svg>
