<?xml version="1.0" encoding="UTF-8" standalone="no"?>
<!-- Created with Inkscape (http://www.inkscape.org/) -->

<svg
   xmlns:dc="http://purl.org/dc/elements/1.1/"
   xmlns:cc="http://creativecommons.org/ns#"
   xmlns:rdf="http://www.w3.org/1999/02/22-rdf-syntax-ns#"
   xmlns:svg="http://www.w3.org/2000/svg"
   xmlns="http://www.w3.org/2000/svg"
   xmlns:sodipodi="http://sodipodi.sourceforge.net/DTD/sodipodi-0.dtd"
   xmlns:inkscape="http://www.inkscape.org/namespaces/inkscape"
   width="800"
   height="400"
   id="svg2"
   version="1.1"
   inkscape:version="0.48.2 r9819"
   sodipodi:docname="ma23-fill.svg">
  <defs
     id="defs4" />
  <sodipodi:namedview
     id="base"
     pagecolor="#ffffff"
     bordercolor="#666666"
     borderopacity="1.0"
     inkscape:pageopacity="0.0"
     inkscape:pageshadow="2"
     inkscape:zoom="8"
     inkscape:cx="203.12465"
     inkscape:cy="235.01886"
     inkscape:document-units="px"
     inkscape:current-layer="layer1"
     showgrid="false"
     showguides="true"
     inkscape:guide-bbox="true"
     inkscape:window-width="1366"
     inkscape:window-height="746"
     inkscape:window-x="-8"
     inkscape:window-y="-8"
     inkscape:window-maximized="1"
     width="0px"
     height="0px"
     fit-margin-top="0"
     fit-margin-left="0"
     fit-margin-right="0"
     fit-margin-bottom="0">
    <sodipodi:guide
       orientation="1,0"
       position="400.22244,349.31075"
       id="guide3178" />
  </sodipodi:namedview>
  <metadata
     id="metadata7">
    <rdf:RDF>
      <cc:Work
         rdf:about="">
        <dc:format>image/svg+xml</dc:format>
        <dc:type
           rdf:resource="http://purl.org/dc/dcmitype/StillImage" />
        <dc:title></dc:title>
        <cc:license
           rdf:resource="" />
      </cc:Work>
    </rdf:RDF>
  </metadata>
  <g
     inkscape:label="Layer 1"
     inkscape:groupmode="layer"
     id="layer1"
     transform="translate(0,-652.36218)">
    <path
       style="fill:#ff5555;fill-opacity:1;stroke:none"
       d="M 197.03125 155.5 L 197.03125 160.6875 C 198.06882 159.46042 200.39 158.05095 202.4375 157.4375 C 204.60738 156.78739 205.97624 156.17835 206.65625 155.5 L 197.03125 155.5 z M 209.90625 155.5 C 210.49486 156.50249 211.30242 157.45024 212.09375 157.96875 C 212.55446 158.27062 212.95288 158.63479 213.3125 159 L 213.3125 155.5 L 209.90625 155.5 z M 208.40625 158.40625 L 203.96875 159.9375 C 201.34039 160.83307 198.82685 162.52424 197.84375 164.0625 C 197.59652 164.44935 197.33023 164.84849 197.03125 165.25 L 197.03125 173.1875 L 213.3125 173.1875 L 213.3125 171.34375 C 213.29355 171.32955 213.26679 171.32929 213.25 171.3125 C 212.83926 170.90176 212.88203 170.32623 213.3125 169.75 L 213.3125 165.3125 C 212.92104 164.71224 212.45158 164.03356 211.84375 163.1875 L 208.40625 158.40625 z "
       transform="translate(0,652.36218)"
       id="rect4070-9-8" />
  </g>
</svg>
