<?xml version="1.0" encoding="UTF-8" standalone="no"?>
<!-- Created with Inkscape (http://www.inkscape.org/) -->

<svg
   xmlns:dc="http://purl.org/dc/elements/1.1/"
   xmlns:cc="http://creativecommons.org/ns#"
   xmlns:rdf="http://www.w3.org/1999/02/22-rdf-syntax-ns#"
   xmlns:svg="http://www.w3.org/2000/svg"
   xmlns="http://www.w3.org/2000/svg"
   xmlns:sodipodi="http://sodipodi.sourceforge.net/DTD/sodipodi-0.dtd"
   xmlns:inkscape="http://www.inkscape.org/namespaces/inkscape"
   width="800"
   height="400"
   id="svg2"
   version="1.1"
   inkscape:version="0.48.2 r9819"
   sodipodi:docname="ma23-fill.svg">
  <defs
     id="defs4" />
  <sodipodi:namedview
     id="base"
     pagecolor="#ffffff"
     bordercolor="#666666"
     borderopacity="1.0"
     inkscape:pageopacity="0.0"
     inkscape:pageshadow="2"
     inkscape:zoom="4"
     inkscape:cx="206.93079"
     inkscape:cy="234.03772"
     inkscape:document-units="px"
     inkscape:current-layer="layer1"
     showgrid="false"
     showguides="true"
     inkscape:guide-bbox="true"
     inkscape:window-width="1024"
     inkscape:window-height="538"
     inkscape:window-x="-8"
     inkscape:window-y="-8"
     inkscape:window-maximized="1"
     width="0px"
     height="0px"
     fit-margin-top="0"
     fit-margin-left="0"
     fit-margin-right="0"
     fit-margin-bottom="0">
    <sodipodi:guide
       orientation="1,0"
       position="400.22244,349.31075"
       id="guide3178" />
  </sodipodi:namedview>
  <metadata
     id="metadata7">
    <rdf:RDF>
      <cc:Work
         rdf:about="">
        <dc:format>image/svg+xml</dc:format>
        <dc:type
           rdf:resource="http://purl.org/dc/dcmitype/StillImage" />
        <dc:title></dc:title>
        <cc:license
           rdf:resource="" />
      </cc:Work>
    </rdf:RDF>
  </metadata>
  <g
     inkscape:label="Layer 1"
     inkscape:groupmode="layer"
     id="layer1"
     transform="translate(0,-652.36218)">
    <path
       id="rect33"
       transform="translate(0,652.36218)"
       style="fill:#00ff00;fill-opacity:1;stroke:none"
       d="m 197.71875,155.78125 0,4.21875 c 1.19183,-1.02914 3.05245,-2.06326 4.71875,-2.5625 1.86216,-0.55792 3.11893,-1.08876 3.875,-1.65625 l -8.59375,0 z m 12.34375,0 c 0.57027,0.89617 1.31321,1.71702 2.03125,2.1875 0.68217,0.44697 1.2651,1.02366 1.6875,1.5625 l 0,-3.75 -3.71875,0 z m -1.65625,2.625 -4.4375,1.53125 c -2.62836,0.89557 -5.1419,2.58674 -6.125,4.125 -0.0389,0.0608 -0.0844,0.12574 -0.125,0.1875 l 0,9.46875 16.0625,0 0,-2.25 c -0.22749,0.0114 -0.40901,-0.034 -0.53125,-0.15625 -0.52975,-0.52976 -0.31693,-1.34051 0.53125,-2.0625 l 0,-3.1875 c -0.43602,-0.73955 -1.05312,-1.64401 -1.9375,-2.875 l -3.4375,-4.78125 z" />
  </g>
</svg>
