<?xml version="1.0" encoding="UTF-8" standalone="no"?>
<!-- Created with Inkscape (http://www.inkscape.org/) -->

<svg
   xmlns:dc="http://purl.org/dc/elements/1.1/"
   xmlns:cc="http://creativecommons.org/ns#"
   xmlns:rdf="http://www.w3.org/1999/02/22-rdf-syntax-ns#"
   xmlns:svg="http://www.w3.org/2000/svg"
   xmlns="http://www.w3.org/2000/svg"
   xmlns:sodipodi="http://sodipodi.sourceforge.net/DTD/sodipodi-0.dtd"
   xmlns:inkscape="http://www.inkscape.org/namespaces/inkscape"
   width="800"
   height="400"
   id="svg2"
   version="1.1"
   inkscape:version="0.48.2 r9819"
   sodipodi:docname="ma32-fill.svg">
  <defs
     id="defs4" />
  <sodipodi:namedview
     id="base"
     pagecolor="#ffffff"
     bordercolor="#666666"
     borderopacity="1.0"
     inkscape:pageopacity="0.0"
     inkscape:pageshadow="2"
     inkscape:zoom="8"
     inkscape:cx="203.12465"
     inkscape:cy="235.01886"
     inkscape:document-units="px"
     inkscape:current-layer="layer1"
     showgrid="false"
     showguides="true"
     inkscape:guide-bbox="true"
     inkscape:window-width="1366"
     inkscape:window-height="746"
     inkscape:window-x="-8"
     inkscape:window-y="-8"
     inkscape:window-maximized="1"
     width="0px"
     height="0px"
     fit-margin-top="0"
     fit-margin-left="0"
     fit-margin-right="0"
     fit-margin-bottom="0">
    <sodipodi:guide
       orientation="1,0"
       position="400.22244,349.31075"
       id="guide3178" />
  </sodipodi:namedview>
  <metadata
     id="metadata7">
    <rdf:RDF>
      <cc:Work
         rdf:about="">
        <dc:format>image/svg+xml</dc:format>
        <dc:type
           rdf:resource="http://purl.org/dc/dcmitype/StillImage" />
        <dc:title></dc:title>
        <cc:license
           rdf:resource="" />
      </cc:Work>
    </rdf:RDF>
  </metadata>
  <g
     inkscape:label="Layer 1"
     inkscape:groupmode="layer"
     id="layer1"
     transform="translate(0,-652.36218)">
    <path
       style="fill:#ffaaaa;fill-opacity:1;stroke:none"
       d="M 213.25 173.1875 L 213.25 189.25 C 214.0328 188.46806 214.46319 187.244 214.5 185.625 C 214.5808 182.06897 217.0613 177.25145 219.65625 175.625 C 220.95541 174.81072 222.06452 174.95659 224.21875 176.1875 L 227.0625 177.8125 L 228.375 173.21875 C 228.37747 173.21026 228.37254 173.19606 228.375 173.1875 L 213.25 173.1875 z M 221.21875 177.3125 C 220.276 177.44161 219.44244 178.96581 217.8125 182.625 C 216.51339 185.54148 216.72857 188.85445 218.21875 188.84375 C 218.5678 188.84075 220.2983 187.49724 222.0625 185.84375 C 225.80241 182.33852 226.03472 180.95764 223.25 178.4375 C 222.39224 177.66124 221.7844 177.235 221.21875 177.3125 z "
       transform="translate(0,652.36218)"
       id="rect4070-9-4" />
  </g>
</svg>
