<?xml version="1.0" encoding="UTF-8" standalone="no"?>
<!-- Created with Inkscape (http://www.inkscape.org/) -->

<svg
   xmlns:dc="http://purl.org/dc/elements/1.1/"
   xmlns:cc="http://creativecommons.org/ns#"
   xmlns:rdf="http://www.w3.org/1999/02/22-rdf-syntax-ns#"
   xmlns:svg="http://www.w3.org/2000/svg"
   xmlns="http://www.w3.org/2000/svg"
   version="1.1"
   width="1000"
   height="850"
   id="svg2">
  <defs
     id="defs4" />
  <metadata
     id="metadata7">
    <rdf:RDF>
      <cc:Work
         rdf:about="">
        <dc:format>image/svg+xml</dc:format>
        <dc:type
           rdf:resource="http://purl.org/dc/dcmitype/StillImage" />
        <dc:title></dc:title>
      </cc:Work>
    </rdf:RDF>
  </metadata>
  <g
     transform="translate(0,-202.36218)"
     id="layer1">
    <path
       d="m 53.84375,379.14343 c 1.802614,-0.0453 3.491515,0.39288 5.875,1.4375 4.897279,2.1463 7.638634,5.96313 8.65625,12.125 0.582797,3.52898 0.515319,3.87416 -0.9375,7.59375 -1.36495,3.49462 -3.920856,6.96875 -5.125,6.96875 -2.213955,2.45517 -3.644297,3.31413 -5.179781,4.66498 -0.342354,1.74587 -1.605013,4.27295 -2.507719,6.05377 -1.837613,3.62516 -4.800745,6.21942 -8.25,7.15625 -5.000401,1.35813 -9.513311,1.48129 -13.125,0.375 -1.766472,-0.54112 -3.918632,-1.1228 -4.75,-1.3125 -2.546016,-0.58094 -5.935852,-4.59839 -6.90625,-8.15625 -1.141655,-4.18573 -1.395979,-8.09568 -0.6875,-9.59375 0.266988,-1.68651 0.314196,-3.63606 1.15625,-4.90625 5.64e-4,-0.009 0.03056,-0.0224 0.03125,-0.0312 0.0762,-0.9832 0.88359,-3.6557 1.84375,-6.0625 2.917128,-7.31228 6.610816,-10.22069 13.28125,-10.34375 2.665462,-0.20128 3.809541,-0.65417 5.65625,-1.25 0.824076,-1.68528 2.881243,-2.81339 7.4375,-4.125 C 51.630472,379.35747 52.762181,379.17058 53.84375,379.14343 Z"
       id="path4596"
       style="fill:#ffffff" />
    <path
       d="m 36.5,182.78125 c -6.00647,0.30758 -9.517279,3.0847 -12.28125,9.625 l 12.28125,0 L 36.5,182.78125 Z"
       transform="translate(0,202.36218)"
       id="rect4070-8-1"
       style="fill:#d45500;fill-opacity:1;stroke:none" />
  </g>
</svg>
