<?xml version="1.0" encoding="UTF-8" standalone="no"?>
<!-- Created with Inkscape (http://www.inkscape.org/) -->

<svg
   xmlns:dc="http://purl.org/dc/elements/1.1/"
   xmlns:cc="http://creativecommons.org/ns#"
   xmlns:rdf="http://www.w3.org/1999/02/22-rdf-syntax-ns#"
   xmlns:svg="http://www.w3.org/2000/svg"
   xmlns="http://www.w3.org/2000/svg"
   xmlns:sodipodi="http://sodipodi.sourceforge.net/DTD/sodipodi-0.dtd"
   xmlns:inkscape="http://www.inkscape.org/namespaces/inkscape"
   width="800"
   height="400"
   id="svg2"
   version="1.1"
   inkscape:version="0.48.2 r9819"
   sodipodi:docname="mk.svg">
  <defs
     id="defs4" />
  <sodipodi:namedview
     id="base"
     pagecolor="#ffffff"
     bordercolor="#666666"
     borderopacity="1.0"
     inkscape:pageopacity="0.0"
     inkscape:pageshadow="2"
     inkscape:zoom="2"
     inkscape:cx="532.21429"
     inkscape:cy="184.47551"
     inkscape:document-units="px"
     inkscape:current-layer="layer1"
     showgrid="false"
     showguides="true"
     inkscape:guide-bbox="true"
     inkscape:window-width="1366"
     inkscape:window-height="746"
     inkscape:window-x="-8"
     inkscape:window-y="-8"
     inkscape:window-maximized="1"
     width="0px"
     height="0px"
     fit-margin-top="0"
     fit-margin-left="0"
     fit-margin-right="0"
     fit-margin-bottom="0">
    <sodipodi:guide
       orientation="1,0"
       position="400.22244,349.31075"
       id="guide3178" />
  </sodipodi:namedview>
  <metadata
     id="metadata7">
    <rdf:RDF>
      <cc:Work
         rdf:about="">
        <dc:format>image/svg+xml</dc:format>
        <dc:type
           rdf:resource="http://purl.org/dc/dcmitype/StillImage" />
        <dc:title></dc:title>
        <cc:license
           rdf:resource="" />
      </cc:Work>
    </rdf:RDF>
  </metadata>
  <g
     inkscape:label="Layer 1"
     inkscape:groupmode="layer"
     id="layer1"
     transform="translate(0,-652.36218)">
    <path
       style="fill:#ff0000"
       d="m 620.125,877.98718 c 5.00677,-0.20964 11.3477,3.38853 12.3125,7.78125 0.39224,1.78587 1.04785,3.94918 1.46875,4.78125 0.4209,0.83206 1.31648,3.49476 1.96875,5.9375 0.65228,2.44274 1.55758,5.43703 2.03125,6.65625 0.4913,1.26543 0.49487,3.1984 0,4.5 -1.04266,2.74242 -7.61484,7.99988 -8.40625,6.71875 -0.30817,-0.49863 -0.0257,-1.15279 0.65625,-1.4375 0.82848,-0.34591 0.35127,-1.29616 -1.5,-2.875 -2.2621,-1.9292 -5.625,-6.82662 -5.625,-8.1875 0,-0.17564 1.95667,-1.72324 4.34375,-3.4375 2.68352,-1.92717 4.19584,-3.74057 4,-4.75 -0.17422,-0.89791 -0.34745,-1.85359 -0.40625,-2.125 -0.0588,-0.27142 -0.71649,0.30019 -1.4375,1.25 -0.72101,0.94979 -2.889,2.79847 -4.84375,4.125 -4.46775,3.0319 -9.80332,2.48131 -13.125,-1.34375 l -2.21875,-2.53125 1.90625,-3.28125 c 1.05024,-1.79523 1.89825,-4.21591 1.90625,-5.40625 0.0193,-2.75627 0.91149,-4.03367 3.8125,-5.5625 0.93262,-0.49149 2.00084,-0.76412 3.15625,-0.8125 z"
       id="path3637" />
    <path
       style="fill:#ff0000"
       d="m 602.875,879.14343 c 2.32534,0.11749 4.63018,0.97632 6.625,2.625 l 2.15625,1.78125 -2.21875,3.96875 c -2.58832,4.60078 -2.78662,7.25256 -0.71875,8.96875 0.81425,0.67576 1.46875,1.78434 1.46875,2.4375 0,1.37307 -4.13152,5.47775 -5.5,5.46875 -0.974,-0.007 -3.54447,-3.79291 -6.875,-10.125 -1.95648,-3.71971 -3.40625,-4.02764 -3.40625,-0.71875 0,0.91105 0.89519,2.46891 2,3.46875 1.1048,0.99984 1.78019,2.42609 1.5,3.15625 -0.29657,0.77284 0.44556,1.67967 1.78125,2.1875 1.26194,0.47978 2.84577,2.22014 3.53125,3.875 0.68546,1.65488 1.75433,2.92892 2.375,2.8125 0.66664,-0.12505 1.25822,1.49088 1.4375,3.96875 0.30533,4.22003 2.35251,5.79048 3.53125,2.71875 0.31245,-0.81425 0.0579,-1.46875 -0.53125,-1.46875 -0.61381,0 -0.8216,-0.92642 -0.5,-2.15625 0.36483,-1.39507 -0.0611,-2.68767 -1.25,-3.71875 -1.75349,-1.5208 -1.6704,-1.73602 2.03125,-4.84375 2.72726,-2.28968 4.65255,-3.15739 6.5625,-2.9375 1.48701,0.17121 2.68095,0.76967 2.65625,1.3125 -0.0247,0.54283 1.60407,3.17363 3.625,5.84375 4.43956,5.86567 5.25968,8.35793 3,9.15625 -0.90782,0.32072 -2.31076,1.12242 -3.125,1.78125 -2.40923,1.94937 -6.61166,2.54308 -9.3125,1.3125 -1.93347,-0.88097 -3.40928,-0.8641 -6.25,0.0625 -2.03722,0.66451 -4.14467,1.36673 -4.6875,1.5625 -1.37386,0.49545 -7.86611,-1.97961 -10.8125,-4.125 -5.90373,-4.29872 -7.19998,-19.86462 -2.46875,-29.40625 2.9545,-5.95844 8.25926,-9.22724 13.375,-8.96875 z"
       id="path3635" />
    <path
       style="fill:#ff0000"
       d="m 596.9375,902.95593 c -0.44271,3.8e-4 -1.39683,0.59605 -2.8125,1.8125 -1.45981,1.25437 -2.35225,2.58526 -2,2.9375 1.17037,1.17038 2.22148,0.64859 3.875,-1.875 1.24126,-1.89442 1.5067,-2.87549 0.9375,-2.875 z"
       id="rect3189" />
  </g>
</svg>
