<?xml version="1.0" encoding="UTF-8" standalone="no"?>
<!-- Created with Inkscape (http://www.inkscape.org/) -->

<svg
   xmlns:dc="http://purl.org/dc/elements/1.1/"
   xmlns:cc="http://creativecommons.org/ns#"
   xmlns:rdf="http://www.w3.org/1999/02/22-rdf-syntax-ns#"
   xmlns:svg="http://www.w3.org/2000/svg"
   xmlns="http://www.w3.org/2000/svg"
   xmlns:sodipodi="http://sodipodi.sourceforge.net/DTD/sodipodi-0.dtd"
   xmlns:inkscape="http://www.inkscape.org/namespaces/inkscape"
   width="800"
   height="400"
   id="svg2"
   version="1.1"
   inkscape:version="0.48.2 r9819"
   sodipodi:docname="mk-fill.svg">
  <defs
     id="defs4" />
  <sodipodi:namedview
     id="base"
     pagecolor="#ffffff"
     bordercolor="#666666"
     borderopacity="1.0"
     inkscape:pageopacity="0.0"
     inkscape:pageshadow="2"
     inkscape:zoom="2"
     inkscape:cx="532.21429"
     inkscape:cy="176.97551"
     inkscape:document-units="px"
     inkscape:current-layer="layer1"
     showgrid="false"
     showguides="true"
     inkscape:guide-bbox="true"
     inkscape:window-width="1024"
     inkscape:window-height="538"
     inkscape:window-x="-8"
     inkscape:window-y="-8"
     inkscape:window-maximized="1"
     width="0px"
     height="0px"
     fit-margin-top="0"
     fit-margin-left="0"
     fit-margin-right="0"
     fit-margin-bottom="0">
    <sodipodi:guide
       orientation="1,0"
       position="400.22244,349.31075"
       id="guide3178" />
  </sodipodi:namedview>
  <metadata
     id="metadata7">
    <rdf:RDF>
      <cc:Work
         rdf:about="">
        <dc:format>image/svg+xml</dc:format>
        <dc:type
           rdf:resource="http://purl.org/dc/dcmitype/StillImage" />
        <dc:title />
        <cc:license
           rdf:resource="" />
      </cc:Work>
    </rdf:RDF>
  </metadata>
  <g
     inkscape:label="Layer 1"
     inkscape:groupmode="layer"
     id="layer1"
     transform="translate(0,-652.36218)">
    <path
       id="rect4179"
       transform="translate(0,652.36218)"
       style="fill:#00ff00"
       d="m 620.125,225.625 c -1.15541,0.0484 -2.22363,0.32101 -3.15625,0.8125 -2.90101,1.52883 -3.7932,2.80623 -3.8125,5.5625 -0.008,1.19034 -0.85601,3.61102 -1.90625,5.40625 l -1.90625,3.28125 2.21875,2.53125 c 3.32168,3.82506 8.65725,4.37565 13.125,1.34375 1.95475,-1.32653 4.12274,-3.17521 4.84375,-4.125 0.72101,-0.94981 1.3787,-1.52142 1.4375,-1.25 0.0588,0.27141 0.23203,1.22709 0.40625,2.125 0.19584,1.00943 -1.31648,2.82283 -4,4.75 -2.38708,1.71426 -4.34375,3.26186 -4.34375,3.4375 0,1.36088 3.3629,6.2583 5.625,8.1875 1.85127,1.57884 2.32848,2.52909 1.5,2.875 -0.68195,0.28471 -0.96442,0.93887 -0.65625,1.4375 0.79141,1.28113 7.36359,-3.97633 8.40625,-6.71875 0.49487,-1.3016 0.4913,-3.23457 0,-4.5 -0.47367,-1.21922 -1.37897,-4.21351 -2.03125,-6.65625 -0.65227,-2.44274 -1.54785,-5.10544 -1.96875,-5.9375 -0.4209,-0.83207 -1.07651,-2.99538 -1.46875,-4.78125 -0.9648,-4.39272 -7.30573,-7.99089 -12.3125,-7.78125 z m -18.21875,1.15625 c -4.80886,0.16795 -9.63641,3.38271 -12.40625,8.96875 -4.73123,9.54163 -3.43498,25.10753 2.46875,29.40625 2.94639,2.14539 9.43864,4.62045 10.8125,4.125 0.54283,-0.19577 2.65028,-0.89799 4.6875,-1.5625 2.84072,-0.9266 4.31653,-0.94347 6.25,-0.0625 2.70084,1.23058 6.90327,0.63687 9.3125,-1.3125 0.81424,-0.65883 2.21718,-1.46053 3.125,-1.78125 2.25968,-0.79832 1.43956,-3.29058 -3,-9.15625 -2.02093,-2.67012 -3.6497,-5.30092 -3.625,-5.84375 0.0247,-0.54283 -1.16924,-1.14129 -2.65625,-1.3125 -1.90995,-0.21989 -3.83524,0.64782 -6.5625,2.9375 -3.70165,3.10773 -3.78474,3.32295 -2.03125,4.84375 1.1889,1.03108 1.61483,2.32368 1.25,3.71875 -0.3216,1.22983 -0.11381,2.15625 0.5,2.15625 0.58915,0 0.8437,0.6545 0.53125,1.46875 -1.17874,3.07173 -3.22592,1.50128 -3.53125,-2.71875 -0.17928,-2.47787 -0.77086,-4.0938 -1.4375,-3.96875 -0.62067,0.11642 -1.68954,-1.15762 -2.375,-2.8125 -0.68548,-1.65486 -2.26931,-3.39522 -3.53125,-3.875 -1.33569,-0.50783 -2.07782,-1.41466 -1.78125,-2.1875 0.28019,-0.73016 -0.3952,-2.15641 -1.5,-3.15625 -1.10481,-0.99984 -2,-2.5577 -2,-3.46875 0,-3.30889 1.44977,-3.00096 3.40625,0.71875 3.33053,6.33209 5.901,10.118 6.875,10.125 1.36848,0.009 5.5,-4.09568 5.5,-5.46875 0,-0.65316 -0.6545,-1.76174 -1.46875,-2.4375 -2.06787,-1.71619 -1.86957,-4.36797 0.71875,-8.96875 l 2.21875,-3.96875 -2.15625,-1.78125 c -1.99482,-1.64868 -4.29966,-2.50751 -6.625,-2.625 -0.31973,-0.0162 -0.64816,-0.0112 -0.96875,0 z m -4.96875,23.8125 c 0.5692,-4.9e-4 0.30376,0.98058 -0.9375,2.875 -1.65352,2.52359 -2.70463,3.04538 -3.875,1.875 -0.35225,-0.35224 0.54019,-1.68313 2,-2.9375 1.41567,-1.21645 2.36979,-1.81212 2.8125,-1.8125 z" />
  </g>
</svg>
