<?xml version="1.0" encoding="UTF-8" standalone="no"?>
<!-- Created with Inkscape (http://www.inkscape.org/) -->

<svg
   xmlns:dc="http://purl.org/dc/elements/1.1/"
   xmlns:cc="http://creativecommons.org/ns#"
   xmlns:rdf="http://www.w3.org/1999/02/22-rdf-syntax-ns#"
   xmlns:svg="http://www.w3.org/2000/svg"
   xmlns="http://www.w3.org/2000/svg"
   xmlns:sodipodi="http://sodipodi.sourceforge.net/DTD/sodipodi-0.dtd"
   xmlns:inkscape="http://www.inkscape.org/namespaces/inkscape"
   width="800"
   height="400"
   id="svg2"
   version="1.1"
   inkscape:version="0.48.2 r9819"
   sodipodi:docname="mk11-fill.svg">
  <defs
     id="defs4" />
  <sodipodi:namedview
     id="base"
     pagecolor="#ffffff"
     bordercolor="#666666"
     borderopacity="1.0"
     inkscape:pageopacity="0.0"
     inkscape:pageshadow="2"
     inkscape:zoom="5.6568542"
     inkscape:cx="608.74334"
     inkscape:cy="136.5734"
     inkscape:document-units="px"
     inkscape:current-layer="layer1"
     showgrid="false"
     showguides="true"
     inkscape:guide-bbox="true"
     inkscape:window-width="1366"
     inkscape:window-height="746"
     inkscape:window-x="-8"
     inkscape:window-y="-8"
     inkscape:window-maximized="1"
     width="0px"
     height="0px"
     fit-margin-top="0"
     fit-margin-left="0"
     fit-margin-right="0"
     fit-margin-bottom="0">
    <sodipodi:guide
       orientation="1,0"
       position="400.22244,349.31075"
       id="guide3178" />
  </sodipodi:namedview>
  <metadata
     id="metadata7">
    <rdf:RDF>
      <cc:Work
         rdf:about="">
        <dc:format>image/svg+xml</dc:format>
        <dc:type
           rdf:resource="http://purl.org/dc/dcmitype/StillImage" />
        <dc:title></dc:title>
        <cc:license
           rdf:resource="" />
      </cc:Work>
    </rdf:RDF>
  </metadata>
  <g
     inkscape:label="Layer 1"
     inkscape:groupmode="layer"
     id="layer1"
     transform="translate(0,-652.36218)">
    <path
       style="fill:#ff5555;fill-opacity:1;stroke:none"
       d="M 620.125 225.625 C 618.96959 225.67338 617.90137 225.94601 616.96875 226.4375 C 614.06774 227.96633 613.17555 229.24373 613.15625 232 C 613.14825 233.19034 612.30024 235.61102 611.25 237.40625 L 609.96875 239.59375 L 621.15625 239.59375 L 621.15625 225.625 C 620.80393 225.60475 620.467 225.61068 620.125 225.625 z M 601.90625 226.78125 C 601.4245 226.79808 600.94893 226.86007 600.46875 226.9375 L 600.46875 239.59375 L 607.53125 239.59375 C 607.83305 238.35627 608.45836 236.89669 609.4375 235.15625 L 611.65625 231.1875 L 609.5 229.40625 C 607.50518 227.75757 605.20034 226.89874 602.875 226.78125 C 602.55527 226.76509 602.22684 226.77005 601.90625 226.78125 z "
       transform="translate(0,652.36218)"
       id="rect4070-9-8-7" />
  </g>
</svg>
