<?xml version="1.0" encoding="UTF-8" standalone="no"?>
<!-- Created with Inkscape (http://www.inkscape.org/) -->

<svg
   xmlns:dc="http://purl.org/dc/elements/1.1/"
   xmlns:cc="http://creativecommons.org/ns#"
   xmlns:rdf="http://www.w3.org/1999/02/22-rdf-syntax-ns#"
   xmlns:svg="http://www.w3.org/2000/svg"
   xmlns="http://www.w3.org/2000/svg"
   xmlns:sodipodi="http://sodipodi.sourceforge.net/DTD/sodipodi-0.dtd"
   xmlns:inkscape="http://www.inkscape.org/namespaces/inkscape"
   width="800"
   height="400"
   id="svg2"
   version="1.1"
   inkscape:version="0.48.2 r9819"
   sodipodi:docname="mk13-fill.svg">
  <defs
     id="defs4" />
  <sodipodi:namedview
     id="base"
     pagecolor="#ffffff"
     bordercolor="#666666"
     borderopacity="1.0"
     inkscape:pageopacity="0.0"
     inkscape:pageshadow="2"
     inkscape:zoom="5.6568542"
     inkscape:cx="608.74334"
     inkscape:cy="136.5734"
     inkscape:document-units="px"
     inkscape:current-layer="layer1"
     showgrid="false"
     showguides="true"
     inkscape:guide-bbox="true"
     inkscape:window-width="1366"
     inkscape:window-height="746"
     inkscape:window-x="-8"
     inkscape:window-y="-8"
     inkscape:window-maximized="1"
     width="0px"
     height="0px"
     fit-margin-top="0"
     fit-margin-left="0"
     fit-margin-right="0"
     fit-margin-bottom="0">
    <sodipodi:guide
       orientation="1,0"
       position="400.22244,349.31075"
       id="guide3178" />
  </sodipodi:namedview>
  <metadata
     id="metadata7">
    <rdf:RDF>
      <cc:Work
         rdf:about="">
        <dc:format>image/svg+xml</dc:format>
        <dc:type
           rdf:resource="http://purl.org/dc/dcmitype/StillImage" />
        <dc:title></dc:title>
        <cc:license
           rdf:resource="" />
      </cc:Work>
    </rdf:RDF>
  </metadata>
  <g
     inkscape:label="Layer 1"
     inkscape:groupmode="layer"
     id="layer1"
     transform="translate(0,-652.36218)">
    <path
       style="fill:#d45500;fill-opacity:1;stroke:none"
       d="M 588 239.59375 C 586.55793 244.3994 586.30746 249.97765 587.0625 254.78125 L 592.15625 254.78125 C 592.3917 254.18999 593.10565 253.28215 594.125 252.40625 C 595.54067 251.1898 596.49479 250.59413 596.9375 250.59375 C 597.5067 250.59326 597.24126 251.57433 596 253.46875 C 595.65053 254.00212 595.33372 254.4238 595.03125 254.78125 L 600.46875 254.78125 L 600.46875 250.4375 C 600.205 250.25592 599.93563 250.09434 599.6875 250 C 598.35181 249.49217 597.60968 248.58534 597.90625 247.8125 C 598.18644 247.08234 597.51105 245.65609 596.40625 244.65625 C 595.30144 243.65641 594.40625 242.09855 594.40625 241.1875 C 594.40625 240.49231 594.47451 239.97154 594.59375 239.59375 L 588 239.59375 z M 596.3125 239.59375 C 596.76352 240.09531 597.25902 240.85396 597.8125 241.90625 C 598.77146 243.72944 599.65578 245.31591 600.46875 246.6875 L 600.46875 239.59375 L 596.3125 239.59375 z "
       transform="translate(0,652.36218)"
       id="rect4070-8" />
  </g>
</svg>
