<?xml version="1.0" encoding="UTF-8" standalone="no"?>
<!-- Created with Inkscape (http://www.inkscape.org/) -->

<svg
   xmlns:dc="http://purl.org/dc/elements/1.1/"
   xmlns:cc="http://creativecommons.org/ns#"
   xmlns:rdf="http://www.w3.org/1999/02/22-rdf-syntax-ns#"
   xmlns:svg="http://www.w3.org/2000/svg"
   xmlns="http://www.w3.org/2000/svg"
   xmlns:sodipodi="http://sodipodi.sourceforge.net/DTD/sodipodi-0.dtd"
   xmlns:inkscape="http://www.inkscape.org/namespaces/inkscape"
   width="800"
   height="400"
   id="svg2"
   version="1.1"
   inkscape:version="0.48.2 r9819"
   sodipodi:docname="mk22-fill.svg">
  <defs
     id="defs4" />
  <sodipodi:namedview
     id="base"
     pagecolor="#ffffff"
     bordercolor="#666666"
     borderopacity="1.0"
     inkscape:pageopacity="0.0"
     inkscape:pageshadow="2"
     inkscape:zoom="5.6568542"
     inkscape:cx="608.74334"
     inkscape:cy="136.5734"
     inkscape:document-units="px"
     inkscape:current-layer="layer1"
     showgrid="false"
     showguides="true"
     inkscape:guide-bbox="true"
     inkscape:window-width="1366"
     inkscape:window-height="746"
     inkscape:window-x="-8"
     inkscape:window-y="-8"
     inkscape:window-maximized="1"
     width="0px"
     height="0px"
     fit-margin-top="0"
     fit-margin-left="0"
     fit-margin-right="0"
     fit-margin-bottom="0">
    <sodipodi:guide
       orientation="1,0"
       position="400.22244,349.31075"
       id="guide3178" />
  </sodipodi:namedview>
  <metadata
     id="metadata7">
    <rdf:RDF>
      <cc:Work
         rdf:about="">
        <dc:format>image/svg+xml</dc:format>
        <dc:type
           rdf:resource="http://purl.org/dc/dcmitype/StillImage" />
        <dc:title></dc:title>
        <cc:license
           rdf:resource="" />
      </cc:Work>
    </rdf:RDF>
  </metadata>
  <g
     inkscape:label="Layer 1"
     inkscape:groupmode="layer"
     id="layer1"
     transform="translate(0,-652.36218)">
    <path
       style="fill:#ffaaaa;fill-opacity:1;stroke:none"
       d="M 621.15625 239.59375 L 621.15625 246.1875 C 622.3593 245.87501 623.54944 245.33481 624.6875 244.5625 C 626.64225 243.23597 628.81024 241.38729 629.53125 240.4375 C 629.79842 240.08555 630.05872 239.81819 630.28125 239.59375 L 621.15625 239.59375 z M 631.03125 239.59375 C 631.11078 240.00246 631.23386 240.58507 631.375 241.3125 C 631.57084 242.32193 630.05852 244.13533 627.375 246.0625 C 624.98792 247.77676 623.03125 249.32436 623.03125 249.5 C 623.03125 250.37798 624.43043 252.70599 626.03125 254.78125 L 638.0625 254.78125 C 638.38662 253.522 638.33614 251.8885 637.90625 250.78125 C 637.43258 249.56203 636.52728 246.56774 635.875 244.125 C 635.43873 242.49119 634.90788 240.8108 634.46875 239.59375 L 631.03125 239.59375 z M 621.15625 252.59375 L 621.15625 254.78125 L 622.6875 254.78125 C 622.12054 254.01057 621.60882 253.27968 621.15625 252.59375 z "
       transform="translate(0,652.36218)"
       id="rect4070-9-4-2" />
  </g>
</svg>
