<?xml version="1.0" encoding="UTF-8" standalone="no"?>
<!-- Created with Inkscape (http://www.inkscape.org/) -->

<svg
   xmlns:dc="http://purl.org/dc/elements/1.1/"
   xmlns:cc="http://creativecommons.org/ns#"
   xmlns:rdf="http://www.w3.org/1999/02/22-rdf-syntax-ns#"
   xmlns:svg="http://www.w3.org/2000/svg"
   xmlns="http://www.w3.org/2000/svg"
   xmlns:sodipodi="http://sodipodi.sourceforge.net/DTD/sodipodi-0.dtd"
   xmlns:inkscape="http://www.inkscape.org/namespaces/inkscape"
   width="800"
   height="400"
   id="svg2"
   version="1.1"
   inkscape:version="0.48.2 r9819"
   sodipodi:docname="mk31-fill.svg">
  <defs
     id="defs4" />
  <sodipodi:namedview
     id="base"
     pagecolor="#ffffff"
     bordercolor="#666666"
     borderopacity="1.0"
     inkscape:pageopacity="0.0"
     inkscape:pageshadow="2"
     inkscape:zoom="5.6568542"
     inkscape:cx="608.74334"
     inkscape:cy="136.5734"
     inkscape:document-units="px"
     inkscape:current-layer="layer1"
     showgrid="false"
     showguides="true"
     inkscape:guide-bbox="true"
     inkscape:window-width="1366"
     inkscape:window-height="746"
     inkscape:window-x="-8"
     inkscape:window-y="-8"
     inkscape:window-maximized="1"
     width="0px"
     height="0px"
     fit-margin-top="0"
     fit-margin-left="0"
     fit-margin-right="0"
     fit-margin-bottom="0">
    <sodipodi:guide
       orientation="1,0"
       position="400.22244,349.31075"
       id="guide3178" />
  </sodipodi:namedview>
  <metadata
     id="metadata7">
    <rdf:RDF>
      <cc:Work
         rdf:about="">
        <dc:format>image/svg+xml</dc:format>
        <dc:type
           rdf:resource="http://purl.org/dc/dcmitype/StillImage" />
        <dc:title></dc:title>
        <cc:license
           rdf:resource="" />
      </cc:Work>
    </rdf:RDF>
  </metadata>
  <g
     inkscape:label="Layer 1"
     inkscape:groupmode="layer"
     id="layer1"
     transform="translate(0,-652.36218)">
    <path
       style="fill:#ff5555;fill-opacity:1;stroke:none"
       d="M 600.4375 254.8125 L 600.4375 269 C 601.50979 269.28554 602.37634 269.42727 602.78125 269.28125 C 603.32408 269.08548 605.43153 268.38326 607.46875 267.71875 C 610.30947 266.79215 611.78528 266.77528 613.71875 267.65625 C 615.80125 268.6051 618.7674 268.44301 621.125 267.4375 L 621.125 254.8125 L 607.21875 254.8125 C 607.33336 255.18088 607.7026 255.52939 608.28125 256.03125 C 609.47015 257.06233 609.89608 258.35493 609.53125 259.75 C 609.20965 260.97983 609.41744 261.90625 610.03125 261.90625 C 610.6204 261.90625 610.87495 262.56075 610.5625 263.375 C 609.38376 266.44673 607.33658 264.87628 607.03125 260.65625 C 606.85197 258.17838 606.26039 256.56245 605.59375 256.6875 C 605.09956 256.7802 604.3302 255.97318 603.6875 254.8125 L 600.4375 254.8125 z "
       transform="translate(0,652.36218)"
       id="rect4070-9" />
  </g>
</svg>
