<?xml version="1.0" encoding="UTF-8" standalone="no"?>
<!-- Created with Inkscape (http://www.inkscape.org/) -->

<svg
   xmlns:dc="http://purl.org/dc/elements/1.1/"
   xmlns:cc="http://creativecommons.org/ns#"
   xmlns:rdf="http://www.w3.org/1999/02/22-rdf-syntax-ns#"
   xmlns:svg="http://www.w3.org/2000/svg"
   xmlns="http://www.w3.org/2000/svg"
   xmlns:sodipodi="http://sodipodi.sourceforge.net/DTD/sodipodi-0.dtd"
   xmlns:inkscape="http://www.inkscape.org/namespaces/inkscape"
   width="800"
   height="400"
   id="svg2"
   version="1.1"
   inkscape:version="0.48.2 r9819"
   sodipodi:docname="mk32-fill.svg">
  <defs
     id="defs4" />
  <sodipodi:namedview
     id="base"
     pagecolor="#ffffff"
     bordercolor="#666666"
     borderopacity="1.0"
     inkscape:pageopacity="0.0"
     inkscape:pageshadow="2"
     inkscape:zoom="5.6568542"
     inkscape:cx="608.74334"
     inkscape:cy="136.5734"
     inkscape:document-units="px"
     inkscape:current-layer="layer1"
     showgrid="false"
     showguides="true"
     inkscape:guide-bbox="true"
     inkscape:window-width="1366"
     inkscape:window-height="746"
     inkscape:window-x="-8"
     inkscape:window-y="-8"
     inkscape:window-maximized="1"
     width="0px"
     height="0px"
     fit-margin-top="0"
     fit-margin-left="0"
     fit-margin-right="0"
     fit-margin-bottom="0">
    <sodipodi:guide
       orientation="1,0"
       position="400.22244,349.31075"
       id="guide3178" />
  </sodipodi:namedview>
  <metadata
     id="metadata7">
    <rdf:RDF>
      <cc:Work
         rdf:about="">
        <dc:format>image/svg+xml</dc:format>
        <dc:type
           rdf:resource="http://purl.org/dc/dcmitype/StillImage" />
        <dc:title></dc:title>
        <cc:license
           rdf:resource="" />
      </cc:Work>
    </rdf:RDF>
  </metadata>
  <g
     inkscape:label="Layer 1"
     inkscape:groupmode="layer"
     id="layer1"
     transform="translate(0,-652.36218)">
    <path
       style="fill:#ffaaaa;fill-opacity:1;stroke:none"
       d="M 621.125 254.8125 L 621.125 267.4375 C 621.82502 267.13894 622.47967 266.79005 623.03125 266.34375 C 623.84549 265.68492 625.24843 264.88322 626.15625 264.5625 C 628.41593 263.76418 627.59581 261.27192 623.15625 255.40625 C 623.00339 255.20429 622.86657 255.01312 622.71875 254.8125 L 621.125 254.8125 z M 626.0625 254.8125 C 626.93518 255.94053 627.86176 257.00993 628.65625 257.6875 C 630.50752 259.26634 630.98473 260.21659 630.15625 260.5625 C 629.4743 260.84721 629.19183 261.50137 629.5 262 C 630.29141 263.28113 636.86359 258.02367 637.90625 255.28125 C 637.96459 255.12781 638.018 254.98136 638.0625 254.8125 L 626.0625 254.8125 z "
       transform="translate(0,652.36218)"
       id="rect4070-9-4" />
  </g>
</svg>
