<?xml version="1.0" encoding="UTF-8" standalone="no"?>
<!-- Created with Inkscape (http://www.inkscape.org/) -->

<svg
   xmlns:dc="http://purl.org/dc/elements/1.1/"
   xmlns:cc="http://creativecommons.org/ns#"
   xmlns:rdf="http://www.w3.org/1999/02/22-rdf-syntax-ns#"
   xmlns:svg="http://www.w3.org/2000/svg"
   xmlns="http://www.w3.org/2000/svg"
   xmlns:sodipodi="http://sodipodi.sourceforge.net/DTD/sodipodi-0.dtd"
   xmlns:inkscape="http://www.inkscape.org/namespaces/inkscape"
   width="800"
   height="700"
   id="svg2"
   version="1.1"
   inkscape:version="0.48.2 r9819"
   sodipodi:docname="f7.svg">
  <defs
     id="defs4" />
  <sodipodi:namedview
     id="base"
     pagecolor="#ffffff"
     bordercolor="#666666"
     borderopacity="1.0"
     inkscape:pageopacity="0.0"
     inkscape:pageshadow="2"
     inkscape:zoom="2.5"
     inkscape:cx="360.94843"
     inkscape:cy="627.08618"
     inkscape:document-units="px"
     inkscape:current-layer="layer1"
     showgrid="false"
     showguides="true"
     inkscape:guide-bbox="true"
     inkscape:window-width="1366"
     inkscape:window-height="746"
     inkscape:window-x="-8"
     inkscape:window-y="-8"
     inkscape:window-maximized="1"
     width="0px"
     height="0px"
     fit-margin-top="0"
     fit-margin-left="0"
     fit-margin-right="0"
     fit-margin-bottom="0">
    <sodipodi:guide
       orientation="1,0"
       position="400.22244,349.31075"
       id="guide3178" />
    <sodipodi:guide
       orientation="0,1"
       position="400.22244,349.31075"
       id="guide3180" />
  </sodipodi:namedview>
  <metadata
     id="metadata7">
    <rdf:RDF>
      <cc:Work
         rdf:about="">
        <dc:format>image/svg+xml</dc:format>
        <dc:type
           rdf:resource="http://purl.org/dc/dcmitype/StillImage" />
        <dc:title></dc:title>
      </cc:Work>
    </rdf:RDF>
  </metadata>
  <g
     inkscape:label="Layer 1"
     inkscape:groupmode="layer"
     id="layer1"
     transform="translate(0,-352.36218)">
    <path
       style="fill:#ff0000"
       d="m 318.5,444.83093 c 0.48812,-0.0259 1.12289,0 1.9375,0 2.98221,0 3.49371,0.10991 4.90625,1.1875 2.89106,2.20552 5.87473,10.5073 7.25,20.125 0.27372,1.91412 0.67349,4.68807 0.90625,6.1875 0.23281,1.49946 0.35795,3.74788 0.21875,5 -0.56846,5.11153 -0.55263,5.02703 -2.75,6.125 -1.12537,0.56231 -2.65718,1.16563 -3.375,1.34375 -5.13495,1.27427 -13.71101,0.97045 -16.9375,-0.625 -3.06678,-1.51646 -3.95726,-3.21909 -3.84375,-7.34375 0.0987,-3.58953 0.82985,-7.12591 2.96875,-14.1875 0.79719,-2.63191 1.77722,-6.252 2.15625,-8.0625 0.73793,-3.52483 1.85602,-5.95469 3.875,-8.3125 0.92209,-1.07689 1.22311,-1.35991 2.6875,-1.4375 z"
       id="rect3086" />
  </g>
</svg>
