<?xml version="1.0" encoding="UTF-8" standalone="no"?>
<!-- Created with Inkscape (http://www.inkscape.org/) -->

<svg
   xmlns:dc="http://purl.org/dc/elements/1.1/"
   xmlns:cc="http://creativecommons.org/ns#"
   xmlns:rdf="http://www.w3.org/1999/02/22-rdf-syntax-ns#"
   xmlns:svg="http://www.w3.org/2000/svg"
   xmlns="http://www.w3.org/2000/svg"
   xmlns:sodipodi="http://sodipodi.sourceforge.net/DTD/sodipodi-0.dtd"
   xmlns:inkscape="http://www.inkscape.org/namespaces/inkscape"
   width="800"
   height="700"
   id="svg2"
   version="1.1"
   inkscape:version="0.48.2 r9819"
   sodipodi:docname="f7-fill.svg">
  <defs
     id="defs4" />
  <sodipodi:namedview
     id="base"
     pagecolor="#ffffff"
     bordercolor="#666666"
     borderopacity="1.0"
     inkscape:pageopacity="0.0"
     inkscape:pageshadow="2"
     inkscape:zoom="2.5"
     inkscape:cx="360.94843"
     inkscape:cy="595.08618"
     inkscape:document-units="px"
     inkscape:current-layer="layer1"
     showgrid="false"
     showguides="true"
     inkscape:guide-bbox="true"
     inkscape:window-width="1024"
     inkscape:window-height="538"
     inkscape:window-x="-8"
     inkscape:window-y="-8"
     inkscape:window-maximized="1"
     width="0px"
     height="0px"
     fit-margin-top="0"
     fit-margin-left="0"
     fit-margin-right="0"
     fit-margin-bottom="0">
    <sodipodi:guide
       orientation="1,0"
       position="400.22244,349.31075"
       id="guide3178" />
    <sodipodi:guide
       orientation="0,1"
       position="400.22244,349.31075"
       id="guide3180" />
  </sodipodi:namedview>
  <metadata
     id="metadata7">
    <rdf:RDF>
      <cc:Work
         rdf:about="">
        <dc:format>image/svg+xml</dc:format>
        <dc:type
           rdf:resource="http://purl.org/dc/dcmitype/StillImage" />
        <dc:title />
      </cc:Work>
    </rdf:RDF>
  </metadata>
  <g
     inkscape:label="Layer 1"
     inkscape:groupmode="layer"
     id="layer1"
     transform="translate(0,-352.36218)">
    <path
       id="rect3527"
       transform="translate(0,352.36218)"
       style="fill:#00ff00"
       d="m 318.5,92.46875 c -1.46439,0.07759 -1.76541,0.36061 -2.6875,1.4375 -2.01898,2.35781 -3.13707,4.78767 -3.875,8.3125 -0.37903,1.8105 -1.35906,5.43059 -2.15625,8.0625 -2.1389,7.06159 -2.87005,10.59797 -2.96875,14.1875 -0.11351,4.12466 0.77697,5.82729 3.84375,7.34375 3.22649,1.59545 11.80255,1.89927 16.9375,0.625 0.71782,-0.17812 2.24963,-0.78144 3.375,-1.34375 2.19737,-1.09797 2.18154,-1.01347 2.75,-6.125 0.1392,-1.25212 0.0141,-3.50054 -0.21875,-5 -0.23276,-1.49943 -0.63253,-4.27338 -0.90625,-6.1875 -1.37527,-9.6177 -4.35894,-17.91948 -7.25,-20.125 -1.41254,-1.07759 -1.92404,-1.1875 -4.90625,-1.1875 -0.81461,0 -1.44938,-0.0259 -1.9375,0 z" />
  </g>
</svg>
