<?xml version="1.0" encoding="UTF-8" standalone="no"?>
<!-- Created with Inkscape (http://www.inkscape.org/) -->

<svg
   xmlns:dc="http://purl.org/dc/elements/1.1/"
   xmlns:cc="http://creativecommons.org/ns#"
   xmlns:rdf="http://www.w3.org/1999/02/22-rdf-syntax-ns#"
   xmlns:svg="http://www.w3.org/2000/svg"
   xmlns="http://www.w3.org/2000/svg"
   xmlns:sodipodi="http://sodipodi.sourceforge.net/DTD/sodipodi-0.dtd"
   xmlns:inkscape="http://www.inkscape.org/namespaces/inkscape"
   width="800"
   height="700"
   id="svg2"
   version="1.1"
   inkscape:version="0.48.2 r9819"
   sodipodi:docname="m22.svg">
  <defs
     id="defs4" />
  <sodipodi:namedview
     id="base"
     pagecolor="#ffffff"
     bordercolor="#666666"
     borderopacity="1.0"
     inkscape:pageopacity="0.0"
     inkscape:pageshadow="2"
     inkscape:zoom="2.5"
     inkscape:cx="367.87013"
     inkscape:cy="100.85406"
     inkscape:document-units="px"
     inkscape:current-layer="layer1"
     showgrid="false"
     showguides="true"
     inkscape:guide-bbox="true"
     inkscape:window-width="1366"
     inkscape:window-height="746"
     inkscape:window-x="-8"
     inkscape:window-y="-8"
     inkscape:window-maximized="1"
     width="0px"
     height="0px"
     fit-margin-top="0"
     fit-margin-left="0"
     fit-margin-right="0"
     fit-margin-bottom="0">
    <sodipodi:guide
       orientation="1,0"
       position="400.22244,349.31075"
       id="guide3178" />
    <sodipodi:guide
       orientation="0,1"
       position="400.22244,349.31075"
       id="guide3180" />
  </sodipodi:namedview>
  <metadata
     id="metadata7">
    <rdf:RDF>
      <cc:Work
         rdf:about="">
        <dc:format>image/svg+xml</dc:format>
        <dc:type
           rdf:resource="http://purl.org/dc/dcmitype/StillImage" />
        <dc:title></dc:title>
      </cc:Work>
    </rdf:RDF>
  </metadata>
  <g
     inkscape:label="Layer 1"
     inkscape:groupmode="layer"
     id="layer1"
     transform="translate(0,-352.36218)">
    <path
       style="fill:#ff0000"
       d="m 273.8125,883.45593 c 2.14696,0.0333 5.85181,3.28219 8.21875,7.1875 0.79491,1.31161 1.68415,2.375 2,2.375 0.31587,0 0.67474,0.32857 0.8125,0.6875 0.13775,0.35892 0.50775,0.65625 0.78125,0.65625 1.0476,0.0286 2.1875,2.30389 2.1875,4.375 0,3.67698 -1.82229,4.71176 -8.96875,5.15625 -2.78887,0.17364 -6.62588,0.20559 -8.5625,0.0937 -2.36311,-0.13688 -3.53125,-0.035 -3.53125,0.28125 0,0.8307 3.08886,1.15549 10.5,1.125 l 7.21875,-0.0312 -0.625,1.53125 c -0.3506,0.8535 -0.84541,1.74145 -1.0625,1.96875 -0.21707,0.2274 -0.375,0.70865 -0.375,1.03125 0,0.849 -2.66298,4.8504 -4.3125,6.5 -2.98315,2.9831 -6.83642,1.27365 -12.46875,-5.53125 -1.81311,-2.1905 -3.54265,-4.09122 -3.875,-4.21875 -0.33238,-0.12762 -1.2122,-1.1236 -1.9375,-2.21875 -2.04859,-3.09277 -1.71276,-5.25643 1.40625,-8.5625 1.36985,-1.45193 4.06359,-5.14875 4.875,-6.71875 1.40618,-2.72024 5.47348,-5.72203 7.71875,-5.6875 z"
       id="path3183" />
    <path
       style="fill:#ff0000"
       d="m 268.875,889.51843 c -0.90744,0 -4.99358,5.73644 -5.15625,7.21875 -0.29248,2.66527 0.31824,3.10454 5.40625,3.9375 3.32935,0.54507 10.27014,0.51469 12.25,-0.0625 1.21506,-0.35415 2.08732,-2.03098 1.75,-3.375 -0.14794,-0.58949 -0.75198,-1.62737 -1.34375,-2.3125 -0.59175,-0.68522 -1.51548,-1.89971 -2.0625,-2.71875 -1.21617,-1.82099 -2.09375,-2.23567 -2.09375,-0.9375 0,0.52315 0.89206,1.95876 1.96875,3.15625 1.0767,1.19758 1.96875,2.39147 1.96875,2.6875 0,0.29592 -0.4304,0.95048 -0.9375,1.40625 -0.8319,0.7475 -1.52645,0.79766 -7.21875,0.6875 -6.00862,-0.11595 -7.9375,-0.44068 -7.9375,-1.40625 0,-0.23841 0.86082,-1.77014 1.9375,-3.375 1.86675,-2.78233 2.49042,-4.90625 1.46875,-4.90625 z"
       id="rect3270" />
  </g>
</svg>
