<?xml version="1.0" encoding="UTF-8" standalone="no"?>
<!-- Created with Inkscape (http://www.inkscape.org/) -->

<svg
   xmlns:dc="http://purl.org/dc/elements/1.1/"
   xmlns:cc="http://creativecommons.org/ns#"
   xmlns:rdf="http://www.w3.org/1999/02/22-rdf-syntax-ns#"
   xmlns:svg="http://www.w3.org/2000/svg"
   xmlns="http://www.w3.org/2000/svg"
   xmlns:sodipodi="http://sodipodi.sourceforge.net/DTD/sodipodi-0.dtd"
   xmlns:inkscape="http://www.inkscape.org/namespaces/inkscape"
   width="800"
   height="700"
   id="svg2"
   version="1.1"
   inkscape:version="0.48.2 r9819"
   sodipodi:docname="m22-fill.svg">
  <defs
     id="defs4" />
  <sodipodi:namedview
     id="base"
     pagecolor="#ffffff"
     bordercolor="#666666"
     borderopacity="1.0"
     inkscape:pageopacity="0.0"
     inkscape:pageshadow="2"
     inkscape:zoom="2.5"
     inkscape:cx="367.87013"
     inkscape:cy="132.85406"
     inkscape:document-units="px"
     inkscape:current-layer="layer1"
     showgrid="false"
     showguides="true"
     inkscape:guide-bbox="true"
     inkscape:window-width="1024"
     inkscape:window-height="538"
     inkscape:window-x="-8"
     inkscape:window-y="-8"
     inkscape:window-maximized="1"
     width="0px"
     height="0px"
     fit-margin-top="0"
     fit-margin-left="0"
     fit-margin-right="0"
     fit-margin-bottom="0">
    <sodipodi:guide
       orientation="1,0"
       position="400.22244,349.31075"
       id="guide3178" />
    <sodipodi:guide
       orientation="0,1"
       position="400.22244,349.31075"
       id="guide3180" />
  </sodipodi:namedview>
  <metadata
     id="metadata7">
    <rdf:RDF>
      <cc:Work
         rdf:about="">
        <dc:format>image/svg+xml</dc:format>
        <dc:type
           rdf:resource="http://purl.org/dc/dcmitype/StillImage" />
        <dc:title />
      </cc:Work>
    </rdf:RDF>
  </metadata>
  <g
     inkscape:label="Layer 1"
     inkscape:groupmode="layer"
     id="layer1"
     transform="translate(0,-352.36218)">
    <path
       id="rect4262"
       transform="translate(0,352.36218)"
       style="fill:#00ff00"
       d="m 273.8125,531.09375 c -2.24527,-0.0345 -6.31257,2.96726 -7.71875,5.6875 -0.81141,1.57 -3.50515,5.26682 -4.875,6.71875 -3.11901,3.30607 -3.45484,5.46973 -1.40625,8.5625 0.7253,1.09515 1.60512,2.09113 1.9375,2.21875 0.33235,0.12753 2.06189,2.02825 3.875,4.21875 5.63233,6.8049 9.4856,8.51435 12.46875,5.53125 1.64952,-1.6496 4.3125,-5.651 4.3125,-6.5 0,-0.3226 0.15793,-0.80385 0.375,-1.03125 0.21709,-0.2273 0.7119,-1.11525 1.0625,-1.96875 l 0.625,-1.53125 -7.21875,0.0312 c -7.41114,0.0305 -10.5,-0.2943 -10.5,-1.125 0,-0.31625 1.16814,-0.41813 3.53125,-0.28125 1.93662,0.11189 5.77363,0.0799 8.5625,-0.0937 7.14646,-0.44449 8.96875,-1.47927 8.96875,-5.15625 0,-2.07111 -1.1399,-4.3464 -2.1875,-4.375 -0.2735,0 -0.6435,-0.29733 -0.78125,-0.65625 -0.13776,-0.35893 -0.49663,-0.6875 -0.8125,-0.6875 -0.31585,0 -1.20509,-1.06339 -2,-2.375 -2.36694,-3.90531 -6.07179,-7.1542 -8.21875,-7.1875 z m -4.9375,6.0625 c 1.02167,0 0.398,2.12392 -1.46875,4.90625 -1.07668,1.60486 -1.9375,3.13659 -1.9375,3.375 0,0.96557 1.92888,1.2903 7.9375,1.40625 5.6923,0.11016 6.38685,0.06 7.21875,-0.6875 0.5071,-0.45577 0.9375,-1.11033 0.9375,-1.40625 0,-0.29603 -0.89205,-1.48992 -1.96875,-2.6875 -1.07669,-1.19749 -1.96875,-2.6331 -1.96875,-3.15625 0,-1.29817 0.87758,-0.88349 2.09375,0.9375 0.54702,0.81904 1.47075,2.03353 2.0625,2.71875 0.59177,0.68513 1.19581,1.72301 1.34375,2.3125 0.33732,1.34402 -0.53494,3.02085 -1.75,3.375 -1.97986,0.57719 -8.92065,0.60757 -12.25,0.0625 -5.08801,-0.83296 -5.69873,-1.27223 -5.40625,-3.9375 0.16267,-1.48231 4.24881,-7.21875 5.15625,-7.21875 z" />
  </g>
</svg>
