<?xml version="1.0" encoding="UTF-8" standalone="no"?>
<!-- Created with Inkscape (http://www.inkscape.org/) -->

<svg
   xmlns:dc="http://purl.org/dc/elements/1.1/"
   xmlns:cc="http://creativecommons.org/ns#"
   xmlns:rdf="http://www.w3.org/1999/02/22-rdf-syntax-ns#"
   xmlns:svg="http://www.w3.org/2000/svg"
   xmlns="http://www.w3.org/2000/svg"
   xmlns:sodipodi="http://sodipodi.sourceforge.net/DTD/sodipodi-0.dtd"
   xmlns:inkscape="http://www.inkscape.org/namespaces/inkscape"
   width="800"
   height="400"
   id="svg2"
   version="1.1"
   inkscape:version="0.48+devel r11738"
   sodipodi:docname="child.svg">
  <defs
     id="defs4" />
  <sodipodi:namedview
     id="base"
     pagecolor="#ffffff"
     bordercolor="#666666"
     borderopacity="1.0"
     inkscape:pageopacity="0.0"
     inkscape:pageshadow="2"
     inkscape:zoom="1"
     inkscape:cx="307.32347"
     inkscape:cy="179.06713"
     inkscape:document-units="px"
     inkscape:current-layer="layer1"
     showgrid="false"
     showguides="true"
     inkscape:guide-bbox="true"
     inkscape:window-width="1366"
     inkscape:window-height="705"
     inkscape:window-x="-4"
     inkscape:window-y="-4"
     inkscape:window-maximized="1"
     width="0px"
     height="0px"
     fit-margin-top="0"
     fit-margin-left="0"
     fit-margin-right="0"
     fit-margin-bottom="0">
    <sodipodi:guide
       orientation="1,0"
       position="400.22244,349.31075"
       id="guide3178" />
  </sodipodi:namedview>
  <metadata
     id="metadata7">
    <rdf:RDF>
      <cc:Work
         rdf:about="">
        <dc:format>image/svg+xml</dc:format>
        <dc:type
           rdf:resource="http://purl.org/dc/dcmitype/StillImage" />
        <dc:title></dc:title>
        <cc:license
           rdf:resource="" />
      </cc:Work>
    </rdf:RDF>
  </metadata>
  <g
     inkscape:label="Layer 1"
     inkscape:groupmode="layer"
     id="layer1"
     transform="translate(0,-652.36218)">
    <path
       style="fill:#000000"
       d="m 317.14362,1043.7041 c -0.58745,-1.0976 -1.06807,-3.025 -1.06807,-4.2832 0,-1.2581 -0.87709,-6.8905 -1.94909,-12.5163 -2.7563,-14.4651 -4.37023,-28.7056 -4.48907,-39.60904 -0.0949,-8.70434 -0.3282,-9.75166 -3.25626,-14.61637 -5.33413,-8.86221 -5.96763,-17.64941 -1.73782,-24.10491 2.18079,-3.3283 10.09215,-8.6562 12.83515,-8.64382 2.95525,0.0133 12.10096,5.5033 14.00244,8.40532 2.58938,3.95188 2.74796,10.06216 0.47274,18.21366 -1.36285,4.88268 -2.06057,10.27788 -2.06057,15.93362 0,4.70317 -0.44435,12.92858 -0.98745,18.27874 -0.54309,5.3501 -1.40579,16.7922 -1.9171,25.4268 -0.98293,16.5992 -1.33774,17.6887 -6.14378,18.8661 C 318.80648,1045.5541 317.9704,1045.249 317.14362,1043.7041 z m 5.74957,-4.3598 c 1.17333,-3.6039 2.9025,-24.8552 3.73205,-45.86637 l 0.55472,-14.05042 -3.25666,1.62463 c -2.59624,1.29518 -4.01871,1.42123 -7.01455,0.6216 l -3.75791,-1.00304 -0.6937,3.55916 c -0.38154,1.95755 -0.6705,5.11365 -0.64213,7.01356 0.0943,6.31389 6.72196,49.71278 7.87786,51.58508 C 320.48817,1044.1167 321.80682,1042.681 322.89319,1039.3443 z m 3.55946,-65.22745 c 0.27178,-1.1656 1.36423,-5.66903 2.42768,-10.00765 1.84246,-7.51685 1.85375,-8.04856 0.23943,-11.28947 -0.93176,-1.87061 -4.04051,-5.1203 -6.90835,-7.22156 l -5.21424,-3.82046 -6.38261,6.3826 c -4.88107,4.88108 -6.3791,7.04261 -6.36773,9.18815 0.0163,3.08118 1.7181,8.34385 3.93918,12.18171 0.78539,1.35708 1.89095,3.34628 2.45682,4.42045 0.56585,1.07418 2.74171,2.91385 4.83521,4.08817 l 3.80638,2.13513 3.33704,-1.96891 C 324.45684,977.12212 326.18087,975.28245 326.45265,974.11685 z m -147.32114,67.21505 c -2.93907,-3.6831 -4.19207,-7.9973 -4.19207,-14.4334 0,-7.1127 0.51169,-10.2 4.60079,-27.7594 3.93978,-16.91803 4.54712,-19.19223 5.43419,-20.34854 0.51042,-0.66534 0.2555,-1.59283 -0.64266,-2.33822 -3.04749,-2.5292 -7.79834,-13.89368 -7.78787,-18.62934 0.0157,-7.11825 1.03573,-9.64687 4.83967,-11.99783 3.45931,-2.13797 8.04159,-2.09491 9.39086,0.0882 0.30623,0.49549 2.30928,-0.0118 4.45123,-1.12746 4.46756,-2.32683 10.3441,-2.08491 13.25066,0.54549 1.68278,1.5229 2.12819,1.46372 6.79934,-0.90333 2.74923,-1.39313 5.69726,-2.53297 6.55117,-2.53297 3.00242,0 9.46746,4.06095 11.32328,7.11261 3.45973,5.68906 3.45419,9.74955 -0.028,20.52223 l -3.18528,9.85418 2.60376,3.93455 c 1.43206,2.16399 2.60376,4.31996 2.60376,4.79102 0,0.47107 0.6857,2.23102 1.52378,3.91098 4.78788,9.59753 5.14651,32.46973 0.58071,37.03553 -1.90975,1.9097 -2.14696,1.9333 -3.85907,0.3839 -1.00333,-0.908 -3.31408,-5.0992 -5.135,-9.3139 -6.12635,-14.1799 -12.53555,-22.20455 -19.4547,-24.35827 -2.47141,-0.76928 -9.85025,3.35444 -10.90073,6.09197 -0.34813,0.9072 -2.26184,4.1082 -4.25268,7.1134 -3.34309,5.0462 -4.09878,7.171 -5.45358,15.3335 -1.77183,10.675 -2.86798,15.0154 -4.17501,16.5316 C 182.26585,1042.8712 180.50193,1043.0493 179.13151,1041.3319 z m 4.42274,-6.2234 c 0.6669,-2.6607 1.64823,-7.9701 2.18073,-11.7985 2.19326,-15.769 14.75121,-32.24653 23.34691,-30.63397 4.91425,0.92192 12.04464,7.47917 16.83145,15.47857 2.3629,3.9487 4.29619,7.7732 4.29619,8.499 0,1.6816 4.2492,11.0608 5.02314,11.0875 2.98735,0.103 4.11888,-22.7346 1.38605,-27.9746 -0.8109,-1.5548 -1.47436,-3.79043 -1.47436,-4.96806 0,-1.17763 -1.55558,-4.55563 -3.45683,-7.50667 -1.90125,-2.95105 -3.67262,-6.04502 -3.93637,-6.87548 -0.40879,-1.28716 -3.31498,-1.50994 -19.69721,-1.50994 l -19.21767,0 -1.46674,3.94786 c -0.80671,2.17132 -2.84561,9.49955 -4.5309,16.28489 -1.68528,6.7854 -3.46367,13.8916 -3.95197,15.7915 -1.89507,7.3734 -1.9797,12.0281 -0.34207,18.813 0.93879,3.8896 2.13059,6.7484 2.73132,6.5516 C 181.86209,1040.1033 182.88734,1037.7693 183.55425,1035.1085 z m 43.59604,-61.18938 c 2.38771,-2.51315 5.03317,-10.64447 5.03317,-15.4704 0,-5.25985 -2.27709,-9.1884 -7.0851,-12.22356 -3.50029,-2.20963 -4.18582,-2.35738 -4.91259,-1.05872 -0.46454,0.8301 -2.11303,1.78785 -3.66331,2.12835 -1.65487,0.36347 -3.27375,1.61785 -3.92082,3.03803 -1.39504,3.06177 -2.50817,3.06284 -3.902,0.004 -0.60524,-1.32837 -2.22907,-3.15473 -3.60851,-4.05857 -2.36877,-1.55208 -2.75069,-1.52932 -6.87602,0.40981 -2.40236,1.12925 -4.66905,2.54041 -5.03709,3.1359 -0.45612,0.73801 -1.23483,0.5708 -2.44591,-0.5252 -2.04054,-1.84667 -7.48568,-2.2876 -9.04115,-0.73213 -0.57883,0.57882 -1.43086,3.07809 -1.89339,5.55392 -0.95185,5.09498 0.29599,9.70869 4.37229,16.16596 3.27808,5.19283 7.48623,6.11062 26.57208,5.79532 C 223.72511,975.86707 225.52492,975.62988 227.15029,973.91912 z m 266.62984,57.61698 c -1.10006,-1.1808 -2.20007,-3.5125 -2.44447,-5.1816 -0.2444,-1.6691 -0.94754,-6.3657 -1.56254,-10.4369 -0.61498,-4.0713 -1.52134,-14.2864 -2.0141,-22.70025 -0.68822,-11.75134 -1.40529,-16.67086 -3.093,-21.21976 -3.06306,-8.2559 -3.10926,-19.56036 -0.0972,-23.79038 3.09161,-4.34177 9.38037,-8.37094 14.04115,-8.99608 3.84517,-0.51574 4.28922,-0.28803 9.30611,4.77233 7.20517,7.26758 7.72744,10.69455 3.41238,22.39062 -2.90325,7.86935 -3.22045,9.89979 -3.80802,24.37586 -0.35804,8.82126 -1.35736,18.84086 -2.26402,22.70016 -0.89268,3.7999 -1.63078,8.2173 -1.6402,9.8167 -0.0192,3.2537 -4.50814,10.4161 -6.52821,10.4161 C 496.36872,1033.6829 494.88018,1032.7169 493.78013,1031.5361 z m 4.67501,-1.0608 c 2.82149,-3.414 7.11785,-32.2749 7.11785,-47.81424 l 0,-6.3976 -2.95557,2.48696 c -4.41472,3.71473 -6.51741,4.06628 -9.63289,1.61051 l -2.70951,-2.13578 -0.29008,7.59722 c -0.15955,4.17847 0.21166,11.65997 0.82491,16.62553 0.61324,4.9656 1.44086,12.8835 1.83916,17.5953 C 493.49552,1030.0573 495.63044,1033.8932 498.45514,1030.4753 z m 4.51809,-55.76276 c 5.81241,-6.59256 10.49974,-23.93472 6.46919,-23.93472 -0.49969,0 -0.90854,-0.61452 -0.90854,-1.3656 0,-1.49544 -7.31079,-8.50405 -8.87071,-8.50405 -0.53311,0 -3.11045,1.31747 -5.72743,2.92771 -6.19724,3.81319 -9.61526,10.16364 -8.66589,16.10063 1.20793,7.55404 3.69072,13.37854 7.19773,16.88555 C 496.49858,980.85306 497.78756,980.59424 502.97323,974.71254 Z M 245.9281,1030.1408 c -2.9041,-3.4993 -3.78051,-10.2954 -2.8524,-22.119 0.81555,-10.38957 1.90715,-15.10609 6.34197,-27.4019 1.04038,-2.88451 1.21948,-4.74727 0.56937,-5.9218 -2.94979,-5.32932 -6.94696,-17.00848 -6.94696,-20.29804 0,-4.93147 2.61943,-10.40801 5.2991,-11.07905 2.43009,-0.60854 2.65814,-0.6098 16.41415,-0.0904 6.97671,0.26344 12.34929,-0.0839 16.44114,-1.06282 7.01486,-1.67825 10.64126,-0.64854 12.94333,3.67521 1.61308,3.02969 1.10754,20.9153 -0.69907,24.73231 -1.25215,2.64557 -0.95104,3.44014 5.69527,15.02835 3.50719,6.11498 5.8917,17.42604 6.01288,28.52244 0.0854,7.8209 -1.13255,11.6611 -3.69842,11.6611 -2.0712,0 -5.11222,-2.9231 -5.11222,-4.9139 0,-0.7173 -2.15976,-4.6796 -4.79946,-8.805 -2.63971,-4.1255 -5.1346,-8.6112 -5.54422,-9.9683 -1.02386,-3.39209 -6.49114,-10.51961 -8.94677,-11.66361 -3.75558,-1.74961 -11.80345,4.00053 -15.40707,11.00821 -1.6812,3.2693 -5.2816,14.5832 -8.37467,26.3166 -0.70408,2.6708 -1.48228,3.5216 -3.4311,3.751 C 248.36837,1031.6845 246.73252,1031.11 245.9281,1030.1408 z m 6.43405,-10.076 c 2.64112,-12.5213 4.63117,-18.2573 7.68961,-22.16419 3.39691,-4.33922 12.42467,-10.60505 15.27969,-10.60505 4.5327,0 9.92738,6.06143 16.05004,18.03374 3.26794,6.3902 5.95649,12.1639 5.97455,12.8306 0.0443,1.6349 3.81603,6.0814 4.5424,5.355 1.1819,-1.1819 1.5883,-13.7584 0.55826,-17.2759 -4.99842,-17.06944 -6.48343,-21.09253 -9.51712,-25.78324 -1.90637,-2.94765 -3.59952,-5.75951 -3.76255,-6.24859 -0.16303,-0.48908 -2.06094,-0.20799 -4.21759,0.62468 -8.2818,3.1975 -19.02286,3.97311 -28.64626,2.06851 -1.62028,-0.32068 -2.24022,0.33272 -3.10262,3.27003 -0.59276,2.01893 -2.19614,6.62584 -3.56308,10.23756 -4.63234,12.23955 -6.01828,31.07735 -2.73746,37.20755 C 248.79275,1031.1335 250.53696,1028.7179 252.36215,1020.0648 z m 25.85027,-46.13316 c 11.41247,-2.86865 14.72347,-7.06507 14.59313,-18.49556 -0.14006,-12.28317 -5.17152,-14.84328 -16.88615,-8.59201 -6.33546,3.3808 -7.46667,3.33646 -15.90172,-0.62316 -7.2247,-3.39145 -11.9888,-1.52698 -13.99785,5.47815 -0.96014,3.34782 0.39641,7.98183 5.21989,17.83111 l 2.17505,4.44135 7.39647,1.09389 C 268.40572,976.18859 269.52324,976.11578 278.21242,973.93164 z m -5.56336,-27.59516 c 2.32771,-1.33064 2.10419,-1.40996 -3.94787,-1.40096 -6.2222,0.009 -6.32616,0.0503 -3.45438,1.36532 C 269.03906,948.03728 269.66852,948.04031 272.64906,946.33648 z m 308.13197,82.39752 c -5.62318,-6.0358 -4.86293,-22.1306 1.93406,-40.94496 0.58832,-1.62849 2.00256,-5.48076 3.14276,-8.56059 l 2.07309,-5.59969 -2.35834,-7.72434 c -4.31512,-14.13346 -3.74144,-19.21928 2.6108,-23.14517 2.54783,-1.57465 5.14002,-2.14363 10.15677,-2.2294 6.26678,-0.10714 6.88741,0.0774 8.91217,2.65048 2.08841,2.65393 2.25326,2.69601 4.08109,1.04185 2.24273,-2.02965 14.80013,-2.56953 16.6546,-0.71602 0.83255,0.8321 1.88914,0.73291 4.13682,-0.38839 3.9205,-1.9558 7.79156,-0.68017 9.08344,2.99327 0.95036,2.70232 -0.66601,15.94705 -2.36557,19.38386 -4.52488,9.15012 -4.78496,11.4133 -1.9501,16.97009 1.79854,3.52541 5.09411,15.61191 7.77581,28.51771 2.21154,10.6432 2.21921,11.8152 0.0998,15.2445 -2.38845,3.8646 -3.67705,4.5319 -6.63059,3.4339 -2.49323,-0.927 -3.73421,-2.9718 -4.7468,-7.8217 -0.81737,-3.9149 -9.35086,-18.7876 -13.23038,-23.0589 -1.41179,-1.55429 -4.21555,-3.88095 -6.2306,-5.17032 l -3.66374,-2.34432 -3.73851,2.13225 c -2.05618,1.17275 -4.54726,2.81952 -5.53574,3.6595 -1.76923,1.50349 -6.59198,11.03719 -6.59198,13.03119 0,0.5618 -0.93266,3.3245 -2.07257,6.1393 C 586.51084,1030.5908 584.51991,1032.7472 580.78103,1028.734 z m 5.68275,-4.1805 c 1.06901,-2.307 2.39906,-6.2752 2.95569,-8.8182 2.7259,-12.4536 7.8842,-20.43463 15.82583,-24.48616 4.97508,-2.53809 7.53661,-1.94282 13.23891,3.07655 4.3329,3.81401 13.4204,15.63231 13.4204,17.45331 0,0.5148 0.6276,1.4568 1.39466,2.0934 0.76707,0.6366 1.69212,3.3203 2.05568,5.9637 0.39162,2.8474 1.44748,5.5179 2.59066,6.5525 1.85757,1.6811 2.02624,1.6497 4.51685,-0.8409 l 2.58721,-2.5873 -1.71239,-8.2095 c -2.81773,-13.5087 -6.60848,-26.64407 -9.23884,-32.01357 l -2.47469,-5.0517 -16.88473,-0.17585 c -9.28661,-0.0967 -18.38424,-0.26618 -20.21698,-0.37661 -3.49848,-0.21077 -3.81944,0.0986 -6.44766,6.21452 -5.39507,12.55454 -10.57423,34.81721 -8.56683,36.82461 0.59116,0.5912 1.07484,1.9035 1.07484,2.9163 0,2.3416 1.75323,5.6595 2.99056,5.6595 C 584.0939,1028.7481 585.39477,1026.8605 586.46378,1024.5535 z m 39.34388,-50.44177 6.24012,-1.12718 2.29526,-5.92179 c 4.60332,-11.87667 5.83647,-17.13511 4.63612,-19.76959 -1.51226,-3.31903 -3.42175,-3.06324 -7.48807,1.00308 l -3.44022,3.4402 -1.28076,-2.66413 c -0.70443,-1.46527 -2.42114,-3.30331 -3.81492,-4.08452 -2.25634,-1.26468 -2.99021,-1.21917 -6.69448,0.41515 -2.70478,1.19335 -4.36359,2.64533 -4.74127,4.15012 -0.55983,2.23052 -0.73725,2.15143 -4.88576,-2.1782 -5.14674,-5.37143 -6.06805,-5.59664 -13.54027,-3.30983 -2.8231,0.86399 -4.25288,2.09385 -5.67505,4.88153 -2.28441,4.47781 -2.34185,5.69099 -0.44275,9.35151 0.80211,1.54608 1.92423,5.03889 2.49358,7.76179 0.56936,2.72291 1.36514,5.47746 1.7684,6.1212 C 592.88609,974.81264 615.06896,976.05151 625.80766,974.11173 z m -56.77525,52.41567 c -1.11343,-1.2213 -2.58711,-3.9753 -3.27486,-6.1198 -3.69478,-11.5213 -11.27025,-24.19549 -17.35984,-29.0441 l -4.93212,-3.92701 -4.96073,5.11111 c -4.6428,4.78352 -11.21863,14.3941 -11.21863,16.396 0,0.4907 -0.64003,2.1496 -1.42229,3.6863 -0.78227,1.5368 -2.29856,4.8177 -3.36953,7.291 -1.07098,2.4733 -2.67584,5.1015 -3.56635,5.8406 -1.38943,1.1531 -1.89856,1.0643 -3.58897,-0.6262 -1.44936,-1.4493 -1.9966,-3.3837 -2.07108,-7.321 -0.1561,-8.2525 3.61385,-26.50216 7.12936,-34.51195 2.54335,-5.79478 3.02278,-7.92969 2.50621,-11.16011 -0.35131,-2.19702 -1.08605,-4.53353 -1.63273,-5.19224 -1.43042,-1.72356 -2.25451,-14.0901 -1.2043,-18.07213 0.49034,-1.85921 2.12505,-4.30195 3.63269,-5.42831 2.72191,-2.03353 3.26415,-2.08522 17.40451,-1.65912 1.35708,0.0409 5.30504,0.0937 8.77325,0.11731 3.46821,0.0236 6.99554,0.42895 7.83852,0.9007 0.98878,0.55335 2.35208,0.32085 3.84164,-0.65514 1.73759,-1.13851 3.09498,-1.28836 5.48552,-0.60557 3.6104,1.03121 5.49397,4.98723 5.58828,11.73688 0.0679,4.86036 -2.39612,14.69158 -4.39881,17.55082 -2.26133,3.2285 -1.75727,9.09907 1.35943,15.83271 5.46755,11.81265 8.07365,34.81225 4.51957,39.88645 C 572.18981,1029.2977 571.5547,1029.2943 569.03241,1026.5274 z m 4.01914,-2.9609 c 1.82852,-6.823 -0.15482,-22.4954 -3.71578,-29.36218 -0.70375,-1.35708 -2.30837,-5.79843 -3.56581,-9.86966 -1.25744,-4.07123 -2.32558,-7.47661 -2.37364,-7.56751 -0.0481,-0.0909 -2.30771,0.26781 -5.02144,0.79714 -5.08302,0.99147 -7.27362,0.71427 -23.6864,-2.99726 -7.18015,-1.62368 -7.92642,-1.64213 -8.23442,-0.20354 -0.18628,0.87008 -2.0402,6.68951 -4.11982,12.93207 -5.74935,17.25824 -8.38296,35.22164 -5.31142,36.22814 1.20176,0.3938 7.30252,-12.4633 7.30252,-15.3897 0,-1.0144 0.69186,-2.4186 1.53747,-3.1204 0.8456,-0.7018 2.1296,-2.6437 2.85331,-4.3154 0.72371,-1.6717 4.19896,-5.86183 7.72276,-9.31135 7.4162,-7.25987 8.20861,-7.29976 15.32322,-0.77155 6.2817,5.76396 12.39807,15.7606 15.55402,25.4215 1.48585,4.5485 2.88415,8.6031 3.10733,9.0102 C 571.20579,1026.4741 572.46199,1025.7665 573.05155,1023.5665 z m -12.24702,-49.73532 c 1.743,-0.34859 3.39398,-1.3479 3.66883,-2.22067 0.27486,-0.87278 1.56909,-4.1699 2.87607,-7.32696 1.30698,-3.15707 2.37633,-7.64121 2.37633,-9.96477 0,-4.23451 -2.35609,-10.44972 -3.96132,-10.44972 -0.47073,0 -4.04373,1.14993 -7.94,2.5554 -8.01416,2.89086 -10.79918,2.72487 -18.32248,-1.09201 -2.64742,-1.34316 -5.7471,-2.44395 -6.8882,-2.44622 -3.24404,-0.007 -8.55828,4.13208 -9.49981,7.39811 -0.96475,3.34658 -0.3289,11.44223 1.25572,15.98788 1.19025,3.41434 1.66177,3.58981 19.2015,7.14541 C 548.64497,974.44618 556.7563,974.64083 560.80453,973.83118 z m -5.88325,-28.48167 c 2.29781,-1.31354 1.9586,-1.40579 -4.93483,-1.34199 l -7.40225,0.0685 3.94787,1.30111 C 551.58165,947.04136 551.9639,947.0401 554.92128,945.34951 z m -95.51715,78.70959 c -1.79819,-2.5834 -2.41634,-4.4368 -5.67797,-17.0242 -0.77362,-2.9856 -1.69074,-12.31243 -2.03804,-20.72631 -0.41589,-10.07535 -1.26555,-17.6498 -2.4888,-22.18689 -2.43218,-9.02112 -2.40132,-15.89394 0.0897,-19.97941 2.34485,-3.84576 4.82142,-4.56331 13.96629,-4.04658 5.44363,0.30759 7.30767,0.81354 8.37496,2.27314 2.12129,2.90103 1.63239,11.1706 -1.20164,20.32537 -2.39331,7.73116 -2.6204,10.12223 -3.227,33.97751 -0.35889,14.11357 -1.00164,26.21387 -1.42835,26.88947 -0.4267,0.6757 -1.60939,1.6746 -2.62822,2.2198 C 461.64039,1026.5863 460.93813,1026.263 459.40413,1024.0591 z m 5.60846,-14.9874 c 0.32356,-6.2772 0.45147,-16.83238 0.28425,-23.45607 l -0.30404,-12.04306 -2.41012,1.09811 c -1.78561,0.81359 -3.06151,0.80134 -4.92397,-0.0473 -1.38262,-0.62995 -2.77517,-1.14537 -3.09457,-1.14537 -0.31938,0 -0.28511,5.66271 0.0762,12.58381 0.68442,13.11175 3.73156,30.24448 6.26166,35.20648 1.35355,2.6546 1.55158,2.7379 2.49626,1.0499 C 463.96257,1021.3097 464.68902,1015.3488 465.01259,1009.0717 z m -1.66692,-38.80621 c 2.69434,-2.22793 6.37028,-12.44628 7.41092,-20.60085 0.63608,-4.98438 -2.09732,-6.78254 -10.31016,-6.78254 -8.80994,0 -10.50616,1.83095 -9.92682,10.7153 0.63566,9.74826 4.98917,18.23701 9.65295,18.82197 C 460.44397,972.45341 461.87188,971.48417 463.34567,970.26549 z m -111.35923,53.01981 c -1.42549,-2.1756 -1.78656,-5.1516 -1.95588,-16.1213 -0.34176,-22.14012 -1.9336,-37.19421 -4.8144,-45.52955 -3.93647,-11.38985 -4.18176,-14.86495 -1.28684,-18.2305 2.19185,-2.54817 3.12998,-2.84467 10.31708,-3.26072 4.679,-0.27087 8.71697,-0.0237 9.89282,0.60564 2.78384,1.48986 3.43411,8.72305 1.61144,17.92468 -0.80643,4.07123 -1.8325,14.06426 -2.28015,22.20673 -1.68088,30.57452 -3.23103,39.28072 -7.70291,43.26282 C 353.77948,1025.9135 353.69611,1025.8946 351.98644,1023.2853 z m 6.18588,-10.2392 c 0.71439,-3.0347 1.30583,-8.3195 1.31431,-11.744 0.009,-3.42439 0.48594,-9.2588 1.06103,-12.96533 0.57509,-3.70653 0.90819,-8.7847 0.74022,-11.28482 l -0.30538,-4.54568 -2.80264,1.46022 c -1.98861,1.0361 -3.33142,1.17723 -4.62321,0.48589 -1.0013,-0.53589 -2.13766,-0.97434 -2.52522,-0.97434 -0.38755,0 -0.3177,3.66411 0.15523,8.14246 0.47294,4.47836 0.8837,15.02656 0.91282,23.4404 0.0291,8.4139 0.42056,15.8858 0.8699,16.6042 C 354.20476,1023.6403 356.62043,1019.6386 358.17232,1013.0461 z m -0.54914,-40.83316 c 3.58284,-2.73416 6.8137,-13.1551 6.8137,-21.97718 0,-6.18241 -2.36935,-8.34063 -9.15657,-8.34063 -10.17957,0 -12.16426,4.37022 -8.26787,18.20546 1.87735,6.66605 3.12148,9.2756 5.25404,11.02036 C 355.51883,973.78186 355.55706,973.78966 357.62318,972.21294 z m 30.30402,43.98786 c -1.50961,-1.7112 -2.31157,-8.8191 -4.7089,-41.7358 -0.37558,-5.15689 -1.6461,-12.88926 -2.82339,-17.18303 -2.72011,-9.92077 -2.69529,-12.54763 0.14377,-15.2148 1.92785,-1.81111 3.44403,-2.14597 9.71669,-2.14597 11.26775,0 12.29491,2.07118 8.8104,17.76538 -0.54235,2.44274 -1.00544,9.8175 -1.02907,16.38835 -0.0668,18.57836 -1.80837,36.86187 -3.84296,40.34557 C 392.10822,1017.9914 390.02808,1018.5824 387.9272,1016.2008 z m 6.10624,-10.7415 c 0.47015,-3.7475 1.12619,-13.78309 1.45785,-22.30129 l 0.60304,-15.48767 -3.04446,1.51878 c -1.83026,0.91305 -4.06047,1.26377 -5.59199,0.87938 l -2.54753,-0.63938 0.63145,5.72557 c 0.3473,3.14908 1.19024,12.83174 1.87319,21.51704 0.68295,8.68527 1.61856,16.38927 2.07914,17.11987 C 391.08976,1016.3228 393.1435,1012.553 394.03344,1005.4593 z m -1.12269,-39.66895 c 2.26327,-3.17848 5.08296,-13.25534 5.08296,-18.16523 0,-4.63026 -1.4937,-5.72999 -7.78277,-5.72999 -8.85553,0 -11.81885,4.24688 -8.50216,12.18484 0.81424,1.94877 1.48045,4.71029 1.48045,6.13671 0,3.33967 3.54663,8.32653 5.92179,8.32653 C 390.12276,968.54321 391.83263,967.30442 392.91075,965.79035 z m 28.69334,46.54855 c -2.55312,-4.131 -3.71211,-13.4513 -3.80896,-30.63047 -0.0456,-8.09519 -0.58202,-12.67404 -2.0233,-17.2719 -1.9363,-6.17703 -2.63987,-17.1159 -1.23133,-19.14422 3.21774,-4.63361 13.02912,-5.90134 18.73724,-2.42103 2.45174,1.49486 3.20764,2.6417 3.20764,4.86662 0,3.63385 -2.64667,16.40007 -3.87641,18.69786 -0.50339,0.94059 -1.12751,11.82393 -1.38693,24.18518 -0.42738,20.36436 -0.64264,22.60456 -2.29225,23.85446 C 425.96413,1016.7224 423.95023,1016.1351 421.60409,1012.3389 z m 5.70384,0.8208 c 0.83925,-0.5334 1.33577,-7.2338 1.69936,-22.93182 0.38898,-16.79469 0.24424,-21.63911 -0.59629,-19.95748 -1.32808,2.65707 -4.3627,2.86976 -7.04079,0.49348 -1.93115,-1.71353 -1.94204,-1.59446 -1.37658,15.05123 0.53126,15.63869 0.87294,17.85829 4.14016,26.89479 C 424.64147,1014.1141 425.59412,1014.2491 427.30793,1013.1597 z m 1.23422,-47.33065 c 3.14094,-3.8026 4.36646,-7.1864 5.51252,-15.22067 0.62963,-4.41392 0.5291,-4.67729 -2.35463,-6.16854 -4.0183,-2.07793 -9.95582,-1.942 -12.86438,0.29452 -2.91282,2.23978 -3.91839,9.87834 -2.04693,15.5489 1.16955,3.54382 6.03305,9.24691 7.88558,9.24691 C 425.12021,969.53017 426.86075,967.86467 428.54215,965.82905 z m -4.39384,-37.43676 c -5.63375,-1.26523 -8.38447,-2.62785 -9.8644,-4.8865 -1.43807,-2.19479 -1.49408,-3.35738 -0.46119,-9.57306 1.42819,-8.59451 3.16089,-11.78022 7.54409,-13.87043 4.54359,-2.16668 4.65452,-2.13472 8.22133,2.36875 4.09608,5.17172 6.67267,16.40094 4.83812,21.08537 C 432.43371,928.6043 430.07496,929.7233 424.14831,928.39229 z m 7.94201,-5.33902 c 2.53493,-4.90201 -0.46528,-16.66959 -5.36838,-21.0561 -2.11285,-1.89024 -2.14052,-1.8833 -5.50751,1.38011 -2.18676,2.11948 -3.77129,4.88671 -4.47871,7.82158 -0.60209,2.49792 -1.35816,5.62562 -1.68016,6.95045 -0.92892,3.82191 4.65971,7.95437 10.75731,7.95437 C 430.06754,926.10368 430.66237,925.81464 432.09032,923.05327 z m -162.40216,2.76285 c -1.71692,-0.93005 -3.11945,-1.05208 -4.6111,-0.40118 -3.17815,1.38683 -12.59917,-0.11566 -16.20052,-2.58369 -4.48917,-3.07648 -7.16626,-10.38463 -6.3936,-17.45385 1.06827,-9.7739 2.94585,-16.93773 5.02808,-19.18449 1.69576,-1.82976 3.51628,-2.32045 10.64101,-2.8681 11.93584,-0.91746 21.86941,1.15714 26.69213,5.57459 4.52666,4.14626 7.67531,11.3274 8.28033,18.88501 0.55288,6.90634 -1.48524,11.46315 -7.01289,15.67929 C 282.08339,926.53618 273.33155,927.78974 269.68816,925.81612 z m 10.67366,-2.69858 c 8.43661,-3.64728 11.92256,-12.25897 8.30516,-20.51705 -1.11436,-2.54393 -2.56171,-6.06484 -3.21635,-7.82425 -1.66245,-4.46805 -6.38848,-7.02298 -15.42799,-8.34051 -6.29226,-0.9171 -8.82778,-0.86456 -13.5178,0.2801 -5.15831,1.25896 -6.01571,1.84138 -8.05466,5.47143 -1.6725,2.97763 -2.46751,6.43573 -2.97707,12.94959 l -0.69523,8.88711 3.84288,3.84288 c 6.30661,6.30661 15.58189,7.70035 17.55174,2.63739 0.66411,-1.70692 0.79,-1.69429 2.36749,0.23759 1.70159,2.08387 4.94935,4.29097 6.39352,4.34488 C 275.37571,925.10321 277.81845,924.21708 280.36182,923.11754 z m -27.98009,-9.91118 c -1.51254,-2.92493 -1.50017,-2.99261 0.3645,-1.99467 2.35086,1.25813 3.81865,-0.17606 4.70239,-4.59477 0.45098,-2.25492 0.0259,-3.7939 -1.68836,-6.11256 l -2.29109,-3.09886 -1.61894,2.14627 c -0.94208,1.24896 -1.87868,1.72602 -2.2402,1.14106 -0.34169,-0.55286 0.28191,-2.15341 1.38578,-3.55675 l 2.00705,-2.55155 3.89968,3.66925 c 2.14482,2.01807 3.90041,4.21488 3.90131,4.88178 9.8e-4,0.93481 0.56613,0.95534 2.46612,0.0896 2.30834,-1.05175 5.53715,-0.53137 11.01848,1.77581 1.82685,0.76896 5.26937,-3.674 5.26937,-6.80073 0,-3.5393 2.25286,-3.16073 2.40895,0.4048 0.0954,2.18011 1.1657,4.19628 4.92537,9.27849 1.32353,1.7891 -2.1723,6.9985 -3.68279,5.488 -0.80806,-0.80805 -0.67221,-1.52683 0.51246,-2.7115 1.49133,-1.49133 1.4562,-1.82268 -0.46924,-4.42698 -2.07005,-2.7999 -2.09105,-2.80445 -3.9134,-0.84839 -2.19525,2.35633 -5.72384,2.51699 -9.73408,0.44322 -2.73495,-1.41429 -3.14317,-1.38297 -5.69974,0.43746 -1.51459,1.07849 -4.0024,3.76262 -5.52848,5.96476 -1.52608,2.20216 -3.14702,4.0039 -3.60208,4.0039 C 254.31972,916.23402 253.24285,914.87157 252.38173,913.20636 z m 59.32937,11.4761 c -6.22016,-2.28796 -9.64168,-6.40876 -10.20709,-12.29318 -0.54229,-5.64368 0.68556,-9.51394 4.86946,-15.34878 1.53632,-2.14256 2.79332,-4.40543 2.79332,-5.0286 0,-1.79189 3.31516,-4.3227 6.49562,-4.95878 4.25611,-0.85122 7.46326,2.17305 12.16706,11.4733 7.89927,15.61825 4.90247,25.22232 -8.44268,27.05686 C 317.19889,925.88405 313.9371,925.50124 311.7111,924.68246 z m 12.33311,-3.15508 c 4.25804,-2.31752 4.84586,-3.04676 5.37002,-6.66202 0.48455,-3.342 -0.0934,-5.62449 -3.26913,-12.91178 -2.33339,-5.35429 -4.89,-9.62283 -6.47015,-10.80258 -2.60362,-1.94388 -2.62159,-1.94378 -5.32659,0.0299 -2.81407,2.05324 -10.85637,16.27218 -11.01377,19.47256 -0.16263,3.30653 3.2903,7.72102 8.29961,10.6109 2.71416,1.56579 5.54093,2.85106 6.28172,2.85616 C 318.6567,924.12558 321.41444,922.95868 324.04421,921.52738 z m -132.09066,2.48227 c -1.77027,-0.51097 -3.76888,-1.84025 -4.44134,-2.95396 -0.67247,-1.11371 -2.90606,-2.89442 -4.96355,-3.95713 -4.36344,-2.25375 -5.63737,-4.97645 -5.62978,-12.03215 0.0103,-9.61485 4.92526,-21.8075 10.35763,-25.69461 3.32996,-2.38274 6.01279,-2.49259 21.84475,-0.89453 7.81315,0.78866 10.66694,1.50175 13.04442,3.2595 10.35783,7.65787 12.21572,37.83926 2.59902,42.22092 C 221.71228,925.34846 196.72902,925.38803 191.95355,924.00965 z m 12.75867,-2.92846 c 1.74661,-0.93477 1.92085,-1.67341 1.33865,-5.67506 -0.36812,-2.53023 -1.2754,-5.54517 -2.01617,-6.69987 -1.87214,-2.91823 -6.03501,-3.79179 -8.95427,-1.87901 -2.811,1.84184 -6.52384,8.72315 -5.76857,10.69137 C 190.65044,921.00691 200.56534,923.30053 204.71222,921.08119 z m 17.52221,-0.17363 c 4.46296,-2.27846 6.22643,-7.11373 5.84739,-16.03304 -0.28568,-6.72257 -0.86736,-9.03319 -3.65734,-14.52795 -2.92762,-5.76587 -3.87729,-6.77473 -8.07847,-8.58203 -8.55142,-3.67873 -13.15654,0.52059 -10.17306,9.27662 1.00715,2.95582 1.21208,4.93222 0.59355,5.72427 -0.5196,0.66534 -1.40645,2.58507 -1.97079,4.26605 -0.93412,2.78239 -0.78777,3.1971 1.63271,4.62692 2.58715,1.52826 2.72539,1.4858 5.13029,-1.57588 1.35932,-1.73056 3.05678,-4.58991 3.77214,-6.35411 0.71535,-1.7642 1.65387,-3.20764 2.08561,-3.20764 1.61857,0 1.5482,2.56465 -0.14685,5.35193 -1.74087,2.86262 -1.73498,2.89465 0.77082,4.19467 3.17886,1.64922 3.2864,1.64095 3.2864,-0.25266 0,-0.85949 0.55517,-1.35915 1.23371,-1.11034 0.67854,0.24879 1.08056,1.06304 0.89337,1.80943 -0.18718,0.7464 -0.50636,2.19441 -0.70927,3.21782 -0.56932,2.87135 -1.01663,2.89206 -3.73568,0.17301 -2.98125,-2.98126 -4.02675,-3.12588 -5.78365,-0.80004 -0.71758,0.94995 -2.1862,2.23279 -3.2636,2.85074 -1.0774,0.61796 -1.86186,1.7283 -1.74323,2.46741 0.38106,2.37426 1.41314,7.22787 1.80732,8.49937 C 210.52613,922.53604 219.06453,922.52587 222.23443,920.90756 z m -33.47747,-11.92875 c 0,-0.83356 0.84163,-2.10504 1.87028,-2.82554 1.83551,-1.28565 1.83544,-1.35301 -0.004,-3.62445 -1.23884,-1.5299 -2.54162,-2.1399 -3.84323,-1.79953 -2.75987,0.72173 -3.32772,-0.77891 -1.40508,-3.71322 1.95237,-2.9797 3.82108,-3.29439 3.09592,-0.52136 -0.30993,1.18515 -0.0303,1.97393 0.69981,1.97393 0.6688,0 2.25911,1.11033 3.53402,2.46741 3.83921,4.08665 6.63472,3.2271 9.96162,-3.06297 1.13803,-2.15161 1.31896,-3.63877 0.65497,-5.38327 -0.50459,-1.32572 -0.67793,-4.52002 -0.3852,-7.09847 0.49983,-4.40264 0.39234,-4.68809 -1.76531,-4.68809 -1.26365,0 -3.57443,-0.24736 -5.13507,-0.5497 -2.06966,-0.40093 -3.95426,0.18099 -6.96424,2.15044 -5.37643,3.51784 -8.51182,11.41421 -8.62592,21.72415 -0.0701,6.33116 0.16598,7.23787 2.34462,9.00589 l 2.42255,1.96596 1.77206,-2.25282 C 187.95953,911.50812 188.75696,909.81237 188.75696,908.97881 z m 191.71811,14.67799 c -1.81421,-1.31769 -2.21853,-2.55109 -2.20896,-6.73852 0.0176,-7.70491 2.40713,-15.40222 5.85028,-18.84537 l 2.98056,-2.98055 2.73422,2.03946 c 4.65379,3.47126 8.16254,11.46692 8.16254,18.60058 0,7.5883 -0.88661,8.47106 -9.11983,9.08021 C 384.17376,925.16036 382.16448,924.88385 380.47507,923.6568 z m 14.06795,-3.47899 c 1.63534,-1.80703 1.67685,-2.46822 0.48027,-7.64899 -4.30617,-18.64427 -11.60457,-18.12061 -14.35246,1.02982 -0.54442,3.79407 -0.33266,5.10874 1.07303,6.66202 C 384.21274,922.94873 392.05914,922.92246 394.54302,920.17781 z m 59.41434,4.21154 c -3.91385,-0.30714 -4.93055,-0.80129 -5.86404,-2.85006 -2.4888,-5.46232 3.43273,-24.14747 8.77719,-27.69606 1.72969,-1.14846 2.42623,-1.02563 5.35922,0.94505 2.73879,1.8402 3.87388,3.74002 6.05134,10.12821 3.41609,10.02211 3.6093,16.5242 0.55457,18.66381 C 466.70761,925.07083 464.30564,925.20144 453.95736,924.38935 z m 12.81361,-4.3795 c 2.884,-2.70939 2.85965,-3.84404 -0.29215,-13.61557 -2.09814,-6.50485 -3.10189,-8.25942 -5.40692,-9.4514 -2.80319,-1.44959 -2.85628,-1.42312 -5.50597,2.74518 -3.10458,4.8839 -6.32954,15.5351 -5.57609,18.41633 C 451.0963,922.3355 462.87213,923.67261 466.77097,920.00985 z m 26.46494,4.46525 c -1.08566,-0.28901 -4.08357,-2.57789 -6.66202,-5.0864 -5.5234,-5.37358 -5.9215,-8.17647 -2.69843,-18.99891 1.89883,-6.37593 3.59776,-8.84847 9.99243,-14.54251 l 2.53608,-2.25823 5.20779,3.42974 c 4.51045,2.97049 5.66776,4.44409 8.64297,11.0051 2.98779,6.58878 3.37997,8.3387 3.01124,13.4364 -0.36939,5.1067 -0.8689,6.30596 -3.88119,9.31824 -2.93634,2.93635 -4.26465,3.51487 -8.81609,3.83964 C 497.62133,924.82849 494.32158,924.76411 493.23591,924.4751 z m 9.83829,-2.86403 c 2.07976,-0.98692 4.18478,-3.28992 5.9183,-6.47496 2.6341,-4.83972 2.65866,-5.04018 1.17273,-9.57165 -2.94943,-8.99453 -4.57203,-11.85015 -8.66542,-15.25035 l -4.13738,-3.43673 -3.19029,1.88231 c -3.67923,2.1708 -6.53331,8.03397 -8.4528,17.36468 l -1.27036,6.1753 4.39346,4.52865 C 495.17167,923.35228 497.64983,924.18511 503.0742,921.61107 z m 27.66641,2.58734 c -7.42409,-1.7959 -10.36364,-7.00433 -10.36236,-18.36052 6.2e-4,-5.50507 0.55966,-8.05629 2.80427,-12.79756 3.18623,-6.73027 4.23742,-7.42695 15.74824,-10.43721 8.13151,-2.1265 9.29488,-2.14095 21.96502,-0.27273 2.82128,0.41599 4.10781,1.41725 6.57891,5.12005 3.57536,5.35747 4.43519,8.77933 4.74384,18.87924 0.19212,6.28648 -0.11828,7.9116 -2.11539,11.07524 -2.78927,4.41848 -6.06031,6.2396 -12.71445,7.07865 -3.42611,0.43202 -5.76729,0.18782 -7.65771,-0.79874 -2.37073,-1.23723 -3.16439,-1.23653 -6.13683,0.006 C 539.97503,925.20243 535.60528,925.37518 530.74061,924.19841 z m 9.68312,-2.52175 c 1.92991,-0.80636 4.16598,-2.40421 4.96906,-3.55075 1.4163,-2.02205 1.49033,-2.02825 2.46534,-0.20642 0.55286,1.03303 2.47928,2.66293 4.28092,3.62201 2.98065,1.58669 3.5903,1.61065 6.7684,0.26592 8.64099,-3.65622 11.66378,-10.35064 9.81117,-21.72835 -1.44165,-8.85388 -4.77777,-14.43864 -8.62978,-14.44649 -1.48508,-0.003 -4.34207,-0.46153 -6.34884,-1.01888 -5.56149,-1.54463 -22.14601,2.83109 -25.21718,6.65338 -3.91329,4.87039 -5.18445,8.71466 -5.18445,15.67885 0,8.56718 2.30322,12.34232 8.81895,14.45489 2.4778,0.80337 4.56188,1.52395 4.6313,1.60131 C 536.85803,923.07949 538.49383,922.48303 540.42373,921.67666 z m 14.64442,-11.31156 c -2.68508,-2.68507 -5.0857,-5.46091 -5.33471,-6.16854 -0.35713,-1.01483 -1.05575,-0.94242 -3.30751,0.34279 -5.77148,3.29407 -10.94369,2.11872 -12.95046,-2.94291 -0.90849,-2.29147 -1.05808,-2.36521 -1.14941,-0.56662 -0.0577,1.13724 -0.99686,2.87484 -2.08692,3.86133 -1.86478,1.68759 -1.88366,1.9022 -0.31941,3.63066 1.21362,1.34103 1.36805,2.13152 0.57196,2.92761 -0.7961,0.7961 -1.77581,0.35114 -3.62845,-1.64789 -3.1063,-3.35174 -3.14552,-4.0347 -0.31723,-5.52413 2.90297,-1.52875 3.66766,-2.77292 3.68601,-5.99725 0.0214,-3.7713 1.65749,-4.30047 3.33126,-1.07749 0.78446,1.51054 2.83576,3.78399 4.55844,5.05214 2.87776,2.11845 3.27265,2.17857 4.862,0.74022 0.99703,-0.9023 3.47267,-1.56549 5.84389,-1.56549 3.31549,0 4.85623,-0.67051 7.93763,-3.45438 2.10297,-1.8999 4.10286,-3.45438 4.44419,-3.45438 1.48417,0 0.3673,2.02985 -2.93247,5.32962 -1.95419,1.95419 -3.9528,3.55308 -4.44135,3.55308 -1.4076,0 -1.08144,0.65363 2.02114,4.05052 2.46105,2.69451 3.14549,2.98947 4.44135,1.91401 1.27755,-1.06028 1.53194,-1.00549 1.53194,0.3299 0,0.88071 -0.47406,1.60129 -1.05348,1.60129 -0.60433,0 -0.78637,0.84158 -0.42697,1.97393 C 561.27966,916.20353 560.44946,915.74641 555.06815,910.3651 z m -210.11158,12.25583 c -3.49784,-2.44998 -3.69438,-6.95348 -0.68949,-15.79806 2.7867,-8.20234 6.50979,-14.27603 8.75103,-14.27603 2.4112,0 8.16164,8.31615 10.79127,15.60609 3.15457,8.74522 3.37559,13.51911 0.69238,14.95513 C 361.45401,924.73916 347.48367,924.39098 344.95657,922.62093 z m 16.68844,-2.09853 c 2.54131,-2.29986 2.25371,-5.94189 -1.12483,-14.24393 -3.13737,-7.70942 -6.0182,-11.45689 -7.90902,-10.28829 -2.02639,1.25237 -7.70023,15.57316 -7.87005,19.864 -0.024,0.60533 0.87695,2.27084 2.00201,3.70112 1.77469,2.25614 2.77732,2.60052 7.57128,2.60052 C 358.07108,922.15582 360.41793,921.63289 361.64501,920.5224 z m 235.22231,2.69309 c -5.80797,-1.39701 -8.86991,-3.53293 -10.73113,-7.4857 -2.47833,-5.26339 -3.75609,-16.0625 -2.61344,-22.08771 2.31097,-12.18566 14.35821,-20.44226 23.96848,-16.42683 1.89001,0.78969 3.74862,1.12355 4.13026,0.74192 1.36894,-1.36894 8.98167,-2.71434 11.40043,-2.0148 1.35707,0.39248 3.9936,1.07759 5.85895,1.52246 2.82529,0.6738 3.84018,1.71199 6.07866,6.21824 2.77095,5.57813 5.83885,17.36219 5.81322,22.32903 -0.0312,6.04485 -2.05878,7.92905 -16.27039,15.1198 -6.19523,3.13464 -10.19286,3.76031 -12.0649,1.88826 -0.82146,-0.82146 -1.93607,-0.82146 -4.29253,0 C 604.63944,924.24218 601.37103,924.29879 596.86732,923.21549 z m 10.6128,-3.12657 c 2.84072,-0.9266 4.29162,-0.94047 6.22509,-0.0595 2.70084,1.23058 6.90748,0.63887 9.31671,-1.3105 0.81424,-0.65883 2.22321,-1.46028 3.13103,-1.781 2.25968,-0.79832 1.4389,-3.30748 -3.00066,-9.17315 -2.02093,-2.67012 -3.65425,-5.2989 -3.62959,-5.84173 0.0247,-0.54283 -1.17181,-1.12705 -2.65882,-1.29826 -1.90995,-0.21989 -3.83702,0.64023 -6.56428,2.92991 -3.70165,3.10773 -3.78532,3.30649 -2.03183,4.82729 1.18885,1.03108 1.63242,2.33704 1.26759,3.73211 -0.3216,1.22983 -0.1039,2.14602 0.50991,2.14602 0.58911,0 0.81546,0.6662 0.50301,1.48045 -1.17874,3.07173 -3.20248,1.50587 -3.50781,-2.71416 -0.17928,-2.47787 -0.76535,-4.10798 -1.43199,-3.98293 -0.62067,0.11642 -1.68933,-1.14231 -2.37479,-2.79719 -0.68548,-1.65486 -2.27881,-3.40141 -3.54075,-3.88119 -1.33569,-0.50783 -2.08156,-1.42708 -1.78499,-2.19992 0.28019,-0.73016 -0.3945,-2.14562 -1.4993,-3.14546 -1.10481,-0.99984 -2.00874,-2.56331 -2.00874,-3.47436 0,-3.30889 1.47129,-2.99994 3.42777,0.71977 3.33053,6.33209 5.89776,10.1125 6.87176,10.11908 1.36848,0.009 5.49192,-4.10019 5.49192,-5.47326 0,-0.65316 -0.6662,-1.74046 -1.48045,-2.41622 -2.06787,-1.71619 -1.84809,-4.38375 0.74023,-8.98453 l 2.22067,-3.94728 -2.18644,-1.80705 c -6.38344,-5.27578 -15.70237,-2.31717 -19.99982,6.34965 -4.73123,9.54163 -3.41151,25.11991 2.49222,29.41863 2.94639,2.14539 9.43749,4.62436 10.81135,4.12891 C 603.33195,921.45728 605.4429,920.75343 607.48012,920.08892 z m -15.36561,-12.39108 c -0.35225,-0.35224 0.55392,-1.66674 2.01373,-2.92111 3.23582,-2.78046 4.06975,-2.3045 1.86306,1.06335 C 594.33778,908.36367 593.28488,908.86822 592.11451,907.69784 z m 45.78608,-0.0482 c 0.49487,-1.3016 0.4973,-3.23142 0.006,-4.49685 -0.47367,-1.21922 -1.3949,-4.21537 -2.04718,-6.65811 -0.65227,-2.44274 -1.53031,-5.12213 -1.95121,-5.95419 -0.4209,-0.83207 -1.0862,-2.97401 -1.47844,-4.75988 -1.18745,-5.40642 -10.49815,-9.61518 -15.4721,-6.99391 -2.90101,1.52883 -3.77069,2.80496 -3.78994,5.56123 -0.008,1.19034 -0.8744,3.63308 -1.92464,5.42831 l -1.90952,3.26406 2.21889,2.55513 c 3.32168,3.82506 8.65908,4.36853 13.12683,1.33663 1.95475,-1.32653 4.14401,-3.18899 4.86502,-4.13878 0.72101,-0.94981 1.35902,-1.50485 1.41783,-1.23343 0.0588,0.27141 0.24943,1.22814 0.42365,2.12605 0.19584,1.00943 -1.33985,2.82225 -4.02337,4.74942 -2.38708,1.71426 -4.34014,3.26054 -4.34014,3.43618 0,1.36088 3.35662,6.24287 5.61872,8.17207 1.85127,1.57884 2.35912,2.53454 1.53064,2.88045 -0.68193,0.28471 -0.98772,0.92564 -0.67955,1.42427 C 630.28349,915.62942 636.85793,910.39209 637.90059,907.64967 Z M 200.46358,845.2322 c -5.40592,-1.05407 -14.45233,-5.96933 -17.61413,-9.57041 -3.42973,-3.90624 -4.39722,-10.84754 -3.63428,-26.07411 0.2841,-5.67001 0.54863,-10.35218 0.58783,-10.40483 4.12802,-5.5442 7.92758,-7.336 17.50124,-8.25321 4.79854,-0.45973 11.6115,-1.3938 15.1399,-2.07569 7.29212,-1.40927 12.51784,-0.75146 16.04008,2.01914 3.02307,2.37796 4.70018,10.00576 4.65105,21.15391 -0.0736,16.70216 -5.32685,28.88847 -14.19498,32.92905 C 216.12095,846.24063 206.38196,846.38619 200.46358,845.2322 z m 12.04545,-3.05533 c 1.24893,-0.66841 1.93399,-2.11884 1.98118,-4.19461 0.0808,-3.55603 2.5652,-8.36773 5.16015,-9.99418 1.29916,-0.81428 2.40261,-0.68115 4.55684,0.54976 l 2.84256,1.62421 1.33314,-4.58511 c 1.3792,-4.74352 1.63433,-20.76597 0.43266,-27.17143 -1.01428,-5.40659 -3.87911,-7.51614 -10.20713,-7.51614 -2.9189,0 -6.12641,0.43849 -7.12781,0.97442 -1.00139,0.53592 -5.74664,1.25427 -10.545,1.59631 -10.46505,0.74599 -16.27029,3.46012 -17.99734,8.41435 -0.59954,1.71984 -1.09008,7.89196 -1.09008,13.71581 0,11.04244 1.17383,15.85331 4.60661,18.87987 2.28242,2.01233 12.22381,7.03149 12.79528,6.46001 0.74147,-0.74147 -4.23474,-13.40316 -6.65686,-16.93801 -2.16892,-3.16533 -2.43497,-3.2815 -4.08836,-1.78519 -1.34434,1.2166 -2.0438,1.32512 -2.91645,0.45248 -0.87264,-0.87264 -0.64138,-1.68721 0.96426,-3.39633 1.89392,-2.01599 2.00164,-2.68405 1.04224,-6.4638 -0.58849,-2.31848 -0.8194,-4.46602 -0.51312,-4.7723 1.1921,-1.19209 2.68504,0.9169 3.27915,4.63226 0.34222,2.14017 0.99566,3.89123 1.45208,3.89123 0.45641,0 0.58454,0.77724 0.28472,1.72719 -0.58163,1.84288 1.41565,-0.25717 4.70896,-4.95129 0.89896,-1.28133 3.43409,-2.86886 5.63362,-3.52786 4.80712,-1.44025 5.76276,-2.68672 3.76211,-4.90708 -0.82513,-0.91575 -1.80069,-2.9974 -2.16791,-4.6259 l -0.66768,-2.96089 2.57361,2.96089 c 1.41548,1.6285 2.8532,4.21235 3.19493,5.7419 0.34173,1.52955 1.67014,3.4682 2.95201,4.30812 1.28187,0.83991 2.33067,2.11199 2.33067,2.82685 0,0.71485 1.36942,2.27484 3.04315,3.46664 l 3.04315,2.16691 -3.17539,2.90028 c -1.90344,1.73852 -3.53452,2.54114 -4.07195,2.00372 -0.53742,-0.53743 -0.30898,-1.38419 0.57031,-2.11395 1.26896,-1.05313 1.00291,-1.86316 -1.9719,-6.00388 l -3.43876,-4.78651 -4.45052,1.51645 c -2.62836,0.89557 -5.13206,2.58287 -6.11516,4.12113 -0.91556,1.43258 -2.33696,3.15142 -3.15867,3.81965 -1.1955,0.97219 -1.23914,1.38342 -0.21838,2.05809 0.7016,0.46372 2.97551,4.80248 5.05314,9.64167 C 204.00189,842.35526 207.30513,844.96191 212.50903,842.17687 z m 10.50757,-30.67463 c -2.7277,-3.10855 -3.36891,-4.82142 -1.80488,-4.82142 0.47952,0 1.11638,-0.93506 1.41524,-2.07792 0.77838,-2.9765 3.13362,-1.73637 3.18153,1.67521 0.0222,1.57857 0.41424,3.67722 0.87128,4.66366 C 228.23405,814.29649 225.79586,814.66954 223.0166,811.50224 z m -0.94954,26.7069 c 3.73991,-3.50523 3.95817,-4.88205 1.17345,-7.40219 -2.28736,-2.07003 -2.81676,-1.66073 -5.42466,4.19397 -1.29911,2.91648 -1.08124,6.22986 0.40894,6.21913 C 218.57384,841.21755 220.30286,839.86263 222.06706,838.20914 z m 376.77419,0.68405 c -6.70694,-1.5262 -12.72263,-5.60827 -14.25541,-9.67331 -0.68297,-1.81128 -1.62361,-4.18149 -2.0903,-5.26716 -3.4284,-7.9754 -3.66683,-26.64733 -0.42708,-33.44562 2.48905,-5.22304 10.25796,-8.93387 17.06314,-8.15022 14.1684,1.63157 25.3474,3.79738 28.86613,5.59251 6.66771,3.4016 7.84677,6.45194 7.85105,20.31135 0.005,16.99294 -2.11281,22.05164 -11.14672,26.62243 -5.87283,2.97142 -14.3511,5.40613 -18.25998,5.24373 C 604.97578,840.06599 601.55541,839.51082 598.84125,838.89319 z m 10.77078,-1.75689 c 1.87881,-0.85605 2.62539,-2.13402 3.10152,-5.30911 0.3449,-2.29993 2.08194,-7.1776 3.86008,-10.83928 l 3.233,-6.65762 -2.09347,-3.24955 c -2.44224,-3.79091 -5.35814,-5.38688 -9.84205,-5.38688 -3.98853,0 -9.20288,5.02005 -9.73905,9.37617 l -0.36444,2.9609 -1.28647,-2.57735 c -1.08771,-2.17919 -1.04368,-3.04683 0.28503,-5.61627 0.86431,-1.67141 2.90616,-3.82733 4.53743,-4.79095 2.15307,-1.27185 2.96596,-2.49603 2.96596,-4.46664 0,-2.91954 2.84546,-9.69035 4.07241,-9.69035 1.83476,0 1.80626,2.22326 -0.0622,4.84718 -3.39659,4.77007 -2.10743,7.98337 3.2029,7.98337 2.15965,0 3.94128,1.16098 7.19432,4.68809 3.51884,3.81531 4.32577,4.30918 4.33433,2.6528 0.0121,-2.34185 3.46065,-9.87766 4.93807,-10.79076 0.54684,-0.33797 0.99425,0.27379 0.99425,1.35945 0,1.08566 -0.44413,2.24842 -0.98696,2.58391 -0.54284,0.33549 -0.98697,1.60528 -0.98697,2.82175 0,1.21648 -0.47123,2.683 -1.04716,3.25893 -0.73824,0.73824 -0.44708,2.11557 0.98696,4.66877 2.34653,4.17778 2.42334,4.54852 0.94247,4.54852 -0.60041,0 -1.98462,-1.13521 -3.07601,-2.52269 -1.86449,-2.3703 -2.05641,-2.41501 -3.17755,-0.74022 -1.31414,1.96313 -5.98337,13.24778 -7.02085,16.96808 -0.60875,2.18296 -0.45043,2.30407 2.16657,1.65731 4.94726,-1.22264 11.92147,-6.37703 13.8352,-10.22509 1.39768,-2.8104 1.8949,-6.47776 2.14794,-15.84257 0.31429,-11.63147 0.22453,-12.29776 -1.97393,-14.65151 -3.62435,-3.8804 -6.83375,-5.08975 -16.68649,-6.28773 -5.05184,-0.61423 -10.2401,-1.51788 -11.52945,-2.0081 -3.59898,-1.36832 -6.47429,-1.07946 -11.5342,1.15878 -3.79894,1.68046 -4.9782,2.85185 -6.54074,6.49711 -2.74384,6.40111 -2.16861,20.55868 1.1833,29.12293 0.93924,2.39982 1.28635,2.54361 3.92218,1.62474 4.39858,-1.53335 7.37372,0.85777 8.23795,6.62086 0.58625,3.90944 1.14259,4.77407 3.82161,5.93936 C 605.51563,838.51381 606.50352,838.55262 609.61203,837.1363 z m -22.48248,-32.2807 c 1.88334,-1.57366 1.96524,-2.01333 0.77519,-4.16177 -0.73183,-1.32122 -1.34635,-3.26869 -1.36558,-4.32772 -0.0238,-1.3098 0.87212,-0.52083 2.80187,2.46742 l 2.83683,4.39291 -2.09661,1.70524 c -1.15314,0.93789 -2.76282,1.70035 -3.57707,1.69436 C 585.41833,806.61805 585.58502,806.14615 587.12955,804.8556 z m 8.25732,28.02625 c 0,-4.27541 -2.10102,-7.64743 -4.38302,-7.03451 -1.11774,0.30022 -2.36536,0.55191 -2.77248,0.55933 -1.90936,0.0347 -0.42805,3.74356 2.45852,6.15545 C 594.67693,835.89354 595.38687,835.94186 595.38687,832.88185 z m -337.2947,0.94991 c -6.95856,-3.02451 -11.76456,-7.2161 -13.81433,-12.04828 -2.52188,-5.94518 -2.93574,-20.80693 -0.71289,-25.60066 2.05267,-4.42676 8.80704,-7.35508 19.79622,-8.58256 l 8.97099,-1.00205 4.26295,2.8858 c 7.1022,4.80784 8.26633,7.10612 8.33279,16.45116 0.0724,10.19055 -1.64436,15.49651 -6.79036,20.98585 C 270.67657,834.87978 265.00333,836.83566 258.09217,833.83176 z m 13.23997,-5.30181 c 7.107,-4.59347 9.06811,-8.18957 10.47467,-19.20746 1.14441,-8.96443 0.14242,-11.95969 -5.506,-16.45919 -2.82632,-2.25143 -3.82122,-2.4444 -11.36542,-2.20451 -8.75807,0.2785 -10.40366,0.82984 -16.10009,5.39422 -3.52906,2.82773 -3.58787,2.99348 -4.05789,11.43665 -0.5558,9.98392 0.22264,12.14027 6.24287,17.29337 3.94129,3.37358 11.10474,7.40826 13.33329,7.50971 C 264.94795,832.31979 268.08831,830.62655 271.33214,828.52995 z m -11.3552,-8.27835 c 0.68867,-3.46823 -5.82488,-17.51864 -8.12137,-17.51864 -1.73662,0 -0.95118,6.50283 1.04413,8.64455 1.21441,1.30351 1.57457,2.3486 0.94373,2.73848 -2.7145,1.67765 -5.78807,-5.66288 -4.50749,-10.76513 0.81258,-3.23755 4.17422,-3.97086 6.03364,-1.31617 1.43146,2.04369 1.46955,2.02432 2.0867,-1.06141 0.34574,-1.72871 1.01868,-2.90204 1.49542,-2.6074 1.13119,0.69911 1.11756,4.69416 -0.0201,5.89688 -0.85811,0.90717 0.90294,8.29973 3.08108,12.93384 1.03249,2.19666 0.39408,4.28871 -1.30872,4.28871 C 260.16937,821.48531 259.84221,820.93014 259.97694,820.2516 z m 8.72425,-4.69707 c 0,-0.54777 -1.3324,-2.39018 -2.96089,-4.09425 -4.06245,-4.25096 -4.02474,-7.92831 0.0435,-4.24657 1.55553,1.40773 1.67184,1.23042 1.57655,-2.40355 -0.1093,-4.16849 0.80801,-5.99547 2.24877,-4.47881 0.4813,0.50663 0.5443,3.0308 0.14002,5.60925 -0.68537,4.37122 -0.59114,4.68809 1.39415,4.68809 1.4563,0 2.83045,-1.24769 4.34803,-3.94787 1.22035,-2.17132 2.63455,-3.94786 3.14264,-3.94786 1.51543,0 1.05804,1.87231 -1.20522,4.93352 -1.73579,2.3478 -1.90239,3.15275 -0.90199,4.35815 1.89633,2.28494 0.24848,4.00623 -1.93959,2.02604 -1.95227,-1.76679 -3.91206,-1.22695 -3.91206,1.07761 0,0.78221 -0.44413,1.4222 -0.98696,1.4222 C 269.14533,816.55048 268.70119,816.1023 268.70119,815.55453 z m 272.16765,11.29425 c -3.76118,-2.04078 -11.22374,-9.45642 -11.8794,-11.80472 -2.48326,-8.89392 -2.81144,-12.40109 -1.67341,-17.88295 1.52465,-7.34424 2.93046,-9.37648 8.36299,-12.08961 5.7176,-2.85552 13.89075,-3.70066 19.95688,-2.06365 10.75586,2.90257 12.88692,6.01987 14.15934,20.71207 0.86361,9.97178 -0.10284,15.79146 -2.62241,15.79146 -0.7771,0 -2.81858,1.34335 -4.53664,2.98521 -1.71806,1.64188 -4.2678,3.21654 -5.66607,3.49926 -1.39829,0.28272 -4.14833,0.93797 -6.11122,1.45613 C 546.08227,828.71288 544.08179,828.59209 540.86884,826.84878 z m 11.58502,-2.31582 c 5.45084,-1.41192 11.40995,-5.07226 13.28954,-8.16303 1.58942,-2.61359 1.78459,-4.37772 1.3331,-12.05052 -0.88785,-15.0884 -5.77972,-19.89855 -19.51279,-19.18679 -14.66048,0.75982 -21.06993,10.18971 -17.07592,25.12287 2.16574,8.09746 11.90285,17.01117 17.03124,15.59103 C 548.60469,825.54588 550.82537,824.95478 552.45386,824.53296 z m -2.46741,-11.69754 c 0,-1.50044 0.88481,-5.14883 1.96625,-8.10753 1.71377,-4.68866 1.77713,-5.48528 0.49348,-6.20364 -0.81002,-0.45331 -1.46289,-1.80144 -1.45082,-2.99584 0.0217,-2.1449 0.045,-2.14156 1.89838,0.27038 1.84522,2.40138 1.91055,2.41115 3.92592,0.58726 2.73038,-2.47096 2.58821,-0.78741 -0.38231,4.52743 -1.33747,2.393 -2.92875,6.66822 -3.53616,9.50048 C 551.72237,815.91061 549.98645,817.35275 549.98645,812.83542 z m -9.69008,-2.70022 c -1.25054,-2.74463 -3.61056,-3.26405 -4.48436,-0.98696 -0.97749,2.5473 -2.69005,1.67351 -2.01233,-1.02673 0.42077,-1.67646 0.0787,-3.11559 -1.03245,-4.34337 -1.24883,-1.37994 -1.36343,-2.02054 -0.46122,-2.57814 0.73698,-0.45547 1.93681,0.26885 3.10751,1.87596 2.0607,2.82888 3.72375,3.21157 6.80061,1.56488 1.96439,-1.0513 1.96436,-1.05844 -0.0153,-4.41373 -1.09058,-1.8484 -1.58333,-3.60766 -1.095,-3.90947 0.48832,-0.30179 1.39613,0.46302 2.01733,1.69959 0.62121,1.23658 2.30899,3.24541 3.75064,4.46408 2.2565,1.90749 2.36169,2.21646 0.75605,2.22068 -2.3106,0.006 -4.47705,2.72923 -4.51876,5.67995 C 543.06749,813.32365 541.69424,813.20319 540.29637,810.1352 z m 17.5858,-0.31439 c 0,-1.12008 0.38321,-2.27336 0.85159,-2.56283 0.46836,-0.28947 1.41756,-2.54779 2.10931,-5.0185 2.0056,-7.16331 3.47994,-6.96696 4.41217,0.58762 0.51729,4.19199 0.48972,4.2487 -0.77197,1.58804 l -1.30841,-2.75916 -1.1659,2.55886 c -0.64124,1.40737 -1.16589,3.14978 -1.16589,3.87202 0,0.72224 -0.6662,1.86606 -1.48045,2.54183 C 558.12802,811.65331 557.88217,811.51917 557.88217,809.82081 z m -252.88961,11.83805 c -5.34739,-2.40293 -11.61722,-12.31516 -11.61722,-18.36615 0,-6.30961 5.94137,-15.27874 11.53337,-17.41085 3.2708,-1.24709 10.27402,-0.40838 14.95164,1.79062 3.70472,1.74163 8.05879,7.91078 8.05879,11.41825 0,3.16865 -4.81786,16.53329 -6.78911,18.83285 -1.79444,2.09328 -8.70702,5.51976 -10.97627,5.44078 C 309.33951,823.33603 307.01697,822.56855 304.99256,821.65886 z m 14.21865,-7.27219 c 0.80479,-1.25265 2.63117,-5.3268 4.05863,-9.05367 2.48348,-6.48401 2.52264,-6.8778 0.90818,-9.13434 -0.92796,-1.29702 -4.45522,-3.74552 -7.83836,-5.44113 -5.56144,-2.78737 -6.43791,-2.96415 -9.1422,-1.844 -4.47091,1.85192 -11.0369,10.16373 -11.14886,14.1132 -0.14879,5.24922 6.73596,13.96322 13.11819,16.60365 C 311.1666,820.45773 317.40214,817.20245 319.21121,814.38667 z m 62.25792,2.93632 c -2.43141,-1.1729 -9.66768,-10.27669 -10.99271,-13.82968 -1.66566,-4.46634 -2.21764,-11.69916 -1.14166,-14.95941 1.49068,-4.51678 4.41909,-5.54026 15.85208,-5.54026 9.40196,0 9.86716,0.10178 11.44055,2.50308 1.81042,2.76305 1.4564,10.87299 -0.81173,18.59546 -1.41351,4.81261 -5.96662,11.4757 -8.99511,13.16355 C 384.2625,818.68139 384.28449,818.68111 381.46913,817.32299 z m 6.05588,-3.82671 c 4.21564,-3.31602 6.778,-9.42938 7.2995,-17.41533 0.63264,-9.68806 0.16692,-10.13479 -10.52242,-10.09357 -6.84997,0.0264 -8.94936,0.3951 -10.73578,1.88539 -3.94349,3.28979 -2.57815,12.6239 3.09725,21.17425 C 381.39962,816.18221 383.18213,816.91239 387.52501,813.49628 z m 106.48032,2.96472 c -3.26208,-1.6147 -4.73979,-3.23584 -6.814,-7.47537 -3.89691,-7.96499 -4.21486,-13.94024 -0.99401,-18.68014 2.71002,-3.98816 11.65741,-10.27274 14.62534,-10.27274 2.36309,0 11.27146,8.40209 14.21997,13.41182 2.23439,3.7964 2.29528,4.29376 1.02721,8.38921 -2.26294,7.30851 -3.49235,9.14467 -8.69722,12.98951 C 501.60866,819.08114 499.75692,819.308 494.00533,816.461 z m 10.59833,-2.25184 c 2.0184,-1.37507 4.79367,-4.87655 6.7247,-8.48438 4.0048,-7.48238 3.63507,-8.90676 -4.65019,-17.91497 l -5.57098,-6.05711 -4.44868,2.84114 c -5.80554,3.70771 -10.82484,9.04423 -10.82484,11.50897 0,7.00057 4.83218,15.35433 10.66285,18.43372 C 501.07342,816.95374 500.54357,816.97514 504.60366,814.20916 z m -83.51589,1.10761 c -7.58073,-8.74889 -10.57682,-15.86721 -10.58762,-25.15488 -0.009,-7.68057 4.61903,-10.11423 19.25158,-10.12364 8.07969,-0.005 8.68006,0.14164 10.60988,2.59501 2.6794,3.40632 2.58422,5.74008 -0.66859,16.39358 -2.22946,7.30183 -3.51628,9.74839 -7.2058,13.69996 C 427.41228,818.16217 424.188,818.89473 421.08777,815.31677 z m 8.20775,-2.73378 c 1.79219,-1.8331 3.98402,-6.10762 5.69341,-11.10337 1.52867,-4.46756 3.46994,-9.33602 4.31392,-10.81882 1.47198,-2.58611 1.41566,-2.8213 -1.3817,-5.77095 -2.87918,-3.0359 -3.01831,-3.0698 -10.95347,-2.66803 -13.90418,0.70396 -15.6228,3.66083 -11.72169,20.16699 0.55647,2.35453 9.03203,13.1747 10.31988,13.1747 C 426.01446,815.56351 427.69281,814.22228 429.29552,812.58299 z m -80.15661,2.49732 c -7.25663,-3.41378 -11.40782,-10.64511 -11.69618,-20.37466 -0.20363,-6.87062 1.73543,-8.30452 12.43553,-9.19583 13.94581,-1.16167 15.54558,0.0736 15.54558,12.00366 0,5.76899 -0.38477,7.07529 -3.43964,11.67765 -2.25115,3.39151 -4.51869,5.5582 -6.56256,6.2707 -1.7176,0.59876 -3.16767,1.07127 -3.22237,1.05002 C 352.14456,816.4906 350.7674,815.84641 349.13891,815.08031 z m 7.56349,-3.7114 c 6.90091,-7.3519 8.7348,-16.87605 4.19272,-21.77449 -2.47426,-2.66837 -2.7776,-2.73461 -9.62292,-2.10166 -8.83616,0.81703 -11.5078,2.35467 -11.51436,6.627 -0.009,5.59642 3.14728,12.47696 7.60911,16.58973 2.30739,2.12688 4.67437,3.86706 5.25992,3.86706 C 353.21243,814.57655 355.04642,813.13311 356.7024,811.36891 z m 94.85566,-1.97393 c -5.86875,-5.97119 -6.8719,-8.16895 -7.78163,-17.04846 -0.60287,-5.88428 -0.45801,-6.67764 1.62388,-8.8937 2.15431,-2.29317 2.89528,-2.43311 12.88262,-2.43311 l 10.59685,0 2.55515,3.03663 c 5.29926,6.29781 2.08372,18.10261 -7.03651,25.83212 -3.04236,2.57845 -6.03019,4.68809 -6.63962,4.68809 C 457.14937,814.57655 454.35904,812.24484 451.55806,809.39498 z m 10.44512,-0.74875 c 3.37911,-3.37911 9.03356,-14.67828 9.01089,-18.00624 -0.0352,-5.1643 -4.42664,-7.64635 -13.52854,-7.64635 -6.00703,0 -7.52583,0.3432 -9.27948,2.09685 -1.75085,1.75085 -2.00066,2.85016 -1.51389,6.66202 1.06456,8.33661 2.73913,12.36265 6.72238,16.16202 2.13413,2.03562 4.27151,3.70112 4.74972,3.70112 C 458.64249,811.61565 460.36999,810.27941 462.00318,808.64623 Z M 209.97673,770.27841 c -3.64162,-1.33482 -5.58144,-1.56083 -7.40225,-0.86244 -1.35707,0.52051 -5.24837,0.98444 -8.64733,1.03096 -4.72608,0.0647 -6.81575,-0.38159 -8.88269,-1.89699 -5.97878,-4.38337 -7.63571,-13.02187 -4.67671,-24.38224 2.0613,-7.91383 1.91791,-9.3072 -1.80649,-17.55463 -6.28212,-13.91132 -9.54361,-27.46063 -9.54361,-39.6473 0,-6.0969 2.09795,-9.84115 5.25958,-9.38688 2.26546,0.32551 7.39226,9.37073 7.50842,13.2471 0.0344,1.14816 0.88973,3.14677 1.90072,4.44134 1.01099,1.29458 2.16744,3.46411 2.5699,4.82119 0.40245,1.35708 1.82999,4.38112 3.1723,6.72009 1.99191,3.4709 2.69882,4.03835 3.84538,3.08679 0.77264,-0.64124 1.4094,-2.77701 1.415,-4.74616 0.0153,-5.38928 3.85248,-12.39399 6.98962,-12.7596 3.01102,-0.35092 4.41343,1.12777 6.64489,7.00633 0.9093,2.39546 2.08122,4.53054 2.60428,4.74464 0.99541,0.40743 5.99308,-12.09013 7.04662,-17.62132 1.8782,-9.8607 7.51324,-18.19556 10.37016,-15.33864 3.33142,3.33142 3.7473,21.38175 0.83009,36.02838 -1.11203,5.58326 -2.16889,12.15 -2.34856,14.59274 -0.17968,2.44274 -0.66392,7.21718 -1.0761,10.60988 -0.53389,4.39457 -0.42615,6.16853 0.37463,6.16853 0.61823,0 1.12405,1.23359 1.12405,2.74129 0,1.50772 0.71084,3.75616 1.57963,4.99655 2.18367,3.1176 2.85009,12.57987 1.22095,17.33553 C 227.52252,771.02921 219.36778,773.72066 209.97673,770.27841 z m -4.80143,-4.05251 c 1.15904,-0.006 4.40502,0.7314 7.21329,1.63837 4.96113,1.60226 5.23099,1.58829 9.5135,-0.49231 2.67612,-1.30016 4.78582,-3.13632 5.37052,-4.67419 1.54086,-4.05278 1.11736,-11.23203 -0.92143,-15.62027 -1.03643,-2.23078 -2.42506,-5.50505 -3.08584,-7.27616 -0.78744,-2.11059 -2.0936,-3.46341 -3.79064,-3.92604 -4.29289,-1.17028 -30.00866,-0.85941 -32.13642,0.38848 -2.29132,1.34382 -5.40696,11.69241 -5.45171,18.10786 -0.0411,5.88594 2.8356,10.47234 8.02596,12.79613 3.68588,1.65021 4.50987,1.69294 8.61556,0.44678 C 201.02502,766.85667 204.01627,766.23179 205.1753,766.2259 z m -1.81086,-33.84064 c 9.06507,-0.0523 17.19663,0.23328 18.07013,0.63472 1.26037,0.57923 1.57756,0.15887 1.53673,-2.03653 -0.0475,-2.55284 2.54414,-20.25103 3.80145,-25.9601 1.84376,-8.37192 1.4857,-30.59594 -0.49295,-30.59594 -0.84332,0 -5.28575,12.15659 -7.39374,20.2328 -0.70843,2.71415 -2.66974,8.33982 -4.35847,12.50148 -1.68873,4.16167 -3.07041,7.96475 -3.07041,8.4513 0,1.40786 -5.20688,5.90002 -7.72022,6.6605 -4.07258,1.23227 -6.79663,-0.33498 -11.92528,-6.86107 -2.76576,-3.51936 -5.02865,-6.84093 -5.02865,-7.38127 0,-0.54034 -1.77654,-4.50566 -3.94786,-8.81182 -2.17133,-4.30617 -3.94787,-8.51163 -3.94787,-9.34548 0,-1.19998 -2.99619,-7.32408 -4.61966,-9.4424 -0.69463,-0.90636 -1.59235,1.04239 -2.32443,5.04584 -1.48609,8.12676 3.72742,30.05525 9.57476,40.27234 0.77667,1.35708 1.87817,3.68826 2.44777,5.1804 0.5696,1.49214 1.45889,2.4514 1.9762,2.13169 C 186.45925,732.742 194.29937,732.4376 203.36444,732.38526 z m 1.32014,-13.79113 c 1.65942,-1.22137 3.67707,-3.4916 4.48367,-5.04495 1.39108,-2.67896 1.27187,-3.22461 -2.31687,-10.60495 -2.49205,-5.12496 -4.28872,-7.69438 -5.26386,-7.52784 -0.94605,0.16156 -2.17059,2.92085 -3.39233,7.64405 -1.05154,4.06517 -2.27291,7.53927 -2.71416,7.72021 -1.73465,0.71133 -0.65742,4.40905 2.0827,7.14917 1.58674,1.58674 3.1592,2.88498 3.49435,2.88498 C 201.39323,720.8148 203.02516,719.8155 204.68458,718.59413 z m 44.03056,50.97687 c -2.57845,-0.79287 -4.68809,-1.84054 -4.68809,-2.32818 0,-0.48763 -0.77724,-1.66313 -1.72719,-2.61223 -2.34823,-2.3461 -2.25497,-12.5576 0.19594,-21.4551 2.11512,-7.67848 1.59732,-10.35632 -3.44807,-17.83218 -3.04497,-4.51178 -6.86427,-16.80396 -6.86427,-22.0922 0,-6.1353 3.84052,-9.32701 6.85395,-5.69604 1.00427,1.21006 1.4623,1.12596 3.17045,-0.58219 l 1.9966,-1.9966 2.49766,2.30938 c 1.37371,1.27016 3.27742,4.08592 4.23045,6.25724 1.59694,3.63835 7.42901,13.05877 9.96177,16.09102 1.71094,2.04835 2.93052,1.00695 6.76547,-5.77699 3.37519,-5.97065 4.92799,-11.10918 6.53371,-21.62129 0.69151,-4.52708 3.56615,-9.39004 6.133,-10.37503 2.67356,-1.02594 4.00229,1.4984 4.6983,8.92585 0.78292,8.35486 -0.48972,18.61982 -4.13349,33.34031 -2.6467,10.69244 -2.76563,9.53877 2.54852,24.72302 3.18224,9.09269 2.79224,12.89732 -1.79199,17.48155 -4.06115,4.06116 -7.23661,4.76547 -13.45062,2.98331 -1.92162,-0.55112 -4.6863,-0.39344 -7.88921,0.44992 C 254.30171,771.34612 254.49864,771.3494 248.71514,769.571 z m 12.27989,-3.31488 c 3.87857,-1.04891 5.32401,-1.01621 8.89718,0.20129 10.40299,3.54465 15.40056,-6.16166 9.81939,-19.07127 -4.33862,-10.03551 -4.42679,-10.14803 -9.05257,-11.55262 -5.35208,-1.62513 -20.4367,-0.95789 -22.24218,0.98384 -2.18772,2.35282 -5.37677,13.94694 -5.37677,19.54781 0,4.49306 0.42688,5.95914 2.22772,7.65094 2.87869,2.70439 8.84048,5.20612 10.10935,4.24217 C 255.91999,767.84589 258.44803,766.94492 260.99503,766.25612 z m 15.46849,-36.55863 c 3.45288,-11.82893 5.3505,-22.51345 5.80377,-32.67815 0.54621,-12.24851 -0.28867,-14.84112 -3.29948,-10.24606 -1.70815,2.60697 -2.79179,6.77447 -4.23215,16.27614 -1.37388,9.06318 -7.46846,19.73931 -11.26838,19.73931 -2.46413,0 -7.96499,-2.25947 -13.75973,-5.65179 -5.19432,-3.04083 -5.977,-3.97728 -9.33646,-11.17071 -2.01677,-4.3184 -4.00936,-7.85164 -4.42799,-7.85164 -1.13974,0 -2.08663,4.66064 -1.45746,7.17374 1.96528,7.84995 3.81955,13.18691 5.51775,15.88121 1.07453,1.7048 2.87024,5.09825 3.99047,7.54099 l 2.03677,4.44134 14.71227,0 14.71228,0 L 276.46352,729.69749 Z M 256.22978,716.6202 c -0.40937,-0.67854 -1.99005,-2.96585 -3.51262,-5.08291 -1.52258,-2.11707 -2.76832,-4.31387 -2.76832,-4.88178 0,-1.36977 -4.99611,-8.54092 -5.95043,-8.54092 -3.147,0 -0.92405,9.22894 3.20616,13.31091 C 251.9334,716.09911 258.03378,719.61033 256.22978,716.6202 z m 85.81814,51.56207 c -1.18588,-0.4778 -2.62931,-1.75286 -3.20764,-2.83345 -1.48875,-2.78177 -1.30181,-13.21621 0.38232,-21.34032 1.76235,-8.50138 2.26006,-26.96304 1.11854,-41.48999 -0.76076,-9.68139 -0.66796,-11.08214 0.83371,-12.58381 3.73798,-3.73797 8.19406,-0.92074 10.13178,6.40554 1.03958,3.93054 2.9729,17.33147 5.10961,35.41762 0.59144,5.00623 1.67661,8.76871 3.27357,11.35011 3.19631,5.16665 4.74707,10.84879 4.74707,17.39374 0,7.68509 -1.39261,8.6911 -11.92131,8.61185 C 347.94425,769.07915 343.23381,768.66007 342.04792,768.18227 z m 17.48656,-3.20075 c 2.14713,-2.28877 2.23586,-5.59438 0.38962,-14.51565 -0.87165,-4.2119 -5.43833,-10.66563 -9.1399,-12.91669 -2.66516,-1.62078 -2.84469,-1.60416 -4.81808,0.44619 -7.18701,7.46728 -8.16298,26.33601 -1.43861,27.81315 1.45061,0.31865 3.0816,0.72752 3.62443,0.9086 0.54283,0.18108 2.85724,0.3643 5.14312,0.40715 C 356.39593,767.1824 357.98018,766.63834 359.53448,764.98152 z m -10.62285,-31.33616 c 0.87518,0 1.86572,0.44413 2.20121,0.98696 0.33549,0.54283 1.09212,0.98697 1.68141,0.98697 1.72322,0 -0.57622,-20.30439 -4.07969,-36.02425 -1.43449,-6.43642 -2.12695,-7.9509 -3.74667,-8.19426 -2.99841,-0.45049 -3.32276,2.65856 -1.61872,15.51636 1.04109,7.85553 1.30057,14.36257 0.8297,20.80642 -0.67469,9.2332 -0.65596,9.34984 1.2282,7.64899 C 346.4594,734.42259 348.03645,733.64536 348.91163,733.64536 z m 21.30963,33.63766 c -2.08862,-1.69698 -2.31793,-2.64275 -2.21344,-9.12943 0.0646,-4.01138 1.07352,-10.72021 2.26384,-15.05367 1.74174,-6.34095 2.30654,-12.11933 2.99056,-30.59594 0.4638,-12.52823 1.32165,-23.99997 1.90633,-25.49276 1.47283,-3.76036 5.10813,-3.6211 8.42671,0.32281 1.40549,1.67033 2.74494,4.00204 2.97656,5.18157 3.0261,15.41051 4.51313,27.33035 4.51313,36.17656 0,6.0084 0.48342,8.94031 1.94718,11.8095 1.07093,2.09923 2.61894,5.74564 3.44001,8.10315 1.60652,4.61279 2.00657,14.33071 0.67628,16.42803 -0.46366,0.73098 -5.0316,1.8877 -10.59478,2.68285 C 373.79466,769.53937 372.97151,769.51755 370.22126,767.28302 z m 10.50055,-2.51978 c 2.17133,-0.78225 5.7244,-1.44857 7.89573,-1.4807 2.17132,-0.0322 4.61406,-0.48027 5.42831,-0.99584 1.98445,-1.25653 1.72022,-9.98889 -0.39356,-13.00674 -0.8692,-1.24096 -1.58037,-3.08417 -1.58037,-4.09602 0,-2.58073 -5.59484,-10.0858 -8.50832,-11.41327 -5.44039,-2.47881 -10.32799,4.80791 -12.25109,18.26462 -0.90184,6.31063 -0.88382,8.52633 0.0843,10.36314 C 373.60151,766.58171 374.81793,766.89018 380.72181,764.76324 z m 1.88227,-34.47281 c 1.13608,0.34513 2.84283,1.31001 3.79278,2.14418 1.62955,1.43094 1.72719,1.0081 1.72719,-7.47945 0,-7.4999 -1.70097,-22.84628 -3.47747,-31.37408 -0.51333,-2.46418 -5.30035,-7.49139 -6.45433,-6.77819 -1.22965,0.75997 -1.77298,6.99655 -2.43686,27.97145 l -0.60539,19.12716 2.69424,-2.11929 C 379.61025,730.39306 381.25013,729.87911 382.60408,730.29043 z m -77.87864,36.41308 c -4.90856,-2.19598 -10.18463,-7.90929 -10.91903,-11.82392 -0.36604,-1.95122 -0.14243,-5.63957 0.49692,-8.19635 0.63935,-2.55677 1.61414,-6.42521 2.16619,-8.59654 0.55205,-2.17132 1.82684,-5.7244 2.83285,-7.89572 1.00602,-2.17133 2.37381,-8.21995 3.03954,-13.44138 1.22145,-9.58003 1.04536,-12.62715 -2.04546,-35.39409 -1.11015,-8.17732 -0.28521,-12.3908 3.00976,-15.37271 1.89083,-1.71117 2.05688,-1.70331 4.65094,0.22019 3.78952,2.80996 6.80453,8.56743 8.70005,16.61363 4.003,16.99222 4.55307,20.58416 5.29,34.5438 0.54885,10.39678 1.4544,17.22842 3.04156,22.94593 1.90361,6.85745 2.08487,8.7253 1.14931,11.84359 -0.6109,2.03618 -1.34496,4.59041 -1.63124,5.67608 -0.28626,1.08566 -2.24911,3.8615 -4.36187,6.16853 -3.43553,3.75145 -4.29658,4.1861 -8.15,4.1141 C 309.62523,768.06437 306.35394,767.43206 304.72544,766.70351 z m 13.38638,-5.39245 c 3.17384,-3.38057 4.79586,-6.06352 5.221,-8.63595 0.98455,-5.95737 0.71551,-10.45264 -0.7845,-13.10796 -0.76662,-1.35708 -2.0945,-3.79982 -2.95085,-5.42831 -0.85635,-1.62849 -3.10639,-4.01535 -5.00007,-5.30413 -3.09011,-2.10302 -3.75345,-2.21467 -6.47085,-1.08908 -4.17306,1.72854 -7.14903,6.13902 -9.66024,14.31678 -2.79547,9.10347 -2.68097,12.09484 0.61063,15.95254 2.51858,2.95174 11.09145,8.20028 13.39419,8.20028 C 313.04115,766.21523 315.57946,764.00835 318.11182,761.31106 z m 0.89487,-52.2812 c -0.61638,-4.64632 -1.36215,-10.66853 -1.65726,-13.38269 -0.29512,-2.71415 -0.90506,-5.401 -1.35542,-5.97076 -0.45036,-0.56976 -1.12216,-3.0125 -1.49289,-5.42831 -1.05201,-6.85553 -7.24591,-17.49446 -9.4074,-16.15858 -2.59335,1.60277 -2.89517,5.88606 -1.27609,18.10953 1.78454,13.47249 2.13077,25.86971 0.97692,34.97834 l -0.73357,5.7909 2.27902,-1.5963 c 3.45478,-2.41981 6.58356,-1.94 10.05821,1.54246 l 3.13172,3.13875 0.29872,-6.28775 C 319.99295,720.3072 319.62306,713.67618 319.00669,709.02986 z m 94.53173,55.09784 c -2.37231,-1.76993 -2.71415,-2.69224 -2.71415,-7.32282 0,-4.8498 1.04393,-9.97525 3.91298,-19.21166 0.59016,-1.89991 1.49016,-10.1164 2.00002,-18.25887 0.50985,-8.14247 1.61694,-17.24722 2.4602,-20.2328 3.34697,-11.84996 3.9052,-13.42194 5.69543,-16.03819 2.45721,-3.59096 6.33803,-3.68331 7.66904,-0.18249 0.5294,1.39242 0.96254,12.73554 0.96254,25.20695 0,20.16315 0.20397,23.08096 1.84107,26.33708 2.47836,4.92933 5.40877,20.32852 4.77195,25.07637 -0.8499,6.33643 -1.61438,6.7178 -13.39588,6.68269 C 417.73437,766.15711 415.86915,765.86662 413.53842,764.1277 z m 19.90926,-0.99449 c 3.88883,-1.35565 5.14742,-4.30696 3.99789,-9.3748 -0.47757,-2.10547 -1.14167,-6.37109 -1.47576,-9.47917 -0.55254,-5.14034 -1.00731,-6.00302 -5.03206,-9.54575 l -4.42461,-3.89471 -3.79748,2.02698 c -4.31738,2.30449 -5.31869,4.08066 -7.42808,13.17613 -2.51809,10.85781 -1.90621,14.40963 2.93893,17.05973 C 420.81428,764.51701 429.42683,764.53489 433.44768,763.13321 z m -9.55012,-33.37724 c 2.37265,-1.18945 2.9354,-1.15478 4.51906,0.27841 0.9949,0.90037 2.17437,1.63704 2.62105,1.63704 0.95201,0 0.0312,-46.74528 -0.95216,-48.33639 -2.15839,-3.49234 -7.0315,10.13858 -9.34146,26.12966 -1.1707,8.10441 -1.36529,22.53113 -0.29687,22.01057 C 420.85431,731.2769 422.40697,730.50322 423.89756,729.75597 z m 70.07074,33.25162 c -11.6452,-9.36943 -13.56312,-15.41481 -8.93861,-28.17485 2.7683,-7.63839 3.18796,-10.22912 3.78944,-23.39411 0.72418,-15.85024 2.93475,-28.85101 6.12537,-36.02425 1.08651,-2.44274 2.62235,-5.90905 3.41298,-7.7029 1.85713,-4.21368 5.29219,-5.87113 8.82853,-4.25987 2.55218,1.16285 2.58862,1.31552 1.98134,8.30089 -0.34026,3.91394 -0.89844,16.69307 -1.2404,28.39807 -0.54943,18.80646 -0.42843,21.65562 1.04019,24.49563 3.17658,6.14282 6.80175,18.40188 6.75608,22.84665 -0.0548,5.32923 -2.07871,8.88566 -8.28668,14.5611 C 501.89623,767.11902 499.3063,767.3024 493.9683,763.00759 z m 12.1352,-3.94429 c 7.1218,-6.48141 8.76823,-11.02766 6.23955,-17.22904 -0.61912,-1.51832 -1.67701,-4.093 -2.35087,-5.72149 -0.67386,-1.62849 -1.77041,-4.66938 -2.43678,-6.75753 -0.9256,-2.90051 -2.03853,-4.14216 -4.71518,-5.26054 -3.15415,-1.31789 -3.87186,-1.29784 -7.19554,0.20092 -3.89731,1.75745 -5.41382,4.14914 -8.20276,12.93658 -2.30605,7.2659 -2.03286,11.05842 1.1411,15.84211 2.92771,4.41253 9.51894,10.18002 11.634,10.18002 C 500.92176,763.25433 503.57068,761.36837 506.1035,759.0633 z m -11.7467,-37.74894 c 3.33034,-1.73689 5.69633,-1.86907 8.32017,-0.46483 1.7966,0.96151 1.91463,0.62723 2.00369,-5.67506 0.29555,-20.91395 0.97349,-35.11499 1.96201,-41.09847 0.9733,-5.89135 0.91175,-6.97284 -0.47578,-8.36036 -1.46694,-1.46694 -1.79489,-1.39248 -4.12358,0.9362 -1.39143,1.39144 -2.91221,4.04327 -3.37949,5.89295 -0.46728,1.84969 -1.54139,5.80581 -2.38693,8.79138 -2.74153,9.68032 -6.6718,41.45256 -5.12773,41.45256 C 491.35853,722.78873 492.80196,722.12527 494.3568,721.31436 z m 35.63665,43.89104 c -0.95377,-0.58848 -2.67628,-2.91671 -3.82778,-5.17384 -1.75693,-3.44385 -2.00612,-5.2211 -1.54949,-11.05043 0.30538,-3.89838 1.48705,-9.05596 2.69292,-11.7537 2.54298,-5.68908 2.23245,-10.5068 -1.63044,-25.29532 -4.52324,-17.31662 -4.12693,-30.00232 1.01044,-32.34306 4.41416,-2.01123 6.74159,1.79417 11.00322,17.99052 2.9425,11.18298 4.15106,13.86812 7.75901,17.23874 2.52928,2.3629 2.56118,2.3664 2.56118,0.28108 0,-1.1614 1.22138,-3.57052 2.71416,-5.35361 1.49279,-1.78309 3.51241,-4.81666 4.48807,-6.74126 0.97565,-1.9246 3.44234,-5.69975 5.48154,-8.38921 2.79862,-3.69106 4.34651,-4.88993 6.31349,-4.88993 1.43322,0 3.1636,-0.55517 3.84529,-1.23371 2.18773,-2.17764 3.70315,-1.33136 4.78051,2.66963 1.377,5.11379 -0.15733,14.68302 -3.4095,21.26429 -1.34121,2.71416 -2.45247,5.50769 -2.46945,6.20786 -0.017,0.70016 -0.91913,3.01417 -2.00479,5.14225 -2.44799,4.79845 -2.44433,7.43258 0.0232,16.71167 2.53932,9.54894 2.5405,15.82914 0.004,19.05428 -3.98045,5.06032 -12.51029,7.14672 -17.79223,4.35197 -2.04347,-1.08124 -2.91915,-1.08194 -5.09656,-0.004 C 541.22197,765.70524 532.10831,766.51028 529.99345,765.2054 z m 10.37963,-2.93804 c 6.77433,-2.38098 7.86323,-2.41928 11.74303,-0.41294 2.84741,1.47244 3.25883,1.43354 7.25413,-0.68596 4.79264,-2.54249 7.42302,-6.27361 7.33427,-10.40348 -0.0332,-1.54474 -1.03249,-6.13485 -2.22067,-10.20024 -2.70695,-9.26196 -4.38274,-10.29874 -16.47133,-10.1905 -9.30375,0.0833 -14.96026,1.84781 -16.77127,5.23169 -1.86435,3.48357 -3.95501,12.6288 -3.95501,17.30052 0,3.67506 0.54803,4.90832 3.48728,7.84757 1.91801,1.918 3.5989,3.48727 3.73533,3.48727 C 534.64527,764.24129 537.28418,763.35303 540.37308,762.26736 z m 10.00429,-34.27829 c 4.39906,0.2213 8.99759,0.74802 10.21896,1.1705 1.72383,0.59629 2.22067,0.39889 2.22067,-0.88228 0,-1.42998 3.55645,-10.61311 8.62358,-22.26698 0.82608,-1.8999 1.73404,-6.56275 2.01768,-10.36188 0.46688,-6.25334 0.36609,-6.78331 -1.06441,-5.59611 -0.86909,0.72128 -2.10068,2.88863 -2.73688,4.81634 -3.44244,10.43067 -13.61388,22.31503 -20.14782,23.54081 -5.34203,1.00217 -9.7777,-3.58142 -12.46558,-12.88126 -5.88847,-20.37373 -7.29264,-24.14518 -8.99831,-24.16859 -0.99166,-0.0136 -1.89603,0.9082 -2.15565,2.19722 -1.45312,7.21468 -1.35309,9.58103 0.79553,18.81936 3.08648,13.27074 4.54896,21.32951 4.54896,25.06634 l 0,3.05453 5.57249,-1.45518 C 540.37389,728.11034 545.25718,727.73149 550.37737,727.98907 z m 5.17265,-15.81022 c 7.25657,-7.90925 12.86319,-17.82593 11.73722,-20.76015 -0.67346,-1.755 -6.35103,5.40088 -12.65519,15.95031 -2.55508,4.27568 -4.6456,7.9398 -4.6456,8.14247 C 549.98645,716.91642 552.68828,715.298 555.55002,712.17885 z m 40.82382,53.04941 c -1.35708,-0.43461 -3.96929,-0.83448 -5.80492,-0.88858 -2.56801,-0.0757 -4.3584,-1.11928 -7.7654,-4.52629 l -4.4279,-4.42789 0.68412,-6.67547 c 0.46643,-4.55131 1.7597,-8.87664 4.06428,-13.59297 2.26607,-4.63752 3.38016,-8.3284 3.38016,-11.1982 0,-4.13134 -2.44698,-14.40232 -3.91386,-16.4281 -1.0402,-1.43653 -2.65793,-8.69455 -4.02149,-18.04269 -1.04527,-7.16598 -0.98826,-8.70695 0.46264,-12.50607 0.91014,-2.38317 2.28112,-4.85284 3.04663,-5.48816 2.17568,-1.80565 5.97732,3.05901 8.40716,10.75798 2.37061,7.51133 6.90073,16.39625 8.3599,16.39625 0.54068,0 2.23895,-2.43787 3.77394,-5.41748 3.81391,-7.40334 5.58332,-8.37511 9.45426,-5.1924 1.16992,0.96192 2.81953,4.35098 3.72313,7.64898 2.45972,8.97776 2.99836,9.15468 6.62169,2.17489 10.77131,-20.74924 12.66982,-24.04574 14.51028,-25.19513 5.29294,-3.3055 8.53295,8.03776 5.45676,19.10403 -3.75473,13.50717 -6.08594,20.4923 -9.58566,28.72204 -3.44781,8.10769 -3.72084,9.34858 -2.71445,12.33707 0.61541,1.82749 1.45236,3.76683 1.85987,4.30967 1.61214,2.14748 2.92184,14.99965 1.84369,18.09243 -2.05965,5.90831 -13.91703,10.20029 -22.00816,7.96623 -3.07185,-0.84818 -4.15178,-0.6882 -6.92536,1.02598 C 601.35839,766.34549 600.27771,766.4785 596.37384,765.22826 z m 8.25983,-4.0945 c 4.09595,-1.98998 4.59743,-2.02776 8.14298,-0.61361 3.5085,1.39938 4.09712,1.3669 8.24545,-0.45509 9.82398,-4.31478 9.37792,-3.90111 9.70564,-9.00065 0.16698,-2.59812 -0.34878,-6.80303 -1.14611,-9.34426 -0.79734,-2.54123 -1.70379,-5.77862 -2.01435,-7.19421 -0.41803,-1.90546 -1.66093,-2.99247 -4.7865,-4.18613 -2.32201,-0.88679 -5.32732,-1.6064 -6.67844,-1.59914 -11.03207,0.0593 -24.46709,0.77426 -25.83296,1.3747 -2.38196,1.0471 -7.71689,12.64669 -8.37597,18.21161 -0.50542,4.26752 -0.26463,5.05668 2.50552,8.21173 2.82076,3.21266 5.48493,4.41561 13.45536,6.07555 1.08566,0.2261 2.07308,0.46261 2.19427,0.52558 C 600.16975,763.20281 602.23304,762.30007 604.63367,761.13376 z m 24.30354,-38.75452 c 0.004,-0.49663 1.2913,-4.27178 2.86162,-8.38921 1.57031,-4.11743 3.35874,-9.35396 3.97427,-11.63675 0.61553,-2.28278 1.70103,-4.73238 2.41219,-5.44355 1.63018,-1.63018 2.9188,-8.68161 2.7377,-14.98095 -0.13869,-4.82415 -1.75091,-8.28501 -3.16913,-6.80298 -0.4116,0.43013 -3.51077,6.33374 -6.88706,13.11913 -3.37627,6.78539 -7.07775,13.49684 -8.22549,14.91433 -1.14774,1.41749 -3.27984,4.60866 -4.73801,7.0915 -1.45816,2.48283 -3.76309,5.24278 -5.12208,6.13322 -2.28484,1.49709 -2.72577,1.49804 -5.85611,0.0126 -3.39823,-1.61257 -9.31693,-9.17526 -11.60436,-14.82761 -0.65904,-1.62849 -1.83077,-4.51537 -2.60384,-6.41528 -0.77308,-1.89991 -2.21481,-5.00885 -3.20385,-6.90876 -0.98903,-1.89991 -2.54438,-6.06736 -3.45635,-9.261 -1.75818,-6.15712 -2.56518,-6.24584 -4.40431,-0.4842 -0.93203,2.91982 -0.78041,5.62869 0.82332,14.71073 1.08113,6.12253 2.42982,11.596 2.99708,12.16326 0.56726,0.56726 1.03138,2.30416 1.03138,3.85977 0,1.55561 0.50404,3.77021 1.12011,4.92132 0.61605,1.15112 1.24391,4.11983 1.39524,6.59714 0.15133,2.47731 0.31349,5.04837 0.36035,5.71348 0.0626,0.88754 0.75877,0.95318 2.61686,0.24674 3.14924,-1.19734 7.92011,-1.24179 10.11704,-0.0943 0.95791,0.50035 4.38138,0.49682 8.07908,-0.008 4.67896,-0.63921 7.61919,-0.52196 10.85662,0.43294 4.32249,1.27495 4.48534,1.24255 6.16054,-1.22536 C 628.1564,724.42293 628.93363,722.87588 628.93721,722.37924 z m -13.09799,-13.74116 c 1.75924,-1.91091 2.21698,-3.02384 1.44095,-3.50345 -0.62553,-0.3866 -2.03264,-3.34563 -3.12692,-6.57563 -2.37426,-7.00809 -4.00755,-10.31407 -5.09558,-10.31407 -0.44007,0 -1.74815,1.88757 -2.90685,4.19461 -1.1587,2.30703 -3.09499,5.527 -4.30286,7.1555 -2.6889,3.62524 -1.95248,5.9416 3.88235,12.21177 l 3.92818,4.22125 1.80123,-2.29472 C 612.4504,712.47125 614.42117,710.17838 615.83922,708.63808 z m -165.46513,55.59094 c -4.73588,-1.11593 -7.01071,-4.4023 -6.82332,-9.85738 0.14365,-4.18169 3.08544,-14.06278 4.86109,-16.32777 0.44403,-0.5664 1.10056,-4.11947 1.45896,-7.89573 0.3584,-3.77626 1.68127,-11.30727 2.9397,-16.73558 1.25844,-5.42831 2.58281,-12.07371 2.94306,-14.76754 0.92743,-6.93517 3.13576,-11.88192 5.98511,-13.40684 2.17587,-1.16449 2.68388,-1.07761 4.53747,0.77598 2.06653,2.06653 2.07447,2.25274 0.79775,18.73381 -1.46975,18.97302 -0.91032,29.96131 1.92345,37.78008 2.657,7.33105 2.78006,18.75623 0.22692,21.06679 C 467.25304,765.37878 456.75278,765.73205 450.37409,764.22902 z m 16.85598,-3.57213 c 1.81445,-1.63796 1.97106,-2.56042 1.40219,-8.25918 -0.86885,-8.70371 -4.8906,-17.41818 -8.34479,-18.08177 -4.13629,-0.79463 -10.07714,4.7126 -12.17391,11.28533 -2.9031,9.10038 -3.04027,11.15856 -0.87428,13.11875 C 452.28432,763.28571 463.15165,764.33864 467.23007,760.65689 z m -11.41346,-28.6387 c 1.86984,-1.22516 2.76346,-1.34708 3.61706,-0.49348 0.62352,0.62352 1.97162,1.13368 2.99578,1.13368 1.74184,0 1.85238,-0.87645 1.71158,-13.57078 -0.0828,-7.46393 0.15948,-17.39446 0.53837,-22.06785 0.50106,-6.18028 0.36632,-8.69645 -0.49419,-9.22827 -1.4949,-0.9239 -3.64597,1.94038 -4.4046,5.86499 -0.31655,1.63771 -1.71556,8.08521 -3.1089,14.32777 -4.30764,19.29959 -5.26621,25.66111 -3.86667,25.66111 C 453.09555,733.64536 454.45076,732.91313 455.81661,732.01819 Z"
       id="path3246"
       inkscape:connector-curvature="0" />
  </g>
</svg>
