<?xml version="1.0" encoding="UTF-8" standalone="no"?>
<!-- Created with Inkscape (http://www.inkscape.org/) -->

<svg
   xmlns:dc="http://purl.org/dc/elements/1.1/"
   xmlns:cc="http://creativecommons.org/ns#"
   xmlns:rdf="http://www.w3.org/1999/02/22-rdf-syntax-ns#"
   xmlns:svg="http://www.w3.org/2000/svg"
   xmlns="http://www.w3.org/2000/svg"
   xmlns:sodipodi="http://sodipodi.sourceforge.net/DTD/sodipodi-0.dtd"
   xmlns:inkscape="http://www.inkscape.org/namespaces/inkscape"
   width="800"
   height="700"
   id="svg2"
   version="1.1"
   inkscape:version="0.48.2 r9819"
   sodipodi:docname="l15.svg">
  <defs
     id="defs4" />
  <sodipodi:namedview
     id="base"
     pagecolor="#ffffff"
     bordercolor="#666666"
     borderopacity="1.0"
     inkscape:pageopacity="0.0"
     inkscape:pageshadow="2"
     inkscape:zoom="2.5"
     inkscape:cx="645.80543"
     inkscape:cy="613.02228"
     inkscape:document-units="px"
     inkscape:current-layer="layer1"
     showgrid="false"
     showguides="true"
     inkscape:guide-bbox="true"
     inkscape:window-width="1366"
     inkscape:window-height="746"
     inkscape:window-x="-8"
     inkscape:window-y="-8"
     inkscape:window-maximized="1"
     width="0px"
     height="0px"
     fit-margin-top="0"
     fit-margin-left="0"
     fit-margin-right="0"
     fit-margin-bottom="0">
    <sodipodi:guide
       orientation="1,0"
       position="400.22244,349.31075"
       id="guide3178" />
    <sodipodi:guide
       orientation="0,1"
       position="400.22244,349.31075"
       id="guide3180" />
  </sodipodi:namedview>
  <metadata
     id="metadata7">
    <rdf:RDF>
      <cc:Work
         rdf:about="">
        <dc:format>image/svg+xml</dc:format>
        <dc:type
           rdf:resource="http://purl.org/dc/dcmitype/StillImage" />
        <dc:title></dc:title>
      </cc:Work>
    </rdf:RDF>
  </metadata>
  <g
     inkscape:label="Layer 1"
     inkscape:groupmode="layer"
     id="layer1"
     transform="translate(0,-352.36218)">
    <path
       id="rect3194"
       transform="translate(0,352.36218)"
       style="fill:#ff0000"
       d="m 772.28125,60.125 c -0.68829,-0.0182 -1.26572,0.15249 -1.84375,0.53125 -1.21511,0.79616 -4.21859,3.96585 -4.5,4.75 -0.097,0.27012 -0.79618,1.29297 -1.5625,2.25 -1.685,2.10456 -3.69575,5.51948 -4.46875,7.59375 -1.87314,5.0263 -4.875,14.91317 -4.875,16.0625 0,0.74525 -0.39913,3.16434 -0.90625,5.375 -1.37649,6.00036 -1.66652,7.29182 -2.125,9.84375 -0.2302,1.28124 -0.62368,2.53853 -0.84375,2.8125 -0.22009,0.27398 -0.56353,1.39205 -0.8125,2.46875 -0.24902,1.0767 -1.06721,4.28508 -1.8125,7.15625 -1.80099,6.9381 -1.93816,11.01374 -0.46875,13.875 1.30882,2.54869 4.86587,5.19729 8.0625,5.96875 3.6814,0.88845 6.54929,-0.005 9.6875,-3.03125 L 767.65625,134 l 2.90625,0.21875 c 3.7839,0.3156 6.62515,-0.1872 7.25,-1.3125 0.26383,-0.47508 0.85462,-1.41532 1.28125,-2.0625 2.13555,-3.23985 3.22312,-12.72892 1.90625,-16.59375 -1.42148,-4.17184 -1.75869,-8.6353 -1.1875,-15.65625 0.69041,-8.48675 2.60531,-15.08506 8.125,-27.9375 0.88809,-2.06792 0.72195,-3.04265 -0.75,-4.28125 -2.39092,-2.01181 -4.677,-1.35184 -8.09375,2.28125 -1.5992,1.70043 -3.03557,3.88671 -4.5,6.9375 -2.26416,4.71694 -3.22455,5.71075 -2.53125,2.625 0.22382,-0.99602 0.4617,-1.93069 0.5625,-2.09375 0.10081,-0.16305 0.70541,-2.19474 1.3125,-4.53125 1.11757,-4.30132 1.29859,-6.55959 0.8125,-9.5 -0.23511,-1.42219 -0.43064,-1.63335 -1.71875,-1.875 -0.25486,-0.0478 -0.52058,-0.08765 -0.75,-0.09375 z m -0.5625,2.78125 c 0.83304,-0.088 1.21899,0.74064 0.9375,2.75 -0.15272,1.09042 -0.49447,2.65923 -0.75,3.46875 -0.53241,1.68698 -1.33077,5.07076 -2.53125,10.6875 -0.92518,4.32863 -1.11456,10.16478 -0.46875,15.78125 0.63105,5.48832 1.12638,5.38706 1.15625,-0.25 0.0256,-4.82611 0.0993,-5.24714 1.59375,-8.8125 4.56815,-10.89855 7.95456,-16.32714 11.25,-18.03125 1.55804,-0.80571 3.38242,-0.82628 3.6875,-0.03125 0.12937,0.33718 -0.46514,2.15523 -1.34375,4.03125 -1.58514,3.3846 -4.49171,11.65644 -5.71875,16.25 -0.91833,3.43803 -1.87095,10.95165 -1.875,14.84375 -0.004,2.80309 -0.11152,3.40008 -0.75,3.59375 -1.13878,0.3454 -6.42599,0.36142 -10.15625,0.0312 -2.80772,-0.24846 -3.80907,-0.10222 -6.75,0.8125 -4.86292,1.51253 -5.75511,1.6536 -6.0625,1.15625 -0.36559,-0.59155 0.0552,-3.63514 1.28125,-9.125 0.56112,-2.51227 1.25141,-5.85102 1.53125,-7.40625 0.27987,-1.55523 0.91524,-3.70268 1.375,-4.75 0.45986,-1.04731 0.8125,-2.2137 0.8125,-2.625 0,-1.02934 2.17168,-6.94915 4,-10.90625 3.04864,-6.59838 6.94852,-11.27548 8.78125,-11.46875 z M 777.25,109.1875 c 0.51882,0 1.28341,1.78441 1.75,4.125 0.19081,0.95709 0.56373,2.71214 0.84375,3.875 0.76847,3.19169 0.0253,7.10069 -2.25,11.78125 -1.64035,3.37455 -2.10085,3.91981 -3.28125,4.21875 -1.62126,0.41061 -4.21615,-0.48767 -4.875,-1.71875 C 769.1988,131.02276 768.97906,128.55492 769,126 c 0.0211,-2.55495 -0.0553,-4.77424 -0.1875,-4.90625 -0.13218,-0.13217 -0.57842,0.4189 -1,1.21875 -0.51757,0.98198 -0.83943,2.81354 -0.96875,5.59375 -0.16882,3.62902 -0.30742,4.29483 -1.3125,5.5625 -0.62719,0.79103 -1.87213,1.88496 -2.75,2.46875 -2.10786,1.40162 -3.1908,1.54857 -5.90625,0.875 -2.1244,-0.52689 -5.78125,-2.87672 -5.78125,-3.71875 0,-0.20855 -0.47051,-1.12338 -1.09375,-2.03125 -1.03186,-1.50294 -1.15084,-1.91481 -0.9375,-4.6875 0.2311,-3.00385 2.81925,-11.62797 4.0625,-13.53125 0.33315,-0.51008 1.45985,-1.15122 2.46875,-1.40625 9.63571,-2.43604 9.06399,-2.36626 14.1875,-1.78125 3.68562,0.42084 5.07945,0.42225 5.9375,0.0312 0.61448,-0.27986 1.29733,-0.5 1.53125,-0.5 z" />
  </g>
</svg>
