<?xml version="1.0" encoding="UTF-8" standalone="no"?>
<!-- Created with Inkscape (http://www.inkscape.org/) -->

<svg
   xmlns:dc="http://purl.org/dc/elements/1.1/"
   xmlns:cc="http://creativecommons.org/ns#"
   xmlns:rdf="http://www.w3.org/1999/02/22-rdf-syntax-ns#"
   xmlns:svg="http://www.w3.org/2000/svg"
   xmlns="http://www.w3.org/2000/svg"
   xmlns:sodipodi="http://sodipodi.sourceforge.net/DTD/sodipodi-0.dtd"
   xmlns:inkscape="http://www.inkscape.org/namespaces/inkscape"
   width="800"
   height="400"
   id="svg2"
   version="1.1"
   inkscape:version="0.48.2 r9819"
   sodipodi:docname="f16.svg">
  <defs
     id="defs4" />
  <sodipodi:namedview
     id="base"
     pagecolor="#ffffff"
     bordercolor="#666666"
     borderopacity="1.0"
     inkscape:pageopacity="0.0"
     inkscape:pageshadow="2"
     inkscape:zoom="2.8284271"
     inkscape:cx="632.28238"
     inkscape:cy="308.9814"
     inkscape:document-units="px"
     inkscape:current-layer="layer1"
     showgrid="false"
     showguides="true"
     inkscape:guide-bbox="true"
     inkscape:window-width="1366"
     inkscape:window-height="746"
     inkscape:window-x="-8"
     inkscape:window-y="-8"
     inkscape:window-maximized="1"
     width="0px"
     height="0px"
     fit-margin-top="0"
     fit-margin-left="0"
     fit-margin-right="0"
     fit-margin-bottom="0">
    <sodipodi:guide
       orientation="1,0"
       position="400.22244,349.31075"
       id="guide3178" />
    <sodipodi:guide
       orientation="0,1"
       position="-117.37973,199.40411"
       id="guide3180" />
  </sodipodi:namedview>
  <metadata
     id="metadata7">
    <rdf:RDF>
      <cc:Work
         rdf:about="">
        <dc:format>image/svg+xml</dc:format>
        <dc:type
           rdf:resource="http://purl.org/dc/dcmitype/StillImage" />
        <dc:title />
      </cc:Work>
    </rdf:RDF>
  </metadata>
  <g
     inkscape:label="Layer 1"
     inkscape:groupmode="layer"
     id="layer1"
     transform="translate(0,-652.36218)">
    <path
       id="rect3063"
       transform="translate(0,652.36218)"
       style="fill:#ff0000"
       d="m 773.84375,51.84375 c -0.6883,-0.0182 -1.26565,0.18374 -1.84375,0.5625 -1.2151,0.79616 -4.2186,3.9346 -4.5,4.71875 -0.097,0.27012 -0.7962,1.29297 -1.5625,2.25 -1.685,2.10456 -3.69575,5.51948 -4.46875,7.59375 -1.8731,5.0263 -4.875,14.91317 -4.875,16.0625 0,0.74525 -0.39915,3.16434 -0.90625,5.375 -1.3765,6.00036 -1.69775,7.29182 -2.15625,9.84375 -0.2302,1.28124 -0.5924,2.56978 -0.8125,2.84375 -0.2201,0.27398 -0.5636,1.3608 -0.8125,2.4375 -0.2491,1.0767 -1.0672,4.28508 -1.8125,7.15625 -1.801,6.9381 -1.9694,11.04499 -0.5,13.90625 1.3089,2.54869 4.89715,5.19729 8.09375,5.96875 3.6814,0.88845 6.5493,-0.0363 9.6875,-3.0625 l 1.8125,-1.78125 2.9375,0.21875 c 3.7839,0.3156 6.6251,-0.15595 7.25,-1.28125 0.2638,-0.47508 0.8233,-1.44657 1.25,-2.09375 2.1355,-3.23985 3.22315,-12.72892 1.90625,-16.59375 -1.4215,-4.17184 -1.72745,-8.6353 -1.15625,-15.65625 0.6904,-8.48675 2.6053,-15.08506 8.125,-27.9375 0.888,-2.06792 0.69075,-3.0114 -0.78125,-4.25 -2.3909,-2.01181 -4.67705,-1.38309 -8.09375,2.25 -1.5992,1.70043 -3.00435,3.88671 -4.46875,6.9375 -2.2642,4.71694 -3.22455,5.742 -2.53125,2.65625 0.2238,-0.99602 0.4617,-1.93069 0.5625,-2.09375 0.1008,-0.16305 0.7054,-2.22599 1.3125,-4.5625 1.1176,-4.30132 1.2986,-6.55959 0.8125,-9.5 -0.2351,-1.42219 -0.4619,-1.63335 -1.75,-1.875 -0.2551,-0.0478 -0.48935,-0.08765 -0.71875,-0.09375 z m -0.5625,2.78125 c 0.833,-0.088 1.219,0.74064 0.9375,2.75 -0.1527,1.09042 -0.4945,2.65923 -0.75,3.46875 -0.5324,1.68698 -1.362,5.07076 -2.5625,10.6875 -0.9251,4.32863 -1.0833,10.19603 -0.4375,15.8125 0.631,5.48832 1.12635,5.35581 1.15625,-0.28125 0.026,-4.82611 0.0989,-5.24714 1.59375,-8.8125 4.5681,-10.89855 7.92325,-16.29589 11.21875,-18 1.558,-0.80571 3.41365,-0.82628 3.71875,-0.03125 0.1294,0.33718 -0.4964,2.15523 -1.375,4.03125 -1.5852,3.3846 -4.4604,11.62519 -5.6875,16.21875 -0.9183,3.43803 -1.8709,10.9829 -1.875,14.875 0,2.80309 -0.14275,3.36883 -0.78125,3.5625 -1.1388,0.3454 -6.3947,0.36142 -10.125,0.03125 -2.8077,-0.24846 -3.8091,-0.10222 -6.75,0.8125 -4.863,1.51253 -5.78635,1.6536 -6.09375,1.15625 -0.3656,-0.59155 0.0865,-3.63514 1.3125,-9.125 0.5611,-2.51227 1.25145,-5.85102 1.53125,-7.40625 0.2799,-1.55523 0.9153,-3.67143 1.375,-4.71875 C 760.1474,78.60894 760.5,77.4113 760.5,77 c 0,-1.02934 2.1716,-6.9179 4,-10.875 3.0484,-6.59838 6.94855,-11.30673 8.78125,-11.5 z m 5.5,46.28125 c 0.5188,0 1.2834,1.81566 1.75,4.15625 0.1908,0.95709 0.595,2.71214 0.875,3.875 0.7685,3.19169 0.0256,7.10069 -2.25,11.78125 -1.6404,3.37455 -2.10085,3.91981 -3.28125,4.21875 -1.6213,0.41061 -4.24745,-0.51892 -4.90625,-1.75 -0.2387,-0.44599 -0.42725,-2.91383 -0.40625,-5.46875 0.021,-2.55495 -0.0549,-4.74299 -0.1875,-4.875 -0.1321,-0.13217 -0.5784,0.38765 -1,1.1875 -0.5175,0.98198 -0.83945,2.81354 -0.96875,5.59375 -0.1689,3.62902 -0.33865,4.29483 -1.34375,5.5625 -0.6272,0.79103 -1.84085,1.88496 -2.71875,2.46875 -2.1078,1.40162 -3.19075,1.57982 -5.90625,0.90625 -2.1244,-0.52689 -5.78125,-2.87672 -5.78125,-3.71875 0,-0.20855 -0.5018,-1.12338 -1.125,-2.03125 -1.0319,-1.50294 -1.11955,-1.94606 -0.90625,-4.71875 0.2311,-3.00385 2.8193,-11.62797 4.0625,-13.53125 0.3332,-0.51008 1.4286,-1.11997 2.4375,-1.375 9.6357,-2.43604 9.09525,-2.36626 14.21875,-1.78125 3.6856,0.42084 5.0794,0.42225 5.9375,0.0312 0.6142,-0.27986 1.266,-0.53125 1.5,-0.53125 z" />
  </g>
</svg>
