<?xml version="1.0" encoding="UTF-8" standalone="no"?>
<!-- Created with Inkscape (http://www.inkscape.org/) -->

<svg
   xmlns:dc="http://purl.org/dc/elements/1.1/"
   xmlns:cc="http://creativecommons.org/ns#"
   xmlns:rdf="http://www.w3.org/1999/02/22-rdf-syntax-ns#"
   xmlns:svg="http://www.w3.org/2000/svg"
   xmlns="http://www.w3.org/2000/svg"
   xmlns:sodipodi="http://sodipodi.sourceforge.net/DTD/sodipodi-0.dtd"
   xmlns:inkscape="http://www.inkscape.org/namespaces/inkscape"
   width="900"
   height="800"
   id="svg2"
   version="1.1"
   inkscape:version="0.48+devel r11738"
   sodipodi:docname="f16.svg">
  <defs
     id="defs4" />
  <sodipodi:namedview
     id="base"
     pagecolor="#ffffff"
     bordercolor="#666666"
     borderopacity="1.0"
     inkscape:pageopacity="0.0"
     inkscape:pageshadow="2"
     inkscape:zoom="1.4142136"
     inkscape:cx="610.28963"
     inkscape:cy="639.32374"
     inkscape:document-units="px"
     inkscape:current-layer="layer1"
     showgrid="false"
     showguides="true"
     inkscape:guide-bbox="true"
     inkscape:window-width="1366"
     inkscape:window-height="705"
     inkscape:window-x="-4"
     inkscape:window-y="-4"
     inkscape:window-maximized="1"
     width="0px"
     height="0px"
     fit-margin-top="0"
     fit-margin-left="0"
     fit-margin-right="0"
     fit-margin-bottom="0">
    <sodipodi:guide
       orientation="1,0"
       position="450,784"
       id="guide3178" />
    <sodipodi:guide
       orientation="0,1"
       position="-61,400"
       id="guide3180" />
  </sodipodi:namedview>
  <metadata
     id="metadata7">
    <rdf:RDF>
      <cc:Work
         rdf:about="">
        <dc:format>image/svg+xml</dc:format>
        <dc:type
           rdf:resource="http://purl.org/dc/dcmitype/StillImage" />
        <dc:title />
      </cc:Work>
    </rdf:RDF>
  </metadata>
  <g
     inkscape:label="Layer 1"
     inkscape:groupmode="layer"
     id="layer1"
     transform="translate(0,-252.36218)">
    <path
       id="rect100"
       transform="translate(0,252.36218)"
       style="fill:#ff0000;fill-opacity:1;stroke:none"
       d="m 871.9375,68 c -0.77807,-0.0205 -1.40907,0.19685 -2.0625,0.625 -1.37364,0.90003 -4.77561,4.45731 -5.09375,5.34375 -0.10959,0.30535 -0.91496,1.4806 -1.78125,2.5625 -1.9048,2.37911 -4.18866,6.21765 -5.0625,8.5625 -2.1175,5.68201 -5.46875,16.88824 -5.46875,18.1875 0,0.84246 -0.48922,3.56344 -1.0625,6.0625 -1.55604,6.78312 -1.88795,8.24015 -2.40625,11.125 -0.26024,1.44838 -0.6887,2.87779 -0.9375,3.1875 -0.24878,0.30973 -0.6248,1.56408 -0.90625,2.78125 -0.28151,1.21715 -1.21998,4.848 -2.0625,8.09375 -2.03593,7.84317 -2.19233,12.45297 -0.53125,15.6875 1.47957,2.88117 5.51136,5.87789 9.125,6.75 4.16165,1.00435 7.3899,-0.0166 10.9375,-3.4375 L 866.71875,151.5 870,151.78125 c 4.27751,0.35679 7.48112,-0.22791 8.1875,-1.5 0.29824,-0.53706 0.95521,-1.58089 1.4375,-2.3125 2.41414,-3.6625 3.6449,-14.41224 2.15625,-18.78125 -1.60693,-4.71607 -1.9582,-9.75066 -1.3125,-17.6875 0.78049,-9.59389 2.94774,-17.06467 9.1875,-31.59375 1.00395,-2.33769 0.78898,-3.41233 -0.875,-4.8125 -2.70282,-2.27426 -5.29377,-1.5758 -9.15625,2.53125 -1.80783,1.92225 -3.40704,4.42623 -5.0625,7.875 -2.55951,5.33228 -3.65874,6.45704 -2.875,2.96875 0.25302,-1.12595 0.54228,-2.19064 0.65625,-2.375 0.11396,-0.18431 0.78246,-2.48369 1.46875,-5.125 1.26337,-4.86244 1.48702,-7.39474 0.9375,-10.71875 -0.26576,-1.6077 -0.51261,-1.85182 -1.96875,-2.125 C 872.49314,68.07089 872.19685,68.00681 871.9375,68 z m -0.625,3.125 c 0.94173,-0.0994 1.3807,0.85351 1.0625,3.125 -0.17266,1.23266 -0.55491,3.02237 -0.84375,3.9375 -0.60188,1.90705 -1.51791,5.74431 -2.875,12.09375 -1.04587,4.89333 -1.23005,11.49458 -0.5,17.84375 0.71339,6.20427 1.24748,6.05995 1.28125,-0.3125 0.0289,-5.45569 0.0919,-5.93827 1.78125,-9.96875 5.16409,-12.32032 8.99342,-18.41732 12.71875,-20.34375 1.7613,-0.9108 3.84263,-0.93003 4.1875,-0.03125 0.14626,0.38118 -0.53803,2.41048 -1.53125,4.53125 -1.79194,3.82612 -5.08165,13.1822 -6.46875,18.375 -1.03814,3.88652 -2.08916,12.3814 -2.09375,16.78125 -0.004,3.16876 -0.15322,3.84356 -0.875,4.0625 -1.28734,0.39046 -7.25188,0.40453 -11.46875,0.0312 -3.17402,-0.28088 -4.30041,-0.12779 -7.625,0.90625 -5.49729,1.70986 -6.5275,1.87473 -6.875,1.3125 -0.41328,-0.66871 0.0826,-4.13773 1.46875,-10.34375 0.6343,-2.84001 1.43365,-6.58563 1.75,-8.34375 0.31638,-1.75812 1.01151,-4.1598 1.53125,-5.34375 0.51984,-1.18393 0.9375,-2.53505 0.9375,-3 0,-1.16362 2.46443,-7.83919 4.53125,-12.3125 C 864.85261,76.66583 869.24069,71.34349 871.3125,71.125 z m 6.25,52.34375 c 0.5865,0 1.4413,2.04157 1.96875,4.6875 0.2157,1.08193 0.65223,3.06043 0.96875,4.375 0.86874,3.60806 0.01,8.02133 -2.5625,13.3125 -1.85434,3.81475 -2.35312,4.44331 -3.6875,4.78125 -1.83276,0.46418 -4.78645,-0.57707 -5.53125,-1.96875 -0.26984,-0.50417 -0.49243,-3.29929 -0.46875,-6.1875 0.0237,-2.88825 -0.0693,-5.38201 -0.21875,-5.53125 -0.14941,-0.14939 -0.67967,0.4708 -1.15625,1.375 -0.58509,1.11007 -0.9163,3.1696 -1.0625,6.3125 -0.19085,4.10245 -0.36381,4.84821 -1.5,6.28125 -0.70901,0.89423 -2.10136,2.15256 -3.09375,2.8125 -2.38283,1.58446 -3.61781,1.76143 -6.6875,1 C 852.12974,154.12311 848,151.45187 848,150.5 c 0,-0.23575 -0.54547,-1.25494 -1.25,-2.28125 -1.16647,-1.699 -1.27243,-2.1781 -1.03125,-5.3125 0.26123,-3.39571 3.18833,-13.16093 4.59375,-15.3125 0.3766,-0.57662 1.60951,-1.27419 2.75,-1.5625 10.89273,-2.75381 10.2706,-2.66133 16.0625,-2 4.16641,0.47574 5.71752,0.47329 6.6875,0.0312 C 876.50714,123.74613 877.29808,123.46875 877.5625,123.46875 Z" />
  </g>
</svg>
