<?xml version="1.0" encoding="UTF-8" standalone="no"?>
<!-- Created with Inkscape (http://www.inkscape.org/) -->

<svg
   xmlns:dc="http://purl.org/dc/elements/1.1/"
   xmlns:cc="http://creativecommons.org/ns#"
   xmlns:rdf="http://www.w3.org/1999/02/22-rdf-syntax-ns#"
   xmlns:svg="http://www.w3.org/2000/svg"
   xmlns="http://www.w3.org/2000/svg"
   xmlns:sodipodi="http://sodipodi.sourceforge.net/DTD/sodipodi-0.dtd"
   xmlns:inkscape="http://www.inkscape.org/namespaces/inkscape"
   width="900"
   height="800"
   id="svg2"
   version="1.1"
   inkscape:version="0.48+devel r11738"
   sodipodi:docname="l16.svg">
  <defs
     id="defs4" />
  <sodipodi:namedview
     id="base"
     pagecolor="#ffffff"
     bordercolor="#666666"
     borderopacity="1.0"
     inkscape:pageopacity="0.0"
     inkscape:pageshadow="2"
     inkscape:zoom="2"
     inkscape:cx="1030.6422"
     inkscape:cy="557.97846"
     inkscape:document-units="px"
     inkscape:current-layer="layer1"
     showgrid="false"
     showguides="true"
     inkscape:guide-bbox="true"
     inkscape:window-width="1366"
     inkscape:window-height="705"
     inkscape:window-x="-4"
     inkscape:window-y="-4"
     inkscape:window-maximized="1"
     width="0px"
     height="0px"
     fit-margin-top="0"
     fit-margin-left="0"
     fit-margin-right="0"
     fit-margin-bottom="0">
    <sodipodi:guide
       orientation="1,0"
       position="450,784"
       id="guide3178" />
    <sodipodi:guide
       orientation="0,1"
       position="-61,400"
       id="guide3180" />
  </sodipodi:namedview>
  <metadata
     id="metadata7">
    <rdf:RDF>
      <cc:Work
         rdf:about="">
        <dc:format>image/svg+xml</dc:format>
        <dc:type
           rdf:resource="http://purl.org/dc/dcmitype/StillImage" />
        <dc:title />
      </cc:Work>
    </rdf:RDF>
  </metadata>
  <g
     inkscape:label="Layer 1"
     inkscape:groupmode="layer"
     id="layer1"
     transform="translate(0,-252.36218)">
    <path
       id="rect112"
       transform="translate(0,252.36218)"
       style="fill:#ff0000;fill-opacity:1;stroke:none"
       d="m 864,234.4375 c -0.64507,0.0152 -1.29456,0.10222 -2.09375,0.25 -3.1678,0.5856 -4.26693,1.06295 -6.03125,2.625 -0.67619,0.59869 -2.23001,1.45127 -3.46875,1.90625 -1.23879,0.45499 -2.89771,1.51899 -3.6875,2.34375 l -1.4375,1.5 0,6.46875 c 0,5.16501 0.18686,7.08675 0.96875,9.4375 0.53982,1.6229 1.14663,3.05222 1.3125,3.1875 0.16587,0.13527 0.60584,1.07946 0.96875,2.09375 0.36295,1.01429 0.78641,1.84375 0.96875,1.84375 0.18232,0 0.4377,0.62598 0.59375,1.40625 0.15606,0.78026 0.8733,2.26567 1.5625,3.28125 0.6892,1.01562 1.25,2.22937 1.25,2.6875 0,0.45813 0.13301,0.97676 0.3125,1.15625 0.94621,0.94621 3.71364,10.99196 5.59375,20.28125 0.86124,4.25548 5.21803,14.10168 9.21875,20.78125 0.85762,1.43192 1.59375,2.75518 1.59375,2.96875 0,0.21356 0.86587,1.31056 1.90625,2.4375 2.1869,2.36881 3.50351,2.59007 5.25,0.84375 1.05199,-1.05193 1.15594,-1.49084 0.875,-3.3125 -0.30723,-1.99201 -1.17935,-4.92717 -3.53125,-11.34375 -1.88032,-5.13 -1.3034,-5.56287 1.90625,-1.46875 6.02102,7.68022 11.86914,12.25727 14.90625,11.6875 0.9342,-0.17527 2.22205,-0.7153 2.84375,-1.21875 2.03718,-1.64959 1.27103,-6.05385 -1.8125,-10.1875 -0.63359,-0.84943 -2.01156,-3.16563 -3.0625,-5.15625 -1.0509,-1.99061 -2.38491,-4.36583 -2.96875,-5.3125 -0.5839,-0.94668 -1.86705,-4.181 -2.84375,-7.15625 -1.70922,-5.20727 -1.78194,-5.67648 -1.75,-12.3125 0.0328,-6.81536 0.0751,-6.9342 1.9375,-11.5625 1.03618,-2.57488 2.33598,-5.47098 2.90625,-6.4375 1.6447,-2.78757 2.37829,-7.97056 1.6875,-11.9375 -0.61034,-3.50482 -3.37181,-8.42476 -4.9375,-8.84375 -2.62635,-0.70305 -3.62648,-0.71611 -5.78125,-0.0625 -3.75528,1.13928 -6.35476,0.94533 -8.96875,-0.65625 C 867.46611,234.98908 865.93516,234.39201 864,234.4375 z m -1.84375,1.375 c 0.26987,-0.009 0.51931,0.0118 0.75,0.0625 1.60821,0.35321 8.31663,5.569 9.5,7.375 0.6453,0.98486 1.21766,1.21875 2.8125,1.21875 4.09015,0 10.66596,-2.64655 9.5,-3.8125 -0.19678,-0.19677 -1.43543,0.0331 -2.75,0.5 -1.82231,0.64723 -2.67579,0.72837 -3.6875,0.34375 -1.76842,-0.67236 -0.96648,-1.67499 1.9375,-2.40625 3.00395,-0.7564 4.58138,-0.0269 6.375,2.8125 1.30261,2.06218 1.4584,2.74539 1.46875,6.25 0.0122,3.70377 -0.0821,4.19681 -2.28125,8.71875 -1.28472,2.64187 -2.34375,5.12754 -2.34375,5.5 0,0.37244 -0.63119,1.32904 -1.375,2.125 -1.34466,1.43895 -1.39329,1.43833 -8.65625,1.78125 -4.01747,0.18967 -8.69303,0.69644 -10.40625,1.09375 -1.71319,0.39733 -3.47321,0.84581 -3.875,1 -0.40182,0.15417 -1.13334,-0.16456 -1.65625,-0.6875 -1.23752,-1.23752 -3.599,-6.05859 -4.09375,-8.375 -0.21343,-0.99935 -0.59297,-2.73063 -0.875,-3.8125 -1.00015,-3.83708 -0.67779,-7.84374 0.9375,-11.40625 0.81672,-1.80111 2.03368,-3.97672 2.71875,-4.875 C 857.56041,237.3777 860.26706,235.88027 862.15625,235.8125 Z M 851,241.96875 c 0.56374,-0.10054 0.56492,1.0686 -0.28125,3.09375 -1.42261,3.40482 -1.31096,5.77798 0.46875,12.71875 0.92657,3.61357 1.5849,6.66509 1.46875,6.78125 -0.44373,0.44376 -3.257,-6.59075 -3.6875,-9.21875 -0.79988,-4.88285 -0.59663,-9.95136 0.5,-11.75 C 850.11342,242.53654 850.66176,242.02909 851,241.96875 z m 30.5,25.78125 -0.40625,2 c -0.57378,2.89091 -0.24604,10.66346 0.5625,13.9375 0.74771,3.02758 3.32649,10.40543 4.34375,12.40625 0.34214,0.67296 1.45445,2.59237 2.46875,4.28125 1.01428,1.68888 1.8125,3.26102 1.8125,3.46875 6.4e-4,0.20775 0.87966,1.63028 1.9375,3.1875 2.34997,3.45935 3.03124,6.5132 1.6875,7.53125 -0.50015,0.37893 -1.33406,0.66787 -1.875,0.65625 -1.30199,-0.0281 -6.88233,-3.78504 -7.9375,-5.34375 -0.45775,-0.67622 -1.8336,-2.36845 -3,-3.75 C 879.92735,304.74343 879,303.43523 879,303.25 c 0,-0.18527 -0.94421,-1.57433 -2.09375,-3.09375 -4.84285,-6.40108 -7.25,-9.70355 -7.25,-10 0,-0.17368 -2.34036,-4.29103 -5.1875,-9.125 -2.84718,-4.83393 -5.13728,-9.09261 -5.0625,-9.5 0.35116,-1.91388 6.60581,-3.19734 17.53125,-3.59375 L 881.5,267.75 z m -21.34375,11.5 c 0.0282,-0.0337 0.0796,-0.0186 0.125,0 0.0519,0.0213 0.14417,0.0668 0.21875,0.15625 0.87007,1.04151 5.26703,8.1097 5.5,8.84375 0.16568,0.522 0.46458,0.96875 0.6875,0.96875 0.22293,0 0.52635,0.51459 0.6875,1.15625 0.16103,0.64167 1.33755,2.57487 2.59375,4.28125 2.09514,2.84602 2.28888,3.42244 2.6875,7.0625 0.49186,4.49164 1.75919,8.73338 3.9375,13.34375 0.81983,1.73523 1.399,3.6714 1.3125,4.28125 -0.43415,3.05728 -4.03111,0.2022 -5.875,-4.65625 -0.5394,-1.42134 -1.17366,-2.8436 -1.40625,-3.125 -0.90709,-1.09744 -5.375,-10.61067 -5.375,-11.4375 0,-0.48162 -0.47439,-1.741 -1.03125,-2.8125 -0.55685,-1.07148 -1.31651,-3.62769 -1.6875,-5.65625 -0.37094,-2.02859 -1.14711,-5.54779 -1.6875,-7.84375 C 860.18776,281.02552 859.95915,279.48554 860.15625,279.25 Z" />
  </g>
</svg>
