<?xml version="1.0" encoding="UTF-8" standalone="no"?>
<!-- Created with Inkscape (http://www.inkscape.org/) -->

<svg
   xmlns:dc="http://purl.org/dc/elements/1.1/"
   xmlns:cc="http://creativecommons.org/ns#"
   xmlns:rdf="http://www.w3.org/1999/02/22-rdf-syntax-ns#"
   xmlns:svg="http://www.w3.org/2000/svg"
   xmlns="http://www.w3.org/2000/svg"
   xmlns:sodipodi="http://sodipodi.sourceforge.net/DTD/sodipodi-0.dtd"
   xmlns:inkscape="http://www.inkscape.org/namespaces/inkscape"
   width="800"
   height="700"
   id="svg2"
   version="1.1"
   inkscape:version="0.48.2 r9819"
   sodipodi:docname="m16.svg">
  <defs
     id="defs4" />
  <sodipodi:namedview
     id="base"
     pagecolor="#ffffff"
     bordercolor="#666666"
     borderopacity="1.0"
     inkscape:pageopacity="0.0"
     inkscape:pageshadow="2"
     inkscape:zoom="2.5"
     inkscape:cx="645.80543"
     inkscape:cy="469.02228"
     inkscape:document-units="px"
     inkscape:current-layer="layer1"
     showgrid="false"
     showguides="true"
     inkscape:guide-bbox="true"
     inkscape:window-width="1366"
     inkscape:window-height="746"
     inkscape:window-x="-8"
     inkscape:window-y="-8"
     inkscape:window-maximized="1"
     width="0px"
     height="0px"
     fit-margin-top="0"
     fit-margin-left="0"
     fit-margin-right="0"
     fit-margin-bottom="0">
    <sodipodi:guide
       orientation="1,0"
       position="400.22244,349.31075"
       id="guide3178" />
    <sodipodi:guide
       orientation="0,1"
       position="400.22244,349.31075"
       id="guide3180" />
  </sodipodi:namedview>
  <metadata
     id="metadata7">
    <rdf:RDF>
      <cc:Work
         rdf:about="">
        <dc:format>image/svg+xml</dc:format>
        <dc:type
           rdf:resource="http://purl.org/dc/dcmitype/StillImage" />
        <dc:title></dc:title>
      </cc:Work>
    </rdf:RDF>
  </metadata>
  <g
     inkscape:label="Layer 1"
     inkscape:groupmode="layer"
     id="layer1"
     transform="translate(0,-352.36218)">
    <path
       id="rect3202"
       transform="translate(0,352.36218)"
       style="fill:#ff0000"
       d="m 765.28125,207.34375 c -0.57061,0.0134 -1.16803,0.0881 -1.875,0.21875 -2.80225,0.51802 -3.78303,0.96195 -5.34375,2.34375 -0.59815,0.52959 -1.9667,1.25377 -3.0625,1.65625 -1.09583,0.40249 -2.55135,1.3329 -3.25,2.0625 l -1.28125,1.34375 0,5.71875 c 0,4.56897 0.1521,6.26427 0.84375,8.34375 0.47754,1.43561 1.0095,2.72409 1.15625,2.84375 0.14671,0.11967 0.52272,0.94652 0.84375,1.84375 0.32106,0.89726 0.71369,1.625 0.875,1.625 0.16126,0 0.39321,0.55978 0.53125,1.25 0.13806,0.69021 0.76533,2.00787 1.375,2.90625 0.60967,0.89842 1.09375,1.96974 1.09375,2.375 0,0.40526 0.15372,0.84122 0.3125,1 0.83701,0.83702 3.27436,9.72018 4.9375,17.9375 0.76186,3.7644 4.6172,12.49749 8.15625,18.40625 0.75866,1.26668 1.40625,2.43608 1.40625,2.625 0,0.18891 0.76718,1.15936 1.6875,2.15625 1.93455,2.09545 3.08005,2.29479 4.625,0.75 0.93059,-0.93054 1.06101,-1.32606 0.8125,-2.9375 -0.27178,-1.76213 -1.07576,-4.35516 -3.15625,-10.03125 -1.66334,-4.53801 -1.15176,-4.93415 1.6875,-1.3125 5.32619,6.79394 10.53213,10.87901 13.21875,10.375 0.82639,-0.15505 1.95005,-0.6484 2.5,-1.09375 1.80211,-1.45923 1.1027,-5.34337 -1.625,-9 -0.56047,-0.7514 -1.75783,-2.83285 -2.6875,-4.59375 -0.92961,-1.7609 -2.13979,-3.85009 -2.65625,-4.6875 -0.51652,-0.83745 -1.63602,-3.68058 -2.5,-6.3125 -1.51198,-4.60636 -1.59076,-5.03602 -1.5625,-10.90625 0.029,-6.02888 0.0712,-6.12456 1.71875,-10.21875 0.91661,-2.27775 2.05805,-4.83253 2.5625,-5.6875 1.45492,-2.46589 2.11108,-7.05335 1.5,-10.5625 -0.5399,-3.10038 -2.95874,-7.44188 -4.34375,-7.8125 -2.32325,-0.62193 -3.21889,-0.6406 -5.125,-0.0625 -3.32193,1.00779 -5.62517,0.82301 -7.9375,-0.59375 -2.40735,-1.47478 -3.72564,-2.00899 -5.4375,-1.96875 z m -1.65625,1.21875 c 0.23872,-0.008 0.45218,0.0175 0.65625,0.0625 1.42262,0.31245 7.35944,4.90242 8.40625,6.5 0.57084,0.87121 1.0892,1.09375 2.5,1.09375 3.61814,0 9.43765,-2.34359 8.40625,-3.375 -0.17407,-0.17404 -1.27464,0.0245 -2.4375,0.4375 -1.61202,0.57253 -2.38628,0.65275 -3.28125,0.3125 -1.56434,-0.59476 -0.85011,-1.47813 1.71875,-2.125 2.6573,-0.66911 4.06962,-0.0118 5.65625,2.5 1.1523,1.82419 1.2721,2.39982 1.28125,5.5 0.0107,3.27637 -0.0859,3.71863 -2.03125,7.71875 -1.13646,2.337 -2.0625,4.54552 -2.0625,4.875 0,0.32946 -0.52953,1.1709 -1.1875,1.875 -1.18949,1.2729 -1.23142,1.2904 -7.65625,1.59375 -3.55386,0.16779 -7.70324,0.58605 -9.21875,0.9375 -1.5155,0.35149 -3.08207,0.76987 -3.4375,0.90625 -0.35544,0.13638 -0.97494,-0.16241 -1.4375,-0.625 -1.09471,-1.09471 -3.18734,-5.35714 -3.625,-7.40625 -0.18879,-0.88402 -0.56301,-2.38673 -0.8125,-3.34375 -0.88473,-3.3943 -0.58514,-6.94234 0.84375,-10.09375 0.72247,-1.59328 1.80023,-3.54912 2.40625,-4.34375 1.24212,-1.6286 3.64131,-2.94004 5.3125,-3 z m -9.875,5.46875 c 0.49869,-0.0888 0.52979,0.9273 -0.21875,2.71875 -1.25842,3.0119 -1.16809,5.11018 0.40625,11.25 0.81965,3.19657 1.38401,5.89724 1.28125,6 -0.39252,0.39256 -2.86919,-5.83152 -3.25,-8.15625 -0.70758,-4.31937 -0.53258,-8.81516 0.4375,-10.40625 0.57026,-0.9352 1.04454,-1.35286 1.34375,-1.40625 z m 26.96875,22.78125 -0.34375,1.78125 c -0.50756,2.5573 -0.21523,9.41627 0.5,12.3125 0.66142,2.6782 2.91264,9.19881 3.8125,10.96875 0.30266,0.5953 1.32149,2.31851 2.21875,3.8125 0.89724,1.49397 1.59375,2.87874 1.59375,3.0625 5.6e-4,0.18377 0.78299,1.43497 1.71875,2.8125 2.0788,3.06016 2.68867,5.75567 1.5,6.65625 -0.44241,0.3352 -1.20898,0.60403 -1.6875,0.59375 -1.15175,-0.0248 -6.06658,-3.37116 -7,-4.75 -0.40492,-0.59817 -1.62445,-2.05913 -2.65625,-3.28125 -1.0318,-1.22213 -1.875,-2.39864 -1.875,-2.5625 0,-0.16389 -0.82688,-1.37468 -1.84375,-2.71875 -4.28399,-5.66241 -6.40625,-8.61277 -6.40625,-8.875 0,-0.15364 -2.04393,-3.78637 -4.5625,-8.0625 -2.51862,-4.2761 -4.53491,-8.04588 -4.46875,-8.40625 0.31064,-1.69303 5.80409,-2.83685 15.46875,-3.1875 l 4.03125,-0.15625 z m -18.75,10.15625 c 0.0459,0.0188 0.12153,0.0772 0.1875,0.15625 0.76966,0.92132 4.63768,7.16316 4.84375,7.8125 0.14657,0.46176 0.4278,0.875 0.625,0.875 0.19721,0 0.48245,0.43238 0.625,1 0.14246,0.56762 1.17002,2.27178 2.28125,3.78125 1.85338,2.51759 2.02238,3.06126 2.375,6.28125 0.4351,3.97331 1.54182,7.73416 3.46875,11.8125 0.72524,1.53499 1.26402,3.24178 1.1875,3.78125 -0.38405,2.70448 -3.58764,0.14153 -5.21875,-4.15625 -0.47715,-1.25733 -1.01301,-2.50108 -1.21875,-2.75 -0.8024,-0.9708 -4.78125,-9.36233 -4.78125,-10.09375 0,-0.42604 -0.38239,-1.55215 -0.875,-2.5 -0.49259,-0.94783 -1.17183,-3.20554 -1.5,-5 -0.32814,-1.7945 -1.02196,-4.93776 -1.5,-6.96875 -0.66319,-2.81757 -0.82129,-4.16252 -0.5,-4.03125 z" />
  </g>
</svg>
