<?xml version="1.0" encoding="UTF-8" standalone="no"?>
<!-- Created with Inkscape (http://www.inkscape.org/) -->

<svg
   xmlns:dc="http://purl.org/dc/elements/1.1/"
   xmlns:cc="http://creativecommons.org/ns#"
   xmlns:rdf="http://www.w3.org/1999/02/22-rdf-syntax-ns#"
   xmlns:svg="http://www.w3.org/2000/svg"
   xmlns="http://www.w3.org/2000/svg"
   xmlns:sodipodi="http://sodipodi.sourceforge.net/DTD/sodipodi-0.dtd"
   xmlns:inkscape="http://www.inkscape.org/namespaces/inkscape"
   version="1.1"
   width="900"
   height="800"
   id="svg2"
   inkscape:version="0.48+devel r11738"
   sodipodi:docname="m16.svg">
  <sodipodi:namedview
     pagecolor="#ffffff"
     bordercolor="#666666"
     borderopacity="1"
     objecttolerance="10"
     gridtolerance="10"
     guidetolerance="10"
     inkscape:pageopacity="0"
     inkscape:pageshadow="2"
     inkscape:window-width="1366"
     inkscape:window-height="705"
     id="namedview121"
     showgrid="false"
     inkscape:zoom="1.18"
     inkscape:cx="1286.7516"
     inkscape:cy="542.45893"
     inkscape:window-x="-4"
     inkscape:window-y="-4"
     inkscape:window-maximized="1"
     inkscape:current-layer="svg2" />
  <defs
     id="defs4" />
  <metadata
     id="metadata7">
    <rdf:RDF>
      <cc:Work
         rdf:about="">
        <dc:format>image/svg+xml</dc:format>
        <dc:type
           rdf:resource="http://purl.org/dc/dcmitype/StillImage" />
        <dc:title />
      </cc:Work>
    </rdf:RDF>
  </metadata>
  <path
     id="rect133"
     style="fill:#ff0000;fill-opacity:1;stroke:none"
     d="m 864.15625,168.28125 c -1.63116,0.11212 -3.72566,1.29746 -7.90625,4.0625 -2.09621,1.38646 -3.83916,2.72536 -3.84375,3 -0.005,0.27466 -0.48517,0.98608 -1.09375,1.5625 -0.60862,0.57639 -1.38505,1.69277 -1.75,2.46875 -0.36499,0.77597 -0.88605,1.78033 -1.125,2.25 -0.65717,1.29185 -0.5058,4.56631 0.34375,7.9375 1.35807,5.38891 3.83906,12.82826 4.96875,14.84375 0.60644,1.08189 2.01006,3.74217 3.09375,5.9375 2.52161,5.10815 5.76628,8.00138 10.125,9.0625 6.98148,1.69964 16.43231,-1.2786 21.3125,-6.71875 1.42812,-1.592 3.15662,-3.87049 3.84375,-5.03125 1.19609,-2.02053 1.24466,-2.34575 1.03125,-8.09375 -0.17764,-4.78513 -0.4458,-6.48619 -1.28125,-8.25 -1.29022,-2.72415 -3.30338,-7.66975 -4.59375,-11.25 -1.95627,-5.42773 -4.27277,-7.11751 -10.8125,-7.9375 -4.02709,-0.50495 -6.83769,-1.42779 -9.5,-3.03125 C 865.96479,168.48899 865.13496,168.21398 864.15625,168.28125 z m -0.75,3.125 c 1.15252,-0.0176 2.32349,0.4444 4.03125,1.21875 1.8488,0.83829 3.80384,1.49656 4.375,1.5 0.57115,0.004 3.00319,0.54996 5.4375,1.21875 3.34012,0.91764 4.7565,1.56763 5.625,2.59375 3.19037,3.76956 7.90625,18.19015 7.90625,24.09375 0,2.00823 -0.29875,2.95209 -1.875,5.34375 -2.88167,4.37231 -4.26391,5.57539 -8.875,7.71875 -6.93026,3.22137 -12.77906,2.90946 -17.03125,-0.875 -1.07369,-0.95563 -2.10965,-1.71855 -2.3125,-1.71875 -0.20285,-2.2e-4 -0.375,-0.32317 -0.375,-0.6875 0,-0.36432 -0.45903,-1.15756 -1,-1.78125 -0.54094,-0.62373 -0.96875,-1.56291 -0.96875,-2.0625 0,-0.49956 -0.20343,-0.875 -0.46875,-0.875 -0.26535,0 -0.63265,-0.63121 -0.8125,-1.375 -0.17985,-0.74384 -0.70272,-1.91755 -1.15625,-2.59375 -1.09096,-1.62674 -2.10103,-3.88708 -3.65625,-8.25 -1.06469,-2.98697 -1.25,-4.45123 -1.25,-8.65625 0,-4.79474 0.034,-5.14883 1.375,-7 0.77839,-1.07457 2.06689,-2.42788 2.84375,-3.03125 C 859.58228,172.79832 861.48541,171.43561 863.40625,171.40625 z m 5.75,4.1875 c -0.7288,0 -0.56784,1.50299 0.5,4.3125 0.54081,1.42291 0.96875,3.39136 0.96875,4.375 0,2.62952 -1.88237,7.55617 -3.625,9.4375 -1.44165,1.55655 -1.66823,1.62392 -4.34375,1.4375 -2.03681,-0.14192 -3.14207,-0.47337 -3.96875,-1.25 -1.5345,-1.44163 -1.8256,-1.384 -1.84375,0.5 -0.007,0.87908 -0.33029,2.04931 -0.71875,2.5625 -0.83819,1.10736 -0.43096,2.04857 0.53125,1.25 0.36671,-0.30448 1.15777,-0.4947 1.78125,-0.40625 0.99829,0.14152 1.14451,0.44043 1.0625,2.28125 -0.12806,2.87465 0.95732,2.72328 1.90625,-0.25 l 0.75,-2.3125 3.09375,-0.5625 c 1.70389,-0.30813 3.33017,-0.8612 3.625,-1.25 1.83202,-2.4158 5.24121,-3.10305 7.0625,-1.40625 1.0056,0.93687 1.03818,1.27585 0.75,6.3125 -0.34075,5.95552 -0.14124,7.19749 1.375,9.125 1.48383,1.88642 1.72933,1.24061 0.71875,-1.96875 -0.98576,-3.13397 -0.78973,-6.9543 0.46875,-8.875 1.1279,-1.72137 3.65419,-1.58251 5.8125,0.3125 0.9242,0.81143 1.8186,1.46875 1.96875,1.46875 0.15114,0 0.15334,-0.77439 0,-1.71875 -0.16293,-1.0039 -0.0574,-1.99813 0.28125,-2.40625 0.39571,-0.4767 0.41453,-0.81361 0.0625,-1.03125 -0.28361,-0.17526 -0.5,-0.92357 -0.5,-1.6875 0,-0.9374 -0.32406,-1.49576 -0.9375,-1.65625 -0.54401,-0.14226 -1.05501,-0.87926 -1.28125,-1.875 l -0.34375,-1.6875 -0.40625,1.46875 c -0.2195,0.81143 -0.61188,2.27392 -0.84375,3.21875 -0.55405,2.25793 -1.79194,2.45593 -3.75,0.59375 -0.85048,-0.80877 -2.33461,-1.62275 -3.28125,-1.8125 -3.51406,-0.70439 -3.90625,-1.32044 -3.90625,-5.625 0,-5.10005 0.33746,-6.65191 1.625,-7.21875 0.58405,-0.25713 1.13432,-0.83163 1.21875,-1.28125 0.12932,-0.68855 -0.17093,-0.75982 -1.875,-0.53125 -1.68932,0.22656 -2.13473,0.097 -2.75,-0.78125 C 869.93832,176.07768 869.4114,175.59375 869.15625,175.59375 Z" />
  <g
     transform="translate(0,-252.36218)"
     id="layer1" />
</svg>
