<?xml version="1.0" encoding="UTF-8" standalone="no"?>
<!-- Created with Inkscape (http://www.inkscape.org/) -->

<svg
   xmlns:dc="http://purl.org/dc/elements/1.1/"
   xmlns:cc="http://creativecommons.org/ns#"
   xmlns:rdf="http://www.w3.org/1999/02/22-rdf-syntax-ns#"
   xmlns:svg="http://www.w3.org/2000/svg"
   xmlns="http://www.w3.org/2000/svg"
   xmlns:sodipodi="http://sodipodi.sourceforge.net/DTD/sodipodi-0.dtd"
   xmlns:inkscape="http://www.inkscape.org/namespaces/inkscape"
   width="800"
   height="700"
   id="svg2"
   version="1.1"
   inkscape:version="0.48.2 r9819"
   sodipodi:docname="f16.svg">
  <defs
     id="defs4" />
  <sodipodi:namedview
     id="base"
     pagecolor="#ffffff"
     bordercolor="#666666"
     borderopacity="1.0"
     inkscape:pageopacity="0.0"
     inkscape:pageshadow="2"
     inkscape:zoom="2.5"
     inkscape:cx="645.80543"
     inkscape:cy="501.02228"
     inkscape:document-units="px"
     inkscape:current-layer="layer1"
     showgrid="false"
     showguides="true"
     inkscape:guide-bbox="true"
     inkscape:window-width="1366"
     inkscape:window-height="746"
     inkscape:window-x="-8"
     inkscape:window-y="-8"
     inkscape:window-maximized="1"
     width="0px"
     height="0px"
     fit-margin-top="0"
     fit-margin-left="0"
     fit-margin-right="0"
     fit-margin-bottom="0">
    <sodipodi:guide
       orientation="1,0"
       position="400.22244,349.31075"
       id="guide3178" />
    <sodipodi:guide
       orientation="0,1"
       position="400.22244,349.31075"
       id="guide3180" />
  </sodipodi:namedview>
  <metadata
     id="metadata7">
    <rdf:RDF>
      <cc:Work
         rdf:about="">
        <dc:format>image/svg+xml</dc:format>
        <dc:type
           rdf:resource="http://purl.org/dc/dcmitype/StillImage" />
        <dc:title></dc:title>
      </cc:Work>
    </rdf:RDF>
  </metadata>
  <g
     inkscape:label="Layer 1"
     inkscape:groupmode="layer"
     id="layer1"
     transform="translate(0,-352.36218)">
    <path
       id="rect3198"
       transform="translate(0,352.36218)"
       style="fill:#ff0000"
       d="m 765.40625,148.8125 c -1.44292,0.0992 -3.30185,1.14779 -7,3.59375 -1.8543,1.22647 -3.40218,2.44456 -3.40625,2.6875 -0.005,0.24296 -0.43041,0.83384 -0.96875,1.34375 -0.53839,0.50988 -1.23967,1.50106 -1.5625,2.1875 -0.32288,0.68642 -0.75737,1.58453 -0.96875,2 -0.58134,1.14276 -0.43902,4.04909 0.3125,7.03125 1.20135,4.76705 3.37567,11.3421 4.375,13.125 0.53646,0.95705 1.76012,3.30802 2.71875,5.25 2.23062,4.51869 5.11303,7.06134 8.96875,8 6.17583,1.50351 14.55798,-1.12514 18.875,-5.9375 1.26332,-1.40829 2.76717,-3.4107 3.375,-4.4375 1.05807,-1.78736 1.12629,-2.10281 0.9375,-7.1875 -0.15713,-4.23293 -0.41721,-5.68974 -1.15625,-7.25 -1.14134,-2.40979 -2.92102,-6.80166 -4.0625,-9.96875 -1.7305,-4.80136 -3.77743,-6.30588 -9.5625,-7.03125 -3.56235,-0.44668 -6.05117,-1.23784 -8.40625,-2.65625 -0.88811,-0.53498 -1.60298,-0.80951 -2.46875,-0.75 z m -0.6875,2.78125 c 1.01951,-0.0155 2.05181,0.37749 3.5625,1.0625 1.63545,0.74154 3.36975,1.3407 3.875,1.34375 0.50524,0.004 2.69036,0.50214 4.84375,1.09375 2.95467,0.81174 4.16923,1.37355 4.9375,2.28125 2.82222,3.33457 7.03125,16.09017 7.03125,21.3125 0,1.77649 -0.29316,2.60308 -1.6875,4.71875 -2.54914,3.86775 -3.76478,4.91647 -7.84375,6.8125 -6.13051,2.84961 -11.30102,2.59772 -15.0625,-0.75 -0.9498,-0.84536 -1.88306,-1.53107 -2.0625,-1.53125 -0.17943,-1.9e-4 -0.3125,-0.27146 -0.3125,-0.59375 0,-0.32227 -0.4277,-1.04204 -0.90625,-1.59375 -0.47851,-0.55176 -0.84375,-1.37056 -0.84375,-1.8125 0,-0.44191 -0.17156,-0.78125 -0.40625,-0.78125 -0.23473,0 -0.59091,-0.56079 -0.75,-1.21875 -0.15908,-0.65801 -0.5988,-1.68308 -1,-2.28125 -0.96506,-1.43902 -1.87426,-3.45306 -3.25,-7.3125 -0.94184,-2.64229 -1.09375,-3.93648 -1.09375,-7.65625 0,-4.24143 0.0325,-4.54996 1.21875,-6.1875 0.68858,-0.95057 1.84403,-2.15375 2.53125,-2.6875 3.85998,-2.99807 5.51957,-4.19278 7.21875,-4.21875 z m 5.09375,3.71875 c -0.64469,0 -0.50712,1.32721 0.4375,3.8125 0.4784,1.25871 0.875,3.00487 0.875,3.875 0,2.32607 -1.67722,6.67953 -3.21875,8.34375 -1.27528,1.37693 -1.47698,1.44615 -3.84375,1.28125 -1.80176,-0.12555 -2.76873,-0.438 -3.5,-1.125 -1.35744,-1.27527 -1.64018,-1.22909 -1.65625,0.4375 -0.007,0.77763 -0.28136,1.79603 -0.625,2.25 -0.74146,0.97957 -0.38243,1.83142 0.46875,1.125 0.3244,-0.26933 1.04223,-0.42198 1.59375,-0.34375 0.8831,0.12518 1.01004,0.37161 0.9375,2 -0.11329,2.54291 0.81681,2.41142 1.65625,-0.21875 l 0.6875,-2.03125 2.71875,-0.53125 c 1.50727,-0.27258 2.95793,-0.74982 3.21875,-1.09375 1.6206,-2.13702 4.63889,-2.75099 6.25,-1.25 0.88956,0.82875 0.91117,1.13833 0.65625,5.59375 -0.30143,5.26826 -0.12252,6.35743 1.21875,8.0625 1.31258,1.66873 1.51897,1.08901 0.625,-1.75 -0.872,-2.77231 -0.707,-6.14468 0.40625,-7.84375 0.99775,-1.52271 3.24701,-1.39508 5.15625,0.28125 0.81754,0.7178 1.61716,1.3125 1.75,1.3125 0.13369,0 0.13562,-0.69586 0,-1.53125 -0.14414,-0.88804 -0.0496,-1.76399 0.25,-2.125 0.35006,-0.4217 0.37383,-0.71372 0.0625,-0.90625 -0.25088,-0.15504 -0.4375,-0.82421 -0.4375,-1.5 0,-0.82922 -0.30111,-1.32678 -0.84375,-1.46875 -0.48124,-0.12584 -0.92487,-0.7754 -1.125,-1.65625 l -0.3125,-1.46875 -0.34375,1.28125 c -0.19417,0.71778 -0.54489,2.00796 -0.75,2.84375 -0.49012,1.99736 -1.61165,2.17854 -3.34375,0.53125 -0.75233,-0.71543 -2.03761,-1.45715 -2.875,-1.625 -3.10854,-0.62311 -3.46875,-1.12967 -3.46875,-4.9375 0,-4.5115 0.29853,-5.90482 1.4375,-6.40625 0.51665,-0.22746 1.01907,-0.72727 1.09375,-1.125 0.11441,-0.60909 -0.14882,-0.67095 -1.65625,-0.46875 -1.49438,0.20041 -1.92448,0.0581 -2.46875,-0.71875 -0.35865,-0.5118 -0.80555,-0.90625 -1.03125,-0.90625 z" />
  </g>
</svg>
