<?xml version="1.0" encoding="UTF-8" standalone="no"?>
<!-- Created with Inkscape (http://www.inkscape.org/) -->

<svg
   xmlns:dc="http://purl.org/dc/elements/1.1/"
   xmlns:cc="http://creativecommons.org/ns#"
   xmlns:rdf="http://www.w3.org/1999/02/22-rdf-syntax-ns#"
   xmlns:svg="http://www.w3.org/2000/svg"
   xmlns="http://www.w3.org/2000/svg"
   xmlns:sodipodi="http://sodipodi.sourceforge.net/DTD/sodipodi-0.dtd"
   xmlns:inkscape="http://www.inkscape.org/namespaces/inkscape"
   width="800"
   height="400"
   id="svg2"
   version="1.1"
   inkscape:version="0.48.2 r9819"
   sodipodi:docname="m16.svg">
  <defs
     id="defs4" />
  <sodipodi:namedview
     id="base"
     pagecolor="#ffffff"
     bordercolor="#666666"
     borderopacity="1.0"
     inkscape:pageopacity="0.0"
     inkscape:pageshadow="2"
     inkscape:zoom="2.8284271"
     inkscape:cx="632.28238"
     inkscape:cy="280.69713"
     inkscape:document-units="px"
     inkscape:current-layer="layer1"
     showgrid="false"
     showguides="true"
     inkscape:guide-bbox="true"
     inkscape:window-width="1366"
     inkscape:window-height="746"
     inkscape:window-x="-8"
     inkscape:window-y="-8"
     inkscape:window-maximized="1"
     width="0px"
     height="0px"
     fit-margin-top="0"
     fit-margin-left="0"
     fit-margin-right="0"
     fit-margin-bottom="0">
    <sodipodi:guide
       orientation="1,0"
       position="400.22244,349.31075"
       id="guide3178" />
    <sodipodi:guide
       orientation="0,1"
       position="-117.37973,199.40411"
       id="guide3180" />
  </sodipodi:namedview>
  <metadata
     id="metadata7">
    <rdf:RDF>
      <cc:Work
         rdf:about="">
        <dc:format>image/svg+xml</dc:format>
        <dc:type
           rdf:resource="http://purl.org/dc/dcmitype/StillImage" />
        <dc:title></dc:title>
      </cc:Work>
    </rdf:RDF>
  </metadata>
  <g
     inkscape:label="Layer 1"
     inkscape:groupmode="layer"
     id="layer1"
     transform="translate(0,-652.36218)">
    <path
       id="rect3043"
       transform="translate(0,652.36218)"
       style="fill:#ff0000"
       d="m 766.9375,140.5625 c -1.4429,0.0992 -3.27065,1.11654 -6.96875,3.5625 -1.8543,1.22647 -3.40215,2.44456 -3.40625,2.6875 -0.01,0.24296 -0.43045,0.86509 -0.96875,1.375 -0.5384,0.50988 -1.2397,1.50106 -1.5625,2.1875 -0.3229,0.68642 -0.7886,1.58453 -1,2 -0.5813,1.14276 -0.439,4.01784 0.3125,7 1.2013,4.76705 3.40695,11.3421 4.40625,13.125 0.5365,0.95705 1.76005,3.33927 2.71875,5.28125 2.2306,4.51869 5.11305,7.06134 8.96875,8 6.1759,1.50351 14.52665,-1.12514 18.84375,-5.9375 1.2633,-1.40829 2.79835,-3.44195 3.40625,-4.46875 1.058,-1.78736 1.09505,-2.07156 0.90625,-7.15625 -0.1571,-4.23293 -0.3859,-5.72099 -1.125,-7.28125 -1.1413,-2.40979 -2.921,-6.80166 -4.0625,-9.96875 -1.7305,-4.80136 -3.7775,-6.30588 -9.5625,-7.03125 -3.5624,-0.44668 -6.05115,-1.23784 -8.40625,-2.65625 -0.8881,-0.53498 -1.6342,-0.77826 -2.5,-0.71875 z m -0.65625,2.75 c 1.0195,-0.0155 2.0518,0.40874 3.5625,1.09375 1.6354,0.74154 3.3697,1.30945 3.875,1.3125 0.5052,0.004 2.6591,0.50214 4.8125,1.09375 2.9547,0.81174 4.20045,1.37355 4.96875,2.28125 2.8222,3.33457 7,16.09017 7,21.3125 0,1.77649 -0.2932,2.60308 -1.6875,4.71875 -2.5491,3.86775 -3.76475,4.94772 -7.84375,6.84375 -6.1305,2.84961 -11.26975,2.56647 -15.03125,-0.78125 -0.9498,-0.84536 -1.8831,-1.49982 -2.0625,-1.5 -0.1795,-1.9e-4 -0.3125,-0.30271 -0.3125,-0.625 0,-0.32227 -0.42765,-1.04204 -0.90625,-1.59375 -0.4785,-0.55176 -0.84375,-1.33931 -0.84375,-1.78125 0,-0.44191 -0.2028,-0.8125 -0.4375,-0.8125 -0.2347,0 -0.55965,-0.52954 -0.71875,-1.1875 -0.1591,-0.65801 -0.5988,-1.71433 -1,-2.3125 -0.965,-1.43902 -1.8742,-3.42181 -3.25,-7.28125 -0.9418,-2.64229 -1.125,-3.93648 -1.125,-7.65625 0,-4.24143 0.0636,-4.54996 1.25,-6.1875 0.6886,-0.95057 1.8128,-2.185 2.5,-2.71875 3.86,-2.99807 5.5508,-4.19278 7.25,-4.21875 z m 5.09375,3.71875 c -0.6447,0 -0.5072,1.32721 0.4375,3.8125 0.4784,1.25871 0.84375,3.00487 0.84375,3.875 0,2.32607 -1.646,6.67953 -3.1875,8.34375 -1.2753,1.37693 -1.47695,1.44615 -3.84375,1.28125 -1.8017,-0.12555 -2.7687,-0.438 -3.5,-1.125 -1.3574,-1.27527 -1.64025,-1.22909 -1.65625,0.4375 -0.01,0.77763 -0.2814,1.82728 -0.625,2.28125 -0.7415,0.97957 -0.38245,1.80017 0.46875,1.09375 0.3244,-0.26933 1.04225,-0.42198 1.59375,-0.34375 0.8831,0.12518 0.97885,0.37161 0.90625,2 -0.1132,2.54291 0.8481,2.41142 1.6875,-0.21875 l 0.65625,-2.03125 2.75,-0.5 c 1.5072,-0.27258 2.9267,-0.78107 3.1875,-1.125 1.6206,-2.13702 4.67015,-2.75099 6.28125,-1.25 0.8896,0.82875 0.91115,1.13833 0.65625,5.59375 -0.3014,5.26826 -0.12245,6.35743 1.21875,8.0625 1.3126,1.66873 1.519,1.08901 0.625,-1.75 -0.872,-2.77231 -0.70705,-6.14468 0.40625,-7.84375 0.9977,-1.52271 3.24705,-1.36383 5.15625,0.3125 0.8176,0.7178 1.6172,1.28125 1.75,1.28125 0.1337,0 0.1356,-0.69586 0,-1.53125 -0.1441,-0.88804 -0.05,-1.76399 0.25,-2.125 0.3501,-0.4217 0.3736,-0.71372 0.0625,-0.90625 -0.2508,-0.15504 -0.4375,-0.82421 -0.4375,-1.5 0,-0.82922 -0.30115,-1.32678 -0.84375,-1.46875 -0.4812,-0.12584 -0.9249,-0.74415 -1.125,-1.625 l -0.34375,-1.5 -0.34375,1.28125 c -0.1942,0.71778 -0.51365,2.00796 -0.71875,2.84375 -0.4901,1.99736 -1.61165,2.17854 -3.34375,0.53125 -0.7524,-0.71543 -2.0376,-1.45715 -2.875,-1.625 -3.1086,-0.62311 -3.46875,-1.12967 -3.46875,-4.9375 0,-4.5115 0.2985,-5.87357 1.4375,-6.375 0.5166,-0.22746 0.9878,-0.75852 1.0625,-1.15625 0.1144,-0.60909 -0.14885,-0.67095 -1.65625,-0.46875 -1.4944,0.20041 -1.8932,0.0581 -2.4375,-0.71875 -0.359,-0.5118 -0.80555,-0.90625 -1.03125,-0.90625 z" />
  </g>
</svg>
