<?xml version="1.0" encoding="UTF-8" standalone="no"?>
<!-- Created with Inkscape (http://www.inkscape.org/) -->

<svg
   xmlns:dc="http://purl.org/dc/elements/1.1/"
   xmlns:cc="http://creativecommons.org/ns#"
   xmlns:rdf="http://www.w3.org/1999/02/22-rdf-syntax-ns#"
   xmlns:svg="http://www.w3.org/2000/svg"
   xmlns="http://www.w3.org/2000/svg"
   xmlns:sodipodi="http://sodipodi.sourceforge.net/DTD/sodipodi-0.dtd"
   xmlns:inkscape="http://www.inkscape.org/namespaces/inkscape"
   width="800"
   height="700"
   id="svg2"
   version="1.1"
   inkscape:version="0.48.2 r9819"
   sodipodi:docname="m8-fill.svg">
  <defs
     id="defs4" />
  <sodipodi:namedview
     id="base"
     pagecolor="#ffffff"
     bordercolor="#666666"
     borderopacity="1.0"
     inkscape:pageopacity="0.0"
     inkscape:pageshadow="2"
     inkscape:zoom="5"
     inkscape:cx="376.7286"
     inkscape:cy="531.08342"
     inkscape:document-units="px"
     inkscape:current-layer="layer1"
     showgrid="false"
     showguides="true"
     inkscape:guide-bbox="true"
     inkscape:window-width="1024"
     inkscape:window-height="538"
     inkscape:window-x="-8"
     inkscape:window-y="-8"
     inkscape:window-maximized="1"
     width="0px"
     height="0px"
     fit-margin-top="0"
     fit-margin-left="0"
     fit-margin-right="0"
     fit-margin-bottom="0">
    <sodipodi:guide
       orientation="1,0"
       position="400.22244,349.31075"
       id="guide3178" />
    <sodipodi:guide
       orientation="0,1"
       position="400.22244,349.31075"
       id="guide3180" />
  </sodipodi:namedview>
  <metadata
     id="metadata7">
    <rdf:RDF>
      <cc:Work
         rdf:about="">
        <dc:format>image/svg+xml</dc:format>
        <dc:type
           rdf:resource="http://purl.org/dc/dcmitype/StillImage" />
        <dc:title />
      </cc:Work>
    </rdf:RDF>
  </metadata>
  <g
     inkscape:label="Layer 1"
     inkscape:groupmode="layer"
     id="layer1"
     transform="translate(0,-352.36218)">
    <path
       id="rect3602"
       transform="translate(0,352.36218)"
       style="fill:#00ff00"
       d="m 376.96875,145.8125 c -2.01732,-0.0251 -3.90405,0.0502 -5,0.28125 -1.19632,0.25215 -3.13049,0.6538 -4.3125,0.90625 -1.18201,0.25246 -2.95863,0.99917 -3.96875,1.65625 -2.18487,1.42125 -4.53125,4.26406 -4.53125,5.46875 0,0.73099 0.17175,0.78646 1.1875,0.5 1.7791,-0.50172 7.72123,-0.37381 11.5,0.25 3.03257,0.50066 3.66043,0.47809 7.25,-0.375 6.27399,-1.49112 11.14794,-1.04698 13.71875,1.25 1.95685,1.74847 1.11327,2.10771 -1.71875,0.71875 -2.81163,-1.37896 -4.80907,-1.36296 -11.90625,0.21875 -3.86091,0.86044 -4.34074,0.91938 -8.03125,0.34375 -7.2209,-1.12632 -11.13797,-0.47039 -12.34375,2.09375 -0.64786,1.37794 -0.71359,5.3125 -0.0937,5.3125 0.23926,0 0.4375,0.22945 0.4375,0.5 0,0.67452 5.15409,6.52644 7.6875,8.71875 1.13767,0.98448 2.36718,2.37031 2.6875,3.03125 0.32033,0.6609 0.96477,1.50671 1.40625,1.90625 1.00808,0.91229 3.91819,1.95225 4.6875,1.6875 0.31871,-0.1096 0.95559,-0.1875 1.40625,-0.1875 1.02662,0 3.49994,-2.13257 4.34375,-3.75 0.35034,-0.67151 1.29807,-1.80683 2.125,-2.53125 8.17469,-7.16162 8.26947,-7.29839 10.28125,-11.5625 1.61612,-3.42548 1.35342,-5.53639 -1.25,-9.40625 -2.27901,-3.38762 -4.24334,-5.09242 -6.9375,-6.09375 -1.45502,-0.5408 -5.26282,-0.8957 -8.625,-0.9375 z m -6.40625,12.75 c 1.30469,0.0335 2.6638,0.26703 3.90625,0.625 1.38956,0.40025 2.99735,0.48046 5,0.28125 8.01719,-0.79743 7.67534,-0.80531 8.9375,0.1875 1.00187,0.78807 1.1875,1.26109 1.1875,3.03125 0,2.02298 -0.089,2.1872 -2.5,4.21875 -1.37692,1.16018 -2.8976,2.35931 -3.375,2.65625 -2.32946,1.44892 -5.03628,2.6875 -5.8125,2.6875 -0.83191,0 -0.85956,-0.0246 -0.15625,-1.25 0.6178,-1.07648 0.6736,-1.56927 0.25,-3.15625 -0.27555,-1.03231 -0.43975,-1.93525 -0.34375,-2.03125 0.34125,-0.34128 1.53125,0.93848 1.53125,1.65625 0,0.91701 0.82677,1.78125 1.71875,1.78125 0.3748,0 1.72309,-0.99116 3.03125,-2.1875 1.30813,-1.19634 2.54092,-2.15625 2.71875,-2.15625 0.17786,0 0.63935,-0.52684 1.03125,-1.125 0.66269,-1.0112 0.66553,-1.1553 -0.0312,-2.21875 -0.7216,-1.10133 -0.86452,-1.13809 -3.4375,-0.8125 -3.23488,0.40923 -6.01526,0.4093 -12.03125,0.0312 -3.896,-0.24488 -4.76869,-0.15934 -6.0625,0.5 -1.77293,0.90355 -2.15745,2.04569 -1.03125,3.125 0.44043,0.42212 1.75167,1.79849 2.90625,3.03125 2.2381,2.38969 2.91001,2.45035 3.90625,0.46875 0.28152,-0.55992 0.76341,-1.05755 1.0625,-1.15625 0.77452,-0.25546 0.64875,1.24358 -0.1875,2.4375 -0.49515,0.70691 -0.62068,1.5583 -0.46875,2.90625 0.22767,2.01954 0.19698,2.06512 -1.1875,1.5 -1.25222,-0.51111 -6.09878,-6.49832 -7.75,-9.5625 -0.97439,-1.80812 -0.56299,-2.78194 1.8125,-4.34375 1.18609,-0.7798 3.20051,-1.1808 5.375,-1.125 z" />
  </g>
</svg>
