<?xml version="1.0" encoding="UTF-8" standalone="no"?>
<!-- Created with Inkscape (http://www.inkscape.org/) -->

<svg
   xmlns:dc="http://purl.org/dc/elements/1.1/"
   xmlns:cc="http://creativecommons.org/ns#"
   xmlns:rdf="http://www.w3.org/1999/02/22-rdf-syntax-ns#"
   xmlns:svg="http://www.w3.org/2000/svg"
   xmlns="http://www.w3.org/2000/svg"
   xmlns:sodipodi="http://sodipodi.sourceforge.net/DTD/sodipodi-0.dtd"
   xmlns:inkscape="http://www.inkscape.org/namespaces/inkscape"
   width="800"
   height="700"
   id="svg2"
   version="1.1"
   inkscape:version="0.48.2 r9819"
   sodipodi:docname="m26-fill.svg">
  <defs
     id="defs4" />
  <sodipodi:namedview
     id="base"
     pagecolor="#ffffff"
     bordercolor="#666666"
     borderopacity="1.0"
     inkscape:pageopacity="0.0"
     inkscape:pageshadow="2"
     inkscape:zoom="7.071068"
     inkscape:cx="467.8635"
     inkscape:cy="139.62559"
     inkscape:document-units="px"
     inkscape:current-layer="layer1"
     showgrid="false"
     showguides="true"
     inkscape:guide-bbox="true"
     inkscape:window-width="1024"
     inkscape:window-height="538"
     inkscape:window-x="-8"
     inkscape:window-y="-8"
     inkscape:window-maximized="1"
     width="0px"
     height="0px"
     fit-margin-top="0"
     fit-margin-left="0"
     fit-margin-right="0"
     fit-margin-bottom="0">
    <sodipodi:guide
       orientation="1,0"
       position="400.22244,349.31075"
       id="guide3178" />
    <sodipodi:guide
       orientation="0,1"
       position="400.22244,349.31075"
       id="guide3180" />
  </sodipodi:namedview>
  <metadata
     id="metadata7">
    <rdf:RDF>
      <cc:Work
         rdf:about="">
        <dc:format>image/svg+xml</dc:format>
        <dc:type
           rdf:resource="http://purl.org/dc/dcmitype/StillImage" />
        <dc:title />
      </cc:Work>
    </rdf:RDF>
  </metadata>
  <g
     inkscape:label="Layer 1"
     inkscape:groupmode="layer"
     id="layer1"
     transform="translate(0,-352.36218)">
    <path
       id="rect4457"
       transform="translate(0,352.36218)"
       style="fill:#00ff00"
       d="m 474.59375,541.625 c -1.77835,0.0286 -4.68559,1.29746 -5.90625,2.6875 -0.69036,0.78631 -1.63674,2.32244 -2.125,3.375 -1.69523,3.65392 -1.85116,3.3925 2.15625,3.375 2.70538,-0.0117 4.43459,-0.26272 7.09375,-1.15625 1.93278,-0.64952 3.99493,-1.49473 4.5625,-1.875 l 1.03125,-0.6875 -0.875,-1.34375 c -1.02385,-1.61423 -3.84754,-3.93718 -5.21875,-4.28125 -0.19925,-0.0498 -0.46469,-0.0987 -0.71875,-0.0937 z m 9.375,7.84375 c -0.22846,-0.0177 -0.45992,0.007 -0.75,0.0312 -1.16035,0.0971 -2.87622,0.50893 -5.6875,1.34375 -2.15339,0.63959 -5.78394,1.35185 -8.0625,1.5625 -4.68508,0.4328 -8.02304,1.62687 -8.46875,3.03125 -0.5452,1.71763 0.2421,4.465 1.6875,5.875 0.75342,0.7349 1.9375,2.00625 2.65625,2.84375 0.71875,0.8374 2.19506,2.25895 3.25,3.15625 1.57719,1.3413 2.25571,1.625 3.8125,1.625 1.04135,0 2.51135,-0.2892 3.28125,-0.625 1.98357,-0.8654 5.54811,-4.22565 6.59375,-6.21875 4.5051,-8.5878 4.95643,-10.19986 3.25,-11.90625 -0.41526,-0.4153 -0.87711,-0.66575 -1.5625,-0.71875 z" />
  </g>
</svg>
