<?xml version="1.0" encoding="UTF-8" standalone="no"?>
<!-- Created with Inkscape (http://www.inkscape.org/) -->

<svg
   xmlns:dc="http://purl.org/dc/elements/1.1/"
   xmlns:cc="http://creativecommons.org/ns#"
   xmlns:rdf="http://www.w3.org/1999/02/22-rdf-syntax-ns#"
   xmlns:svg="http://www.w3.org/2000/svg"
   xmlns="http://www.w3.org/2000/svg"
   xmlns:sodipodi="http://sodipodi.sourceforge.net/DTD/sodipodi-0.dtd"
   xmlns:inkscape="http://www.inkscape.org/namespaces/inkscape"
   width="800"
   height="700"
   id="svg2"
   version="1.1"
   inkscape:version="0.48.2 r9819"
   sodipodi:docname="f21-fill.svg">
  <defs
     id="defs4" />
  <sodipodi:namedview
     id="base"
     pagecolor="#ffffff"
     bordercolor="#666666"
     borderopacity="1.0"
     inkscape:pageopacity="0.0"
     inkscape:pageshadow="2"
     inkscape:zoom="7.071068"
     inkscape:cx="240.82162"
     inkscape:cy="212.60875"
     inkscape:document-units="px"
     inkscape:current-layer="layer1"
     showgrid="false"
     showguides="true"
     inkscape:guide-bbox="true"
     inkscape:window-width="1024"
     inkscape:window-height="538"
     inkscape:window-x="-8"
     inkscape:window-y="-8"
     inkscape:window-maximized="1"
     width="0px"
     height="0px"
     fit-margin-top="0"
     fit-margin-left="0"
     fit-margin-right="0"
     fit-margin-bottom="0">
    <sodipodi:guide
       orientation="1,0"
       position="400.22244,349.31075"
       id="guide3178" />
    <sodipodi:guide
       orientation="0,1"
       position="400.22244,349.31075"
       id="guide3180" />
  </sodipodi:namedview>
  <metadata
     id="metadata7">
    <rdf:RDF>
      <cc:Work
         rdf:about="">
        <dc:format>image/svg+xml</dc:format>
        <dc:type
           rdf:resource="http://purl.org/dc/dcmitype/StillImage" />
        <dc:title />
      </cc:Work>
    </rdf:RDF>
  </metadata>
  <g
     inkscape:label="Layer 1"
     inkscape:groupmode="layer"
     id="layer1"
     transform="translate(0,-352.36218)">
    <path
       id="rect4190"
       transform="translate(0,352.36218)"
       style="fill:#00ff00"
       d="m 227.5625,474.75 c -0.79663,0.0125 -1.52423,0.15765 -2.03125,0.4375 -2.52606,1.39422 -5.20801,4.31878 -6.3125,6.9375 -1.72959,4.10085 -2.5539,7.34524 -2.4375,9.59375 0.0934,1.80274 -0.0551,2.20464 -1.125,3.125 -1.63038,1.40253 -2.46949,0.66949 -1.15625,-1 0.63842,-0.81165 0.90225,-1.7721 0.90625,-3.15625 0.003,-1.10418 0.29509,-2.96558 0.65625,-4.15625 0.85682,-2.8248 0.61571,-3.61679 -0.8125,-2.375 -0.67143,0.58381 -1.27077,1.76474 -1.5625,3.125 -0.2569,1.198 -0.73122,2.7871 -1.0625,3.53125 -0.33131,0.74425 -0.89864,2.22283 -1.25,3.3125 -0.59309,1.8391 -0.58468,2.09361 0.21875,3.6875 0.91358,1.81246 4.61093,6.34442 6.375,7.8125 2.03484,1.69339 7.10145,4.125 8.5625,4.125 0.8579,1.1e-4 1.93051,-0.38737 2.65625,-0.96875 0.67635,-0.54141 2.14206,-1.45415 3.21875,-2.03125 4.44279,-2.38123 5.24679,-3.08532 6.28125,-5.375 1.52583,-3.3774 1.67989,-5.53934 0.71875,-10.71875 -1.26709,-6.82829 -2.48957,-9.50832 -1.84375,-4.03125 0.17653,1.49867 0.13595,3.74799 -0.0625,5 -0.50079,3.15884 -0.47979,2.98292 -0.125,4.3125 0.26972,1.01059 0.19863,1.21875 -0.53125,1.21875 -1.63717,0 -2.00087,-1.01266 -1.3125,-3.78125 1.33457,-5.36762 -1.09343,-15.79474 -4.125,-17.6875 -1.00096,-0.62489 -2.51603,-0.9584 -3.84375,-0.9375 z" />
  </g>
</svg>
