<?xml version="1.0" encoding="UTF-8" standalone="no"?>
<!-- Created with Inkscape (http://www.inkscape.org/) -->

<svg
   xmlns:dc="http://purl.org/dc/elements/1.1/"
   xmlns:cc="http://creativecommons.org/ns#"
   xmlns:rdf="http://www.w3.org/1999/02/22-rdf-syntax-ns#"
   xmlns:svg="http://www.w3.org/2000/svg"
   xmlns="http://www.w3.org/2000/svg"
   xmlns:sodipodi="http://sodipodi.sourceforge.net/DTD/sodipodi-0.dtd"
   xmlns:inkscape="http://www.inkscape.org/namespaces/inkscape"
   width="800"
   height="700"
   id="svg2"
   version="1.1"
   inkscape:version="0.48.2 r9819"
   sodipodi:docname="f21.svg">
  <defs
     id="defs4" />
  <sodipodi:namedview
     id="base"
     pagecolor="#ffffff"
     bordercolor="#666666"
     borderopacity="1.0"
     inkscape:pageopacity="0.0"
     inkscape:pageshadow="2"
     inkscape:zoom="7.071068"
     inkscape:cx="240.82162"
     inkscape:cy="212.60875"
     inkscape:document-units="px"
     inkscape:current-layer="layer1"
     showgrid="false"
     showguides="true"
     inkscape:guide-bbox="true"
     inkscape:window-width="1366"
     inkscape:window-height="746"
     inkscape:window-x="-8"
     inkscape:window-y="-8"
     inkscape:window-maximized="1"
     width="0px"
     height="0px"
     fit-margin-top="0"
     fit-margin-left="0"
     fit-margin-right="0"
     fit-margin-bottom="0">
    <sodipodi:guide
       orientation="1,0"
       position="400.22244,349.31075"
       id="guide3178" />
    <sodipodi:guide
       orientation="0,1"
       position="400.22244,349.31075"
       id="guide3180" />
  </sodipodi:namedview>
  <metadata
     id="metadata7">
    <rdf:RDF>
      <cc:Work
         rdf:about="">
        <dc:format>image/svg+xml</dc:format>
        <dc:type
           rdf:resource="http://purl.org/dc/dcmitype/StillImage" />
        <dc:title></dc:title>
      </cc:Work>
    </rdf:RDF>
  </metadata>
  <g
     inkscape:label="Layer 1"
     inkscape:groupmode="layer"
     id="layer1"
     transform="translate(0,-352.36218)">
    <path
       style="fill:#ff0000"
       d="m 227.5625,827.11218 c 1.32772,-0.0209 2.84279,0.31261 3.84375,0.9375 3.03157,1.89276 5.45957,12.31988 4.125,17.6875 -0.68837,2.76859 -0.32467,3.78125 1.3125,3.78125 0.72988,0 0.80097,-0.20816 0.53125,-1.21875 -0.35479,-1.32958 -0.37579,-1.15366 0.125,-4.3125 0.19845,-1.25201 0.23903,-3.50133 0.0625,-5 -0.64582,-5.47707 0.57666,-2.79704 1.84375,4.03125 0.96114,5.17941 0.80708,7.34135 -0.71875,10.71875 -1.03446,2.28968 -1.83846,2.99377 -6.28125,5.375 -1.07669,0.5771 -2.5424,1.48984 -3.21875,2.03125 -0.72574,0.58138 -1.79835,0.96886 -2.65625,0.96875 -1.46105,0 -6.52766,-2.43161 -8.5625,-4.125 -1.76407,-1.46808 -5.46142,-6.00004 -6.375,-7.8125 -0.80343,-1.59389 -0.81184,-1.8484 -0.21875,-3.6875 0.35136,-1.08967 0.91869,-2.56825 1.25,-3.3125 0.33128,-0.74415 0.8056,-2.33325 1.0625,-3.53125 0.29173,-1.36026 0.89107,-2.54119 1.5625,-3.125 1.42821,-1.24179 1.66932,-0.4498 0.8125,2.375 -0.36116,1.19067 -0.65322,3.05207 -0.65625,4.15625 -0.004,1.38415 -0.26783,2.3446 -0.90625,3.15625 -1.31324,1.66949 -0.47413,2.40253 1.15625,1 1.0699,-0.92036 1.21838,-1.32226 1.125,-3.125 -0.1164,-2.24851 0.70791,-5.4929 2.4375,-9.59375 1.10449,-2.61872 3.78644,-5.54328 6.3125,-6.9375 0.50702,-0.27985 1.23462,-0.42502 2.03125,-0.4375 z"
       id="rect3254" />
  </g>
</svg>
