<?xml version="1.0" encoding="UTF-8" standalone="no"?>
<!-- Created with Inkscape (http://www.inkscape.org/) -->

<svg
   xmlns:dc="http://purl.org/dc/elements/1.1/"
   xmlns:cc="http://creativecommons.org/ns#"
   xmlns:rdf="http://www.w3.org/1999/02/22-rdf-syntax-ns#"
   xmlns:svg="http://www.w3.org/2000/svg"
   xmlns="http://www.w3.org/2000/svg"
   xmlns:sodipodi="http://sodipodi.sourceforge.net/DTD/sodipodi-0.dtd"
   xmlns:inkscape="http://www.inkscape.org/namespaces/inkscape"
   width="800"
   height="400"
   id="svg2"
   version="1.1"
   inkscape:version="0.48.2 r9819"
   sodipodi:docname="mb.svg">
  <defs
     id="defs4" />
  <sodipodi:namedview
     id="base"
     pagecolor="#ffffff"
     bordercolor="#666666"
     borderopacity="1.0"
     inkscape:pageopacity="0.0"
     inkscape:pageshadow="2"
     inkscape:zoom="2.8284271"
     inkscape:cx="193.08421"
     inkscape:cy="329.78669"
     inkscape:document-units="px"
     inkscape:current-layer="layer1"
     showgrid="false"
     showguides="true"
     inkscape:guide-bbox="true"
     inkscape:window-width="1366"
     inkscape:window-height="746"
     inkscape:window-x="-8"
     inkscape:window-y="-8"
     inkscape:window-maximized="1"
     width="0px"
     height="0px"
     fit-margin-top="0"
     fit-margin-left="0"
     fit-margin-right="0"
     fit-margin-bottom="0">
    <sodipodi:guide
       orientation="1,0"
       position="400.22244,349.31075"
       id="guide3178" />
  </sodipodi:namedview>
  <metadata
     id="metadata7">
    <rdf:RDF>
      <cc:Work
         rdf:about="">
        <dc:format>image/svg+xml</dc:format>
        <dc:type
           rdf:resource="http://purl.org/dc/dcmitype/StillImage" />
        <dc:title></dc:title>
        <cc:license
           rdf:resource="" />
      </cc:Work>
    </rdf:RDF>
  </metadata>
  <g
     inkscape:label="Layer 1"
     inkscape:groupmode="layer"
     id="layer1"
     transform="translate(0,-652.36218)">
    <path
       id="rect3026"
       transform="translate(0,652.36218)"
       style="fill:#ff0000"
       d="m 281.28125,29.28125 c -0.29356,0.01465 -0.63455,0.09051 -0.96875,0.21875 -2.56685,0.98499 -5.43349,5.84792 -6.125,10.375 -1.60572,10.51211 -3.15606,15.65435 -6.53125,21.625 -3.83495,6.78394 -5.03906,7.8296 -6.75,5.78125 -2.53276,-3.03225 -8.37181,-12.4554 -9.96875,-16.09375 -0.95303,-2.17132 -2.87629,-4.97984 -4.25,-6.25 l -2.46875,-2.3125 -2,2 c -1.70815,1.70815 -2.18323,1.77256 -3.1875,0.5625 -3.01343,-3.63097 -6.84375,-0.4478 -6.84375,5.6875 0,5.28824 3.83003,17.58197 6.875,22.09375 5.04539,7.47586 5.55262,10.16527 3.4375,17.84375 -2.45091,8.8975 -2.53573,19.12265 -0.1875,21.46875 0.94995,0.9491 1.71875,2.10612 1.71875,2.59375 0,0.48764 2.10905,1.55088 4.6875,2.34375 5.7835,1.7784 5.58743,1.76905 11.59375,0.1875 3.20291,-0.84336 5.95338,-1.01987 7.875,-0.46875 6.21401,1.78216 9.4076,1.09241 13.46875,-2.96875 4.58423,-4.58423 4.96349,-8.37606 1.78125,-17.46875 -5.31415,-15.18425 -5.17795,-14.05756 -2.53125,-24.75 3.64377,-14.72049 4.90792,-24.95764 4.125,-33.3125 -0.60901,-6.499019 -1.69508,-9.258828 -3.75,-9.15625 z m -0.0937,3 c 1.18833,0.09506 1.46927,3.954149 1.09375,12.375 -0.45327,10.1647 -2.35962,20.85857 -5.8125,32.6875 l -1,3.4375 -14.71875,0 -14.71875,0 L 244,76.34375 c -1.12023,-2.44274 -2.92547,-5.82645 -4,-7.53125 -1.6982,-2.6943 -3.53472,-8.02505 -5.5,-15.875 -0.62917,-2.5131 0.29776,-7.1875 1.4375,-7.1875 0.41863,0 2.42073,3.52535 4.4375,7.84375 3.35946,7.19343 4.14943,8.14667 9.34375,11.1875 5.79474,3.39232 11.28587,5.65625 13.75,5.65625 3.79992,0 9.90737,-10.68682 11.28125,-19.75 1.44036,-9.50167 2.5106,-13.67428 4.21875,-16.28125 0.94088,-1.435956 1.6786,-2.16821 2.21875,-2.125 z M 244,45.75 c 0.95432,0 5.9375,7.16148 5.9375,8.53125 0,0.56791 1.25867,2.78918 2.78125,4.90625 1.52257,2.11706 3.09063,4.38396 3.5,5.0625 1.804,2.99013 -4.27117,-0.51389 -9,-5.1875 C 243.08854,54.98053 240.853,45.75 244,45.75 z m 17.75,36.8125 c 3.5308,0.01837 6.89922,0.296826 8.90625,0.90625 4.62578,1.40459 4.72388,1.52699 9.0625,11.5625 5.58117,12.90961 0.59049,22.60715 -9.8125,19.0625 -3.57317,-1.2175 -5.02768,-1.23641 -8.90625,-0.1875 -2.547,0.6888 -5.08216,1.58761 -5.625,2 -1.26887,0.96395 -7.21506,-1.54561 -10.09375,-4.25 -1.80084,-1.6918 -2.25,-3.16319 -2.25,-7.65625 0,-5.60087 3.18728,-17.17843 5.375,-19.53125 1.12842,-1.213581 7.45908,-1.93687 13.34375,-1.90625 z" />
  </g>
</svg>
