<?xml version="1.0" encoding="UTF-8" standalone="no"?>
<!-- Created with Inkscape (http://www.inkscape.org/) -->

<svg
   xmlns:dc="http://purl.org/dc/elements/1.1/"
   xmlns:cc="http://creativecommons.org/ns#"
   xmlns:rdf="http://www.w3.org/1999/02/22-rdf-syntax-ns#"
   xmlns:svg="http://www.w3.org/2000/svg"
   xmlns="http://www.w3.org/2000/svg"
   xmlns:sodipodi="http://sodipodi.sourceforge.net/DTD/sodipodi-0.dtd"
   xmlns:inkscape="http://www.inkscape.org/namespaces/inkscape"
   width="800"
   height="400"
   id="svg2"
   version="1.1"
   inkscape:version="0.48.2 r9819"
   sodipodi:docname="ma.svg">
  <defs
     id="defs4" />
  <sodipodi:namedview
     id="base"
     pagecolor="#ffffff"
     bordercolor="#666666"
     borderopacity="1.0"
     inkscape:pageopacity="0.0"
     inkscape:pageshadow="2"
     inkscape:zoom="2"
     inkscape:cx="257.93362"
     inkscape:cy="258.59361"
     inkscape:document-units="px"
     inkscape:current-layer="layer1"
     showgrid="false"
     showguides="true"
     inkscape:guide-bbox="true"
     inkscape:window-width="1366"
     inkscape:window-height="746"
     inkscape:window-x="-8"
     inkscape:window-y="-8"
     inkscape:window-maximized="1"
     width="0px"
     height="0px"
     fit-margin-top="0"
     fit-margin-left="0"
     fit-margin-right="0"
     fit-margin-bottom="0">
    <sodipodi:guide
       orientation="1,0"
       position="400.22244,349.31075"
       id="guide3178" />
  </sodipodi:namedview>
  <metadata
     id="metadata7">
    <rdf:RDF>
      <cc:Work
         rdf:about="">
        <dc:format>image/svg+xml</dc:format>
        <dc:type
           rdf:resource="http://purl.org/dc/dcmitype/StillImage" />
        <dc:title></dc:title>
        <cc:license
           rdf:resource="" />
      </cc:Work>
    </rdf:RDF>
  </metadata>
  <g
     inkscape:label="Layer 1"
     inkscape:groupmode="layer"
     id="layer1"
     transform="translate(0,-652.36218)">
    <path
       id="rect3022"
       transform="translate(0,652.36218)"
       style="fill:#ff0000"
       d="m 272.34375,134.25 -8.96875,1 c -10.98918,1.22748 -17.75983,4.13574 -19.8125,8.5625 -2.22285,4.79373 -1.80313,19.64857 0.71875,25.59375 2.04977,4.83218 6.85394,9.03799 13.8125,12.0625 6.91116,3.0039 12.57028,1.05251 20.03125,-6.90625 5.146,-5.48934 6.8849,-10.80945 6.8125,-21 -0.0665,-9.34504 -1.24155,-11.62966 -8.34375,-16.4375 l -4.25,-2.875 z m -4.875,3.96875 c 5.2831,-0.093 6.37072,0.31125 8.84375,2.28125 5.64842,4.4995 6.64441,7.50432 5.5,16.46875 -1.40656,11.01789 -3.36175,14.59403 -10.46875,19.1875 -3.24383,2.0966 -6.40562,3.80835 -7,3.78125 -2.22855,-0.10145 -9.37121,-4.15767 -13.3125,-7.53125 -6.02023,-5.1531 -6.8058,-7.29733 -6.25,-17.28125 0.47002,-8.44317 0.53344,-8.60977 4.0625,-11.4375 5.69643,-4.56438 7.33568,-5.12775 16.09375,-5.40625 0.94302,-0.03 1.77652,-0.0492 2.53125,-0.0625 z m -8.71875,7.75 c -0.45291,0.0508 -0.97873,1.14363 -1.28125,2.65625 -0.61715,3.08573 -0.66229,3.10619 -2.09375,1.0625 -1.85942,-2.65469 -5.21867,-1.92505 -6.03125,1.3125 -1.28058,5.10225 1.7855,12.42765 4.5,10.75 0.63084,-0.38988 0.27691,-1.44649 -0.9375,-2.75 -1.99531,-2.14172 -2.79912,-8.625 -1.0625,-8.625 2.29649,0 8.81367,14.03177 8.125,17.5 -0.13473,0.67854 0.21541,1.25 0.75,1.25 1.7028,0 2.31374,-2.08459 1.28125,-4.28125 -2.17814,-4.63411 -3.92061,-12.03033 -3.0625,-12.9375 1.13766,-1.20272 1.13119,-5.20714 0,-5.90625 -0.0596,-0.0368 -0.1228,-0.0385 -0.1875,-0.0312 z m 9.875,1.46875 c -0.86069,0.0694 -1.33197,1.87363 -1.25,5 0.0953,3.63397 -0.0382,3.81398 -1.59375,2.40625 -4.06824,-3.68174 -4.0937,-9.6e-4 -0.0312,4.25 1.62849,1.70407 2.9375,3.54598 2.9375,4.09375 0,0.54777 0.45719,1 1,1 0.54283,0 1,-0.62404 1,-1.40625 0,-2.30456 1.95398,-2.86054 3.90625,-1.09375 2.18807,1.98019 3.83383,0.25369 1.9375,-2.03125 -1.0004,-1.2054 -0.82954,-1.99595 0.90625,-4.34375 2.26326,-3.06121 2.70293,-4.9375 1.1875,-4.9375 -0.50809,0 -1.90465,1.76618 -3.125,3.9375 -1.51758,2.70018 -2.88745,3.96875 -4.34375,3.96875 -1.98529,0 -2.09162,-0.31628 -1.40625,-4.6875 0.40428,-2.57845 0.32505,-5.11837 -0.15625,-5.625 -0.36019,-0.37917 -0.68185,-0.55438 -0.96875,-0.53125 z" />
  </g>
</svg>
