<?xml version="1.0" encoding="UTF-8" standalone="no"?>
<!-- Created with Inkscape (http://www.inkscape.org/) -->

<svg
   xmlns:dc="http://purl.org/dc/elements/1.1/"
   xmlns:cc="http://creativecommons.org/ns#"
   xmlns:rdf="http://www.w3.org/1999/02/22-rdf-syntax-ns#"
   xmlns:svg="http://www.w3.org/2000/svg"
   xmlns="http://www.w3.org/2000/svg"
   xmlns:sodipodi="http://sodipodi.sourceforge.net/DTD/sodipodi-0.dtd"
   xmlns:inkscape="http://www.inkscape.org/namespaces/inkscape"
   width="800"
   height="700"
   id="svg2"
   version="1.1"
   inkscape:version="0.48.2 r9819"
   sodipodi:docname="f14.svg">
  <defs
     id="defs4" />
  <sodipodi:namedview
     id="base"
     pagecolor="#ffffff"
     bordercolor="#666666"
     borderopacity="1.0"
     inkscape:pageopacity="0.0"
     inkscape:pageshadow="2"
     inkscape:zoom="3.5355339"
     inkscape:cx="716.0237"
     inkscape:cy="606.22082"
     inkscape:document-units="px"
     inkscape:current-layer="layer1"
     showgrid="false"
     showguides="true"
     inkscape:guide-bbox="true"
     inkscape:window-width="1366"
     inkscape:window-height="746"
     inkscape:window-x="-8"
     inkscape:window-y="-8"
     inkscape:window-maximized="1"
     width="0px"
     height="0px"
     fit-margin-top="0"
     fit-margin-left="0"
     fit-margin-right="0"
     fit-margin-bottom="0">
    <sodipodi:guide
       orientation="1,0"
       position="400.22244,349.31075"
       id="guide3178" />
    <sodipodi:guide
       orientation="0,1"
       position="400.22244,349.31075"
       id="guide3180" />
  </sodipodi:namedview>
  <metadata
     id="metadata7">
    <rdf:RDF>
      <cc:Work
         rdf:about="">
        <dc:format>image/svg+xml</dc:format>
        <dc:type
           rdf:resource="http://purl.org/dc/dcmitype/StillImage" />
        <dc:title></dc:title>
      </cc:Work>
    </rdf:RDF>
  </metadata>
  <g
     inkscape:label="Layer 1"
     inkscape:groupmode="layer"
     id="layer1"
     transform="translate(0,-352.36218)">
    <path
       style="fill:#ff0000"
       d="m 664.3125,457.23718 c 1.16098,7.4e-4 2.51722,0.22153 4.5625,0.65625 2.20523,0.46865 4.56787,0.63363 7.28125,0.5 4.84227,-0.23845 5.49673,0.0895 6.40625,3.28125 2.40003,8.42211 2.69552,14.70497 0.9375,20.46875 -1.08831,3.56793 -2.19699,5.19268 -4.4375,6.34375 -0.52262,0.26852 -2.20756,0.47056 -3.71875,0.46875 -3.31433,-0.005 -6.39745,-1.31479 -8.625,-3.65625 -0.82452,-0.86673 -1.75054,-1.5625 -2.0625,-1.5625 -0.73915,0 -0.70065,-1.93691 0.125,-6.09375 0.35641,-1.7945 0.88435,-4.30904 1.125,-5.625 0.24065,-1.31597 0.55619,-2.46288 0.75,-2.53125 0.19385,-0.0685 0.73487,-0.40734 1.1875,-0.75 0.73742,-0.55823 0.51733,-0.6019 -2.40625,-0.59375 -3.09131,0.008 -3.20867,0.009 -2.28125,0.65625 1.20238,0.83875 1.25966,2.49522 0.28125,7.625 -0.38156,2.00036 -0.63698,4.70075 -0.53125,6 0.1165,1.43186 -0.0399,2.79151 -0.375,3.4375 -1.24971,2.40879 -4.59202,3.36581 -7.03125,2.03125 -0.6351,-0.34746 -2.94371,-1.17435 -5.09375,-1.84375 l -3.90625,-1.21875 -1.3125,-2.5625 c -1.15515,-2.27476 -1.3125,-3.02991 -1.3125,-6.3125 0,-4.18214 1.00963,-7.23911 3.59375,-11.125 0.7934,-1.19312 1.40625,-2.42231 1.40625,-2.6875 0,-0.93143 1.53381,-1.78757 3.6875,-2.09375 2.52927,-0.35959 5.73793,-1.17975 8.4375,-2.15625 1.19541,-0.43268 2.15149,-0.65704 3.3125,-0.65625 z"
       id="rect3170" />
  </g>
</svg>
