<?xml version="1.0" encoding="UTF-8" standalone="no"?>
<!-- Created with Inkscape (http://www.inkscape.org/) -->

<svg
   xmlns:dc="http://purl.org/dc/elements/1.1/"
   xmlns:cc="http://creativecommons.org/ns#"
   xmlns:rdf="http://www.w3.org/1999/02/22-rdf-syntax-ns#"
   xmlns:svg="http://www.w3.org/2000/svg"
   xmlns="http://www.w3.org/2000/svg"
   xmlns:sodipodi="http://sodipodi.sourceforge.net/DTD/sodipodi-0.dtd"
   xmlns:inkscape="http://www.inkscape.org/namespaces/inkscape"
   width="800"
   height="700"
   id="svg2"
   version="1.1"
   inkscape:version="0.48.2 r9819"
   sodipodi:docname="f14-fill.svg">
  <defs
     id="defs4" />
  <sodipodi:namedview
     id="base"
     pagecolor="#ffffff"
     bordercolor="#666666"
     borderopacity="1.0"
     inkscape:pageopacity="0.0"
     inkscape:pageshadow="2"
     inkscape:zoom="3.5355339"
     inkscape:cx="716.0237"
     inkscape:cy="560.96599"
     inkscape:document-units="px"
     inkscape:current-layer="layer1"
     showgrid="false"
     showguides="true"
     inkscape:guide-bbox="true"
     inkscape:window-width="1024"
     inkscape:window-height="538"
     inkscape:window-x="-8"
     inkscape:window-y="-8"
     inkscape:window-maximized="1"
     width="0px"
     height="0px"
     fit-margin-top="0"
     fit-margin-left="0"
     fit-margin-right="0"
     fit-margin-bottom="0">
    <sodipodi:guide
       orientation="1,0"
       position="400.22244,349.31075"
       id="guide3178" />
    <sodipodi:guide
       orientation="0,1"
       position="400.22244,349.31075"
       id="guide3180" />
  </sodipodi:namedview>
  <metadata
     id="metadata7">
    <rdf:RDF>
      <cc:Work
         rdf:about="">
        <dc:format>image/svg+xml</dc:format>
        <dc:type
           rdf:resource="http://purl.org/dc/dcmitype/StillImage" />
        <dc:title />
      </cc:Work>
    </rdf:RDF>
  </metadata>
  <g
     inkscape:label="Layer 1"
     inkscape:groupmode="layer"
     id="layer1"
     transform="translate(0,-352.36218)">
    <path
       id="rect3865"
       transform="translate(0,352.36218)"
       style="fill:#00ff00"
       d="m 664.3125,104.875 c -1.16101,-7.9e-4 -2.11709,0.22357 -3.3125,0.65625 -2.69957,0.9765 -5.90823,1.79666 -8.4375,2.15625 -2.15369,0.30618 -3.6875,1.16232 -3.6875,2.09375 0,0.26519 -0.61285,1.49438 -1.40625,2.6875 -2.58412,3.88589 -3.59375,6.94286 -3.59375,11.125 0,3.28259 0.15735,4.03774 1.3125,6.3125 l 1.3125,2.5625 3.90625,1.21875 c 2.15004,0.6694 4.45865,1.49629 5.09375,1.84375 2.43923,1.33456 5.78154,0.37754 7.03125,-2.03125 0.3351,-0.64599 0.4915,-2.00564 0.375,-3.4375 -0.10573,-1.29925 0.14969,-3.99964 0.53125,-6 0.97841,-5.12978 0.92113,-6.78625 -0.28125,-7.625 -0.92742,-0.64725 -0.81006,-0.64825 2.28125,-0.65625 2.92358,-0.008 3.14367,0.0355 2.40625,0.59375 -0.45263,0.34266 -0.99365,0.6815 -1.1875,0.75 -0.19381,0.0684 -0.50935,1.21528 -0.75,2.53125 -0.24065,1.31596 -0.76859,3.8305 -1.125,5.625 -0.82565,4.15684 -0.86415,6.09375 -0.125,6.09375 0.31196,0 1.23798,0.69577 2.0625,1.5625 2.22755,2.34146 5.31067,3.65125 8.625,3.65625 1.51119,0.002 3.19613,-0.20023 3.71875,-0.46875 2.24051,-1.15107 3.34919,-2.77582 4.4375,-6.34375 1.75802,-5.76378 1.46253,-12.04664 -0.9375,-20.46875 -0.90952,-3.19175 -1.56398,-3.5197 -6.40625,-3.28125 -2.71338,0.13363 -5.07602,-0.0314 -7.28125,-0.5 -2.04528,-0.43472 -3.40152,-0.65551 -4.5625,-0.65625 z" />
  </g>
</svg>
