<?xml version="1.0" encoding="UTF-8" standalone="no"?>
<!-- Created with Inkscape (http://www.inkscape.org/) -->

<svg
   xmlns:dc="http://purl.org/dc/elements/1.1/"
   xmlns:cc="http://creativecommons.org/ns#"
   xmlns:rdf="http://www.w3.org/1999/02/22-rdf-syntax-ns#"
   xmlns:svg="http://www.w3.org/2000/svg"
   xmlns="http://www.w3.org/2000/svg"
   xmlns:sodipodi="http://sodipodi.sourceforge.net/DTD/sodipodi-0.dtd"
   xmlns:inkscape="http://www.inkscape.org/namespaces/inkscape"
   width="800"
   height="700"
   id="svg2"
   version="1.1"
   inkscape:version="0.48.2 r9819"
   sodipodi:docname="l5.svg">
  <defs
     id="defs4" />
  <sodipodi:namedview
     id="base"
     pagecolor="#ffffff"
     bordercolor="#666666"
     borderopacity="1.0"
     inkscape:pageopacity="0.0"
     inkscape:pageshadow="2"
     inkscape:zoom="2.5"
     inkscape:cx="360.94843"
     inkscape:cy="616.33902"
     inkscape:document-units="px"
     inkscape:current-layer="layer1"
     showgrid="false"
     showguides="true"
     inkscape:guide-bbox="true"
     inkscape:window-width="1366"
     inkscape:window-height="746"
     inkscape:window-x="-8"
     inkscape:window-y="-8"
     inkscape:window-maximized="1"
     width="0px"
     height="0px"
     fit-margin-top="0"
     fit-margin-left="0"
     fit-margin-right="0"
     fit-margin-bottom="0">
    <sodipodi:guide
       orientation="1,0"
       position="400.22244,349.31075"
       id="guide3178" />
    <sodipodi:guide
       orientation="0,1"
       position="400.22244,349.31075"
       id="guide3180" />
  </sodipodi:namedview>
  <metadata
     id="metadata7">
    <rdf:RDF>
      <cc:Work
         rdf:about="">
        <dc:format>image/svg+xml</dc:format>
        <dc:type
           rdf:resource="http://purl.org/dc/dcmitype/StillImage" />
        <dc:title></dc:title>
      </cc:Work>
    </rdf:RDF>
  </metadata>
  <g
     inkscape:label="Layer 1"
     inkscape:groupmode="layer"
     id="layer1"
     transform="translate(0,-352.36218)">
    <path
       id="rect3074"
       transform="translate(0,352.36218)"
       style="fill:#ff0000"
       d="m 272.84375,14.8125 c -0.97806,-0.002 -1.34028,0.28616 -2.125,1.21875 -2.13266,2.53452 -2.44451,6.34796 -1.40625,16.375 0.81647,7.87271 0.81934,15.27186 0,21.53125 -1.3385,10.22535 -2.35783,22.59905 -2.375,28.71875 -0.0213,7.53853 -0.95393,14.85467 -2.1875,17.5625 -0.49328,1.08288 -1.83544,3.26385 -3.03125,4.84375 -1.1958,1.57988 -2.1875,3.1217 -2.1875,3.4375 0,0.3158 -0.43241,1.51436 -0.9375,2.65625 -0.66003,1.49202 -0.90625,2.97637 -0.90625,5.25 0,4.02246 1.1844,6.54187 4.21875,9.03125 1.19397,0.97951 3.07717,2.69725 4.15625,3.78125 2.76282,2.77547 5.6905,5.07421 7.4375,5.84375 1.81949,0.8015 2.83529,0.60976 6.4375,-1.1875 1.81134,-0.90341 3.07198,-1.89691 3.59375,-2.78125 0.44278,-0.75046 2.02572,-2.20309 3.5,-3.25 2.60162,-1.84748 5.38868,-4.39845 7.03125,-6.375 2.06595,-2.48592 1.62809,-7.30738 -1.71875,-18.65625 -1.09958,-3.72855 -2.19155,-7.80453 -2.40625,-9.03125 -1.73765,-9.92802 -1.88034,-11.54246 -2.96875,-29.40625 -0.24052,-3.94789 -0.55951,-7.77428 -0.6875,-8.5 -0.12807,-0.72568 -0.51833,-5.17671 -0.875,-9.90625 -0.69802,-9.25598 -2.50222,-19.50831 -4.21875,-23.90625 -0.54427,-1.39446 -1.88974,-3.54278 -2.96875,-4.75 -1.76936,-1.97965 -2.17133,-2.21554 -4.15625,-2.40625 -0.51052,-0.0491 -0.89271,-0.09325 -1.21875,-0.09375 z m 0.5,2.5625 c 2.06036,-0.10378 4.54739,2.03163 5.5,5.25 1.75775,5.9387 3.81841,15.84746 4.1875,20.21875 0.22222,2.63192 0.59437,7.35826 0.84375,10.46875 0.54588,6.80851 1.59243,18.09065 2.1875,23.46875 0.23829,2.15338 0.50377,5.45416 0.5625,7.34375 0.0625,2.00679 -0.0898,3.48422 -0.34375,3.5625 -0.23928,0.0738 -1.23042,-0.5595 -2.1875,-1.40625 -2.69527,-2.38516 -4.27009,-2.873 -7.46875,-2.375 -1.48507,0.23121 -3.59981,0.81754 -4.71875,1.3125 -1.11894,0.49489 -2.22054,0.77838 -2.46875,0.625 -0.71121,-0.43953 -0.0856,-11.87723 1.1875,-21.46875 1.41453,-10.65784 1.78451,-20.23481 1.125,-30 -1.10867,-16.41517 -1.10334,-15.15083 -0.25,-16.09375 0.52068,-0.57534 1.15697,-0.87165 1.84375,-0.90625 z m 2.875,69.375 c 0.9408,-0.0483 1.9956,0.03965 3.15625,0.21875 2.33204,0.35991 3.14741,0.66249 3.65625,1.4375 0.35889,0.54665 1.07419,1.39598 1.5625,1.875 2.00445,1.96621 4.61235,7.21915 5.0625,10.15625 0.24358,1.58955 1.09899,5.26739 1.90625,8.1875 0.80725,2.92012 1.46875,6.11622 1.46875,7.09375 0,2.91173 -3.01901,7.82705 -5.96875,9.71875 -0.89853,0.5762 -2.02147,1.41986 -2.5,1.875 -2.27834,2.16718 -6.23395,5.1267 -7.8125,5.84375 -0.9643,0.43804 -2.07486,0.8385 -2.4375,0.84375 -1.36086,0.0198 -3.49661,-1.5917 -5.21875,-3.90625 -0.97912,-1.31596 -3.19743,-3.86455 -4.875,-5.625 -1.67759,-1.76046 -3.3203,-3.82102 -3.65625,-4.625 -1.14157,-2.73222 -0.55252,-8.62035 1.09375,-11 4.72709,-6.83281 6.22731,-9.83151 7.15625,-14.0625 1.1862,-5.40246 3.32945,-7.82166 7.40625,-8.03125 z" />
  </g>
</svg>
