<?xml version="1.0" encoding="UTF-8" standalone="no"?>
<!-- Created with Inkscape (http://www.inkscape.org/) -->

<svg
   xmlns:dc="http://purl.org/dc/elements/1.1/"
   xmlns:cc="http://creativecommons.org/ns#"
   xmlns:rdf="http://www.w3.org/1999/02/22-rdf-syntax-ns#"
   xmlns:svg="http://www.w3.org/2000/svg"
   xmlns="http://www.w3.org/2000/svg"
   xmlns:sodipodi="http://sodipodi.sourceforge.net/DTD/sodipodi-0.dtd"
   xmlns:inkscape="http://www.inkscape.org/namespaces/inkscape"
   width="900"
   height="800"
   id="svg2"
   version="1.1"
   inkscape:version="0.48.2 r9819"
   sodipodi:docname="l7.svg">
  <defs
     id="defs4" />
  <sodipodi:namedview
     id="base"
     pagecolor="#ffffff"
     bordercolor="#666666"
     borderopacity="1.0"
     inkscape:pageopacity="0.0"
     inkscape:pageshadow="2"
     inkscape:zoom="1.4142136"
     inkscape:cx="534.45578"
     inkscape:cy="618.41767"
     inkscape:document-units="px"
     inkscape:current-layer="layer1"
     showgrid="false"
     showguides="true"
     inkscape:guide-bbox="true"
     inkscape:window-width="1366"
     inkscape:window-height="746"
     inkscape:window-x="-8"
     inkscape:window-y="-8"
     inkscape:window-maximized="1"
     width="0px"
     height="0px"
     fit-margin-top="0"
     fit-margin-left="0"
     fit-margin-right="0"
     fit-margin-bottom="0">
    <sodipodi:guide
       orientation="1,0"
       position="450,784"
       id="guide3178" />
    <sodipodi:guide
       orientation="0,1"
       position="-61,400"
       id="guide3180" />
  </sodipodi:namedview>
  <metadata
     id="metadata7">
    <rdf:RDF>
      <cc:Work
         rdf:about="">
        <dc:format>image/svg+xml</dc:format>
        <dc:type
           rdf:resource="http://purl.org/dc/dcmitype/StillImage" />
        <dc:title></dc:title>
      </cc:Work>
    </rdf:RDF>
  </metadata>
  <g
     inkscape:label="Layer 1"
     inkscape:groupmode="layer"
     id="layer1"
     transform="translate(0,-252.36218)">
    <path
       id="rect3079"
       transform="translate(0,252.36218)"
       style="fill:#ff0000"
       d="m 307.34375,16.78125 c -1.10566,-0.002 -1.48791,0.32075 -2.375,1.375 -2.41086,2.86515 -2.7987,7.19614 -1.625,18.53125 0.92298,8.89972 0.92624,17.23656 0,24.3125 -1.51311,11.55929 -2.66809,25.55073 -2.6875,32.46875 -0.0241,8.52196 -1.04299,16.78266 -2.4375,19.84375 -0.55763,1.22413 -2.0857,3.714 -3.4375,5.5 -1.3518,1.78599 -2.5,3.51802 -2.5,3.875 0,0.35702 -0.46026,1.74039 -1.03125,3.03125 -0.74612,1.68666 -1.03125,3.33601 -1.03125,5.90625 0,4.54719 1.35106,7.40463 4.78125,10.21875 1.34972,1.10729 3.46766,3.05584 4.6875,4.28125 3.12324,3.13753 6.43134,5.75506 8.40625,6.625 2.05684,0.90606 3.20912,0.65671 7.28125,-1.375 2.04763,-1.02127 3.47266,-2.12531 4.0625,-3.125 0.50054,-0.84836 2.2709,-2.50401 3.9375,-3.6875 2.94101,-2.08848 6.1119,-4.95311 7.96875,-7.1875 2.33546,-2.81021 1.84595,-8.29564 -1.9375,-21.125 -1.24302,-4.21495 -2.47604,-8.80075 -2.71875,-10.1875 -1.96434,-11.22315 -2.14461,-13.05583 -3.375,-33.25 -0.2719,-4.4629 -0.60531,-8.77337 -0.75,-9.59375 -0.14477,-0.82035 -0.5968,-5.87222 -1,-11.21875 -0.78907,-10.46345 -2.84079,-22.05961 -4.78125,-27.03125 -0.61526,-1.57638 -2.12397,-3.97903 -3.34375,-5.34375 -2.00018,-2.23789 -2.44365,-2.50317 -4.6875,-2.71875 -0.57713,-0.0555 -1.03768,-0.1244 -1.40625,-0.125 z m 0.5625,2.90625 c 2.32913,-0.11733 5.14187,2.29928 6.21875,5.9375 1.98706,6.71342 4.33277,17.93346 4.75,22.875 0.25122,2.97526 0.68684,8.26499 0.96875,11.78125 0.61709,7.6967 1.79606,20.45156 2.46875,26.53125 0.26937,2.4343 0.52736,6.20765 0.59375,8.34375 0.0706,2.26859 -0.0566,3.94275 -0.34375,4.03125 -0.2705,0.0834 -1.38682,-0.63653 -2.46875,-1.59375 -3.04688,-2.69632 -4.82157,-3.25046 -8.4375,-2.6875 -1.67881,0.26138 -4.1101,0.90922 -5.375,1.46875 -1.26491,0.55945 -2.50065,0.89215 -2.78125,0.71875 -0.80397,-0.49687 -0.0642,-13.43848 1.375,-24.28125 1.59906,-12.04817 1.99555,-22.86716 1.25,-33.90625 -1.25329,-18.55658 -1.24591,-17.15282 -0.28125,-18.21875 0.58859,-0.6504 1.28612,-0.96089 2.0625,-1 z m 3.28125,78.40625 c 1.06354,-0.0546 2.21919,0.04751 3.53125,0.25 2.63626,0.40687 3.58104,0.74888 4.15625,1.625 0.40572,0.61796 1.19798,1.5835 1.75,2.125 2.26593,2.22271 5.24113,8.14851 5.75,11.46875 0.27536,1.79692 1.24369,5.9802 2.15625,9.28125 0.91256,3.30105 1.625,6.89496 1.625,8 0,3.29158 -3.41545,8.86152 -6.75,11 -1.01573,0.65137 -2.27155,1.61047 -2.8125,2.125 -2.57556,2.4499 -7.05927,5.81441 -8.84375,6.625 -1.0901,0.49519 -2.3088,0.9003 -2.71875,0.90625 -1.53838,0.0223 -3.99071,-1.78976 -5.9375,-4.40625 -1.10686,-1.48765 -3.60359,-4.35365 -5.5,-6.34375 -1.89644,-1.99012 -3.74523,-4.34115 -4.125,-5.25 -1.2905,-3.08866 -0.64229,-9.71617 1.21875,-12.40625 5.34375,-7.72417 7.07488,-11.12332 8.125,-15.90625 1.34095,-6.10723 3.76638,-8.85683 8.375,-9.09375 z" />
  </g>
</svg>
