<?xml version="1.0" encoding="UTF-8" standalone="no"?>
<!-- Created with Inkscape (http://www.inkscape.org/) -->

<svg
   xmlns:dc="http://purl.org/dc/elements/1.1/"
   xmlns:cc="http://creativecommons.org/ns#"
   xmlns:rdf="http://www.w3.org/1999/02/22-rdf-syntax-ns#"
   xmlns:svg="http://www.w3.org/2000/svg"
   xmlns="http://www.w3.org/2000/svg"
   xmlns:sodipodi="http://sodipodi.sourceforge.net/DTD/sodipodi-0.dtd"
   xmlns:inkscape="http://www.inkscape.org/namespaces/inkscape"
   width="800"
   height="400"
   id="svg2"
   version="1.1"
   inkscape:version="0.48.2 r9819"
   sodipodi:docname="f6.svg">
  <defs
     id="defs4" />
  <sodipodi:namedview
     id="base"
     pagecolor="#ffffff"
     bordercolor="#666666"
     borderopacity="1.0"
     inkscape:pageopacity="0.0"
     inkscape:pageshadow="2"
     inkscape:zoom="2"
     inkscape:cx="249.15404"
     inkscape:cy="298.31862"
     inkscape:document-units="px"
     inkscape:current-layer="layer1"
     showgrid="false"
     showguides="true"
     inkscape:guide-bbox="true"
     inkscape:window-width="1366"
     inkscape:window-height="746"
     inkscape:window-x="-8"
     inkscape:window-y="-8"
     inkscape:window-maximized="1"
     width="0px"
     height="0px"
     fit-margin-top="0"
     fit-margin-left="0"
     fit-margin-right="0"
     fit-margin-bottom="0">
    <sodipodi:guide
       orientation="1,0"
       position="400.22244,349.31075"
       id="guide3178" />
    <sodipodi:guide
       orientation="0,1"
       position="-117.37973,199.40411"
       id="guide3180" />
  </sodipodi:namedview>
  <metadata
     id="metadata7">
    <rdf:RDF>
      <cc:Work
         rdf:about="">
        <dc:format>image/svg+xml</dc:format>
        <dc:type
           rdf:resource="http://purl.org/dc/dcmitype/StillImage" />
        <dc:title></dc:title>
      </cc:Work>
    </rdf:RDF>
  </metadata>
  <g
     inkscape:label="Layer 1"
     inkscape:groupmode="layer"
     id="layer1"
     transform="translate(0,-652.36218)">
    <path
       id="rect3083"
       transform="translate(0,652.36218)"
       style="fill:#ff0000"
       d="m 274.375,6.53125 c -0.9781,-0.002 -1.30905,0.28616 -2.09375,1.21875 -2.1327,2.53452 -2.4758,6.34796 -1.4375,16.375 0.8165,7.87271 0.8193,15.27186 0,21.53125 -1.3385,10.22535 -2.3578,22.59905 -2.375,28.71875 -0.021,7.53853 -0.92265,14.85467 -2.15625,17.5625 -0.4933,1.08288 -1.83545,3.26385 -3.03125,4.84375 -1.1958,1.57988 -2.21875,3.1217 -2.21875,3.4375 0,0.3158 -0.40125,1.51436 -0.90625,2.65625 -0.6601,1.49202 -0.9375,2.97637 -0.9375,5.25 0,4.02246 1.2156,6.57312 4.25,9.0625 1.1939,0.97951 3.07715,2.69725 4.15625,3.78125 2.7628,2.77547 5.6905,5.07421 7.4375,5.84375 1.8194,0.8015 2.8353,0.57851 6.4375,-1.21875 1.8113,-0.90341 3.07205,-1.86566 3.59375,-2.75 0.4428,-0.75046 1.99445,-2.23434 3.46875,-3.28125 2.6016,-1.84748 5.4199,-4.3672 7.0625,-6.34375 2.0659,-2.48592 1.62805,-7.33863 -1.71875,-18.6875 -1.0996,-3.72855 -2.19155,-7.77328 -2.40625,-9 -1.7376,-9.92802 -1.9116,-11.54246 -3,-29.40625 -0.2406,-3.94789 -0.52825,-7.80553 -0.65625,-8.53125 -0.1281,-0.72568 -0.5183,-5.17671 -0.875,-9.90625 -0.698,-9.25598 -2.5335,-19.50831 -4.25,-23.90625 -0.5443,-1.39446 -1.8585,-3.51153 -2.9375,-4.71875 -1.7694,-1.97965 -2.17135,-2.24679 -4.15625,-2.4375 -0.5106,-0.0491 -0.924,-0.09325 -1.25,-0.09375 z m 0.5,2.59375 c 2.0603,-0.10378 4.5474,2.00038 5.5,5.21875 1.7578,5.9387 3.8184,15.87871 4.1875,20.25 0.2223,2.63192 0.6256,7.32701 0.875,10.4375 0.5459,6.80851 1.5924,18.09065 2.1875,23.46875 0.2383,2.15338 0.47255,5.48541 0.53125,7.375 0.062,2.00679 -0.059,3.45297 -0.3125,3.53125 -0.2393,0.0738 -1.2304,-0.52825 -2.1875,-1.375 -2.6952,-2.38516 -4.27005,-2.873 -7.46875,-2.375 -1.4851,0.23121 -3.59985,0.78629 -4.71875,1.28125 -1.119,0.49489 -2.2518,0.80963 -2.5,0.65625 -0.7112,-0.43953 -0.0539,-11.87723 1.21875,-21.46875 1.4146,-10.65784 1.7845,-20.26606 1.125,-30.03125 C 272.2038,9.67858 272.2092,10.94292 273.0625,10 c 0.5207,-0.57534 1.1257,-0.8404 1.8125,-0.875 z m 2.90625,69.34375 c 0.9408,-0.0483 1.99565,0.03965 3.15625,0.21875 2.3321,0.35991 3.1161,0.66249 3.625,1.4375 0.3589,0.54665 1.0742,1.39598 1.5625,1.875 2.0045,1.96621 4.64365,7.21915 5.09375,10.15625 0.2436,1.58955 1.09895,5.26739 1.90625,8.1875 0.8073,2.92012 1.46875,6.11622 1.46875,7.09375 0,2.91173 -3.0503,7.8583 -6,9.75 -0.8986,0.5762 -2.0214,1.41986 -2.5,1.875 -2.2783,2.16718 -6.234,5.1267 -7.8125,5.84375 -0.9643,0.43804 -2.04365,0.80725 -2.40625,0.8125 -1.3609,0.0198 -3.5278,-1.5917 -5.25,-3.90625 -0.9791,-1.31596 -3.16625,-3.86455 -4.84375,-5.625 -1.6776,-1.76046 -3.32025,-3.82102 -3.65625,-4.625 -1.1415,-2.73222 -0.55245,-8.62035 1.09375,-11 4.7271,-6.83281 6.22725,-9.83151 7.15625,-14.0625 1.186,-5.40246 3.32945,-7.82166 7.40625,-8.03125 z" />
  </g>
</svg>
