<?xml version="1.0" encoding="UTF-8" standalone="no"?>
<!-- Created with Inkscape (http://www.inkscape.org/) -->

<svg
   xmlns:dc="http://purl.org/dc/elements/1.1/"
   xmlns:cc="http://creativecommons.org/ns#"
   xmlns:rdf="http://www.w3.org/1999/02/22-rdf-syntax-ns#"
   xmlns:svg="http://www.w3.org/2000/svg"
   xmlns="http://www.w3.org/2000/svg"
   xmlns:sodipodi="http://sodipodi.sourceforge.net/DTD/sodipodi-0.dtd"
   xmlns:inkscape="http://www.inkscape.org/namespaces/inkscape"
   width="900"
   height="800"
   id="svg2"
   version="1.1"
   inkscape:version="0.48.2 r9819"
   sodipodi:docname="m6.svg">
  <defs
     id="defs4" />
  <sodipodi:namedview
     id="base"
     pagecolor="#ffffff"
     bordercolor="#666666"
     borderopacity="1.0"
     inkscape:pageopacity="0.0"
     inkscape:pageshadow="2"
     inkscape:zoom="1.4142136"
     inkscape:cx="534.45578"
     inkscape:cy="534.52828"
     inkscape:document-units="px"
     inkscape:current-layer="layer1"
     showgrid="false"
     showguides="true"
     inkscape:guide-bbox="true"
     inkscape:window-width="1366"
     inkscape:window-height="746"
     inkscape:window-x="-8"
     inkscape:window-y="-8"
     inkscape:window-maximized="1"
     width="0px"
     height="0px"
     fit-margin-top="0"
     fit-margin-left="0"
     fit-margin-right="0"
     fit-margin-bottom="0">
    <sodipodi:guide
       orientation="1,0"
       position="450,784"
       id="guide3178" />
    <sodipodi:guide
       orientation="0,1"
       position="-61,400"
       id="guide3180" />
  </sodipodi:namedview>
  <metadata
     id="metadata7">
    <rdf:RDF>
      <cc:Work
         rdf:about="">
        <dc:format>image/svg+xml</dc:format>
        <dc:type
           rdf:resource="http://purl.org/dc/dcmitype/StillImage" />
        <dc:title></dc:title>
      </cc:Work>
    </rdf:RDF>
  </metadata>
  <g
     inkscape:label="Layer 1"
     inkscape:groupmode="layer"
     id="layer1"
     transform="translate(0,-252.36218)">
    <path
       id="rect3087"
       transform="translate(0,252.36218)"
       style="fill:#ff0000"
       d="m 311.5,233.15625 c -4.4389,0 -6.44902,0.9478 -9.65625,4.71875 -1.33468,1.56929 -2.75053,3.25456 -3.15625,3.6875 -2.7331,2.91621 -5.01208,6.84629 -6.1875,10.71875 -0.86957,2.86532 -0.8631,4.6982 0,6.34375 0.80136,1.52784 1.75863,4.00051 3.25,8.4375 0.59097,1.75811 1.46924,4.44987 1.96875,5.9375 3.33518,9.9333 3.98221,13.49271 4.875,26.53125 0.86897,12.69009 1.53309,21.32152 1.96875,25.59375 0.23448,2.29908 0.67913,6.73325 1,9.84375 0.32083,3.1105 0.64717,11.79615 0.71875,19.3125 0.1288,13.51867 0.15652,13.64654 1.28125,14.84375 2.18403,2.32481 5.46864,1.10002 7.34375,-2.78125 1.0084,-2.08715 1.65382,-4.73034 3.6875,-14.6875 0.69054,-3.38098 1.44558,-6.81354 1.6875,-7.625 0.45101,-1.51273 2.23267,-12.36745 3.96875,-24.59375 0.53771,-3.78669 1.07191,-11.07965 1.21875,-16.21875 0.27226,-9.531 1.25593,-19.30238 2.46875,-24.59375 0.37198,-1.62288 0.9248,-4.3669 1.25,-6.125 0.32521,-1.75812 1.15917,-5.30546 1.84375,-7.875 1.49487,-5.61083 1.86237,-8.93112 1.1875,-10.71875 -0.27555,-0.72991 -0.62207,-1.92534 -0.78125,-2.65625 -0.15911,-0.73093 -1.39259,-2.55945 -2.75,-4.03125 -1.3574,-1.47179 -3.30515,-3.73934 -4.3125,-5.03125 -3.02202,-3.87557 -6.64337,-7.6099 -8.0625,-8.34375 -0.77737,-0.40187 -2.78185,-0.6875 -4.8125,-0.6875 z m 0.5,0.5 c 0.95869,-0.005 2.34928,1.09862 5.6875,4.625 10.29595,10.87625 11.38422,12.27333 12,14.71875 0.86075,3.41842 0.3477,6.91943 -1.59375,10.625 -0.92112,1.75808 -2.06884,4.33508 -2.5625,5.6875 -0.49368,1.35238 -1.16833,2.7818 -1.5,3.1875 -0.63638,0.77841 -1.58531,3.36527 -2.90625,7.9375 -1.08257,3.74729 -2.69907,6.05486 -4.375,6.25 -0.7351,0.0856 -1.34375,0.31505 -1.34375,0.53125 0,0.49316 3.88033,-0.17003 4.375,-0.75 3.00484,-3.52322 3.69831,-4.96127 5,-10.375 1.30872,-5.44294 2.05776,-7.12974 2.78125,-6.40625 0.18379,0.18379 -0.19533,2.79982 -0.78125,5.84375 -2.19916,11.42445 -3.32295,21.7875 -3.78125,34.28125 -0.3156,8.60382 -2.23779,22.91276 -4.40625,33 -2.1703,10.09601 -2.61966,12.47471 -3.1875,16.375 -0.62882,4.31952 -1.58863,6.96442 -3.09375,8.59375 -1.25446,1.35801 -3.06569,1.40347 -3.75,0.125 -0.31094,-0.58098 -0.5,-5.59488 -0.5,-12.90625 0,-6.584 -0.23503,-13.71823 -0.5,-15.875 -0.26497,-2.1567 -0.85252,-8.02739 -1.28125,-13.03125 -0.42874,-5.00386 -0.9261,-10.4396 -1.15625,-12.0625 -0.23015,-1.62286 -0.44794,-4.56518 -0.46875,-6.59375 -0.11188,-10.87974 -1.48379,-21.83332 -3.3125,-26.71875 -0.90383,-2.41467 -0.86556,-5.01112 0.0625,-5.78125 1.03259,-0.85698 1.88185,-0.001 2.65625,2.59375 0.92852,3.11162 2.2988,5.46488 3.5,6.09375 0.58592,0.30677 1.29198,0.82319 1.59375,1.125 0.30181,0.30179 0.95066,0.53125 1.4375,0.53125 0.80317,0 0.81058,-0.0942 0.125,-0.875 -1.9671,-2.24044 -3.3636,-4.22834 -4.75,-6.84375 -1.66292,-3.1371 -4.55566,-7.34973 -5.875,-8.5 -1.48915,-1.29836 -4.8908,-8.53008 -5.59375,-11.875 -0.94239,-4.48445 -0.32695,-6.30656 4.34375,-13.09375 3.6414,-5.29174 10.1061,-10.42199 13.15625,-10.4375 z m 7.5625,12.5 c -0.06,-0.007 -0.0984,0.004 -0.125,0.0312 -0.11189,0.11187 0.56899,1.09114 1.53125,2.15625 2.15856,2.38927 2.65135,3.27314 3.25,5.9375 0.54633,2.43157 0.26199,3.27396 -2.15625,6.40625 -0.93966,1.21718 -2.02973,2.94087 -2.4375,3.84375 -0.43723,0.96808 -1.00834,1.55791 -1.375,1.40625 -3.35564,-1.38849 -4.35013,-1.45741 -5.6875,-0.46875 -0.73426,0.54282 -1.82926,1.88573 -2.4375,3.03125 -0.97289,1.83218 -0.99218,2.08042 -0.25,1.9375 0.46398,-0.0894 1.47928,-1.10244 2.25,-2.25 1.61405,-2.40324 3.31284,-2.77167 5.40625,-1.125 1.78905,1.40727 2.55055,1.23943 3.28125,-0.78125 0.35352,-0.97769 1.33986,-2.5792 2.21875,-3.5625 0.87895,-0.98328 1.84674,-2.28418 2.15625,-2.875 0.67908,-1.29631 0.73845,-6.99196 0.0937,-8.6875 -0.41369,-1.08802 -4.81908,-4.87874 -5.71875,-5 z m -16.65625,0.78125 c -1.15422,0 -3.21301,4.60993 -3.21875,7.1875 -0.005,2.23813 1.65773,6.10588 4.5,10.5 0.96226,1.48763 2.09403,3.32645 2.5625,4.09375 1.26539,2.07248 1.51585,1.23817 0.34375,-1.1875 -0.55989,-1.15885 -1,-2.31062 -1,-2.5625 0,-0.25193 -0.83488,-1.84174 -1.84375,-3.5 -2.62906,-4.32122 -3.59375,-6.28179 -3.59375,-7.40625 0,-1.33428 1.47323,-5.25021 2.375,-6.3125 0.65263,-0.76863 0.62213,-0.8125 -0.125,-0.8125 z" />
  </g>
</svg>
