<?xml version="1.0" encoding="UTF-8" standalone="no"?>
<!-- Created with Inkscape (http://www.inkscape.org/) -->

<svg
   xmlns:dc="http://purl.org/dc/elements/1.1/"
   xmlns:cc="http://creativecommons.org/ns#"
   xmlns:rdf="http://www.w3.org/1999/02/22-rdf-syntax-ns#"
   xmlns:svg="http://www.w3.org/2000/svg"
   xmlns="http://www.w3.org/2000/svg"
   xmlns:sodipodi="http://sodipodi.sourceforge.net/DTD/sodipodi-0.dtd"
   xmlns:inkscape="http://www.inkscape.org/namespaces/inkscape"
   width="800"
   height="700"
   id="svg2"
   version="1.1"
   inkscape:version="0.48.2 r9819"
   sodipodi:docname="m6.svg">
  <defs
     id="defs4" />
  <sodipodi:namedview
     id="base"
     pagecolor="#ffffff"
     bordercolor="#666666"
     borderopacity="1.0"
     inkscape:pageopacity="0.0"
     inkscape:pageshadow="2"
     inkscape:zoom="2.5"
     inkscape:cx="360.94843"
     inkscape:cy="440.33902"
     inkscape:document-units="px"
     inkscape:current-layer="layer1"
     showgrid="false"
     showguides="true"
     inkscape:guide-bbox="true"
     inkscape:window-width="1366"
     inkscape:window-height="746"
     inkscape:window-x="-8"
     inkscape:window-y="-8"
     inkscape:window-maximized="1"
     width="0px"
     height="0px"
     fit-margin-top="0"
     fit-margin-left="0"
     fit-margin-right="0"
     fit-margin-bottom="0">
    <sodipodi:guide
       orientation="1,0"
       position="400.22244,349.31075"
       id="guide3178" />
    <sodipodi:guide
       orientation="0,1"
       position="400.22244,349.31075"
       id="guide3180" />
  </sodipodi:namedview>
  <metadata
     id="metadata7">
    <rdf:RDF>
      <cc:Work
         rdf:about="">
        <dc:format>image/svg+xml</dc:format>
        <dc:type
           rdf:resource="http://purl.org/dc/dcmitype/StillImage" />
        <dc:title></dc:title>
      </cc:Work>
    </rdf:RDF>
  </metadata>
  <g
     inkscape:label="Layer 1"
     inkscape:groupmode="layer"
     id="layer1"
     transform="translate(0,-352.36218)">
    <path
       id="rect3082"
       transform="translate(0,352.36218)"
       style="fill:#ff0000"
       d="m 276.5,206.21875 c -3.92665,0 -5.69413,0.85172 -8.53125,4.1875 -1.18066,1.3882 -2.42236,2.83576 -2.78125,3.21875 -2.4177,2.57968 -4.42897,6.07442 -5.46875,9.5 -0.76923,2.53467 -0.76351,4.16936 0,5.625 0.70888,1.35154 1.52448,3.54379 2.84375,7.46875 0.52277,1.55522 1.30813,3.93405 1.75,5.25 2.9503,8.78701 3.52273,11.93485 4.3125,23.46875 0.76868,11.22568 1.36462,18.84578 1.75,22.625 0.20743,2.03377 0.6224,5.9672 0.90625,8.71875 0.28381,2.75155 0.56167,10.41354 0.625,17.0625 0.11394,11.95864 0.13005,12.0972 1.125,13.15625 1.93199,2.05654 4.84127,0.96462 6.5,-2.46875 0.89203,-1.8463 1.48225,-4.19188 3.28125,-13 0.61085,-2.9908 1.25474,-6.00094 1.46875,-6.71875 0.39895,-1.33816 1.96426,-10.93461 3.5,-21.75 0.47566,-3.3497 0.96385,-9.82896 1.09375,-14.375 0.24084,-8.43114 1.11464,-17.06925 2.1875,-21.75 0.32905,-1.4356 0.80607,-3.88228 1.09375,-5.4375 0.28768,-1.55524 1.01942,-4.66448 1.625,-6.9375 1.32236,-4.96335 1.65949,-7.91866 1.0625,-9.5 -0.24375,-0.64568 -0.57794,-1.69719 -0.71875,-2.34375 -0.14075,-0.64658 -1.20548,-2.26055 -2.40625,-3.5625 -1.20075,-1.30194 -2.9214,-3.29468 -3.8125,-4.4375 -2.67328,-3.42833 -5.86964,-6.75709 -7.125,-7.40625 -0.68767,-0.35549 -2.48493,-0.59375 -4.28125,-0.59375 z m 0.46875,0.4375 c 0.84805,-0.005 2.04701,0.97433 5,4.09375 9.10782,9.62116 10.11153,10.86802 10.65625,13.03125 0.76142,3.02393 0.27991,6.09704 -1.4375,9.375 -0.81482,1.55519 -1.81331,3.8349 -2.25,5.03125 -0.43671,1.19632 -1.05036,2.45361 -1.34375,2.8125 -0.56295,0.68859 -1.394,2.98664 -2.5625,7.03125 -0.95765,3.31485 -2.39247,5.35863 -3.875,5.53125 -0.65028,0.0758 -1.1875,0.27751 -1.1875,0.46875 0,0.43625 3.43742,-0.1432 3.875,-0.65625 2.65808,-3.11664 3.25478,-4.39851 4.40625,-9.1875 1.1577,-4.81483 1.82875,-6.29624 2.46875,-5.65625 0.16258,0.16259 -0.16919,2.49483 -0.6875,5.1875 -1.94538,10.10608 -2.93834,19.26052 -3.34375,30.3125 -0.27919,7.61095 -1.95678,20.2643 -3.875,29.1875 -1.91985,8.93094 -2.34144,11.01854 -2.84375,14.46875 -0.55625,3.82106 -1.38732,6.15245 -2.71875,7.59375 -1.10969,1.20131 -2.7384,1.25594 -3.34375,0.125 -0.27506,-0.51392 -0.4375,-4.93861 -0.4375,-11.40625 0,-5.82422 -0.20311,-12.15463 -0.4375,-14.0625 -0.2344,-1.90781 -0.74575,-7.07358 -1.125,-11.5 -0.37926,-4.42643 -0.82766,-9.25188 -1.03125,-10.6875 -0.20359,-1.43558 -0.41909,-4.04927 -0.4375,-5.84375 -0.099,-9.62422 -1.28858,-19.30334 -2.90625,-23.625 -0.79953,-2.13602 -0.75855,-4.44373 0.0625,-5.125 0.91343,-0.75807 1.65871,0.0161 2.34375,2.3125 0.82137,2.75254 2.03116,4.8187 3.09375,5.375 0.5183,0.27137 1.13931,0.73301 1.40625,1 0.26698,0.26696 0.85059,0.46875 1.28125,0.46875 0.71048,0 0.70023,-0.0594 0.0937,-0.75 -1.74011,-1.98189 -2.96109,-3.7489 -4.1875,-6.0625 -1.47102,-2.77508 -4.05166,-6.51371 -5.21875,-7.53125 -1.31731,-1.14853 -4.31567,-7.54109 -4.9375,-10.5 -0.83363,-3.96694 -0.28796,-5.55852 3.84375,-11.5625 3.22119,-4.68106 8.95808,-9.23627 11.65625,-9.25 z m 6.6875,11.03125 c -0.0531,-0.007 -0.1015,0.0388 -0.125,0.0625 -0.099,0.099 0.52379,0.93281 1.375,1.875 1.90947,2.11356 2.31418,2.92434 2.84375,5.28125 0.48328,2.15096 0.23293,2.88542 -1.90625,5.65625 -0.83122,1.07672 -1.79554,2.60756 -2.15625,3.40625 -0.38678,0.85636 -0.8944,1.3529 -1.21875,1.21875 -2.9684,-1.22826 -3.81697,-1.28082 -5,-0.40625 -0.64954,0.48019 -1.61819,1.70542 -2.15625,2.71875 -0.86062,1.62075 -0.87529,1.81394 -0.21875,1.6875 0.41043,-0.0791 1.28697,-0.98487 1.96875,-2 1.42779,-2.12591 2.92942,-2.4254 4.78125,-0.96875 1.5826,1.24486 2.25988,1.10001 2.90625,-0.6875 0.31273,-0.86484 1.19127,-2.28641 1.96875,-3.15625 0.77751,-0.86981 1.63246,-2.00861 1.90625,-2.53125 0.60072,-1.14672 0.66408,-6.18762 0.0937,-7.6875 -0.36595,-0.96246 -4.26665,-4.36148 -5.0625,-4.46875 z m -14.71875,0.71875 c -1.02101,0 -2.86993,4.06362 -2.875,6.34375 -0.005,1.97984 1.45446,5.42545 3.96875,9.3125 0.85121,1.31595 1.86684,2.94624 2.28125,3.625 1.11935,1.83333 1.31809,1.08325 0.28125,-1.0625 -0.49528,-1.02511 -0.875,-2.05844 -0.875,-2.28125 0,-0.22285 -0.73256,-1.62685 -1.625,-3.09375 -2.32569,-3.82256 -3.15625,-5.53655 -3.15625,-6.53125 0,-1.18031 1.29606,-4.65404 2.09375,-5.59375 0.57733,-0.67992 0.5671,-0.71875 -0.0937,-0.71875 z" />
  </g>
</svg>
