<?xml version="1.0" encoding="UTF-8" standalone="no"?>
<!-- Created with Inkscape (http://www.inkscape.org/) -->

<svg
   xmlns:dc="http://purl.org/dc/elements/1.1/"
   xmlns:cc="http://creativecommons.org/ns#"
   xmlns:rdf="http://www.w3.org/1999/02/22-rdf-syntax-ns#"
   xmlns:svg="http://www.w3.org/2000/svg"
   xmlns="http://www.w3.org/2000/svg"
   xmlns:sodipodi="http://sodipodi.sourceforge.net/DTD/sodipodi-0.dtd"
   xmlns:inkscape="http://www.inkscape.org/namespaces/inkscape"
   width="800"
   height="400"
   id="svg2"
   version="1.1"
   inkscape:version="0.48.2 r9819"
   sodipodi:docname="m6.svg">
  <defs
     id="defs4" />
  <sodipodi:namedview
     id="base"
     pagecolor="#ffffff"
     bordercolor="#666666"
     borderopacity="1.0"
     inkscape:pageopacity="0.0"
     inkscape:pageshadow="2"
     inkscape:zoom="2"
     inkscape:cx="249.15404"
     inkscape:cy="285.00026"
     inkscape:document-units="px"
     inkscape:current-layer="layer1"
     showgrid="false"
     showguides="true"
     inkscape:guide-bbox="true"
     inkscape:window-width="1366"
     inkscape:window-height="746"
     inkscape:window-x="-8"
     inkscape:window-y="-8"
     inkscape:window-maximized="1"
     width="0px"
     height="0px"
     fit-margin-top="0"
     fit-margin-left="0"
     fit-margin-right="0"
     fit-margin-bottom="0">
    <sodipodi:guide
       orientation="1,0"
       position="400.22244,349.31075"
       id="guide3178" />
    <sodipodi:guide
       orientation="0,1"
       position="-117.37973,199.40411"
       id="guide3180" />
  </sodipodi:namedview>
  <metadata
     id="metadata7">
    <rdf:RDF>
      <cc:Work
         rdf:about="">
        <dc:format>image/svg+xml</dc:format>
        <dc:type
           rdf:resource="http://purl.org/dc/dcmitype/StillImage" />
        <dc:title></dc:title>
      </cc:Work>
    </rdf:RDF>
  </metadata>
  <g
     inkscape:label="Layer 1"
     inkscape:groupmode="layer"
     id="layer1"
     transform="translate(0,-652.36218)">
    <path
       id="rect3105"
       transform="translate(0,652.36218)"
       style="fill:#ff0000"
       d="m 286.1875,131.46875 c -3.4503,0.0257 -6.0398,1.17459 -8.25,3.5625 -1.1296,1.22054 -3.41205,3.71866 -5.09375,5.53125 -1.6817,1.8126 -3.0625,3.46146 -3.0625,3.65625 0,0.1948 -0.26075,0.54684 -0.59375,0.8125 -0.8778,0.7003 -3.3125,8.07373 -3.3125,10.03125 0,3.08058 2.0639,5.95689 7.75,10.8125 1.5142,1.29303 3.63615,3.35619 4.71875,4.59375 1.0825,1.23753 2.6898,2.63271 3.5625,3.09375 3.0904,1.63276 8.1689,0.55461 9.875,-2.09375 0.4114,-0.63862 1.0056,-1.28545 1.3125,-1.46875 0.7803,-0.46607 3.0238,-3.88927 4.5625,-6.9375 0.7127,-1.41175 1.99765,-3.61481 2.84375,-4.9375 l 1.53125,-2.4375 -0.1875,-5.0625 c -0.1943,-5.39732 -0.9937,-9.85843 -2.1875,-12.15625 -0.3983,-0.76675 -1.67975,-2.33605 -2.84375,-3.5 -1.8709,-1.87093 -2.473,-2.2375 -5.3125,-2.875 -1.9767,-0.44369 -3.7442,-0.63662 -5.3125,-0.625 z m -0.40625,1.28125 c 1.2584,-0.0635 2.4499,0.33607 4.625,1.3125 3.4444,1.54622 5.9253,3.65278 7.375,6.25 1.4706,2.6348 2.94405,8.05229 3.03125,11.1875 0.075,2.7137 0.0187,2.92958 -2.3125,6.46875 -1.3215,2.00634 -2.81415,4.51704 -3.28125,5.59375 -1.6864,3.88729 -3.84695,6.33136 -7.03125,7.96875 -0.7658,0.39375 -1.92385,0.7233 -2.59375,0.71875 -1.4278,-0.0101 -5.10015,-2.13917 -6.65625,-3.875 -0.5982,-0.66719 -2.90565,-2.8145 -5.09375,-4.75 -2.5413,-2.2479 -4.32135,-4.19807 -4.90625,-5.40625 -1.2535,-2.58945 -1.1699,-5.61559 0.1875,-8.375 0.5885,-1.1963 1.08665,-2.31353 1.09375,-2.5 0.023,-0.57402 3.49085,-4.81292 4.78125,-5.84375 0.6706,-0.53574 1.6675,-1.79299 2.1875,-2.8125 1.2182,-2.3888 3.57925,-4.50825 6.03125,-5.34375 1.0314,-0.35148 1.8075,-0.55573 2.5625,-0.59375 z m -0.1875,12.15625 c -0.2704,0.024 -0.80545,0.19402 -1.78125,0.5625 -0.9021,0.34067 -2.59345,0.77726 -3.78125,0.9375 -1.1878,0.16025 -2.54425,0.55165 -3.03125,0.90625 -0.8158,0.59393 -0.7537,0.61553 1.25,0.40625 3.7628,-0.39296 5.4177,-0.74865 5.9375,-1.375 0.277,-0.33373 0.76415,-0.625 1.09375,-0.625 0.3296,0 0.59375,-0.19824 0.59375,-0.4375 0,-0.28103 -0.0109,-0.39921 -0.28125,-0.375 z m 7.28125,2.25 c -0.3567,0.0146 -0.7879,0.0614 -1.3125,0.125 -3.7716,0.4588 -9.00565,2.65058 -8.21875,3.4375 0.3117,0.31167 4.6548,-0.96905 5.5,-1.625 0.3003,-0.23319 1.54155,-0.33804 2.78125,-0.21875 2.761,0.26529 3.8125,1.38232 3.8125,3.9375 0,1.44219 -0.25105,2.01138 -1.53125,3.21875 -1.7912,1.68932 -3.45145,2.21333 -4.59375,1.5 -1.4106,-0.88184 -1.64855,-0.58623 -1.40625,1.78125 0.1286,1.25615 0.283,2.54464 0.375,2.84375 0.2293,0.74596 1.04205,0.69249 1.34375,-0.0937 0.3937,-1.02609 3.29865,-3.91849 4.59375,-4.5625 1.3872,-0.68984 3.40625,-3.53109 3.40625,-4.8125 0,-1.50185 -1.11515,-3.73447 -2.40625,-4.75 -0.7979,-0.62762 -1.27385,-0.8249 -2.34375,-0.78125 z m -13.78125,2.9375 c -4.1727,-0.0125 -6.9336,1.24668 -8.125,3.78125 -1.1432,2.43199 -0.7416,3.30791 2.5625,5.8125 1.3785,1.04493 3.4081,2.73862 4.5,3.75 2.2781,2.11005 2.00695,1.98795 3.09375,1.40625 0.6725,-0.35989 0.84375,-0.90409 0.84375,-2.78125 0,-1.29198 0.17285,-2.85503 0.40625,-3.46875 0.2356,-0.61946 0.24505,-1.125 0.0312,-1.125 -0.6607,0 -2.625,2.65131 -2.625,3.53125 0,1.05778 -0.1665,1.02033 -2.8125,-0.28125 -1.1963,-0.58848 -2.3858,-1.0897 -2.625,-1.09375 -0.5967,-0.01 -1.96875,-2.45607 -1.96875,-3.53125 0,-1.3125 1.66055,-3.33705 3.21875,-3.96875 0.7577,-0.30714 2.43795,-0.6085 3.71875,-0.65625 4.1133,-0.15318 3.91835,-1.36127 -0.21875,-1.375 z" />
  </g>
</svg>
