<?xml version="1.0" encoding="UTF-8" standalone="no"?>
<!-- Created with Inkscape (http://www.inkscape.org/) -->

<svg
   xmlns:dc="http://purl.org/dc/elements/1.1/"
   xmlns:cc="http://creativecommons.org/ns#"
   xmlns:rdf="http://www.w3.org/1999/02/22-rdf-syntax-ns#"
   xmlns:svg="http://www.w3.org/2000/svg"
   xmlns="http://www.w3.org/2000/svg"
   xmlns:sodipodi="http://sodipodi.sourceforge.net/DTD/sodipodi-0.dtd"
   xmlns:inkscape="http://www.inkscape.org/namespaces/inkscape"
   width="900"
   height="800"
   id="svg2"
   version="1.1"
   inkscape:version="0.48.2 r9819"
   sodipodi:docname="f6.svg">
  <defs
     id="defs4" />
  <sodipodi:namedview
     id="base"
     pagecolor="#ffffff"
     bordercolor="#666666"
     borderopacity="1.0"
     inkscape:pageopacity="0.0"
     inkscape:pageshadow="2"
     inkscape:zoom="1.4142136"
     inkscape:cx="534.45578"
     inkscape:cy="562.81255"
     inkscape:document-units="px"
     inkscape:current-layer="layer1"
     showgrid="false"
     showguides="true"
     inkscape:guide-bbox="true"
     inkscape:window-width="1366"
     inkscape:window-height="746"
     inkscape:window-x="-8"
     inkscape:window-y="-8"
     inkscape:window-maximized="1"
     width="0px"
     height="0px"
     fit-margin-top="0"
     fit-margin-left="0"
     fit-margin-right="0"
     fit-margin-bottom="0">
    <sodipodi:guide
       orientation="1,0"
       position="450,784"
       id="guide3178" />
    <sodipodi:guide
       orientation="0,1"
       position="-61,400"
       id="guide3180" />
  </sodipodi:namedview>
  <metadata
     id="metadata7">
    <rdf:RDF>
      <cc:Work
         rdf:about="">
        <dc:format>image/svg+xml</dc:format>
        <dc:type
           rdf:resource="http://purl.org/dc/dcmitype/StillImage" />
        <dc:title></dc:title>
      </cc:Work>
    </rdf:RDF>
  </metadata>
  <g
     inkscape:label="Layer 1"
     inkscape:groupmode="layer"
     id="layer1"
     transform="translate(0,-252.36218)">
    <path
       id="rect3083"
       transform="translate(0,252.36218)"
       style="fill:#ff0000"
       d="m 320.6875,158 c -3.90039,0.029 -6.84526,1.33183 -9.34375,4.03125 -1.27702,1.37977 -3.81763,4.20095 -5.71875,6.25 -1.90107,2.04908 -3.5,3.9048 -3.5,4.125 0,0.22021 -0.31109,0.63719 -0.6875,0.9375 -0.99231,0.79166 -3.71875,9.13087 -3.71875,11.34375 0,3.48244 2.32216,6.69846 8.75,12.1875 1.71168,1.4617 4.11995,3.81975 5.34375,5.21875 1.22377,1.39897 3.04474,3.01006 4.03125,3.53125 3.49354,1.84576 9.22763,0.61887 11.15625,-2.375 0.46507,-0.72192 1.12183,-1.48028 1.46875,-1.6875 0.88211,-0.52687 3.44801,-4.39788 5.1875,-7.84375 0.8056,-1.59592 2.23096,-4.0985 3.1875,-5.59375 l 1.75,-2.71875 -0.21875,-5.75 c -0.21964,-6.10143 -1.11932,-11.15242 -2.46875,-13.75 -0.45026,-0.86676 -1.90295,-2.62171 -3.21875,-3.9375 -2.11501,-2.11501 -2.79007,-2.52935 -6,-3.25 -2.23436,-0.50157 -4.22708,-0.73189 -6,-0.71875 z m -0.46875,1.4375 c 1.42248,-0.0718 2.79115,0.42744 5.25,1.53125 3.89367,1.74793 6.6737,4.0952 8.3125,7.03125 1.6625,2.97852 3.33893,9.11205 3.4375,12.65625 0.0852,3.06771 0.0103,3.28039 -2.625,7.28125 -1.49393,2.26808 -3.19069,5.15784 -3.71875,6.375 -1.90646,4.39441 -4.33778,7.14901 -7.9375,9 -0.86564,0.44511 -2.18025,0.78639 -2.9375,0.78125 -1.61406,-0.0115 -5.77206,-2.41273 -7.53125,-4.375 -0.67619,-0.75423 -3.27641,-3.15575 -5.75,-5.34375 -2.87285,-2.54114 -4.87007,-4.75921 -5.53125,-6.125 -1.41705,-2.92726 -1.34697,-6.31812 0.1875,-9.4375 0.66528,-1.35238 1.24196,-2.63295 1.25,-2.84375 0.0261,-0.6489 3.94754,-5.45967 5.40625,-6.625 0.75804,-0.60562 1.88098,-2.035 2.46875,-3.1875 1.37717,-2.70042 4.04057,-5.08675 6.8125,-6.03125 1.16621,-0.39733 2.05276,-0.64451 2.90625,-0.6875 z M 320,173.1875 c -0.30571,0.0272 -0.8969,0.23969 -2,0.65625 -1.01978,0.3851 -2.93851,0.85011 -4.28125,1.03125 -1.34275,0.18115 -2.8869,0.66164 -3.4375,1.0625 -0.92222,0.67141 -0.82758,0.70533 1.4375,0.46875 4.25369,-0.44423 6.13108,-0.88568 6.71875,-1.59375 0.31306,-0.37726 0.84616,-0.6875 1.21875,-0.6875 0.37259,0 0.6875,-0.22954 0.6875,-0.5 0,-0.3177 -0.0381,-0.46488 -0.34375,-0.4375 z m 8.21875,2.5625 c -0.40317,0.0165 -0.87575,0.053 -1.46875,0.125 -4.26357,0.51864 -10.17083,3.01666 -9.28125,3.90625 0.35235,0.35231 5.23205,-1.10222 6.1875,-1.84375 0.3395,-0.26361 1.78608,-0.38484 3.1875,-0.25 3.12116,0.29991 4.28125,1.54898 4.28125,4.4375 0,1.63031 -0.27155,2.26012 -1.71875,3.625 -2.02488,1.9097 -3.89623,2.55639 -5.1875,1.75 -1.5947,-0.99688 -1.86768,-0.67632 -1.59375,2 0.14535,1.42002 0.33343,2.84937 0.4375,3.1875 0.25916,0.84329 1.1589,0.79509 1.5,-0.0937 0.4451,-1.15993 3.75476,-4.42823 5.21875,-5.15625 1.5682,-0.77984 3.84375,-3.98893 3.84375,-5.4375 0,-1.69778 -1.29054,-4.19574 -2.75,-5.34375 -0.90205,-0.7095 -1.44672,-0.9556 -2.65625,-0.90625 z m -15.5625,3.3125 c -4.71708,-0.0141 -7.80943,1.41604 -9.15625,4.28125 -1.29231,2.74926 -0.86019,3.76244 2.875,6.59375 1.55831,1.18125 3.85944,3.07545 5.09375,4.21875 2.57533,2.38531 2.24021,2.25134 3.46875,1.59375 0.76019,-0.40683 0.96875,-1.03419 0.96875,-3.15625 0,-1.46051 0.20498,-3.24371 0.46875,-3.9375 0.26641,-0.70026 0.27332,-1.25 0.0312,-1.25 -0.74686,0 -2.96875,3.00527 -2.96875,4 0,1.19577 -0.19641,1.12762 -3.1875,-0.34375 -1.35238,-0.66526 -2.66705,-1.21416 -2.9375,-1.21875 -0.67445,-0.0103 -2.25,-2.78455 -2.25,-4 0,-1.48371 1.86354,-3.7859 3.625,-4.5 0.85653,-0.34722 2.77092,-0.66477 4.21875,-0.71875 4.65022,-0.17315 4.42687,-1.54698 -0.25,-1.5625 z" />
  </g>
</svg>
