<?xml version="1.0" encoding="UTF-8" standalone="no"?>
<!-- Created with Inkscape (http://www.inkscape.org/) -->

<svg
   xmlns:dc="http://purl.org/dc/elements/1.1/"
   xmlns:cc="http://creativecommons.org/ns#"
   xmlns:rdf="http://www.w3.org/1999/02/22-rdf-syntax-ns#"
   xmlns:svg="http://www.w3.org/2000/svg"
   xmlns="http://www.w3.org/2000/svg"
   xmlns:sodipodi="http://sodipodi.sourceforge.net/DTD/sodipodi-0.dtd"
   xmlns:inkscape="http://www.inkscape.org/namespaces/inkscape"
   width="800"
   height="700"
   id="svg2"
   version="1.1"
   inkscape:version="0.48.2 r9819"
   sodipodi:docname="f30.svg">
  <defs
     id="defs4" />
  <sodipodi:namedview
     id="base"
     pagecolor="#ffffff"
     bordercolor="#666666"
     borderopacity="1.0"
     inkscape:pageopacity="0.0"
     inkscape:pageshadow="2"
     inkscape:zoom="2.5"
     inkscape:cx="767.23831"
     inkscape:cy="227.28513"
     inkscape:document-units="px"
     inkscape:current-layer="layer1"
     showgrid="false"
     showguides="true"
     inkscape:guide-bbox="true"
     inkscape:window-width="1366"
     inkscape:window-height="746"
     inkscape:window-x="-8"
     inkscape:window-y="-8"
     inkscape:window-maximized="1"
     width="0px"
     height="0px"
     fit-margin-top="0"
     fit-margin-left="0"
     fit-margin-right="0"
     fit-margin-bottom="0">
    <sodipodi:guide
       orientation="1,0"
       position="400.22244,349.31075"
       id="guide3178" />
    <sodipodi:guide
       orientation="0,1"
       position="400.22244,349.31075"
       id="guide3180" />
  </sodipodi:namedview>
  <metadata
     id="metadata7">
    <rdf:RDF>
      <cc:Work
         rdf:about="">
        <dc:format>image/svg+xml</dc:format>
        <dc:type
           rdf:resource="http://purl.org/dc/dcmitype/StillImage" />
        <dc:title></dc:title>
      </cc:Work>
    </rdf:RDF>
  </metadata>
  <g
     inkscape:label="Layer 1"
     inkscape:groupmode="layer"
     id="layer1"
     transform="translate(0,-352.36218)">
    <path
       style="fill:#ff0000"
       d="m 663.53125,829.17468 c 0.37825,-0.006 0.79149,-0.0119 1.1875,0 1.90088,0.0574 4.0133,0.32872 6.40625,0.78125 9.31158,1.76087 10.75677,2.23731 11.625,3.9375 1.41223,2.76546 0.88461,11.31299 -0.90625,14.59375 -0.2445,0.44773 -0.90031,1.73606 -1.4375,2.875 -1.75476,3.72066 -3.87411,4.6362 -6.46875,2.78125 -0.83743,-0.59894 -2.70941,-1.72019 -4.1875,-2.5 l -2.71875,-1.4375 0.65625,-1.1875 c 0.93974,-1.81745 0.81269,-1.8157 -1.78125,-0.15625 -1.32063,0.84465 -2.70285,1.5 -3.03125,1.5 -0.55598,0 -5.08429,3.77556 -5.40625,4.5 -0.0797,0.17937 -1.07947,0.3125 -2.21875,0.3125 -1.46763,0 -2.26201,-0.23865 -2.78125,-0.8125 -0.40306,-0.44529 -1.5527,-1.14851 -2.5625,-1.5625 -3.80409,-1.56015 -4.80223,-2.1825 -6.03125,-3.96875 -1.97244,-2.86688 -1.72075,-5.72244 1.15625,-13.28125 1.34645,-3.53735 2.26778,-4.12174 6.25,-4 2.23485,0.0684 3.41878,-0.16092 5.34375,-1 2.05897,-0.89773 4.25855,-1.33566 6.90625,-1.375 z"
       id="path3049" />
    <path
       style="fill:#ff0000"
       d="m 684.71875,837.58093 c 0.0269,0.0267 0.0335,0.0996 0.0625,0.1875 0.19765,0.59823 0.77532,2.06243 1.28125,3.21875 1.62058,3.70399 0.84533,8.05086 -1.6875,9.40625 -1.53917,0.82373 -1.59968,0.53558 -0.59375,-2.25 0.47231,-1.30805 0.66134,-3.36838 0.65625,-6.65625 -0.005,-2.3206 0.0549,-3.65913 0.1875,-3.875 0.0222,-0.036 0.0669,-0.058 0.0937,-0.0312 z"
       id="rect3372" />
  </g>
</svg>
