<?xml version="1.0" encoding="UTF-8" standalone="no"?>
<!-- Created with Inkscape (http://www.inkscape.org/) -->

<svg
   xmlns:dc="http://purl.org/dc/elements/1.1/"
   xmlns:cc="http://creativecommons.org/ns#"
   xmlns:rdf="http://www.w3.org/1999/02/22-rdf-syntax-ns#"
   xmlns:svg="http://www.w3.org/2000/svg"
   xmlns="http://www.w3.org/2000/svg"
   xmlns:sodipodi="http://sodipodi.sourceforge.net/DTD/sodipodi-0.dtd"
   xmlns:inkscape="http://www.inkscape.org/namespaces/inkscape"
   width="800"
   height="700"
   id="svg2"
   version="1.1"
   inkscape:version="0.48.2 r9819"
   sodipodi:docname="f30-fill.svg">
  <defs
     id="defs4" />
  <sodipodi:namedview
     id="base"
     pagecolor="#ffffff"
     bordercolor="#666666"
     borderopacity="1.0"
     inkscape:pageopacity="0.0"
     inkscape:pageshadow="2"
     inkscape:zoom="2.5"
     inkscape:cx="767.23831"
     inkscape:cy="227.28513"
     inkscape:document-units="px"
     inkscape:current-layer="layer1"
     showgrid="false"
     showguides="true"
     inkscape:guide-bbox="true"
     inkscape:window-width="1024"
     inkscape:window-height="538"
     inkscape:window-x="-8"
     inkscape:window-y="-8"
     inkscape:window-maximized="1"
     width="0px"
     height="0px"
     fit-margin-top="0"
     fit-margin-left="0"
     fit-margin-right="0"
     fit-margin-bottom="0">
    <sodipodi:guide
       orientation="1,0"
       position="400.22244,349.31075"
       id="guide3178" />
    <sodipodi:guide
       orientation="0,1"
       position="400.22244,349.31075"
       id="guide3180" />
  </sodipodi:namedview>
  <metadata
     id="metadata7">
    <rdf:RDF>
      <cc:Work
         rdf:about="">
        <dc:format>image/svg+xml</dc:format>
        <dc:type
           rdf:resource="http://purl.org/dc/dcmitype/StillImage" />
        <dc:title />
      </cc:Work>
    </rdf:RDF>
  </metadata>
  <g
     inkscape:label="Layer 1"
     inkscape:groupmode="layer"
     id="layer1"
     transform="translate(0,-352.36218)">
    <path
       id="rect4626"
       transform="translate(0,352.36218)"
       style="fill:#00ff00"
       d="m 663.53125,476.8125 c -2.6477,0.0393 -4.84728,0.47727 -6.90625,1.375 -1.92497,0.83908 -3.1089,1.0684 -5.34375,1 -3.98222,-0.12174 -4.90355,0.46265 -6.25,4 -2.877,7.55881 -3.12869,10.41437 -1.15625,13.28125 1.22902,1.78625 2.22716,2.4086 6.03125,3.96875 1.0098,0.41399 2.15944,1.11721 2.5625,1.5625 0.51924,0.57385 1.31362,0.8125 2.78125,0.8125 1.13928,0 2.13905,-0.13313 2.21875,-0.3125 0.32196,-0.72444 4.85027,-4.5 5.40625,-4.5 0.3284,0 1.71062,-0.65535 3.03125,-1.5 2.59394,-1.65945 2.72099,-1.6612 1.78125,0.15625 l -0.65625,1.1875 2.71875,1.4375 c 1.47809,0.77981 3.35007,1.90106 4.1875,2.5 2.59464,1.85495 4.71399,0.93941 6.46875,-2.78125 0.53719,-1.13894 1.193,-2.42727 1.4375,-2.875 1.79086,-3.28076 2.31848,-11.82829 0.90625,-14.59375 -0.86823,-1.70019 -2.31342,-2.17663 -11.625,-3.9375 -2.39295,-0.45253 -4.50537,-0.72385 -6.40625,-0.78125 -0.39601,-0.0119 -0.80925,-0.006 -1.1875,0 z m 21.125,8.40625 c -0.0173,0.007 -0.0201,0.0133 -0.0312,0.0312 -0.1326,0.21587 -0.1925,1.5544 -0.1875,3.875 0.005,3.28787 -0.18394,5.3482 -0.65625,6.65625 -1.00593,2.78558 -0.94542,3.07373 0.59375,2.25 2.53283,-1.35539 3.30808,-5.70226 1.6875,-9.40625 -0.50593,-1.15632 -1.0836,-2.62052 -1.28125,-3.21875 -0.029,-0.0879 -0.0356,-0.1608 -0.0625,-0.1875 -0.0134,-0.0134 -0.0452,-0.007 -0.0625,0 z" />
  </g>
</svg>
