<?xml version="1.0" encoding="UTF-8" standalone="no"?>
<!-- Created with Inkscape (http://www.inkscape.org/) -->

<svg
   xmlns:dc="http://purl.org/dc/elements/1.1/"
   xmlns:cc="http://creativecommons.org/ns#"
   xmlns:rdf="http://www.w3.org/1999/02/22-rdf-syntax-ns#"
   xmlns:svg="http://www.w3.org/2000/svg"
   xmlns="http://www.w3.org/2000/svg"
   xmlns:sodipodi="http://sodipodi.sourceforge.net/DTD/sodipodi-0.dtd"
   xmlns:inkscape="http://www.inkscape.org/namespaces/inkscape"
   width="800"
   height="700"
   id="svg2"
   version="1.1"
   inkscape:version="0.48.2 r9819"
   sodipodi:docname="f11-fill.svg">
  <defs
     id="defs4" />
  <sodipodi:namedview
     id="base"
     pagecolor="#ffffff"
     bordercolor="#666666"
     borderopacity="1.0"
     inkscape:pageopacity="0.0"
     inkscape:pageshadow="2"
     inkscape:zoom="5"
     inkscape:cx="557.65632"
     inkscape:cy="580.66826"
     inkscape:document-units="px"
     inkscape:current-layer="layer1"
     showgrid="false"
     showguides="true"
     inkscape:guide-bbox="true"
     inkscape:window-width="1024"
     inkscape:window-height="538"
     inkscape:window-x="-8"
     inkscape:window-y="-8"
     inkscape:window-maximized="1"
     width="0px"
     height="0px"
     fit-margin-top="0"
     fit-margin-left="0"
     fit-margin-right="0"
     fit-margin-bottom="0">
    <sodipodi:guide
       orientation="1,0"
       position="400.22244,349.31075"
       id="guide3178" />
    <sodipodi:guide
       orientation="0,1"
       position="400.22244,349.31075"
       id="guide3180" />
  </sodipodi:namedview>
  <metadata
     id="metadata7">
    <rdf:RDF>
      <cc:Work
         rdf:about="">
        <dc:format>image/svg+xml</dc:format>
        <dc:type
           rdf:resource="http://purl.org/dc/dcmitype/StillImage" />
        <dc:title />
      </cc:Work>
    </rdf:RDF>
  </metadata>
  <g
     inkscape:label="Layer 1"
     inkscape:groupmode="layer"
     id="layer1"
     transform="translate(0,-352.36218)">
    <path
       id="rect3718"
       transform="translate(0,352.36218)"
       style="fill:#00ff00"
       d="m 519.15625,88.53125 c -1.12707,0.12168 -2.13802,0.77363 -3.53125,2 -1.56469,1.37733 -2.16551,2.34347 -3.125,5.0625 -0.65482,1.85585 -2.00933,5.05998 -2.96875,7.09375 -4.01648,8.51412 -4.67119,10.47704 -4.9375,14.375 -0.16046,2.34923 -0.0668,4.27909 0.25,5.21875 0.58284,1.72883 2.75668,3.37049 5.9375,4.5 4.3654,1.55022 6.40823,2.71333 8.96875,5 0.75137,0.67102 2.21066,1.2649 3.9375,1.59375 2.51181,0.47836 2.87265,0.41249 4.46875,-0.4375 1.04099,-0.55442 2.89419,-2.38467 4.65625,-4.59375 4.06601,-5.0977 5.33169,-9.26486 4.3125,-14.34375 -0.26413,-1.31595 -0.66804,-3.39165 -0.90625,-4.5625 -0.23817,-1.17083 -0.62848,-2.32895 -0.84375,-2.59375 -0.21528,-0.26474 -0.95063,-1.98745 -1.65625,-3.8125 -2.99029,-7.73407 -6.49721,-12.05764 -11.1875,-13.8125 -1.18291,-0.44257 -2.09849,-0.6722 -2.90625,-0.6875 -0.16828,-0.003 -0.30774,-0.0174 -0.46875,0 z" />
  </g>
</svg>
