<?xml version="1.0" encoding="UTF-8" standalone="no"?>
<!-- Created with Inkscape (http://www.inkscape.org/) -->

<svg
   xmlns:dc="http://purl.org/dc/elements/1.1/"
   xmlns:cc="http://creativecommons.org/ns#"
   xmlns:rdf="http://www.w3.org/1999/02/22-rdf-syntax-ns#"
   xmlns:svg="http://www.w3.org/2000/svg"
   xmlns="http://www.w3.org/2000/svg"
   xmlns:sodipodi="http://sodipodi.sourceforge.net/DTD/sodipodi-0.dtd"
   xmlns:inkscape="http://www.inkscape.org/namespaces/inkscape"
   width="800"
   height="700"
   id="svg2"
   version="1.1"
   inkscape:version="0.48.2 r9819"
   sodipodi:docname="f11.svg">
  <defs
     id="defs4" />
  <sodipodi:namedview
     id="base"
     pagecolor="#ffffff"
     bordercolor="#666666"
     borderopacity="1.0"
     inkscape:pageopacity="0.0"
     inkscape:pageshadow="2"
     inkscape:zoom="7.0710678"
     inkscape:cx="541.86544"
     inkscape:cy="600.84115"
     inkscape:document-units="px"
     inkscape:current-layer="layer1"
     showgrid="false"
     showguides="true"
     inkscape:guide-bbox="true"
     inkscape:window-width="1366"
     inkscape:window-height="746"
     inkscape:window-x="-8"
     inkscape:window-y="-8"
     inkscape:window-maximized="1"
     width="0px"
     height="0px"
     fit-margin-top="0"
     fit-margin-left="0"
     fit-margin-right="0"
     fit-margin-bottom="0">
    <sodipodi:guide
       orientation="1,0"
       position="400.22244,349.31075"
       id="guide3178" />
    <sodipodi:guide
       orientation="0,1"
       position="400.22244,349.31075"
       id="guide3180" />
  </sodipodi:namedview>
  <metadata
     id="metadata7">
    <rdf:RDF>
      <cc:Work
         rdf:about="">
        <dc:format>image/svg+xml</dc:format>
        <dc:type
           rdf:resource="http://purl.org/dc/dcmitype/StillImage" />
        <dc:title></dc:title>
      </cc:Work>
    </rdf:RDF>
  </metadata>
  <g
     inkscape:label="Layer 1"
     inkscape:groupmode="layer"
     id="layer1"
     transform="translate(0,-352.36218)">
    <path
       style="fill:#ff0000"
       d="m 519.1563,440.89343 c 0.16101,-0.0174 0.30047,-0.003 0.46875,0 0.80776,0.0153 1.72334,0.24493 2.90625,0.6875 4.69029,1.75486 8.19721,6.07843 11.1875,13.8125 0.70562,1.82505 1.44097,3.54776 1.65625,3.8125 0.21527,0.2648 0.60558,1.42292 0.84375,2.59375 0.23821,1.17085 0.64212,3.24655 0.90625,4.5625 1.01919,5.07889 -0.24649,9.24605 -4.3125,14.34375 -1.76206,2.20908 -3.61526,4.03933 -4.65625,4.59375 -1.5961,0.84999 -1.95694,0.91586 -4.46875,0.4375 -1.72684,-0.32885 -3.18613,-0.92273 -3.9375,-1.59375 -2.56052,-2.28667 -4.60335,-3.44978 -8.96875,-5 -3.18082,-1.12951 -5.35466,-2.77117 -5.9375,-4.5 -0.31676,-0.93966 -0.41046,-2.86952 -0.25,-5.21875 0.26631,-3.89796 0.92102,-5.86088 4.9375,-14.375 0.95942,-2.03377 2.31393,-5.2379 2.96875,-7.09375 0.95949,-2.71903 1.56031,-3.68517 3.125,-5.0625 1.39323,-1.22637 2.40418,-1.87832 3.53125,-2 z"
       id="rect3134" />
  </g>
</svg>
