<?xml version="1.0" encoding="UTF-8" standalone="no"?>
<!-- Created with Inkscape (http://www.inkscape.org/) -->

<svg
   xmlns:dc="http://purl.org/dc/elements/1.1/"
   xmlns:cc="http://creativecommons.org/ns#"
   xmlns:rdf="http://www.w3.org/1999/02/22-rdf-syntax-ns#"
   xmlns:svg="http://www.w3.org/2000/svg"
   xmlns="http://www.w3.org/2000/svg"
   xmlns:sodipodi="http://sodipodi.sourceforge.net/DTD/sodipodi-0.dtd"
   xmlns:inkscape="http://www.inkscape.org/namespaces/inkscape"
   width="800"
   height="700"
   id="svg2"
   version="1.1"
   inkscape:version="0.48.2 r9819"
   sodipodi:docname="l23.svg">
  <defs
     id="defs4" />
  <sodipodi:namedview
     id="base"
     pagecolor="#ffffff"
     bordercolor="#666666"
     borderopacity="1.0"
     inkscape:pageopacity="0.0"
     inkscape:pageshadow="2"
     inkscape:zoom="2.5"
     inkscape:cx="305.9394"
     inkscape:cy="226.63669"
     inkscape:document-units="px"
     inkscape:current-layer="layer1"
     showgrid="false"
     showguides="true"
     inkscape:guide-bbox="true"
     inkscape:window-width="1366"
     inkscape:window-height="746"
     inkscape:window-x="-8"
     inkscape:window-y="-8"
     inkscape:window-maximized="1"
     width="0px"
     height="0px"
     fit-margin-top="0"
     fit-margin-left="0"
     fit-margin-right="0"
     fit-margin-bottom="0">
    <sodipodi:guide
       orientation="1,0"
       position="400.22244,349.31075"
       id="guide3178" />
    <sodipodi:guide
       orientation="0,1"
       position="400.22244,349.31075"
       id="guide3180" />
  </sodipodi:namedview>
  <metadata
     id="metadata7">
    <rdf:RDF>
      <cc:Work
         rdf:about="">
        <dc:format>image/svg+xml</dc:format>
        <dc:type
           rdf:resource="http://purl.org/dc/dcmitype/StillImage" />
        <dc:title></dc:title>
      </cc:Work>
    </rdf:RDF>
  </metadata>
  <g
     inkscape:label="Layer 1"
     inkscape:groupmode="layer"
     id="layer1"
     transform="translate(0,-352.36218)">
    <path
       id="rect3290"
       transform="translate(0,352.36218)"
       style="fill:#ff0000"
       d="m 366.28125,415.1875 c -0.0953,0.005 -0.15933,0.008 -0.25,0.0312 -1.24438,0.32543 -2.73249,3.48237 -2.71875,5.84375 0.0104,1.92044 0.20493,2.82082 1.53125,7.375 0.38325,1.31596 0.81998,2.85611 0.9375,3.4375 0.1176,0.58141 0.30589,1.22447 0.4375,1.4375 0.40319,0.65236 1.34262,5.54698 1.9375,10.125 0.95258,7.33068 0.66318,28.53247 -0.40625,29.96875 -0.19559,0.26258 -0.70316,2.84751 -1.125,5.71875 -0.42187,2.87115 -1.24528,7.31478 -1.84375,9.90625 -0.59849,2.59149 -0.99708,4.81567 -0.875,4.9375 0.12212,0.12214 -0.0368,1.1665 -0.375,2.28125 -1.47477,4.8593 -0.25969,8.93521 3.21875,10.75 0.82529,0.43068 3.04441,0.59192 7.96875,0.59375 6.75022,0.004 6.82534,-0.01 8.1875,-1.15625 0.75677,-0.63684 1.54097,-1.60628 1.75,-2.15625 0.38035,-1.00042 -0.0688,-6.56391 -0.875,-10.8125 -1.77831,-9.36945 -2.04616,-12.01633 -2.5625,-23.9375 -0.68232,-15.75297 -1.97826,-25.95253 -4.75,-37.40625 -2.09946,-8.67568 -7.23192,-17.10879 -10.1875,-16.9375 z m -0.125,1.5 c 0.89649,0 3.54783,3.2397 4.90625,5.96875 1.61024,3.23493 4.28818,11.60521 6.15625,19.40625 0.9759,4.07534 2.58619,20.75806 2.625,27.0625 0.009,1.47985 -0.22593,2.93042 -0.53125,3.3125 -0.48303,0.60453 -0.75986,0.53944 -2.375,-0.625 -1.87901,-1.35459 -3.32878,-1.61932 -5.5,-1.03125 l -1.28125,0.34375 0.40625,-5.8125 c 1.1163,-16.61378 -0.14231,-27.44902 -4.65625,-40.28125 -0.69876,-1.98645 -1.28125,-4.04384 -1.28125,-4.59375 0,-1.54052 0.90743,-3.75 1.53125,-3.75 z m 6.5,55.03125 c 0.31418,0.002 0.71153,0.10129 1.25,0.25 1.91504,0.52872 3.96003,3.0409 4.6875,5.78125 0.2597,0.9783 0.66013,2.11899 0.875,2.53125 1.13531,2.1783 3.86687,17.01878 3.875,21.0625 0.006,3.01809 -0.0471,3.11387 -1.28125,3.625 -0.69751,0.289 -1.88953,0.64807 -2.6875,0.8125 -1.4107,0.29083 -12.21483,-0.18982 -13.34375,-0.59375 -0.88824,-0.31808 -1.84375,-3.03262 -1.84375,-5.28125 0,-2.18776 1.5362,-10.8537 2.28125,-12.875 0.79643,-2.16043 0.84512,-0.9381 0.0937,2.78125 -0.40395,1.99977 -0.81878,4.31367 -0.9375,5.125 -0.30898,2.11002 0.73472,5.93062 1.90625,7.03125 l 0.96875,0.96875 -0.125,-1.0625 c -0.0743,-0.56763 -0.35348,-1.57657 -0.625,-2.25 -0.69485,-1.72365 -0.61379,-3.33828 0.40625,-8.5625 1.36322,-6.98222 2.55254,-14.07252 2.40625,-14.21875 -0.23113,-0.23108 -1.10541,1.74403 -2.1875,4.875 -0.57884,1.6749 -1.07923,2.73391 -1.09375,2.375 -0.0143,-0.35891 0.24894,-1.41785 0.59375,-2.375 0.3448,-0.95704 0.64711,-2.49939 0.65625,-3.40625 0.022,-1.89233 1.17717,-4.4349 2.6875,-5.84375 0.57229,-0.53388 0.91383,-0.75372 1.4375,-0.75 z m 3.5,7.28125 c -0.0272,0.005 -0.0403,0.01 -0.0625,0.0312 -0.13275,0.13271 -0.0121,1.24413 0.25,2.46875 0.26262,1.22451 0.46875,3.27257 0.46875,4.5625 0,1.29016 0.169,2.46622 0.375,2.59375 0.206,0.12734 0.49943,1.4986 0.625,3.0625 0.12555,1.56411 0.38487,3.07806 0.625,3.375 0.24013,0.2967 0.61039,2.153 0.78125,4.125 0.2664,3.07439 0.19184,3.61418 -0.40625,3.84375 -0.38363,0.14716 -0.6875,0.45764 -0.6875,0.6875 0,0.31114 1.83152,0.0779 1.96875,-0.25 0.0126,-0.0301 0.36249,-0.58105 0.78125,-1.25 0.48312,-0.77178 0.66005,-1.58481 0.46875,-2.1875 -0.16583,-0.52244 -0.63969,-3.08176 -1.0625,-5.71875 -1.2076,-7.53092 -3.20429,-15.01916 -4.03125,-15.34375 -0.0275,-0.0106 -0.0664,-0.006 -0.0937,0 z" />
  </g>
</svg>
