<?xml version="1.0" encoding="UTF-8" standalone="no"?>
<!-- Created with Inkscape (http://www.inkscape.org/) -->

<svg
   xmlns:dc="http://purl.org/dc/elements/1.1/"
   xmlns:cc="http://creativecommons.org/ns#"
   xmlns:rdf="http://www.w3.org/1999/02/22-rdf-syntax-ns#"
   xmlns:svg="http://www.w3.org/2000/svg"
   xmlns="http://www.w3.org/2000/svg"
   xmlns:sodipodi="http://sodipodi.sourceforge.net/DTD/sodipodi-0.dtd"
   xmlns:inkscape="http://www.inkscape.org/namespaces/inkscape"
   width="900"
   height="800"
   id="svg2"
   version="1.1"
   inkscape:version="0.48.2 r9819"
   sodipodi:docname="l23.svg">
  <defs
     id="defs4" />
  <sodipodi:namedview
     id="base"
     pagecolor="#ffffff"
     bordercolor="#666666"
     borderopacity="1.0"
     inkscape:pageopacity="0.0"
     inkscape:pageshadow="2"
     inkscape:zoom="2"
     inkscape:cx="604.54879"
     inkscape:cy="286.11991"
     inkscape:document-units="px"
     inkscape:current-layer="layer1"
     showgrid="false"
     showguides="true"
     inkscape:guide-bbox="true"
     inkscape:window-width="1366"
     inkscape:window-height="746"
     inkscape:window-x="-8"
     inkscape:window-y="-8"
     inkscape:window-maximized="1"
     width="0px"
     height="0px"
     fit-margin-top="0"
     fit-margin-left="0"
     fit-margin-right="0"
     fit-margin-bottom="0">
    <sodipodi:guide
       orientation="1,0"
       position="450,784"
       id="guide3178" />
    <sodipodi:guide
       orientation="0,1"
       position="-61,400"
       id="guide3180" />
  </sodipodi:namedview>
  <metadata
     id="metadata7">
    <rdf:RDF>
      <cc:Work
         rdf:about="">
        <dc:format>image/svg+xml</dc:format>
        <dc:type
           rdf:resource="http://purl.org/dc/dcmitype/StillImage" />
        <dc:title></dc:title>
      </cc:Work>
    </rdf:RDF>
  </metadata>
  <g
     inkscape:label="Layer 1"
     inkscape:groupmode="layer"
     id="layer1"
     transform="translate(0,-252.36218)">
    <path
       id="rect3192"
       transform="translate(0,252.36218)"
       style="fill:#ff0000"
       d="m 412.96875,469.40625 c -0.10775,0.005 -0.17876,0.004 -0.28125,0.0312 -1.40672,0.36787 -3.07803,3.92432 -3.0625,6.59375 0.0117,2.17095 0.25066,3.19546 1.75,8.34375 0.43325,1.48763 0.8984,3.21778 1.03125,3.875 0.13294,0.65725 0.35122,1.41543 0.5,1.65625 0.45578,0.73747 1.51501,6.23101 2.1875,11.40625 1.07684,8.28699 0.74018,32.25135 -0.46875,33.875 -0.22111,0.29684 -0.77312,3.22295 -1.25,6.46875 -0.47689,3.24569 -1.41721,8.28921 -2.09375,11.21875 -0.67656,2.92955 -1.138,5.45602 -1,5.59375 0.13806,0.13807 -0.0552,1.27107 -0.4375,2.53125 -1.66716,5.49322 -0.24471,10.13595 3.6875,12.1875 0.93294,0.48685 3.43327,0.68543 9,0.6875 7.63081,0.004 7.71013,-0.048 9.25,-1.34375 0.85549,-0.71992 1.73245,-1.8158 1.96875,-2.4375 0.42997,-1.13096 -0.0886,-7.41592 -1,-12.21875 -2.0103,-10.59173 -2.32255,-13.58617 -2.90625,-27.0625 -0.77134,-17.808 -2.21042,-29.33336 -5.34375,-42.28125 -2.37333,-9.80744 -8.19011,-19.31864 -11.53125,-19.125 z m -0.125,1.6875 c 1.01344,0 4.02687,3.66494 5.5625,6.75 1.8203,3.65694 4.79449,13.11879 6.90625,21.9375 1.10322,4.60698 2.95613,23.43563 3,30.5625 0.0103,1.67293 -0.27984,3.34932 -0.625,3.78125 -0.54604,0.68339 -0.8304,0.59759 -2.65625,-0.71875 -2.12413,-1.5313 -3.79554,-1.85228 -6.25,-1.1875 l -1.4375,0.40625 0.46875,-6.59375 c 1.26192,-18.78109 -0.17845,-30.99377 -5.28125,-45.5 -0.78991,-2.24559 -1.40625,-4.5971 -1.40625,-5.21875 0,-1.74148 1.01355,-4.21875 1.71875,-4.21875 z m 7.34375,62.21875 c 0.35517,0.002 0.79754,0.11315 1.40625,0.28125 2.16487,0.5977 4.49013,3.43341 5.3125,6.53125 0.29359,1.10591 0.72584,2.40896 0.96875,2.875 1.28341,2.46246 4.36581,19.21001 4.375,23.78125 0.006,3.4118 -0.0424,3.51593 -1.4375,4.09375 -0.7885,0.3267 -2.12918,0.75162 -3.03125,0.9375 -1.59473,0.32878 -13.81757,-0.23087 -15.09375,-0.6875 -1.00412,-0.35957 -2.09375,-3.39554 -2.09375,-5.9375 0,-2.47315 1.75151,-12.30876 2.59375,-14.59375 0.90033,-2.44225 0.97438,-1.04829 0.125,3.15625 -0.45664,2.26065 -0.95954,4.86408 -1.09375,5.78125 -0.34929,2.38527 0.83189,6.72454 2.15625,7.96875 l 1.125,1.09375 -0.15625,-1.1875 c -0.0839,-0.64169 -0.41181,-1.80123 -0.71875,-2.5625 -0.7855,-1.94851 -0.68435,-3.78176 0.46875,-9.6875 1.54106,-7.89309 2.88412,-15.92845 2.71875,-16.09375 -0.26128,-0.26123 -1.2455,1.99183 -2.46875,5.53125 -0.65435,1.89339 -1.20233,3.12449 -1.21875,2.71875 -0.0161,-0.40574 0.26646,-1.63673 0.65625,-2.71875 0.38978,-1.08189 0.73967,-2.81859 0.75,-3.84375 0.0248,-2.1392 1.32389,-5.00111 3.03125,-6.59375 0.64694,-0.60353 1.03301,-0.84796 1.625,-0.84375 z m 3.96875,8.21875 c -0.0307,0.005 -0.0686,0.006 -0.0937,0.0312 -0.15006,0.15003 -0.015,1.39688 0.28125,2.78125 0.29689,1.38425 0.5625,3.72928 0.5625,5.1875 0,1.45845 0.17337,2.76208 0.40625,2.90625 0.23287,0.14395 0.54554,1.70083 0.6875,3.46875 0.14192,1.76816 0.4473,3.47682 0.71875,3.8125 0.27145,0.33541 0.68185,2.427 0.875,4.65625 0.30115,3.47545 0.2386,4.08424 -0.4375,4.34375 -0.43368,0.16635 -0.78125,0.55265 -0.78125,0.8125 0,0.35174 2.06362,0.0581 2.21875,-0.3125 0.0143,-0.0341 0.43285,-0.68129 0.90625,-1.4375 0.54614,-0.87248 0.71625,-1.75619 0.5,-2.4375 -0.18747,-0.59059 -0.70952,-3.519 -1.1875,-6.5 -1.36513,-8.51335 -3.62766,-16.94556 -4.5625,-17.3125 -0.0311,-0.012 -0.063,-0.006 -0.0937,0 z" />
  </g>
</svg>
