<?xml version="1.0" encoding="UTF-8" standalone="no"?>
<!-- Created with Inkscape (http://www.inkscape.org/) -->

<svg
   xmlns:dc="http://purl.org/dc/elements/1.1/"
   xmlns:cc="http://creativecommons.org/ns#"
   xmlns:rdf="http://www.w3.org/1999/02/22-rdf-syntax-ns#"
   xmlns:svg="http://www.w3.org/2000/svg"
   xmlns="http://www.w3.org/2000/svg"
   xmlns:sodipodi="http://sodipodi.sourceforge.net/DTD/sodipodi-0.dtd"
   xmlns:inkscape="http://www.inkscape.org/namespaces/inkscape"
   width="900"
   height="800"
   id="svg2"
   version="1.1"
   inkscape:version="0.48.2 r9819"
   sodipodi:docname="m24.svg">
  <defs
     id="defs4" />
  <sodipodi:namedview
     id="base"
     pagecolor="#ffffff"
     bordercolor="#666666"
     borderopacity="1.0"
     inkscape:pageopacity="0.0"
     inkscape:pageshadow="2"
     inkscape:zoom="2"
     inkscape:cx="604.54879"
     inkscape:cy="106.11991"
     inkscape:document-units="px"
     inkscape:current-layer="layer1"
     showgrid="false"
     showguides="true"
     inkscape:guide-bbox="true"
     inkscape:window-width="1366"
     inkscape:window-height="746"
     inkscape:window-x="-8"
     inkscape:window-y="-8"
     inkscape:window-maximized="1"
     width="0px"
     height="0px"
     fit-margin-top="0"
     fit-margin-left="0"
     fit-margin-right="0"
     fit-margin-bottom="0">
    <sodipodi:guide
       orientation="1,0"
       position="450,784"
       id="guide3178" />
    <sodipodi:guide
       orientation="0,1"
       position="-61,400"
       id="guide3180" />
  </sodipodi:namedview>
  <metadata
     id="metadata7">
    <rdf:RDF>
      <cc:Work
         rdf:about="">
        <dc:format>image/svg+xml</dc:format>
        <dc:type
           rdf:resource="http://purl.org/dc/dcmitype/StillImage" />
        <dc:title></dc:title>
      </cc:Work>
    </rdf:RDF>
  </metadata>
  <g
     inkscape:label="Layer 1"
     inkscape:groupmode="layer"
     id="layer1"
     transform="translate(0,-252.36218)">
    <path
       id="rect3200"
       transform="translate(0,252.36218)"
       style="fill:#ff0000"
       d="m 417.875,648.21875 c -2.92338,0.0217 -5.68516,0.45127 -7.90625,1.25 -3.25247,1.16945 -3.89789,2.259 -3.59375,6.125 0.13388,1.702 0.46397,6.09859 0.75,9.75 0.28597,3.65142 0.74157,8.05432 1.03125,9.8125 0.28966,1.75805 0.83377,5.73315 1.21875,8.84375 0.38501,3.11047 0.93582,7.46121 1.21875,9.625 0.28294,2.16391 0.78646,10.54191 1.09375,18.65625 0.45073,11.90224 0.40104,15.92639 -0.125,20.6875 -0.90911,8.22755 -0.84659,13.81294 0.15625,16.09375 0.44596,1.0143 1.00216,1.83435 1.21875,1.84375 0.21666,0.011 1.63412,-0.59035 3.15625,-1.34375 2.95897,-1.4642 5.27868,-4.24512 6.25,-7.5 3.42521,-11.47833 4.47359,-16.91845 4.5,-23.625 0.007,-2.02857 0.25376,-5.46122 0.53125,-7.625 0.2775,-2.16392 0.68479,-8.45508 0.9375,-14 0.25272,-5.54469 0.81055,-12.75419 1.21875,-16 0.40821,-3.24568 0.88415,-10.19436 1.0625,-15.46875 0.48201,-14.25523 -0.10376,-15.61894 -7.375,-16.75 -1.79946,-0.27949 -3.58974,-0.38802 -5.34375,-0.375 z m -0.90625,2.6875 c 3.32687,-0.0103 6.94455,0.42568 8.96875,1.28125 1.76035,0.74405 1.81019,0.80396 2.15625,4.25 0.41715,4.15389 -0.0671,16.98305 -0.875,23.90625 -0.60777,5.20903 -1.18279,6.32877 -4.75,8.75 -1.63128,1.10717 -4.07786,1.06683 -5.59375,-0.125 -1.58205,-1.24457 -4.96005,-7.88884 -5.65625,-11.09375 -0.29377,-1.35243 -0.6314,-5.78336 -0.78125,-9.875 -0.14989,-4.09139 -0.56508,-9.16627 -0.875,-11.25 -0.47736,-3.20938 -0.42595,-3.91781 0.1875,-4.53125 0.86434,-0.86422 3.89191,-1.30243 7.21875,-1.3125 z m -4.09375,37.125 c 0.10718,-0.10719 0.9529,0.35923 1.875,1.0625 0.92212,0.70349 2.56762,1.62668 3.65625,2.0625 1.82039,0.73061 2.16073,0.73038 4.3125,0 1.28681,-0.43778 2.63875,-0.70195 3,-0.5625 0.80025,0.30706 0.80738,2.80572 0.0625,5.46875 -0.30269,1.08191 -0.57249,4.31618 -0.625,7.15625 -0.12985,7.03703 -1.1128,19.85778 -1.96875,25.53125 -0.82459,5.46589 -2.93612,13.29448 -4.21875,15.75 -0.49944,0.9562 -1.78912,2.24293 -2.90625,2.875 l -2,1.125 -0.4375,-1.21875 c -1.02143,-2.68677 -1.03541,-4.67241 -0.0625,-9.65625 1.41027,-7.22317 1.24302,-21.47601 -0.46875,-43.78125 -0.23857,-3.10816 -0.32592,-5.70568 -0.21875,-5.8125 z" />
  </g>
</svg>
