<?xml version="1.0" encoding="UTF-8" standalone="no"?>
<!-- Created with Inkscape (http://www.inkscape.org/) -->

<svg
   xmlns:dc="http://purl.org/dc/elements/1.1/"
   xmlns:cc="http://creativecommons.org/ns#"
   xmlns:rdf="http://www.w3.org/1999/02/22-rdf-syntax-ns#"
   xmlns:svg="http://www.w3.org/2000/svg"
   xmlns="http://www.w3.org/2000/svg"
   xmlns:sodipodi="http://sodipodi.sourceforge.net/DTD/sodipodi-0.dtd"
   xmlns:inkscape="http://www.inkscape.org/namespaces/inkscape"
   width="800"
   height="700"
   id="svg2"
   version="1.1"
   inkscape:version="0.48.2 r9819"
   sodipodi:docname="f24.svg">
  <defs
     id="defs4" />
  <sodipodi:namedview
     id="base"
     pagecolor="#ffffff"
     bordercolor="#666666"
     borderopacity="1.0"
     inkscape:pageopacity="0.0"
     inkscape:pageshadow="2"
     inkscape:zoom="2.5"
     inkscape:cx="305.9394"
     inkscape:cy="98.636695"
     inkscape:document-units="px"
     inkscape:current-layer="layer1"
     showgrid="false"
     showguides="true"
     inkscape:guide-bbox="true"
     inkscape:window-width="1366"
     inkscape:window-height="746"
     inkscape:window-x="-8"
     inkscape:window-y="-8"
     inkscape:window-maximized="1"
     width="0px"
     height="0px"
     fit-margin-top="0"
     fit-margin-left="0"
     fit-margin-right="0"
     fit-margin-bottom="0">
    <sodipodi:guide
       orientation="1,0"
       position="400.22244,349.31075"
       id="guide3178" />
    <sodipodi:guide
       orientation="0,1"
       position="400.22244,349.31075"
       id="guide3180" />
  </sodipodi:namedview>
  <metadata
     id="metadata7">
    <rdf:RDF>
      <cc:Work
         rdf:about="">
        <dc:format>image/svg+xml</dc:format>
        <dc:type
           rdf:resource="http://purl.org/dc/dcmitype/StillImage" />
        <dc:title></dc:title>
      </cc:Work>
    </rdf:RDF>
  </metadata>
  <g
     inkscape:label="Layer 1"
     inkscape:groupmode="layer"
     id="layer1"
     transform="translate(0,-352.36218)">
    <path
       id="rect3294"
       transform="translate(0,352.36218)"
       style="fill:#ff0000"
       d="m 370.25,536.21875 c -0.99106,0.0244 -1.87514,0.54297 -2.6875,1.46875 -0.65145,0.74241 -1.1875,1.50411 -1.1875,1.71875 0,0.2146 -0.18311,0.40625 -0.40625,0.40625 -0.22313,0 -0.55743,0.39774 -0.71875,0.90625 -0.16133,0.50809 -1.10243,2.11789 -2.09375,3.5625 -2.25739,3.28941 -2.38892,5.41416 -0.59375,9 0.65801,1.31434 1.40445,3.25185 1.65625,4.28125 0.50262,2.0546 1.63925,3.24725 4.4375,4.71875 1.01096,0.5316 2.04195,0.9944 2.28125,1 1.09396,0.025 3.61479,-0.91885 4.40625,-1.65625 0.48075,-0.448 1.36793,-1.10135 1.9375,-1.40625 0.56958,-0.3047 1.78098,-1.2609 2.71875,-2.125 3.80716,-3.50781 5.69677,-8.13556 4.5,-11 -0.658,-1.57458 -4.05676,-4.6875 -5.125,-4.6875 -0.34243,0 -1.69221,-1.10304 -3,-2.4375 -2.50652,-2.55725 -4.47326,-3.79059 -6.125,-3.75 z m 0.4375,1.84375 c 1.28473,0 2.12231,0.53562 5.28125,3.46875 2.9856,2.77235 3.83049,3.46875 4.25,3.46875 0.20219,0 0.71181,0.38715 1.125,0.84375 0.72679,0.80319 0.66993,0.86793 -1.71875,1.5625 -2.29852,0.6656 -2.78075,0.67913 -6.6875,0 -3.38959,-0.58898 -4.53791,-0.68771 -6.03125,-0.28125 -1.0169,0.27691 -1.84375,0.70566 -1.84375,0.90625 0,0.44804 6.54444,0.99848 12.46875,1.0625 5.48536,0.0597 6.15876,0.46621 4.9375,2.8125 -1.09161,2.09739 -4.07059,5.4813 -6.46875,7.3125 -1.74636,1.3334 -2.21056,1.4352 -4.84375,1.4375 -3.50829,0 -4.30596,-0.66875 -5.65625,-4.59375 -0.48714,-1.41587 -1.21854,-3.21623 -1.59375,-4.03125 -0.79262,-1.72141 -0.55017,-5.4049 0.4375,-6.53125 0.33842,-0.38572 1.05462,-1.55229 1.5625,-2.5625 1.44162,-2.86726 3.42326,-4.875 4.78125,-4.875 z" />
  </g>
</svg>
