<?xml version="1.0" encoding="UTF-8" standalone="no"?>
<!-- Created with Inkscape (http://www.inkscape.org/) -->

<svg
   xmlns:dc="http://purl.org/dc/elements/1.1/"
   xmlns:cc="http://creativecommons.org/ns#"
   xmlns:rdf="http://www.w3.org/1999/02/22-rdf-syntax-ns#"
   xmlns:svg="http://www.w3.org/2000/svg"
   xmlns="http://www.w3.org/2000/svg"
   xmlns:sodipodi="http://sodipodi.sourceforge.net/DTD/sodipodi-0.dtd"
   xmlns:inkscape="http://www.inkscape.org/namespaces/inkscape"
   width="900"
   height="800"
   id="svg2"
   version="1.1"
   inkscape:version="0.48.2 r9819"
   sodipodi:docname="adult.svg">
  <defs
     id="defs4" />
  <sodipodi:namedview
     id="base"
     pagecolor="#ffffff"
     bordercolor="#666666"
     borderopacity="1.0"
     inkscape:pageopacity="0.0"
     inkscape:pageshadow="2"
     inkscape:zoom="2.8284271"
     inkscape:cx="421.83648"
     inkscape:cy="170.21712"
     inkscape:document-units="px"
     inkscape:current-layer="layer1"
     showgrid="false"
     showguides="true"
     inkscape:guide-bbox="true"
     inkscape:window-width="1366"
     inkscape:window-height="746"
     inkscape:window-x="-8"
     inkscape:window-y="-8"
     inkscape:window-maximized="1"
     width="0px"
     height="0px"
     fit-margin-top="0"
     fit-margin-left="0"
     fit-margin-right="0"
     fit-margin-bottom="0">
    <sodipodi:guide
       orientation="1,0"
       position="450,784"
       id="guide3178" />
    <sodipodi:guide
       orientation="0,1"
       position="-61,400"
       id="guide3180" />
  </sodipodi:namedview>
  <metadata
     id="metadata7">
    <rdf:RDF>
      <cc:Work
         rdf:about="">
        <dc:format>image/svg+xml</dc:format>
        <dc:type
           rdf:resource="http://purl.org/dc/dcmitype/StillImage" />
        <dc:title></dc:title>
      </cc:Work>
    </rdf:RDF>
  </metadata>
  <g
     inkscape:label="Layer 1"
     inkscape:groupmode="layer"
     id="layer1"
     transform="translate(0,-252.36218)">
    <path
       id="rect3001"
       transform="translate(0,252.36218)"
       style="fill:#ff0000"
       d="m 417.46875,606.21875 c -1.12035,0.0276 -2.14416,0.57845 -3.0625,1.625 -0.73643,0.83926 -1.3125,1.72613 -1.3125,1.96875 0,0.24261 -0.2165,0.4375 -0.46875,0.4375 -0.25224,0 -0.59889,0.48766 -0.78125,1.0625 -0.18238,0.57438 -1.25435,2.36694 -2.375,4 -2.55186,3.71853 -2.71686,6.13389 -0.6875,10.1875 0.74385,1.48579 1.59034,3.68006 1.875,4.84375 0.56818,2.32255 1.83671,3.68035 5,5.34375 1.14284,0.60102 2.32323,1.08743 2.59375,1.09375 1.23667,0.0278 4.07405,-1.01009 4.96875,-1.84375 0.54346,-0.50636 1.54362,-1.24912 2.1875,-1.59375 0.64388,-0.34451 2.03365,-1.42935 3.09375,-2.40625 4.30383,-3.96539 6.44665,-9.16814 5.09375,-12.40625 -0.74383,-1.78 -4.60491,-5.3125 -5.8125,-5.3125 -0.3871,0 -1.8966,-1.2727 -3.375,-2.78125 -2.8335,-2.89086 -5.07029,-4.26464 -6.9375,-4.21875 z m 0.5,2.0625 c 1.45232,0 2.39773,0.59048 5.96875,3.90625 3.37509,3.13402 4.33827,3.96875 4.8125,3.96875 0.22857,0 0.78292,0.42134 1.25,0.9375 0.82161,0.90796 0.76279,0.96482 -1.9375,1.75 -2.59836,0.75243 -3.11485,0.76772 -7.53125,0 -3.83176,-0.66581 -5.1556,-0.74073 -6.84375,-0.28125 -1.14956,0.31304 -2.0625,0.77324 -2.0625,1 0,0.50648 7.36534,1.14638 14.0625,1.21875 6.20094,0.0675 6.97432,0.50389 5.59375,3.15625 -1.23401,2.37102 -4.60149,6.17984 -7.3125,8.25 -1.97418,1.50729 -2.49206,1.65361 -5.46875,1.65625 -3.96597,0 -4.87982,-0.75044 -6.40625,-5.1875 -0.55069,-1.60056 -1.38833,-3.64117 -1.8125,-4.5625 -0.89601,-1.94598 -0.61651,-6.13296 0.5,-7.40625 0.38257,-0.43606 1.17587,-1.733 1.75,-2.875 1.62969,-3.24131 3.90235,-5.53125 5.4375,-5.53125 z" />
  </g>
</svg>
