<?xml version="1.0" encoding="UTF-8" standalone="no"?>
<!-- Created with Inkscape (http://www.inkscape.org/) -->

<svg
   xmlns:dc="http://purl.org/dc/elements/1.1/"
   xmlns:cc="http://creativecommons.org/ns#"
   xmlns:rdf="http://www.w3.org/1999/02/22-rdf-syntax-ns#"
   xmlns:svg="http://www.w3.org/2000/svg"
   xmlns="http://www.w3.org/2000/svg"
   xmlns:sodipodi="http://sodipodi.sourceforge.net/DTD/sodipodi-0.dtd"
   xmlns:inkscape="http://www.inkscape.org/namespaces/inkscape"
   width="900"
   height="800"
   id="svg2"
   version="1.1"
   inkscape:version="0.48.2 r9819"
   sodipodi:docname="l25.svg">
  <defs
     id="defs4" />
  <sodipodi:namedview
     id="base"
     pagecolor="#ffffff"
     bordercolor="#666666"
     borderopacity="1.0"
     inkscape:pageopacity="0.0"
     inkscape:pageshadow="2"
     inkscape:zoom="2"
     inkscape:cx="702.00206"
     inkscape:cy="261.79141"
     inkscape:document-units="px"
     inkscape:current-layer="layer1"
     showgrid="false"
     showguides="true"
     inkscape:guide-bbox="true"
     inkscape:window-width="1366"
     inkscape:window-height="746"
     inkscape:window-x="-8"
     inkscape:window-y="-8"
     inkscape:window-maximized="1"
     width="0px"
     height="0px"
     fit-margin-top="0"
     fit-margin-left="0"
     fit-margin-right="0"
     fit-margin-bottom="0">
    <sodipodi:guide
       orientation="1,0"
       position="450,784"
       id="guide3178" />
    <sodipodi:guide
       orientation="0,1"
       position="-61,400"
       id="guide3180" />
  </sodipodi:namedview>
  <metadata
     id="metadata7">
    <rdf:RDF>
      <cc:Work
         rdf:about="">
        <dc:format>image/svg+xml</dc:format>
        <dc:type
           rdf:resource="http://purl.org/dc/dcmitype/StillImage" />
        <dc:title></dc:title>
      </cc:Work>
    </rdf:RDF>
  </metadata>
  <g
     inkscape:label="Layer 1"
     inkscape:groupmode="layer"
     id="layer1"
     transform="translate(0,-252.36218)">
    <path
       id="rect3220"
       transform="translate(0,252.36218)"
       style="fill:#ff0000"
       d="m 536.71875,454.875 c -0.98401,-0.0118 -2.05485,0.4045 -3.09375,1.375 -0.84005,0.78473 -1.53125,1.68501 -1.53125,1.96875 0,0.28377 -0.29383,0.68995 -0.65625,0.90625 -2.65981,1.58745 -7.58395,15.07233 -8.6875,23.78125 -0.257,2.02862 -0.82565,6.20197 -1.25,9.3125 -0.6038,4.42595 -0.7385,10.18247 -0.71875,26.46875 0.026,21.4682 -0.034,22.60283 -2.25,34.5 -0.91708,4.92518 -1.36403,11.75931 -0.9375,14.53125 0.37407,2.43054 1.7052,4.11567 3.84375,4.84375 2.3113,0.78715 13.91892,0.92879 15.25,0.1875 0.5791,-0.32222 1.17722,-0.62408 1.3125,-0.65625 0.13528,-0.033 0.56301,-0.17786 0.96875,-0.34375 0.40573,-0.16633 1.69263,-0.57196 2.875,-0.875 2.88442,-0.73956 4.74555,-2.80381 5.40625,-6.09375 0.62131,-3.09371 0.10475,-7.73674 -1.15625,-10.15625 -0.47701,-0.91521 -1.04312,-2.42832 -1.25,-3.375 -0.20684,-0.94668 -0.62984,-2.60561 -0.9375,-3.6875 -0.30765,-1.08202 -0.64097,-2.31302 -0.71875,-2.71875 -0.0779,-0.40575 -0.38604,-1.40727 -0.71875,-2.21875 -0.33269,-0.81135 -0.86181,-2.66861 -1.125,-4.15625 -0.26326,-1.48763 -0.68371,-3.65916 -0.9375,-4.8125 -0.25377,-1.15336 -0.46875,-2.79734 -0.46875,-3.65625 0,-0.85892 -0.20747,-2.80856 -0.46875,-4.3125 -1.92706,-11.09214 -2.41318,-32.4141 -1,-43.78125 0.52118,-4.19243 1.19237,-8.81661 1.46875,-10.25 0.2764,-1.43338 0.46508,-2.748 0.4375,-2.9375 -0.0273,-0.18948 -0.007,-0.42722 0.0312,-0.5625 0.40257,-1.41231 0.39732,-8.02451 0,-9.5 -0.66185,-2.45834 -2.04748,-3.76154 -3.6875,-3.78125 z m -0.1875,1.5625 c 0.0697,0.004 0.15963,0.009 0.21875,0.0312 1.93638,0.74301 2.67931,7.27772 1.40625,12.3125 -1.57836,6.24218 -2.50517,16.65171 -2.59375,29.375 -0.0945,13.58939 0.40517,21.09965 1.96875,28.75 0.55364,2.70899 0.96515,5.7137 0.875,6.65625 l -0.1875,1.6875 -0.78125,-1.5 c -1.18467,-2.16218 -6.62249,-5.28601 -8.53125,-4.90625 -4.66586,0.92843 -4.62011,0.96294 -5.21875,-0.53125 -0.30966,-0.77289 -0.6335,-3.83722 -0.71875,-6.8125 -0.0853,-2.97527 -0.3117,-7.09641 -0.46875,-9.125 -0.24361,-3.1484 0.0205,-9.50043 1,-23.84375 0.25959,-3.80249 0.96062,-7.15141 2.78125,-13.5 0.80902,-2.82128 1.57009,-5.45055 1.65625,-5.875 0.30783,-1.51464 1.14958,-3.35212 2.4375,-5.25 0.71918,-1.05973 1.63039,-2.59282 2.03125,-3.4375 0.9611,-2.02521 3.08039,-4.08427 4.125,-4.03125 z m -7.59375,74.53125 c 1.30723,0.0172 2.64479,0.32658 3.53125,0.90625 2.07182,1.35495 2.53395,1.92196 3.84375,4.96875 0.67202,1.56322 2.04436,4.50264 3.03125,6.53125 0.98685,2.02858 1.96437,4.06163 2.1875,4.53125 0.2231,0.4696 0.40625,1.127 0.40625,1.46875 9.2e-4,0.34175 0.35313,1.31353 0.78125,2.125 0.97058,1.83939 2.14592,7.19484 2.15625,9.84375 0.0104,2.33207 -2.07397,6.83228 -3.625,7.84375 -0.57727,0.37634 -2.14761,0.91698 -3.5,1.21875 -2.89698,0.64688 -6.35694,0.9377 -8.1875,0.65625 -0.8845,-0.136 -1.39088,-0.59776 -1.59375,-1.40625 -0.18379,-0.73222 -0.80243,-1.30942 -1.5625,-1.5 -1.77701,-0.44606 -2.86697,-2.84624 -2.875,-6.34375 -0.006,-3.23053 0.26366,-4.99971 1.4375,-9.09375 0.42653,-1.48774 0.98557,-3.37589 1.21875,-4.1875 0.23319,-0.81135 0.81193,-2.43144 1.25,-3.625 0.4381,-1.19366 0.68278,-2.88372 0.59375,-3.71875 -0.16099,-1.51062 -0.13706,-1.48583 -0.8125,0.59375 -0.37342,1.14956 -0.87243,2.0625 -1.0625,2.0625 -0.33574,0 -1.6924,4.84625 -2.9375,10.34375 -0.33696,1.48764 -1.02976,3.53747 -1.5625,4.5625 -1.27016,2.44362 -0.91339,4.8565 1.34375,8.59375 l 1.71875,2.8125 -1.53125,0.15625 c -0.83799,0.0872 -1.81956,0.0785 -2.1875,-0.0625 -1.06125,-0.40712 -2.06436,-4.59505 -1.65625,-6.90625 1.72803,-9.78669 2.41527,-14.26929 2.59375,-17 0.40824,-6.24749 2.20655,-13.14035 3.8125,-14.59375 0.61874,-0.5598 1.88028,-0.79843 3.1875,-0.78125 z m 3.59375,8.96875 c -0.7836,0 -1.07504,1.41933 -0.4375,2.1875 0.33383,0.40229 0.45147,0.75 0.25,0.75 -0.20165,0 -0.17058,0.28692 0.0937,0.625 0.26434,0.33806 0.75091,1.3564 1.0625,2.28125 0.31164,0.92487 1.87904,3.83098 3.5,6.46875 2.74418,4.46555 2.9375,4.99392 2.9375,7.75 0,1.62834 0.27014,3.13169 0.5625,3.3125 0.49571,0.30638 0.36727,1.52216 -0.34375,3.375 -0.19269,0.50212 -0.0355,0.78125 0.4375,0.78125 1.176,0 1.37435,-1.3616 1.03125,-6.375 -0.35019,-5.11746 -1.0076,-6.77102 -5.375,-13.15625 -1.1479,-1.67845 -2.36018,-4.16664 -2.6875,-5.53125 -0.32732,-1.36452 -0.77926,-2.46875 -1.03125,-2.46875 z" />
  </g>
</svg>
