<?xml version="1.0" encoding="UTF-8" standalone="no"?>
<!-- Created with Inkscape (http://www.inkscape.org/) -->

<svg
   xmlns:dc="http://purl.org/dc/elements/1.1/"
   xmlns:cc="http://creativecommons.org/ns#"
   xmlns:rdf="http://www.w3.org/1999/02/22-rdf-syntax-ns#"
   xmlns:svg="http://www.w3.org/2000/svg"
   xmlns="http://www.w3.org/2000/svg"
   xmlns:sodipodi="http://sodipodi.sourceforge.net/DTD/sodipodi-0.dtd"
   xmlns:inkscape="http://www.inkscape.org/namespaces/inkscape"
   width="800"
   height="700"
   id="svg2"
   version="1.1"
   inkscape:version="0.48.2 r9819"
   sodipodi:docname="l25.svg">
  <defs
     id="defs4" />
  <sodipodi:namedview
     id="base"
     pagecolor="#ffffff"
     bordercolor="#666666"
     borderopacity="1.0"
     inkscape:pageopacity="0.0"
     inkscape:pageshadow="2"
     inkscape:zoom="1.767767"
     inkscape:cx="516.88149"
     inkscape:cy="275.04599"
     inkscape:document-units="px"
     inkscape:current-layer="layer1"
     showgrid="false"
     showguides="true"
     inkscape:guide-bbox="true"
     inkscape:window-width="1366"
     inkscape:window-height="746"
     inkscape:window-x="-8"
     inkscape:window-y="-8"
     inkscape:window-maximized="1"
     width="0px"
     height="0px"
     fit-margin-top="0"
     fit-margin-left="0"
     fit-margin-right="0"
     fit-margin-bottom="0">
    <sodipodi:guide
       orientation="1,0"
       position="400.22244,349.31075"
       id="guide3178" />
    <sodipodi:guide
       orientation="0,1"
       position="400.22244,349.31075"
       id="guide3180" />
  </sodipodi:namedview>
  <metadata
     id="metadata7">
    <rdf:RDF>
      <cc:Work
         rdf:about="">
        <dc:format>image/svg+xml</dc:format>
        <dc:type
           rdf:resource="http://purl.org/dc/dcmitype/StillImage" />
        <dc:title></dc:title>
      </cc:Work>
    </rdf:RDF>
  </metadata>
  <g
     inkscape:label="Layer 1"
     inkscape:groupmode="layer"
     id="layer1"
     transform="translate(0,-352.36218)">
    <path
       id="rect3318"
       transform="translate(0,352.36218)"
       style="fill:#ff0000"
       d="m 475.75,402.34375 c -0.87046,-0.0104 -1.831,0.36024 -2.75,1.21875 -0.74312,0.69416 -1.34375,1.499 -1.34375,1.75 0,0.25101 -0.27314,0.62115 -0.59375,0.8125 -2.35287,1.40425 -6.71131,13.29608 -7.6875,21 -0.22736,1.79451 -0.71837,5.52966 -1.09375,8.28125 -0.53413,3.91518 -0.64247,8.96813 -0.625,23.375 0.023,18.99079 -0.0396,20.007 -2,30.53125 -0.81126,4.35681 -1.22106,10.42294 -0.84375,12.875 0.33091,2.15005 1.51449,3.63719 3.40625,4.28125 2.04457,0.69631 12.32253,0.81199 13.5,0.15625 0.51226,-0.28504 1.03657,-0.53404 1.15625,-0.5625 0.11966,-0.0292 0.51608,-0.197 0.875,-0.34375 0.35892,-0.14714 1.48532,-0.48192 2.53125,-0.75 2.55155,-0.65421 4.16555,-2.49597 4.75,-5.40625 0.54961,-2.7367 0.11548,-6.82845 -1,-8.96875 -0.42197,-0.8096 -0.94199,-2.16258 -1.125,-3 -0.18297,-0.83745 -0.54034,-2.32421 -0.8125,-3.28125 -0.27215,-0.95715 -0.55621,-2.0161 -0.625,-2.375 -0.069,-0.35894 -0.36193,-1.25091 -0.65625,-1.96875 -0.2943,-0.71772 -0.73591,-2.37152 -0.96875,-3.6875 -0.23287,-1.31594 -0.61924,-3.22975 -0.84375,-4.25 -0.22448,-1.02027 -0.40625,-2.45896 -0.40625,-3.21875 0,-0.75979 -0.1751,-2.48212 -0.40625,-3.8125 -1.70468,-9.81211 -2.12512,-28.6946 -0.875,-38.75 0.46102,-3.70862 1.03677,-7.79452 1.28125,-9.0625 0.24451,-1.26797 0.3994,-2.42613 0.375,-2.59375 -0.0241,-0.16761 -0.002,-0.38034 0.0312,-0.5 0.35613,-1.24934 0.35147,-7.10103 0,-8.40625 -0.58546,-2.17465 -1.79924,-3.32632 -3.25,-3.34375 z m -0.15625,1.375 c 0.0616,0.004 0.13519,0.0113 0.1875,0.0312 1.71293,0.65727 2.34489,6.45248 1.21875,10.90625 -1.39622,5.52185 -2.20288,14.71371 -2.28125,25.96875 -0.0835,12.02119 0.36687,18.66999 1.75,25.4375 0.48975,2.39637 0.82974,5.04122 0.75,5.875 l -0.15625,1.5 -0.6875,-1.3125 c -1.04797,-1.91266 -5.874,-4.67969 -7.5625,-4.34375 -4.12742,0.82129 -4.06419,0.853 -4.59375,-0.46875 -0.27393,-0.6837 -0.54958,-3.39932 -0.625,-6.03125 -0.0756,-2.63193 -0.29857,-6.268 -0.4375,-8.0625 -0.21549,-2.78508 0.0398,-8.40563 0.90625,-21.09375 0.22962,-3.36367 0.82697,-6.32153 2.4375,-11.9375 0.71567,-2.4957 1.39253,-4.84328 1.46875,-5.21875 0.27231,-1.33986 1.01698,-2.94614 2.15625,-4.625 0.6362,-0.93744 1.4579,-2.31529 1.8125,-3.0625 0.8502,-1.7915 2.73217,-3.60941 3.65625,-3.5625 z m -6.75,65.9375 c 1.15639,0.0153 2.37209,0.26846 3.15625,0.78125 1.83274,1.19859 2.2476,1.7423 3.40625,4.4375 0.59447,1.38283 1.78323,3.98674 2.65625,5.78125 0.87296,1.79448 1.74011,3.58457 1.9375,4 0.19736,0.41541 0.34375,0.97893 0.34375,1.28125 8.1e-4,0.30232 0.30877,1.15719 0.6875,1.875 0.85857,1.62714 1.89711,6.37553 1.90625,8.71875 0.01,2.06296 -1.81544,6.04275 -3.1875,6.9375 -0.51065,0.3329 -1.89743,0.82681 -3.09375,1.09375 -2.56268,0.57224 -5.59942,0.81147 -7.21875,0.5625 -0.78241,-0.1203 -1.25805,-0.53481 -1.4375,-1.25 -0.16258,-0.64772 -0.70265,-1.14391 -1.375,-1.3125 -1.57195,-0.39458 -2.52416,-2.5311 -2.53125,-5.625 -0.006,-2.85773 0.21161,-4.40966 1.25,-8.03125 0.37731,-1.31606 0.88749,-3.0008 1.09375,-3.71875 0.20628,-0.71772 0.70623,-2.16291 1.09375,-3.21875 0.38755,-1.0559 0.61001,-2.51134 0.53125,-3.25 -0.1424,-1.3363 -0.1525,-1.3396 -0.75,0.5 -0.33032,1.01691 -0.73811,1.84375 -0.90625,1.84375 -0.29699,0 -1.49234,4.2619 -2.59375,9.125 -0.29806,1.31595 -0.93498,3.15576 -1.40625,4.0625 -1.12359,2.16163 -0.77791,4.25653 1.21875,7.5625 l 1.5,2.53125 -1.34375,0.125 c -0.74128,0.077 -1.61203,0.0623 -1.9375,-0.0625 -0.93879,-0.36015 -1.82979,-4.04924 -1.46875,-6.09375 1.52861,-8.65731 2.12336,-12.64692 2.28125,-15.0625 0.36113,-5.52655 1.95437,-11.62057 3.375,-12.90625 0.54734,-0.49519 1.65614,-0.70268 2.8125,-0.6875 z m 3.1875,7.9375 c -0.69317,0 -0.93896,1.25797 -0.375,1.9375 0.29531,0.35587 0.39697,0.65625 0.21875,0.65625 -0.17839,0 -0.14006,0.26342 0.0937,0.5625 0.23383,0.29904 0.6306,1.21312 0.90625,2.03125 0.27568,0.81813 1.69109,3.38539 3.125,5.71875 2.4275,3.95025 2.59375,4.40573 2.59375,6.84375 0,1.44044 0.21013,2.77756 0.46875,2.9375 0.43852,0.27104 0.34771,1.32973 -0.28125,2.96875 -0.17046,0.44418 -0.0435,0.6875 0.375,0.6875 1.04029,0 1.24101,-1.19014 0.9375,-5.625 -0.30977,-4.52692 -0.88657,-5.97662 -4.75,-11.625 -1.01542,-1.48476 -2.11672,-3.69912 -2.40625,-4.90625 -0.28955,-1.20706 -0.68332,-2.1875 -0.90625,-2.1875 z" />
  </g>
</svg>
