<?xml version="1.0" encoding="UTF-8" standalone="no"?>
<!-- Created with Inkscape (http://www.inkscape.org/) -->

<svg
   xmlns:dc="http://purl.org/dc/elements/1.1/"
   xmlns:cc="http://creativecommons.org/ns#"
   xmlns:rdf="http://www.w3.org/1999/02/22-rdf-syntax-ns#"
   xmlns:svg="http://www.w3.org/2000/svg"
   xmlns="http://www.w3.org/2000/svg"
   xmlns:sodipodi="http://sodipodi.sourceforge.net/DTD/sodipodi-0.dtd"
   xmlns:inkscape="http://www.inkscape.org/namespaces/inkscape"
   width="800"
   height="400"
   id="svg2"
   version="1.1"
   inkscape:version="0.48.2 r9819"
   sodipodi:docname="f26.svg">
  <defs
     id="defs4" />
  <sodipodi:namedview
     id="base"
     pagecolor="#ffffff"
     bordercolor="#666666"
     borderopacity="1.0"
     inkscape:pageopacity="0.0"
     inkscape:pageshadow="2"
     inkscape:zoom="2"
     inkscape:cx="333.22227"
     inkscape:cy="87.192816"
     inkscape:document-units="px"
     inkscape:current-layer="layer1"
     showgrid="false"
     showguides="true"
     inkscape:guide-bbox="true"
     inkscape:window-width="1366"
     inkscape:window-height="746"
     inkscape:window-x="-8"
     inkscape:window-y="-8"
     inkscape:window-maximized="1"
     width="0px"
     height="0px"
     fit-margin-top="0"
     fit-margin-left="0"
     fit-margin-right="0"
     fit-margin-bottom="0">
    <sodipodi:guide
       orientation="1,0"
       position="400.22244,349.31075"
       id="guide3178" />
    <sodipodi:guide
       orientation="0,1"
       position="-117.37973,199.40411"
       id="guide3180" />
  </sodipodi:namedview>
  <metadata
     id="metadata7">
    <rdf:RDF>
      <cc:Work
         rdf:about="">
        <dc:format>image/svg+xml</dc:format>
        <dc:type
           rdf:resource="http://purl.org/dc/dcmitype/StillImage" />
        <dc:title></dc:title>
      </cc:Work>
    </rdf:RDF>
  </metadata>
  <g
     inkscape:label="Layer 1"
     inkscape:groupmode="layer"
     id="layer1"
     transform="translate(0,-652.36218)">
    <path
       id="rect3569"
       transform="translate(0,652.36218)"
       style="fill:#ff0000"
       d="m 318.1875,275.3125 c -5.18563,0.1591 -7.625,1.2234 -8.375,3.375 -1.08954,3.1254 -0.45346,8.3007 2.25,18.75 0.49524,1.9142 0.99208,4.06345 1.09375,4.78125 0.48579,3.4315 1.54266,9.8432 2,12.1875 0.32129,1.6467 0.44258,6.28145 0.375,12.59375 -0.39185,36.6247 -0.29111,39.99005 1.15625,41.65625 1.62374,1.8687 4.63429,0.3246 7,-3.625 0.98711,-1.648 1.7782,-3.23535 1.78125,-3.53125 0.004,-0.296 0.50495,-2.06255 1.09375,-3.90625 1.87542,-5.8719 2.30758,-10.8253 3.0625,-34.5 0.13733,-4.3067 0.44198,-9.10095 0.65625,-10.65625 0.79742,-5.7883 1.31756,-8.93575 1.6875,-9.78125 0.20932,-0.4786 0.61224,-2.69425 0.875,-4.90625 0.26272,-2.2118 0.67239,-4.51 0.90625,-5.125 0.23382,-0.6151 0.4375,-3.5778 0.4375,-6.5625 0,-4.5147 -0.14077,-5.6845 -0.84375,-7.0625 -1.44263,-2.8277 -2.47165,-3.2018 -9.59375,-3.5625 -1.13901,-0.058 -2.17781,-0.1107 -3.15625,-0.125 -0.85616,-0.012 -1.66546,-0.0223 -2.40625,0 z m 0.375,1.96875 c 0.85295,0 1.79585,0.009 2.8125,0.0312 11.11788,0.2402 11.70027,1.06935 9.9375,13.59375 -0.57247,4.0675 -1.47814,9.50995 -2,12.09375 -0.86453,4.2804 -1.07389,4.84005 -2.59375,6.40625 -2.09862,2.1625 -3.80841,2.28925 -6.28125,0.46875 -3.09492,-2.2785 -3.95149,-3.531 -4.75,-7 -0.41301,-1.7945 -1.22052,-4.93505 -1.78125,-6.96875 -1.04859,-3.8032 -2.34375,-11.66 -2.34375,-14.1875 0,-2.0044 0.77636,-3.5038 2.125,-4.0625 0.54042,-0.2233 2.31612,-0.3626 4.875,-0.375 z m -1.125,33.0625 c 0.5286,-0.052 1.45692,0.3572 2.90625,1.0625 3.13719,1.5268 4.14913,1.6561 6.78125,0.8125 l 0.9375,-0.34375 -0.21875,6.71875 c -0.13126,3.6765 -0.42904,10.0521 -0.65625,14.1875 -0.22719,4.1353 -0.40625,9.17215 -0.40625,11.15625 0,5.8441 -3.07366,18.1337 -5.46875,21.875 -0.97011,1.5152 -2.19016,2.02845 -3,1.21875 -0.37516,-0.3752 -0.78578,-1.17645 -0.9375,-1.78125 -0.1518,-0.6046 -0.1248,-8.98655 0.0625,-18.59375 0.48051,-24.6623 0.47744,-26.10175 -0.1875,-31.03125 -0.51132,-3.7895 -0.69353,-5.19465 0.1875,-5.28125 z" />
  </g>
</svg>
