<?xml version="1.0" encoding="UTF-8" standalone="no"?>
<!-- Created with Inkscape (http://www.inkscape.org/) -->

<svg
   xmlns:dc="http://purl.org/dc/elements/1.1/"
   xmlns:cc="http://creativecommons.org/ns#"
   xmlns:rdf="http://www.w3.org/1999/02/22-rdf-syntax-ns#"
   xmlns:svg="http://www.w3.org/2000/svg"
   xmlns="http://www.w3.org/2000/svg"
   xmlns:sodipodi="http://sodipodi.sourceforge.net/DTD/sodipodi-0.dtd"
   xmlns:inkscape="http://www.inkscape.org/namespaces/inkscape"
   width="900"
   height="800"
   id="svg2"
   version="1.1"
   inkscape:version="0.48.2 r9819"
   sodipodi:docname="m26.svg">
  <defs
     id="defs4" />
  <sodipodi:namedview
     id="base"
     pagecolor="#ffffff"
     bordercolor="#666666"
     borderopacity="1.0"
     inkscape:pageopacity="0.0"
     inkscape:pageshadow="2"
     inkscape:zoom="2"
     inkscape:cx="702.00206"
     inkscape:cy="88.124177"
     inkscape:document-units="px"
     inkscape:current-layer="layer1"
     showgrid="false"
     showguides="true"
     inkscape:guide-bbox="true"
     inkscape:window-width="1366"
     inkscape:window-height="746"
     inkscape:window-x="-8"
     inkscape:window-y="-8"
     inkscape:window-maximized="1"
     width="0px"
     height="0px"
     fit-margin-top="0"
     fit-margin-left="0"
     fit-margin-right="0"
     fit-margin-bottom="0">
    <sodipodi:guide
       orientation="1,0"
       position="450,784"
       id="guide3178" />
    <sodipodi:guide
       orientation="0,1"
       position="-61,400"
       id="guide3180" />
  </sodipodi:namedview>
  <metadata
     id="metadata7">
    <rdf:RDF>
      <cc:Work
         rdf:about="">
        <dc:format>image/svg+xml</dc:format>
        <dc:type
           rdf:resource="http://purl.org/dc/dcmitype/StillImage" />
        <dc:title></dc:title>
      </cc:Work>
    </rdf:RDF>
  </metadata>
  <g
     inkscape:label="Layer 1"
     inkscape:groupmode="layer"
     id="layer1"
     transform="translate(0,-252.36218)">
    <path
       id="rect3229"
       transform="translate(0,252.36218)"
       style="fill:#ff0000"
       d="m 522.375,658.1875 c -6.49526,0.0476 -6.22823,0.66659 -6.4375,7.28125 -0.18167,5.741 0.8982,16.04604 2.1875,21.09375 0.50922,1.99379 0.6875,5.73797 0.6875,13.28125 -0.004,13.52784 0.84519,31.87871 1.75,37.53125 2.35951,14.74049 2.85578,16.3991 7.0625,24.3125 3.01535,5.672 4.87889,8.15335 6.6875,8.90625 1.3212,0.5501 5.23675,0.57505 6.09375,0.0312 0.94909,-0.6007 0.48567,-4.62065 -1.125,-9.65625 -2.63516,-8.2385 -3.47471,-19.86236 -2.75,-38.34375 0.73234,-18.67367 1.57364,-27.30058 2.875,-29.40625 1.25048,-2.02319 3.4571,-12.51473 3.84375,-18.3125 0.41231,-6.18249 -0.21119,-12.8987 -1.28125,-13.96875 -1.68216,-1.68225 -8.04679,-2.75 -16.375,-2.75 -1.22516,10e-4 -2.29086,-0.006 -3.21875,0 z m -2.5,2.15625 6.21875,0.3125 c 6.34296,0.32751 10.63852,1.06405 13.1875,2.28125 1.32262,0.6317 1.45547,0.92399 1.6875,4.125 0.34858,4.80913 -0.27073,11.60262 -1.40625,15.4375 -0.52842,1.78458 -1.70889,5.84197 -2.59375,9.03125 -1.4365,5.17731 -1.7874,5.981 -3.46875,7.5 -1.9499,1.7615 -3.85844,2.14488 -6.15625,1.21875 -1.22875,-0.49545 -4.6297,-4.84096 -5.75,-7.375 -1.17474,-2.65717 -2.18669,-11.19842 -3.0625,-24.96875 -0.2721,-4.27877 -0.22051,-5.18155 0.5,-6.28125 l 0.84375,-1.28125 z m 1.625,37.625 c 0.44787,0.0639 1.52081,0.88057 2.59375,1.96875 2.55361,2.5901 4.3793,3.12825 8.03125,2.40625 1.33233,-0.26283 2.51596,-0.3596 2.65625,-0.21875 0.40745,0.40734 0.28165,4.10495 -0.21875,6.25 -0.66087,2.83363 -0.70898,33.12901 -0.0625,41.5 0.51928,6.7228 1.35307,10.52315 3.21875,14.90625 0.42804,1.0057 0.75,2.3777 0.75,3.0625 0,1.1251 -0.19163,1.25 -1.96875,1.25 -2.50001,0 -4.4976,-1.95875 -5.75,-5.59375 -0.38304,-1.1122 -0.87024,-2.25865 -1.09375,-2.53125 -0.67508,-0.8234 -3.98593,-10.98374 -5.25,-16.15625 -0.65171,-2.66664 -1.60654,-9.18767 -2.125,-14.5 -1.13614,-11.6395 -1.74781,-31.83107 -0.96875,-32.3125 0.0362,-0.022 0.12352,-0.0403 0.1875,-0.0312 z" />
  </g>
</svg>
