<?xml version="1.0" encoding="UTF-8" standalone="no"?>
<!-- Created with Inkscape (http://www.inkscape.org/) -->

<svg
   xmlns:dc="http://purl.org/dc/elements/1.1/"
   xmlns:cc="http://creativecommons.org/ns#"
   xmlns:rdf="http://www.w3.org/1999/02/22-rdf-syntax-ns#"
   xmlns:svg="http://www.w3.org/2000/svg"
   xmlns="http://www.w3.org/2000/svg"
   xmlns:sodipodi="http://sodipodi.sourceforge.net/DTD/sodipodi-0.dtd"
   xmlns:inkscape="http://www.inkscape.org/namespaces/inkscape"
   width="800"
   height="400"
   id="svg2"
   version="1.1"
   inkscape:version="0.48.2 r9819"
   sodipodi:docname="m26.svg">
  <defs
     id="defs4" />
  <sodipodi:namedview
     id="base"
     pagecolor="#ffffff"
     bordercolor="#666666"
     borderopacity="1.0"
     inkscape:pageopacity="0.0"
     inkscape:pageshadow="2"
     inkscape:zoom="2"
     inkscape:cx="333.22227"
     inkscape:cy="106.83685"
     inkscape:document-units="px"
     inkscape:current-layer="layer1"
     showgrid="false"
     showguides="true"
     inkscape:guide-bbox="true"
     inkscape:window-width="1366"
     inkscape:window-height="746"
     inkscape:window-x="-8"
     inkscape:window-y="-8"
     inkscape:window-maximized="1"
     width="0px"
     height="0px"
     fit-margin-top="0"
     fit-margin-left="0"
     fit-margin-right="0"
     fit-margin-bottom="0">
    <sodipodi:guide
       orientation="1,0"
       position="400.22244,349.31075"
       id="guide3178" />
    <sodipodi:guide
       orientation="0,1"
       position="-117.37973,199.40411"
       id="guide3180" />
  </sodipodi:namedview>
  <metadata
     id="metadata7">
    <rdf:RDF>
      <cc:Work
         rdf:about="">
        <dc:format>image/svg+xml</dc:format>
        <dc:type
           rdf:resource="http://purl.org/dc/dcmitype/StillImage" />
        <dc:title></dc:title>
      </cc:Work>
    </rdf:RDF>
  </metadata>
  <g
     inkscape:label="Layer 1"
     inkscape:groupmode="layer"
     id="layer1"
     transform="translate(0,-652.36218)">
    <path
       id="rect3589"
       transform="translate(0,652.36218)"
       style="fill:#ff0000"
       d="m 324.1875,236.75 c -1.56314,0 -2.53438,0.31091 -4.09375,1.34375 -1.12338,0.74418 -2.22635,1.7346 -2.46875,2.1875 -0.24243,0.45304 -1.76507,1.68942 -3.375,2.75 -5.96593,3.93042 -6.21598,4.97991 -2.84375,12.03125 2.78149,5.8161 5.36171,8.6029 8.84375,9.625 4.00482,1.1754 5.91669,0.99075 9.96875,-0.96875 3.39519,-1.6418 6.15625,-3.7231 6.15625,-4.6875 0,-0.2378 0.18527,-0.5406 0.4375,-0.625 0.25223,-0.084 0.63676,-1.0021 0.875,-2.0625 0.57065,-2.53976 -0.32759,-5.37151 -2.90625,-9.0625 -1.05668,-1.5125 -2.19647,-3.49478 -2.5625,-4.375 -1.8214,-4.37927 -4.17281,-6.15625 -8.03125,-6.15625 z m 0.5,1.3125 c 1.10282,-0.0435 2.18541,0.20454 2.875,0.6875 0.54444,0.38138 1.7918,2.36087 2.75,4.40625 0.95819,2.04538 2.19297,4.31883 2.75,5.0625 3.79221,5.06193 3.69674,8.94815 -0.28125,11.90625 -0.40935,0.3045 -1.00165,0.8312 -1.3125,1.125 -0.31084,0.2936 -1.68142,1.06055 -3.0625,1.71875 -1.39195,0.6632 -3.22608,1.16465 -4.125,1.15625 -2.09796,-0.02 -5.84407,-1.7726 -7.59375,-3.5625 -1.51992,-1.5547 -5.125,-9.2578 -5.125,-10.96875 0,-1.29698 0.89835,-1.4226 4.15625,-0.5 1.17993,0.33413 4.34347,1.02768 7,1.5625 3.9448,0.79387 5.44419,0.93602 8.25,0.65625 3.96874,-0.39539 3.16107,-0.94789 -1.5625,-1.0625 -1.55522,-0.0377 -4.20014,-0.43615 -5.875,-0.90625 -6.23084,-1.74864 -8.90625,-2.69369 -8.90625,-3.125 0,-0.57657 7.10261,-7.35975 8.15625,-7.78125 0.57466,-0.22966 1.24457,-0.34893 1.90625,-0.375 z" />
  </g>
</svg>
