<?xml version="1.0" encoding="UTF-8" standalone="no"?>
<!-- Created with Inkscape (http://www.inkscape.org/) -->

<svg
   xmlns:dc="http://purl.org/dc/elements/1.1/"
   xmlns:cc="http://creativecommons.org/ns#"
   xmlns:rdf="http://www.w3.org/1999/02/22-rdf-syntax-ns#"
   xmlns:svg="http://www.w3.org/2000/svg"
   xmlns="http://www.w3.org/2000/svg"
   xmlns:sodipodi="http://sodipodi.sourceforge.net/DTD/sodipodi-0.dtd"
   xmlns:inkscape="http://www.inkscape.org/namespaces/inkscape"
   width="900"
   height="800"
   id="svg2"
   version="1.1"
   inkscape:version="0.48.2 r9819"
   sodipodi:docname="f26.svg">
  <defs
     id="defs4" />
  <sodipodi:namedview
     id="base"
     pagecolor="#ffffff"
     bordercolor="#666666"
     borderopacity="1.0"
     inkscape:pageopacity="0.0"
     inkscape:pageshadow="2"
     inkscape:zoom="2"
     inkscape:cx="702.00206"
     inkscape:cy="168.12418"
     inkscape:document-units="px"
     inkscape:current-layer="layer1"
     showgrid="false"
     showguides="true"
     inkscape:guide-bbox="true"
     inkscape:window-width="1366"
     inkscape:window-height="746"
     inkscape:window-x="-8"
     inkscape:window-y="-8"
     inkscape:window-maximized="1"
     width="0px"
     height="0px"
     fit-margin-top="0"
     fit-margin-left="0"
     fit-margin-right="0"
     fit-margin-bottom="0">
    <sodipodi:guide
       orientation="1,0"
       position="450,784"
       id="guide3178" />
    <sodipodi:guide
       orientation="0,1"
       position="-61,400"
       id="guide3180" />
  </sodipodi:namedview>
  <metadata
     id="metadata7">
    <rdf:RDF>
      <cc:Work
         rdf:about="">
        <dc:format>image/svg+xml</dc:format>
        <dc:type
           rdf:resource="http://purl.org/dc/dcmitype/StillImage" />
        <dc:title></dc:title>
      </cc:Work>
    </rdf:RDF>
  </metadata>
  <g
     inkscape:label="Layer 1"
     inkscape:groupmode="layer"
     id="layer1"
     transform="translate(0,-252.36218)">
    <path
       id="rect3225"
       transform="translate(0,252.36218)"
       style="fill:#ff0000"
       d="m 534.59375,610.8125 c -0.96691,-0.004 -1.97025,0.32355 -3.65625,0.96875 -3.27702,1.25409 -4.58562,2.57743 -6.9375,7.0625 -0.99013,1.88808 -2.1915,3.86003 -2.6875,4.40625 -1.66542,1.83364 -3.46875,5.17513 -3.46875,6.375 0,1.14427 2.61694,6.63471 3.40625,7.15625 0.21122,0.13957 0.95458,1.192 1.65625,2.3125 0.70167,1.12036 2.01225,2.53146 2.90625,3.15625 0.89401,0.62448 1.73972,1.29472 1.875,1.46875 0.13524,0.17414 0.90731,0.67515 1.71875,1.09375 1.94836,1.00549 4.19256,1.03142 7.0625,0.0937 5.45546,-1.78436 15.28125,-15.08101 15.28125,-20.65625 0,-1.17506 -2.139,-3.32872 -5.3125,-5.34375 -0.99454,-0.63158 -2.67148,-2.24835 -3.75,-3.59375 -1.40217,-1.74909 -2.70377,-2.74124 -4.5625,-3.5 -1.60918,-0.65691 -2.56434,-0.99641 -3.53125,-1 z m 0.84375,1.5 c 0.28719,-0.005 0.556,0.0372 0.78125,0.0937 1.55008,0.38895 4.74884,3.01894 5.90625,4.84375 l 1,1.53125 -1.15625,0.78125 c -0.64163,0.42987 -3.00258,1.39073 -5.1875,2.125 -3.00606,1.01008 -4.94172,1.2993 -8,1.3125 -4.5302,0.0198 -4.35389,0.28683 -2.4375,-3.84375 0.55195,-1.18987 1.62582,-2.89235 2.40625,-3.78125 1.3799,-1.57138 4.67715,-3.03018 6.6875,-3.0625 z m 10.59375,8.875 c 0.7748,0.06 1.28055,0.34304 1.75,0.8125 1.92902,1.929 1.43654,3.76063 -3.65625,13.46875 -1.18206,2.25305 -5.22641,6.05298 -7.46875,7.03125 -0.87033,0.37967 -2.54157,0.6875 -3.71875,0.6875 -1.75989,0 -2.49831,-0.32739 -4.28125,-1.84375 -1.19256,-1.01434 -2.87498,-2.58457 -3.6875,-3.53125 -0.81251,-0.94668 -2.14829,-2.41922 -3,-3.25 -1.63394,-1.59401 -2.52256,-4.68326 -1.90625,-6.625 0.50387,-1.58757 4.26622,-2.94825 9.5625,-3.4375 2.57579,-0.23813 6.65945,-1.02697 9.09375,-1.75 3.17801,-0.94372 5.1258,-1.42154 6.4375,-1.53125 0.32793,-0.0274 0.61673,-0.0512 0.875,-0.0312 z" />
  </g>
</svg>
