<?xml version="1.0" encoding="UTF-8" standalone="no"?>
<!-- Created with Inkscape (http://www.inkscape.org/) -->

<svg
   xmlns:dc="http://purl.org/dc/elements/1.1/"
   xmlns:cc="http://creativecommons.org/ns#"
   xmlns:rdf="http://www.w3.org/1999/02/22-rdf-syntax-ns#"
   xmlns:svg="http://www.w3.org/2000/svg"
   xmlns="http://www.w3.org/2000/svg"
   xmlns:sodipodi="http://sodipodi.sourceforge.net/DTD/sodipodi-0.dtd"
   xmlns:inkscape="http://www.inkscape.org/namespaces/inkscape"
   width="800"
   height="700"
   id="svg2"
   version="1.1"
   inkscape:version="0.48.2 r9819"
   sodipodi:docname="m26.svg">
  <defs
     id="defs4" />
  <sodipodi:namedview
     id="base"
     pagecolor="#ffffff"
     bordercolor="#666666"
     borderopacity="1.0"
     inkscape:pageopacity="0.0"
     inkscape:pageshadow="2"
     inkscape:zoom="1.767767"
     inkscape:cx="516.88149"
     inkscape:cy="116.65407"
     inkscape:document-units="px"
     inkscape:current-layer="layer1"
     showgrid="false"
     showguides="true"
     inkscape:guide-bbox="true"
     inkscape:window-width="1366"
     inkscape:window-height="746"
     inkscape:window-x="-8"
     inkscape:window-y="-8"
     inkscape:window-maximized="1"
     width="0px"
     height="0px"
     fit-margin-top="0"
     fit-margin-left="0"
     fit-margin-right="0"
     fit-margin-bottom="0">
    <sodipodi:guide
       orientation="1,0"
       position="400.22244,349.31075"
       id="guide3178" />
    <sodipodi:guide
       orientation="0,1"
       position="400.22244,349.31075"
       id="guide3180" />
  </sodipodi:namedview>
  <metadata
     id="metadata7">
    <rdf:RDF>
      <cc:Work
         rdf:about="">
        <dc:format>image/svg+xml</dc:format>
        <dc:type
           rdf:resource="http://purl.org/dc/dcmitype/StillImage" />
        <dc:title></dc:title>
      </cc:Work>
    </rdf:RDF>
  </metadata>
  <g
     inkscape:label="Layer 1"
     inkscape:groupmode="layer"
     id="layer1"
     transform="translate(0,-352.36218)">
    <path
       id="rect3322"
       transform="translate(0,352.36218)"
       style="fill:#ff0000"
       d="m 473.875,540.28125 c -0.85532,-0.004 -1.75857,0.27301 -3.25,0.84375 -2.89886,1.10936 -4.04452,2.31376 -6.125,6.28125 -0.87587,1.67021 -1.93624,3.42306 -2.375,3.90625 -1.47322,1.62204 -3.09375,4.53235 -3.09375,5.59375 0,1.0122 2.33304,5.9136 3.03125,6.375 0.18685,0.1235 0.84806,1.04005 1.46875,2.03125 0.6207,0.991 1.77166,2.22855 2.5625,2.78125 0.79083,0.5524 1.53657,1.1585 1.65625,1.3125 0.11964,0.154 0.78218,0.5671 1.5,0.9375 1.72351,0.8894 3.74251,0.92335 6.28125,0.0937 4.8259,-1.5785 13.53125,-13.31812 13.53125,-18.25 0,-1.03946 -1.91148,-2.93625 -4.71875,-4.71875 -0.87976,-0.5587 -2.3897,-1.99734 -3.34375,-3.1875 -1.24037,-1.54724 -2.38703,-2.4538 -4.03125,-3.125 -1.42349,-0.58109 -2.2384,-0.87182 -3.09375,-0.875 z m 0.71875,1.34375 c 0.25406,-0.005 0.5195,0.0439 0.71875,0.0937 1.37121,0.34407 4.1949,2.66702 5.21875,4.28125 l 0.875,1.34375 -1.03125,0.6875 c -0.56757,0.38027 -2.62972,1.22548 -4.5625,1.875 -2.65916,0.89353 -4.38837,1.14457 -7.09375,1.15625 -4.00741,0.0175 -3.85148,0.27892 -2.15625,-3.375 0.48826,-1.05256 1.43464,-2.58869 2.125,-3.375 1.22066,-1.39004 4.1279,-2.65891 5.90625,-2.6875 z m 9.375,7.84375 c 0.68539,0.053 1.14724,0.30345 1.5625,0.71875 1.70643,1.70639 1.2551,3.31845 -3.25,11.90625 -1.04564,1.9931 -4.61018,5.35335 -6.59375,6.21875 -0.7699,0.3358 -2.2399,0.625 -3.28125,0.625 -1.55679,0 -2.23531,-0.2837 -3.8125,-1.625 -1.05494,-0.8973 -2.53125,-2.31885 -3.25,-3.15625 -0.71875,-0.8375 -1.90283,-2.10885 -2.65625,-2.84375 -1.4454,-1.41 -2.2327,-4.15737 -1.6875,-5.875 0.44571,-1.40438 3.78367,-2.59845 8.46875,-3.03125 2.27856,-0.21065 5.90911,-0.92291 8.0625,-1.5625 2.81128,-0.83482 4.52715,-1.24669 5.6875,-1.34375 0.29008,-0.0243 0.52154,-0.0489 0.75,-0.0312 z" />
  </g>
</svg>
