<?xml version="1.0" encoding="UTF-8" standalone="no"?>
<!-- Created with Inkscape (http://www.inkscape.org/) -->

<svg
   xmlns:dc="http://purl.org/dc/elements/1.1/"
   xmlns:cc="http://creativecommons.org/ns#"
   xmlns:rdf="http://www.w3.org/1999/02/22-rdf-syntax-ns#"
   xmlns:svg="http://www.w3.org/2000/svg"
   xmlns="http://www.w3.org/2000/svg"
   xmlns:sodipodi="http://sodipodi.sourceforge.net/DTD/sodipodi-0.dtd"
   xmlns:inkscape="http://www.inkscape.org/namespaces/inkscape"
   width="800"
   height="700"
   id="svg2"
   version="1.1"
   inkscape:version="0.48.2 r9819"
   sodipodi:docname="l14.svg">
  <defs
     id="defs4" />
  <sodipodi:namedview
     id="base"
     pagecolor="#ffffff"
     bordercolor="#666666"
     borderopacity="1.0"
     inkscape:pageopacity="0.0"
     inkscape:pageshadow="2"
     inkscape:zoom="2"
     inkscape:cx="720.52502"
     inkscape:cy="573.01465"
     inkscape:document-units="px"
     inkscape:current-layer="layer1"
     showgrid="false"
     showguides="true"
     inkscape:guide-bbox="true"
     inkscape:window-width="1366"
     inkscape:window-height="746"
     inkscape:window-x="-8"
     inkscape:window-y="-8"
     inkscape:window-maximized="1"
     width="0px"
     height="0px"
     fit-margin-top="0"
     fit-margin-left="0"
     fit-margin-right="0"
     fit-margin-bottom="0">
    <sodipodi:guide
       orientation="1,0"
       position="400.22244,349.31075"
       id="guide3178" />
    <sodipodi:guide
       orientation="0,1"
       position="400.22244,349.31075"
       id="guide3180" />
  </sodipodi:namedview>
  <metadata
     id="metadata7">
    <rdf:RDF>
      <cc:Work
         rdf:about="">
        <dc:format>image/svg+xml</dc:format>
        <dc:type
           rdf:resource="http://purl.org/dc/dcmitype/StillImage" />
        <dc:title></dc:title>
      </cc:Work>
    </rdf:RDF>
  </metadata>
  <g
     inkscape:label="Layer 1"
     inkscape:groupmode="layer"
     id="layer1"
     transform="translate(0,-352.36218)">
    <path
       id="rect3071"
       transform="translate(0,352.36218)"
       style="fill:#ff0000"
       d="m 618.71875,30.03125 c -1.05357,-0.008 -2.16934,0.19642 -2.78125,0.625 -1.37965,0.96635 -5.09052,7.03336 -6.125,10 -0.50065,1.4356 -1.28714,3.61617 -1.75,4.8125 -1.36205,3.52021 -2.25,6.57359 -2.25,7.71875 0,0.58786 -0.29348,2.01297 -0.65625,3.1875 -0.36275,1.17452 -1.61862,7.8113 -2.8125,14.75 -1.19392,6.93871 -2.38604,13.38667 -2.625,14.34375 -0.23903,0.95706 -0.80173,3.70108 -1.28125,6.09375 -0.47949,2.39266 -1.37282,5.92963 -1.96875,7.84375 -0.596,1.91413 -1.09369,3.89712 -1.09375,4.40625 0,0.5091 -0.24107,1.59942 -0.5625,2.40625 -0.32144,0.80684 -0.85987,3.80498 -1.15625,6.6875 -0.46986,4.56924 -0.42888,5.67217 0.1875,8.65625 0.38884,1.88254 0.86033,3.69462 1.03125,4 0.50495,0.9023 5.83707,5.375 6.40625,5.375 0.28761,0 0.79659,0.35405 1.125,0.75 0.67799,0.81756 2.69609,1.72435 5.5625,2.53125 4.78028,1.34564 6.97091,0.61649 11.75,-3.9375 1.55525,-1.48197 3.60276,-3.12247 4.5,-3.65625 0.95228,-0.5665 1.59375,-1.30909 1.59375,-1.78125 0,-0.44491 0.20477,-0.91866 0.4375,-1.0625 0.23279,-0.14386 0.62085,-1.02499 0.875,-1.96875 0.38926,-1.44566 0.30815,-2.39045 -0.65625,-5.96875 -0.62956,-2.33605 -1.73649,-5.43941 -2.46875,-6.875 -0.73224,-1.43561 -1.5748,-3.08931 -1.875,-3.6875 -0.55041,-1.09674 -1.68564,-6.78556 -2.4375,-12.40625 -1.39673,-10.44065 -1.69829,-33.87844 -0.5625,-42.625 1.11581,-8.59213 1.38531,-10.32661 2.09375,-12.5625 0.88536,-2.79479 0.88921,-6.11084 0,-7 -0.4365,-0.43636 -1.44644,-0.64832 -2.5,-0.65625 z m -0.0312,1.875 c 0.65839,0.0566 0.68889,1.15397 0.25,3.4375 -1.55741,8.10334 -1.85036,10.68895 -2.5,21.65625 -0.41555,7.01629 -0.6164,14.3082 -0.46875,17.625 0.34582,7.76905 0.97558,16.16583 1.375,18.25 l 0.34375,1.75 -1.53125,-1.21875 c -1.35686,-1.0349 -1.98715,-1.15625 -4.625,-1.15625 -4.01648,0 -7.49321,1.27839 -9.96875,3.75 -1.63738,1.63477 -2.28152,2.12501 -2.28125,1.75 4.2e-4,-0.63238 1.56586,-7.95274 2.40625,-11.28125 0.59144,-2.34241 1.09375,-5.02333 1.09375,-5.9375 0,-0.91415 0.36873,-3.70169 0.84375,-6.1875 0.47502,-2.48579 1.08666,-5.68941 1.34375,-7.125 0.68945,-3.84905 3.40347,-15.13746 4.59375,-19.09375 0.56945,-1.89293 1.05438,-3.84397 1.0625,-4.34375 0.0313,-1.71822 4.45652,-9.53096 6.1875,-10.90625 0.86227,-0.68517 1.47996,-1.00273 1.875,-0.96875 z m -8.875,62.5625 c 0.43401,-0.0133 0.92609,-0.0054 1.53125,0.03125 1.8383,0.1113 3.11565,0.44097 3.90625,1.03125 1.4298,1.0675 1.51029,1.21545 2.96875,5.8125 0.64526,2.03375 2.41301,6.31213 3.9375,9.5 3.098,6.47805 3.89666,9.57728 3.03125,11.625 -0.49529,1.17201 -5.47626,6.16468 -8.125,8.15625 -0.56777,0.42689 -2.00648,1.0868 -3.1875,1.4375 -1.18101,0.35072 -2.23896,0.59047 -2.375,0.5625 -0.13605,-0.0279 -1.30905,-0.22496 -2.625,-0.4375 -2.97637,-0.48067 -7.23416,-2.54375 -9.3125,-4.5625 -0.86656,-0.84164 -2.18172,-2.61654 -2.9375,-3.9375 L 595.25,121.25 595.5,116 c 0.28648,-6.32411 1.81606,-12.01194 3.5625,-13.15625 0.92984,-0.60925 1.92912,-1.87851 3.59375,-4.6875 0.28504,-0.48106 1.70934,-1.56582 3.21875,-2.375 1.83562,-0.98382 2.63549,-1.27303 3.9375,-1.3125 z" />
  </g>
</svg>
