<?xml version="1.0" encoding="UTF-8" standalone="no"?>
<!-- Created with Inkscape (http://www.inkscape.org/) -->

<svg
   xmlns:dc="http://purl.org/dc/elements/1.1/"
   xmlns:cc="http://creativecommons.org/ns#"
   xmlns:rdf="http://www.w3.org/1999/02/22-rdf-syntax-ns#"
   xmlns:svg="http://www.w3.org/2000/svg"
   xmlns="http://www.w3.org/2000/svg"
   xmlns:sodipodi="http://sodipodi.sourceforge.net/DTD/sodipodi-0.dtd"
   xmlns:inkscape="http://www.inkscape.org/namespaces/inkscape"
   width="900"
   height="800"
   id="svg2"
   version="1.1"
   inkscape:version="0.48+devel r11738"
   sodipodi:docname="f13.svg">
  <defs
     id="defs4" />
  <sodipodi:namedview
     id="base"
     pagecolor="#ffffff"
     bordercolor="#666666"
     borderopacity="1.0"
     inkscape:pageopacity="0.0"
     inkscape:pageshadow="2"
     inkscape:zoom="1.4142136"
     inkscape:cx="594.63024"
     inkscape:cy="663.51941"
     inkscape:document-units="px"
     inkscape:current-layer="layer1"
     showgrid="false"
     showguides="true"
     inkscape:guide-bbox="true"
     inkscape:window-width="1366"
     inkscape:window-height="705"
     inkscape:window-x="-4"
     inkscape:window-y="-4"
     inkscape:window-maximized="1"
     width="0px"
     height="0px"
     fit-margin-top="0"
     fit-margin-left="0"
     fit-margin-right="0"
     fit-margin-bottom="0">
    <sodipodi:guide
       orientation="1,0"
       position="450,784"
       id="guide3178" />
    <sodipodi:guide
       orientation="0,1"
       position="-61,400"
       id="guide3180" />
  </sodipodi:namedview>
  <metadata
     id="metadata7">
    <rdf:RDF>
      <cc:Work
         rdf:about="">
        <dc:format>image/svg+xml</dc:format>
        <dc:type
           rdf:resource="http://purl.org/dc/dcmitype/StillImage" />
        <dc:title></dc:title>
      </cc:Work>
    </rdf:RDF>
  </metadata>
  <g
     inkscape:label="Layer 1"
     inkscape:groupmode="layer"
     id="layer1"
     transform="translate(0,-252.36218)">
    <path
       id="rect97"
       transform="translate(0,252.36218)"
       style="fill:#ff0000;fill-opacity:1;stroke:none"
       d="m 698.34375,33.96875 c -1.19101,-0.009 -2.43329,0.23427 -3.125,0.71875 -1.55964,1.09242 -5.76806,7.95884 -6.9375,11.3125 -0.56595,1.62288 -1.44552,4.08511 -1.96875,5.4375 -1.53974,3.97943 -2.53125,7.42418 -2.53125,8.71875 0,0.66453 -0.37117,2.29724 -0.78125,3.625 -0.41008,1.32774 -1.83787,8.81238 -3.1875,16.65625 -1.34968,7.84389 -2.66736,15.13682 -2.9375,16.21875 -0.2702,1.0819 -0.92668,4.20146 -1.46875,6.90625 -0.54204,2.70479 -1.54507,6.67993 -2.21875,8.84375 -0.67375,2.16384 -1.21869,4.42443 -1.21875,5 0,0.57551 -0.29289,1.77541 -0.65625,2.6875 -0.36338,0.91209 -0.94619,4.33519 -1.28125,7.59375 -0.53115,5.16531 -0.47804,6.40789 0.21875,9.78125 0.43957,2.12812 0.93179,4.1548 1.125,4.5 0.57081,1.02002 6.60657,6.09375 7.25,6.09375 0.32512,0 0.91,0.39614 1.28125,0.84375 0.76643,0.92421 3.07215,1.96284 6.3125,2.875 5.40388,1.52118 7.8787,0.67931 13.28125,-4.46875 1.75812,-1.67531 4.04821,-3.5216 5.0625,-4.125 1.0765,-0.64042 1.8125,-1.46623 1.8125,-2 0,-0.50294 0.20564,-1.05614 0.46875,-1.21875 0.26315,-0.16263 0.71268,-1.18311 1,-2.25 0.44004,-1.63424 0.34019,-2.70489 -0.75,-6.75 -0.7117,-2.64078 -1.95345,-6.12714 -2.78125,-7.75 -0.82777,-1.62289 -1.78563,-3.48004 -2.125,-4.15625 -0.62221,-1.23983 -1.86881,-7.67733 -2.71875,-14.03125 -1.57893,-11.80268 -1.94023,-38.29993 -0.65625,-48.1875 1.26136,-9.71299 1.57415,-11.69117 2.375,-14.21875 1.00087,-3.15937 1.00521,-6.86984 0,-7.875 C 700.69405,34.25671 699.53476,33.97771 698.34375,33.96875 z m -0.0312,2.125 c 0.74429,0.0639 0.77739,1.29356 0.28125,3.875 -1.76059,9.16043 -2.10936,12.10198 -2.84375,24.5 -0.46976,7.9316 -0.66691,16.15676 -0.5,19.90625 0.39092,8.78256 1.11099,18.30019 1.5625,20.65625 l 0.375,1.96875 -1.75,-1.375 c -1.53386,-1.16991 -2.23676,-1.3125 -5.21875,-1.3125 -4.54043,0 -8.45152,1.48722 -11.25,4.28125 -1.851,1.84804 -2.59407,2.39267 -2.59375,1.96875 4.7e-4,-0.71489 1.76874,-9.01854 2.71875,-12.78125 0.66859,-2.64799 1.21875,-5.68531 1.21875,-6.71875 0,-1.0334 0.43176,-4.15866 0.96875,-6.96875 0.53698,-2.81007 1.24061,-6.43962 1.53125,-8.0625 0.77938,-4.35116 3.84194,-17.12133 5.1875,-21.59375 0.64374,-2.13985 1.17832,-4.34128 1.1875,-4.90625 0.0354,-1.94238 5.04321,-10.7578 7,-12.3125 C 697.16227,36.4442 697.86593,36.05533 698.3125,36.09375 z m -10.03125,70.71875 c 0.49062,-0.0149 1.03464,-0.01 1.71875,0.0312 2.07811,0.12581 3.54375,0.52022 4.4375,1.1875 1.61632,1.20677 1.69501,1.39701 3.34375,6.59375 0.72942,2.29906 2.71413,7.11502 4.4375,10.71875 3.50213,7.32314 4.4158,10.81014 3.4375,13.125 -0.55991,1.32491 -6.19322,6.99863 -9.1875,9.25 -0.64183,0.4826 -2.25868,1.19729 -3.59375,1.59375 -1.33508,0.39648 -2.5337,0.68787 -2.6875,0.65625 -0.15378,-0.0316 -1.48113,-0.25973 -2.96875,-0.5 -3.36465,-0.54337 -8.18178,-2.87415 -10.53125,-5.15625 -0.9796,-0.95143 -2.48937,-2.97547 -3.34375,-4.46875 l -1.53125,-2.71875 0.28125,-5.96875 c 0.32385,-7.1491 2.05696,-13.55014 4.03125,-14.84375 1.05113,-0.68871 2.18073,-2.13706 4.0625,-5.3125 0.32225,-0.54381 1.94993,-1.74152 3.65625,-2.65625 C 685.91885,107.23156 686.80939,106.85712 688.28125,106.8125 Z" />
  </g>
</svg>
