<?xml version="1.0" encoding="UTF-8" standalone="no"?>
<!-- Created with Inkscape (http://www.inkscape.org/) -->

<svg
   xmlns:dc="http://purl.org/dc/elements/1.1/"
   xmlns:cc="http://creativecommons.org/ns#"
   xmlns:rdf="http://www.w3.org/1999/02/22-rdf-syntax-ns#"
   xmlns:svg="http://www.w3.org/2000/svg"
   xmlns="http://www.w3.org/2000/svg"
   xmlns:sodipodi="http://sodipodi.sourceforge.net/DTD/sodipodi-0.dtd"
   xmlns:inkscape="http://www.inkscape.org/namespaces/inkscape"
   width="800"
   height="400"
   id="svg2"
   version="1.1"
   inkscape:version="0.48.2 r9819"
   sodipodi:docname="f13.svg">
  <defs
     id="defs4" />
  <sodipodi:namedview
     id="base"
     pagecolor="#ffffff"
     bordercolor="#666666"
     borderopacity="1.0"
     inkscape:pageopacity="0.0"
     inkscape:pageshadow="2"
     inkscape:zoom="2.8284271"
     inkscape:cx="618.40625"
     inkscape:cy="291.22065"
     inkscape:document-units="px"
     inkscape:current-layer="layer1"
     showgrid="false"
     showguides="true"
     inkscape:guide-bbox="true"
     inkscape:window-width="1366"
     inkscape:window-height="746"
     inkscape:window-x="-8"
     inkscape:window-y="-8"
     inkscape:window-maximized="1"
     width="0px"
     height="0px"
     fit-margin-top="0"
     fit-margin-left="0"
     fit-margin-right="0"
     fit-margin-bottom="0">
    <sodipodi:guide
       orientation="1,0"
       position="400.22244,349.31075"
       id="guide3178" />
    <sodipodi:guide
       orientation="0,1"
       position="-117.37973,199.40411"
       id="guide3180" />
  </sodipodi:namedview>
  <metadata
     id="metadata7">
    <rdf:RDF>
      <cc:Work
         rdf:about="">
        <dc:format>image/svg+xml</dc:format>
        <dc:type
           rdf:resource="http://purl.org/dc/dcmitype/StillImage" />
        <dc:title></dc:title>
      </cc:Work>
    </rdf:RDF>
  </metadata>
  <g
     inkscape:label="Layer 1"
     inkscape:groupmode="layer"
     id="layer1"
     transform="translate(0,-652.36218)">
    <path
       id="rect3179"
       transform="translate(0,652.36218)"
       style="fill:#ff0000"
       d="m 620.28125,21.75 c -1.0536,-0.008 -2.16935,0.19642 -2.78125,0.625 -1.3796,0.96635 -5.0906,7.06461 -6.125,10.03125 -0.5007,1.4356 -1.2872,3.58492 -1.75,4.78125 -1.3621,3.52021 -2.25,6.57359 -2.25,7.71875 0,0.58786 -0.29345,2.04422 -0.65625,3.21875 -0.3627,1.17452 -1.64995,7.78005 -2.84375,14.71875 -1.194,6.93871 -2.35485,13.38667 -2.59375,14.34375 -0.239,0.95706 -0.833,3.70108 -1.3125,6.09375 -0.4795,2.39266 -1.37275,5.92963 -1.96875,7.84375 -0.596,1.91413 -1.0624,3.92837 -1.0625,4.4375 0,0.5091 -0.27235,1.56817 -0.59375,2.375 -0.3214,0.80684 -0.8286,3.80498 -1.125,6.6875 -0.4699,4.56924 -0.4289,5.70342 0.1875,8.6875 0.3889,1.88254 0.8291,3.66337 1,3.96875 0.505,0.9023 5.8683,5.40625 6.4375,5.40625 0.2876,0 0.76535,0.3228 1.09375,0.71875 0.678,0.81756 2.72735,1.72435 5.59375,2.53125 4.7803,1.34564 6.9709,0.61649 11.75,-3.9375 1.5552,-1.48197 3.57145,-3.12247 4.46875,-3.65625 0.9523,-0.5665 1.625,-1.30909 1.625,-1.78125 0,-0.44491 0.17355,-0.91866 0.40625,-1.0625 0.2328,-0.14386 0.65215,-1.02499 0.90625,-1.96875 0.3893,-1.44566 0.2769,-2.39045 -0.6875,-5.96875 -0.6295,-2.33605 -1.73655,-5.43941 -2.46875,-6.875 -0.7323,-1.43561 -1.5748,-3.08931 -1.875,-3.6875 -0.5504,-1.09674 -1.65435,-6.78556 -2.40625,-12.40625 -1.3967,-10.44065 -1.6983,-33.87844 -0.5625,-42.625 1.1158,-8.59213 1.38535,-10.32661 2.09375,-12.5625 0.8854,-2.79479 0.8892,-6.11084 0,-7 -0.4367,-0.43636 -1.4465,-0.64832 -2.5,-0.65625 z m -0.0312,1.875 c 0.6583,0.0566 0.6889,1.15397 0.25,3.4375 -1.5574,8.10334 -1.88165,10.68895 -2.53125,21.65625 -0.4156,7.01629 -0.5852,14.3082 -0.4375,17.625 0.3458,7.76905 0.9756,16.16583 1.375,18.25 l 0.34375,1.75 -1.5625,-1.21875 c -1.3568,-1.0349 -1.95585,-1.15625 -4.59375,-1.15625 -4.0164,0 -7.49325,1.30964 -9.96875,3.78125 -1.6374,1.63477 -2.28145,2.12501 -2.28125,1.75 5e-4,-0.63238 1.56585,-7.98399 2.40625,-11.3125 0.5914,-2.34241 1.0625,-5.02333 1.0625,-5.9375 0,-0.91415 0.4,-3.67044 0.875,-6.15625 0.475,-2.48579 1.08665,-5.72066 1.34375,-7.15625 0.6895,-3.84905 3.40345,-15.13746 4.59375,-19.09375 0.5694,-1.89293 1.02315,-3.84397 1.03125,-4.34375 0.031,-1.71822 4.48775,-9.49971 6.21875,-10.875 0.8621,-0.68517 1.48,-1.03398 1.875,-1 z m -8.875,62.5625 c 0.434,-0.0133 0.92615,-0.0054 1.53125,0.03125 1.8383,0.1113 3.11565,0.44097 3.90625,1.03125 1.4298,1.0675 1.479,1.21545 2.9375,5.8125 0.6452,2.03375 2.413,6.31213 3.9375,9.5 3.098,6.47805 3.9279,9.57728 3.0625,11.625 -0.4953,1.17201 -5.4763,6.16468 -8.125,8.15625 -0.5678,0.42689 -2.0065,1.0868 -3.1875,1.4375 -1.181,0.35072 -2.2389,0.59047 -2.375,0.5625 -0.136,-0.0279 -1.3091,-0.22496 -2.625,-0.4375 -2.9764,-0.48067 -7.2342,-2.54375 -9.3125,-4.5625 -0.8666,-0.84164 -2.21295,-2.61654 -2.96875,-3.9375 L 596.8125,113 l 0.25,-5.28125 c 0.2865,-6.32411 1.8161,-12.01194 3.5625,-13.15625 0.9298,-0.60925 1.8979,-1.87851 3.5625,-4.6875 0.2851,-0.48106 1.7406,-1.53457 3.25,-2.34375 1.8354,-0.98382 2.6354,-1.30428 3.9375,-1.34375 z" />
  </g>
</svg>
