<?xml version="1.0" encoding="UTF-8" standalone="no"?>
<!-- Created with Inkscape (http://www.inkscape.org/) -->

<svg
   xmlns:dc="http://purl.org/dc/elements/1.1/"
   xmlns:cc="http://creativecommons.org/ns#"
   xmlns:rdf="http://www.w3.org/1999/02/22-rdf-syntax-ns#"
   xmlns:svg="http://www.w3.org/2000/svg"
   xmlns="http://www.w3.org/2000/svg"
   xmlns:sodipodi="http://sodipodi.sourceforge.net/DTD/sodipodi-0.dtd"
   xmlns:inkscape="http://www.inkscape.org/namespaces/inkscape"
   width="800"
   height="700"
   id="svg2"
   version="1.1"
   inkscape:version="0.48.2 r9819"
   sodipodi:docname="m13.svg">
  <defs
     id="defs4" />
  <sodipodi:namedview
     id="base"
     pagecolor="#ffffff"
     bordercolor="#666666"
     borderopacity="1.0"
     inkscape:pageopacity="0.0"
     inkscape:pageshadow="2"
     inkscape:zoom="2"
     inkscape:cx="720.52502"
     inkscape:cy="473.01465"
     inkscape:document-units="px"
     inkscape:current-layer="layer1"
     showgrid="false"
     showguides="true"
     inkscape:guide-bbox="true"
     inkscape:window-width="1366"
     inkscape:window-height="746"
     inkscape:window-x="-8"
     inkscape:window-y="-8"
     inkscape:window-maximized="1"
     width="0px"
     height="0px"
     fit-margin-top="0"
     fit-margin-left="0"
     fit-margin-right="0"
     fit-margin-bottom="0">
    <sodipodi:guide
       orientation="1,0"
       position="400.22244,349.31075"
       id="guide3178" />
    <sodipodi:guide
       orientation="0,1"
       position="400.22244,349.31075"
       id="guide3180" />
  </sodipodi:namedview>
  <metadata
     id="metadata7">
    <rdf:RDF>
      <cc:Work
         rdf:about="">
        <dc:format>image/svg+xml</dc:format>
        <dc:type
           rdf:resource="http://purl.org/dc/dcmitype/StillImage" />
        <dc:title></dc:title>
      </cc:Work>
    </rdf:RDF>
  </metadata>
  <g
     inkscape:label="Layer 1"
     inkscape:groupmode="layer"
     id="layer1"
     transform="translate(0,-352.36218)">
    <path
       id="rect3079"
       transform="translate(0,352.36218)"
       style="fill:#ff0000"
       d="m 617.53125,205.84375 c -1.14917,0.0843 -2.23315,0.48483 -4.03125,1.25 -2.24755,0.95641 -3.97544,2.15177 -6.21875,4.25 -1.71327,1.60241 -3.73656,3.36511 -4.5,3.9375 -0.76341,0.57236 -1.91103,1.844 -2.53125,2.78125 -1.1135,1.68256 -1.12226,1.70446 -0.625,5.4375 0.53735,4.03423 2.59711,11.50916 3.21875,11.75 0.20588,0.0797 0.375,0.44332 0.375,0.75 0,0.30672 0.33389,1.02314 0.78125,1.59375 0.44736,0.57064 0.98465,1.69381 1.15625,2.53125 0.17157,0.83743 0.711,2.78851 1.1875,4.34375 0.70832,2.31166 0.92125,4.90965 1.25,14.15625 0.41413,11.64839 1.02456,19.74057 1.6875,22.40625 0.20815,0.83742 0.6177,2.5903 0.90625,3.90625 1.68218,7.67195 6.90008,20.5357 9,22.1875 1.60808,1.26492 2.98308,1.09534 4.46875,-0.53125 2.16155,-2.36658 2.31316,-3.45724 1.0625,-8.375 -0.60739,-2.38824 -1.41935,-7.07576 -1.8125,-10.40625 -0.62494,-5.29405 -0.63475,-7.00375 -0.15625,-13.5 0.63451,-8.61431 1.13494,-13.09772 1.96875,-17.65625 0.32824,-1.79453 0.81092,-4.90374 1.09375,-6.9375 0.64929,-4.66843 2.82311,-13.58994 3.875,-15.875 1.54408,-3.35431 3.96875,-11.03858 3.96875,-12.59375 0,-0.86367 -0.3394,-2.77322 -0.75,-4.25 -0.65745,-2.36468 -1.17196,-3.10989 -4.25,-6.25 -3.3915,-3.4599 -3.5554,-3.59875 -6.59375,-4.28125 -2.12562,-0.47742 -3.38204,-0.70925 -4.53125,-0.625 z m 0.1875,1.9375 c 0.36622,-0.0101 0.75397,-0.008 1.1875,0 1.81958,0.0328 3.77068,0.3196 4.34375,0.625 1.57227,0.83782 4.7308,3.20093 4.75,3.5625 0.01,0.17508 0.65024,1.00093 1.46875,1.84375 1.27989,1.31797 1.54842,1.94061 1.8125,4.40625 0.1689,1.57674 0.18538,3.90765 0.0312,5.21875 -0.28381,2.41463 -1.68372,5.8125 -2.40625,5.8125 -0.21687,0 -0.49652,0.36254 -0.625,0.78125 -0.23125,0.75423 -0.0524,-1.68543 0.4375,-5.625 0.13967,-1.12356 0.13597,-2.61482 -0.0312,-3.28125 -0.43571,-1.73596 -6.10098,-7.00779 -8.875,-8.28125 -2.09856,-0.96343 -2.49316,-1.02489 -4.34375,-0.5625 -2.33365,0.58311 -5.3827,2.38346 -8.625,5.09375 -2.41749,2.0208 -2.85045,2.17048 -3.5625,1.3125 -0.5283,-0.63662 2.02847,-3.5163 5.09375,-5.75 0.98505,-0.71778 2.3087,-1.73351 2.96875,-2.28125 2.66791,-2.21371 3.81145,-2.80726 6.375,-2.875 z m -1,5.65625 c 1.14284,0 6.0625,2.28771 6.0625,2.8125 0,0.1568 0.98988,1.28331 2.1875,2.5 3.10817,3.15761 3.43586,4.42682 2.1875,8.3125 -0.19219,0.59815 -1.00204,3.24308 -1.78125,5.875 -2.54674,8.60274 -2.72181,9.05315 -4.59375,10.125 -2.16588,1.24018 -6.38258,1.37931 -8,0.25 -3.58,-2.49951 -6.09889,-8.38748 -7,-16.46875 -0.43503,-3.90138 -0.3951,-4.14398 0.65625,-6.21875 0.59937,-1.18279 1.84924,-2.76179 2.78125,-3.5 2.27798,-1.80407 6.11217,-3.6875 7.5,-3.6875 z m -15.125,6.6875 c 0.99044,0 2.46875,2.13873 2.46875,3.5625 0,2.07321 1.32649,9.53608 2.1875,12.4375 0.44378,1.49543 0.61983,2.6875 0.40625,2.6875 -0.21366,0 -0.96684,-1.22962 -1.65625,-2.75 -2.7589,-6.08457 -4.8692,-15.9375 -3.40625,-15.9375 z m 5.75,21.34375 c 0.30934,-0.0505 1.07575,0.45307 2,1.46875 1.58025,1.73654 5.2274,3.28125 7.78125,3.28125 1.84817,0 5.21875,-1.14756 5.21875,-1.78125 0,-0.21331 0.27797,-0.375 0.625,-0.375 0.34701,0 0.85892,-0.33129 1.125,-0.75 0.58177,-0.91558 0.56398,-0.86494 -1.25,11.84375 -2.63565,18.46511 -2.88826,21.98129 -2.28125,30.5 0.31025,4.35424 0.83932,7.9568 1.5625,10.65625 1.16103,4.33372 1.39297,7.31091 0.65625,8.6875 -0.24766,0.46279 -0.70932,0.77775 -1,0.75 -1.0906,-0.10411 -2.0625,-0.42015 -2.0625,-0.71875 0,-0.17 -0.66415,-1.35888 -1.5,-2.65625 -0.83579,-1.29737 -1.62882,-3.05825 -1.78125,-3.90625 -0.15243,-0.84797 -0.44791,-1.72946 -0.625,-1.96875 -0.34481,-0.46594 -2.61754,-8.00159 -3.96875,-13.15625 -0.45216,-1.72514 -1.00815,-5.06387 -1.25,-7.40625 -0.24188,-2.34241 -0.67367,-6.03409 -0.9375,-8.1875 -0.26368,-2.15338 -0.35735,-5.41477 -0.21875,-7.25 0.32202,-4.26427 -0.97427,-15.59771 -2.09375,-18.28125 -0.19832,-0.47544 -0.1856,-0.71965 0,-0.75 z" />
  </g>
</svg>
