<?xml version="1.0" encoding="UTF-8" standalone="no"?>
<!-- Created with Inkscape (http://www.inkscape.org/) -->

<svg
   xmlns:dc="http://purl.org/dc/elements/1.1/"
   xmlns:cc="http://creativecommons.org/ns#"
   xmlns:rdf="http://www.w3.org/1999/02/22-rdf-syntax-ns#"
   xmlns:svg="http://www.w3.org/2000/svg"
   xmlns="http://www.w3.org/2000/svg"
   xmlns:sodipodi="http://sodipodi.sourceforge.net/DTD/sodipodi-0.dtd"
   xmlns:inkscape="http://www.inkscape.org/namespaces/inkscape"
   width="900"
   height="800"
   id="svg2"
   version="1.1"
   inkscape:version="0.48+devel r11738"
   sodipodi:docname="l13.svg">
  <defs
     id="defs4" />
  <sodipodi:namedview
     id="base"
     pagecolor="#ffffff"
     bordercolor="#666666"
     borderopacity="1.0"
     inkscape:pageopacity="0.0"
     inkscape:pageshadow="2"
     inkscape:zoom="1.4142136"
     inkscape:cx="594.63024"
     inkscape:cy="528.34852"
     inkscape:document-units="px"
     inkscape:current-layer="layer1"
     showgrid="false"
     showguides="true"
     inkscape:guide-bbox="true"
     inkscape:window-width="1366"
     inkscape:window-height="705"
     inkscape:window-x="-4"
     inkscape:window-y="-4"
     inkscape:window-maximized="1"
     width="0px"
     height="0px"
     fit-margin-top="0"
     fit-margin-left="0"
     fit-margin-right="0"
     fit-margin-bottom="0">
    <sodipodi:guide
       orientation="1,0"
       position="450,784"
       id="guide3178" />
    <sodipodi:guide
       orientation="0,1"
       position="-61,400"
       id="guide3180" />
  </sodipodi:namedview>
  <metadata
     id="metadata7">
    <rdf:RDF>
      <cc:Work
         rdf:about="">
        <dc:format>image/svg+xml</dc:format>
        <dc:type
           rdf:resource="http://purl.org/dc/dcmitype/StillImage" />
        <dc:title></dc:title>
      </cc:Work>
    </rdf:RDF>
  </metadata>
  <g
     inkscape:label="Layer 1"
     inkscape:groupmode="layer"
     id="layer1"
     transform="translate(0,-252.36218)">
    <path
       id="rect105"
       transform="translate(0,252.36218)"
       style="fill:#ff0000;fill-opacity:1;stroke:none"
       d="m 697,232.75 c -1.2991,0.0953 -2.49856,0.54127 -4.53125,1.40625 -2.54074,1.08118 -4.52655,2.44054 -7.0625,4.8125 -1.93678,1.81144 -4.23072,3.79044 -5.09375,4.4375 -0.86302,0.64704 -2.11137,2.06548 -2.8125,3.125 -1.25877,1.90205 -1.28089,1.96747 -0.71875,6.1875 0.60746,4.56051 2.92225,13.00899 3.625,13.28125 0.23273,0.0901 0.40625,0.46582 0.40625,0.8125 0,0.34673 0.40054,1.16744 0.90625,1.8125 0.50571,0.64507 1.08728,1.92833 1.28125,2.875 0.19396,0.94668 0.8051,3.14812 1.34375,4.90625 0.80073,2.61322 1.06586,5.54716 1.4375,16 0.46816,13.16796 1.15684,22.29906 1.90625,25.3125 0.23532,0.94665 0.6738,2.91862 1,4.40625 1.90161,8.67276 7.81362,23.22647 10.1875,25.09375 1.81785,1.42993 3.38302,1.24503 5.0625,-0.59375 2.44353,-2.67532 2.60132,-3.90945 1.1875,-9.46875 -0.68662,-2.6998 -1.58682,-7.98504 -2.03125,-11.75 -0.70647,-5.98467 -0.72842,-7.9063 -0.1875,-15.25 0.71729,-9.73807 1.27617,-14.81554 2.21875,-19.96875 0.37107,-2.02861 0.93026,-5.54468 1.25,-7.84375 0.73398,-5.27744 3.18589,-15.38559 4.375,-17.96875 1.74553,-3.79188 4.5,-12.4607 4.5,-14.21875 0,-0.97634 -0.41086,-3.14307 -0.875,-4.8125 -0.74322,-2.67318 -1.30167,-3.51275 -4.78125,-7.0625 -3.83392,-3.91124 -4.03405,-4.07221 -7.46875,-4.84375 C 699.72209,232.8978 698.29912,232.65474 697,232.75 z m 0.21875,2.1875 c 0.41398,-0.0115 0.85367,-0.009 1.34375,0 2.05697,0.037 4.25842,0.34228 4.90625,0.6875 1.77738,0.94712 5.32204,3.62253 5.34375,4.03125 0.0104,0.19792 0.76222,1.10971 1.6875,2.0625 1.44686,1.4899 1.76399,2.2127 2.0625,5 0.19094,1.78242 0.20554,4.45536 0.0312,5.9375 -0.32082,2.72962 -1.90195,6.5625 -2.71875,6.5625 -0.24515,0 -0.5735,0.37042 -0.71875,0.84375 -0.26142,0.85262 -0.0536,-1.89023 0.5,-6.34375 0.15789,-1.27012 0.15774,-2.93414 -0.0312,-3.6875 -0.49255,-1.96242 -6.89535,-7.93541 -10.03125,-9.375 -2.37234,-1.08909 -2.81423,-1.17896 -4.90625,-0.65625 -2.63808,0.65916 -6.11597,2.71739 -9.78125,5.78125 -2.73287,2.28441 -3.19506,2.43866 -4,1.46875 -0.59723,-0.71965 2.28486,-3.97492 5.75,-6.5 1.11356,-0.81142 2.59758,-1.9433 3.34375,-2.5625 C 693.01596,235.68501 694.32077,235.01407 697.21875,234.9375 z m -1.125,6.40625 c 1.2919,0 6.84375,2.563 6.84375,3.15625 0,0.17725 1.1149,1.43709 2.46875,2.8125 3.51365,3.56953 3.91121,5.01367 2.5,9.40625 -0.21727,0.67618 -1.1504,3.68098 -2.03125,6.65625 -2.87896,9.72499 -3.07136,10.22584 -5.1875,11.4375 -2.44842,1.40198 -7.23407,1.52662 -9.0625,0.25 -4.04702,-2.82559 -6.8876,-9.45826 -7.90625,-18.59375 -0.49179,-4.41033 -0.46976,-4.68583 0.71875,-7.03125 0.67755,-1.33711 2.13391,-3.10298 3.1875,-3.9375 C 690.20017,243.46058 694.52486,241.34375 696.09375,241.34375 Z M 679,248.875 c 1.11963,0 2.78125,2.42175 2.78125,4.03125 0,2.34367 1.49542,10.78256 2.46875,14.0625 0.50168,1.6905 0.67895,3.0625 0.4375,3.0625 -0.24152,0 -1.06442,-1.40629 -1.84375,-3.125 C 679.72494,260.02793 677.34619,248.875 679,248.875 Z M 685.5,273 c 0.3497,-0.0571 1.20517,0.53931 2.25,1.6875 1.78638,1.96307 5.92551,3.6875 8.8125,3.6875 2.08928,0 5.875,-1.28364 5.875,-2 0,-0.24113 0.32645,-0.4375 0.71875,-0.4375 0.39228,0 0.94919,-0.40166 1.25,-0.875 0.65766,-1.03502 0.64438,-0.96033 -1.40625,13.40625 -2.97949,20.87393 -3.2487,24.86999 -2.5625,34.5 0.35072,4.92225 0.93248,8.97965 1.75,12.03125 1.3125,4.89906 1.58282,8.28758 0.75,9.84375 -0.27998,0.52317 -0.79638,0.87512 -1.125,0.84375 -1.23286,-0.1177 -2.3125,-0.47495 -2.3125,-0.8125 0,-0.19217 -0.77389,-1.56465 -1.71875,-3.03125 -0.94484,-1.46661 -1.85893,-3.44764 -2.03125,-4.40625 -0.17231,-0.9586 -0.48729,-1.94826 -0.6875,-2.21875 -0.38979,-0.52672 -2.94128,-9.04789 -4.46875,-14.875 -0.51115,-1.95018 -1.16409,-5.72704 -1.4375,-8.375 -0.27344,-2.64798 -0.73301,-6.81568 -1.03125,-9.25 -0.29807,-2.4343 -0.4067,-6.11284 -0.25,-8.1875 0.36401,-4.82055 -1.1095,-17.65389 -2.375,-20.6875 C 685.27582,273.30629 685.29019,273.03432 685.5,273 Z" />
  </g>
</svg>
