<?xml version="1.0" encoding="UTF-8" standalone="no"?>
<!-- Created with Inkscape (http://www.inkscape.org/) -->

<svg
   xmlns:dc="http://purl.org/dc/elements/1.1/"
   xmlns:cc="http://creativecommons.org/ns#"
   xmlns:rdf="http://www.w3.org/1999/02/22-rdf-syntax-ns#"
   xmlns:svg="http://www.w3.org/2000/svg"
   xmlns="http://www.w3.org/2000/svg"
   xmlns:sodipodi="http://sodipodi.sourceforge.net/DTD/sodipodi-0.dtd"
   xmlns:inkscape="http://www.inkscape.org/namespaces/inkscape"
   width="800"
   height="700"
   id="svg2"
   version="1.1"
   inkscape:version="0.48.2 r9819"
   sodipodi:docname="f13.svg">
  <defs
     id="defs4" />
  <sodipodi:namedview
     id="base"
     pagecolor="#ffffff"
     bordercolor="#666666"
     borderopacity="1.0"
     inkscape:pageopacity="0.0"
     inkscape:pageshadow="2"
     inkscape:zoom="2"
     inkscape:cx="720.52502"
     inkscape:cy="473.01465"
     inkscape:document-units="px"
     inkscape:current-layer="layer1"
     showgrid="false"
     showguides="true"
     inkscape:guide-bbox="true"
     inkscape:window-width="1366"
     inkscape:window-height="746"
     inkscape:window-x="-8"
     inkscape:window-y="-8"
     inkscape:window-maximized="1"
     width="0px"
     height="0px"
     fit-margin-top="0"
     fit-margin-left="0"
     fit-margin-right="0"
     fit-margin-bottom="0">
    <sodipodi:guide
       orientation="1,0"
       position="400.22244,349.31075"
       id="guide3178" />
    <sodipodi:guide
       orientation="0,1"
       position="400.22244,349.31075"
       id="guide3180" />
  </sodipodi:namedview>
  <metadata
     id="metadata7">
    <rdf:RDF>
      <cc:Work
         rdf:about="">
        <dc:format>image/svg+xml</dc:format>
        <dc:type
           rdf:resource="http://purl.org/dc/dcmitype/StillImage" />
        <dc:title></dc:title>
      </cc:Work>
    </rdf:RDF>
  </metadata>
  <g
     inkscape:label="Layer 1"
     inkscape:groupmode="layer"
     id="layer1"
     transform="translate(0,-352.36218)">
    <path
       id="rect3075"
       transform="translate(0,352.36218)"
       style="fill:#ff0000"
       d="m 610.65625,149.78125 c -2.25225,-0.004 -5.33465,0.66969 -6.3125,1.53125 -0.50627,0.44615 -2.03049,1.46891 -3.40625,2.28125 -1.37578,0.8124 -2.5,1.62451 -2.5,1.8125 0,0.188 -1.35988,1.7646 -3,3.5 -1.64008,1.73539 -3.2259,3.57113 -3.5,4.09375 -0.95379,1.81903 -0.55946,6.74733 0.84375,11.09375 1.88169,5.82821 2.0006,6.29309 2.78125,9.9375 1.54299,7.20343 5.61205,10.81147 12.875,11.40625 2.33561,0.19126 4.15631,-0.57406 6.9375,-2.90625 3.93205,-3.2973 9.5761,-14.51761 10.5,-20.90625 0.88218,-6.10016 0.93794,-7.18227 0.40625,-10 -0.58927,-3.12294 -1.40014,-4.18931 -4.84375,-6.53125 -1.0554,-0.71781 -2.89537,-2.04128 -4.09375,-2.9375 -1.19835,-0.89623 -2.43935,-1.6554 -2.78125,-1.65625 -0.34191,-8.2e-4 -1.26075,-0.22137 -2.03125,-0.5 -0.45674,-0.16512 -1.12426,-0.2176 -1.875,-0.21875 z m -0.8125,1.625 c 2.37111,-0.0503 4.71113,0.92319 7.1875,2.96875 1.37418,1.13504 3.22031,2.5103 4.125,3.0625 1.75316,1.07009 3.07348,3.22297 3.53125,5.75 0.51048,2.81819 -1.566,12.56248 -3.4375,16.1875 -0.59814,1.1586 -1.0625,2.33798 -1.0625,2.625 0,1.1107 -4.47966,7.67173 -6.34375,9.3125 -1.15583,1.01748 -2.73854,1.93259 -3.875,2.21875 -2.58961,0.65207 -2.71728,0.65019 -5.21875,-0.5625 -4.2003,-2.03625 -6.1746,-4.57064 -7.03125,-9.0625 -0.72755,-3.81496 -0.74314,-4.25 -0.125,-4.25 0.26464,0 0.86512,-0.43125 1.3125,-1 1.12468,-1.42982 2.35871,-1.68352 3.625,-0.6875 0.95702,0.75284 1.0279,1.09236 0.84375,3.34375 l -0.21875,2.46875 0.65625,-1.71875 c 0.73069,-1.94586 2.35034,-3.55469 4,-3.96875 0.83841,-0.21041 1.41665,0.0211 2.40625,0.96875 0.71103,0.6812 1.39291,1.69858 1.53125,2.25 0.19985,0.79622 0.39651,0.86584 0.875,0.46875 0.33133,-0.27499 0.59375,-0.80793 0.59375,-1.21875 0,-0.41085 0.52951,-1.02026 1.1875,-1.34375 l 1.1875,-0.5625 -1.0625,-0.15625 c -3.40477,-0.46112 -4.02514,-1.35507 -1.8125,-2.625 1.3033,-0.74798 3.37448,-3.46927 2.96875,-3.875 -0.12969,-0.12967 -1.00601,0.59005 -1.96875,1.5625 -0.96283,0.97246 -2.15891,1.75 -2.65625,1.75 -0.76477,0 -0.875,-0.278 -0.875,-1.75 0,-2.18917 -0.65893,-2.22676 -1.34375,-0.0937 -0.28808,0.89723 -0.85126,1.9856 -1.21875,2.40625 -0.62383,0.71406 -0.72235,0.70676 -1.46875,0.0312 -0.52001,-0.47058 -0.78125,-1.31484 -0.78125,-2.4375 0,-1.48485 -0.0637,-1.68466 -0.625,-1.21875 -0.35891,0.29787 -0.6875,1.21559 -0.6875,2.03125 0,0.87134 -0.23514,1.58112 -0.59375,1.71875 -0.66911,0.25674 -4.1875,-1.37034 -4.1875,-1.9375 0,-0.19397 -0.52952,-0.59837 -1.1875,-0.9375 -0.65798,-0.33913 -1.3242,-0.82284 -1.5,-1.0625 -0.17889,-0.24387 -0.33967,-0.10108 -0.34375,0.34375 -0.005,0.4371 0.58694,1.36815 1.3125,2.09375 1.40205,1.40211 1.40343,2.03327 0.0312,3.8125 l -0.78125,1.0625 -1.34375,-3.46875 c -1.75211,-4.54876 -2.46251,-8.16584 -2.09375,-10.625 0.26971,-1.79885 0.76463,-2.44991 5.03125,-6.75 3.14614,-3.17084 5.47278,-5.13921 7.0625,-5.9375 1.52088,-0.76358 2.95234,-1.15735 4.375,-1.1875 z" />
  </g>
</svg>
