<?xml version="1.0" encoding="UTF-8" standalone="no"?>
<!-- Created with Inkscape (http://www.inkscape.org/) -->

<svg
   xmlns:dc="http://purl.org/dc/elements/1.1/"
   xmlns:cc="http://creativecommons.org/ns#"
   xmlns:rdf="http://www.w3.org/1999/02/22-rdf-syntax-ns#"
   xmlns:svg="http://www.w3.org/2000/svg"
   xmlns="http://www.w3.org/2000/svg"
   xmlns:sodipodi="http://sodipodi.sourceforge.net/DTD/sodipodi-0.dtd"
   xmlns:inkscape="http://www.inkscape.org/namespaces/inkscape"
   width="800"
   height="400"
   id="svg2"
   version="1.1"
   inkscape:version="0.48.2 r9819"
   sodipodi:docname="m13.svg">
  <defs
     id="defs4" />
  <sodipodi:namedview
     id="base"
     pagecolor="#ffffff"
     bordercolor="#666666"
     borderopacity="1.0"
     inkscape:pageopacity="0.0"
     inkscape:pageshadow="2"
     inkscape:zoom="2.8284271"
     inkscape:cx="618.40625"
     inkscape:cy="290.50963"
     inkscape:document-units="px"
     inkscape:current-layer="layer1"
     showgrid="false"
     showguides="true"
     inkscape:guide-bbox="true"
     inkscape:window-width="1366"
     inkscape:window-height="746"
     inkscape:window-x="-8"
     inkscape:window-y="-8"
     inkscape:window-maximized="1"
     width="0px"
     height="0px"
     fit-margin-top="0"
     fit-margin-left="0"
     fit-margin-right="0"
     fit-margin-bottom="0">
    <sodipodi:guide
       orientation="1,0"
       position="400.22244,349.31075"
       id="guide3178" />
    <sodipodi:guide
       orientation="0,1"
       position="-117.37973,199.40411"
       id="guide3180" />
  </sodipodi:namedview>
  <metadata
     id="metadata7">
    <rdf:RDF>
      <cc:Work
         rdf:about="">
        <dc:format>image/svg+xml</dc:format>
        <dc:type
           rdf:resource="http://purl.org/dc/dcmitype/StillImage" />
        <dc:title></dc:title>
      </cc:Work>
    </rdf:RDF>
  </metadata>
  <g
     inkscape:label="Layer 1"
     inkscape:groupmode="layer"
     id="layer1"
     transform="translate(0,-652.36218)">
    <path
       id="rect3159"
       transform="translate(0,652.36218)"
       style="fill:#ff0000"
       d="m 612.1875,141.5 c -2.2522,-0.004 -5.3347,0.66969 -6.3125,1.53125 -0.5063,0.44615 -2.03045,1.46891 -3.40625,2.28125 -1.3758,0.8124 -2.5,1.62451 -2.5,1.8125 0,0.188 -1.32865,1.7646 -2.96875,3.5 -1.6401,1.73539 -3.2259,3.57113 -3.5,4.09375 -0.9538,1.81903 -0.5907,6.77858 0.8125,11.125 1.8817,5.82821 2.0319,6.29309 2.8125,9.9375 1.543,7.20343 5.58085,10.78022 12.84375,11.375 2.3356,0.19126 4.18755,-0.57406 6.96875,-2.90625 3.9321,-3.2973 9.54485,-14.51761 10.46875,-20.90625 0.8822,-6.10016 0.93795,-7.18227 0.40625,-10 -0.5893,-3.12294 -1.3689,-4.18931 -4.8125,-6.53125 -1.0554,-0.71781 -2.89535,-2.04128 -4.09375,-2.9375 -1.1983,-0.89623 -2.4706,-1.62415 -2.8125,-1.625 -0.3419,-8.2e-4 -1.26075,-0.25262 -2.03125,-0.53125 -0.4567,-0.16512 -1.1243,-0.2176 -1.875,-0.21875 z m -0.78125,1.625 c 2.3711,-0.0503 4.7112,0.92319 7.1875,2.96875 1.3742,1.13504 3.2203,2.5103 4.125,3.0625 1.7532,1.07009 3.07355,3.22297 3.53125,5.75 0.5105,2.81819 -1.566,12.56248 -3.4375,16.1875 -0.5982,1.1586 -1.09375,2.36923 -1.09375,2.65625 0,1.1107 -4.4484,7.64048 -6.3125,9.28125 -1.1558,1.01748 -2.7385,1.93259 -3.875,2.21875 -2.5896,0.65207 -2.7485,0.65019 -5.25,-0.5625 -4.2003,-2.03625 -6.1434,-4.53939 -7,-9.03125 -0.7276,-3.81496 -0.7431,-4.28125 -0.125,-4.28125 0.2647,0 0.83385,-0.43125 1.28125,-1 1.1247,-1.42982 2.3587,-1.65227 3.625,-0.65625 0.957,0.75284 1.0592,1.06111 0.875,3.3125 l -0.21875,2.46875 0.65625,-1.6875 c 0.7307,-1.94586 2.3504,-3.55469 4,-3.96875 0.8385,-0.21041 1.3854,-0.0102 2.375,0.9375 0.711,0.6812 1.4241,1.69858 1.5625,2.25 0.1998,0.79622 0.36525,0.86584 0.84375,0.46875 0.3313,-0.27499 0.625,-0.80793 0.625,-1.21875 0,-0.41085 0.49825,-1.02026 1.15625,-1.34375 l 1.21875,-0.5625 -1.09375,-0.15625 c -3.4048,-0.46112 -4.0251,-1.35507 -1.8125,-2.625 1.3033,-0.74798 3.4057,-3.46927 3,-3.875 -0.1297,-0.12967 -1.00595,0.59005 -1.96875,1.5625 -0.9628,0.97246 -2.15885,1.75 -2.65625,1.75 -0.7648,0 -0.90625,-0.278 -0.90625,-1.75 0,-2.18917 -0.6277,-2.22676 -1.3125,-0.0937 -0.2881,0.89723 -0.85125,1.9856 -1.21875,2.40625 -0.6238,0.71406 -0.72235,0.70676 -1.46875,0.0312 -0.52,-0.47058 -0.78125,-1.31484 -0.78125,-2.4375 0,-1.48485 -0.0951,-1.65341 -0.65625,-1.1875 -0.3589,0.29787 -0.65625,1.21559 -0.65625,2.03125 0,0.87134 -0.23515,1.58112 -0.59375,1.71875 -0.6692,0.25674 -4.1875,-1.37034 -4.1875,-1.9375 0,-0.19397 -0.5295,-0.62962 -1.1875,-0.96875 -0.658,-0.33913 -1.35545,-0.79159 -1.53125,-1.03125 -0.1788,-0.24387 -0.3084,-0.10108 -0.3125,0.34375 0,0.4371 0.5869,1.36815 1.3125,2.09375 1.402,1.40211 1.40315,2.03327 0.0312,3.8125 l -0.8125,1.03125 -1.3125,-3.46875 c -1.7521,-4.54876 -2.46245,-8.16584 -2.09375,-10.625 0.2697,-1.79885 0.7333,-2.41866 5,-6.71875 3.1461,-3.17084 5.50405,-5.13921 7.09375,-5.9375 1.5206,-0.76358 2.9524,-1.1886 4.375,-1.21875 z" />
  </g>
</svg>
