<?xml version="1.0" encoding="UTF-8" standalone="no"?>
<!-- Created with Inkscape (http://www.inkscape.org/) -->

<svg
   xmlns:dc="http://purl.org/dc/elements/1.1/"
   xmlns:cc="http://creativecommons.org/ns#"
   xmlns:rdf="http://www.w3.org/1999/02/22-rdf-syntax-ns#"
   xmlns:svg="http://www.w3.org/2000/svg"
   xmlns="http://www.w3.org/2000/svg"
   xmlns:sodipodi="http://sodipodi.sourceforge.net/DTD/sodipodi-0.dtd"
   xmlns:inkscape="http://www.inkscape.org/namespaces/inkscape"
   width="900"
   height="800"
   id="svg2"
   version="1.1"
   inkscape:version="0.48+devel r11738"
   sodipodi:docname="m13.svg">
  <defs
     id="defs4" />
  <sodipodi:namedview
     id="base"
     pagecolor="#ffffff"
     bordercolor="#666666"
     borderopacity="1.0"
     inkscape:pageopacity="0.0"
     inkscape:pageshadow="2"
     inkscape:zoom="1.4142136"
     inkscape:cx="594.63024"
     inkscape:cy="528.34852"
     inkscape:document-units="px"
     inkscape:current-layer="layer1"
     showgrid="false"
     showguides="true"
     inkscape:guide-bbox="true"
     inkscape:window-width="1366"
     inkscape:window-height="705"
     inkscape:window-x="-4"
     inkscape:window-y="-4"
     inkscape:window-maximized="1"
     width="0px"
     height="0px"
     fit-margin-top="0"
     fit-margin-left="0"
     fit-margin-right="0"
     fit-margin-bottom="0">
    <sodipodi:guide
       orientation="1,0"
       position="450,784"
       id="guide3178" />
    <sodipodi:guide
       orientation="0,1"
       position="-61,400"
       id="guide3180" />
  </sodipodi:namedview>
  <metadata
     id="metadata7">
    <rdf:RDF>
      <cc:Work
         rdf:about="">
        <dc:format>image/svg+xml</dc:format>
        <dc:type
           rdf:resource="http://purl.org/dc/dcmitype/StillImage" />
        <dc:title></dc:title>
      </cc:Work>
    </rdf:RDF>
  </metadata>
  <g
     inkscape:label="Layer 1"
     inkscape:groupmode="layer"
     id="layer1"
     transform="translate(0,-252.36218)">
    <path
       id="rect101"
       transform="translate(0,252.36218)"
       style="fill:#ff0000;fill-opacity:1;stroke:none"
       d="m 689.21875,169.34375 c -2.54606,-0.004 -6.0196,0.77604 -7.125,1.75 -0.57232,0.50435 -2.28851,1.64418 -3.84375,2.5625 -1.55526,0.91838 -2.84375,1.84998 -2.84375,2.0625 0,0.21252 -1.52094,1.9757 -3.375,3.9375 -1.85403,1.96177 -3.62766,4.03422 -3.9375,4.625 -1.07822,2.05634 -0.68003,7.64906 0.90625,12.5625 2.12716,6.58851 2.305,7.13016 3.1875,11.25 1.74428,8.14314 6.32082,12.20265 14.53125,12.875 2.64031,0.21622 4.69975,-0.64482 7.84375,-3.28125 4.445,-3.72743 10.79933,-16.40294 11.84375,-23.625 0.99726,-6.89593 1.0698,-8.12719 0.46875,-11.3125 -0.66614,-3.53034 -1.54466,-4.75878 -5.4375,-7.40625 -1.19309,-0.81145 -3.27028,-2.26812 -4.625,-3.28125 -1.35468,-1.01313 -2.76975,-1.87402 -3.15625,-1.875 -0.38654,-9.2e-4 -1.44148,-0.27878 -2.3125,-0.59375 C 690.82743,169.40709 690.06744,169.34504 689.21875,169.34375 z m -0.90625,1.84375 c 2.68043,-0.0567 5.32558,1.06259 8.125,3.375 1.55344,1.28312 3.63354,2.81326 4.65625,3.4375 1.98187,1.20967 3.48251,3.64331 4,6.5 0.57708,3.18583 -1.75937,14.21459 -3.875,18.3125 -0.6762,1.30974 -1.21875,2.6443 -1.21875,2.96875 0,1.2556 -5.04899,8.67643 -7.15625,10.53125 -1.30663,1.1502 -3.09027,2.17651 -4.375,2.5 -2.92743,0.73713 -3.07845,0.7459 -5.90625,-0.625 -4.74823,-2.30188 -6.96909,-5.17218 -7.9375,-10.25 -0.82248,-4.31263 -0.85503,-4.8125 -0.15625,-4.8125 0.29915,0 0.96301,-0.48204 1.46875,-1.125 1.27141,-1.61635 2.66228,-1.90722 4.09375,-0.78125 1.08188,0.85105 1.17694,1.23617 0.96875,3.78125 l -0.25,2.8125 0.75,-1.9375 c 0.826,-2.1997 2.66641,-4.03193 4.53125,-4.5 0.9478,-0.23787 1.5688,0.0218 2.6875,1.09375 0.80378,0.77006 1.59361,1.90791 1.75,2.53125 0.22591,0.90009 0.42784,0.98015 0.96875,0.53125 0.37456,-0.31087 0.6875,-0.91058 0.6875,-1.375 0,-0.46444 0.59993,-1.16556 1.34375,-1.53125 l 1.34375,-0.625 -1.21875,-0.1875 c -3.84894,-0.52127 -4.53253,-1.50192 -2.03125,-2.9375 1.47333,-0.84557 3.83366,-3.91634 3.375,-4.375 -0.14659,-0.14659 -1.13042,0.65068 -2.21875,1.75 -1.08842,1.09931 -2.46903,1.96875 -3.03125,1.96875 -0.86456,0 -1,-0.30472 -1,-1.96875 0,-2.47476 -0.72585,-2.53628 -1.5,-0.125 -0.32567,1.01429 -0.95957,2.27447 -1.375,2.75 -0.70519,0.80721 -0.8125,0.79492 -1.65625,0.0312 -0.58784,-0.53198 -0.875,-1.51214 -0.875,-2.78125 0,-1.67856 -0.0842,-1.87045 -0.71875,-1.34375 -0.40573,0.33672 -0.78125,1.3592 -0.78125,2.28125 0,0.98502 -0.25088,1.78192 -0.65625,1.9375 -0.75642,0.29023 -4.75,-1.54635 -4.75,-2.1875 0,-0.21927 -0.59993,-0.67912 -1.34375,-1.0625 -0.74381,-0.38337 -1.52002,-0.91658 -1.71875,-1.1875 -0.20222,-0.27568 -0.33915,-0.12786 -0.34375,0.375 -0.005,0.49413 0.64853,1.55474 1.46875,2.375 1.58496,1.58502 1.58247,2.30116 0.0312,4.3125 l -0.90625,1.1875 -1.5,-3.90625 c -1.98067,-5.14217 -2.79189,-9.25129 -2.375,-12.03125 0.30489,-2.03353 0.86428,-2.76395 5.6875,-7.625 3.55657,-3.58447 6.2029,-5.78507 8,-6.6875 C 685.09431,171.69931 686.70426,171.22159 688.3125,171.1875 Z" />
  </g>
</svg>
