<?xml version="1.0" encoding="UTF-8" standalone="no"?>
<!-- Created with Inkscape (http://www.inkscape.org/) -->

<svg
   xmlns:dc="http://purl.org/dc/elements/1.1/"
   xmlns:cc="http://creativecommons.org/ns#"
   xmlns:rdf="http://www.w3.org/1999/02/22-rdf-syntax-ns#"
   xmlns:svg="http://www.w3.org/2000/svg"
   xmlns="http://www.w3.org/2000/svg"
   xmlns:sodipodi="http://sodipodi.sourceforge.net/DTD/sodipodi-0.dtd"
   xmlns:inkscape="http://www.inkscape.org/namespaces/inkscape"
   width="800"
   height="700"
   id="svg2"
   version="1.1"
   inkscape:version="0.48.2 r9819"
   sodipodi:docname="f8-fill.svg">
  <defs
     id="defs4" />
  <sodipodi:namedview
     id="base"
     pagecolor="#ffffff"
     bordercolor="#666666"
     borderopacity="1.0"
     inkscape:pageopacity="0.0"
     inkscape:pageshadow="2"
     inkscape:zoom="5"
     inkscape:cx="405.30934"
     inkscape:cy="601.12633"
     inkscape:document-units="px"
     inkscape:current-layer="layer1"
     showgrid="false"
     showguides="true"
     inkscape:guide-bbox="true"
     inkscape:window-width="1024"
     inkscape:window-height="538"
     inkscape:window-x="-8"
     inkscape:window-y="-8"
     inkscape:window-maximized="1"
     width="0px"
     height="0px"
     fit-margin-top="0"
     fit-margin-left="0"
     fit-margin-right="0"
     fit-margin-bottom="0">
    <sodipodi:guide
       orientation="1,0"
       position="400.22244,349.31075"
       id="guide3178" />
    <sodipodi:guide
       orientation="0,1"
       position="400.22244,349.31075"
       id="guide3180" />
  </sodipodi:namedview>
  <metadata
     id="metadata7">
    <rdf:RDF>
      <cc:Work
         rdf:about="">
        <dc:format>image/svg+xml</dc:format>
        <dc:type
           rdf:resource="http://purl.org/dc/dcmitype/StillImage" />
        <dc:title />
      </cc:Work>
    </rdf:RDF>
  </metadata>
  <g
     inkscape:label="Layer 1"
     inkscape:groupmode="layer"
     id="layer1"
     transform="translate(0,-352.36218)">
    <path
       id="rect3575"
       transform="translate(0,352.36218)"
       style="fill:#00ff00"
       d="m 373.5625,88.75 c -2.26944,-0.0031 -3.09919,0.21077 -4.59375,1.15625 -2.16288,1.36836 -4.10647,4.06082 -5.65625,7.9375 -0.61653,1.54223 -1.46425,3.22721 -1.90625,3.71875 -0.84189,0.93621 -2.25,3.55616 -2.25,4.21875 0,0.21239 -0.80366,2.0047 -1.78125,3.96875 -3.90298,7.84132 -5.44948,14.35751 -4.25,17.9375 0.46152,1.3775 0.99464,1.94389 2.53125,2.71875 1.72019,0.86743 2.65033,0.98935 8.0625,1.03125 3.35883,0.026 7.25191,0.19689 8.6875,0.375 4.0704,0.50515 9.65041,0.48118 11.65625,-0.0312 3.16519,-0.80862 4.12694,-1.89315 4.9375,-5.8125 0.62139,-3.00474 0.63782,-4.35898 0.21875,-10.21875 -0.26562,-3.7142 -0.68175,-7.4751 -0.90625,-8.3125 -1.58495,-5.91274 -2.05345,-7.38419 -3,-9.3125 -3.4293,-6.98607 -6.3803,-9.367 -11.75,-9.375 z" />
  </g>
</svg>
