<?xml version="1.0" encoding="UTF-8" standalone="no"?>
<!-- Created with Inkscape (http://www.inkscape.org/) -->

<svg
   xmlns:dc="http://purl.org/dc/elements/1.1/"
   xmlns:cc="http://creativecommons.org/ns#"
   xmlns:rdf="http://www.w3.org/1999/02/22-rdf-syntax-ns#"
   xmlns:svg="http://www.w3.org/2000/svg"
   xmlns="http://www.w3.org/2000/svg"
   xmlns:sodipodi="http://sodipodi.sourceforge.net/DTD/sodipodi-0.dtd"
   xmlns:inkscape="http://www.inkscape.org/namespaces/inkscape"
   width="800"
   height="700"
   id="svg2"
   version="1.1"
   inkscape:version="0.48.2 r9819"
   sodipodi:docname="f8.svg">
  <defs
     id="defs4" />
  <sodipodi:namedview
     id="base"
     pagecolor="#ffffff"
     bordercolor="#666666"
     borderopacity="1.0"
     inkscape:pageopacity="0.0"
     inkscape:pageshadow="2"
     inkscape:zoom="5"
     inkscape:cx="405.30934"
     inkscape:cy="599.04851"
     inkscape:document-units="px"
     inkscape:current-layer="layer1"
     showgrid="false"
     showguides="true"
     inkscape:guide-bbox="true"
     inkscape:window-width="1366"
     inkscape:window-height="746"
     inkscape:window-x="-8"
     inkscape:window-y="-8"
     inkscape:window-maximized="1"
     width="0px"
     height="0px"
     fit-margin-top="0"
     fit-margin-left="0"
     fit-margin-right="0"
     fit-margin-bottom="0">
    <sodipodi:guide
       orientation="1,0"
       position="400.22244,349.31075"
       id="guide3178" />
    <sodipodi:guide
       orientation="0,1"
       position="400.22244,349.31075"
       id="guide3180" />
  </sodipodi:namedview>
  <metadata
     id="metadata7">
    <rdf:RDF>
      <cc:Work
         rdf:about="">
        <dc:format>image/svg+xml</dc:format>
        <dc:type
           rdf:resource="http://purl.org/dc/dcmitype/StillImage" />
        <dc:title></dc:title>
      </cc:Work>
    </rdf:RDF>
  </metadata>
  <g
     inkscape:label="Layer 1"
     inkscape:groupmode="layer"
     id="layer1"
     transform="translate(0,-352.36218)">
    <path
       style="fill:#ff0000"
       d="m 373.5625,441.11218 c 5.3697,0.008 8.3207,2.38893 11.75,9.375 0.94655,1.92831 1.41505,3.39976 3,9.3125 0.2245,0.8374 0.64063,4.5983 0.90625,8.3125 0.41907,5.85977 0.40264,7.21401 -0.21875,10.21875 -0.81056,3.91935 -1.77231,5.00388 -4.9375,5.8125 -2.00584,0.51243 -7.58585,0.53635 -11.65625,0.0312 -1.43559,-0.17811 -5.32867,-0.34899 -8.6875,-0.375 -5.41217,-0.0419 -6.34231,-0.16382 -8.0625,-1.03125 -1.53661,-0.77486 -2.06973,-1.34125 -2.53125,-2.71875 -1.19948,-3.57999 0.34702,-10.09618 4.25,-17.9375 0.97759,-1.96405 1.78125,-3.75636 1.78125,-3.96875 0,-0.66259 1.40811,-3.28254 2.25,-4.21875 0.442,-0.49154 1.28972,-2.17652 1.90625,-3.71875 1.54978,-3.87668 3.49337,-6.56914 5.65625,-7.9375 1.49456,-0.94548 2.32431,-1.1593 4.59375,-1.15625 z"
       id="rect3098" />
  </g>
</svg>
