<?xml version="1.0" encoding="UTF-8" standalone="no"?>
<!-- Created with Inkscape (http://www.inkscape.org/) -->

<svg
   xmlns:dc="http://purl.org/dc/elements/1.1/"
   xmlns:cc="http://creativecommons.org/ns#"
   xmlns:rdf="http://www.w3.org/1999/02/22-rdf-syntax-ns#"
   xmlns:svg="http://www.w3.org/2000/svg"
   xmlns="http://www.w3.org/2000/svg"
   xmlns:sodipodi="http://sodipodi.sourceforge.net/DTD/sodipodi-0.dtd"
   xmlns:inkscape="http://www.inkscape.org/namespaces/inkscape"
   width="800"
   height="700"
   id="svg2"
   version="1.1"
   inkscape:version="0.48.2 r9819"
   sodipodi:docname="l27.svg">
  <defs
     id="defs4" />
  <sodipodi:namedview
     id="base"
     pagecolor="#ffffff"
     bordercolor="#666666"
     borderopacity="1.0"
     inkscape:pageopacity="0.0"
     inkscape:pageshadow="2"
     inkscape:zoom="2.5"
     inkscape:cx="638.689"
     inkscape:cy="263.79259"
     inkscape:document-units="px"
     inkscape:current-layer="layer1"
     showgrid="false"
     showguides="true"
     inkscape:guide-bbox="true"
     inkscape:window-width="1366"
     inkscape:window-height="746"
     inkscape:window-x="-8"
     inkscape:window-y="-8"
     inkscape:window-maximized="1"
     width="0px"
     height="0px"
     fit-margin-top="0"
     fit-margin-left="0"
     fit-margin-right="0"
     fit-margin-bottom="0">
    <sodipodi:guide
       orientation="1,0"
       position="400.22244,349.31075"
       id="guide3178" />
    <sodipodi:guide
       orientation="0,1"
       position="400.22244,349.31075"
       id="guide3180" />
  </sodipodi:namedview>
  <metadata
     id="metadata7">
    <rdf:RDF>
      <cc:Work
         rdf:about="">
        <dc:format>image/svg+xml</dc:format>
        <dc:type
           rdf:resource="http://purl.org/dc/dcmitype/StillImage" />
        <dc:title></dc:title>
      </cc:Work>
    </rdf:RDF>
  </metadata>
  <g
     inkscape:label="Layer 1"
     inkscape:groupmode="layer"
     id="layer1"
     transform="translate(0,-352.36218)">
    <path
       id="rect3342"
       transform="translate(0,352.36218)"
       style="fill:#ff0000"
       d="m 572.15625,410.65625 c -0.83308,0.071 -1.26737,0.4925 -2.34375,1.75 -0.86663,1.01243 -1.59375,2.00774 -1.59375,2.21875 0,0.21102 -0.47413,1.38369 -1.03125,2.625 -2.29943,5.12311 -3.14617,8.67336 -4.03125,16.46875 -0.7864,6.92633 -0.84533,9.87384 -0.5625,29.0625 l 0.1875,13.28125 -1.21875,3.90625 c -0.66556,2.15342 -1.46842,4.79833 -1.8125,5.875 -1.79751,5.62541 -1.0224,10.1696 2.1875,12.9375 2.04446,1.76287 6.91751,4.71692 9.21875,5.5625 3.42137,1.25721 4.96653,0.75653 9.125,-3 2.07257,-1.87244 5.73452,-7.23987 6.34375,-9.25 0.53613,-1.76895 0.63765,-3.19799 0.25,-3.4375 -0.22268,-0.13779 -0.375,-1.20418 -0.375,-2.34375 0,-1.13966 -0.2989,-2.94054 -0.65625,-4 -0.75094,-2.22618 -2.06827,-8.16423 -3.25,-14.71875 -1.43409,-7.95451 -2.16563,-11.84816 -3.03125,-15.875 -0.46292,-2.15336 -0.9839,-4.99654 -1.125,-6.3125 -0.3943,-3.67698 -1.46556,-10.75142 -2.1875,-14.375 -0.87751,-4.40422 -1.00975,-12.68719 -0.25,-15.3125 0.53989,-1.86534 0.54112,-2.16321 -0.21875,-3.46875 -0.69717,-1.19796 -1.17299,-1.45289 -2.65625,-1.5625 -0.40401,-0.0299 -0.69105,-0.0548 -0.96875,-0.0312 z m 0.5,0.78125 c 0.34074,0 0.97652,0.27953 1.40625,0.59375 0.73486,0.53738 0.74083,0.92536 0.21875,6.84375 -0.54183,6.14266 -0.53063,6.49418 0.65625,14.125 0.66884,4.29977 1.41166,9.43667 1.625,11.40625 0.21337,1.96963 0.79198,5.47535 1.28125,7.8125 0.48922,2.33722 1.03807,5.6376 1.25,7.3125 0.21199,1.67486 0.67673,4.51801 1.03125,6.3125 0.35455,1.79459 0.74003,3.7795 0.84375,4.4375 0.10361,0.65798 0.0562,1.21875 -0.0937,1.21875 -0.14975,0 -1.48742,-1.28796 -3,-2.84375 -1.51253,-1.55588 -3.21644,-2.92075 -3.78125,-3.0625 -1.35707,-0.34062 -3.89651,0.50708 -6.21875,2.09375 -1.03368,0.70626 -2.00788,1.14837 -2.15625,1 -0.51719,-0.51723 -0.94159,-10.56173 -0.9375,-22.65625 0.004,-15.35436 0.8771,-21.89517 3.96875,-30.3125 0.54118,-1.47368 3.10101,-4.28125 3.90625,-4.28125 z m 0.0312,55.4375 c 0.16796,-0.0137 0.30978,-0.005 0.46875,0 0.42396,0.0149 0.81515,0.084 1.125,0.25 1.71906,0.91994 4.89898,5.14717 6.75,8.9375 1.89407,3.87841 1.90716,3.95712 1.5625,7 -0.47182,4.16585 -1.43377,6.00754 -4,7.6875 -1.16327,0.76164 -2.09375,1.55437 -2.09375,1.75 0,0.1955 -0.70148,0.62204 -1.53125,0.96875 -1.92758,0.80535 -1.62485,0.86968 -5.34375,-0.875 -3.51493,-1.64919 -4.54052,-2.63053 -5.4375,-5.21875 -0.74172,-2.14042 -0.62012,-3.96234 0.53125,-7.625 0.48889,-1.55526 0.90219,-3.36657 0.90625,-4.03125 0.007,-1.52637 2.14445,-5.83198 3.65625,-7.34375 0.85869,-0.85842 2.23053,-1.4038 3.40625,-1.5 z M 562.625,483.25 c 0.21011,0 0.375,0.78524 0.375,1.75 0,2.40857 0.93227,4.41423 2.90625,6.28125 l 1.6875,1.5625 -1.09375,0.8125 c -1.54007,1.16689 -0.79597,1.5748 1.34375,0.71875 1.69631,-0.67344 1.89258,-0.67384 3.3125,0 2.94099,1.39555 5.10905,0.56139 9.625,-3.75 2.02561,-1.9336 2.6875,-3.35236 2.6875,-5.90625 0,-2.39007 1.50688,-0.30277 2,2.78125 0.29739,1.85964 -0.41917,3.88697 -2.5625,7.28125 -2.44064,3.86487 -4.81192,6.36982 -6.78125,7.21875 -2.17182,0.93633 -3.08718,0.99561 -5.5,0.21875 -3.71995,-1.18964 -8.42956,-4.5771 -9.65625,-6.9375 -1.0184,-1.95951 -0.8775,-6.31789 0.3125,-9.5 0.52508,-1.40384 1.13367,-2.53125 1.34375,-2.53125 z" />
  </g>
</svg>
