<?xml version="1.0" encoding="UTF-8" standalone="no"?>
<!-- Created with Inkscape (http://www.inkscape.org/) -->

<svg
   xmlns:dc="http://purl.org/dc/elements/1.1/"
   xmlns:cc="http://creativecommons.org/ns#"
   xmlns:rdf="http://www.w3.org/1999/02/22-rdf-syntax-ns#"
   xmlns:svg="http://www.w3.org/2000/svg"
   xmlns="http://www.w3.org/2000/svg"
   xmlns:sodipodi="http://sodipodi.sourceforge.net/DTD/sodipodi-0.dtd"
   xmlns:inkscape="http://www.inkscape.org/namespaces/inkscape"
   width="900"
   height="800"
   id="svg2"
   version="1.1"
   inkscape:version="0.48.2 r9819"
   sodipodi:docname="l27.svg">
  <defs
     id="defs4" />
  <sodipodi:namedview
     id="base"
     pagecolor="#ffffff"
     bordercolor="#666666"
     borderopacity="1.0"
     inkscape:pageopacity="0.0"
     inkscape:pageshadow="2"
     inkscape:zoom="2"
     inkscape:cx="702.00206"
     inkscape:cy="303.71651"
     inkscape:document-units="px"
     inkscape:current-layer="layer1"
     showgrid="false"
     showguides="true"
     inkscape:guide-bbox="true"
     inkscape:window-width="1366"
     inkscape:window-height="746"
     inkscape:window-x="-8"
     inkscape:window-y="-8"
     inkscape:window-maximized="1"
     width="0px"
     height="0px"
     fit-margin-top="0"
     fit-margin-left="0"
     fit-margin-right="0"
     fit-margin-bottom="0">
    <sodipodi:guide
       orientation="1,0"
       position="450,784"
       id="guide3178" />
    <sodipodi:guide
       orientation="0,1"
       position="-61,400"
       id="guide3180" />
  </sodipodi:namedview>
  <metadata
     id="metadata7">
    <rdf:RDF>
      <cc:Work
         rdf:about="">
        <dc:format>image/svg+xml</dc:format>
        <dc:type
           rdf:resource="http://purl.org/dc/dcmitype/StillImage" />
        <dc:title></dc:title>
      </cc:Work>
    </rdf:RDF>
  </metadata>
  <g
     inkscape:label="Layer 1"
     inkscape:groupmode="layer"
     id="layer1"
     transform="translate(0,-252.36218)">
    <path
       id="rect3245"
       transform="translate(0,252.36218)"
       style="fill:#ff0000"
       d="m 645.71875,464.25 c -0.94176,0.0803 -1.43945,0.57847 -2.65625,2 -0.97968,1.14452 -1.8125,2.26147 -1.8125,2.5 0,0.23855 -0.52644,1.56551 -1.15625,2.96875 -2.5994,5.79144 -3.53071,9.78144 -4.53125,18.59375 -0.88899,7.8299 -0.97597,11.21437 -0.65625,32.90625 l 0.21875,15 -1.375,4.40625 c -0.75238,2.43434 -1.70478,5.43914 -2.09375,6.65625 -2.03198,6.35926 -1.12863,11.46476 2.5,14.59375 2.31117,1.99285 7.83608,5.32536 10.4375,6.28125 3.8677,1.42122 5.61154,0.8716 10.3125,-3.375 2.34294,-2.1167 6.46756,-8.16515 7.15625,-10.4375 0.60607,-1.99974 0.75073,-3.6355 0.3125,-3.90625 -0.25173,-0.15577 -0.4375,-1.33678 -0.4375,-2.625 0,-1.28833 -0.34602,-3.33356 -0.75,-4.53125 -0.84891,-2.51658 -2.32037,-9.24667 -3.65625,-16.65625 -1.62119,-8.9922 -2.4902,-13.38535 -3.46875,-17.9375 -0.5233,-2.43427 -1.09051,-5.66861 -1.25,-7.15625 -0.44574,-4.15666 -1.65263,-12.12246 -2.46875,-16.21875 -0.99198,-4.97876 -1.14013,-14.34473 -0.28125,-17.3125 0.61031,-2.10869 0.609,-2.46164 -0.25,-3.9375 -0.78811,-1.35423 -1.32324,-1.62609 -3,-1.75 -0.45672,-0.0339 -0.77983,-0.0893 -1.09375,-0.0625 z m 0.5625,0.90625 c 0.38517,0 1.10797,0.30104 1.59375,0.65625 0.83071,0.60746 0.84019,1.05954 0.25,7.75 -0.61251,6.94398 -0.59171,7.34247 0.75,15.96875 0.75609,4.8607 1.57134,10.67972 1.8125,12.90625 0.24121,2.22657 0.8844,6.17046 1.4375,8.8125 0.55304,2.64213 1.1979,6.35662 1.4375,8.25 0.23964,1.89336 0.75549,5.12766 1.15625,7.15625 0.40081,2.0287 0.85151,4.28742 0.96875,5.03125 0.11714,0.74382 0.0757,1.34375 -0.0937,1.34375 -0.16928,0 -1.7276,-1.42875 -3.4375,-3.1875 -1.70985,-1.75885 -3.6115,-3.30851 -4.25,-3.46875 -1.5341,-0.38506 -4.40608,0.58135 -7.03125,2.375 -1.16851,0.7984 -2.30104,1.29271 -2.46875,1.125 -0.58467,-0.58472 -1.03585,-11.95271 -1.03125,-25.625 0.004,-17.35738 1.00502,-24.73461 4.5,-34.25 0.61178,-1.66593 3.49595,-4.84375 4.40625,-4.84375 z m 0.0312,62.65625 c 0.18986,-0.0155 0.35153,-0.005 0.53125,0 0.47927,0.0168 0.93098,0.0937 1.28125,0.28125 1.94334,1.03995 5.53252,5.84021 7.625,10.125 2.14117,4.38435 2.17086,4.46642 1.78125,7.90625 -0.53338,4.70931 -1.63024,6.78838 -4.53125,8.6875 -1.31502,0.861 -2.375,1.7476 -2.375,1.96875 0,0.22101 -0.78073,0.70181 -1.71875,1.09375 -2.17904,0.9104 -1.85846,0.97228 -6.0625,-1 -3.97348,-1.86433 -5.14225,-2.94914 -6.15625,-5.875 -0.83847,-2.41964 -0.67657,-4.48455 0.625,-8.625 0.55267,-1.75816 0.99542,-3.8111 1,-4.5625 0.007,-1.72548 2.44725,-6.57226 4.15625,-8.28125 0.97073,-0.9704 2.51464,-1.60999 3.84375,-1.71875 z m -11.375,18.53125 c 0.23753,0 0.4375,0.87813 0.4375,1.96875 0,2.72278 1.01851,4.98316 3.25,7.09375 l 1.90625,1.75 -1.21875,0.9375 c -1.74097,1.31912 -0.91884,1.78022 1.5,0.8125 1.9176,-0.76129 2.1761,-0.76174 3.78125,0 3.32467,1.5776 5.76993,0.62382 10.875,-4.25 2.28987,-2.18585 3.03125,-3.80044 3.03125,-6.6875 0,-2.70186 1.69254,-0.3301 2.25,3.15625 0.33619,2.10222 -0.45205,4.41293 -2.875,8.25 -2.75903,4.36906 -5.46128,7.19656 -7.6875,8.15625 -2.45516,1.05847 -3.4599,1.09696 -6.1875,0.21875 -4.20521,-1.34484 -9.55078,-5.14418 -10.9375,-7.8125 -1.15125,-2.21513 -0.97026,-7.15278 0.375,-10.75 0.59357,-1.58698 1.26252,-2.84375 1.5,-2.84375 z" />
  </g>
</svg>
