<?xml version="1.0" encoding="UTF-8" standalone="no"?>
<!-- Created with Inkscape (http://www.inkscape.org/) -->

<svg
   xmlns:dc="http://purl.org/dc/elements/1.1/"
   xmlns:cc="http://creativecommons.org/ns#"
   xmlns:rdf="http://www.w3.org/1999/02/22-rdf-syntax-ns#"
   xmlns:svg="http://www.w3.org/2000/svg"
   xmlns="http://www.w3.org/2000/svg"
   xmlns:sodipodi="http://sodipodi.sourceforge.net/DTD/sodipodi-0.dtd"
   xmlns:inkscape="http://www.inkscape.org/namespaces/inkscape"
   width="900"
   height="800"
   id="svg2"
   version="1.1"
   inkscape:version="0.48.2 r9819"
   sodipodi:docname="m28.svg">
  <defs
     id="defs4" />
  <sodipodi:namedview
     id="base"
     pagecolor="#ffffff"
     bordercolor="#666666"
     borderopacity="1.0"
     inkscape:pageopacity="0.0"
     inkscape:pageshadow="2"
     inkscape:zoom="2"
     inkscape:cx="702.00206"
     inkscape:cy="163.71651"
     inkscape:document-units="px"
     inkscape:current-layer="layer1"
     showgrid="false"
     showguides="true"
     inkscape:guide-bbox="true"
     inkscape:window-width="1366"
     inkscape:window-height="746"
     inkscape:window-x="-8"
     inkscape:window-y="-8"
     inkscape:window-maximized="1"
     width="0px"
     height="0px"
     fit-margin-top="0"
     fit-margin-left="0"
     fit-margin-right="0"
     fit-margin-bottom="0">
    <sodipodi:guide
       orientation="1,0"
       position="450,784"
       id="guide3178" />
    <sodipodi:guide
       orientation="0,1"
       position="-61,400"
       id="guide3180" />
  </sodipodi:namedview>
  <metadata
     id="metadata7">
    <rdf:RDF>
      <cc:Work
         rdf:about="">
        <dc:format>image/svg+xml</dc:format>
        <dc:type
           rdf:resource="http://purl.org/dc/dcmitype/StillImage" />
        <dc:title></dc:title>
      </cc:Work>
    </rdf:RDF>
  </metadata>
  <g
     inkscape:label="Layer 1"
     inkscape:groupmode="layer"
     id="layer1"
     transform="translate(0,-252.36218)">
    <path
       id="rect3253"
       transform="translate(0,252.36218)"
       style="fill:#ff0000"
       d="m 639.5,641.75 c -1.30124,0.0149 -4.67571,1.6333 -5.96875,2.875 -0.59729,0.57334 -1.1786,1.03125 -1.3125,1.03125 -0.32345,0 -4.71875,4.45248 -4.71875,4.78125 0,0.14083 -0.43345,0.62494 -0.9375,1.0625 -2.31788,2.0118 -3,4.04036 -3,8.78125 -9.1e-4,3.81398 0.31677,5.65457 1.96875,11.5 1.08192,3.82823 1.96875,7.47102 1.96875,8.09375 0,0.62309 0.20565,1.26358 0.4375,1.40625 0.62224,0.38462 1.06231,4.47193 1.53125,13.3125 1.5495,29.21235 2.86928,41.91069 4.65625,46.1875 0.42643,1.02059 0.75,2.37627 0.75,2.96875 0,2.10348 2.32604,6.05445 4.5,7.59375 1.67988,1.1896 2.67493,1.4824 4.71875,1.5 2.04601,0.018 2.65632,-0.1787 3.0625,-0.9375 0.71522,-1.3365 0.62741,-4.47073 -0.25,-9.34375 -1.70501,-9.46916 -1.43834,-30.14692 0.59375,-46.5 0.40332,-3.2457 0.85138,-6.90789 1,-8.125 0.14869,-1.21722 0.56542,-2.53179 0.90625,-2.9375 0.3408,-0.40564 1.1104,-2.3778 1.71875,-4.40625 0.60826,-2.02872 1.60234,-5.263 2.21875,-7.15625 3.81272,-11.71167 4.12112,-18.72433 0.90625,-21.125 -0.72438,-0.54094 -3.24699,-2.90861 -5.59375,-5.21875 -4.14166,-4.07647 -6.40692,-5.37592 -9.15625,-5.34375 z m -1,2.9375 c 0.25075,-0.007 0.53111,0 0.84375,0 2.52101,0 2.65659,0.0778 6.0625,3.3125 1.92249,1.8256 4.56756,4.15972 5.84375,5.1875 l 2.3125,1.875 0,4.8125 c 0,3.92504 -0.28931,5.78865 -1.5,9.9375 -0.81935,2.80753 -1.66624,5.52155 -1.90625,6.0625 -0.24,0.54094 -0.69564,2.06093 -1,3.375 -0.41931,1.81032 -1.10439,2.92576 -2.8125,4.5625 -2.07674,1.98976 -2.42796,2.17888 -4.75,2.15625 -3.22119,-0.0312 -6.11451,-1.41388 -9.21875,-4.4375 -1.83369,-1.78597 -2.4375,-2.72096 -2.4375,-3.84375 0,-0.81287 -0.48225,-2.97059 -1.125,-4.8125 -2.67148,-7.65517 -4.04906,-15.87269 -2.78125,-16.65625 0.27048,-0.16727 0.46875,-0.59942 0.46875,-1 0,-0.71648 0.59069,-1.34108 7.03125,-7.46875 2.73275,-2.60061 3.21345,-3.00249 4.96875,-3.0625 z m -6.875,40.96875 c 0.10523,-0.10534 1.47559,0.26512 3.0625,0.84375 4.65862,1.69912 6.40955,1.98075 8.6875,1.46875 1.25346,-0.28178 2.23196,-0.29923 2.5,-0.0312 0.26807,0.26822 0.16133,2.87455 -0.3125,6.5 -1.60446,12.27572 -1.98628,19.58664 -1.65625,31.65625 0.17703,6.47655 0.66596,13.78454 1.0625,16.21875 0.88814,5.45274 0.89203,7.7329 0.125,8.5 -0.65096,0.6509 -1.18286,0.6964 -2.46875,0.1875 -1.17565,-0.4657 -5.15219,-5.87552 -5.46875,-7.4375 -0.14158,-0.69859 -0.81452,-3.82692 -1.5,-6.9375 -1.16081,-5.26758 -1.49556,-8.52016 -2.71875,-24.59375 -0.6677,-8.77323 -1.53887,-26.1487 -1.3125,-26.375 z" />
  </g>
</svg>
