<?xml version="1.0" encoding="UTF-8" standalone="no"?>
<!-- Created with Inkscape (http://www.inkscape.org/) -->

<svg
   xmlns:dc="http://purl.org/dc/elements/1.1/"
   xmlns:cc="http://creativecommons.org/ns#"
   xmlns:rdf="http://www.w3.org/1999/02/22-rdf-syntax-ns#"
   xmlns:svg="http://www.w3.org/2000/svg"
   xmlns="http://www.w3.org/2000/svg"
   xmlns:sodipodi="http://sodipodi.sourceforge.net/DTD/sodipodi-0.dtd"
   xmlns:inkscape="http://www.inkscape.org/namespaces/inkscape"
   width="800"
   height="700"
   id="svg2"
   version="1.1"
   inkscape:version="0.48.2 r9819"
   sodipodi:docname="f28.svg">
  <defs
     id="defs4" />
  <sodipodi:namedview
     id="base"
     pagecolor="#ffffff"
     bordercolor="#666666"
     borderopacity="1.0"
     inkscape:pageopacity="0.0"
     inkscape:pageshadow="2"
     inkscape:zoom="2.5"
     inkscape:cx="638.689"
     inkscape:cy="103.79259"
     inkscape:document-units="px"
     inkscape:current-layer="layer1"
     showgrid="false"
     showguides="true"
     inkscape:guide-bbox="true"
     inkscape:window-width="1366"
     inkscape:window-height="746"
     inkscape:window-x="-8"
     inkscape:window-y="-8"
     inkscape:window-maximized="1"
     width="0px"
     height="0px"
     fit-margin-top="0"
     fit-margin-left="0"
     fit-margin-right="0"
     fit-margin-bottom="0">
    <sodipodi:guide
       orientation="1,0"
       position="400.22244,349.31075"
       id="guide3178" />
    <sodipodi:guide
       orientation="0,1"
       position="400.22244,349.31075"
       id="guide3180" />
  </sodipodi:namedview>
  <metadata
     id="metadata7">
    <rdf:RDF>
      <cc:Work
         rdf:about="">
        <dc:format>image/svg+xml</dc:format>
        <dc:type
           rdf:resource="http://purl.org/dc/dcmitype/StillImage" />
        <dc:title></dc:title>
      </cc:Work>
    </rdf:RDF>
  </metadata>
  <g
     inkscape:label="Layer 1"
     inkscape:groupmode="layer"
     id="layer1"
     transform="translate(0,-352.36218)">
    <path
       id="rect3346"
       transform="translate(0,352.36218)"
       style="fill:#ff0000"
       d="m 575.65625,528.6875 c -0.50304,-0.0107 -0.99797,0.008 -1.4375,0.0312 -0.58606,0.0309 -1.10215,0.0916 -1.4375,0.1875 -0.71778,0.20527 -2.01666,0.47585 -2.90625,0.625 -0.88956,0.14919 -1.87706,0.52279 -2.1875,0.8125 -0.31044,0.28962 -1.33105,0.93627 -2.25,1.40625 -3.23283,1.65352 -7.24222,7.74317 -7.21875,10.96875 0.0152,2.08197 1.89413,6.4712 3.8125,8.9375 3.70896,4.76814 7.61467,8.56045 9.46875,9.21875 2.33492,0.8291 4.7557,0.77335 7.375,-0.15625 1.87906,-0.6668 2.52642,-1.22565 4.71875,-4.21875 3.3596,-4.58657 6.05236,-10.15331 6.28125,-12.96875 0.26063,-3.20691 -1.52742,-7.72862 -3.9375,-9.9375 -2.24268,-2.05547 -5.00278,-4.02608 -6.21875,-4.40625 -0.90657,-0.28309 -2.55345,-0.46768 -4.0625,-0.5 z m -0.25,1.5625 c 3.76636,-0.0137 5.2756,0.68187 8.4375,3.84375 3.31448,3.3145 4.64116,6.19572 4.125,9.0625 -0.75932,4.21715 -6.22578,13.31865 -8.8125,14.65625 -1.83194,0.9472 -5.71171,1.2054 -7.28125,0.5 -1.48688,-0.6684 -7.125,-6.00796 -7.125,-6.75 0,-0.25507 -0.23216,-0.5 -0.53125,-0.5 -0.99012,-0.0244 -3.42773,-3.79343 -4.09375,-6.34375 -0.504,-1.93005 -0.5451,-2.86897 -0.1875,-4.0625 0.59773,-1.99506 3.09218,-4.9437 4.8125,-5.65625 1.21355,-0.50281 1.43646,-0.44237 2.40625,0.46875 1.19598,1.1235 1.42338,3.1825 0.59375,5.5625 -0.84025,2.41021 -0.0301,2.04119 1.09375,-0.5 0.95853,-2.16722 1.22298,-2.43925 2.5,-2.5625 2.17102,-0.20873 5.64591,0.42014 7.875,1.40625 1.78902,0.79151 2.03579,1.04499 2.15625,2.46875 0.22817,2.69556 1.07389,2.17415 1.40625,-0.84375 0.16595,-1.50701 0.49649,-3.45225 0.6875,-4.34375 0.32163,-1.5007 0.26061,-1.59459 -0.5,-1.1875 -0.45177,0.24177 -0.8125,0.83479 -0.8125,1.3125 0,1.26689 -1.18405,1.48131 -3,0.59375 -1.10275,-0.53897 -2.77358,-0.77872 -5.46875,-0.84375 l -3.875,-0.0937 -0.90625,-1.8125 -0.84375,-1.8125 0.875,-0.875 c 1.05426,-1.05402 3.44657,-1.67329 6.46875,-1.6875 z" />
  </g>
</svg>
