<?xml version="1.0" encoding="UTF-8" standalone="no"?>
<!-- Created with Inkscape (http://www.inkscape.org/) -->

<svg
   xmlns:dc="http://purl.org/dc/elements/1.1/"
   xmlns:cc="http://creativecommons.org/ns#"
   xmlns:rdf="http://www.w3.org/1999/02/22-rdf-syntax-ns#"
   xmlns:svg="http://www.w3.org/2000/svg"
   xmlns="http://www.w3.org/2000/svg"
   xmlns:sodipodi="http://sodipodi.sourceforge.net/DTD/sodipodi-0.dtd"
   xmlns:inkscape="http://www.inkscape.org/namespaces/inkscape"
   width="900"
   height="800"
   id="svg2"
   version="1.1"
   inkscape:version="0.48.2 r9819"
   sodipodi:docname="f28.svg">
  <defs
     id="defs4" />
  <sodipodi:namedview
     id="base"
     pagecolor="#ffffff"
     bordercolor="#666666"
     borderopacity="1.0"
     inkscape:pageopacity="0.0"
     inkscape:pageshadow="2"
     inkscape:zoom="2"
     inkscape:cx="702.00206"
     inkscape:cy="163.71651"
     inkscape:document-units="px"
     inkscape:current-layer="layer1"
     showgrid="false"
     showguides="true"
     inkscape:guide-bbox="true"
     inkscape:window-width="1366"
     inkscape:window-height="746"
     inkscape:window-x="-8"
     inkscape:window-y="-8"
     inkscape:window-maximized="1"
     width="0px"
     height="0px"
     fit-margin-top="0"
     fit-margin-left="0"
     fit-margin-right="0"
     fit-margin-bottom="0">
    <sodipodi:guide
       orientation="1,0"
       position="450,784"
       id="guide3178" />
    <sodipodi:guide
       orientation="0,1"
       position="-61,400"
       id="guide3180" />
  </sodipodi:namedview>
  <metadata
     id="metadata7">
    <rdf:RDF>
      <cc:Work
         rdf:about="">
        <dc:format>image/svg+xml</dc:format>
        <dc:type
           rdf:resource="http://purl.org/dc/dcmitype/StillImage" />
        <dc:title></dc:title>
      </cc:Work>
    </rdf:RDF>
  </metadata>
  <g
     inkscape:label="Layer 1"
     inkscape:groupmode="layer"
     id="layer1"
     transform="translate(0,-252.36218)">
    <path
       id="rect3249"
       transform="translate(0,252.36218)"
       style="fill:#ff0000"
       d="m 649.65625,597.6875 c -0.56865,-0.0122 -1.12813,0.0357 -1.625,0.0625 -0.6625,0.0349 -1.21465,0.0791 -1.59375,0.1875 -0.81142,0.23205 -2.30686,0.55013 -3.3125,0.71875 -1.0056,0.16865 -2.11781,0.57874 -2.46875,0.90625 -0.35093,0.32738 -1.49241,1.06245 -2.53125,1.59375 -3.65455,1.86924 -8.21402,8.75987 -8.1875,12.40625 0.0172,2.35357 2.14387,7.30571 4.3125,10.09375 4.19279,5.39017 8.62281,9.69335 10.71875,10.4375 2.63952,0.93727 5.38276,0.86337 8.34375,-0.1875 2.1242,-0.75372 2.83417,-1.36646 5.3125,-4.75 3.79787,-5.18491 6.86625,-11.50477 7.125,-14.6875 0.29464,-3.62526 -1.74426,-8.75297 -4.46875,-11.25 -2.53523,-2.3236 -5.65667,-4.50774 -7.03125,-4.9375 -1.02484,-0.32002 -2.88784,-0.55721 -4.59375,-0.59375 z m -0.28125,1.78125 c 4.25768,-0.0155 5.95687,0.76939 9.53125,4.34375 3.74687,3.74688 5.271,7.00925 4.6875,10.25 -0.85839,4.76732 -7.01334,15.0505 -9.9375,16.5625 -2.07091,1.07088 -6.50696,1.35985 -8.28125,0.5625 -1.68084,-0.75564 -8.03125,-6.81742 -8.03125,-7.65625 0,-0.28834 -0.28689,-0.53125 -0.625,-0.53125 -1.11929,-0.0276 -3.8721,-4.27323 -4.625,-7.15625 -0.56975,-2.18183 -0.62301,-3.27577 -0.21875,-4.625 0.67569,-2.25533 3.52402,-5.56948 5.46875,-6.375 1.37187,-0.5684 1.62243,-0.52997 2.71875,0.5 1.35201,1.27005 1.59412,3.62201 0.65625,6.3125 -0.94986,2.72462 -0.0204,2.31018 1.25,-0.5625 1.08357,-2.44995 1.40014,-2.76692 2.84375,-2.90625 2.45424,-0.23596 6.38638,0.44775 8.90625,1.5625 2.02241,0.89476 2.27006,1.203 2.40625,2.8125 0.25794,3.0472 1.21803,2.47407 1.59375,-0.9375 0.1876,-1.7036 0.56531,-3.89845 0.78125,-4.90625 0.36358,-1.69647 0.29734,-1.83519 -0.5625,-1.375 -0.51071,0.2733 -0.90625,0.95998 -0.90625,1.5 0,1.43216 -1.32215,1.69084 -3.375,0.6875 -1.2466,-0.60929 -3.17198,-0.89522 -6.21875,-0.96875 l -4.375,-0.0937 -1.03125,-2.0625 -0.96875,-2.03125 1.03125,-1 c 1.19179,-1.19151 3.86481,-1.89017 7.28125,-1.90625 z" />
  </g>
</svg>
