<?xml version="1.0" encoding="UTF-8" standalone="no"?>
<!-- Created with Inkscape (http://www.inkscape.org/) -->

<svg
   xmlns:dc="http://purl.org/dc/elements/1.1/"
   xmlns:cc="http://creativecommons.org/ns#"
   xmlns:rdf="http://www.w3.org/1999/02/22-rdf-syntax-ns#"
   xmlns:svg="http://www.w3.org/2000/svg"
   xmlns="http://www.w3.org/2000/svg"
   xmlns:sodipodi="http://sodipodi.sourceforge.net/DTD/sodipodi-0.dtd"
   xmlns:inkscape="http://www.inkscape.org/namespaces/inkscape"
   width="800"
   height="700"
   id="svg2"
   version="1.1"
   inkscape:version="0.48.2 r9819"
   sodipodi:docname="f1-fill.svg">
  <defs
     id="defs4" />
  <sodipodi:namedview
     id="base"
     pagecolor="#ffffff"
     bordercolor="#666666"
     borderopacity="1.0"
     inkscape:pageopacity="0.0"
     inkscape:pageshadow="2"
     inkscape:zoom="4"
     inkscape:cx="52.47542"
     inkscape:cy="578.35491"
     inkscape:document-units="px"
     inkscape:current-layer="layer1"
     showgrid="false"
     showguides="true"
     inkscape:guide-bbox="true"
     inkscape:window-width="1024"
     inkscape:window-height="538"
     inkscape:window-x="-8"
     inkscape:window-y="-8"
     inkscape:window-maximized="1"
     width="0px"
     height="0px"
     fit-margin-top="0"
     fit-margin-left="0"
     fit-margin-right="0"
     fit-margin-bottom="0">
    <sodipodi:guide
       orientation="1,0"
       position="400.22244,349.31075"
       id="guide3178" />
    <sodipodi:guide
       orientation="0,1"
       position="400.22244,349.31075"
       id="guide3180" />
  </sodipodi:namedview>
  <metadata
     id="metadata7">
    <rdf:RDF>
      <cc:Work
         rdf:about="">
        <dc:format>image/svg+xml</dc:format>
        <dc:type
           rdf:resource="http://purl.org/dc/dcmitype/StillImage" />
        <dc:title />
      </cc:Work>
    </rdf:RDF>
  </metadata>
  <g
     inkscape:label="Layer 1"
     inkscape:groupmode="layer"
     id="layer1"
     transform="translate(0,-352.36218)">
    <path
       id="rect3180"
       transform="translate(0,352.36218)"
       style="fill:#00ff00"
       d="m 25.78125,110.03125 c -0.87752,0.0311 -1.76204,0.16268 -2.5,0.40625 -0.83379,0.27516 -2.94859,0.65273 -4.71875,0.875 -2.75618,0.34608 -3.33744,0.60402 -4.1875,1.65625 -0.94597,1.17088 -2.47784,5.24796 -3.0625,8.28125 -0.32045,1.66248 0.30263,1.89574 1.34375,0.46875 0.69038,-0.94626 0.70865,-0.92375 0.40625,0.96875 -0.71088,4.44913 -0.17877,8.19622 1.34375,9.71875 0.76762,0.76757 3.79204,0.90828 6.78125,0.34375 0.96182,-0.18164 2.33867,-0.949 3.4375,-1.96875 L 26.4375,129.0625 26.1875,126 c -0.14233,-1.70187 -0.29745,-4.3525 -0.34375,-5.90625 l -0.0625,-2.84375 1.5625,-0.28125 c 1.81134,-0.29443 1.95175,-0.13236 0.875,1.0625 -0.58955,0.6542 -0.79,1.56317 -0.75,4 0.07004,4.26635 1.19446,7.43249 3.3125,9.46875 1.67198,1.60745 1.7626,1.59375 5.1875,1.59375 3.96438,0 6.06376,-0.67649 7.96875,-2.625 2.45288,-2.50887 1.97643,-6.55625 -1.6875,-14.5625 -1.86882,-4.08368 -2.57351,-4.53125 -7.09375,-4.53125 -2.22503,0 -4.19738,-0.25566 -5.15625,-0.65625 -1.22373,-0.51132 -2.75624,-0.7394 -4.21875,-0.6875 z" />
  </g>
</svg>
