<?xml version="1.0" encoding="UTF-8" standalone="no"?>
<!-- Created with Inkscape (http://www.inkscape.org/) -->

<svg
   xmlns:dc="http://purl.org/dc/elements/1.1/"
   xmlns:cc="http://creativecommons.org/ns#"
   xmlns:rdf="http://www.w3.org/1999/02/22-rdf-syntax-ns#"
   xmlns:svg="http://www.w3.org/2000/svg"
   xmlns="http://www.w3.org/2000/svg"
   xmlns:sodipodi="http://sodipodi.sourceforge.net/DTD/sodipodi-0.dtd"
   xmlns:inkscape="http://www.inkscape.org/namespaces/inkscape"
   width="800"
   height="700"
   id="svg2"
   version="1.1"
   inkscape:version="0.48.2 r9819"
   sodipodi:docname="f1.svg">
  <defs
     id="defs4" />
  <sodipodi:namedview
     id="base"
     pagecolor="#ffffff"
     bordercolor="#666666"
     borderopacity="1.0"
     inkscape:pageopacity="0.0"
     inkscape:pageshadow="2"
     inkscape:zoom="4"
     inkscape:cx="115.55215"
     inkscape:cy="588.35491"
     inkscape:document-units="px"
     inkscape:current-layer="layer1"
     showgrid="false"
     showguides="true"
     inkscape:guide-bbox="true"
     inkscape:window-width="1366"
     inkscape:window-height="746"
     inkscape:window-x="-8"
     inkscape:window-y="-8"
     inkscape:window-maximized="1"
     width="0px"
     height="0px"
     fit-margin-top="0"
     fit-margin-left="0"
     fit-margin-right="0"
     fit-margin-bottom="0">
    <sodipodi:guide
       orientation="1,0"
       position="400.22244,349.31075"
       id="guide3178" />
    <sodipodi:guide
       orientation="0,1"
       position="400.22244,349.31075"
       id="guide3180" />
  </sodipodi:namedview>
  <metadata
     id="metadata7">
    <rdf:RDF>
      <cc:Work
         rdf:about="">
        <dc:format>image/svg+xml</dc:format>
        <dc:type
           rdf:resource="http://purl.org/dc/dcmitype/StillImage" />
        <dc:title></dc:title>
      </cc:Work>
    </rdf:RDF>
  </metadata>
  <g
     inkscape:label="Layer 1"
     inkscape:groupmode="layer"
     id="layer1"
     transform="translate(0,-352.36218)">
    <path
       style="fill:#ff0000"
       d="m 25.78125,462.39343 c 1.46251,-0.0519 2.99502,0.17618 4.21875,0.6875 0.95887,0.40059 2.93122,0.65625 5.15625,0.65625 4.52024,0 5.22493,0.44757 7.09375,4.53125 3.66393,8.00625 4.14038,12.05363 1.6875,14.5625 -1.90499,1.94851 -4.00437,2.625 -7.96875,2.625 -3.4249,0 -3.51552,0.0137 -5.1875,-1.59375 -2.11804,-2.03626 -3.24246,-5.2024 -3.3125,-9.46875 -0.04,-2.43683 0.16045,-3.3458 0.75,-4 1.07675,-1.19486 0.93634,-1.35693 -0.875,-1.0625 l -1.5625,0.28125 0.0625,2.84375 c 0.0463,1.55375 0.20142,4.20438 0.34375,5.90625 l 0.25,3.0625 -1.8125,1.71875 c -1.09883,1.01975 -2.47568,1.78711 -3.4375,1.96875 -2.98921,0.56453 -6.01363,0.42382 -6.78125,-0.34375 -1.52252,-1.52253 -2.05463,-5.26962 -1.34375,-9.71875 0.3024,-1.8925 0.28413,-1.91501 -0.40625,-0.96875 -1.04112,1.42699 -1.6642,1.19373 -1.34375,-0.46875 0.58466,-3.03329 2.11653,-7.11037 3.0625,-8.28125 0.85006,-1.05223 1.43132,-1.31017 4.1875,-1.65625 1.77016,-0.22227 3.88496,-0.59984 4.71875,-0.875 0.73796,-0.24357 1.62248,-0.37513 2.5,-0.40625 z"
       id="rect3015" />
  </g>
</svg>
