<?xml version="1.0" encoding="UTF-8" standalone="no"?>
<!-- Created with Inkscape (http://www.inkscape.org/) -->

<svg
   xmlns:dc="http://purl.org/dc/elements/1.1/"
   xmlns:cc="http://creativecommons.org/ns#"
   xmlns:rdf="http://www.w3.org/1999/02/22-rdf-syntax-ns#"
   xmlns:svg="http://www.w3.org/2000/svg"
   xmlns="http://www.w3.org/2000/svg"
   xmlns:sodipodi="http://sodipodi.sourceforge.net/DTD/sodipodi-0.dtd"
   xmlns:inkscape="http://www.inkscape.org/namespaces/inkscape"
   width="600"
   height="700"
   id="svg2"
   version="1.1"
   inkscape:version="0.48+devel r11891"
   sodipodi:docname="1f-fill.svg">
  <defs
     id="defs4" />
  <sodipodi:namedview
     id="base"
     pagecolor="#ffffff"
     bordercolor="#666666"
     borderopacity="1.0"
     inkscape:pageopacity="0.0"
     inkscape:pageshadow="2"
     inkscape:zoom="15.839192"
     inkscape:cx="65.557711"
     inkscape:cy="575.87261"
     inkscape:document-units="px"
     inkscape:current-layer="layer1"
     showgrid="false"
     showguides="true"
     inkscape:guide-bbox="true"
     inkscape:window-width="1440"
     inkscape:window-height="848"
     inkscape:window-x="-8"
     inkscape:window-y="-8"
     inkscape:window-maximized="1">
    <sodipodi:guide
       orientation="1,0"
       position="300.01531,344.46202"
       id="guide3178" />
    <sodipodi:guide
       orientation="0,1"
       position="-45.714286,350.71429"
       id="guide3180" />
  </sodipodi:namedview>
  <metadata
     id="metadata7">
    <rdf:RDF>
      <cc:Work
         rdf:about="">
        <dc:format>image/svg+xml</dc:format>
        <dc:type
           rdf:resource="http://purl.org/dc/dcmitype/StillImage" />
        <dc:title></dc:title>
      </cc:Work>
    </rdf:RDF>
  </metadata>
  <g
     inkscape:label="Layer 1"
     inkscape:groupmode="layer"
     id="layer1"
     transform="translate(0,-352.36218)">
    <path
       style="fill:#000000"
       d="m 39.325475,482.01623 c 0.663281,-0.12526 1.598633,-0.6706 2.356391,-1.37384 l 1.256527,-1.16614 -0.178459,-2.13386 c -0.09815,-1.17363 -0.20463,-3.01053 -0.236618,-4.08199 l -0.05816,-1.94813 1.105226,-0.17965 c 1.249121,-0.20304 1.322775,-0.11275 0.580226,0.71124 -0.406552,0.45114 -0.516962,1.07218 -0.489375,2.75266 0.0483,2.9421 0.808835,5.13276 2.269464,6.537 1.153009,1.1085 1.205339,1.125 3.567179,1.125 2.733876,0 4.177831,-0.47935 5.491522,-1.82302 1.691526,-1.73014 1.368435,-4.53543 -1.15824,-10.05661 -1.288749,-2.81613 -1.764747,-3.12037 -4.881938,-3.12037 -1.534414,0 -2.905922,-0.17258 -3.567156,-0.44886 -1.350245,-0.56417 -3.256829,-0.64606 -4.613919,-0.19818 -0.574983,0.18976 -2.044194,0.47043 -3.264913,0.62371 -1.900684,0.23866 -2.317818,0.4004 -2.904038,1.12601 -0.65235,0.80747 -1.680142,3.63052 -2.083331,5.72232 -0.220976,1.14645 0.200227,1.28407 0.918192,0.3 0.476086,-0.65254 0.485294,-0.63009 0.276767,0.675 -0.490231,3.06816 -0.138847,5.65351 0.911089,6.70345 C 35.151259,482.29131 37.264083,482.40553 39.325475,482.01623 Z"
       id="path3941" />
  </g>
</svg>
