<?xml version="1.0" encoding="UTF-8" standalone="no"?>
<!-- Created with Inkscape (http://www.inkscape.org/) -->

<svg
   xmlns:dc="http://purl.org/dc/elements/1.1/"
   xmlns:cc="http://creativecommons.org/ns#"
   xmlns:rdf="http://www.w3.org/1999/02/22-rdf-syntax-ns#"
   xmlns:svg="http://www.w3.org/2000/svg"
   xmlns="http://www.w3.org/2000/svg"
   version="1.1"
   width="1000"
   height="850"
   id="svg2">
  <defs
     id="defs4" />
  <metadata
     id="metadata7">
    <rdf:RDF>
      <cc:Work
         rdf:about="">
        <dc:format>image/svg+xml</dc:format>
        <dc:type
           rdf:resource="http://purl.org/dc/dcmitype/StillImage" />
        <dc:title></dc:title>
      </cc:Work>
    </rdf:RDF>
  </metadata>
  <g
     transform="translate(0,-202.36218)"
     id="layer1">
    <path
       d="m 38.671374,332.29668 c 1.799598,-0.0638 3.691188,0.23048 5.196977,0.85965 1.17985,0.49295 3.631347,0.82058 6.369226,0.82058 5.562049,0 6.41419,0.52378 8.713725,5.54865 4.508386,9.85154 5.089189,14.84831 2.070975,17.93543 -2.344041,2.39758 -4.929728,3.24327 -9.807826,3.24327 -4.214267,0 -4.311887,-0.0149 -6.369224,-1.99282 -0.983405,-0.94544 -1.790998,-2.08786 -2.420073,-3.42602 -0.485108,-1.85592 -1.666267,-1.40661 -2.933206,0.45631 l -2.227275,2.11006 c -1.352078,1.25479 -3.036597,2.19915 -4.220101,2.42265 -3.678171,0.69464 -7.417505,0.51467 -8.36205,-0.42982 -1.873416,-1.87344 -2.515877,-6.4824 -1.64115,-11.95697 0.372076,-2.32868 0.341511,-2.37566 -0.507976,-1.21131 -1.281075,1.75589 -2.03544,1.49857 -1.641149,-0.54705 0.719416,-3.73242 2.587203,-8.75782 3.7512,-10.19857 1.046002,-1.29474 1.766482,-1.60605 5.157901,-2.03191 2.178146,-0.27349 4.796224,-0.75551 5.822175,-1.09409 C 36.531579,332.50494 37.591617,332.33495 38.671374,332.29666 Z"
       id="path3182-1"
       style="fill:#000000" />
  </g>
</svg>
