<?xml version="1.0" encoding="UTF-8" standalone="no"?>
<!-- Created with Inkscape (http://www.inkscape.org/) -->

<svg
   xmlns:dc="http://purl.org/dc/elements/1.1/"
   xmlns:cc="http://creativecommons.org/ns#"
   xmlns:rdf="http://www.w3.org/1999/02/22-rdf-syntax-ns#"
   xmlns:svg="http://www.w3.org/2000/svg"
   xmlns="http://www.w3.org/2000/svg"
   xmlns:sodipodi="http://sodipodi.sourceforge.net/DTD/sodipodi-0.dtd"
   xmlns:inkscape="http://www.inkscape.org/namespaces/inkscape"
   width="600"
   height="700"
   id="svg2"
   version="1.1"
   inkscape:version="0.48+devel r11891"
   sodipodi:docname="1f.svg">
  <defs
     id="defs4" />
  <sodipodi:namedview
     id="base"
     pagecolor="#ffffff"
     bordercolor="#666666"
     borderopacity="1.0"
     inkscape:pageopacity="0.0"
     inkscape:pageshadow="2"
     inkscape:zoom="3.959798"
     inkscape:cx="125.16529"
     inkscape:cy="595.0737"
     inkscape:document-units="px"
     inkscape:current-layer="layer1"
     showgrid="false"
     showguides="true"
     inkscape:guide-bbox="true"
     inkscape:window-width="1440"
     inkscape:window-height="848"
     inkscape:window-x="-8"
     inkscape:window-y="-8"
     inkscape:window-maximized="1">
    <sodipodi:guide
       orientation="1,0"
       position="300.01531,344.46202"
       id="guide3178" />
    <sodipodi:guide
       orientation="0,1"
       position="-45.714286,350.71429"
       id="guide3180" />
  </sodipodi:namedview>
  <metadata
     id="metadata7">
    <rdf:RDF>
      <cc:Work
         rdf:about="">
        <dc:format>image/svg+xml</dc:format>
        <dc:type
           rdf:resource="http://purl.org/dc/dcmitype/StillImage" />
        <dc:title></dc:title>
      </cc:Work>
    </rdf:RDF>
  </metadata>
  <g
     inkscape:label="Layer 1"
     inkscape:groupmode="layer"
     id="layer1"
     transform="translate(0,-352.36218)">
    <path
       style="fill:#000000"
       d="m 34.925609,483.55228 c -0.574405,-0.15953 -1.834236,-1.0597 -2.90181,-2.0734 -0.753243,-0.71523 -1.244003,-3.231 -1.068753,-5.47871 0.143865,-1.84518 1.972248,-8.31398 2.640382,-9.34165 0.630809,-0.97025 2.761374,-5.62267 3.15984,-6.9 0.406636,-1.30351 0.316115,-3.66479 -0.166759,-4.35 -0.116278,-0.165 -0.588232,-1.4475 -1.048788,-2.85 -0.460556,-1.4025 -1.147431,-3.1575 -1.52639,-3.9 -0.37896,-0.7425 -0.756549,-1.6875 -0.839088,-2.1 -0.08254,-0.4125 -0.564848,-1.90874 -1.071798,-3.32498 -0.771989,-2.15666 -0.934327,-3.08948 -0.999282,-5.74199 -0.09161,-3.74095 0.251621,-4.43303 2.198514,-4.43303 1.369981,0 2.011814,0.7665 3.1305,3.73858 1.350266,3.58732 2.790426,6.16142 3.447205,6.16142 0.416536,0 0.598033,-0.20343 0.602216,-0.675 0.07208,-8.12419 0.253693,-10.63367 0.867275,-11.98354 0.683112,-1.50283 1.866018,-2.64146 2.744177,-2.64146 0.753808,0 2.38256,1.44172 2.38256,2.10896 0,0.3056 0.12626,0.63366 0.280579,0.72904 0.557033,0.34426 2.042719,4.89824 2.744324,8.412 1.499388,7.50919 2.372155,14.83183 2.377792,19.95 0.0041,3.70335 0.335273,5.26688 1.67194,7.89298 0.43588,0.85636 0.891493,1.75952 1.012468,2.00702 0.321276,0.65728 1.386981,4.37581 1.83381,6.39865 0.892323,4.03963 0.456525,5.4023 -2.283417,7.13992 -1.146428,0.72704 -1.805203,0.90117 -3.998339,1.05685 -2.854964,0.20265 -3.231401,0.0946 -5.219554,-1.49866 l -1.130396,-0.90585 -0.819604,0.66434 c -1.554445,1.25999 -3.437579,1.96036 -5.469603,2.03424 C 36.40311,483.68701 35.255609,483.64393 34.925609,483.55228 z m 4.399866,-1.53605 c 0.663281,-0.12526 1.598633,-0.6706 2.356391,-1.37384 l 1.256527,-1.16614 -0.178459,-2.13386 c -0.09815,-1.17363 -0.20463,-3.01053 -0.236618,-4.08199 l -0.05816,-1.94813 1.105226,-0.17965 c 1.249121,-0.20304 1.322775,-0.11275 0.580226,0.71124 -0.406552,0.45114 -0.516962,1.07218 -0.489375,2.75266 0.0483,2.9421 0.808835,5.13276 2.269464,6.537 1.153009,1.1085 1.205339,1.125 3.567179,1.125 2.733876,0 4.177831,-0.47935 5.491522,-1.82302 1.691526,-1.73014 1.368435,-4.53543 -1.15824,-10.05661 -1.288749,-2.81613 -1.764747,-3.12037 -4.881938,-3.12037 -1.534414,0 -2.905922,-0.17258 -3.567156,-0.44886 -1.350245,-0.56417 -3.256829,-0.64606 -4.613919,-0.19818 -0.574983,0.18976 -2.044194,0.47043 -3.264913,0.62371 -1.900684,0.23866 -2.317818,0.4004 -2.904038,1.12601 -0.65235,0.80747 -1.680142,3.63052 -2.083331,5.72232 -0.220976,1.14645 0.200227,1.28407 0.918192,0.3 0.476086,-0.65254 0.485294,-0.63009 0.276767,0.675 -0.490231,3.06816 -0.138847,5.65351 0.911089,6.70345 C 35.151259,482.29131 37.264083,482.40553 39.325475,482.01623 z m 1.825128,-16.72352 c 1.588327,-0.50068 1.691287,-0.49711 3.61766,0.12523 1.887159,0.60968 4.458707,0.82013 5.757347,0.47116 0.576495,-0.15491 0.597459,-0.38687 0.535144,-5.92091 -0.03567,-3.16782 -0.198308,-6.56967 -0.361415,-7.55967 -0.163107,-0.99 -0.377692,-2.77211 -0.476856,-3.96025 -0.09916,-1.18814 -0.310645,-2.60564 -0.469957,-3.15 -0.269335,-0.9203 -0.421759,-1.78954 -1.186705,-6.76749 -0.1587,-1.03275 -0.409247,-2.11275 -0.55677,-2.4 -0.147524,-0.28724 -0.495405,-1.30837 -0.773071,-2.26917 -0.622888,-2.15538 -2.499671,-4.18709 -3.734733,-4.04304 -1.421242,0.16577 -1.667797,1.25739 -1.748145,7.73995 -0.04485,3.61834 -0.236663,6.65111 -0.502818,7.95 -0.236669,1.155 -0.513941,2.93886 -0.616159,3.96413 -0.205755,2.06379 -2.508513,10.29434 -3.759111,13.43587 -0.78624,1.97505 -0.934209,2.55098 -0.737272,2.86963 C 36.420184,466.23515 38.932696,465.99184 41.150603,465.29271 z m -2.402214,-11.45919 c 0.579493,-1.68078 1.427525,-5.80178 1.426506,-6.93209 -3.9e-4,-0.4361 -0.524122,-1.56341 -1.163843,-2.50513 -0.63972,-0.94171 -1.726012,-3.16921 -2.413983,-4.95 -2.094862,-5.42245 -3.26099,-6.58549 -4.524748,-4.51278 -0.670392,1.09952 -0.748668,2.56994 -0.276545,5.1949 0.362016,2.01278 1.909596,6.12726 2.678424,7.12101 0.280453,0.3625 0.606604,1.05437 0.724781,1.53749 0.118176,0.48313 0.611262,1.72625 1.095748,2.76249 0.484484,1.03625 0.880881,1.94843 0.880881,2.02707 0,0.42805 0.621249,1.68204 0.833311,1.68204 C 38.14541,455.25852 38.478171,454.61727 38.748389,453.83352 Z"
       id="path3182"
       inkscape:connector-curvature="0"
       sodipodi:nodetypes="sssssssssssssssssscsssssssscssssscsscssssssssssssssssssssssssscssssssssssssssssssss" />
  </g>
</svg>
