<?xml version="1.0" encoding="UTF-8" standalone="no"?>
<!-- Created with Inkscape (http://www.inkscape.org/) -->

<svg
   xmlns:dc="http://purl.org/dc/elements/1.1/"
   xmlns:cc="http://creativecommons.org/ns#"
   xmlns:rdf="http://www.w3.org/1999/02/22-rdf-syntax-ns#"
   xmlns:svg="http://www.w3.org/2000/svg"
   xmlns="http://www.w3.org/2000/svg"
   xmlns:sodipodi="http://sodipodi.sourceforge.net/DTD/sodipodi-0.dtd"
   xmlns:inkscape="http://www.inkscape.org/namespaces/inkscape"
   width="1000"
   height="850"
   id="svg2"
   version="1.1"
   inkscape:version="0.48+devel r11738"
   sodipodi:docname="1f.svg">
  <defs
     id="defs4" />
  <sodipodi:namedview
     id="base"
     pagecolor="#ffffff"
     bordercolor="#666666"
     borderopacity="1.0"
     inkscape:pageopacity="0.0"
     inkscape:pageshadow="2"
     inkscape:zoom="1"
     inkscape:cx="427.2707"
     inkscape:cy="619.89495"
     inkscape:document-units="px"
     inkscape:current-layer="layer1"
     showgrid="false"
     showguides="true"
     inkscape:guide-bbox="true"
     inkscape:window-width="1366"
     inkscape:window-height="705"
     inkscape:window-x="-4"
     inkscape:window-y="-4"
     inkscape:window-maximized="1"
     width="0px"
     height="0px"
     fit-margin-top="0"
     fit-margin-left="0"
     fit-margin-right="0"
     fit-margin-bottom="0">
    <sodipodi:guide
       orientation="1,0"
       position="499.21739,739.63369"
       id="guide3178" />
    <sodipodi:guide
       orientation="0,1"
       position="499.21739,449.71991"
       id="guide3180" />
  </sodipodi:namedview>
  <metadata
     id="metadata7">
    <rdf:RDF>
      <cc:Work
         rdf:about="">
        <dc:format>image/svg+xml</dc:format>
        <dc:type
           rdf:resource="http://purl.org/dc/dcmitype/StillImage" />
        <dc:title></dc:title>
      </cc:Work>
    </rdf:RDF>
  </metadata>
  <g
     inkscape:label="Layer 1"
     inkscape:groupmode="layer"
     id="layer1"
     transform="translate(0,-202.36218)">
    <path
       id="path3182-1"
       style="fill:#000000"
       d="m 41.562926,263.29025 c -1.566912,0 -3.665488,2.04656 -4.884376,4.72808 -1.094823,2.40861 -1.434382,6.87791 -1.563,21.37404 -0.0075,0.84142 -0.311794,1.21131 -1.055025,1.21131 -1.171902,0 -3.76455,-4.57917 -6.17385,-10.98008 -1.996089,-5.30313 -3.143247,-6.68182 -5.587726,-6.68182 -3.473872,0 -4.070969,1.21811 -3.907501,7.89315 0.115901,4.7329 0.419979,6.38948 1.797451,10.23765 0.904558,2.527 1.7674,5.20338 1.914674,5.93941 0.147275,0.73601 0.808668,2.42633 1.484851,3.75118 0.676184,1.32487 1.913473,4.45284 2.735251,6.95536 0.821777,2.50251 1.629047,4.78535 1.836524,5.07975 0.861599,1.22265 1.038166,5.45005 0.3126,7.77593 -0.71099,2.27916 -4.50124,10.57739 -5.626801,12.30862 -1.192163,1.8337 -4.471374,13.39264 -4.728073,16.68503 -0.312703,4.01059 0.57065,8.49254 1.914673,9.76875 1.904889,1.80878 4.132981,3.42748 5.157901,3.71214 0.588823,0.16351 2.658098,0.22589 4.571775,0.15628 3.625774,-0.1318 6.995133,-1.38574 9.768752,-3.63397 l 1.445775,-1.17226 2.031899,1.60208 c 3.547493,2.84288 4.205693,3.01873 9.299851,2.65711 3.913245,-0.27778 5.105139,-0.57836 7.150726,-1.8756 4.888922,-3.10047 5.655987,-5.53049 4.063801,-12.73845 -0.797282,-3.60938 -2.709044,-10.23712 -3.282301,-11.4099 -0.215859,-0.44164 -1.019704,-2.06689 -1.797449,-3.59489 -2.385036,-4.68579 -2.96245,-7.45909 -2.969701,-14.06702 -0.01004,-9.13242 -1.583796,-22.19859 -4.259176,-35.59732 -1.251885,-6.26968 -3.890454,-14.39053 -4.884375,-15.00481 -0.275355,-0.17018 -0.507975,-0.74417 -0.507975,-1.28947 C 45.822101,265.88993 42.907957,263.2902 41.562926,263.2902 z m -1.055025,3.86843 c 2.203738,-0.25706 5.570396,3.34393 6.681825,7.18979 0.495446,1.71436 1.104396,3.55128 1.367625,4.06381 0.263228,0.51255 0.693706,2.4555 0.976875,4.29825 1.364905,8.88223 1.668548,10.43208 2.149125,12.07417 0.284264,0.9713 0.643641,3.50681 0.820576,5.62681 0.176937,2.12001 0.568613,5.26703 0.859649,7.0335 0.291034,1.76647 0.561555,7.86756 0.6252,13.51994 0.111198,9.87446 0.09084,10.27385 -0.937799,10.55026 -2.317184,0.62271 -6.90944,0.2282 -10.276726,-0.85965 -3.437257,-1.11046 -3.613299,-1.08876 -6.447376,-0.19538 -3.957445,1.24747 -8.44421,1.67507 -8.948175,0.85965 -0.3514,-0.56857 -0.07435,-1.59471 1.328549,-5.11881 2.231461,-5.60549 6.314695,-20.30962 6.681826,-23.99205 0.182389,-1.82943 0.671807,-5.01171 1.0941,-7.07258 0.474903,-2.31764 0.818687,-7.728 0.898725,-14.18424 C 37.525268,269.38518 37.971955,267.4544 40.507901,267.15863 z m -18.287102,7.38522 c 1.598375,0.0609 3.408674,3.11695 5.978476,9.76875 1.227557,3.17752 3.156789,7.1897 4.298249,8.87002 1.141465,1.68032 2.07028,3.67641 2.070976,4.45455 0.0019,2.01684 -1.505877,9.34867 -2.539876,12.3477 -0.482154,1.39845 -1.085009,2.57895 -1.328549,2.57895 -0.378386,0 -1.484851,-2.245 -1.484851,-3.00877 0,-0.14031 -0.698527,-1.78499 -1.562999,-3.63397 -0.864476,-1.849 -1.74289,-4.06137 -1.95375,-4.92346 -0.210867,-0.86202 -0.789059,-2.08843 -1.289476,-2.73524 -1.37183,-1.77316 -4.1212,-9.10797 -4.767149,-12.69939 -0.842418,-4.68376 -0.727293,-7.33793 0.468898,-9.29985 C 20.815418,275.10736 21.494265,274.51616 22.220799,274.54381 z m 16.450575,57.75278 c 1.799598,-0.0638 3.691188,0.23048 5.196977,0.85965 1.17985,0.49295 3.631347,0.82058 6.369226,0.82058 5.562049,0 6.41419,0.52378 8.713725,5.54865 4.508386,9.85154 5.089189,14.84831 2.070975,17.93543 -2.344041,2.39758 -4.929728,3.24327 -9.807826,3.24327 -4.214267,0 -4.311894,-0.0149 -6.369224,-1.99282 -2.606224,-2.50561 -3.977623,-6.3947 -4.063802,-11.64435 -0.04923,-2.99848 0.173307,-4.11848 0.898725,-4.92346 1.32494,-1.47025 1.173801,-1.65175 -1.055025,-1.28946 l -1.953751,0.35167 0.07815,3.47767 c 0.05707,1.91184 0.254695,5.17384 0.429823,7.26796 l 0.312601,3.79026 -2.227275,2.11006 c -1.352078,1.25479 -3.036597,2.19915 -4.220101,2.42265 -3.678171,0.69464 -7.417505,0.51467 -8.36205,-0.42982 -1.873416,-1.87344 -2.515877,-6.4824 -1.64115,-11.95697 0.372076,-2.32868 0.341511,-2.37566 -0.507976,-1.21131 -1.281075,1.75589 -2.03544,1.49857 -1.641149,-0.54705 0.719416,-3.73242 2.587203,-8.75782 3.7512,-10.19857 1.046002,-1.29474 1.766482,-1.60605 5.157901,-2.03191 2.178146,-0.27349 4.796224,-0.75551 5.822175,-1.09409 C 36.531579,332.50494 37.591617,332.33495 38.671374,332.29666 Z"
       inkscape:connector-curvature="0"
       sodipodi:nodetypes="cscsssssssscsssscccccscscssssscccscssssscssssssscccsscsssscsscccccsssssssccccccscssscsccc" />
  </g>
</svg>
