<?xml version="1.0" encoding="UTF-8" standalone="no"?>
<!-- Created with Inkscape (http://www.inkscape.org/) -->

<svg
   xmlns:dc="http://purl.org/dc/elements/1.1/"
   xmlns:cc="http://creativecommons.org/ns#"
   xmlns:rdf="http://www.w3.org/1999/02/22-rdf-syntax-ns#"
   xmlns:svg="http://www.w3.org/2000/svg"
   xmlns="http://www.w3.org/2000/svg"
   version="1.1"
   width="1000"
   height="850"
   id="svg2">
  <defs
     id="defs4" />
  <metadata
     id="metadata7">
    <rdf:RDF>
      <cc:Work
         rdf:about="">
        <dc:format>image/svg+xml</dc:format>
        <dc:type
           rdf:resource="http://purl.org/dc/dcmitype/StillImage" />
        <dc:title></dc:title>
      </cc:Work>
    </rdf:RDF>
  </metadata>
  <g
     transform="translate(0,-202.36218)"
     id="layer1">
    <path
       d="m 55.629926,377.35021 c -0.62467,-10e-4 -1.344242,0.0552 -2.305424,0.11718 -3.300847,0.21313 -4.805531,0.63318 -8.322976,2.38357 -2.501299,1.24473 -6.173321,2.49865 -8.830951,3.04786 -6.15429,1.27176 -7.329835,1.7802 -10.198576,4.14195 -2.84059,2.33859 -4.157832,5.40554 -5.509575,12.77752 -0.458865,2.50251 -1.140944,5.87964 -1.484851,7.54148 -0.524875,2.53625 -0.488949,3.64042 0.273526,6.7209 1.058566,4.27668 3.380472,7.98101 6.134775,9.80782 1.071597,0.71071 3.896704,1.96162 6.252001,2.77433 3.667456,1.26546 5.025575,1.46464 9.417076,1.36763 4.931864,-0.10891 5.251781,-0.19478 8.479275,-2.18821 4.154949,-2.56631 6.564744,-5.1084 8.440202,-8.87002 1.355633,-2.719 3.533336,-5.64295 7.072575,-9.41708 4.61594,-4.9223 7.092188,-14.16007 5.1579,-19.2249 -1.18576,-3.10476 -4.857619,-6.74075 -9.299851,-9.1825 C 58.349197,377.74275 57.503938,377.35389 55.629926,377.35014 z m -1.797449,1.79759 c 1.802614,-0.0453 3.51684,0.40115 5.900325,1.44577 4.897279,2.1463 7.61796,5.95138 8.635576,12.11325 0.582797,3.52898 0.515019,3.86097 -0.9378,7.58056 -1.36495,3.49462 -3.914681,6.99442 -5.118825,6.99442 -0.247975,0 -1.307929,-0.3484 -2.344502,-0.7815 l -1.875599,-0.7815 0.351676,-3.24323 c 0.43627,-3.8561 -0.313716,-4.27226 -1.602075,-0.89872 -1.107145,2.89903 -2.633984,4.36699 -5.392351,5.11884 -2.972514,0.81022 -4.500301,0.74208 -6.994426,-0.39077 -3.628315,-1.64822 -4.623103,-5.75497 -1.992826,-8.20575 0.809632,-0.75439 1.863806,-1.53583 2.305427,-1.7193 0.441617,-0.18352 0.06265,-0.22238 -0.820577,-0.11715 -0.883234,0.10503 -2.024652,0.36577 -2.539875,0.58611 -0.774648,0.3313 -0.9378,0.0961 -0.9378,-1.25039 0,-1.79792 1.297886,-8.47255 2.1882,-11.21452 0.645484,-1.98795 2.642932,-3.20605 7.658702,-4.64994 C 51.633699,379.35432 52.750908,379.17474 53.832477,379.14759 z m -13.637177,5.93923 0.1563,2.071 c 0.09317,1.13405 -0.321652,3.71548 -0.937799,5.74402 -1.035008,3.40753 -1.19554,3.64339 -2.149126,3.04785 -1.51889,-0.94856 -1.844175,-0.21726 -1.0941,2.46172 0.771354,2.75502 0.500876,3.39234 -1.797449,4.33732 -2.216331,0.91129 -5.88714,1.49809 -6.369227,1.01595 -0.211319,-0.2113 -0.39075,-1.45945 -0.39075,-2.73525 0,-3.02598 -0.895354,-2.96343 -1.7193,0.11717 -0.607187,2.26999 -0.753514,2.45367 -2.266349,2.30543 -1.443922,-0.1415 -1.626709,-0.34812 -1.563001,-1.83652 0.03936,-0.91959 0.891757,-3.7077 1.875599,-6.17386 2.917128,-7.31228 6.615069,-10.19275 13.285503,-10.31581 L 40.1953,385.08698 z m -1.914674,18.71694 1.48485,1.71929 c 1.764118,1.99322 4.000547,2.75859 8.713725,3.04786 2.803587,0.17207 3.631992,0.46904 4.45455,1.48485 0.995149,1.22897 1.03493,1.1991 1.79745,0.15629 0.663925,-0.90796 0.848584,-0.92205 1.289475,-0.23444 0.738772,1.15217 0.01331,5.20906 -1.406699,8.01039 -1.837591,3.62517 -4.795571,6.21388 -8.244826,7.15071 -5.000401,1.35813 -9.517513,1.49704 -13.129202,0.39075 -1.766472,-0.54112 -3.896706,-1.13886 -4.728074,-1.32856 -2.546016,-0.58094 -5.945879,-4.6088 -6.916277,-8.16666 -1.375488,-5.04305 -1.4461,-9.64956 -0.117225,-10.1595 0.457451,-0.17554 1.791354,0.11141 2.930626,0.62519 1.898899,0.85627 2.257836,1.40655 4.571776,6.75997 1.388283,3.21188 2.75525,5.97813 3.008774,6.13479 0.906248,0.5601 0.407579,-1.91479 -1.17225,-6.01756 -2.222415,-5.7715 -2.140462,-6.24495 1.055025,-7.61961 3.309423,-1.42366 3.225921,-1.45344 3.243226,0.31259 l 0.03907,1.48485 1.563002,-1.87559 L 38.280626,403.80391 z m 18.873226,3.7512 c 0.157958,-0.0674 0.510084,0.12092 0.9378,0.50797 0.570272,0.51614 1.28911,0.77958 1.602075,0.58613 0.719045,-0.4444 0.748458,0.0422 0.03907,1.36764 -0.713709,1.33355 -1.602102,1.33517 -1.602075,0 0,-0.57147 -0.252638,-1.18569 -0.54705,-1.36764 -0.294412,-0.18182 -0.507975,-0.61503 -0.507975,-0.93767 C 57.075702,407.63073 57.101199,407.5776 57.153852,407.55511 Z"
       id="path3182-1"
       style="fill:#000000" />
  </g>
</svg>
