<?xml version="1.0" encoding="UTF-8" standalone="no"?>
<!-- Created with Inkscape (http://www.inkscape.org/) -->

<svg
   xmlns:dc="http://purl.org/dc/elements/1.1/"
   xmlns:cc="http://creativecommons.org/ns#"
   xmlns:rdf="http://www.w3.org/1999/02/22-rdf-syntax-ns#"
   xmlns:svg="http://www.w3.org/2000/svg"
   xmlns="http://www.w3.org/2000/svg"
   xmlns:sodipodi="http://sodipodi.sourceforge.net/DTD/sodipodi-0.dtd"
   xmlns:inkscape="http://www.inkscape.org/namespaces/inkscape"
   width="900"
   height="800"
   id="svg2"
   version="1.1"
   inkscape:version="0.48+devel r11738"
   sodipodi:docname="f1.svg">
  <defs
     id="defs4" />
  <sodipodi:namedview
     id="base"
     pagecolor="#ffffff"
     bordercolor="#666666"
     borderopacity="1.0"
     inkscape:pageopacity="0.0"
     inkscape:pageshadow="2"
     inkscape:zoom="2"
     inkscape:cx="127.8464"
     inkscape:cy="660.0984"
     inkscape:document-units="px"
     inkscape:current-layer="layer1"
     showgrid="false"
     showguides="true"
     inkscape:guide-bbox="true"
     inkscape:window-width="1366"
     inkscape:window-height="705"
     inkscape:window-x="-4"
     inkscape:window-y="-4"
     inkscape:window-maximized="1"
     width="0px"
     height="0px"
     fit-margin-top="0"
     fit-margin-left="0"
     fit-margin-right="0"
     fit-margin-bottom="0">
    <sodipodi:guide
       orientation="1,0"
       position="450,784"
       id="guide3178" />
    <sodipodi:guide
       orientation="0,1"
       position="-61,400"
       id="guide3180" />
  </sodipodi:namedview>
  <metadata
     id="metadata7">
    <rdf:RDF>
      <cc:Work
         rdf:about="">
        <dc:format>image/svg+xml</dc:format>
        <dc:type
           rdf:resource="http://purl.org/dc/dcmitype/StillImage" />
        <dc:title />
      </cc:Work>
    </rdf:RDF>
  </metadata>
  <g
     inkscape:label="Layer 1"
     inkscape:groupmode="layer"
     id="layer1"
     transform="translate(0,-252.36218)">
    <path
       id="rect18"
       transform="translate(0,252.36218)"
       style="fill:#ff0000;fill-opacity:1;stroke:none"
       d="m 30.6875,61 c -1.439536,0 -3.348948,1.88021 -4.46875,4.34375 -1.005824,2.21282 -1.319337,6.33852 -1.4375,19.65625 -0.0069,0.77302 -0.285937,1.09375 -0.96875,1.09375 -1.076636,0 -3.474055,-4.18194 -5.6875,-10.0625 C 16.291176,71.15921 15.245765,69.875 13,69.875 c -3.1914768,0 -3.7439301,1.11759 -3.59375,7.25 0.1064788,4.34816 0.3907536,5.8709 1.65625,9.40625 0.831025,2.32157 1.614698,4.79255 1.75,5.46875 0.135302,0.67619 0.753784,2.22034 1.375,3.4375 0.621216,1.21716 1.745024,4.10716 2.5,6.40625 0.754973,2.29908 1.496889,4.38578 1.6875,4.65625 0.791559,1.12326 0.979084,5.01944 0.3125,7.15625 -0.653193,2.09388 -4.153437,9.69075 -5.1875,11.28125 -1.09525,1.68464 -4.1079187,12.319 -4.34375,15.34375 -0.2872836,3.68456 0.5464834,7.79629 1.78125,8.96875 1.750038,1.66175 3.777147,3.14473 4.71875,3.40625 0.540958,0.15021 2.460639,0.22021 4.21875,0.15625 3.331032,-0.12108 6.420601,-1.27828 8.96875,-3.34375 l 1.3125,-1.0625 1.875,1.46875 c 3.259114,2.61178 3.851202,2.76973 8.53125,2.4375 3.595134,-0.2552 4.714451,-0.52696 6.59375,-1.71875 4.491496,-2.84843 5.181505,-5.09673 3.71875,-11.71875 -0.73247,-3.31596 -2.473343,-9.39131 -3,-10.46875 -0.198312,-0.40575 -0.941729,-1.90871 -1.65625,-3.3125 -2.191154,-4.30487 -2.743338,-6.86674 -2.75,-12.9375 C 43.45955,103.76621 42.020396,91.77828 39.5625,79.46875 38.412383,73.70874 36.006874,66.25184 35.09375,65.6875 34.840779,65.53116 34.625,65.00096 34.625,64.5 34.625,63.40616 31.923192,61 30.6875,61 z m -0.96875,3.5625 c 2.024593,-0.23616 5.13517,3.09177 6.15625,6.625 0.45517,1.575 1.008169,3.24789 1.25,3.71875 0.24183,0.47089 0.6461,2.24455 0.90625,3.9375 1.253951,8.16019 1.527239,9.58515 1.96875,11.09375 0.261155,0.89234 0.587448,3.23984 0.75,5.1875 0.162553,1.94768 0.513873,4.84588 0.78125,6.46875 0.267376,1.62288 0.535279,7.21336 0.59375,12.40625 0.102158,9.07176 0.07002,9.43356 -0.875,9.6875 -2.128818,0.57209 -6.343944,0.21817 -9.4375,-0.78125 -3.157838,-1.02019 -3.302558,-1.00825 -5.90625,-0.1875 -3.63574,1.14606 -7.787003,1.53039 -8.25,0.78125 -0.322834,-0.52234 -0.03885,-1.44987 1.25,-4.6875 2.050063,-5.14981 5.787714,-18.64817 6.125,-22.03125 0.167563,-1.68071 0.612037,-4.60666 1,-6.5 C 26.467548,88.15202 26.801468,83.18141 26.875,77.25 27.006713,66.62331 27.388953,64.83423 29.71875,64.5625 Z M 12.9375,71.34375 c 1.46844,0.0559 3.1391,2.88894 5.5,9 1.127768,2.91922 2.888831,6.58127 3.9375,8.125 1.048675,1.54372 1.905611,3.37886 1.90625,4.09375 0.0017,1.85288 -1.393806,8.58851 -2.34375,11.34375 -0.442959,1.28477 -0.995007,2.375 -1.21875,2.375 -0.347627,0 -1.375,-2.04831 -1.375,-2.75 0,-0.12891 -0.612052,-1.64507 -1.40625,-3.34375 -0.794202,-1.69869 -1.618781,-3.73924 -1.8125,-4.53125 -0.193725,-0.79194 -0.727764,-1.90577 -1.1875,-2.5 -1.260313,-1.62901 -3.781561,-8.38803 -4.375,-11.6875 C 9.7885632,77.16574 9.9010484,74.73993 11,72.9375 11.647386,71.87561 12.270026,71.31836 12.9375,71.34375 z m 15.09375,53.0625 c 1.653307,-0.0586 3.397868,0.20323 4.78125,0.78125 1.083938,0.45287 3.359687,0.78125 5.875,0.78125 5.109904,0 5.887397,0.47736 8,5.09375 4.141895,9.0507 4.679111,13.63259 1.90625,16.46875 -2.153491,2.20269 -4.549697,2.96875 -9.03125,2.96875 -3.871684,0 -3.953662,0.005 -5.84375,-1.8125 -2.394361,-2.30191 -3.639576,-5.89585 -3.71875,-10.71875 -0.04523,-2.75473 0.146052,-3.76046 0.8125,-4.5 1.217235,-1.35073 1.078893,-1.52035 -0.96875,-1.1875 l -1.8125,0.3125 0.09375,3.1875 c 0.05243,1.75643 0.214109,4.76362 0.375,6.6875 l 0.3125,3.46875 -2.0625,1.9375 c -1.242166,1.15279 -2.787704,2.04467 -3.875,2.25 -3.379168,0.63818 -6.819739,0.46146 -7.6875,-0.40625 -1.721125,-1.72115 -2.30362,-5.93922 -1.5,-10.96875 0.341829,-2.13938 0.311681,-2.19469 -0.46875,-1.125 -1.176935,1.61316 -1.862239,1.37933 -1.5,-0.5 0.660934,-3.42901 2.368125,-8.05138 3.4375,-9.375 0.960971,-1.18949 1.634273,-1.48377 4.75,-1.875 2.001082,-0.25126 4.401201,-0.68894 5.34375,-1 C 26.084238,124.59966 27.039268,124.44143 28.03125,124.40625 Z" />
  </g>
</svg>
