<?xml version="1.0" encoding="UTF-8" standalone="no"?>
<!-- Created with Inkscape (http://www.inkscape.org/) -->

<svg
   xmlns:dc="http://purl.org/dc/elements/1.1/"
   xmlns:cc="http://creativecommons.org/ns#"
   xmlns:rdf="http://www.w3.org/1999/02/22-rdf-syntax-ns#"
   xmlns:svg="http://www.w3.org/2000/svg"
   xmlns="http://www.w3.org/2000/svg"
   xmlns:sodipodi="http://sodipodi.sourceforge.net/DTD/sodipodi-0.dtd"
   xmlns:inkscape="http://www.inkscape.org/namespaces/inkscape"
   width="800"
   height="700"
   id="svg2"
   version="1.1"
   inkscape:version="0.48.2 r9819"
   sodipodi:docname="f1.svg">
  <defs
     id="defs4" />
  <sodipodi:namedview
     id="base"
     pagecolor="#ffffff"
     bordercolor="#666666"
     borderopacity="1.0"
     inkscape:pageopacity="0.0"
     inkscape:pageshadow="2"
     inkscape:zoom="4"
     inkscape:cx="123.18431"
     inkscape:cy="580.44389"
     inkscape:document-units="px"
     inkscape:current-layer="layer1"
     showgrid="false"
     showguides="true"
     inkscape:guide-bbox="true"
     inkscape:window-width="1366"
     inkscape:window-height="746"
     inkscape:window-x="-8"
     inkscape:window-y="-8"
     inkscape:window-maximized="1"
     width="0px"
     height="0px"
     fit-margin-top="0"
     fit-margin-left="0"
     fit-margin-right="0"
     fit-margin-bottom="0">
    <sodipodi:guide
       orientation="1,0"
       position="400.22244,349.31075"
       id="guide3178" />
    <sodipodi:guide
       orientation="0,1"
       position="400.22244,349.31075"
       id="guide3180" />
  </sodipodi:namedview>
  <metadata
     id="metadata7">
    <rdf:RDF>
      <cc:Work
         rdf:about="">
        <dc:format>image/svg+xml</dc:format>
        <dc:type
           rdf:resource="http://purl.org/dc/dcmitype/StillImage" />
        <dc:title />
      </cc:Work>
    </rdf:RDF>
  </metadata>
  <g
     inkscape:label="Layer 1"
     inkscape:groupmode="layer"
     id="layer1"
     transform="translate(0,-352.36218)">
    <path
       id="rect3015"
       transform="translate(0,352.36218)"
       style="fill:#ff0000"
       d="m 28.125,53.9375 c -1.27341,0 -2.97817,1.66451 -3.96875,3.84375 -0.88975,1.95748 -1.17671,5.59412 -1.28125,17.375 -0.007,0.6838 -0.23974,0.96875 -0.84375,0.96875 -0.95239,0 -3.07323,-3.70431 -5.03125,-8.90625 -1.62219,-4.30982 -2.54464,-5.4375 -4.53125,-5.4375 -2.8231803,0 -3.32037,0.98153 -3.1875,6.40625 0.0942,3.84641 0.3492697,5.21637 1.46875,8.34375 0.73511,2.05366 1.44282,4.21435 1.5625,4.8125 0.11969,0.59816 0.63796,1.98581 1.1875,3.0625 0.54952,1.07671 1.55089,3.59122 2.21875,5.625 0.66784,2.03377 1.33139,3.917 1.5,4.15625 0.70021,0.99365 0.83966,4.42228 0.25,6.3125 -0.57781,1.85226 -3.64776,8.59304 -4.5625,10 -0.96887,1.49024 -3.63514,10.88681 -3.84375,13.5625 -0.25414,3.25938 0.4702197,6.90033 1.5625,7.9375 1.54809,1.46998 3.35456,2.76867 4.1875,3 0.47854,0.13288 2.16353,0.1816 3.71875,0.125 2.94664,-0.10709 5.68339,-1.11037 7.9375,-2.9375 l 1.1875,-0.96875 1.625,1.3125 c 2.88303,2.31038 3.42253,2.45013 7.5625,2.15625 3.18026,-0.22575 4.15007,-0.47699 5.8125,-1.53125 3.97319,-2.51972 4.60646,-4.4859 3.3125,-10.34375 -0.64793,-2.93331 -2.19035,-8.32814 -2.65625,-9.28125 -0.17542,-0.35893 -0.83667,-1.66446 -1.46875,-2.90625 C 39.90546,106.81691 39.44338,104.5577 39.4375,99.1875 39.4295,91.76566 38.14301,81.13901 35.96875,70.25 34.95137,65.15468 32.80775,58.56172 32,58.0625 c -0.22378,-0.13828 -0.40625,-0.58812 -0.40625,-1.03125 0,-0.96764 -2.37564,-3.09375 -3.46875,-3.09375 z m -0.875,3.15625 c 1.79096,-0.2089 4.53425,2.71826 5.4375,5.84375 0.40265,1.39324 0.91108,2.86474 1.125,3.28125 0.21394,0.41655 0.55111,2.00243 0.78125,3.5 1.10925,7.21851 1.35944,8.47799 1.75,9.8125 0.23101,0.78936 0.51246,2.8396 0.65625,4.5625 0.14379,1.72292 0.48224,4.28317 0.71875,5.71875 0.23651,1.4356 0.44827,6.40636 0.5,11 0.0903,8.02488 0.08604,8.33787 -0.75,8.5625 -1.88314,0.50608 -5.63844,0.19659 -8.375,-0.6875 -2.79343,-0.90246 -2.91552,-0.8823 -5.21875,-0.15625 -3.21617,1.0138 -6.87168,1.35019 -7.28125,0.6875 -0.28558,-0.46206 -0.0776,-1.29223 1.0625,-4.15625 1.81348,-4.55552 5.13915,-16.50733 5.4375,-19.5 0.14824,-1.48677 0.56305,-4.07515 0.90625,-5.75 0.38594,-1.88354 0.65369,-6.28432 0.71875,-11.53125 0.1165,-9.40038 0.47032,-10.94714 2.53125,-11.1875 z m -14.84375,6 c 1.299,0.0495 2.75529,2.53165 4.84375,7.9375 0.99763,2.58233 2.57234,5.82192 3.5,7.1875 0.92766,1.36558 1.68694,2.99259 1.6875,3.625 0.002,1.63905 -1.2222,7.59397 -2.0625,10.03125 -0.39185,1.13652 -0.89582,2.09375 -1.09375,2.09375 -0.30751,0 -1.1875,-1.81679 -1.1875,-2.4375 0,-0.11404 -0.57869,-1.43485 -1.28125,-2.9375 -0.70253,-1.50267 -1.42239,-3.29937 -1.59375,-4 -0.17139,-0.70055 -0.62456,-1.69308 -1.03125,-2.21875 -1.11488,-1.44102 -3.35003,-7.42502 -3.875,-10.34375 -0.6846303,-3.80645 -0.5971403,-5.96807 0.375,-7.5625 0.57266,-0.93934 1.12832,-1.39745 1.71875,-1.375 z m 13.375,46.9375 c 1.46251,-0.0519 2.99502,0.17618 4.21875,0.6875 0.95887,0.40059 2.93122,0.65625 5.15625,0.65625 4.52024,0 5.22493,0.44757 7.09375,4.53125 3.66393,8.00625 4.14038,12.05363 1.6875,14.5625 -1.90499,1.94851 -4.00437,2.625 -7.96875,2.625 -3.4249,0 -3.51552,0.0137 -5.1875,-1.59375 -2.11804,-2.03626 -3.24246,-5.2024 -3.3125,-9.46875 -0.04,-2.43683 0.16045,-3.3458 0.75,-4 1.07675,-1.19486 0.93634,-1.35693 -0.875,-1.0625 l -1.5625,0.28125 0.0625,2.84375 c 0.0463,1.55375 0.20142,4.20438 0.34375,5.90625 l 0.25,3.0625 -1.8125,1.71875 c -1.09883,1.01975 -2.47568,1.78711 -3.4375,1.96875 -2.98921,0.56453 -6.01363,0.42382 -6.78125,-0.34375 -1.52252,-1.52253 -2.05463,-5.26962 -1.34375,-9.71875 0.3024,-1.8925 0.28413,-1.91501 -0.40625,-0.96875 -1.04112,1.42699 -1.6642,1.19373 -1.34375,-0.46875 0.58466,-3.03329 2.11653,-7.11037 3.0625,-8.28125 0.85006,-1.05223 1.43132,-1.31017 4.1875,-1.65625 1.77016,-0.22227 3.88496,-0.59984 4.71875,-0.875 0.73796,-0.24357 1.62248,-0.37513 2.5,-0.40625 z" />
  </g>
</svg>
