<?xml version="1.0" encoding="UTF-8" standalone="no"?>
<!-- Created with Inkscape (http://www.inkscape.org/) -->

<svg
   xmlns:dc="http://purl.org/dc/elements/1.1/"
   xmlns:cc="http://creativecommons.org/ns#"
   xmlns:rdf="http://www.w3.org/1999/02/22-rdf-syntax-ns#"
   xmlns:svg="http://www.w3.org/2000/svg"
   xmlns="http://www.w3.org/2000/svg"
   xmlns:sodipodi="http://sodipodi.sourceforge.net/DTD/sodipodi-0.dtd"
   xmlns:inkscape="http://www.inkscape.org/namespaces/inkscape"
   width="800"
   height="400"
   id="svg2"
   version="1.1"
   inkscape:version="0.48.2 r9819"
   sodipodi:docname="f1.svg">
  <defs
     id="defs4" />
  <sodipodi:namedview
     id="base"
     pagecolor="#ffffff"
     bordercolor="#666666"
     borderopacity="1.0"
     inkscape:pageopacity="0.0"
     inkscape:pageshadow="2"
     inkscape:zoom="4"
     inkscape:cx="87.90643"
     inkscape:cy="308.4243"
     inkscape:document-units="px"
     inkscape:current-layer="layer1"
     showgrid="false"
     showguides="true"
     inkscape:guide-bbox="true"
     inkscape:window-width="1366"
     inkscape:window-height="746"
     inkscape:window-x="-8"
     inkscape:window-y="-8"
     inkscape:window-maximized="1"
     width="0px"
     height="0px"
     fit-margin-top="0"
     fit-margin-left="0"
     fit-margin-right="0"
     fit-margin-bottom="0">
    <sodipodi:guide
       orientation="1,0"
       position="400.22244,349.31075"
       id="guide3178" />
    <sodipodi:guide
       orientation="0,1"
       position="-117.37973,199.40411"
       id="guide3180" />
  </sodipodi:namedview>
  <metadata
     id="metadata7">
    <rdf:RDF>
      <cc:Work
         rdf:about="">
        <dc:format>image/svg+xml</dc:format>
        <dc:type
           rdf:resource="http://purl.org/dc/dcmitype/StillImage" />
        <dc:title></dc:title>
      </cc:Work>
    </rdf:RDF>
  </metadata>
  <g
     inkscape:label="Layer 1"
     inkscape:groupmode="layer"
     id="layer1"
     transform="translate(0,-652.36218)">
    <path
       id="rect3285"
       transform="translate(0,652.36218)"
       style="fill:#ff0000"
       d="m 29.65625,45.65625 c -1.27341,0 -2.97817,1.66451 -3.96875,3.84375 -0.88975,1.95748 -1.14546,5.59412 -1.25,17.375 -0.007,0.6838 -0.27099,1 -0.875,1 -0.95239,0 -3.04198,-3.73556 -5,-8.9375 C 16.94031,54.62768 15.98661,53.5 14,53.5 c -2.82318,0 -3.28912,1.01278 -3.15625,6.4375 0.0942,3.84641 0.34927,5.18512 1.46875,8.3125 0.73511,2.05366 1.41157,4.21435 1.53125,4.8125 0.11969,0.59816 0.66921,1.98581 1.21875,3.0625 0.54952,1.07671 1.55089,3.62247 2.21875,5.65625 0.66784,2.03377 1.33139,3.88575 1.5,4.125 0.70021,0.99365 0.83966,4.42228 0.25,6.3125 -0.57781,1.85226 -3.64776,8.59304 -4.5625,10 -0.96887,1.49024 -3.63514,10.88681 -3.84375,13.5625 -0.25414,3.25938 0.47022,6.90033 1.5625,7.9375 1.54809,1.46998 3.35456,2.79992 4.1875,3.03125 0.47854,0.13288 2.16353,0.1816 3.71875,0.125 2.94664,-0.10709 5.68339,-1.14162 7.9375,-2.96875 l 1.15625,-0.9375 1.65625,1.28125 c 2.88303,2.31038 3.42253,2.45013 7.5625,2.15625 3.18026,-0.22575 4.15007,-0.44574 5.8125,-1.5 3.97319,-2.51972 4.60646,-4.51715 3.3125,-10.375 -0.64793,-2.93331 -2.2216,-8.29689 -2.6875,-9.25 -0.17542,-0.35893 -0.83667,-1.69571 -1.46875,-2.9375 -1.93829,-3.80809 -2.40037,-6.0673 -2.40625,-11.4375 C 40.96075,83.48441 39.67426,72.88901 37.5,62 36.48262,56.90468 34.339,50.28047 33.53125,49.78125 33.30747,49.64297 33.125,49.19313 33.125,48.75 33.1248,47.78236 30.74936,45.65625 29.65625,45.65625 z M 28.8125,48.8125 c 1.79096,-0.2089 4.53425,2.71826 5.4375,5.84375 0.40265,1.39324 0.87983,2.89599 1.09375,3.3125 0.21394,0.41655 0.58236,1.97118 0.8125,3.46875 1.10925,7.21851 1.35944,8.47799 1.75,9.8125 0.23101,0.78936 0.51246,2.87085 0.65625,4.59375 0.14379,1.72292 0.45099,4.28317 0.6875,5.71875 0.23651,1.4356 0.47952,6.37511 0.53125,10.96875 0.0903,8.02488 0.05479,8.36912 -0.78125,8.59375 -1.88314,0.50608 -5.60719,0.16534 -8.34375,-0.71875 -2.79343,-0.90246 -2.94677,-0.8823 -5.25,-0.15625 -3.21617,1.0138 -6.84043,1.35019 -7.25,0.6875 -0.28558,-0.46206 -0.0776,-1.29223 1.0625,-4.15625 1.81348,-4.55552 5.13915,-16.50733 5.4375,-19.5 0.14824,-1.48677 0.5318,-4.07515 0.875,-5.75 0.38594,-1.88354 0.68494,-6.25307 0.75,-11.5 0.1163,-9.40038 0.47032,-10.97839 2.53125,-11.21875 z m -14.875,6 c 1.299,0.0495 2.78654,2.53165 4.875,7.9375 0.99763,2.58233 2.57234,5.85317 3.5,7.21875 0.92766,1.36558 1.68694,2.99259 1.6875,3.625 0.002,1.63905 -1.2222,7.59397 -2.0625,10.03125 -0.39185,1.13652 -0.89582,2.09375 -1.09375,2.09375 -0.30751,0 -1.21875,-1.84804 -1.21875,-2.46875 0,-0.11404 -0.54744,-1.43485 -1.25,-2.9375 -0.70253,-1.50267 -1.42239,-3.29937 -1.59375,-4 -0.17139,-0.70055 -0.65581,-1.69308 -1.0625,-2.21875 -1.11488,-1.44102 -3.35003,-7.39377 -3.875,-10.3125 -0.68463,-3.80645 -0.56589,-5.96807 0.40625,-7.5625 0.57246,-0.93934 1.09707,-1.4287 1.6875,-1.40625 z m 13.375,46.9375 c 1.46251,-0.0519 2.99502,0.17618 4.21875,0.6875 0.95887,0.40059 2.96247,0.6875 5.1875,0.6875 4.52024,0 5.22493,0.41632 7.09375,4.5 3.66393,8.00625 4.14038,12.05363 1.6875,14.5625 -1.90499,1.94851 -4.03562,2.65625 -8,2.65625 -3.4249,0 -3.48427,-0.0175 -5.15625,-1.625 -2.11804,-2.03626 -3.24246,-5.2024 -3.3125,-9.46875 -0.04,-2.43683 0.16045,-3.3458 0.75,-4 1.07675,-1.19486 0.93634,-1.35693 -0.875,-1.0625 L 27.3125,109 l 0.0625,2.8125 c 0.0463,1.55375 0.20142,4.20438 0.34375,5.90625 L 28,120.8125 26.1875,122.5 c -1.09883,1.01975 -2.47568,1.78711 -3.4375,1.96875 -2.98921,0.56453 -6.04488,0.42382 -6.8125,-0.34375 -1.52252,-1.52253 -2.02338,-5.26962 -1.3125,-9.71875 0.3024,-1.8925 0.28413,-1.91501 -0.40625,-0.96875 -1.04112,1.42699 -1.6642,1.22498 -1.34375,-0.4375 0.58466,-3.03329 2.08528,-7.14162 3.03125,-8.3125 0.85006,-1.05223 1.46257,-1.27892 4.21875,-1.625 1.77016,-0.22227 3.88496,-0.63109 4.71875,-0.90625 0.73776,-0.24357 1.59123,-0.37513 2.46875,-0.40625 z" />
  </g>
</svg>
