<?xml version="1.0" encoding="UTF-8" standalone="no"?>
<!-- Created with Inkscape (http://www.inkscape.org/) -->

<svg
   xmlns:dc="http://purl.org/dc/elements/1.1/"
   xmlns:cc="http://creativecommons.org/ns#"
   xmlns:rdf="http://www.w3.org/1999/02/22-rdf-syntax-ns#"
   xmlns:svg="http://www.w3.org/2000/svg"
   xmlns="http://www.w3.org/2000/svg"
   xmlns:sodipodi="http://sodipodi.sourceforge.net/DTD/sodipodi-0.dtd"
   xmlns:inkscape="http://www.inkscape.org/namespaces/inkscape"
   width="900"
   height="800"
   id="svg2"
   version="1.1"
   inkscape:version="0.48+devel r11738"
   sodipodi:docname="l1.svg">
  <defs
     id="defs4" />
  <sodipodi:namedview
     id="base"
     pagecolor="#ffffff"
     bordercolor="#666666"
     borderopacity="1.0"
     inkscape:pageopacity="0.0"
     inkscape:pageshadow="2"
     inkscape:zoom="2"
     inkscape:cx="127.8464"
     inkscape:cy="534.39413"
     inkscape:document-units="px"
     inkscape:current-layer="layer1"
     showgrid="false"
     showguides="true"
     inkscape:guide-bbox="true"
     inkscape:window-width="1366"
     inkscape:window-height="705"
     inkscape:window-x="-4"
     inkscape:window-y="-4"
     inkscape:window-maximized="1"
     width="0px"
     height="0px"
     fit-margin-top="0"
     fit-margin-left="0"
     fit-margin-right="0"
     fit-margin-bottom="0">
    <sodipodi:guide
       orientation="1,0"
       position="450,784"
       id="guide3178" />
    <sodipodi:guide
       orientation="0,1"
       position="-61,400"
       id="guide3180" />
  </sodipodi:namedview>
  <metadata
     id="metadata7">
    <rdf:RDF>
      <cc:Work
         rdf:about="">
        <dc:format>image/svg+xml</dc:format>
        <dc:type
           rdf:resource="http://purl.org/dc/dcmitype/StillImage" />
        <dc:title />
      </cc:Work>
    </rdf:RDF>
  </metadata>
  <g
     inkscape:label="Layer 1"
     inkscape:groupmode="layer"
     id="layer1"
     transform="translate(0,-252.36218)">
    <path
       id="rect42"
       transform="translate(0,252.36218)"
       style="fill:#ff0000;fill-opacity:1;stroke:none"
       d="m 29.46875,232.875 c -2.14396,0.0325 -4.061248,0.3767 -6.0625,1.09375 -1.905186,0.68261 -2.320196,0.67828 -4.09375,-0.0312 -1.07844,-0.43153 -3.073112,-0.78125 -4.46875,-0.78125 -2.391856,0 -2.68475,0.11064 -4.75,2.3125 -3.9946872,4.25888 -4.2428122,5.9342 -2.125,14.4375 1.4072297,5.65024 2.245858,7.84375 2.96875,7.84375 0.210865,0 0.767311,0.7721 1.21875,1.71875 0.451439,0.94669 0.99399,1.71875 1.21875,1.71875 0.224758,0 0.794185,0.76289 1.25,1.71875 1.753135,3.67638 0.885211,10.36715 -2.625,20.6875 -2.1155106,6.21978 -3.1667198,12.40978 -3.1875,18.65625 -0.016332,4.90603 0.1006823,5.699 1.34375,8.375 0.820832,1.76705 2.026682,3.39984 2.96875,4.0625 0.865203,0.60856 1.835095,1.06255 2.15625,1.0625 1.018092,0 3.603168,-2.4958 4.59375,-4.4375 0.525233,-1.02956 1.188891,-2.00261 1.4375,-2.15625 0.24861,-0.15366 1.006299,0.72179 1.71875,1.9375 0.712451,1.21569 1.913917,2.5375 2.6875,2.9375 1.28838,0.66625 1.519943,0.64384 2.65625,-0.25 0.682276,-0.53667 1.640043,-2.03066 2.125,-3.3125 1.088325,-2.87673 3.464575,-7.4972 5.34375,-10.4375 0.777899,-1.21715 2.056278,-3.67942 2.84375,-5.4375 0.787468,-1.75812 2.052417,-4.58403 2.84375,-6.28125 0.791334,-1.69724 1.723443,-4.09694 2.03125,-5.375 0.307807,-1.27803 0.853198,-3.02269 1.21875,-3.875 0.365554,-0.8523 0.625,-2.37902 0.625,-3.375 0,-0.99599 0.445397,-3.48885 0.96875,-5.5625 0.559506,-2.21685 1.191938,-7.41513 1.53125,-12.59375 0.508633,-7.76284 0.504172,-9.10582 -0.1875,-11.3125 -0.431607,-1.37698 -1.119707,-3.74374 -1.53125,-5.28125 -1.227872,-4.58746 -4.583727,-6.66897 -12.53125,-7.78125 C 32.137846,232.94384 30.755126,232.85554 29.46875,232.875 z m -0.3125,1.8125 c 0.725942,-0.0438 1.46627,0.1148 2.59375,0.375 4.466123,1.0309 10.71875,4.78075 10.71875,6.4375 0,0.2743 0.218959,0.5 0.5,0.5 0.281042,0 1.313886,1.57791 2.25,3.53125 2.47381,5.16197 2.215325,8.05573 -1.09375,12.96875 -2.165167,3.21464 -5.214935,4.6828 -14.65625,7.09375 -4.485956,1.14553 -7.581656,1.22226 -10.21875,0.28125 -2.550726,-0.91021 -2.877751,-1.23726 -5.40625,-5.5625 -3.217027,-5.50301 -3.669066,-6.48657 -4.78125,-10.5 -1.3327412,-4.80938 -1.2750479,-6.18321 0.4375,-9.34375 1.701016,-3.13925 3.038625,-4.67108 4.46875,-5.125 1.535375,-0.48732 3.418381,0.16828 3.40625,1.15625 -0.01114,0.90414 -2.928163,3.16478 -5.125,4 -1.682773,0.6398 -1.155225,1.5 0.90625,1.5 1.683512,0 3.955722,-1.09126 8.25,-3.96875 1.447858,-0.97014 3.810551,-2.18847 5.21875,-2.6875 C 27.740937,234.94822 28.430307,234.73126 29.15625,234.6875 z m 10.125,30.09375 c 1.343259,-0.0463 1.198574,1.24462 0.28125,4.90625 -0.576765,2.30225 -1.436573,5.25166 -1.90625,6.5625 -1.216869,3.39626 -5.319218,10.72535 -7.8125,14 -1.168513,1.53471 -2.125,3.02556 -2.125,3.28125 0,0.2557 -0.860339,1.55488 -1.90625,2.875 -2.178821,2.75001 -3.457987,5.19615 -5.125,9.625 -1.173019,3.11643 -3.302756,6.67339 -4.40625,7.375 -1.892797,1.2035 -3.630913,-0.44018 -5.25,-5 -0.991049,-2.79109 -1.1282877,-3.78001 -0.875,-7.9375 0.344846,-5.6604 1.620817,-12.62596 2.84375,-15.6875 1.750217,-4.38154 3.489271,-10.85546 3.8125,-14.125 l 0.34375,-3.34375 1.75,0.15625 c 7.298947,0.61188 12.232108,0.0675 17.53125,-1.90625 C 37.742006,265.07651 38.670677,264.80228 39.28125,264.78125 z m 4,0.3125 c 0.113302,-0.007 0.15625,0.20733 0.15625,0.59375 0,0.33278 0.404408,0.98329 0.84375,1.46875 0.739304,0.81695 0.695038,1.3788 -0.5,7.5625 -0.710164,3.67473 -1.627202,7.27029 -2,8 -0.372798,0.72975 -0.833047,2.11582 -1.03125,3.0625 -0.408431,1.95071 -5.839094,12.75657 -11.90625,23.59375 -1.110444,1.98348 -1.758031,2.31133 -2.9375,1.5625 -0.660231,-0.41918 -2.10603,-5.29581 -2.09375,-7.09375 0.01204,-1.761 1.123171,-4.43352 2.4375,-5.8125 0.674366,-0.70753 1.876064,-2.27253 2.6875,-3.4375 0.811436,-1.16502 2.524184,-3.45004 3.75,-5.09375 3.589717,-4.81344 5.712843,-9.79117 8.78125,-20.3125 C 42.170054,266.78268 42.941356,265.11775 43.28125,265.09375 Z" />
  </g>
</svg>
