<?xml version="1.0" encoding="UTF-8" standalone="no"?>
<!-- Created with Inkscape (http://www.inkscape.org/) -->

<svg
   xmlns:dc="http://purl.org/dc/elements/1.1/"
   xmlns:cc="http://creativecommons.org/ns#"
   xmlns:rdf="http://www.w3.org/1999/02/22-rdf-syntax-ns#"
   xmlns:svg="http://www.w3.org/2000/svg"
   xmlns="http://www.w3.org/2000/svg"
   xmlns:sodipodi="http://sodipodi.sourceforge.net/DTD/sodipodi-0.dtd"
   xmlns:inkscape="http://www.inkscape.org/namespaces/inkscape"
   width="800"
   height="700"
   id="svg2"
   version="1.1"
   inkscape:version="0.48.2 r9819"
   sodipodi:docname="m1.svg">
  <defs
     id="defs4" />
  <sodipodi:namedview
     id="base"
     pagecolor="#ffffff"
     bordercolor="#666666"
     borderopacity="1.0"
     inkscape:pageopacity="0.0"
     inkscape:pageshadow="2"
     inkscape:zoom="2"
     inkscape:cx="77.727679"
     inkscape:cy="495.83725"
     inkscape:document-units="px"
     inkscape:current-layer="layer1"
     showgrid="false"
     showguides="true"
     inkscape:guide-bbox="true"
     inkscape:window-width="1366"
     inkscape:window-height="746"
     inkscape:window-x="-8"
     inkscape:window-y="-8"
     inkscape:window-maximized="1"
     width="0px"
     height="0px"
     fit-margin-top="0"
     fit-margin-left="0"
     fit-margin-right="0"
     fit-margin-bottom="0">
    <sodipodi:guide
       orientation="1,0"
       position="400.22244,349.31075"
       id="guide3178" />
    <sodipodi:guide
       orientation="0,1"
       position="400.22244,349.31075"
       id="guide3180" />
  </sodipodi:namedview>
  <metadata
     id="metadata7">
    <rdf:RDF>
      <cc:Work
         rdf:about="">
        <dc:format>image/svg+xml</dc:format>
        <dc:type
           rdf:resource="http://purl.org/dc/dcmitype/StillImage" />
        <dc:title></dc:title>
      </cc:Work>
    </rdf:RDF>
  </metadata>
  <g
     inkscape:label="Layer 1"
     inkscape:groupmode="layer"
     id="layer1"
     transform="translate(0,-352.36218)">
    <path
       id="rect3005"
       transform="translate(0,352.36218)"
       style="fill:#ff0000"
       d="m 27.03125,205.96875 c -1.89653,0.0287 -3.57345,0.33445 -5.34375,0.96875 -1.68533,0.60384 -2.05611,0.59644 -3.625,-0.0312 -0.954,-0.38174 -2.73415,-0.6875 -3.96875,-0.6875 -2.11582,0 -2.39183,0.11473 -4.21875,2.0625 -3.5337,3.76742 -3.71716,5.22796 -1.84375,12.75 1.24484,4.9982 1.9542797,6.9375 2.59375,6.9375 0.18653,0 0.66316,0.69385 1.0625,1.53125 0.39935,0.83745 0.89493,1.5 1.09375,1.5 0.19881,0 0.72179,0.6857 1.125,1.53125 1.55084,3.25214 0.7614,9.15186 -2.34375,18.28125 -1.8713803,5.50201 -2.79412,11.0056 -2.8125,16.53125 -0.0145,4.33986 0.11912,5.03905 1.21875,7.40625 0.72611,1.56313 1.7604,2.97631 2.59375,3.5625 0.76537,0.53833 1.62213,0.96879 1.90625,0.96875 0.9006,0 3.18623,-2.21987 4.0625,-3.9375 0.46463,-0.91076 1.06134,-1.77034 1.28125,-1.90625 0.21994,-0.13594 0.86977,0.64333 1.5,1.71875 0.63023,1.07541 1.72192,2.23991 2.40625,2.59375 1.1397,0.58938 1.33856,0.57193 2.34375,-0.21875 0.60354,-0.47475 1.44601,-1.77234 1.875,-2.90625 0.96273,-2.54477 3.05642,-6.649 4.71875,-9.25 0.68812,-1.07669 1.80342,-3.25731 2.5,-4.8125 0.69662,-1.55523 1.86248,-4.02989 2.5625,-5.53125 0.70002,-1.50138 1.50895,-3.65067 1.78125,-4.78125 0.27227,-1.13054 0.73913,-2.68355 1.0625,-3.4375 0.32336,-0.75394 0.5625,-2.0877 0.5625,-2.96875 0,-0.88105 0.41204,-3.10314 0.875,-4.9375 0.49494,-1.96102 1.0436,-6.54399 1.34375,-11.125 0.44995,-6.86702 0.42434,-8.04796 -0.1875,-10 -0.38182,-1.21807 -0.97969,-3.32742 -1.34375,-4.6875 -1.08617,-4.05808 -4.06334,-5.89108 -11.09375,-6.875 -1.34317,-0.1879 -2.54955,-0.26722 -3.6875,-0.25 z M 26.75,207.5625 c 0.64215,-0.0389 1.28387,0.11359 2.28125,0.34375 3.95074,0.91194 9.5,4.22192 9.5,5.6875 0,0.24264 0.1889,0.46875 0.4375,0.46875 0.24862,0 1.14066,1.36583 1.96875,3.09375 2.18832,4.56628 1.98971,7.12269 -0.9375,11.46875 -1.91531,2.84368 -4.61694,4.14852 -12.96875,6.28125 -3.96826,1.01333 -6.69846,1.08242 -9.03125,0.25 -2.25636,-0.80517 -2.57579,-1.08014 -4.8125,-4.90625 -2.84579,-4.86796 -3.23489,-5.76222 -4.21875,-9.3125 -1.17894,-4.25439 -1.13994,-5.45419 0.375,-8.25 1.50471,-2.77699 2.70365,-4.12971 3.96875,-4.53125 1.35818,-0.43109 3.04198,0.12603 3.03125,1 -0.01,0.79979 -2.61919,2.82366 -4.5625,3.5625 -1.48858,0.56596 -1.01107,1.34375 0.8125,1.34375 1.48923,0 3.51379,-0.98582 7.3125,-3.53125 1.28077,-0.85819 3.34805,-1.93355 4.59375,-2.375 0.98715,-0.34989 1.60782,-0.55505 2.25,-0.59375 z m 8.96875,26.625 c 1.18824,-0.0409 1.06146,1.10466 0.25,4.34375 -0.51021,2.03657 -1.27203,4.65293 -1.6875,5.8125 -1.07645,3.00433 -4.73195,9.47823 -6.9375,12.375 -1.03367,1.35759 -1.875,2.68008 -1.875,2.90625 0,0.22619 -0.73103,1.36347 -1.65625,2.53125 -1.92738,2.43266 -3.08786,4.58224 -4.5625,8.5 -1.03764,2.7568 -2.93008,5.94185 -3.90625,6.5625 -1.67437,1.06462 -3.19278,-0.40386 -4.625,-4.4375 -0.8767003,-2.46899 -0.97406,-3.35353 -0.75,-7.03125 0.30505,-5.00719 1.41819,-11.16676 2.5,-13.875 1.54824,-3.8759 3.08905,-9.57651 3.375,-12.46875 l 0.3125,-2.96875 1.5,0.125 c 6.45666,0.54128 10.84363,0.0584 15.53125,-1.6875 1.15398,-0.42992 1.99113,-0.66889 2.53125,-0.6875 z m 3.5,0.28125 c 0.10022,-0.007 0.1875,0.15818 0.1875,0.5 0,0.29438 0.33011,0.88306 0.71875,1.3125 0.65398,0.72267 0.61964,1.21739 -0.4375,6.6875 -0.62821,3.25066 -1.42023,6.44825 -1.75,7.09375 -0.32978,0.64553 -0.76216,1.85006 -0.9375,2.6875 -0.36129,1.7256 -5.16424,11.28842 -10.53125,20.875 -0.98229,1.75459 -1.55039,2.06867 -2.59375,1.40625 -0.58403,-0.3708 -1.85461,-4.69081 -1.84375,-6.28125 0.0106,-1.55779 0.9936,-3.93641 2.15625,-5.15625 0.59656,-0.62589 1.6572,-2.00072 2.375,-3.03125 0.71782,-1.03058 2.22814,-3.04598 3.3125,-4.5 3.17546,-4.25799 5.06692,-8.66158 7.78125,-17.96875 0.62036,-2.1273 1.26183,-3.60376 1.5625,-3.625 z" />
  </g>
</svg>
