<?xml version="1.0" encoding="UTF-8" standalone="no"?>
<!-- Created with Inkscape (http://www.inkscape.org/) -->

<svg
   xmlns:dc="http://purl.org/dc/elements/1.1/"
   xmlns:cc="http://creativecommons.org/ns#"
   xmlns:rdf="http://www.w3.org/1999/02/22-rdf-syntax-ns#"
   xmlns:svg="http://www.w3.org/2000/svg"
   xmlns="http://www.w3.org/2000/svg"
   xmlns:sodipodi="http://sodipodi.sourceforge.net/DTD/sodipodi-0.dtd"
   xmlns:inkscape="http://www.inkscape.org/namespaces/inkscape"
   width="900"
   height="800"
   id="svg2"
   version="1.1"
   inkscape:version="0.48+devel r11738"
   sodipodi:docname="m1.svg">
  <defs
     id="defs4" />
  <sodipodi:namedview
     id="base"
     pagecolor="#ffffff"
     bordercolor="#666666"
     borderopacity="1.0"
     inkscape:pageopacity="0.0"
     inkscape:pageshadow="2"
     inkscape:zoom="2"
     inkscape:cx="127.8464"
     inkscape:cy="659.50378"
     inkscape:document-units="px"
     inkscape:current-layer="layer1"
     showgrid="false"
     showguides="true"
     inkscape:guide-bbox="true"
     inkscape:window-width="1366"
     inkscape:window-height="705"
     inkscape:window-x="-4"
     inkscape:window-y="-4"
     inkscape:window-maximized="1"
     width="0px"
     height="0px"
     fit-margin-top="0"
     fit-margin-left="0"
     fit-margin-right="0"
     fit-margin-bottom="0">
    <sodipodi:guide
       orientation="1,0"
       position="450,784"
       id="guide3178" />
    <sodipodi:guide
       orientation="0,1"
       position="-61,400"
       id="guide3180" />
  </sodipodi:namedview>
  <metadata
     id="metadata7">
    <rdf:RDF>
      <cc:Work
         rdf:about="">
        <dc:format>image/svg+xml</dc:format>
        <dc:type
           rdf:resource="http://purl.org/dc/dcmitype/StillImage" />
        <dc:title />
      </cc:Work>
    </rdf:RDF>
  </metadata>
  <g
     inkscape:label="Layer 1"
     inkscape:groupmode="layer"
     id="layer1"
     transform="translate(0,-252.36218)">
    <path
       id="rect30"
       transform="translate(0,252.36218)"
       style="fill:#ff0000;fill-opacity:1;stroke:none"
       d="m 43.625,165.8125 c -0.57389,-9.2e-4 -1.241953,0.0368 -2.125,0.0937 -3.032518,0.19581 -4.393492,0.5794 -7.625,2.1875 -2.297966,1.14355 -5.683411,2.30793 -8.125,2.8125 -5.654001,1.16837 -6.739462,1.64274 -9.375,3.8125 -2.609675,2.14848 -3.820642,4.94604 -5.0625,11.71875 -0.421563,2.29907 -1.059049,5.41074 -1.375,6.9375 -0.4822066,2.33007 -0.4192432,3.35743 0.28125,6.1875 0.972514,3.92902 3.094596,7.32169 5.625,9 0.984484,0.65293 3.586168,1.7846 5.75,2.53125 3.369325,1.16259 4.621739,1.37038 8.65625,1.28125 4.530947,-0.10003 4.816123,-0.19986 7.78125,-2.03125 3.817189,-2.35768 6.027,-4.66917 7.75,-8.125 1.245431,-2.49797 3.248469,-5.18893 6.5,-8.65625 4.240705,-4.52217 6.527047,-13.03441 4.75,-17.6875 -1.089369,-2.85238 -4.481382,-6.16299 -8.5625,-8.40625 C 46.120663,166.178 45.346671,165.81596 43.625,165.8125 z m -1.65625,1.65625 c 1.656078,-0.0416 3.24777,0.35279 5.4375,1.3125 4.499173,1.97183 7.002607,5.46403 7.9375,11.125 0.535421,3.2421 0.459719,3.55153 -0.875,6.96875 -1.253991,3.21053 -3.612492,6.4375 -4.71875,6.4375 -0.227817,0 -1.172691,-0.32085 -2.125,-0.71875 l -1.75,-0.71875 0.34375,-3 c 0.400805,-3.54263 -0.285123,-3.9118 -1.46875,-0.8125 -1.017143,2.66337 -2.434613,3.99676 -4.96875,4.6875 -2.730875,0.74436 -4.146126,0.69701 -6.4375,-0.34375 -3.333365,-1.51423 -4.228958,-5.2797 -1.8125,-7.53125 0.743817,-0.69306 1.719279,-1.42521 2.125,-1.59375 0.405718,-0.16861 0.06143,-0.19042 -0.75,-0.0937 -0.811435,0.0965 -1.87041,0.32882 -2.34375,0.53125 -0.711676,0.30437 -0.875,0.0808 -0.875,-1.15625 0,-1.65176 1.21331,-7.79344 2.03125,-10.3125 C 32.311762,170.42365 34.141966,169.32652 38.75,168 39.960832,167.65124 40.975103,167.49369 41.96875,167.46875 z m -12.53125,5.4375 0.15625,1.90625 c 0.0856,1.04185 -0.30894,3.41762 -0.875,5.28125 -0.950872,3.13054 -1.092682,3.32838 -1.96875,2.78125 -1.395417,-0.87145 -1.6891,-0.17995 -1,2.28125 0.70865,2.53106 0.455241,3.10059 -1.65625,3.96875 -2.036164,0.83721 -5.400852,1.38044 -5.84375,0.9375 -0.19414,-0.19413 -0.375,-1.32792 -0.375,-2.5 0,-2.78 -0.805533,-2.73643 -1.5625,0.0937 -0.557828,2.08545 -0.703894,2.26118 -2.09375,2.125 -1.326544,-0.13 -1.496029,-0.32009 -1.4375,-1.6875 0.03616,-0.84483 0.814886,-3.39056 1.71875,-5.65625 2.679991,-6.71785 6.090563,-9.38693 12.21875,-9.5 L 29.4375,172.90625 z m -1.75,17.1875 1.375,1.59375 c 1.62071,1.8312 3.669962,2.54674 8,2.8125 2.575681,0.15808 3.338058,0.41052 4.09375,1.34375 0.914251,1.12907 0.955717,1.11429 1.65625,0.15625 0.609955,-0.83415 0.78245,-0.85047 1.1875,-0.21875 0.678716,1.05851 -0.0079,4.77014 -1.3125,7.34375 -1.688211,3.33047 -4.393639,5.73308 -7.5625,6.59375 -4.593913,1.24773 -8.744409,1.36011 -12.0625,0.34375 -1.622873,-0.49713 -3.579964,-1.04447 -4.34375,-1.21875 -2.339047,-0.53371 -5.483486,-4.23136 -6.375,-7.5 C 11.080077,196.71065 11.029151,192.46848 12.25,192 c 0.420264,-0.16127 1.64084,0.12173 2.6875,0.59375 1.744535,0.78666 2.092912,1.26927 4.21875,6.1875 1.275428,2.95078 2.517086,5.51233 2.75,5.65625 0.832579,0.51457 0.388903,-1.762 -1.0625,-5.53125 -2.041752,-5.30233 -1.966973,-5.73709 0.96875,-7 3.040396,-1.30793 2.952852,-1.34123 2.96875,0.28125 l 0.03125,1.375 L 26.25,191.84375 27.6875,190.09375 z m 17.34375,3.46875 c 0.145118,-0.0619 0.450804,0.11317 0.84375,0.46875 0.523914,0.47419 1.181226,0.70897 1.46875,0.53125 0.660593,-0.40828 0.714225,0.0323 0.0625,1.25 -0.655692,1.22515 -1.468775,1.22663 -1.46875,0 0,-0.52501 -0.260771,-1.08285 -0.53125,-1.25 -0.270479,-0.16704 -0.4375,-0.57858 -0.4375,-0.875 C 44.968759,193.61331 44.982877,193.58316 45.03125,193.5625 Z" />
  </g>
</svg>
