<?xml version="1.0" encoding="UTF-8" standalone="no"?>
<!-- Created with Inkscape (http://www.inkscape.org/) -->

<svg
   xmlns:dc="http://purl.org/dc/elements/1.1/"
   xmlns:cc="http://creativecommons.org/ns#"
   xmlns:rdf="http://www.w3.org/1999/02/22-rdf-syntax-ns#"
   xmlns:svg="http://www.w3.org/2000/svg"
   xmlns="http://www.w3.org/2000/svg"
   xmlns:sodipodi="http://sodipodi.sourceforge.net/DTD/sodipodi-0.dtd"
   xmlns:inkscape="http://www.inkscape.org/namespaces/inkscape"
   width="800"
   height="700"
   id="svg2"
   version="1.1"
   inkscape:version="0.48.2 r9819"
   sodipodi:docname="adult.svg">
  <defs
     id="defs4" />
  <sodipodi:namedview
     id="base"
     pagecolor="#ffffff"
     bordercolor="#666666"
     borderopacity="1.0"
     inkscape:pageopacity="0.0"
     inkscape:pageshadow="2"
     inkscape:zoom="2"
     inkscape:cx="77.727679"
     inkscape:cy="495.83725"
     inkscape:document-units="px"
     inkscape:current-layer="layer1"
     showgrid="false"
     showguides="true"
     inkscape:guide-bbox="true"
     inkscape:window-width="1366"
     inkscape:window-height="746"
     inkscape:window-x="-8"
     inkscape:window-y="-8"
     inkscape:window-maximized="1"
     width="0px"
     height="0px"
     fit-margin-top="0"
     fit-margin-left="0"
     fit-margin-right="0"
     fit-margin-bottom="0">
    <sodipodi:guide
       orientation="1,0"
       position="400.22244,349.31075"
       id="guide3178" />
    <sodipodi:guide
       orientation="0,1"
       position="400.22244,349.31075"
       id="guide3180" />
  </sodipodi:namedview>
  <metadata
     id="metadata7">
    <rdf:RDF>
      <cc:Work
         rdf:about="">
        <dc:format>image/svg+xml</dc:format>
        <dc:type
           rdf:resource="http://purl.org/dc/dcmitype/StillImage" />
        <dc:title></dc:title>
      </cc:Work>
    </rdf:RDF>
  </metadata>
  <g
     inkscape:label="Layer 1"
     inkscape:groupmode="layer"
     id="layer1"
     transform="translate(0,-352.36218)">
    <path
       id="rect3001"
       transform="translate(0,352.36218)"
       style="fill:#ff0000"
       d="m 39.5625,146.625 c -0.50767,-8.3e-4 -1.09385,0.0435 -1.875,0.0937 -2.68257,0.1732 -3.92266,0.51497 -6.78125,1.9375 -2.03278,1.01158 -4.99642,2.05364 -7.15625,2.5 -5.00153,1.03354 -5.9811,1.42438 -8.3125,3.34375 -2.3085,1.90054 -3.3702,4.4151 -4.46875,10.40625 -0.37293,2.03377 -0.93926,4.77442 -1.21875,6.125 -0.42656,2.06118 -0.36966,2.93402 0.25,5.4375 0.86028,3.47562 2.73035,6.51536 4.96875,8 0.87088,0.57759 3.17963,1.58952 5.09375,2.25 2.98051,1.02843 4.08731,1.1726 7.65625,1.09375 4.00808,-0.0885 4.25205,-0.1612 6.875,-1.78125 3.37669,-2.08561 5.35084,-4.13046 6.875,-7.1875 1.1017,-2.20971 2.87369,-4.58904 5.75,-7.65625 3.75133,-4.00031 5.75948,-11.50888 4.1875,-15.625 -0.96363,-2.52323 -3.95235,-5.48438 -7.5625,-7.46875 -2.07713,-1.1418 -2.75826,-1.46569 -4.28125,-1.46875 z m -1.46875,1.46875 c 1.46498,-0.0368 2.8442,0.33854 4.78125,1.1875 3.97997,1.74428 6.20426,4.83605 7.03125,9.84375 0.47365,2.86796 0.4307,3.13337 -0.75,6.15625 -1.10927,2.84004 -3.20891,5.6875 -4.1875,5.6875 -0.20153,0 -1.06384,-0.30427 -1.90625,-0.65625 l -1.5,-0.625 0.28125,-2.625 c 0.35455,-3.13381 -0.26546,-3.49165 -1.3125,-0.75 -0.89975,2.35602 -2.1333,3.54522 -4.375,4.15625 -2.41574,0.65845 -3.66055,0.60815 -5.6875,-0.3125 -2.94871,-1.33949 -3.76261,-4.66454 -1.625,-6.65625 0.65799,-0.61309 1.51612,-1.25716 1.875,-1.40625 0.35891,-0.14915 0.06163,-0.17929 -0.65625,-0.0937 -0.71777,0.0854 -1.64379,0.28969 -2.0625,0.46875 -0.62956,0.26925 -0.78125,0.0942 -0.78125,-1 0,-1.46115 1.05771,-6.89664 1.78125,-9.125 0.52458,-1.61559 2.14249,-2.60781 6.21875,-3.78125 1.07111,-0.30852 1.99603,-0.44669 2.875,-0.46875 z M 27,152.90625 l 0.125,1.6875 c 0.0758,0.92163 -0.24925,3.03893 -0.75,4.6875 -0.84112,2.76927 -0.97503,2.95273 -1.75,2.46875 -1.23438,-0.77089 -1.48458,-0.17718 -0.875,2 0.62688,2.23897 0.39908,2.76327 -1.46875,3.53125 -1.80119,0.74059 -4.79572,1.20432 -5.1875,0.8125 -0.17175,-0.17174 -0.3125,-1.18194 -0.3125,-2.21875 0,-2.4592 -0.73662,-2.4098 -1.40625,0.0937 -0.49344,1.84478 -0.61429,1.99547 -1.84375,1.875 -1.17347,-0.11499 -1.3018,-0.29038 -1.25,-1.5 0.0321,-0.74733 0.70045,-2.99577 1.5,-5 2.37073,-5.94261 5.3915,-8.30624 10.8125,-8.40625 L 27,152.90625 z m -1.5625,15.21875 1.21875,1.40625 c 1.43367,1.61988 3.2634,2.23366 7.09375,2.46875 2.27845,0.13983 2.92528,0.39322 3.59375,1.21875 0.80875,0.99877 0.84906,0.97248 1.46875,0.125 0.53956,-0.73789 0.70418,-0.74632 1.0625,-0.1875 0.60039,0.93635 -0.0023,4.22339 -1.15625,6.5 -1.4934,2.94614 -3.88432,5.05116 -6.6875,5.8125 -4.06378,1.10374 -7.75231,1.21156 -10.6875,0.3125 -1.43559,-0.43978 -3.16811,-0.90833 -3.84375,-1.0625 -2.06912,-0.47212 -4.80511,-3.7648 -5.59375,-6.65625 -1.11784,-4.09844 -1.20503,-7.83558 -0.125,-8.25 0.37176,-0.14265 1.48037,0.0824 2.40625,0.5 1.54322,0.69587 1.83823,1.14932 3.71875,5.5 1.12825,2.61027 2.23145,4.87268 2.4375,5 0.73651,0.45519 0.31516,-1.57196 -0.96875,-4.90625 -1.80614,-4.69044 -1.72195,-5.07031 0.875,-6.1875 2.68954,-1.15698 2.61094,-1.18525 2.625,0.25 l 0.03125,1.21875 1.28125,-1.53125 1.25,-1.53125 z m 15.34375,3.0625 c 0.12837,-0.0548 0.43365,0.0917 0.78125,0.40625 0.46346,0.41947 1.02691,0.62598 1.28125,0.46875 0.58436,-0.36116 0.60772,0.0478 0.03125,1.125 -0.58003,1.08377 -1.28127,1.08507 -1.28125,0 0,-0.46443 -0.22949,-0.97713 -0.46875,-1.125 -0.23927,-0.14775 -0.40625,-0.48777 -0.40625,-0.75 1e-5,-0.0656 0.0197,-0.10673 0.0625,-0.125 z" />
  </g>
</svg>
