<?xml version="1.0" encoding="UTF-8" standalone="no"?>
<!-- Created with Inkscape (http://www.inkscape.org/) -->

<svg
   xmlns:dc="http://purl.org/dc/elements/1.1/"
   xmlns:cc="http://creativecommons.org/ns#"
   xmlns:rdf="http://www.w3.org/1999/02/22-rdf-syntax-ns#"
   xmlns:svg="http://www.w3.org/2000/svg"
   xmlns="http://www.w3.org/2000/svg"
   xmlns:sodipodi="http://sodipodi.sourceforge.net/DTD/sodipodi-0.dtd"
   xmlns:inkscape="http://www.inkscape.org/namespaces/inkscape"
   width="800"
   height="400"
   id="svg2"
   version="1.1"
   inkscape:version="0.48.2 r9819"
   sodipodi:docname="m1.svg">
  <defs
     id="defs4" />
  <sodipodi:namedview
     id="base"
     pagecolor="#ffffff"
     bordercolor="#666666"
     borderopacity="1.0"
     inkscape:pageopacity="0.0"
     inkscape:pageshadow="2"
     inkscape:zoom="4"
     inkscape:cx="87.90643"
     inkscape:cy="266.50609"
     inkscape:document-units="px"
     inkscape:current-layer="layer1"
     showgrid="false"
     showguides="true"
     inkscape:guide-bbox="true"
     inkscape:window-width="1366"
     inkscape:window-height="746"
     inkscape:window-x="-8"
     inkscape:window-y="-8"
     inkscape:window-maximized="1"
     width="0px"
     height="0px"
     fit-margin-top="0"
     fit-margin-left="0"
     fit-margin-right="0"
     fit-margin-bottom="0">
    <sodipodi:guide
       orientation="1,0"
       position="400.22244,349.31075"
       id="guide3178" />
    <sodipodi:guide
       orientation="0,1"
       position="-117.37973,199.40411"
       id="guide3180" />
  </sodipodi:namedview>
  <metadata
     id="metadata7">
    <rdf:RDF>
      <cc:Work
         rdf:about="">
        <dc:format>image/svg+xml</dc:format>
        <dc:type
           rdf:resource="http://purl.org/dc/dcmitype/StillImage" />
        <dc:title></dc:title>
      </cc:Work>
    </rdf:RDF>
  </metadata>
  <g
     inkscape:label="Layer 1"
     inkscape:groupmode="layer"
     id="layer1"
     transform="translate(0,-652.36218)">
    <path
       id="rect3305"
       transform="translate(0,652.36218)"
       style="fill:#ff0000"
       d="m 41.09375,138.375 c -0.50767,-8.3e-4 -1.09385,0.0435 -1.875,0.0937 -2.68257,0.1732 -3.89141,0.51497 -6.75,1.9375 -2.03278,1.01158 -5.02767,2.02239 -7.1875,2.46875 -5.00153,1.03354 -5.94985,1.45563 -8.28125,3.375 -2.3085,1.90054 -3.3702,4.38385 -4.46875,10.375 -0.37293,2.03377 -0.93926,4.77442 -1.21875,6.125 -0.42656,2.06118 -0.40091,2.96527 0.21875,5.46875 0.86028,3.47562 2.7616,6.48411 5,7.96875 0.87088,0.57759 3.14838,1.58952 5.0625,2.25 2.98051,1.02843 4.08731,1.20385 7.65625,1.125 4.00808,-0.0885 4.2833,-0.1612 6.90625,-1.78125 3.37669,-2.08561 5.31959,-4.16171 6.84375,-7.21875 1.1017,-2.20971 2.87369,-4.58904 5.75,-7.65625 3.75133,-4.00031 5.75948,-11.50888 4.1875,-15.625 -0.96363,-2.52323 -3.95235,-5.48438 -7.5625,-7.46875 -2.07713,-1.1418 -2.75826,-1.43444 -4.28125,-1.4375 z m -1.4375,1.4375 c 1.46498,-0.0368 2.8442,0.33854 4.78125,1.1875 3.97997,1.74428 6.20426,4.83605 7.03125,9.84375 0.47365,2.86796 0.39945,3.13337 -0.78125,6.15625 -1.10927,2.84004 -3.17766,5.6875 -4.15625,5.6875 -0.20153,0 -1.06384,-0.27302 -1.90625,-0.625 l -1.53125,-0.65625 0.28125,-2.625 c 0.35455,-3.13381 -0.23421,-3.4604 -1.28125,-0.71875 -0.89975,2.35602 -2.1333,3.54522 -4.375,4.15625 -2.41574,0.65845 -3.66055,0.60815 -5.6875,-0.3125 -2.94871,-1.33949 -3.76261,-4.69579 -1.625,-6.6875 0.65799,-0.61309 1.51612,-1.25716 1.875,-1.40625 0.35891,-0.14915 0.03038,-0.17929 -0.6875,-0.0937 -0.71777,0.0854 -1.64379,0.32094 -2.0625,0.5 -0.62956,0.26925 -0.75,0.0629 -0.75,-1.03125 0,-1.46115 1.05771,-6.89664 1.78125,-9.125 0.52458,-1.61559 2.14249,-2.57656 6.21875,-3.75 1.07111,-0.30852 1.99603,-0.47794 2.875,-0.5 z m -11.09375,4.84375 0.125,1.6875 c 0.0758,0.92163 -0.24925,3.00768 -0.75,4.65625 -0.84112,2.76927 -0.97503,2.95273 -1.75,2.46875 -1.23438,-0.77089 -1.51583,-0.17718 -0.90625,2 0.62688,2.23897 0.39908,2.76327 -1.46875,3.53125 -1.80119,0.74059 -4.76447,1.20432 -5.15625,0.8125 -0.17175,-0.17174 -0.3125,-1.18194 -0.3125,-2.21875 0,-2.4592 -0.73662,-2.4098 -1.40625,0.0937 -0.49344,1.84478 -0.61429,1.99547 -1.84375,1.875 -1.17347,-0.11499 -1.33305,-0.25913 -1.28125,-1.46875 0.0321,-0.74733 0.7317,-3.02702 1.53125,-5.03125 2.37073,-5.94261 5.3915,-8.27499 10.8125,-8.375 l 2.40625,-0.0312 z M 27,159.875 l 1.21875,1.375 c 1.43367,1.61988 3.23215,2.23366 7.0625,2.46875 2.27845,0.13983 2.95653,0.39322 3.625,1.21875 0.80875,0.99877 0.84906,0.97248 1.46875,0.125 0.53956,-0.73789 0.67293,-0.74632 1.03125,-0.1875 0.60039,0.93635 0.0289,4.22339 -1.125,6.5 -1.4934,2.94614 -3.91557,5.05116 -6.71875,5.8125 -4.06378,1.10374 -7.72106,1.24281 -10.65625,0.34375 -1.43559,-0.43978 -3.16811,-0.93958 -3.84375,-1.09375 -2.06912,-0.47212 -4.83636,-3.73355 -5.625,-6.625 -1.11784,-4.09844 -1.17378,-7.86683 -0.09375,-8.28125 0.37176,-0.14265 1.44912,0.11365 2.375,0.53125 1.54322,0.69587 1.83823,1.11807 3.71875,5.46875 1.12825,2.61027 2.23145,4.87268 2.4375,5 0.73651,0.45519 0.34641,-1.57196 -0.9375,-4.90625 -1.80614,-4.69044 -1.7532,-5.07031 0.84375,-6.1875 2.68954,-1.15698 2.64219,-1.18525 2.65625,0.25 l 0.03125,1.21875 1.25,-1.53125 1.28125,-1.5 z m 15.34375,3.03125 c 0.12837,-0.0548 0.4024,0.0917 0.75,0.40625 0.46346,0.41947 1.05816,0.65723 1.3125,0.5 0.58436,-0.36116 0.60772,0.0166 0.03125,1.09375 -0.58003,1.08377 -1.31252,1.08507 -1.3125,0 0,-0.46443 -0.19824,-0.94588 -0.4375,-1.09375 -0.23927,-0.14775 -0.40625,-0.51902 -0.40625,-0.78125 1e-5,-0.0656 0.0197,-0.10673 0.0625,-0.125 z" />
  </g>
</svg>
