<?xml version="1.0" encoding="UTF-8" standalone="no"?>
<!-- Created with Inkscape (http://www.inkscape.org/) -->

<svg
   xmlns:dc="http://purl.org/dc/elements/1.1/"
   xmlns:cc="http://creativecommons.org/ns#"
   xmlns:rdf="http://www.w3.org/1999/02/22-rdf-syntax-ns#"
   xmlns:svg="http://www.w3.org/2000/svg"
   xmlns="http://www.w3.org/2000/svg"
   xmlns:sodipodi="http://sodipodi.sourceforge.net/DTD/sodipodi-0.dtd"
   xmlns:inkscape="http://www.inkscape.org/namespaces/inkscape"
   width="800"
   height="700"
   id="svg2"
   version="1.1"
   inkscape:version="0.48.2 r9819"
   sodipodi:docname="m19-fill.svg">
  <defs
     id="defs4" />
  <sodipodi:namedview
     id="base"
     pagecolor="#ffffff"
     bordercolor="#666666"
     borderopacity="1.0"
     inkscape:pageopacity="0.0"
     inkscape:pageshadow="2"
     inkscape:zoom="5"
     inkscape:cx="111.08332"
     inkscape:cy="146.22607"
     inkscape:document-units="px"
     inkscape:current-layer="layer1"
     showgrid="false"
     showguides="true"
     inkscape:guide-bbox="true"
     inkscape:window-width="1024"
     inkscape:window-height="538"
     inkscape:window-x="-8"
     inkscape:window-y="-8"
     inkscape:window-maximized="1"
     width="0px"
     height="0px"
     fit-margin-top="0"
     fit-margin-left="0"
     fit-margin-right="0"
     fit-margin-bottom="0">
    <sodipodi:guide
       orientation="1,0"
       position="400.22244,349.31075"
       id="guide3178" />
    <sodipodi:guide
       orientation="0,1"
       position="400.22244,349.31075"
       id="guide3180" />
  </sodipodi:namedview>
  <metadata
     id="metadata7">
    <rdf:RDF>
      <cc:Work
         rdf:about="">
        <dc:format>image/svg+xml</dc:format>
        <dc:type
           rdf:resource="http://purl.org/dc/dcmitype/StillImage" />
        <dc:title />
      </cc:Work>
    </rdf:RDF>
  </metadata>
  <g
     inkscape:label="Layer 1"
     inkscape:groupmode="layer"
     id="layer1"
     transform="translate(0,-352.36218)">
    <path
       id="rect4109"
       transform="translate(0,352.36218)"
       style="fill:#00ff00"
       d="m 121.84375,518.34375 c -3.65004,0.11296 -6.75458,1.67759 -8.71875,4.59375 -1.51337,2.24699 -1.56026,2.50506 -1.71875,6.875 l -0.1875,4.53125 1.375,0.15625 c 1.27788,0.12471 1.41421,-0.0273 2.15625,-2.09375 0.43488,-1.20926 0.93302,-2.1875 1.125,-2.1875 0.49841,0 0.43826,1.06187 -0.0937,1.59375 -1.22601,1.22611 1.55747,3.1875 4.5,3.1875 1.12931,0 2.14668,0.27481 2.4375,0.625 0.55325,0.66742 1.60396,0.4717 5.59375,-0.96875 1.26086,-0.45525 2.39972,-0.93092 2.53125,-1.0625 0.13146,-0.13183 0.0121,-1.0211 -0.28125,-2 -0.50589,-1.6887 -0.24602,-5.29172 0.71875,-9.65625 0.2774,-1.25468 -0.22007,-1.59099 -4.1875,-2.84375 -1.82816,-0.5772 -3.59089,-0.8013 -5.25,-0.75 z m 19.28125,0.59375 c -1.98806,-0.0152 -7.50989,1.59421 -8.03125,2.34375 -0.73881,1.06283 -1.65625,5.10504 -1.65625,7.375 0,5.25899 4.62784,8.88061 9.96875,7.8125 1.15193,-0.23027 1.375,-0.48097 1.375,-1.5625 0,-1.56675 0.65589,-1.25164 1,0.46875 0.29762,1.48825 1.17229,1.90349 3.15625,1.53125 0.97893,-0.18373 1.73234,-0.7089 2.3125,-1.625 0.78164,-1.23465 0.90068,-1.28166 1.15625,-0.5 0.15459,0.47284 0.42102,1.27149 0.625,1.75 0.52993,1.2429 1.01472,4.5625 0.65625,4.5625 -0.16593,0 -0.88287,-0.49562 -1.59375,-1.09375 -1.36433,-1.14809 -2.20928,-1.24455 -10.03125,-1.28125 -2.88663,-0.0142 -3.375,0.0869 -3.375,0.71875 0,0.40595 0.15414,0.83226 0.375,0.96875 0.22085,0.13636 0.52655,0.86088 0.6875,1.59375 0.16095,0.73288 0.90534,1.99276 1.625,2.8125 1.22957,1.4004 1.24505,1.5 0.375,1.5 -1.07244,0 -1.73215,1.36999 -2.09375,4.40625 -0.2246,1.88597 -0.13536,2.01197 0.9375,2.28125 1.20561,0.30272 1.58049,1.5625 0.46875,1.5625 -0.35891,0 -0.625,-0.15175 -0.625,-0.375 0,-0.58738 -1.64106,-1.00972 -2.65625,-0.6875 -0.47853,0.15183 -0.84375,0.53214 -0.84375,0.875 0,0.34277 -0.19824,0.625 -0.4375,0.625 -0.67352,0 -0.5182,-0.82866 0.4375,-2.375 0.68853,-1.11403 0.86335,-2.23395 0.90625,-5.3125 0.0553,-3.97207 -0.37312,-6.10605 -1.875,-8.84375 -1.15072,-2.09773 -1.96226,-2.59375 -4.0625,-2.59375 -2.39248,0 -3.61831,1.21246 -2.875,2.84375 0.59543,1.30692 0.60985,1.5 0.15625,1.5 -0.18769,0 -0.64375,-0.57226 -1.0625,-1.28125 -0.67344,-1.13996 -0.90015,-1.22823 -1.8125,-0.8125 -1.41211,0.64334 -2.2723,2.58928 -2.84375,6.4375 -0.32735,2.20462 -0.76676,3.49369 -1.34375,4.03125 -1.00202,0.9333 -1.00457,0.88381 -0.1875,-2.5 0.34664,-1.43559 0.65125,-3.3867 0.65625,-4.34375 0.006,-0.95692 0.26489,-2.27591 0.59375,-2.90625 0.83767,-1.60538 0.38329,-2.05193 -2.5625,-2.53125 -2.06708,-0.33647 -2.7166,-0.3147 -3.21875,0.1875 -0.51205,0.51175 -0.52156,0.75938 -0.0625,1.3125 0.90546,1.09099 0.0777,0.80099 -0.96875,-0.34375 -0.52686,-0.57626 -1.70944,-1.19384 -2.59375,-1.34375 -1.36374,-0.23128 -1.66042,-0.15324 -2.09375,0.65625 -0.68558,1.28112 -0.24741,4.687 0.875,6.78125 0.49288,0.91934 0.875,1.8421 0.875,2.0625 0,1.00247 2.45016,3.43052 4.5,4.46875 1.24131,0.62871 3.24569,1.98925 4.4375,3.03125 2.48085,2.16967 6.58398,4.28175 8.6875,4.46875 0.23147,0.0205 2.05163,-0.39335 4.0625,-0.90625 3.14493,-0.802 3.95847,-0.8657 5.8125,-0.4375 4.98907,1.1514 10.41012,0.25731 13.1875,-2.1875 2.5131,-2.21214 3.19671,-4.61345 2.125,-7.34375 -0.9152,-2.33183 -0.99006,-6.28694 -0.1875,-9.5625 1.63812,-6.68571 -0.29664,-12.68258 -5.28125,-16.4375 -0.98686,-0.74343 -5.37106,-1.76205 -7.65625,-1.78125 z" />
  </g>
</svg>
