<?xml version="1.0" encoding="UTF-8" standalone="no"?>
<!-- Created with Inkscape (http://www.inkscape.org/) -->

<svg
   xmlns:dc="http://purl.org/dc/elements/1.1/"
   xmlns:cc="http://creativecommons.org/ns#"
   xmlns:rdf="http://www.w3.org/1999/02/22-rdf-syntax-ns#"
   xmlns:svg="http://www.w3.org/2000/svg"
   xmlns="http://www.w3.org/2000/svg"
   xmlns:sodipodi="http://sodipodi.sourceforge.net/DTD/sodipodi-0.dtd"
   xmlns:inkscape="http://www.inkscape.org/namespaces/inkscape"
   width="800"
   height="400"
   id="svg2"
   version="1.1"
   inkscape:version="0.48.2 r9819"
   sodipodi:docname="fc-fill.svg">
  <defs
     id="defs4" />
  <sodipodi:namedview
     id="base"
     pagecolor="#ffffff"
     bordercolor="#666666"
     borderopacity="1.0"
     inkscape:pageopacity="0.0"
     inkscape:pageshadow="2"
     inkscape:zoom="4"
     inkscape:cx="361.24328"
     inkscape:cy="307.75339"
     inkscape:document-units="px"
     inkscape:current-layer="layer1"
     showgrid="false"
     showguides="true"
     inkscape:guide-bbox="true"
     inkscape:window-width="1024"
     inkscape:window-height="538"
     inkscape:window-x="-8"
     inkscape:window-y="-8"
     inkscape:window-maximized="1"
     width="0px"
     height="0px"
     fit-margin-top="0"
     fit-margin-left="0"
     fit-margin-right="0"
     fit-margin-bottom="0">
    <sodipodi:guide
       orientation="1,0"
       position="400.22244,349.31075"
       id="guide3178" />
  </sodipodi:namedview>
  <metadata
     id="metadata7">
    <rdf:RDF>
      <cc:Work
         rdf:about="">
        <dc:format>image/svg+xml</dc:format>
        <dc:type
           rdf:resource="http://purl.org/dc/dcmitype/StillImage" />
        <dc:title />
        <cc:license
           rdf:resource="" />
      </cc:Work>
    </rdf:RDF>
  </metadata>
  <g
     inkscape:label="Layer 1"
     inkscape:groupmode="layer"
     id="layer1"
     transform="translate(0,-652.36218)">
    <path
       id="rect3819"
       transform="translate(0,652.36218)"
       style="fill:#00ff00"
       d="m 310.5625,74.6875 c -0.67761,0.03435 -1.41848,0.2654 -2.4375,0.6875 -4.17306,1.72854 -7.14504,6.13474 -9.65625,14.3125 -2.79547,9.10347 -2.69785,12.11105 0.59375,15.96875 2.51858,2.95174 11.10351,8.1875 13.40625,8.1875 0.57002,0 3.12389,-2.20896 5.65625,-4.90625 3.17384,-3.38057 4.79361,-6.05257 5.21875,-8.625 0.98455,-5.95737 0.71876,-10.43843 -0.78125,-13.09375 -0.76662,-1.35708 -2.1124,-3.80901 -2.96875,-5.4375 -0.85635,-1.62849 -3.10632,-4.02372 -5,-5.3125 -1.93132,-1.31439 -2.90189,-1.83855 -4.03125,-1.78125 z" />
  </g>
</svg>
