<?xml version="1.0" encoding="UTF-8" standalone="no"?>
<!-- Created with Inkscape (http://www.inkscape.org/) -->

<svg
   xmlns:dc="http://purl.org/dc/elements/1.1/"
   xmlns:cc="http://creativecommons.org/ns#"
   xmlns:rdf="http://www.w3.org/1999/02/22-rdf-syntax-ns#"
   xmlns:svg="http://www.w3.org/2000/svg"
   xmlns="http://www.w3.org/2000/svg"
   xmlns:sodipodi="http://sodipodi.sourceforge.net/DTD/sodipodi-0.dtd"
   xmlns:inkscape="http://www.inkscape.org/namespaces/inkscape"
   width="800"
   height="400"
   id="svg2"
   version="1.1"
   inkscape:version="0.48.2 r9819"
   sodipodi:docname="mn.svg">
  <defs
     id="defs4" />
  <sodipodi:namedview
     id="base"
     pagecolor="#ffffff"
     bordercolor="#666666"
     borderopacity="1.0"
     inkscape:pageopacity="0.0"
     inkscape:pageshadow="2"
     inkscape:zoom="2.8284271"
     inkscape:cx="517.91887"
     inkscape:cy="84.410967"
     inkscape:document-units="px"
     inkscape:current-layer="layer1"
     showgrid="false"
     showguides="true"
     inkscape:guide-bbox="true"
     inkscape:window-width="1366"
     inkscape:window-height="746"
     inkscape:window-x="-8"
     inkscape:window-y="-8"
     inkscape:window-maximized="1"
     width="0px"
     height="0px"
     fit-margin-top="0"
     fit-margin-left="0"
     fit-margin-right="0"
     fit-margin-bottom="0">
    <sodipodi:guide
       orientation="1,0"
       position="400.22244,349.31075"
       id="guide3178" />
  </sodipodi:namedview>
  <metadata
     id="metadata7">
    <rdf:RDF>
      <cc:Work
         rdf:about="">
        <dc:format>image/svg+xml</dc:format>
        <dc:type
           rdf:resource="http://purl.org/dc/dcmitype/StillImage" />
        <dc:title></dc:title>
        <cc:license
           rdf:resource="" />
      </cc:Work>
    </rdf:RDF>
  </metadata>
  <g
     inkscape:label="Layer 1"
     inkscape:groupmode="layer"
     id="layer1"
     transform="translate(0,-652.36218)">
    <path
       id="rect3165"
       transform="translate(0,652.36218)"
       style="fill:#ff0000"
       d="m 457.53125,287.59375 c -4.66444,0.16409 -6.49136,1.30318 -8.25,4.1875 -2.49102,4.08547 -2.52593,10.94763 -0.0937,19.96875 1.22325,4.53709 2.08411,12.11215 2.5,22.1875 0.3473,8.41388 1.25763,17.7644 2.03125,20.75 3.26163,12.5874 3.88931,14.4166 5.6875,17 1.534,2.2039 2.24533,2.52405 3.75,1.71875 1.01883,-0.5452 2.1983,-1.54305 2.625,-2.21875 0.42671,-0.6756 1.04736,-12.76143 1.40625,-26.875 0.6066,-23.85528 0.85669,-26.23759 3.25,-33.96875 2.43931,-8.1026 7.21808,-22.615 -7.1875,-22.625 -2.28622,-0.12918 -4.16394,-0.1797 -5.71875,-0.125 z m 1.34375,2.9375 c 0.49623,-0.0156 1.01188,0 1.5625,0 8.21284,0 10.94858,1.79687 10.3125,6.78125 -1.04064,8.15457 -4.71191,18.36582 -7.40625,20.59375 -1.47379,1.21868 -2.88484,2.19025 -3.15625,2.15625 -4.66378,-0.58496 -9.02059,-9.06424 -9.65625,-18.8125 -0.54313,-8.32908 0.90035,-10.48506 8.34375,-10.71875 z m -4.3125,30.59375 c 0.3194,0 1.71113,0.49505 3.09375,1.125 1.86246,0.84864 3.15189,0.87609 4.9375,0.0625 L 465,321.21875 465.28125,333.25 c 0.16722,6.62369 0.0423,17.19155 -0.28125,23.46875 -0.32357,6.2771 -1.02944,12.2415 -1.59375,13.25 -0.94468,1.688 -1.14645,1.5921 -2.5,-1.0625 -2.5301,-4.962 -5.59683,-22.107 -6.28125,-35.21875 -0.36131,-6.9211 -0.38188,-12.5625 -0.0625,-12.5625 z" />
  </g>
</svg>
