<?xml version="1.0" encoding="UTF-8" standalone="no"?>
<!-- Created with Inkscape (http://www.inkscape.org/) -->

<svg
   xmlns:dc="http://purl.org/dc/elements/1.1/"
   xmlns:cc="http://creativecommons.org/ns#"
   xmlns:rdf="http://www.w3.org/1999/02/22-rdf-syntax-ns#"
   xmlns:svg="http://www.w3.org/2000/svg"
   xmlns="http://www.w3.org/2000/svg"
   xmlns:sodipodi="http://sodipodi.sourceforge.net/DTD/sodipodi-0.dtd"
   xmlns:inkscape="http://www.inkscape.org/namespaces/inkscape"
   width="800"
   height="400"
   id="svg2"
   version="1.1"
   inkscape:version="0.48.2 r9819"
   sodipodi:docname="fo.svg">
  <defs
     id="defs4" />
  <sodipodi:namedview
     id="base"
     pagecolor="#ffffff"
     bordercolor="#666666"
     borderopacity="1.0"
     inkscape:pageopacity="0.0"
     inkscape:pageshadow="2"
     inkscape:zoom="2.8284271"
     inkscape:cx="517.91887"
     inkscape:cy="84.410967"
     inkscape:document-units="px"
     inkscape:current-layer="layer1"
     showgrid="false"
     showguides="true"
     inkscape:guide-bbox="true"
     inkscape:window-width="1366"
     inkscape:window-height="746"
     inkscape:window-x="-8"
     inkscape:window-y="-8"
     inkscape:window-maximized="1"
     width="0px"
     height="0px"
     fit-margin-top="0"
     fit-margin-left="0"
     fit-margin-right="0"
     fit-margin-bottom="0">
    <sodipodi:guide
       orientation="1,0"
       position="400.22244,349.31075"
       id="guide3178" />
  </sodipodi:namedview>
  <metadata
     id="metadata7">
    <rdf:RDF>
      <cc:Work
         rdf:about="">
        <dc:format>image/svg+xml</dc:format>
        <dc:type
           rdf:resource="http://purl.org/dc/dcmitype/StillImage" />
        <dc:title></dc:title>
        <cc:license
           rdf:resource="" />
      </cc:Work>
    </rdf:RDF>
  </metadata>
  <g
     inkscape:label="Layer 1"
     inkscape:groupmode="layer"
     id="layer1"
     transform="translate(0,-652.36218)">
    <path
       id="rect3160"
       transform="translate(0,652.36218)"
       style="fill:#ff0000"
       d="m 458.5625,240.75 c -0.53048,0.0427 -1.03887,0.28808 -1.6875,0.71875 -5.34446,3.54859 -11.27005,22.25643 -8.78125,27.71875 0.93349,2.04877 1.96115,2.53661 5.875,2.84375 10.34828,0.81209 12.74697,0.67803 14.875,-0.8125 3.05473,-2.13961 2.85359,-8.63414 -0.5625,-18.65625 -2.17746,-6.38819 -3.32371,-8.2848 -6.0625,-10.125 -1.83312,-1.23167 -2.77212,-1.7587 -3.65625,-1.6875 z m 0.21875,2.96875 c 0.55969,-0.0121 1.23005,0.3314 2.28125,0.875 2.30503,1.19198 3.30811,2.93265 5.40625,9.4375 3.1518,9.77153 3.1965,10.91561 0.3125,13.625 -3.89884,3.66276 -15.67479,2.32486 -16.78125,-1.90625 -0.75345,-2.88123 2.45792,-13.5536 5.5625,-18.4375 1.65606,-2.60519 2.28594,-3.57354 3.21875,-3.59375 z" />
  </g>
</svg>
