<?xml version="1.0" encoding="UTF-8" standalone="no"?>
<!-- Created with Inkscape (http://www.inkscape.org/) -->

<svg
   xmlns:dc="http://purl.org/dc/elements/1.1/"
   xmlns:cc="http://creativecommons.org/ns#"
   xmlns:rdf="http://www.w3.org/1999/02/22-rdf-syntax-ns#"
   xmlns:svg="http://www.w3.org/2000/svg"
   xmlns="http://www.w3.org/2000/svg"
   xmlns:sodipodi="http://sodipodi.sourceforge.net/DTD/sodipodi-0.dtd"
   xmlns:inkscape="http://www.inkscape.org/namespaces/inkscape"
   width="800"
   height="700"
   id="svg2"
   version="1.1"
   inkscape:version="0.48.2 r9819"
   sodipodi:docname="f20-fill.svg">
  <defs
     id="defs4" />
  <sodipodi:namedview
     id="base"
     pagecolor="#ffffff"
     bordercolor="#666666"
     borderopacity="1.0"
     inkscape:pageopacity="0.0"
     inkscape:pageshadow="2"
     inkscape:zoom="10"
     inkscape:cx="200.73917"
     inkscape:cy="196.25905"
     inkscape:document-units="px"
     inkscape:current-layer="layer1"
     showgrid="false"
     showguides="true"
     inkscape:guide-bbox="true"
     inkscape:window-width="1024"
     inkscape:window-height="538"
     inkscape:window-x="-8"
     inkscape:window-y="-8"
     inkscape:window-maximized="1"
     width="0px"
     height="0px"
     fit-margin-top="0"
     fit-margin-left="0"
     fit-margin-right="0"
     fit-margin-bottom="0">
    <sodipodi:guide
       orientation="1,0"
       position="400.22244,349.31075"
       id="guide3178" />
    <sodipodi:guide
       orientation="0,1"
       position="400.22244,349.31075"
       id="guide3180" />
  </sodipodi:namedview>
  <metadata
     id="metadata7">
    <rdf:RDF>
      <cc:Work
         rdf:about="">
        <dc:format>image/svg+xml</dc:format>
        <dc:type
           rdf:resource="http://purl.org/dc/dcmitype/StillImage" />
        <dc:title />
      </cc:Work>
    </rdf:RDF>
  </metadata>
  <g
     inkscape:label="Layer 1"
     inkscape:groupmode="layer"
     id="layer1"
     transform="translate(0,-352.36218)">
    <path
       id="rect4140"
       transform="translate(0,352.36218)"
       style="fill:#00ff00"
       d="m 184.5,478.90625 c -1.27536,0.0376 -2.48003,0.32953 -3.375,0.875 -1.5385,0.93791 -4.4375,3.76349 -4.4375,4.34375 0,0.18585 -0.13303,0.4203 -0.3125,0.5 -1.09304,0.48564 -3.5962,6.94585 -3.6875,9.53125 -0.0747,2.11184 0.93548,6.18552 1.75,7 0.42043,0.42038 0.73294,0.42038 1.40625,0 1.1023,-0.68848 1.3125,-0.65827 1.3125,0.125 0,0.35426 -0.50571,0.78984 -1.09375,0.9375 -1.05929,0.26594 -1.05935,0.23178 -0.28125,1.375 0.43194,0.63449 1.26895,1.91514 1.84375,2.8125 0.5748,0.89772 1.39379,1.73963 1.8125,1.875 0.41872,0.13485 0.75,0.40947 0.75,0.625 0,0.61115 2.26888,1.69935 3.59375,1.71875 0.74885,0.0105 1.78934,-0.50763 2.8125,-1.40625 2.11815,-1.86003 3.4218,-2.68292 5.4375,-3.34375 1.81168,-0.59376 4.31179,-3.33016 4.53125,-4.96875 0.15638,-1.16792 -1.5681,-2.5739 -2.65625,-2.15625 -0.60282,0.2313 -0.61385,0.0821 -0.0312,-1.3125 1.48985,-3.5657 0.22297,-10.94818 -2.5625,-14.78125 -0.94513,-1.3005 -2.38983,-2.71339 -3.1875,-3.09375 -1.02547,-0.48905 -2.34965,-0.69375 -3.625,-0.65625 z m 12.09375,12.5625 c -0.18143,0.01 -0.3055,0.79125 -0.3125,2.4375 -0.0108,2.66924 0.41421,4.09375 1.21875,4.09375 0.10496,0 0.0697,-1.27916 -0.0937,-2.875 -0.24514,-2.39281 -0.57924,-3.66895 -0.8125,-3.65625 z m -3.5625,8.0625 c 0.46956,-0.16292 0.0588,0.70823 -1.03125,1.875 -0.67178,0.71925 -1.96299,1.51938 -2.90625,1.78125 -2.00091,0.55555 -2.19629,0.57881 -3.78125,0 -1.8398,-0.67201 -1.46225,-1.25 0.875,-1.25 2.53915,0 4.73721,-0.67591 6.0625,-1.875 0.35048,-0.3171 0.62475,-0.47695 0.78125,-0.53125 z" />
  </g>
</svg>
