<?xml version="1.0" encoding="UTF-8" standalone="no"?>
<!-- Created with Inkscape (http://www.inkscape.org/) -->

<svg
   xmlns:dc="http://purl.org/dc/elements/1.1/"
   xmlns:cc="http://creativecommons.org/ns#"
   xmlns:rdf="http://www.w3.org/1999/02/22-rdf-syntax-ns#"
   xmlns:svg="http://www.w3.org/2000/svg"
   xmlns="http://www.w3.org/2000/svg"
   xmlns:sodipodi="http://sodipodi.sourceforge.net/DTD/sodipodi-0.dtd"
   xmlns:inkscape="http://www.inkscape.org/namespaces/inkscape"
   width="800"
   height="700"
   id="svg2"
   version="1.1"
   inkscape:version="0.48.2 r9819"
   sodipodi:docname="f20.svg">
  <defs
     id="defs4" />
  <sodipodi:namedview
     id="base"
     pagecolor="#ffffff"
     bordercolor="#666666"
     borderopacity="1.0"
     inkscape:pageopacity="0.0"
     inkscape:pageshadow="2"
     inkscape:zoom="3.5355339"
     inkscape:cx="113.86038"
     inkscape:cy="245.94248"
     inkscape:document-units="px"
     inkscape:current-layer="layer1"
     showgrid="false"
     showguides="true"
     inkscape:guide-bbox="true"
     inkscape:window-width="1366"
     inkscape:window-height="746"
     inkscape:window-x="-8"
     inkscape:window-y="-8"
     inkscape:window-maximized="1"
     width="0px"
     height="0px"
     fit-margin-top="0"
     fit-margin-left="0"
     fit-margin-right="0"
     fit-margin-bottom="0">
    <sodipodi:guide
       orientation="1,0"
       position="400.22244,349.31075"
       id="guide3178" />
    <sodipodi:guide
       orientation="0,1"
       position="400.22244,349.31075"
       id="guide3180" />
  </sodipodi:namedview>
  <metadata
     id="metadata7">
    <rdf:RDF>
      <cc:Work
         rdf:about="">
        <dc:format>image/svg+xml</dc:format>
        <dc:type
           rdf:resource="http://purl.org/dc/dcmitype/StillImage" />
        <dc:title></dc:title>
      </cc:Work>
    </rdf:RDF>
  </metadata>
  <g
     inkscape:label="Layer 1"
     inkscape:groupmode="layer"
     id="layer1"
     transform="translate(0,-352.36218)">
    <path
       style="fill:#ff0000"
       d="m 184.5,831.26843 c 1.27535,-0.0375 2.59953,0.1672 3.625,0.65625 0.79767,0.38036 2.24237,1.79325 3.1875,3.09375 2.78547,3.83307 4.05235,11.21555 2.5625,14.78125 -0.5826,1.39461 -0.57162,1.5438 0.0312,1.3125 1.08815,-0.41765 2.81263,0.98833 2.65625,2.15625 -0.21946,1.63859 -2.71957,4.37499 -4.53125,4.96875 -2.0157,0.66083 -3.31935,1.48372 -5.4375,3.34375 -1.02316,0.89862 -2.06365,1.41671 -2.8125,1.40625 -1.32487,-0.0194 -3.59375,-1.1076 -3.59375,-1.71875 0,-0.21553 -0.33128,-0.49015 -0.75,-0.625 -0.41871,-0.13537 -1.2377,-0.97728 -1.8125,-1.875 -0.5748,-0.89736 -1.41181,-2.17801 -1.84375,-2.8125 -0.7781,-1.14322 -0.77804,-1.10906 0.28125,-1.375 0.58804,-0.14766 1.09375,-0.58324 1.09375,-0.9375 0,-0.78327 -0.2102,-0.81348 -1.3125,-0.125 -0.67331,0.42038 -0.98582,0.42038 -1.40625,0 -0.81452,-0.81448 -1.8247,-4.88816 -1.75,-7 0.0913,-2.5854 2.59446,-9.04561 3.6875,-9.53125 0.17947,-0.0797 0.3125,-0.31415 0.3125,-0.5 0,-0.58026 2.899,-3.40584 4.4375,-4.34375 0.89497,-0.54547 2.09964,-0.83745 3.375,-0.875 z"
       id="path3053" />
    <path
       style="fill:#ff0000"
       d="m 196.59375,843.83093 c 0.23326,-0.0127 0.56736,1.26344 0.8125,3.65625 0.16349,1.59584 0.19866,2.875 0.0937,2.875 -0.80454,0 -1.22951,-1.42451 -1.21875,-4.09375 0.007,-1.64625 0.13107,-2.42759 0.3125,-2.4375 z"
       id="path3051" />
    <path
       style="fill:#ff0000"
       d="m 193.03125,851.89343 c -0.1565,0.0543 -0.43077,0.21415 -0.78125,0.53125 -1.32529,1.19909 -3.52335,1.875 -6.0625,1.875 -2.33725,0 -2.7148,0.57799 -0.875,1.25 1.58496,0.57881 1.78034,0.55555 3.78125,0 0.94326,-0.26187 2.23447,-1.062 2.90625,-1.78125 1.09008,-1.16677 1.50081,-2.03792 1.03125,-1.875 z"
       id="rect3242" />
  </g>
</svg>
