<?xml version="1.0" encoding="UTF-8" standalone="no"?>
<!-- Created with Inkscape (http://www.inkscape.org/) -->

<svg
   xmlns:dc="http://purl.org/dc/elements/1.1/"
   xmlns:cc="http://creativecommons.org/ns#"
   xmlns:rdf="http://www.w3.org/1999/02/22-rdf-syntax-ns#"
   xmlns:svg="http://www.w3.org/2000/svg"
   xmlns="http://www.w3.org/2000/svg"
   xmlns:sodipodi="http://sodipodi.sourceforge.net/DTD/sodipodi-0.dtd"
   xmlns:inkscape="http://www.inkscape.org/namespaces/inkscape"
   width="900"
   height="800"
   id="svg2"
   version="1.1"
   inkscape:version="0.48.2 r9819"
   sodipodi:docname="l28.svg">
  <defs
     id="defs4" />
  <sodipodi:namedview
     id="base"
     pagecolor="#ffffff"
     bordercolor="#666666"
     borderopacity="1.0"
     inkscape:pageopacity="0.0"
     inkscape:pageshadow="2"
     inkscape:zoom="2"
     inkscape:cx="757.28374"
     inkscape:cy="281.66514"
     inkscape:document-units="px"
     inkscape:current-layer="layer1"
     showgrid="false"
     showguides="true"
     inkscape:guide-bbox="true"
     inkscape:window-width="1366"
     inkscape:window-height="746"
     inkscape:window-x="-8"
     inkscape:window-y="-8"
     inkscape:window-maximized="1"
     width="0px"
     height="0px"
     fit-margin-top="0"
     fit-margin-left="0"
     fit-margin-right="0"
     fit-margin-bottom="0">
    <sodipodi:guide
       orientation="1,0"
       position="450,784"
       id="guide3178" />
    <sodipodi:guide
       orientation="0,1"
       position="-61,400"
       id="guide3180" />
  </sodipodi:namedview>
  <metadata
     id="metadata7">
    <rdf:RDF>
      <cc:Work
         rdf:about="">
        <dc:format>image/svg+xml</dc:format>
        <dc:type
           rdf:resource="http://purl.org/dc/dcmitype/StillImage" />
        <dc:title></dc:title>
      </cc:Work>
    </rdf:RDF>
  </metadata>
  <g
     inkscape:label="Layer 1"
     inkscape:groupmode="layer"
     id="layer1"
     transform="translate(0,-252.36218)">
    <path
       id="rect3257"
       transform="translate(0,252.36218)"
       style="fill:#ff0000"
       d="m 701.625,465.53125 c -0.60504,0.0279 -1.18503,0.18048 -1.625,0.46875 -1.27497,0.8354 -4.06928,6.34353 -5.65625,11.21875 -0.61636,1.89336 -1.27244,3.64931 -1.5,3.90625 -0.22753,0.25698 -0.4375,1.21062 -0.4375,2.09375 0,0.88308 -0.33207,2.52846 -0.71875,3.6875 -0.38668,1.15896 -0.80115,3.09535 -0.9375,4.3125 -0.13641,1.21717 -0.59782,4.68099 -1.03125,7.65625 -0.50263,3.45028 -0.66703,6.67353 -0.46875,8.875 0.51273,5.69223 -2.05194,21.24691 -4.78125,29.0625 -0.77168,2.20985 -1.375,4.58339 -1.375,5.28125 0,0.69787 -0.18956,1.28125 -0.40625,1.28125 -0.80517,0 -1.71751,7.43529 -1.4375,11.71875 0.4483,6.85841 1.94791,9.46217 6.875,11.90625 1.6776,0.83228 3.78898,2.096 4.6875,2.78125 0.8985,0.685 2.24434,1.43777 2.96875,1.65625 0.72433,0.21839 1.60652,0.24976 2,0.125 0.39348,-0.12451 1.62459,-0.34755 2.71875,-0.5 1.09417,-0.15255 4.07587,-1.42273 6.625,-2.8125 4.43949,-2.42066 4.71585,-2.64307 6.21875,-5.59375 1.50335,-2.95252 1.55526,-3.29811 1.5,-8.59375 -0.0614,-5.88416 -1.11584,-10.47565 -3.5,-15.125 -1.19231,-2.32508 -2.77256,-8.20052 -3.71875,-14 -0.30887,-1.89338 -0.73517,-4.58508 -0.96875,-5.9375 -0.23367,-1.35243 -0.55242,-11.61886 -0.71875,-22.84375 -0.29783,-20.10051 -0.79687,-28.66402 -1.75,-29.8125 -0.48937,-0.58977 -1.55413,-0.85892 -2.5625,-0.8125 z m -0.15625,2.03125 c 0.7616,-0.0128 1.39323,0.65372 1.71875,1.90625 0.27553,1.06052 0.47335,10.83961 0.46875,23 -0.005,20.86828 0.39633,27.8891 2,35.15625 0.26862,1.21721 0.48964,3.07917 0.5,4.125 0.0207,1.82857 -0.0119,1.90655 -1.3125,1.59375 -5.96052,-1.43342 -7.6764,-1.56023 -10.59375,-0.75 -1.02197,0.28374 -2.95879,1.48522 -4.3125,2.6875 -1.35378,1.20246 -2.62433,2.1875 -2.78125,2.1875 -0.34804,0 -0.022,-1.52385 1.25,-6.65625 1.20722,-4.87106 1.42814,-6.45942 1.78125,-10.8125 0.15362,-1.89337 0.49339,-5.40942 0.75,-7.84375 0.25665,-2.43428 0.58421,-7.02131 0.71875,-10.1875 0.13439,-3.16618 0.60394,-7.46242 1.03125,-9.53125 0.42742,-2.06886 0.69049,-3.84075 0.5625,-3.96875 -0.12815,-0.1281 0.25326,-2.18569 0.90625,-4.53125 0.65297,-2.34548 1.30372,-4.84409 1.4375,-5.5625 0.35059,-1.88075 3.56926,-9.19424 4.40625,-10.03125 0.50285,-0.50298 1.0118,-0.77352 1.46875,-0.78125 z m -2.75,66.375 c 2.66813,0.0592 5.31018,1.40661 7.9375,4 2.80078,2.76472 3.48303,4.14014 5.4375,11.34375 1.19646,4.40995 1.30315,7.34375 0.28125,7.34375 -1.5943,0 -3.25,-0.97233 -3.25,-1.9375 0,-0.54784 -0.2295,-1 -0.5,-1 -0.27046,0 -0.5,0.43295 -0.5,0.9375 0,0.50464 -0.43941,1.4748 -1,2.1875 -1.15373,1.46661 -3.38401,1.75651 -4.375,0.5625 -1.12757,-1.35863 -3.28039,-0.88831 -4.78125,1.03125 -0.7553,0.96622 -2.18397,2.19721 -3.1875,2.71875 -1.00351,0.52154 -2.11989,0.92348 -2.46875,0.90625 -0.81731,-0.0407 -3.84375,-1.53991 -3.84375,-1.90625 -9.2e-4,-0.15381 -0.49089,-1.08456 -1.09375,-2.03125 -4.13668,-6.49575 -2.77751,-14.99391 3.28125,-20.53125 2.70826,-2.47525 5.39437,-3.68412 8.0625,-3.625 z m -15.25,15.59375 c 0.0713,0.0555 0.14614,0.30433 0.25,0.71875 0.84536,3.37285 1.17837,7.6327 0.65625,8.46875 -0.67546,1.08155 -1.11185,1.10542 -1.5,0.0937 -0.40672,-1.05995 -0.34529,-5.41194 0.125,-7.8125 0.21651,-1.10485 0.35016,-1.56128 0.46875,-1.46875 z M 710.5,557.8125 c 0.93953,-0.0192 1.57671,0.6281 1.84375,1.84375 0.50747,2.31051 -2.30728,5.36517 -6.9375,7.5625 -2.02683,0.96174 -4.29876,1.84261 -5.03125,1.9375 -2.38719,0.30936 -6.10195,-0.43452 -7.0625,-1.375 -0.35697,-0.34946 -2.31516,-1.45166 -4.34375,-2.46875 -4.93674,-2.4758 -5.96959,-3.84826 -3.875,-5.15625 0.93012,-0.58082 1.21799,-0.50156 2.59375,0.8125 0.8472,0.80918 2.43908,1.76396 3.5625,2.09375 3.62642,1.0649 6.00168,0.0824 8.75,-3.6875 0.64597,-0.88593 0.81995,-0.94352 1.84375,-0.3125 1.53055,0.94302 4.69093,0.68344 6.65625,-0.53125 0.75943,-0.46909 1.4363,-0.70715 2,-0.71875 z" />
  </g>
</svg>
