<?xml version="1.0" encoding="UTF-8" standalone="no"?>
<!-- Created with Inkscape (http://www.inkscape.org/) -->

<svg
   xmlns:dc="http://purl.org/dc/elements/1.1/"
   xmlns:cc="http://creativecommons.org/ns#"
   xmlns:rdf="http://www.w3.org/1999/02/22-rdf-syntax-ns#"
   xmlns:svg="http://www.w3.org/2000/svg"
   xmlns="http://www.w3.org/2000/svg"
   xmlns:sodipodi="http://sodipodi.sourceforge.net/DTD/sodipodi-0.dtd"
   xmlns:inkscape="http://www.inkscape.org/namespaces/inkscape"
   width="800"
   height="700"
   id="svg2"
   version="1.1"
   inkscape:version="0.48.2 r9819"
   sodipodi:docname="l28.svg">
  <defs
     id="defs4" />
  <sodipodi:namedview
     id="base"
     pagecolor="#ffffff"
     bordercolor="#666666"
     borderopacity="1.0"
     inkscape:pageopacity="0.0"
     inkscape:pageshadow="2"
     inkscape:zoom="1.767767"
     inkscape:cx="630.52444"
     inkscape:cy="197.69574"
     inkscape:document-units="px"
     inkscape:current-layer="layer1"
     showgrid="false"
     showguides="true"
     inkscape:guide-bbox="true"
     inkscape:window-width="1366"
     inkscape:window-height="746"
     inkscape:window-x="-8"
     inkscape:window-y="-8"
     inkscape:window-maximized="1"
     width="0px"
     height="0px"
     fit-margin-top="0"
     fit-margin-left="0"
     fit-margin-right="0"
     fit-margin-bottom="0">
    <sodipodi:guide
       orientation="1,0"
       position="400.22244,349.31075"
       id="guide3178" />
    <sodipodi:guide
       orientation="0,1"
       position="400.22244,349.31075"
       id="guide3180" />
  </sodipodi:namedview>
  <metadata
     id="metadata7">
    <rdf:RDF>
      <cc:Work
         rdf:about="">
        <dc:format>image/svg+xml</dc:format>
        <dc:type
           rdf:resource="http://purl.org/dc/dcmitype/StillImage" />
        <dc:title></dc:title>
      </cc:Work>
    </rdf:RDF>
  </metadata>
  <g
     inkscape:label="Layer 1"
     inkscape:groupmode="layer"
     id="layer1"
     transform="translate(0,-352.36218)">
    <path
       id="rect3354"
       transform="translate(0,352.36218)"
       style="fill:#ff0000"
       d="m 621.625,411.75 c -0.53521,0.0247 -1.07954,0.18249 -1.46875,0.4375 -1.12782,0.73899 -3.56492,5.62487 -4.96875,9.9375 -0.54522,1.67488 -1.14246,3.24145 -1.34375,3.46875 -0.20128,0.22732 -0.375,1.03129 -0.375,1.8125 0,0.78118 -0.28294,2.25596 -0.625,3.28125 -0.34205,1.02522 -0.72312,2.7358 -0.84375,3.8125 -0.12066,1.0767 -0.52285,4.14934 -0.90625,6.78125 -0.44464,3.05213 -0.58165,5.89631 -0.40625,7.84375 0.45356,5.03536 -1.83565,18.80505 -4.25,25.71875 -0.68262,1.95482 -1.21875,4.03893 -1.21875,4.65625 0,0.61735 -0.15206,1.15625 -0.34375,1.15625 -0.71226,0 -1.52894,6.55459 -1.28125,10.34375 0.39657,6.06696 1.73524,8.36921 6.09375,10.53125 1.48401,0.73623 3.33017,1.83133 4.125,2.4375 0.7948,0.60595 1.9842,1.27548 2.625,1.46875 0.64074,0.19318 1.43316,0.23537 1.78125,0.125 0.34808,-0.11013 1.43835,-0.30264 2.40625,-0.4375 0.9679,-0.13495 3.62003,-1.23936 5.875,-2.46875 3.92718,-2.14132 4.13929,-2.35858 5.46875,-4.96875 1.32988,-2.6118 1.39264,-2.94047 1.34375,-7.625 -0.0543,-5.20514 -1.01598,-9.23093 -3.125,-13.34375 -1.05472,-2.05677 -2.413,-7.27602 -3.25,-12.40625 -0.27322,-1.67488 -0.66837,-4.02239 -0.875,-5.21875 -0.20671,-1.19635 -0.47786,-10.32045 -0.625,-20.25 -0.26345,-17.78094 -0.71934,-25.3278 -1.5625,-26.34375 -0.43288,-0.5217 -1.35799,-0.79107 -2.25,-0.75 z m -0.15625,1.8125 c 0.6737,-0.0113 1.24329,0.57951 1.53125,1.6875 0.24374,0.93814 0.41031,9.61792 0.40625,20.375 -0.005,18.46011 0.36262,24.63397 1.78125,31.0625 0.23761,1.07674 0.42834,2.7311 0.4375,3.65625 0.0183,1.61755 -0.006,1.68296 -1.15625,1.40625 -5.27269,-1.268 -6.79431,-1.37298 -9.375,-0.65625 -0.90404,0.251 -2.615,1.31146 -3.8125,2.375 -1.19755,1.06369 -2.2987,1.9375 -2.4375,1.9375 -0.30789,0 -0.0628,-1.33487 1.0625,-5.875 1.06791,-4.30894 1.2814,-5.71177 1.59375,-9.5625 0.13589,-1.67488 0.42926,-4.81533 0.65625,-6.96875 0.22703,-2.15336 0.53723,-6.19918 0.65625,-9 0.11891,-2.80081 0.52827,-6.57615 0.90625,-8.40625 0.3781,-1.8301 0.58198,-3.41802 0.46875,-3.53125 -0.11335,-0.11332 0.26612,-1.92512 0.84375,-4 0.57763,-2.07481 1.13166,-4.30198 1.25,-4.9375 0.31011,-1.6637 3.13461,-8.10333 3.875,-8.84375 0.44482,-0.44493 0.90827,-0.71191 1.3125,-0.71875 z m -2.40625,58.71875 c 2.36023,0.0523 4.67586,1.23713 7,3.53125 2.47758,2.44567 3.08356,3.65893 4.8125,10.03125 1.05839,3.90106 1.15398,6.53125 0.25,6.53125 -1.4103,0 -2.875,-0.86497 -2.875,-1.71875 0,-0.48462 -0.19822,-0.90625 -0.4375,-0.90625 -0.23926,0 -0.4375,0.39743 -0.4375,0.84375 0,0.44641 -0.37911,1.30704 -0.875,1.9375 -1.0206,1.29737 -2.99838,1.55623 -3.875,0.5 -0.99744,-1.20183 -2.92234,-0.82305 -4.25,0.875 -0.66814,0.85471 -1.92479,1.97614 -2.8125,2.4375 -0.88772,0.46136 -1.8789,0.79649 -2.1875,0.78125 -0.72301,-0.036 -3.40625,-1.36342 -3.40625,-1.6875 -8e-4,-0.13605 -0.4042,-0.94381 -0.9375,-1.78125 -3.6593,-5.74615 -2.4846,-13.25792 2.875,-18.15625 2.39571,-2.18962 4.79602,-3.27105 7.15625,-3.21875 z m -13.5,13.78125 c 0.0631,0.0491 0.12687,0.28966 0.21875,0.65625 0.74779,2.98363 1.02436,6.72917 0.5625,7.46875 -0.59752,0.95674 -0.96916,1.01992 -1.3125,0.125 -0.35979,-0.93762 -0.29101,-4.81396 0.125,-6.9375 0.19153,-0.97734 0.30135,-1.39436 0.40625,-1.3125 z m 23.90625,7.34375 c 0.83112,-0.017 1.38878,0.54963 1.625,1.625 0.44892,2.04388 -2.02911,4.74373 -6.125,6.6875 -1.79293,0.85074 -3.78953,1.63482 -4.4375,1.71875 -2.1117,0.27367 -5.43154,-0.35554 -6.28125,-1.1875 -0.31577,-0.30912 -2.04926,-1.31903 -3.84375,-2.21875 -4.36705,-2.1901 -5.25913,-3.40545 -3.40625,-4.5625 0.82279,-0.5138 1.06426,-0.41242 2.28125,0.75 0.74944,0.7158 2.16247,1.52075 3.15625,1.8125 3.20795,0.942 5.28759,0.0849 7.71875,-3.25 0.57143,-0.78368 0.7506,-0.8082 1.65625,-0.25 1.35393,0.83419 4.13648,0.57451 5.875,-0.5 0.6718,-0.41496 1.2826,-0.61475 1.78125,-0.625 z" />
  </g>
</svg>
