<?xml version="1.0" encoding="UTF-8" standalone="no"?>
<!-- Created with Inkscape (http://www.inkscape.org/) -->

<svg
   xmlns:dc="http://purl.org/dc/elements/1.1/"
   xmlns:cc="http://creativecommons.org/ns#"
   xmlns:rdf="http://www.w3.org/1999/02/22-rdf-syntax-ns#"
   xmlns:svg="http://www.w3.org/2000/svg"
   xmlns="http://www.w3.org/2000/svg"
   xmlns:sodipodi="http://sodipodi.sourceforge.net/DTD/sodipodi-0.dtd"
   xmlns:inkscape="http://www.inkscape.org/namespaces/inkscape"
   width="800"
   height="400"
   id="svg2"
   version="1.1"
   inkscape:version="0.48.2 r9819"
   sodipodi:docname="f29.svg">
  <defs
     id="defs4" />
  <sodipodi:namedview
     id="base"
     pagecolor="#ffffff"
     bordercolor="#666666"
     borderopacity="1.0"
     inkscape:pageopacity="0.0"
     inkscape:pageshadow="2"
     inkscape:zoom="2"
     inkscape:cx="174.82254"
     inkscape:cy="68.669282"
     inkscape:document-units="px"
     inkscape:current-layer="layer1"
     showgrid="false"
     showguides="true"
     inkscape:guide-bbox="true"
     inkscape:window-width="1366"
     inkscape:window-height="746"
     inkscape:window-x="-8"
     inkscape:window-y="-8"
     inkscape:window-maximized="1"
     width="0px"
     height="0px"
     fit-margin-top="0"
     fit-margin-left="0"
     fit-margin-right="0"
     fit-margin-bottom="0">
    <sodipodi:guide
       orientation="1,0"
       position="400.22244,349.31075"
       id="guide3178" />
    <sodipodi:guide
       orientation="0,1"
       position="-117.37973,199.40411"
       id="guide3180" />
  </sodipodi:namedview>
  <metadata
     id="metadata7">
    <rdf:RDF>
      <cc:Work
         rdf:about="">
        <dc:format>image/svg+xml</dc:format>
        <dc:type
           rdf:resource="http://purl.org/dc/dcmitype/StillImage" />
        <dc:title></dc:title>
      </cc:Work>
    </rdf:RDF>
  </metadata>
  <g
     inkscape:label="Layer 1"
     inkscape:groupmode="layer"
     id="layer1"
     transform="translate(0,-652.36218)">
    <path
       id="rect3449"
       transform="translate(0,652.36218)"
       style="fill:#ff0000"
       d="m 185.3125,274.59375 c -1.451,0 -5.02574,2.00035 -7.59375,4.21875 -1.14786,0.9915 -3.15277,2.61295 -4.46875,3.65625 -3.18763,2.5277 -5.071,6.0801 -4.96875,9.5 0.1219,4.0781 3.12649,14.56755 5.15625,18.03125 1.04547,1.784 1.09375,2.22325 1.09375,8.15625 0,3.4499 0.16642,6.94535 0.40625,7.78125 0.23983,0.836 0.65989,4.2753 0.90625,7.625 0.24634,3.3497 0.71018,9.3699 1.0625,13.4375 0.35233,4.0673 0.68834,10.5622 0.6875,14.375 -8e-4,5.0914 0.16606,7.61045 0.6875,9.46875 l 0.6875,2.5 2.21875,0 c 2.91357,0 4.77424,-1.3855 5.40625,-4 1.31023,-5.4207 3.14813,-20.6563 3.15625,-26.25 0.0223,-13.395 2.69327,-34.4342 4.9375,-38.6875 0.37872,-0.7178 0.71774,-1.65935 0.71875,-2.09375 8.3e-4,-0.4346 0.19294,-1.168 0.4375,-1.625 1.02337,-1.9122 2.59375,-9.28915 2.59375,-12.15625 0,-2.6527 -0.15937,-3.31115 -1.46875,-5.53125 -1.35311,-2.2945 -2.94798,-3.6913 -6.75,-6 -0.394,-0.2393 -1.41895,-0.8991 -2.28125,-1.4375 -0.86231,-0.5381 -2.02835,-0.96875 -2.625,-0.96875 z M 185,277.625 c 2.50917,0 7.4882,2.3607 10,4.75 l 1.6875,1.65625 0,3.4375 c -0.0182,4.0256 -0.56976,6.6156 -2.71875,12.5625 -0.86451,2.3926 -1.79093,5.5282 -2.0625,6.9375 -0.55541,2.8824 -1.50324,3.9995 -4.5625,5.4375 -3.04545,1.4316 -5.19851,1.13865 -9.625,-1.34375 -1.35828,-0.7617 -2.53781,-1.81125 -2.96875,-2.65625 -0.39141,-0.7674 -1.01391,-2.00095 -1.4375,-2.71875 -0.86789,-1.4708 -2.49284,-7.1515 -2.96875,-10.4375 -0.39076,-2.6983 -0.24195,-6.25205 0.34375,-7.40625 0.54263,-1.0697 3.01352,-3.6875 3.46875,-3.6875 0.18273,0 1.23364,-0.96945 2.34375,-2.15625 2.53507,-2.7098 5.77046,-4.375 8.5,-4.375 z m -8.59375,35.8125 c 0.58169,0.015 1.5522,0.18715 2.5,0.46875 2.92043,0.8704 5.72871,0.8694 8.65625,0 3.12433,-0.9279 3.36621,-0.60715 2.71875,3.40625 -0.67417,4.1792 -1.34261,13.13015 -1.84375,25.21875 -0.74559,17.9852 -2.07409,26.1316 -4.75,28.6875 -0.94275,0.9004 -2.28893,1.31745 -2.90625,0.90625 -1.4399,-0.9516 -1.68661,-2.58335 -2,-13.59375 -0.29738,-10.4463 -0.68907,-15.87545 -2.25,-31.53125 -1.27253,-12.7634 -1.2701,-13.2284 -0.5625,-13.5 0.0888,-0.034 0.2436,-0.0675 0.4375,-0.0625 z" />
  </g>
</svg>
