<?xml version="1.0" encoding="UTF-8" standalone="no"?>
<!-- Created with Inkscape (http://www.inkscape.org/) -->

<svg
   xmlns:dc="http://purl.org/dc/elements/1.1/"
   xmlns:cc="http://creativecommons.org/ns#"
   xmlns:rdf="http://www.w3.org/1999/02/22-rdf-syntax-ns#"
   xmlns:svg="http://www.w3.org/2000/svg"
   xmlns="http://www.w3.org/2000/svg"
   xmlns:sodipodi="http://sodipodi.sourceforge.net/DTD/sodipodi-0.dtd"
   xmlns:inkscape="http://www.inkscape.org/namespaces/inkscape"
   width="900"
   height="800"
   id="svg2"
   version="1.1"
   inkscape:version="0.48.2 r9819"
   sodipodi:docname="m29.svg">
  <defs
     id="defs4" />
  <sodipodi:namedview
     id="base"
     pagecolor="#ffffff"
     bordercolor="#666666"
     borderopacity="1.0"
     inkscape:pageopacity="0.0"
     inkscape:pageshadow="2"
     inkscape:zoom="2"
     inkscape:cx="757.28374"
     inkscape:cy="121.66513"
     inkscape:document-units="px"
     inkscape:current-layer="layer1"
     showgrid="false"
     showguides="true"
     inkscape:guide-bbox="true"
     inkscape:window-width="1366"
     inkscape:window-height="746"
     inkscape:window-x="-8"
     inkscape:window-y="-8"
     inkscape:window-maximized="1"
     width="0px"
     height="0px"
     fit-margin-top="0"
     fit-margin-left="0"
     fit-margin-right="0"
     fit-margin-bottom="0">
    <sodipodi:guide
       orientation="1,0"
       position="450,784"
       id="guide3178" />
    <sodipodi:guide
       orientation="0,1"
       position="-61,400"
       id="guide3180" />
  </sodipodi:namedview>
  <metadata
     id="metadata7">
    <rdf:RDF>
      <cc:Work
         rdf:about="">
        <dc:format>image/svg+xml</dc:format>
        <dc:type
           rdf:resource="http://purl.org/dc/dcmitype/StillImage" />
        <dc:title></dc:title>
      </cc:Work>
    </rdf:RDF>
  </metadata>
  <g
     inkscape:label="Layer 1"
     inkscape:groupmode="layer"
     id="layer1"
     transform="translate(0,-252.36218)">
    <path
       id="rect3265"
       transform="translate(0,252.36218)"
       style="fill:#ff0000"
       d="m 694.6875,637.28125 c -2.83571,0 -6.29261,2.26602 -11.28125,7.34375 l -4.78125,4.84375 0,5.03125 c 0,4.97446 0.40691,8.29552 1.78125,14.96875 0.47067,2.28521 0.68289,6.72492 0.6875,13.75 0.004,9.94385 1.17823,30.36813 1.78125,31.34375 0.50237,0.81276 2.00793,6.95827 2.59375,10.4375 0.31056,1.84456 1.26224,4.69173 2.0625,6.34375 0.80024,1.65193 1.4375,3.29867 1.4375,3.65625 0,0.35796 0.14087,0.63902 0.34375,0.65625 0.20286,0.0116 0.94881,0.95708 1.625,2.0625 0.67622,1.1051 1.67781,2.15211 2.21875,2.375 1.69381,0.6973 3.10818,0.49539 4.09375,-0.5625 0.84925,-0.91155 0.99118,-2.00932 1.25,-10.65625 0.37603,-12.56174 1.67034,-29.90693 2.5625,-34.40625 0.38657,-1.94944 0.6875,-5.15994 0.6875,-7.15625 0,-3.60593 1.27998,-8.65447 4.59375,-18.28125 4.74632,-13.78861 5.16882,-16.50028 3.0625,-20.53125 -1.43829,-2.75242 -2.02547,-3.4583 -5.78125,-7.21875 -2.44399,-2.44685 -5.87115,-4 -8.9375,-4 z m 0.8125,2.875 c 2.11847,-0.0254 3.11682,0.27322 4.8125,1.34375 2.83455,1.78953 3.06203,2.06176 5.625,6.21875 1.52246,2.46947 2.19211,4.10286 2.1875,5.3125 -0.002,0.95933 -1.11066,4.92192 -2.46875,8.84375 -1.35812,3.92196 -2.73238,8.12217 -3.0625,9.3125 -0.41141,1.48351 -1.18691,2.61674 -2.4375,3.625 -2.27783,1.83662 -5.50799,2.20677 -8.75,0.96875 -3.05016,-1.1645 -3.21278,-1.29482 -5.0625,-4.1875 -2.40507,-3.76102 -5.18101,-11.41596 -5.3125,-14.625 -0.27963,-6.82039 -0.31471,-6.7683 3.875,-10.75 5.07393,-4.82179 7.19116,-6.02116 10.59375,-6.0625 z m -11.625,33.53125 c 0.17504,0 1.20276,0.73048 2.3125,1.625 2.61519,2.1075 6.87861,4.28125 8.375,4.28125 0.64713,0 2.06501,-0.32279 3.1875,-0.71875 l 2.0625,-0.71875 -0.25,3.03125 c -0.91446,10.3196 -1.33615,15.01199 -1.71875,19.90625 -0.23692,3.03017 -0.61157,5.76876 -0.8125,6.09375 -0.20093,0.32509 -0.46795,7.29675 -0.65625,15.53125 -0.27472,12.01434 -0.51039,15.08808 -1.0625,15.4375 -0.37838,0.2396 -0.84686,0.43337 -1.03125,0.4375 -0.87057,0.0193 -4.21318,-6.14859 -5.46875,-10.09375 -2.26145,-7.10644 -4.25921,-17.88837 -4.75,-25.53125 -0.55734,-8.67929 -0.69026,-29.28125 -0.1875,-29.28125 z" />
  </g>
</svg>
