<?xml version="1.0" encoding="UTF-8" standalone="no"?>
<!-- Created with Inkscape (http://www.inkscape.org/) -->

<svg
   xmlns:dc="http://purl.org/dc/elements/1.1/"
   xmlns:cc="http://creativecommons.org/ns#"
   xmlns:rdf="http://www.w3.org/1999/02/22-rdf-syntax-ns#"
   xmlns:svg="http://www.w3.org/2000/svg"
   xmlns="http://www.w3.org/2000/svg"
   xmlns:sodipodi="http://sodipodi.sourceforge.net/DTD/sodipodi-0.dtd"
   xmlns:inkscape="http://www.inkscape.org/namespaces/inkscape"
   width="900"
   height="800"
   id="svg2"
   version="1.1"
   inkscape:version="0.48.2 r9819"
   sodipodi:docname="f29.svg">
  <defs
     id="defs4" />
  <sodipodi:namedview
     id="base"
     pagecolor="#ffffff"
     bordercolor="#666666"
     borderopacity="1.0"
     inkscape:pageopacity="0.0"
     inkscape:pageshadow="2"
     inkscape:zoom="2"
     inkscape:cx="757.28374"
     inkscape:cy="181.66514"
     inkscape:document-units="px"
     inkscape:current-layer="layer1"
     showgrid="false"
     showguides="true"
     inkscape:guide-bbox="true"
     inkscape:window-width="1366"
     inkscape:window-height="746"
     inkscape:window-x="-8"
     inkscape:window-y="-8"
     inkscape:window-maximized="1"
     width="0px"
     height="0px"
     fit-margin-top="0"
     fit-margin-left="0"
     fit-margin-right="0"
     fit-margin-bottom="0">
    <sodipodi:guide
       orientation="1,0"
       position="450,784"
       id="guide3178" />
    <sodipodi:guide
       orientation="0,1"
       position="-61,400"
       id="guide3180" />
  </sodipodi:namedview>
  <metadata
     id="metadata7">
    <rdf:RDF>
      <cc:Work
         rdf:about="">
        <dc:format>image/svg+xml</dc:format>
        <dc:type
           rdf:resource="http://purl.org/dc/dcmitype/StillImage" />
        <dc:title></dc:title>
      </cc:Work>
    </rdf:RDF>
  </metadata>
  <g
     inkscape:label="Layer 1"
     inkscape:groupmode="layer"
     id="layer1"
     transform="translate(0,-252.36218)">
    <path
       id="rect3261"
       transform="translate(0,252.36218)"
       style="fill:#ff0000"
       d="m 702.5,590.28125 c -1.29863,-0.0337 -2.43103,0.37326 -3.6875,1.21875 -0.88393,0.59483 -2.35888,0.7895 -5.1875,0.8125 -4.44105,0.0368 -6.20882,0.75267 -9.25,3.625 -3.33061,3.14588 -4.76549,7.6365 -4.75,15.03125 0.009,4.88277 0.1685,5.68355 1.375,8.125 1.09354,2.21295 1.9648,3.14524 4.78125,5.03125 1.89335,1.26789 3.64629,2.32767 3.875,2.34375 0.22872,0.0169 0.99725,0.45516 1.71875,0.96875 0.72149,0.51374 1.82735,1.01346 2.5,1.15625 2.28698,0.48259 7.48968,-0.10414 9.0625,-1.03125 0.84577,-0.49844 2.26455,-1.17869 3.1875,-1.5 0.923,-0.3213 3.1939,-1.58841 5.03125,-2.84375 4.36175,-2.98021 5.03826,-4.36107 4.71875,-9.6875 -0.29008,-4.83545 -2.27174,-13.59317 -3.6875,-16.34375 -1.48409,-2.88325 -4.35443,-5.49645 -7.09375,-6.40625 -0.95926,-0.3183 -1.81457,-0.47975 -2.59375,-0.5 z m 1.0625,1.875 c 0.79167,0.004 1.50759,0.1505 2.125,0.40625 2.91375,1.20688 6.90625,8.79627 6.90625,13.1875 0,1.32726 0.31305,3.21669 0.71875,4.1875 1.18008,2.82443 0.92902,6.40175 -0.59375,9 -1.25463,2.14081 -4.58713,5.0625 -5.78125,5.0625 -0.31435,0 -1.45947,0.43573 -2.5625,0.96875 -1.10303,0.53302 -3.00825,1.22832 -4.1875,1.5 -1.17923,0.27191 -2.5528,0.44853 -3.09375,0.4375 -1.3633,-0.029 -5.26866,-1.25741 -5.625,-1.78125 -0.16122,-0.23687 -1.5158,-1.14187 -3.03125,-2 -3.66831,-2.07763 -5.155,-3.64764 -6.0625,-6.40625 -0.83211,-2.52934 -1.15715,-9.18093 -0.5625,-11.875 1.02634,-4.64958 4.87844,-8.79576 9.34375,-10.09375 4.64546,-1.3506 5.42797,-0.4948 5.875,6.21875 l 0.3125,4.21875 L 695.5,605.5 c -1.01314,0.14978 -2.54511,0.40731 -3.40625,0.59375 -1.49648,0.32384 -1.58677,0.23405 -1.90625,-1.46875 -0.51692,-2.75516 -1.21875,-2.58489 -1.21875,0.28125 0,1.91232 -0.26198,2.83949 -1,3.625 -0.54739,0.58278 -1.19232,1.77032 -1.4375,2.625 -0.39041,1.36138 -0.33156,1.5625 0.5,1.5625 0.66264,0 0.96875,-0.33534 0.96875,-1.125 0,-2.18137 2.57577,-3.27102 3.1875,-1.34375 0.45868,1.44525 1.22096,1.17625 1.5625,-0.53125 0.47336,-2.36655 3.46962,-3.81153 4.90625,-2.375 0.38167,0.38138 0.7997,0.35529 1.46875,-0.0625 0.64872,-0.40575 1.59605,-0.45804 3.125,-0.15625 l 2.21875,0.4375 0.28125,2.75 c 0.57025,5.27496 1.90625,5.10998 1.90625,-0.25 0,-3.87452 0.25074,-4.23164 3.3125,-4.25 1.42179,-0.009 0.97517,-1.34842 -0.65625,-1.96875 -0.63931,-0.24296 -1.1875,-0.77281 -1.1875,-1.15625 0,-0.38344 -0.2643,-0.81769 -0.65625,-0.96875 -0.44038,-0.16875 -0.67776,-0.007 -0.53125,0.375 0.71749,1.86971 -4.32807,4.2107 -6.9375,3.21875 -1.21347,-0.46135 -1.57748,-1.96182 -1.8125,-8.09375 -0.12698,-3.31381 -0.0702,-3.45229 1.25,-4.09375 1.33523,-0.6483 2.80558,-0.9753 4.125,-0.96875 z" />
  </g>
</svg>
