<?xml version="1.0" encoding="UTF-8" standalone="no"?>
<!-- Created with Inkscape (http://www.inkscape.org/) -->

<svg
   xmlns:dc="http://purl.org/dc/elements/1.1/"
   xmlns:cc="http://creativecommons.org/ns#"
   xmlns:rdf="http://www.w3.org/1999/02/22-rdf-syntax-ns#"
   xmlns:svg="http://www.w3.org/2000/svg"
   xmlns="http://www.w3.org/2000/svg"
   xmlns:sodipodi="http://sodipodi.sourceforge.net/DTD/sodipodi-0.dtd"
   xmlns:inkscape="http://www.inkscape.org/namespaces/inkscape"
   width="800"
   height="400"
   id="svg2"
   version="1.1"
   inkscape:version="0.48.2 r9819"
   sodipodi:docname="m29.svg">
  <defs
     id="defs4" />
  <sodipodi:namedview
     id="base"
     pagecolor="#ffffff"
     bordercolor="#666666"
     borderopacity="1.0"
     inkscape:pageopacity="0.0"
     inkscape:pageshadow="2"
     inkscape:zoom="2"
     inkscape:cx="174.82254"
     inkscape:cy="68.669282"
     inkscape:document-units="px"
     inkscape:current-layer="layer1"
     showgrid="false"
     showguides="true"
     inkscape:guide-bbox="true"
     inkscape:window-width="1366"
     inkscape:window-height="746"
     inkscape:window-x="-8"
     inkscape:window-y="-8"
     inkscape:window-maximized="1"
     width="0px"
     height="0px"
     fit-margin-top="0"
     fit-margin-left="0"
     fit-margin-right="0"
     fit-margin-bottom="0">
    <sodipodi:guide
       orientation="1,0"
       position="400.22244,349.31075"
       id="guide3178" />
    <sodipodi:guide
       orientation="0,1"
       position="-117.37973,199.40411"
       id="guide3180" />
  </sodipodi:namedview>
  <metadata
     id="metadata7">
    <rdf:RDF>
      <cc:Work
         rdf:about="">
        <dc:format>image/svg+xml</dc:format>
        <dc:type
           rdf:resource="http://purl.org/dc/dcmitype/StillImage" />
        <dc:title></dc:title>
      </cc:Work>
    </rdf:RDF>
  </metadata>
  <g
     inkscape:label="Layer 1"
     inkscape:groupmode="layer"
     id="layer1"
     transform="translate(0,-652.36218)">
    <path
       id="rect3469"
       transform="translate(0,652.36218)"
       style="fill:#ff0000"
       d="m 188.8125,230.3125 c -1.85057,-0.005 -3.86385,0.25835 -4.40625,0.6875 -0.29014,0.22946 -2.14271,0.5272 -4.125,0.65625 -2.08392,0.13577 -4.00531,0.503 -4.5625,0.875 -2.8441,1.89794 -3.62379,3.0268 -6.40625,9.21875 -0.9025,2.00819 -0.96909,2.61365 -0.71875,7.5625 0.26108,5.16151 0.30155,5.4465 1.78125,7.84375 2.36375,3.8297 6.73548,7.4137 10.40625,8.5625 2.85957,0.895 5.35016,0.74425 8.28125,-0.53125 2.85744,-1.2436 6.96816,-4.83915 8.78125,-7.65625 2.28496,-3.55042 2.81057,-8.74008 1.59375,-16.25 -0.64595,-3.9864 -4.81323,-9.66638 -7.8125,-10.65625 -0.63118,-0.20808 -1.70216,-0.30936 -2.8125,-0.3125 z m -0.5625,1.3125 c 1.51756,-0.0329 3.00449,0.36788 3.84375,1.15625 0.53887,0.50627 1.15117,0.9375 1.375,0.9375 0.75062,0.0172 2.90308,3.49911 3.5625,5.78125 0.35905,1.2426 0.92245,3.83579 1.28125,5.75 1.10591,5.89989 -0.21327,9.28218 -5.90625,15.0625 l -3.78125,3.84375 -3.0625,0 c -2.64442,0 -3.50642,-0.22145 -6.125,-1.53125 -3.9013,-1.9519 -6.75865,-4.92626 -7.75,-8.09375 -0.40236,-1.28569 -0.84303,-4.4413 -0.96875,-7.03125 l -0.21875,-4.75 1.625,-3.15625 c 2.39565,-4.71979 3.28316,-5.39434 7.90625,-6.09375 2.11821,-0.32031 4.6439,-0.94234 5.59375,-1.34375 0.82138,-0.34677 1.71445,-0.51151 2.625,-0.53125 z m -2.375,3.53125 c -0.30437,-0.006 -0.71529,0.14552 -1.15625,0.46875 -0.7531,0.55186 -0.84633,1.12948 -0.8125,4.96875 0.0367,4.17501 -0.003,4.35837 -1,4.8125 -1.80434,0.82211 -3.09249,0.5528 -4.125,-0.84375 -0.9457,-1.27928 -2.37165,-1.82209 -1.96875,-0.75 0.74399,1.97983 0.71041,2.36908 -0.125,3.125 -0.54558,0.49378 -0.84375,1.37511 -0.84375,2.28125 0,1.77844 1.06845,2.0078 1.8125,0.375 0.28255,-0.62019 0.99143,-1.21187 1.625,-1.34375 0.61698,-0.12867 2.41352,-0.74077 3.96875,-1.3125 1.86105,-0.68377 4.04803,-1.07574 6.4375,-1.1875 l 3.625,-0.15625 0.9375,1.4375 c 0.51547,0.79618 1.07957,1.4375 1.25,1.4375 0.27319,0.005 -0.0202,-5.64514 -0.3125,-6 -0.063,-0.0765 -0.59463,0.11298 -1.15625,0.40625 -2.22356,1.1615 -2.59347,1.28125 -4.46875,1.28125 -1.06871,0 -2.44213,-0.2315 -3.03125,-0.5 -1.78397,-0.81294 -2.12482,-3.88307 -0.65625,-5.75 1.10512,-1.40474 0.91318,-2.73162 0,-2.75 z" />
  </g>
</svg>
