<?xml version="1.0" encoding="UTF-8" standalone="no"?>
<!-- Created with Inkscape (http://www.inkscape.org/) -->

<svg
   xmlns:dc="http://purl.org/dc/elements/1.1/"
   xmlns:cc="http://creativecommons.org/ns#"
   xmlns:rdf="http://www.w3.org/1999/02/22-rdf-syntax-ns#"
   xmlns:svg="http://www.w3.org/2000/svg"
   xmlns="http://www.w3.org/2000/svg"
   xmlns:sodipodi="http://sodipodi.sourceforge.net/DTD/sodipodi-0.dtd"
   xmlns:inkscape="http://www.inkscape.org/namespaces/inkscape"
   width="900"
   height="800"
   id="svg2"
   version="1.1"
   inkscape:version="0.48.2 r9819"
   sodipodi:docname="l24.svg">
  <defs
     id="defs4" />
  <sodipodi:namedview
     id="base"
     pagecolor="#ffffff"
     bordercolor="#666666"
     borderopacity="1.0"
     inkscape:pageopacity="0.0"
     inkscape:pageshadow="2"
     inkscape:zoom="1"
     inkscape:cx="678.96085"
     inkscape:cy="230.7724"
     inkscape:document-units="px"
     inkscape:current-layer="layer1"
     showgrid="false"
     showguides="true"
     inkscape:guide-bbox="true"
     inkscape:window-width="1366"
     inkscape:window-height="746"
     inkscape:window-x="-8"
     inkscape:window-y="-8"
     inkscape:window-maximized="1"
     width="0px"
     height="0px"
     fit-margin-top="0"
     fit-margin-left="0"
     fit-margin-right="0"
     fit-margin-bottom="0">
    <sodipodi:guide
       orientation="1,0"
       position="450,784"
       id="guide3178" />
    <sodipodi:guide
       orientation="0,1"
       position="-61,400"
       id="guide3180" />
  </sodipodi:namedview>
  <metadata
     id="metadata7">
    <rdf:RDF>
      <cc:Work
         rdf:about="">
        <dc:format>image/svg+xml</dc:format>
        <dc:type
           rdf:resource="http://purl.org/dc/dcmitype/StillImage" />
        <dc:title></dc:title>
      </cc:Work>
    </rdf:RDF>
  </metadata>
  <g
     inkscape:label="Layer 1"
     inkscape:groupmode="layer"
     id="layer1"
     transform="translate(0,-252.36218)">
    <path
       id="rect3208"
       transform="translate(0,252.36218)"
       style="fill:#ff0000"
       d="m 483.3125,469.71875 c -0.48063,-0.007 -1.03849,0.0368 -1.71875,0.15625 -3.4885,0.6122 -5.66862,2.6219 -8.0625,7.53125 -2.08161,4.26897 -2.74939,6.25664 -3.125,9.1875 -0.17069,1.33189 -0.63581,4.0361 -1.0625,6 -0.42662,1.96396 -0.65137,3.91842 -0.5,4.3125 0.15127,0.39411 0.077,0.82451 -0.15625,0.96875 -0.23318,0.14413 -0.3451,0.64172 -0.21875,1.125 0.12638,0.48332 -0.1177,3.08669 -0.5625,5.78125 -0.52541,3.1832 -0.92956,9.82789 -1.15625,18.9375 -0.1919,7.71136 -0.54831,14.31062 -0.78125,14.6875 -0.2329,0.3768 -0.45442,1.92378 -0.53125,3.4375 -0.077,1.51371 -0.55321,5.75482 -1.03125,9.40625 -1.50979,11.5335 -0.90165,19.07835 1.65625,20 0.4648,0.16749 1.44028,0.71421 2.125,1.1875 0.6847,0.47305 1.88458,0.93305 2.6875,1.0625 3.27051,0.52706 14.48615,-0.90802 17.0625,-2.1875 2.44522,-1.21458 2.92509,-2.33397 3,-6.75 0.0681,-4.01628 -1.96014,-21.28132 -2.5625,-21.6875 -0.20055,-0.1351 -0.51983,-1.90328 -0.6875,-3.9375 -0.16771,-2.03421 -1.04592,-6.81275 -1.96875,-10.59375 -2.12612,-8.71124 -3.06713,-13.28719 -4.0625,-20.375 -0.43678,-3.11051 -0.98012,-6.85372 -1.25,-8.28125 -0.50046,-2.64704 -0.20873,-7.99853 0.59375,-10.65625 0.24499,-0.81145 1.21211,-3.78494 2.1875,-6.625 2.51208,-7.31435 2.86097,-8.63841 2.5,-10.5625 -0.27827,-1.48349 -0.93309,-2.09954 -2.375,-2.125 z M 482,472.0625 c 2.77518,-0.004 2.8812,0.81762 0.625,5.75 -0.64191,1.40323 -1.1875,2.8698 -1.1875,3.28125 0,0.41141 -0.77218,2.9143 -1.71875,5.5625 -1.53133,4.28404 -1.71899,5.37445 -1.71875,9.75 1.3e-4,2.70481 0.28416,6.45041 0.65625,8.34375 0.3721,1.89335 0.9681,5.12761 1.28125,7.15625 1.20087,7.7797 2.16617,12.555 2.6875,13.21875 0.62612,0.79725 1.6496,5.55111 1.375,6.375 -0.251,0.75301 -1.5821,0.70619 -2.53125,-0.0937 -0.42703,-0.35981 -1.823,-1.06266 -3.09375,-1.53125 -1.85001,-0.68214 -2.51024,-0.71284 -3.375,-0.25 -0.59399,0.31786 -2.04404,1.47969 -3.21875,2.5625 -1.80621,1.66489 -2.16653,1.83101 -2.4375,1.125 -0.17613,-0.45917 -0.15615,-5.21161 0.0625,-10.53125 0.21844,-5.31977 0.33386,-10.5129 0.28125,-11.53125 -0.0527,-1.01849 0.45866,-5.61967 1.125,-10.28125 0.66634,-4.66163 1.3572,-9.73112 1.53125,-11.21875 0.33133,-2.83162 2.04058,-9.24849 2.6875,-10.09375 0.207,-0.2705 0.68892,-1.34463 1.03125,-2.40625 0.88751,-2.75295 3.66067,-5.18291 5.9375,-5.1875 z m -5.375,58.65625 c 0.25065,-0.0103 0.51105,0.0276 0.8125,0.0937 1.9468,0.42767 5.27398,3.76379 6,6.03125 0.32462,1.01389 0.97875,2.30269 1.46875,2.84375 0.49005,0.54083 1.02866,2.15585 1.21875,3.59375 0.19007,1.438 0.69402,2.88147 1.0625,3.25 0.44086,0.44078 0.67946,1.91216 0.6875,4.28125 0.006,1.98032 0.21875,4.5954 0.5,5.8125 0.28128,1.21722 0.54355,4.24665 0.59375,6.71875 0.11108,5.46854 -0.34709,6.21436 -4.46875,7 -1.54301,0.29409 -5.81726,0.64352 -9.46875,0.8125 l -6.625,0.34375 -1.34375,-1.46875 c -1.77626,-1.93931 -2.25027,-4.43359 -1.78125,-9.1875 0.34994,-3.54664 0.75432,-6.40625 0.90625,-6.40625 0.0313,0 0.17508,-1.54425 0.3125,-3.4375 0.13737,-1.89341 0.54526,-4.40341 0.9375,-5.5625 0.39228,-1.15908 0.71875,-2.64186 0.71875,-3.3125 0,-1.8604 3.45259,-7.66571 5.78125,-9.75 1.30057,-1.16333 1.93552,-1.62399 2.6875,-1.65625 z m -4.90625,10.1875 c -1.05094,0 -2.85719,11.51736 -3.28125,20.90625 -0.32129,7.11297 0.39414,4.99439 1.6875,-4.9375 0.52833,-4.05729 1.18886,-9.03391 1.46875,-11.0625 0.60738,-4.40194 0.62673,-4.90625 0.125,-4.90625 z m 9.40625,0.65625 c -0.0811,0.0422 0.0131,0.20817 0.28125,0.53125 0.3225,0.38864 0.69436,2.32813 0.84375,4.3125 0.14941,1.98423 0.57884,4.63677 0.9375,5.90625 0.35867,1.2696 0.79369,4.70222 0.96875,7.625 0.17502,2.923 0.38729,5.61345 0.5,5.96875 0.11268,0.3552 0.4416,0.47184 0.75,0.28125 0.79278,-0.48993 0.31507,-6.26969 -1.25,-14.9375 -1.71961,-9.52374 -1.60828,-9.20834 -2.53125,-9.5625 -0.1649,-0.0633 -0.28571,-0.10531 -0.375,-0.125 -0.0669,-0.0145 -0.098,-0.014 -0.125,0 z" />
  </g>
</svg>
