<?xml version="1.0" encoding="UTF-8" standalone="no"?>
<!-- Created with Inkscape (http://www.inkscape.org/) -->

<svg
   xmlns:dc="http://purl.org/dc/elements/1.1/"
   xmlns:cc="http://creativecommons.org/ns#"
   xmlns:rdf="http://www.w3.org/1999/02/22-rdf-syntax-ns#"
   xmlns:svg="http://www.w3.org/2000/svg"
   xmlns="http://www.w3.org/2000/svg"
   xmlns:sodipodi="http://sodipodi.sourceforge.net/DTD/sodipodi-0.dtd"
   xmlns:inkscape="http://www.inkscape.org/namespaces/inkscape"
   width="800"
   height="700"
   id="svg2"
   version="1.1"
   inkscape:version="0.48.2 r9819"
   sodipodi:docname="l24.svg">
  <defs
     id="defs4" />
  <sodipodi:namedview
     id="base"
     pagecolor="#ffffff"
     bordercolor="#666666"
     borderopacity="1.0"
     inkscape:pageopacity="0.0"
     inkscape:pageshadow="2"
     inkscape:zoom="2.5"
     inkscape:cx="502.68159"
     inkscape:cy="196.33869"
     inkscape:document-units="px"
     inkscape:current-layer="layer1"
     showgrid="false"
     showguides="true"
     inkscape:guide-bbox="true"
     inkscape:window-width="1366"
     inkscape:window-height="746"
     inkscape:window-x="-8"
     inkscape:window-y="-8"
     inkscape:window-maximized="1"
     width="0px"
     height="0px"
     fit-margin-top="0"
     fit-margin-left="0"
     fit-margin-right="0"
     fit-margin-bottom="0">
    <sodipodi:guide
       orientation="1,0"
       position="400.22244,349.31075"
       id="guide3178" />
    <sodipodi:guide
       orientation="0,1"
       position="400.22244,349.31075"
       id="guide3180" />
  </sodipodi:namedview>
  <metadata
     id="metadata7">
    <rdf:RDF>
      <cc:Work
         rdf:about="">
        <dc:format>image/svg+xml</dc:format>
        <dc:type
           rdf:resource="http://purl.org/dc/dcmitype/StillImage" />
        <dc:title></dc:title>
      </cc:Work>
    </rdf:RDF>
  </metadata>
  <g
     inkscape:label="Layer 1"
     inkscape:groupmode="layer"
     id="layer1"
     transform="translate(0,-352.36218)">
    <path
       id="rect3304"
       transform="translate(0,352.36218)"
       style="fill:#ff0000"
       d="m 428.5,415.46875 c -0.42517,-0.007 -0.92949,0.0194 -1.53125,0.125 -3.08594,0.54155 -5.00738,2.34468 -7.125,6.6875 -1.84139,3.77634 -2.41775,5.53237 -2.75,8.125 -0.15101,1.1782 -0.59131,3.57523 -0.96875,5.3125 -0.3774,1.73733 -0.5714,3.46389 -0.4375,3.8125 0.13382,0.34863 0.0813,0.71615 -0.125,0.84375 -0.20627,0.1275 -0.29927,0.60374 -0.1875,1.03125 0.11179,0.42756 -0.10652,2.71015 -0.5,5.09375 -0.46478,2.81586 -0.83071,8.69162 -1.03125,16.75 -0.16975,6.82146 -0.48145,12.63536 -0.6875,12.96875 -0.20603,0.33333 -0.40078,1.72345 -0.46875,3.0625 -0.0681,1.33902 -0.48337,5.08244 -0.90625,8.3125 -1.33557,10.20254 -0.79398,16.8722 1.46875,17.6875 0.41116,0.14817 1.2693,0.64383 1.875,1.0625 0.60569,0.41846 1.66474,0.82298 2.375,0.9375 2.89311,0.46624 12.81471,-0.80567 15.09375,-1.9375 2.16305,-1.07442 2.58997,-2.06233 2.65625,-5.96875 0.0603,-3.55281 -1.7484,-18.82819 -2.28125,-19.1875 -0.1774,-0.11951 -0.44543,-1.66928 -0.59375,-3.46875 -0.14837,-1.79947 -0.93366,-6.03031 -1.75,-9.375 -1.88077,-7.70597 -2.71325,-11.76138 -3.59375,-18.03125 -0.38638,-2.75156 -0.88628,-6.0497 -1.125,-7.3125 -0.44272,-2.34157 -0.14739,-7.08648 0.5625,-9.4375 0.21672,-0.7178 1.07466,-3.36268 1.9375,-5.875 2.22219,-6.47028 2.50683,-7.6417 2.1875,-9.34375 -0.24614,-1.3123 -0.81823,-1.85248 -2.09375,-1.875 z m -1.15625,2.0625 c 2.45492,-0.004 2.52708,0.73056 0.53125,5.09375 -0.56784,1.2413 -1.03125,2.54227 -1.03125,2.90625 0,0.36394 -0.69392,2.5949 -1.53125,4.9375 -1.35463,3.78967 -1.53146,4.72314 -1.53125,8.59375 1.2e-4,2.39267 0.29584,5.73139 0.625,7.40625 0.32916,1.67486 0.81674,4.51797 1.09375,6.3125 1.06229,6.88193 1.91384,11.10034 2.375,11.6875 0.55386,0.70524 1.46166,4.92744 1.21875,5.65625 -0.22203,0.66611 -1.37913,0.61387 -2.21875,-0.0937 -0.37775,-0.31828 -1.62588,-0.92923 -2.75,-1.34375 -1.63651,-0.60342 -2.20378,-0.62817 -2.96875,-0.21875 -0.52544,0.28118 -1.83585,1.32338 -2.875,2.28125 -1.59779,1.47276 -1.91655,1.59328 -2.15625,0.96875 -0.15581,-0.40618 -0.13092,-4.60676 0.0625,-9.3125 0.19323,-4.70588 0.32778,-9.28667 0.28125,-10.1875 -0.0466,-0.90095 0.3793,-5.00135 0.96875,-9.125 0.58944,-4.12368 1.22104,-8.5903 1.375,-9.90625 0.2931,-2.50486 1.80273,-8.15853 2.375,-8.90625 0.18311,-0.23928 0.57217,-1.18589 0.875,-2.125 0.78509,-2.43527 3.26716,-4.62095 5.28125,-4.625 z m -4.75,51.90625 c 0.22173,-0.01 0.45208,0.0353 0.71875,0.0937 1.72214,0.37832 4.67026,3.33794 5.3125,5.34375 0.28715,0.89688 0.8478,2.02137 1.28125,2.5 0.43351,0.47841 0.92559,1.91554 1.09375,3.1875 0.16813,1.27206 0.58031,2.54901 0.90625,2.875 0.38999,0.38991 0.61788,1.68556 0.625,3.78125 0.006,1.7518 0.18871,4.07962 0.4375,5.15625 0.24882,1.07677 0.48685,3.75068 0.53125,5.9375 0.0983,4.83747 -0.32274,5.49252 -3.96875,6.1875 -1.36495,0.26014 -5.11364,0.56927 -8.34375,0.71875 l -5.875,0.28125 -1.1875,-1.28125 c -1.57129,-1.7155 -1.97739,-3.95094 -1.5625,-8.15625 0.30955,-3.13736 0.64685,-5.625 0.78125,-5.625 0.0277,0 0.1597,-1.38773 0.28125,-3.0625 0.12152,-1.67491 0.46553,-3.88093 0.8125,-4.90625 0.34701,-1.02533 0.65625,-2.34425 0.65625,-2.9375 0,-1.64572 3.03382,-6.78123 5.09375,-8.625 1.15049,-1.02908 1.74104,-1.4402 2.40625,-1.46875 z m -4.375,9 c -0.92965,0 -2.49988,10.19459 -2.875,18.5 -0.28421,6.29214 0.35589,4.442 1.5,-4.34375 0.46736,-3.58909 1.03366,-7.98674 1.28125,-9.78125 0.5373,-3.89394 0.53765,-4.375 0.0937,-4.375 z m 8.34375,0.59375 c -0.0717,0.0374 0.0128,0.18295 0.25,0.46875 0.2853,0.3438 0.61786,2.05712 0.75,3.8125 0.13218,1.75524 0.52648,4.12701 0.84375,5.25 0.31728,1.12308 0.6889,4.13326 0.84375,6.71875 0.15483,2.58569 0.3378,4.96695 0.4375,5.28125 0.0997,0.31421 0.41469,0.41861 0.6875,0.25 0.70128,-0.43339 0.25947,-5.55119 -1.125,-13.21875 -1.52116,-8.42471 -1.43354,-8.12421 -2.25,-8.4375 -0.14587,-0.056 -0.23352,-0.10759 -0.3125,-0.125 -0.0591,-0.0129 -0.10111,-0.0124 -0.125,0 z" />
  </g>
</svg>
