<?xml version="1.0" encoding="UTF-8" standalone="no"?>
<!-- Created with Inkscape (http://www.inkscape.org/) -->

<svg
   xmlns:dc="http://purl.org/dc/elements/1.1/"
   xmlns:cc="http://creativecommons.org/ns#"
   xmlns:rdf="http://www.w3.org/1999/02/22-rdf-syntax-ns#"
   xmlns:svg="http://www.w3.org/2000/svg"
   xmlns="http://www.w3.org/2000/svg"
   xmlns:sodipodi="http://sodipodi.sourceforge.net/DTD/sodipodi-0.dtd"
   xmlns:inkscape="http://www.inkscape.org/namespaces/inkscape"
   width="800"
   height="400"
   id="svg2"
   version="1.1"
   inkscape:version="0.48.2 r9819"
   sodipodi:docname="f25.svg">
  <defs
     id="defs4" />
  <sodipodi:namedview
     id="base"
     pagecolor="#ffffff"
     bordercolor="#666666"
     borderopacity="1.0"
     inkscape:pageopacity="0.0"
     inkscape:pageshadow="2"
     inkscape:zoom="2"
     inkscape:cx="333.22227"
     inkscape:cy="106.83685"
     inkscape:document-units="px"
     inkscape:current-layer="layer1"
     showgrid="false"
     showguides="true"
     inkscape:guide-bbox="true"
     inkscape:window-width="1366"
     inkscape:window-height="746"
     inkscape:window-x="-8"
     inkscape:window-y="-8"
     inkscape:window-maximized="1"
     width="0px"
     height="0px"
     fit-margin-top="0"
     fit-margin-left="0"
     fit-margin-right="0"
     fit-margin-bottom="0">
    <sodipodi:guide
       orientation="1,0"
       position="400.22244,349.31075"
       id="guide3178" />
    <sodipodi:guide
       orientation="0,1"
       position="-117.37973,199.40411"
       id="guide3180" />
  </sodipodi:namedview>
  <metadata
     id="metadata7">
    <rdf:RDF>
      <cc:Work
         rdf:about="">
        <dc:format>image/svg+xml</dc:format>
        <dc:type
           rdf:resource="http://purl.org/dc/dcmitype/StillImage" />
        <dc:title></dc:title>
      </cc:Work>
    </rdf:RDF>
  </metadata>
  <g
     inkscape:label="Layer 1"
     inkscape:groupmode="layer"
     id="layer1"
     transform="translate(0,-652.36218)">
    <path
       id="rect3611"
       transform="translate(0,652.36218)"
       style="fill:#ff0000"
       d="m 370.59375,273.375 c -2.58603,0.019 -5.00397,0.38715 -6.96875,1.09375 -2.87714,1.0345 -3.45654,2.0176 -3.1875,5.4375 0.11843,1.5056 0.40322,5.3949 0.65625,8.625 0.25296,3.23 0.68125,7.1322 0.9375,8.6875 0.25623,1.5552 0.72194,5.0609 1.0625,7.8125 0.34058,2.7516 0.84348,6.5859 1.09375,8.5 0.2503,1.9142 0.66567,9.35325 0.9375,16.53125 0.39871,10.5287 0.37156,14.06955 -0.0937,18.28125 -0.8042,7.2781 -0.76211,12.20115 0.125,14.21875 0.3945,0.8973 0.90215,1.64795 1.09375,1.65625 0.19166,0.01 1.43478,-0.521 2.78125,-1.1875 2.61751,-1.2953 4.67201,-3.77695 5.53125,-6.65625 3.02994,-10.1537 3.94539,-14.9423 3.96875,-20.875 0.007,-1.7944 0.22328,-4.8359 0.46875,-6.75 0.24548,-1.9142 0.6202,-7.47 0.84375,-12.375 0.22355,-4.9049 0.70141,-11.28505 1.0625,-14.15625 0.36111,-2.8712 0.81099,-9.0218 0.96875,-13.6875 0.42639,-12.6102 -0.0991,-13.8119 -6.53125,-14.8125 -1.5918,-0.2472 -3.1984,-0.35525 -4.75,-0.34375 z m -0.78125,2.375 c 2.94295,-0.01 6.14689,0.39935 7.9375,1.15625 1.55721,0.6581 1.60012,0.7016 1.90625,3.75 0.36901,3.6745 -0.0666,15.0007 -0.78125,21.125 -0.53764,4.6079 -1.06319,5.6082 -4.21875,7.75 -1.44303,0.9794 -3.56528,0.9293 -4.90625,-0.125 -1.39948,-1.1009 -4.41539,-6.9774 -5.03125,-9.8125 -0.25987,-1.1963 -0.55494,-5.09935 -0.6875,-8.71875 -0.13259,-3.6193 -0.50709,-8.0943 -0.78125,-9.9375 -0.42227,-2.8391 -0.38642,-3.4573 0.15625,-4 0.76459,-0.7645 3.46332,-1.1786 6.40625,-1.1875 z m -3.625,32.84375 c 0.0948,-0.095 0.84056,0.3154 1.65625,0.9375 0.81571,0.6223 2.25575,1.427 3.21875,1.8125 1.61032,0.6463 1.90905,0.6461 3.8125,0 1.13832,-0.3873 2.36794,-0.59215 2.6875,-0.46875 0.7079,0.2716 0.72143,2.4568 0.0625,4.8125 -0.26776,0.957 -0.5473,3.83145 -0.59375,6.34375 -0.11487,6.225 -0.96158,17.57495 -1.71875,22.59375 -0.72944,4.8351 -2.58414,11.73415 -3.71875,13.90625 -0.44181,0.8459 -1.60554,2.0033 -2.59375,2.5625 l -1.78125,1 -0.375,-1.0625 c -0.90356,-2.3767 -0.92314,-4.1537 -0.0625,-8.5625 1.24753,-6.3896 1.10798,-19.0188 -0.40625,-38.75 -0.21104,-2.7495 -0.2823,-5.0305 -0.1875,-5.125 z" />
  </g>
</svg>
