<?xml version="1.0" encoding="UTF-8" standalone="no"?>
<!-- Created with Inkscape (http://www.inkscape.org/) -->

<svg
   xmlns:dc="http://purl.org/dc/elements/1.1/"
   xmlns:cc="http://creativecommons.org/ns#"
   xmlns:rdf="http://www.w3.org/1999/02/22-rdf-syntax-ns#"
   xmlns:svg="http://www.w3.org/2000/svg"
   xmlns="http://www.w3.org/2000/svg"
   xmlns:sodipodi="http://sodipodi.sourceforge.net/DTD/sodipodi-0.dtd"
   xmlns:inkscape="http://www.inkscape.org/namespaces/inkscape"
   width="900"
   height="800"
   id="svg2"
   version="1.1"
   inkscape:version="0.48.2 r9819"
   sodipodi:docname="m25.svg">
  <defs
     id="defs4" />
  <sodipodi:namedview
     id="base"
     pagecolor="#ffffff"
     bordercolor="#666666"
     borderopacity="1.0"
     inkscape:pageopacity="0.0"
     inkscape:pageshadow="2"
     inkscape:zoom="1.4142136"
     inkscape:cx="646.75406"
     inkscape:cy="123.14058"
     inkscape:document-units="px"
     inkscape:current-layer="layer1"
     showgrid="false"
     showguides="true"
     inkscape:guide-bbox="true"
     inkscape:window-width="1366"
     inkscape:window-height="746"
     inkscape:window-x="-8"
     inkscape:window-y="-8"
     inkscape:window-maximized="1"
     width="0px"
     height="0px"
     fit-margin-top="0"
     fit-margin-left="0"
     fit-margin-right="0"
     fit-margin-bottom="0">
    <sodipodi:guide
       orientation="1,0"
       position="450,784"
       id="guide3178" />
    <sodipodi:guide
       orientation="0,1"
       position="-61,400"
       id="guide3180" />
  </sodipodi:namedview>
  <metadata
     id="metadata7">
    <rdf:RDF>
      <cc:Work
         rdf:about="">
        <dc:format>image/svg+xml</dc:format>
        <dc:type
           rdf:resource="http://purl.org/dc/dcmitype/StillImage" />
        <dc:title></dc:title>
      </cc:Work>
    </rdf:RDF>
  </metadata>
  <g
     inkscape:label="Layer 1"
     inkscape:groupmode="layer"
     id="layer1"
     transform="translate(0,-252.36218)">
    <path
       id="rect3216"
       transform="translate(0,252.36218)"
       style="fill:#ff0000"
       d="m 474.75,651.84375 c -3.00076,0.066 -3.55101,0.33307 -5.03125,1.3125 -2.39057,1.58149 -2.74539,2.87775 -2.40625,8.3125 0.29758,4.76869 1.62442,14.9455 2.25,17.40625 0.27157,1.06822 0.7463,4.25379 1.0625,7.09375 0.31621,2.84005 0.91457,7.15945 1.3125,9.59375 0.39794,2.43433 0.90399,10.17516 1.15625,17.21875 0.77765,21.71076 2.69834,33.50264 6.34375,39.125 1.22736,1.8928 1.29115,1.9375 4.25,1.9375 l 3,0 L 487.21875,752 c 0.29115,-1.0143 0.66186,-6.1632 0.84375,-11.4375 0.32839,-9.52398 1.00166,-16.98844 2.5,-29.25 0.42971,-3.51623 0.83894,-10.38146 0.9375,-15.25 0.0985,-4.86864 0.53519,-12.58939 0.96875,-17.1875 0.43355,-4.59813 1.01361,-10.74118 1.28125,-13.59375 0.65476,-6.97857 0.63393,-8.01529 -0.3125,-10 -0.73223,-1.53541 -1.16523,-1.76802 -4.3125,-2.5625 -2.51546,-0.63514 -5.41952,-0.85891 -10.40625,-0.875 -1.68155,-0.003 -2.9685,-0.022 -3.96875,0 z m 4.46875,2.4375 c 6.31846,0.0212 9.50135,0.55061 11.3125,1.875 0.89578,0.65481 0.9063,1.05657 0.3125,10.46875 -1.08847,17.25131 -1.59754,21.10127 -2.90625,22.375 -1.43091,1.39287 -2.5625,2.89792 -2.5625,3.40625 0,0.26732 -0.25421,0.46875 -0.5625,0.46875 -0.30827,0 -0.81522,0.35749 -1.125,0.78125 -0.57896,0.79172 -3.78189,1.31748 -5.3125,0.875 -0.47336,-0.13672 -0.84375,-0.55165 -0.84375,-0.9375 0,-0.38586 -0.34427,-0.71875 -0.75,-0.71875 -0.40572,0 -0.78125,-0.27406 -0.78125,-0.5625 0,-0.28869 -0.54175,-1.20611 -1.21875,-2.09375 -0.68825,-0.90222 -1.42944,-2.79591 -1.6875,-4.28125 -2.04628,-11.77748 -3.75673,-26.76172 -3.28125,-28.65625 0.62032,-2.47097 2.39086,-3.02296 9.40625,-3 z m 8.96875,37.625 c 0.87445,0 0.80266,5.93643 -0.125,15.71875 -1.13261,11.94267 -2.21875,30.08674 -2.21875,36.96875 0,5.69754 -0.0733,6.31875 -0.9375,6.78125 -1.08231,0.5793 -0.92882,0.56755 -2.25,0.0312 -1.51431,-0.6139 -2.30785,-1.81295 -2.71875,-4.09375 -0.20451,-1.13533 -0.86345,-3.37719 -1.4375,-5 -1.59405,-4.50651 -2.47417,-12.45281 -3.03125,-27.3125 -0.27886,-7.43821 -0.61533,-15.21636 -0.75,-17.3125 -0.13452,-2.09635 -0.12003,-3.84375 0.0625,-3.84375 0.18247,0 0.9383,0.44135 1.65625,0.9375 2.91326,2.01307 6.96875,2.914 6.96875,1.5625 -1.6e-4,-0.62562 4.10943,-4.4375 4.78125,-4.4375 z" />
  </g>
</svg>
