<?xml version="1.0" encoding="UTF-8" standalone="no"?>
<!-- Created with Inkscape (http://www.inkscape.org/) -->

<svg
   xmlns:dc="http://purl.org/dc/elements/1.1/"
   xmlns:cc="http://creativecommons.org/ns#"
   xmlns:rdf="http://www.w3.org/1999/02/22-rdf-syntax-ns#"
   xmlns:svg="http://www.w3.org/2000/svg"
   xmlns="http://www.w3.org/2000/svg"
   xmlns:sodipodi="http://sodipodi.sourceforge.net/DTD/sodipodi-0.dtd"
   xmlns:inkscape="http://www.inkscape.org/namespaces/inkscape"
   width="800"
   height="700"
   id="svg2"
   version="1.1"
   inkscape:version="0.48.2 r9819"
   sodipodi:docname="m25.svg">
  <defs
     id="defs4" />
  <sodipodi:namedview
     id="base"
     pagecolor="#ffffff"
     bordercolor="#666666"
     borderopacity="1.0"
     inkscape:pageopacity="0.0"
     inkscape:pageshadow="2"
     inkscape:zoom="2.5"
     inkscape:cx="502.68159"
     inkscape:cy="84.338688"
     inkscape:document-units="px"
     inkscape:current-layer="layer1"
     showgrid="false"
     showguides="true"
     inkscape:guide-bbox="true"
     inkscape:window-width="1366"
     inkscape:window-height="746"
     inkscape:window-x="-8"
     inkscape:window-y="-8"
     inkscape:window-maximized="1"
     width="0px"
     height="0px"
     fit-margin-top="0"
     fit-margin-left="0"
     fit-margin-right="0"
     fit-margin-bottom="0">
    <sodipodi:guide
       orientation="1,0"
       position="400.22244,349.31075"
       id="guide3178" />
    <sodipodi:guide
       orientation="0,1"
       position="400.22244,349.31075"
       id="guide3180" />
  </sodipodi:namedview>
  <metadata
     id="metadata7">
    <rdf:RDF>
      <cc:Work
         rdf:about="">
        <dc:format>image/svg+xml</dc:format>
        <dc:type
           rdf:resource="http://purl.org/dc/dcmitype/StillImage" />
        <dc:title></dc:title>
      </cc:Work>
    </rdf:RDF>
  </metadata>
  <g
     inkscape:label="Layer 1"
     inkscape:groupmode="layer"
     id="layer1"
     transform="translate(0,-352.36218)">
    <path
       id="rect3312"
       transform="translate(0,352.36218)"
       style="fill:#ff0000"
       d="m 420.9375,576.5625 c -2.65446,0.058 -3.12807,0.3211 -4.4375,1.1875 -2.11469,1.399 -2.45625,2.53615 -2.15625,7.34375 0.26325,4.2184 1.41537,13.22945 1.96875,15.40625 0.24023,0.945 0.68906,3.76895 0.96875,6.28125 0.27973,2.5123 0.80424,6.31535 1.15625,8.46875 0.35202,2.1534 0.80811,9.0192 1.03125,15.25 0.68792,19.2054 2.36902,29.6514 5.59375,34.625 1.08571,1.6743 1.16385,1.6875 3.78125,1.6875 l 2.625,0 0.46875,-1.625 c 0.25755,-0.8973 0.62036,-5.4593 0.78125,-10.125 0.2905,-8.4249 0.86207,-15.0284 2.1875,-25.875 0.38012,-3.1104 0.72532,-9.1933 0.8125,-13.5 0.0872,-4.3068 0.49148,-11.12 0.875,-15.1875 0.38353,-4.0675 0.88825,-9.4766 1.125,-12 0.5792,-6.1733 0.55596,-7.1193 -0.28125,-8.875 -0.64775,-1.3583 -1.02844,-1.5472 -3.8125,-2.25 -2.22518,-0.5618 -4.77625,-0.7983 -9.1875,-0.8125 -1.48751,0 -2.61518,-0.0194 -3.5,0 z m 1.8125,2.1875 c 0.6378,-0.016 1.34927,-0.003 2.125,0 5.58932,0.019 8.39785,0.4535 10,1.625 0.79241,0.5793 0.80653,0.95525 0.28125,9.28125 -0.96286,15.2606 -1.40482,18.65445 -2.5625,19.78125 -1.26578,1.2321 -2.25,2.58155 -2.25,3.03125 0,0.2365 -0.25854,0.40625 -0.53125,0.40625 -0.2727,0 -0.69472,0.3127 -0.96875,0.6875 -0.51215,0.7004 -3.36477,1.17265 -4.71875,0.78125 -0.41874,-0.1209 -0.75,-0.50235 -0.75,-0.84375 0,-0.3413 -0.29734,-0.625 -0.65625,-0.625 -0.35891,0 -0.6875,-0.21365 -0.6875,-0.46875 0,-0.2554 -0.46361,-1.0898 -1.0625,-1.875 -0.60881,-0.7981 -1.27172,-2.46725 -1.5,-3.78125 -1.81013,-10.4183 -3.32685,-23.66785 -2.90625,-25.34375 0.48016,-1.91257 1.72293,-2.54396 6.1875,-2.65625 z m 10.0625,33.28125 c 0.77353,0 0.72683,5.25275 -0.0937,13.90625 -1.00191,10.5645 -1.96875,26.5997 -1.96875,32.6875 0,5.04 -0.0793,5.5909 -0.84375,6 -0.9574,0.5125 -0.8313,0.50565 -2,0.0312 -1.33957,-0.543 -2.04277,-1.6074 -2.40625,-3.625 -0.18092,-1.0043 -0.77344,-3.002 -1.28125,-4.4375 -1.41009,-3.9865 -2.16344,-10.9801 -2.65625,-24.125 -0.24666,-6.5798 -0.53711,-13.48945 -0.65625,-15.34375 -0.119,-1.8544 -0.0991,-3.40625 0.0625,-3.40625 0.16142,0 0.83366,0.40485 1.46875,0.84375 2.57708,1.7807 6.15625,2.60185 6.15625,1.40625 -1.5e-4,-0.5534 3.62445,-3.9375 4.21875,-3.9375 z" />
  </g>
</svg>
