<?xml version="1.0" encoding="UTF-8" standalone="no"?>
<!-- Created with Inkscape (http://www.inkscape.org/) -->

<svg
   xmlns:dc="http://purl.org/dc/elements/1.1/"
   xmlns:cc="http://creativecommons.org/ns#"
   xmlns:rdf="http://www.w3.org/1999/02/22-rdf-syntax-ns#"
   xmlns:svg="http://www.w3.org/2000/svg"
   xmlns="http://www.w3.org/2000/svg"
   xmlns:sodipodi="http://sodipodi.sourceforge.net/DTD/sodipodi-0.dtd"
   xmlns:inkscape="http://www.inkscape.org/namespaces/inkscape"
   width="800"
   height="700"
   id="svg2"
   version="1.1"
   inkscape:version="0.48.2 r9819"
   sodipodi:docname="f25.svg">
  <defs
     id="defs4" />
  <sodipodi:namedview
     id="base"
     pagecolor="#ffffff"
     bordercolor="#666666"
     borderopacity="1.0"
     inkscape:pageopacity="0.0"
     inkscape:pageshadow="2"
     inkscape:zoom="2.5"
     inkscape:cx="502.68159"
     inkscape:cy="84.338688"
     inkscape:document-units="px"
     inkscape:current-layer="layer1"
     showgrid="false"
     showguides="true"
     inkscape:guide-bbox="true"
     inkscape:window-width="1366"
     inkscape:window-height="746"
     inkscape:window-x="-8"
     inkscape:window-y="-8"
     inkscape:window-maximized="1"
     width="0px"
     height="0px"
     fit-margin-top="0"
     fit-margin-left="0"
     fit-margin-right="0"
     fit-margin-bottom="0">
    <sodipodi:guide
       orientation="1,0"
       position="400.22244,349.31075"
       id="guide3178" />
    <sodipodi:guide
       orientation="0,1"
       position="400.22244,349.31075"
       id="guide3180" />
  </sodipodi:namedview>
  <metadata
     id="metadata7">
    <rdf:RDF>
      <cc:Work
         rdf:about="">
        <dc:format>image/svg+xml</dc:format>
        <dc:type
           rdf:resource="http://purl.org/dc/dcmitype/StillImage" />
        <dc:title></dc:title>
      </cc:Work>
    </rdf:RDF>
  </metadata>
  <g
     inkscape:label="Layer 1"
     inkscape:groupmode="layer"
     id="layer1"
     transform="translate(0,-352.36218)">
    <path
       id="rect3308"
       transform="translate(0,352.36218)"
       style="fill:#ff0000"
       d="m 425.875,539.375 c -2.51897,0 -3.21641,0.44357 -9.78125,6.59375 -2.3771,2.22688 -4.0625,5.11324 -4.0625,7 0,3.03563 5.01261,9.91895 10.40625,14.34375 1.69366,1.3895 1.64177,1.40335 3.5625,0.53125 3.20003,-1.4531 3.67352,-1.81785 5.375,-4.03125 0.96837,-1.2595 2.96602,-3.71805 4.4375,-5.46875 2.27569,-2.7074 2.6875,-3.43191 2.6875,-4.875 0,-2.13968 -0.69006,-3.43285 -2.96875,-5.625 -0.99482,-0.95702 -2.03916,-2.34456 -2.34375,-3.0625 -1.38348,-3.25983 -4.31538,-5.40625 -7.3125,-5.40625 z m -0.5,1.875 c 0.77604,0.0122 1.58753,0.33495 2.5625,0.90625 1.07072,0.62758 2.25749,1.66386 2.625,2.3125 0.3675,0.64874 1.03137,1.78217 1.5,2.5 1.22519,1.87658 1.44068,2.40301 1.125,2.71875 -0.42905,0.42902 -9.86608,0.53006 -11.34375,0.125 -0.71782,-0.19671 -2.13184,-0.34755 -3.15625,-0.375 -2.44623,-0.0678 -2.98878,-1.19457 -1.1875,-2.46875 0.69564,-0.49204 2.31162,-1.85896 3.5625,-3.09375 1.82126,-1.79748 3.01913,-2.64542 4.3125,-2.625 z m -8.03125,9.40625 c 1.42537,0.0114 3.33423,0.34368 5.625,0.9375 3.24377,0.8407 3.83839,0.86813 8,0.375 2.47362,-0.29329 4.84155,-0.42626 5.21875,-0.28125 1.5257,0.58562 0.15906,4.16695 -2.5625,6.78125 -0.85839,0.8245 -1.5625,1.70505 -1.5625,1.96875 0,0.751 -3.26114,4.00735 -4.8125,4.78125 -0.76986,0.3841 -1.74743,0.6875 -2.15625,0.6875 -0.93789,0 -3.66115,-2.1451 -5.15625,-4.0625 -1.55664,-1.9964 -4.75294,-6.04427 -5.28125,-6.6875 -0.56175,-0.68419 -0.53955,-2.55851 0.0312,-3.625 0.30661,-0.57253 1.23091,-0.88653 2.65625,-0.875 z" />
  </g>
</svg>
