<?xml version="1.0" encoding="UTF-8" standalone="no"?>
<!-- Created with Inkscape (http://www.inkscape.org/) -->

<svg
   xmlns:dc="http://purl.org/dc/elements/1.1/"
   xmlns:cc="http://creativecommons.org/ns#"
   xmlns:rdf="http://www.w3.org/1999/02/22-rdf-syntax-ns#"
   xmlns:svg="http://www.w3.org/2000/svg"
   xmlns="http://www.w3.org/2000/svg"
   xmlns:sodipodi="http://sodipodi.sourceforge.net/DTD/sodipodi-0.dtd"
   xmlns:inkscape="http://www.inkscape.org/namespaces/inkscape"
   width="900"
   height="800"
   id="svg2"
   version="1.1"
   inkscape:version="0.48.2 r9819"
   sodipodi:docname="f25.svg">
  <defs
     id="defs4" />
  <sodipodi:namedview
     id="base"
     pagecolor="#ffffff"
     bordercolor="#666666"
     borderopacity="1.0"
     inkscape:pageopacity="0.0"
     inkscape:pageshadow="2"
     inkscape:zoom="1.4142136"
     inkscape:cx="646.75406"
     inkscape:cy="207.99339"
     inkscape:document-units="px"
     inkscape:current-layer="layer1"
     showgrid="false"
     showguides="true"
     inkscape:guide-bbox="true"
     inkscape:window-width="1366"
     inkscape:window-height="746"
     inkscape:window-x="-8"
     inkscape:window-y="-8"
     inkscape:window-maximized="1"
     width="0px"
     height="0px"
     fit-margin-top="0"
     fit-margin-left="0"
     fit-margin-right="0"
     fit-margin-bottom="0">
    <sodipodi:guide
       orientation="1,0"
       position="450,784"
       id="guide3178" />
    <sodipodi:guide
       orientation="0,1"
       position="-61,400"
       id="guide3180" />
  </sodipodi:namedview>
  <metadata
     id="metadata7">
    <rdf:RDF>
      <cc:Work
         rdf:about="">
        <dc:format>image/svg+xml</dc:format>
        <dc:type
           rdf:resource="http://purl.org/dc/dcmitype/StillImage" />
        <dc:title></dc:title>
      </cc:Work>
    </rdf:RDF>
  </metadata>
  <g
     inkscape:label="Layer 1"
     inkscape:groupmode="layer"
     id="layer1"
     transform="translate(0,-252.36218)">
    <path
       id="rect3212"
       transform="translate(0,252.36218)"
       style="fill:#ff0000"
       d="m 480.34375,609.75 c -2.84757,0 -3.61,0.51626 -11.03125,7.46875 -2.68719,2.51739 -4.59375,5.8046 -4.59375,7.9375 0,3.43167 5.62148,11.18548 11.71875,16.1875 1.91459,1.5708 1.89121,1.61085 4.0625,0.625 3.61749,-1.64273 4.13904,-2.06038 6.0625,-4.5625 1.0947,-1.42387 3.3678,-4.20842 5.03125,-6.1875 2.57255,-3.06063 3.03125,-3.89991 3.03125,-5.53125 0,-2.41881 -0.7678,-3.86565 -3.34375,-6.34375 -1.12461,-1.08188 -2.31191,-2.62592 -2.65625,-3.4375 -1.56396,-3.6851 -4.89314,-6.15625 -8.28125,-6.15625 z m -0.5625,2.15625 c 0.87728,0.0138 1.80409,0.35417 2.90625,1 1.2104,0.70945 2.52203,1.89175 2.9375,2.625 0.41543,0.73337 1.18899,2.03227 1.71875,2.84375 1.38502,2.12138 1.63812,2.70558 1.28125,3.0625 -0.48503,0.485 -11.14205,0.58289 -12.8125,0.125 -0.81144,-0.22238 -2.43572,-0.37522 -3.59375,-0.40625 -2.76535,-0.0766 -3.38001,-1.34084 -1.34375,-2.78125 0.78639,-0.55623 2.61718,-2.13538 4.03125,-3.53125 2.05886,-2.03196 3.4129,-2.96058 4.875,-2.9375 z m -9.09375,10.625 c 1.61131,0.0129 3.78539,0.39123 6.375,1.0625 3.66693,0.95038 4.32675,0.96374 9.03125,0.40625 2.79631,-0.33153 5.47985,-0.47644 5.90625,-0.3125 1.72475,0.66202 0.2016,4.73222 -2.875,7.6875 -0.97037,0.9321 -1.78125,1.92066 -1.78125,2.21875 0,0.84892 -3.68374,4.50009 -5.4375,5.375 -0.87026,0.43422 -1.97535,0.8125 -2.4375,0.8125 -1.06024,0 -4.12235,-2.42616 -5.8125,-4.59375 -1.75971,-2.25684 -5.40277,-6.86659 -6,-7.59375 -0.63503,-0.77346 -0.61397,-2.88813 0.0312,-4.09375 0.34662,-0.64721 1.38871,-0.98179 3,-0.96875 z" />
  </g>
</svg>
