<?xml version="1.0" encoding="UTF-8" standalone="no"?>
<!-- Created with Inkscape (http://www.inkscape.org/) -->

<svg
   xmlns:dc="http://purl.org/dc/elements/1.1/"
   xmlns:cc="http://creativecommons.org/ns#"
   xmlns:rdf="http://www.w3.org/1999/02/22-rdf-syntax-ns#"
   xmlns:svg="http://www.w3.org/2000/svg"
   xmlns="http://www.w3.org/2000/svg"
   xmlns:sodipodi="http://sodipodi.sourceforge.net/DTD/sodipodi-0.dtd"
   xmlns:inkscape="http://www.inkscape.org/namespaces/inkscape"
   width="800"
   height="700"
   id="svg2"
   version="1.1"
   inkscape:version="0.48.2 r9819"
   sodipodi:docname="m16-fill.svg">
  <defs
     id="defs4" />
  <sodipodi:namedview
     id="base"
     pagecolor="#ffffff"
     bordercolor="#666666"
     borderopacity="1.0"
     inkscape:pageopacity="0.0"
     inkscape:pageshadow="2"
     inkscape:zoom="2.5"
     inkscape:cx="645.80543"
     inkscape:cy="501.02228"
     inkscape:document-units="px"
     inkscape:current-layer="layer1"
     showgrid="false"
     showguides="true"
     inkscape:guide-bbox="true"
     inkscape:window-width="1024"
     inkscape:window-height="538"
     inkscape:window-x="-8"
     inkscape:window-y="-8"
     inkscape:window-maximized="1"
     width="0px"
     height="0px"
     fit-margin-top="0"
     fit-margin-left="0"
     fit-margin-right="0"
     fit-margin-bottom="0">
    <sodipodi:guide
       orientation="1,0"
       position="400.22244,349.31075"
       id="guide3178" />
    <sodipodi:guide
       orientation="0,1"
       position="400.22244,349.31075"
       id="guide3180" />
  </sodipodi:namedview>
  <metadata
     id="metadata7">
    <rdf:RDF>
      <cc:Work
         rdf:about="">
        <dc:format>image/svg+xml</dc:format>
        <dc:type
           rdf:resource="http://purl.org/dc/dcmitype/StillImage" />
        <dc:title />
      </cc:Work>
    </rdf:RDF>
  </metadata>
  <g
     inkscape:label="Layer 1"
     inkscape:groupmode="layer"
     id="layer1"
     transform="translate(0,-352.36218)">
    <path
       id="rect3970"
       transform="translate(0,352.36218)"
       style="fill:#00ff00"
       d="m 764.71875,151.59375 c -1.69918,0.026 -3.35877,1.22068 -7.21875,4.21875 -0.68722,0.53375 -1.84267,1.73693 -2.53125,2.6875 -1.18625,1.63754 -1.21875,1.94607 -1.21875,6.1875 0,3.71977 0.15191,5.01396 1.09375,7.65625 1.37574,3.85944 2.28494,5.87348 3.25,7.3125 0.4012,0.59817 0.84092,1.62324 1,2.28125 0.15909,0.65796 0.51527,1.21875 0.75,1.21875 0.23469,0 0.40625,0.33934 0.40625,0.78125 0,0.44194 0.36524,1.26074 0.84375,1.8125 0.47855,0.55171 0.90625,1.27148 0.90625,1.59375 0,0.32229 0.13307,0.59356 0.3125,0.59375 0.17944,1.8e-4 1.1127,0.68589 2.0625,1.53125 3.76148,3.34772 8.93199,3.59961 15.0625,0.75 4.07897,-1.89603 5.29461,-2.94475 7.84375,-6.8125 1.39434,-2.11567 1.6875,-2.94226 1.6875,-4.71875 0,-5.22233 -4.20903,-17.97793 -7.03125,-21.3125 -0.76827,-0.9077 -1.98283,-1.46951 -4.9375,-2.28125 -2.15339,-0.59161 -4.33851,-1.08975 -4.84375,-1.09375 -0.50525,-0.003 -2.23955,-0.60221 -3.875,-1.34375 -1.51069,-0.68501 -2.54299,-1.078 -3.5625,-1.0625 z m 5.09375,3.71875 c 0.2257,0 0.6726,0.39445 1.03125,0.90625 0.54427,0.77685 0.97437,0.91916 2.46875,0.71875 1.50743,-0.2022 1.77066,-0.14034 1.65625,0.46875 -0.0747,0.39773 -0.5771,0.89754 -1.09375,1.125 -1.13897,0.50143 -1.4375,1.89475 -1.4375,6.40625 0,3.80783 0.36021,4.31439 3.46875,4.9375 0.83739,0.16785 2.12267,0.90957 2.875,1.625 1.7321,1.64729 2.85363,1.46611 3.34375,-0.53125 0.20511,-0.83579 0.55583,-2.12597 0.75,-2.84375 l 0.34375,-1.28125 0.3125,1.46875 c 0.20013,0.88085 0.64376,1.53041 1.125,1.65625 0.54264,0.14197 0.84375,0.63953 0.84375,1.46875 0,0.67579 0.18662,1.34496 0.4375,1.5 0.31133,0.19253 0.28756,0.48455 -0.0625,0.90625 -0.2996,0.36101 -0.39414,1.23696 -0.25,2.125 0.13562,0.83539 0.13369,1.53125 0,1.53125 -0.13284,0 -0.93246,-0.5947 -1.75,-1.3125 -1.90924,-1.67633 -4.1585,-1.80396 -5.15625,-0.28125 -1.11325,1.69907 -1.27825,5.07144 -0.40625,7.84375 0.89397,2.83901 0.68758,3.41873 -0.625,1.75 -1.34127,-1.70507 -1.52018,-2.79424 -1.21875,-8.0625 0.25492,-4.45542 0.23331,-4.765 -0.65625,-5.59375 -1.61111,-1.50099 -4.6294,-0.88702 -6.25,1.25 -0.26082,0.34393 -1.71148,0.82117 -3.21875,1.09375 l -2.71875,0.53125 -0.6875,2.03125 c -0.83944,2.63017 -1.76954,2.76166 -1.65625,0.21875 0.0725,-1.62839 -0.0544,-1.87482 -0.9375,-2 -0.55152,-0.0782 -1.26935,0.0744 -1.59375,0.34375 -0.85118,0.70642 -1.21021,-0.14543 -0.46875,-1.125 0.34364,-0.45397 0.618,-1.47237 0.625,-2.25 0.0161,-1.66659 0.29881,-1.71277 1.65625,-0.4375 0.73127,0.687 1.69824,0.99945 3.5,1.125 2.36677,0.1649 2.56847,0.0957 3.84375,-1.28125 1.54153,-1.66422 3.21875,-6.01768 3.21875,-8.34375 0,-0.87013 -0.3966,-2.61629 -0.875,-3.875 -0.94462,-2.48529 -1.08219,-3.8125 -0.4375,-3.8125 z" />
  </g>
</svg>
