<?xml version="1.0" encoding="UTF-8" standalone="no"?>
<!-- Created with Inkscape (http://www.inkscape.org/) -->

<svg
   xmlns:dc="http://purl.org/dc/elements/1.1/"
   xmlns:cc="http://creativecommons.org/ns#"
   xmlns:rdf="http://www.w3.org/1999/02/22-rdf-syntax-ns#"
   xmlns:svg="http://www.w3.org/2000/svg"
   xmlns="http://www.w3.org/2000/svg"
   xmlns:sodipodi="http://sodipodi.sourceforge.net/DTD/sodipodi-0.dtd"
   xmlns:inkscape="http://www.inkscape.org/namespaces/inkscape"
   width="800"
   height="400"
   id="svg2"
   version="1.1"
   inkscape:version="0.48.2 r9819"
   sodipodi:docname="ml-fill.svg">
  <defs
     id="defs4" />
  <sodipodi:namedview
     id="base"
     pagecolor="#ffffff"
     bordercolor="#666666"
     borderopacity="1.0"
     inkscape:pageopacity="0.0"
     inkscape:pageshadow="2"
     inkscape:zoom="2"
     inkscape:cx="532.21429"
     inkscape:cy="181.11058"
     inkscape:document-units="px"
     inkscape:current-layer="layer1"
     showgrid="false"
     showguides="true"
     inkscape:guide-bbox="true"
     inkscape:window-width="1024"
     inkscape:window-height="538"
     inkscape:window-x="-8"
     inkscape:window-y="-8"
     inkscape:window-maximized="1"
     width="0px"
     height="0px"
     fit-margin-top="0"
     fit-margin-left="0"
     fit-margin-right="0"
     fit-margin-bottom="0">
    <sodipodi:guide
       orientation="1,0"
       position="400.22244,349.31075"
       id="guide3178" />
  </sodipodi:namedview>
  <metadata
     id="metadata7">
    <rdf:RDF>
      <cc:Work
         rdf:about="">
        <dc:format>image/svg+xml</dc:format>
        <dc:type
           rdf:resource="http://purl.org/dc/dcmitype/StillImage" />
        <dc:title />
        <cc:license
           rdf:resource="" />
      </cc:Work>
    </rdf:RDF>
  </metadata>
  <g
     inkscape:label="Layer 1"
     inkscape:groupmode="layer"
     id="layer1"
     transform="translate(0,-652.36218)">
    <path
       id="rect4220"
       transform="translate(0,652.36218)"
       style="fill:#00ff00"
       d="m 551.1875,231.9375 c -6.94213,-0.14498 -19.96898,3.62425 -22.65625,6.96875 -3.91329,4.87039 -5.1875,8.72331 -5.1875,15.6875 0,8.56718 2.29677,12.32493 8.8125,14.4375 2.4778,0.80337 4.5556,1.51635 4.625,1.59375 0.0694,0.0774 1.72635,-0.50613 3.65625,-1.3125 1.92991,-0.80636 4.16567,-2.41596 4.96875,-3.5625 1.4163,-2.02205 1.46249,-2.00933 2.4375,-0.1875 0.55286,1.03303 2.47961,2.66592 4.28125,3.625 2.98065,1.58669 3.60315,1.59473 6.78125,0.25 8.64099,-3.65622 11.66511,-10.34104 9.8125,-21.71875 -1.44165,-8.85388 -4.77299,-14.4295 -8.625,-14.4375 -1.48508,-0.003 -4.33698,-0.4739 -6.34375,-1.03125 -0.69519,-0.19308 -1.57077,-0.2918 -2.5625,-0.3125 z m 10.03125,10.21875 c 1.48417,0 0.36227,2.04398 -2.9375,5.34375 -1.95419,1.95419 -3.94895,3.53125 -4.4375,3.53125 -1.4076,0 -1.10258,0.66561 2,4.0625 2.46105,2.69451 3.17289,2.98171 4.46875,1.90625 1.27755,-1.06028 1.53125,-0.99164 1.53125,0.34375 0,0.88071 -0.48308,1.59375 -1.0625,1.59375 -0.60433,0 -0.7969,0.8364 -0.4375,1.96875 0.93007,2.93041 0.10009,2.47506 -5.28125,-2.90625 -2.68508,-2.68507 -5.09474,-5.44862 -5.34375,-6.15625 -0.35713,-1.01483 -1.02949,-0.94146 -3.28125,0.34375 -5.77148,3.29407 -10.96198,2.09288 -12.96875,-2.96875 -0.90849,-2.29147 -1.06495,-2.36109 -1.15625,-0.5625 -0.0577,1.13724 -0.97244,2.88851 -2.0625,3.875 -1.86478,1.68759 -1.908,1.89654 -0.34375,3.625 1.21362,1.34103 1.38984,2.14141 0.59375,2.9375 -0.7961,0.7961 -1.77236,0.34278 -3.625,-1.65625 -3.1063,-3.35174 -3.17204,-4.04182 -0.34375,-5.53125 2.90297,-1.52875 3.6691,-2.77567 3.6875,-6 0.0214,-3.7713 1.66998,-4.28548 3.34375,-1.0625 0.78446,1.51054 2.83982,3.79435 4.5625,5.0625 2.87776,2.11845 3.2544,2.1571 4.84375,0.71875 0.99703,-0.9023 3.47253,-1.5625 5.84375,-1.5625 3.31549,0 4.8561,-0.65363 7.9375,-3.4375 2.10297,-1.8999 4.12742,-3.46875 4.46875,-3.46875 z" />
  </g>
</svg>
