<?xml version="1.0" encoding="UTF-8" standalone="no"?>
<!-- Created with Inkscape (http://www.inkscape.org/) -->

<svg
   xmlns:dc="http://purl.org/dc/elements/1.1/"
   xmlns:cc="http://creativecommons.org/ns#"
   xmlns:rdf="http://www.w3.org/1999/02/22-rdf-syntax-ns#"
   xmlns:svg="http://www.w3.org/2000/svg"
   xmlns="http://www.w3.org/2000/svg"
   xmlns:sodipodi="http://sodipodi.sourceforge.net/DTD/sodipodi-0.dtd"
   xmlns:inkscape="http://www.inkscape.org/namespaces/inkscape"
   width="800"
   height="700"
   id="svg2"
   version="1.1"
   inkscape:version="0.48.2 r9819"
   sodipodi:docname="m27.svg">
  <defs
     id="defs4" />
  <sodipodi:namedview
     id="base"
     pagecolor="#ffffff"
     bordercolor="#666666"
     borderopacity="1.0"
     inkscape:pageopacity="0.0"
     inkscape:pageshadow="2"
     inkscape:zoom="3.535534"
     inkscape:cx="566.26348"
     inkscape:cy="119.99858"
     inkscape:document-units="px"
     inkscape:current-layer="layer1"
     showgrid="false"
     showguides="true"
     inkscape:guide-bbox="true"
     inkscape:window-width="1366"
     inkscape:window-height="746"
     inkscape:window-x="-8"
     inkscape:window-y="-8"
     inkscape:window-maximized="1"
     width="0px"
     height="0px"
     fit-margin-top="0"
     fit-margin-left="0"
     fit-margin-right="0"
     fit-margin-bottom="0">
    <sodipodi:guide
       orientation="1,0"
       position="400.22244,349.31075"
       id="guide3178" />
    <sodipodi:guide
       orientation="0,1"
       position="400.22244,349.31075"
       id="guide3180" />
  </sodipodi:namedview>
  <metadata
     id="metadata7">
    <rdf:RDF>
      <cc:Work
         rdf:about="">
        <dc:format>image/svg+xml</dc:format>
        <dc:type
           rdf:resource="http://purl.org/dc/dcmitype/StillImage" />
        <dc:title></dc:title>
      </cc:Work>
    </rdf:RDF>
  </metadata>
  <g
     inkscape:label="Layer 1"
     inkscape:groupmode="layer"
     id="layer1"
     transform="translate(0,-352.36218)">
    <path
       style="fill:#ff0000"
       d="m 524.09375,882.20593 c 0.95716,-0.0527 2.01158,0.15976 3.125,0.625 2.12691,0.88867 3.07425,1.78184 4.0625,3.875 0.45187,0.95702 1.40734,2.44373 2.125,3.28125 0.71765,0.83744 1.3125,1.68822 1.3125,1.875 5.4e-4,0.18677 0.70526,0.89987 1.53125,1.625 0.82592,0.72516 1.57535,1.65866 1.6875,2.0625 0.11212,0.40395 0.34612,1.15199 0.5,1.6875 0.29888,1.04038 0.34587,0.98138 -4.84375,5.65625 -4.37831,3.94393 -9.94664,5.33535 -14.71875,3.65625 -1.42737,-0.50213 -2.98121,-0.90625 -3.4375,-0.90625 -0.70365,0 -0.72949,0.10989 -0.25,0.6875 1.33261,1.60578 3.1352,2.06375 7.8125,2.03125 5.05074,-0.035 7.10155,-0.57277 10.28125,-2.71875 l 1.96875,-1.3125 -0.3125,1.375 c -0.16762,0.76326 -0.47899,1.61587 -0.6875,1.875 -0.20852,0.25933 -1.0228,1.33375 -1.8125,2.40625 -0.92084,1.2507 -2.28863,2.3575 -3.8125,3.125 -1.69696,0.8544 -3.00905,1.2102 -4.5625,1.1875 -7.11764,-0.1033 -11.58665,-4.12701 -11.59375,-10.4375 -0.004,-2.52785 0.26884,-3.40554 2.0625,-7.1875 1.1222,-2.36618 2.40567,-5.43917 2.875,-6.84375 1.65597,-4.9558 3.81599,-7.46664 6.6875,-7.625 z"
       id="path3413" />
    <path
       style="fill:#ff0000"
       d="m 527.3125,887.83093 c -0.11023,0.007 -0.18211,0.0571 -0.25,0.125 -0.1567,0.1566 0.59597,1.10514 1.6875,2.125 1.61273,1.50731 2.04045,2.25113 2.28125,3.875 0.62064,4.18507 -0.0549,4.84919 -6.375,6.25 -5.40757,1.1985 -6.19922,-0.0351 -4.3125,-6.84375 0.57439,-2.07262 0.75499,-3.245 0.46875,-3.53125 -0.70389,-0.70382 -1.21083,0.13676 -1.96875,3.40625 -1.42294,6.13798 -1.23701,8.21618 0.75,8.625 1.36407,0.28087 5.97578,-0.15531 7.3125,-0.6875 0.59816,-0.23779 2.02725,-0.63118 3.21875,-0.90625 1.5826,-0.36573 2.35104,-0.80528 2.75,-1.59375 0.78778,-1.55689 0.67714,-3.76513 -0.25,-5.125 -0.44189,-0.64832 -1.27639,-1.94919 -1.875,-2.90625 -0.94771,-1.51501 -2.66608,-2.86551 -3.4375,-2.8125 z"
       id="rect3334" />
  </g>
</svg>
