<?xml version="1.0" encoding="UTF-8" standalone="no"?>
<!-- Created with Inkscape (http://www.inkscape.org/) -->

<svg
   xmlns:dc="http://purl.org/dc/elements/1.1/"
   xmlns:cc="http://creativecommons.org/ns#"
   xmlns:rdf="http://www.w3.org/1999/02/22-rdf-syntax-ns#"
   xmlns:svg="http://www.w3.org/2000/svg"
   xmlns="http://www.w3.org/2000/svg"
   xmlns:sodipodi="http://sodipodi.sourceforge.net/DTD/sodipodi-0.dtd"
   xmlns:inkscape="http://www.inkscape.org/namespaces/inkscape"
   width="800"
   height="700"
   id="svg2"
   version="1.1"
   inkscape:version="0.48.2 r9819"
   sodipodi:docname="m27-fill.svg">
  <defs
     id="defs4" />
  <sodipodi:namedview
     id="base"
     pagecolor="#ffffff"
     bordercolor="#666666"
     borderopacity="1.0"
     inkscape:pageopacity="0.0"
     inkscape:pageshadow="2"
     inkscape:zoom="3.535534"
     inkscape:cx="566.26348"
     inkscape:cy="153.9397"
     inkscape:document-units="px"
     inkscape:current-layer="layer1"
     showgrid="false"
     showguides="true"
     inkscape:guide-bbox="true"
     inkscape:window-width="1024"
     inkscape:window-height="538"
     inkscape:window-x="-8"
     inkscape:window-y="-8"
     inkscape:window-maximized="1"
     width="0px"
     height="0px"
     fit-margin-top="0"
     fit-margin-left="0"
     fit-margin-right="0"
     fit-margin-bottom="0">
    <sodipodi:guide
       orientation="1,0"
       position="400.22244,349.31075"
       id="guide3178" />
    <sodipodi:guide
       orientation="0,1"
       position="400.22244,349.31075"
       id="guide3180" />
  </sodipodi:namedview>
  <metadata
     id="metadata7">
    <rdf:RDF>
      <cc:Work
         rdf:about="">
        <dc:format>image/svg+xml</dc:format>
        <dc:type
           rdf:resource="http://purl.org/dc/dcmitype/StillImage" />
        <dc:title />
      </cc:Work>
    </rdf:RDF>
  </metadata>
  <g
     inkscape:label="Layer 1"
     inkscape:groupmode="layer"
     id="layer1"
     transform="translate(0,-352.36218)">
    <path
       id="rect4511"
       transform="translate(0,352.36218)"
       style="fill:#00ff00"
       d="m 524.09375,529.84375 c -2.87151,0.15836 -5.03153,2.6692 -6.6875,7.625 -0.46933,1.40458 -1.7528,4.47757 -2.875,6.84375 -1.79366,3.78196 -2.0665,4.65965 -2.0625,7.1875 0.007,6.31049 4.47611,10.3342 11.59375,10.4375 1.55345,0.0227 2.86554,-0.3331 4.5625,-1.1875 1.52387,-0.7675 2.89166,-1.8743 3.8125,-3.125 0.7897,-1.0725 1.60398,-2.14692 1.8125,-2.40625 0.20851,-0.25913 0.51988,-1.11174 0.6875,-1.875 l 0.3125,-1.375 -1.96875,1.3125 C 530.10155,555.42723 528.05074,555.965 523,556 c -4.6773,0.0325 -6.47989,-0.42547 -7.8125,-2.03125 -0.47949,-0.57761 -0.45365,-0.6875 0.25,-0.6875 0.45629,0 2.01013,0.40412 3.4375,0.90625 4.77211,1.6791 10.34044,0.28768 14.71875,-3.65625 5.18962,-4.67487 5.14263,-4.61587 4.84375,-5.65625 -0.15388,-0.53551 -0.38788,-1.28355 -0.5,-1.6875 -0.11215,-0.40384 -0.86158,-1.33734 -1.6875,-2.0625 -0.82599,-0.72513 -1.53071,-1.43823 -1.53125,-1.625 0,-0.18678 -0.59485,-1.03756 -1.3125,-1.875 -0.71766,-0.83752 -1.67313,-2.32423 -2.125,-3.28125 -0.98825,-2.09316 -1.93559,-2.98633 -4.0625,-3.875 -1.11342,-0.46524 -2.16784,-0.6777 -3.125,-0.625 z m 3.21875,5.625 c 0.77142,-0.053 2.48979,1.29749 3.4375,2.8125 0.59861,0.95706 1.43311,2.25793 1.875,2.90625 0.92714,1.35987 1.03778,3.56811 0.25,5.125 -0.39896,0.78847 -1.1674,1.22802 -2.75,1.59375 -1.1915,0.27507 -2.62059,0.66846 -3.21875,0.90625 -1.33672,0.53219 -5.94843,0.96837 -7.3125,0.6875 -1.98701,-0.40882 -2.17294,-2.48702 -0.75,-8.625 0.75792,-3.26949 1.26486,-4.11007 1.96875,-3.40625 0.28624,0.28625 0.10564,1.45863 -0.46875,3.53125 -1.88672,6.80865 -1.09507,8.04225 4.3125,6.84375 6.3201,-1.40081 6.99564,-2.06493 6.375,-6.25 -0.2408,-1.62387 -0.66852,-2.36769 -2.28125,-3.875 -1.09153,-1.01986 -1.8442,-1.9684 -1.6875,-2.125 0.0679,-0.0679 0.13977,-0.118 0.25,-0.125 z" />
  </g>
</svg>
