<?xml version="1.0" encoding="UTF-8" standalone="no"?>
<!-- Created with Inkscape (http://www.inkscape.org/) -->

<svg
   xmlns:dc="http://purl.org/dc/elements/1.1/"
   xmlns:cc="http://creativecommons.org/ns#"
   xmlns:rdf="http://www.w3.org/1999/02/22-rdf-syntax-ns#"
   xmlns:svg="http://www.w3.org/2000/svg"
   xmlns="http://www.w3.org/2000/svg"
   xmlns:sodipodi="http://sodipodi.sourceforge.net/DTD/sodipodi-0.dtd"
   xmlns:inkscape="http://www.inkscape.org/namespaces/inkscape"
   width="800"
   height="400"
   id="svg2"
   version="1.1"
   inkscape:version="0.48.2 r9819"
   sodipodi:docname="mr.svg">
  <defs
     id="defs4" />
  <sodipodi:namedview
     id="base"
     pagecolor="#ffffff"
     bordercolor="#666666"
     borderopacity="1.0"
     inkscape:pageopacity="0.0"
     inkscape:pageshadow="2"
     inkscape:zoom="2.8284271"
     inkscape:cx="245.1674"
     inkscape:cy="86.723211"
     inkscape:document-units="px"
     inkscape:current-layer="layer1"
     showgrid="false"
     showguides="true"
     inkscape:guide-bbox="true"
     inkscape:window-width="1366"
     inkscape:window-height="746"
     inkscape:window-x="-8"
     inkscape:window-y="-8"
     inkscape:window-maximized="1"
     width="0px"
     height="0px"
     fit-margin-top="0"
     fit-margin-left="0"
     fit-margin-right="0"
     fit-margin-bottom="0">
    <sodipodi:guide
       orientation="1,0"
       position="400.22244,349.31075"
       id="guide3178" />
  </sodipodi:namedview>
  <metadata
     id="metadata7">
    <rdf:RDF>
      <cc:Work
         rdf:about="">
        <dc:format>image/svg+xml</dc:format>
        <dc:type
           rdf:resource="http://purl.org/dc/dcmitype/StillImage" />
        <dc:title></dc:title>
        <cc:license
           rdf:resource="" />
      </cc:Work>
    </rdf:RDF>
  </metadata>
  <g
     inkscape:label="Layer 1"
     inkscape:groupmode="layer"
     id="layer1"
     transform="translate(0,-652.36218)">
    <path
       id="rect3132"
       transform="translate(0,652.36218)"
       style="fill:#ff0000"
       d="m 317.46875,287.5625 c -2.743,-0.0124 -10.63171,5.32795 -12.8125,8.65625 -4.22981,6.4555 -3.61538,15.23154 1.71875,24.09375 2.92806,4.86471 3.1551,5.92066 3.25,14.625 0.11884,10.90344 1.7437,25.12865 4.5,39.59375 1.072,5.6258 1.9375,11.27315 1.9375,12.53125 0,1.2582 0.5063,3.18365 1.09375,4.28125 0.82678,1.5449 1.64924,1.84315 3.6875,1.34375 4.80604,-1.1774 5.17332,-2.2758 6.15625,-18.875 0.51131,-8.6346 1.36316,-20.05615 1.90625,-25.40625 0.5431,-5.35016 1,-13.57808 1,-18.28125 0,-5.65574 0.69965,-11.05482 2.0625,-15.9375 2.27522,-8.1515 2.08938,-14.26687 -0.5,-18.21875 -1.90148,-2.90202 -11.04475,-8.39295 -14,-8.40625 z M 317,289.40625 322.21875,293.25 c 2.86784,2.10126 5.97449,5.34814 6.90625,7.21875 1.61432,3.24091 1.59246,3.7644 -0.25,11.28125 -1.06345,4.33862 -2.16572,8.8344 -2.4375,10 -0.27178,1.1656 -1.97712,3.01086 -3.8125,4.09375 l -3.34375,1.96875 -3.8125,-2.125 c -2.0935,-1.17432 -4.24665,-3.01957 -4.8125,-4.09375 -0.56587,-1.07417 -1.68336,-3.08042 -2.46875,-4.4375 -2.22108,-3.83786 -3.9212,-9.07507 -3.9375,-12.15625 -0.0114,-2.14554 1.49393,-4.30642 6.375,-9.1875 L 317,289.40625 z m 10.1875,37.65625 -0.5625,14.0625 c -0.82955,21.01117 -2.54542,42.23985 -3.71875,45.84375 -1.08637,3.3367 -2.42345,4.7882 -3.21875,3.5 -1.1559,-1.8723 -7.7807,-45.27986 -7.875,-51.59375 -0.0284,-1.89991 0.27471,-5.04245 0.65625,-7 l 0.6875,-3.5625 3.75,1 c 2.99584,0.79963 4.43501,0.67018 7.03125,-0.625 l 3.25,-1.625 z" />
  </g>
</svg>
