<?xml version="1.0" encoding="UTF-8" standalone="no"?>
<!-- Created with Inkscape (http://www.inkscape.org/) -->

<svg
   xmlns:dc="http://purl.org/dc/elements/1.1/"
   xmlns:cc="http://creativecommons.org/ns#"
   xmlns:rdf="http://www.w3.org/1999/02/22-rdf-syntax-ns#"
   xmlns:svg="http://www.w3.org/2000/svg"
   xmlns="http://www.w3.org/2000/svg"
   xmlns:sodipodi="http://sodipodi.sourceforge.net/DTD/sodipodi-0.dtd"
   xmlns:inkscape="http://www.inkscape.org/namespaces/inkscape"
   width="800"
   height="400"
   id="svg2"
   version="1.1"
   inkscape:version="0.48.2 r9819"
   sodipodi:docname="mj.svg">
  <defs
     id="defs4" />
  <sodipodi:namedview
     id="base"
     pagecolor="#ffffff"
     bordercolor="#666666"
     borderopacity="1.0"
     inkscape:pageopacity="0.0"
     inkscape:pageshadow="2"
     inkscape:zoom="4"
     inkscape:cx="536.1302"
     inkscape:cy="235.75712"
     inkscape:document-units="px"
     inkscape:current-layer="layer1"
     showgrid="false"
     showguides="true"
     inkscape:guide-bbox="true"
     inkscape:window-width="1366"
     inkscape:window-height="746"
     inkscape:window-x="-8"
     inkscape:window-y="-8"
     inkscape:window-maximized="1"
     width="0px"
     height="0px"
     fit-margin-top="0"
     fit-margin-left="0"
     fit-margin-right="0"
     fit-margin-bottom="0">
    <sodipodi:guide
       orientation="1,0"
       position="400.22244,349.31075"
       id="guide3178" />
  </sodipodi:namedview>
  <metadata
     id="metadata7">
    <rdf:RDF>
      <cc:Work
         rdf:about="">
        <dc:format>image/svg+xml</dc:format>
        <dc:type
           rdf:resource="http://purl.org/dc/dcmitype/StillImage" />
        <dc:title></dc:title>
        <cc:license
           rdf:resource="" />
      </cc:Work>
    </rdf:RDF>
  </metadata>
  <g
     inkscape:label="Layer 1"
     inkscape:groupmode="layer"
     id="layer1"
     transform="translate(0,-652.36218)">
    <path
       style="fill:#ff0000"
       d="m 598.625,785.01843 c 1.29945,0.0316 2.55663,0.33063 3.90625,0.84375 1.28935,0.49022 6.47941,1.38577 11.53125,2 9.85274,1.19798 13.06315,2.40085 16.6875,6.28125 2.19846,2.35375 2.28304,3.02478 1.96875,14.65625 -0.25304,9.36481 -0.72732,13.03335 -2.125,15.84375 -1.91373,3.84806 -8.89649,8.99611 -13.84375,10.21875 -2.617,0.64676 -2.79625,0.52671 -2.1875,-1.65625 1.03748,-3.7203 5.71711,-15.00562 7.03125,-16.96875 1.12114,-1.67479 1.32301,-1.6203 3.1875,0.75 1.09139,1.38748 2.46209,2.53125 3.0625,2.53125 1.48087,0 1.40903,-0.38472 -0.9375,-4.5625 -1.43404,-2.5532 -1.70699,-3.91801 -0.96875,-4.65625 0.57593,-0.57593 1.03125,-2.03352 1.03125,-3.25 0,-1.21647 0.45716,-2.50826 1,-2.84375 0.54283,-0.33549 0.96875,-1.47684 0.96875,-2.5625 0,-1.08566 -0.45316,-1.71297 -1,-1.375 -1.47742,0.9131 -4.9254,8.4394 -4.9375,10.78125 -0.009,1.65638 -0.79366,1.15906 -4.3125,-2.65625 -3.25304,-3.52711 -5.0591,-4.6875 -7.21875,-4.6875 -5.31033,0 -6.58409,-3.19868 -3.1875,-7.96875 1.86846,-2.62392 1.89726,-4.84375 0.0625,-4.84375 -1.22695,0 -4.0625,6.76796 -4.0625,9.6875 0,1.97061 -0.81568,3.1969 -2.96875,4.46875 -1.63127,0.96362 -3.66694,3.10984 -4.53125,4.78125 -1.32871,2.56944 -1.40021,3.44581 -0.3125,5.625 l 1.3125,2.5625 0.34375,-2.9375 c 0.53617,-4.35612 5.76147,-9.375 9.75,-9.375 4.48391,0 7.40151,1.58409 9.84375,5.375 l 2.09375,3.25 -3.25,6.65625 c -1.77814,3.66168 -3.49885,8.54382 -3.84375,10.84375 -0.47613,3.17509 -1.21494,4.45645 -3.09375,5.3125 -3.10851,1.41632 -4.11189,1.37867 -8,-0.3125 -2.67902,-1.16529 -3.22625,-2.02806 -3.8125,-5.9375 -0.86423,-5.76309 -3.85142,-8.15835 -8.25,-6.625 -2.63583,0.91887 -2.96701,0.77482 -3.90625,-1.625 -3.35191,-8.56425 -3.93134,-22.72389 -1.1875,-29.125 1.56254,-3.64526 2.73231,-4.81954 6.53125,-6.5 3.16244,-1.3989 5.45925,-2.05272 7.625,-2 z"
       id="path3595" />
    <path
       style="fill:#ff0000"
       d="m 586.6875,795.76843 c -0.1108,0.0635 -0.1622,0.2663 -0.15625,0.59375 0.0192,1.05903 0.64317,3.02253 1.375,4.34375 1.19005,2.14844 1.10209,2.58259 -0.78125,4.15625 -1.54453,1.29055 -1.71085,1.742 -0.625,1.75 0.81425,0.006 2.44061,-0.74961 3.59375,-1.6875 l 2.09375,-1.6875 -2.84375,-4.40625 c -1.44731,-2.24119 -2.32386,-3.2531 -2.65625,-3.0625 z"
       id="path3593" />
    <path
       style="fill:#ff0000"
       d="m 591.4375,825.76843 c 2.11114,-0.11891 3.9375,3.1168 3.9375,7.125 0,3.06001 -0.70046,2.98767 -4.6875,-0.34375 -2.88657,-2.41189 -4.37811,-6.12155 -2.46875,-6.15625 0.40712,-0.007 1.66351,-0.23103 2.78125,-0.53125 0.14262,-0.0383 0.29676,-0.0858 0.4375,-0.0937 z"
       id="rect3101" />
  </g>
</svg>
