<?xml version="1.0" encoding="UTF-8" standalone="no"?>
<!-- Created with Inkscape (http://www.inkscape.org/) -->

<svg
   xmlns:dc="http://purl.org/dc/elements/1.1/"
   xmlns:cc="http://creativecommons.org/ns#"
   xmlns:rdf="http://www.w3.org/1999/02/22-rdf-syntax-ns#"
   xmlns:svg="http://www.w3.org/2000/svg"
   xmlns="http://www.w3.org/2000/svg"
   xmlns:sodipodi="http://sodipodi.sourceforge.net/DTD/sodipodi-0.dtd"
   xmlns:inkscape="http://www.inkscape.org/namespaces/inkscape"
   width="800"
   height="400"
   id="svg2"
   version="1.1"
   inkscape:version="0.48.2 r9819"
   sodipodi:docname="mj-fill.svg">
  <defs
     id="defs4" />
  <sodipodi:namedview
     id="base"
     pagecolor="#ffffff"
     bordercolor="#666666"
     borderopacity="1.0"
     inkscape:pageopacity="0.0"
     inkscape:pageshadow="2"
     inkscape:zoom="4"
     inkscape:cx="650.2749"
     inkscape:cy="251.47631"
     inkscape:document-units="px"
     inkscape:current-layer="layer1"
     showgrid="false"
     showguides="true"
     inkscape:guide-bbox="true"
     inkscape:window-width="1024"
     inkscape:window-height="538"
     inkscape:window-x="-8"
     inkscape:window-y="-8"
     inkscape:window-maximized="1"
     width="0px"
     height="0px"
     fit-margin-top="0"
     fit-margin-left="0"
     fit-margin-right="0"
     fit-margin-bottom="0">
    <sodipodi:guide
       orientation="1,0"
       position="400.22244,349.31075"
       id="guide3178" />
  </sodipodi:namedview>
  <metadata
     id="metadata7">
    <rdf:RDF>
      <cc:Work
         rdf:about="">
        <dc:format>image/svg+xml</dc:format>
        <dc:type
           rdf:resource="http://purl.org/dc/dcmitype/StillImage" />
        <dc:title />
        <cc:license
           rdf:resource="" />
      </cc:Work>
    </rdf:RDF>
  </metadata>
  <g
     inkscape:label="Layer 1"
     inkscape:groupmode="layer"
     id="layer1"
     transform="translate(0,-652.36218)">
    <path
       id="rect4133"
       transform="translate(0,652.36218)"
       style="fill:#00ff00"
       d="m 597.8125,132.65625 c -1.93374,0.10895 -4.04537,0.77596 -6.8125,2 -3.79894,1.68046 -4.96871,2.85474 -6.53125,6.5 -2.74384,6.40111 -2.16441,20.56075 1.1875,29.125 0.93924,2.39982 1.27042,2.54387 3.90625,1.625 4.39858,-1.53335 7.38577,0.86191 8.25,6.625 0.58625,3.90944 1.13348,4.77221 3.8125,5.9375 3.88811,1.69117 4.89149,1.72882 8,0.3125 1.87881,-0.85605 2.61762,-2.13741 3.09375,-5.3125 0.3449,-2.29993 2.06561,-7.18207 3.84375,-10.84375 l 3.25,-6.65625 -2.09375,-3.25 c -2.44224,-3.79091 -5.35984,-5.375 -9.84375,-5.375 -3.98853,0 -9.21383,5.01888 -9.75,9.375 l -0.34375,2.9375 -1.3125,-2.5625 c -1.08771,-2.17919 -1.01621,-3.05556 0.3125,-5.625 0.86431,-1.67141 2.89998,-3.81763 4.53125,-4.78125 2.15307,-1.27185 2.96875,-2.49814 2.96875,-4.46875 0,-2.91954 2.83555,-9.6875 4.0625,-9.6875 1.83476,0 1.80596,2.21983 -0.0625,4.84375 -3.39659,4.77007 -2.12283,7.96875 3.1875,7.96875 2.15965,0 3.96571,1.16039 7.21875,4.6875 3.51884,3.81531 4.3035,4.31263 4.3125,2.65625 0.0121,-2.34185 3.46008,-9.86815 4.9375,-10.78125 0.54684,-0.33797 1,0.28934 1,1.375 0,1.08566 -0.42592,2.22701 -0.96875,2.5625 -0.54284,0.33549 -1,1.62728 -1,2.84375 0,1.21648 -0.45532,2.67407 -1.03125,3.25 -0.73824,0.73824 -0.46529,2.10305 0.96875,4.65625 2.34653,4.17778 2.41837,4.5625 0.9375,4.5625 -0.60041,0 -1.97111,-1.14377 -3.0625,-2.53125 -1.86449,-2.3703 -2.06636,-2.42479 -3.1875,-0.75 -1.31414,1.96313 -5.99377,13.24845 -7.03125,16.96875 -0.60875,2.18296 -0.4295,2.30301 2.1875,1.65625 4.94726,-1.22264 11.93002,-6.37069 13.84375,-10.21875 1.39768,-2.8104 1.87196,-6.47894 2.125,-15.84375 0.31429,-11.63147 0.22971,-12.3025 -1.96875,-14.65625 -3.62435,-3.8804 -6.83476,-5.08327 -16.6875,-6.28125 -5.05184,-0.61423 -10.2419,-1.50978 -11.53125,-2 -1.34962,-0.51312 -2.6068,-0.81215 -3.90625,-0.84375 -0.27072,-0.007 -0.53625,-0.0156 -0.8125,0 z m -11.125,10.75 c 0.33239,-0.1906 1.20894,0.82131 2.65625,3.0625 l 2.84375,4.40625 -2.09375,1.6875 c -1.15314,0.93789 -2.7795,1.6935 -3.59375,1.6875 -1.08585,-0.008 -0.91953,-0.45945 0.625,-1.75 1.88334,-1.57366 1.9713,-2.00781 0.78125,-4.15625 -0.73183,-1.32122 -1.3558,-3.28472 -1.375,-4.34375 -0.006,-0.32745 0.0454,-0.53025 0.15625,-0.59375 z m 4.75,30 c -0.14074,0.008 -0.29488,0.0556 -0.4375,0.0937 -1.11774,0.30022 -2.37413,0.52425 -2.78125,0.53125 -1.90936,0.0347 -0.41782,3.74436 2.46875,6.15625 3.98704,3.33142 4.6875,3.40376 4.6875,0.34375 0,-4.0082 -1.82636,-7.24391 -3.9375,-7.125 z" />
  </g>
</svg>
