<?xml version="1.0" encoding="UTF-8" standalone="no"?>
<!-- Created with Inkscape (http://www.inkscape.org/) -->

<svg
   xmlns:dc="http://purl.org/dc/elements/1.1/"
   xmlns:cc="http://creativecommons.org/ns#"
   xmlns:rdf="http://www.w3.org/1999/02/22-rdf-syntax-ns#"
   xmlns:svg="http://www.w3.org/2000/svg"
   xmlns="http://www.w3.org/2000/svg"
   xmlns:sodipodi="http://sodipodi.sourceforge.net/DTD/sodipodi-0.dtd"
   xmlns:inkscape="http://www.inkscape.org/namespaces/inkscape"
   width="800"
   height="400"
   id="svg2"
   version="1.1"
   inkscape:version="0.48.2 r9819"
   sodipodi:docname="mj22-fill.svg">
  <defs
     id="defs4" />
  <sodipodi:namedview
     id="base"
     pagecolor="#ffffff"
     bordercolor="#666666"
     borderopacity="1.0"
     inkscape:pageopacity="0.0"
     inkscape:pageshadow="2"
     inkscape:zoom="5.6568542"
     inkscape:cx="601.93058"
     inkscape:cy="243.23385"
     inkscape:document-units="px"
     inkscape:current-layer="layer1"
     showgrid="false"
     showguides="true"
     inkscape:guide-bbox="true"
     inkscape:window-width="1366"
     inkscape:window-height="746"
     inkscape:window-x="-8"
     inkscape:window-y="-8"
     inkscape:window-maximized="1"
     width="0px"
     height="0px"
     fit-margin-top="0"
     fit-margin-left="0"
     fit-margin-right="0"
     fit-margin-bottom="0">
    <sodipodi:guide
       orientation="1,0"
       position="400.22244,349.31075"
       id="guide3178" />
  </sodipodi:namedview>
  <metadata
     id="metadata7">
    <rdf:RDF>
      <cc:Work
         rdf:about="">
        <dc:format>image/svg+xml</dc:format>
        <dc:type
           rdf:resource="http://purl.org/dc/dcmitype/StillImage" />
        <dc:title></dc:title>
        <cc:license
           rdf:resource="" />
      </cc:Work>
    </rdf:RDF>
  </metadata>
  <g
     inkscape:label="Layer 1"
     inkscape:groupmode="layer"
     id="layer1"
     transform="translate(0,-652.36218)">
    <path
       style="fill:#ffaaaa;fill-opacity:1;stroke:none"
       d="M 615.9375 149.71875 L 615.9375 153.34375 C 616.74579 154.0293 617.63876 154.89415 618.6875 156.03125 C 622.20634 159.84656 622.991 160.34388 623 158.6875 C 623.00901 156.94348 624.91287 152.3407 626.5 149.71875 L 615.9375 149.71875 z M 628.90625 149.71875 C 628.81189 150.6578 628.43854 151.5534 627.96875 151.84375 C 627.42591 152.17924 626.96875 153.47103 626.96875 154.6875 C 626.96875 155.90398 626.51343 157.36157 625.9375 157.9375 C 625.19926 158.67574 625.47221 160.04055 626.90625 162.59375 C 629.25278 166.77153 629.32462 167.15625 627.84375 167.15625 C 627.24334 167.15625 625.87264 166.01248 624.78125 164.625 C 622.91676 162.2547 622.71489 162.20021 621.59375 163.875 C 621.18697 164.48267 620.43762 166.10678 619.59375 168 L 631.90625 168 C 632.35053 165.44897 632.57 161.94249 632.71875 156.4375 C 632.79554 153.5957 632.83959 151.43643 632.84375 149.71875 L 628.90625 149.71875 z M 615.9375 156.46875 L 615.9375 168 L 616.875 168 L 619.8125 161.96875 L 617.71875 158.71875 C 617.15767 157.84782 616.56199 157.11427 615.9375 156.46875 z "
       transform="translate(0,652.36218)"
       id="rect4070-9-4-2" />
  </g>
</svg>
