<?xml version="1.0" encoding="UTF-8" standalone="no"?>
<!-- Created with Inkscape (http://www.inkscape.org/) -->

<svg
   xmlns:dc="http://purl.org/dc/elements/1.1/"
   xmlns:cc="http://creativecommons.org/ns#"
   xmlns:rdf="http://www.w3.org/1999/02/22-rdf-syntax-ns#"
   xmlns:svg="http://www.w3.org/2000/svg"
   xmlns="http://www.w3.org/2000/svg"
   xmlns:sodipodi="http://sodipodi.sourceforge.net/DTD/sodipodi-0.dtd"
   xmlns:inkscape="http://www.inkscape.org/namespaces/inkscape"
   width="800"
   height="400"
   id="svg2"
   version="1.1"
   inkscape:version="0.48.2 r9819"
   sodipodi:docname="mj23-fill.svg">
  <defs
     id="defs4" />
  <sodipodi:namedview
     id="base"
     pagecolor="#ffffff"
     bordercolor="#666666"
     borderopacity="1.0"
     inkscape:pageopacity="0.0"
     inkscape:pageshadow="2"
     inkscape:zoom="5.6568542"
     inkscape:cx="601.93058"
     inkscape:cy="243.23385"
     inkscape:document-units="px"
     inkscape:current-layer="layer1"
     showgrid="false"
     showguides="true"
     inkscape:guide-bbox="true"
     inkscape:window-width="1366"
     inkscape:window-height="746"
     inkscape:window-x="-8"
     inkscape:window-y="-8"
     inkscape:window-maximized="1"
     width="0px"
     height="0px"
     fit-margin-top="0"
     fit-margin-left="0"
     fit-margin-right="0"
     fit-margin-bottom="0">
    <sodipodi:guide
       orientation="1,0"
       position="400.22244,349.31075"
       id="guide3178" />
  </sodipodi:namedview>
  <metadata
     id="metadata7">
    <rdf:RDF>
      <cc:Work
         rdf:about="">
        <dc:format>image/svg+xml</dc:format>
        <dc:type
           rdf:resource="http://purl.org/dc/dcmitype/StillImage" />
        <dc:title></dc:title>
        <cc:license
           rdf:resource="" />
      </cc:Work>
    </rdf:RDF>
  </metadata>
  <g
     inkscape:label="Layer 1"
     inkscape:groupmode="layer"
     id="layer1"
     transform="translate(0,-652.36218)">
    <path
       style="fill:#d45500;fill-opacity:1;stroke:none"
       d="M 584.875 168.03125 C 585.11574 168.81594 585.37659 169.56671 585.65625 170.28125 C 586.59549 172.68107 586.92667 172.82512 589.5625 171.90625 C 593.96108 170.3729 596.94827 172.76816 597.8125 178.53125 C 597.86532 178.88347 597.91498 179.19479 597.96875 179.5 L 597.96875 168.03125 L 584.875 168.03125 z M 591.4375 173.40625 C 591.29676 173.41415 591.14262 173.4617 591 173.5 C 589.88226 173.80022 588.62587 174.02425 588.21875 174.03125 C 586.30939 174.06595 587.80093 177.77561 590.6875 180.1875 C 594.67454 183.51892 595.375 183.59126 595.375 180.53125 C 595.375 176.52305 593.54864 173.28734 591.4375 173.40625 z "
       transform="translate(0,652.36218)"
       id="rect4070" />
  </g>
</svg>
