<?xml version="1.0" encoding="UTF-8" standalone="no"?>
<!-- Created with Inkscape (http://www.inkscape.org/) -->

<svg
   xmlns:dc="http://purl.org/dc/elements/1.1/"
   xmlns:cc="http://creativecommons.org/ns#"
   xmlns:rdf="http://www.w3.org/1999/02/22-rdf-syntax-ns#"
   xmlns:svg="http://www.w3.org/2000/svg"
   xmlns="http://www.w3.org/2000/svg"
   xmlns:sodipodi="http://sodipodi.sourceforge.net/DTD/sodipodi-0.dtd"
   xmlns:inkscape="http://www.inkscape.org/namespaces/inkscape"
   width="800"
   height="400"
   id="svg2"
   version="1.1"
   inkscape:version="0.48.2 r9819"
   sodipodi:docname="fk.svg">
  <defs
     id="defs4" />
  <sodipodi:namedview
     id="base"
     pagecolor="#ffffff"
     bordercolor="#666666"
     borderopacity="1.0"
     inkscape:pageopacity="0.0"
     inkscape:pageshadow="2"
     inkscape:zoom="2.8284271"
     inkscape:cx="649.24113"
     inkscape:cy="51.895415"
     inkscape:document-units="px"
     inkscape:current-layer="layer1"
     showgrid="false"
     showguides="true"
     inkscape:guide-bbox="true"
     inkscape:window-width="1366"
     inkscape:window-height="746"
     inkscape:window-x="-8"
     inkscape:window-y="-8"
     inkscape:window-maximized="1"
     width="0px"
     height="0px"
     fit-margin-top="0"
     fit-margin-left="0"
     fit-margin-right="0"
     fit-margin-bottom="0">
    <sodipodi:guide
       orientation="1,0"
       position="400.22244,349.31075"
       id="guide3178" />
  </sodipodi:namedview>
  <metadata
     id="metadata7">
    <rdf:RDF>
      <cc:Work
         rdf:about="">
        <dc:format>image/svg+xml</dc:format>
        <dc:type
           rdf:resource="http://purl.org/dc/dcmitype/StillImage" />
        <dc:title></dc:title>
        <cc:license
           rdf:resource="" />
      </cc:Work>
    </rdf:RDF>
  </metadata>
  <g
     inkscape:label="Layer 1"
     inkscape:groupmode="layer"
     id="layer1"
     transform="translate(0,-652.36218)">
    <path
       id="rect3181"
       transform="translate(0,652.36218)"
       style="fill:#ff0000"
       d="m 598.34375,288.15625 c -5.01675,0.0858 -7.60842,0.67535 -10.15625,2.25 -6.35224,3.92589 -6.94012,8.99154 -2.625,23.125 l 2.375,7.75 -2.09375,5.59375 c -1.1402,3.07983 -2.53668,6.93401 -3.125,8.5625 -6.79699,18.81436 -7.56068,34.9017 -1.9375,40.9375 3.73888,4.0132 5.71477,1.8627 11.53125,-12.5 1.13991,-2.8148 2.09375,-5.59445 2.09375,-6.15625 0,-1.994 4.82452,-11.52776 6.59375,-13.03125 0.98848,-0.83998 3.47507,-2.4835 5.53125,-3.65625 l 3.75,-2.125 3.65625,2.34375 c 2.01505,1.28937 4.80696,3.60196 6.21875,5.15625 3.87952,4.2713 12.43263,19.1476 13.25,23.0625 1.01259,4.8499 2.22552,6.91675 4.71875,7.84375 2.95354,1.098 4.2678,0.4271 6.65625,-3.4375 2.11941,-3.4293 2.08654,-4.6068 -0.125,-15.25 -2.6817,-12.9058 -5.95146,-25.00584 -7.75,-28.53125 -2.83486,-5.55679 -2.58738,-7.81863 1.9375,-16.96875 1.69956,-3.43681 3.32536,-16.67268 2.375,-19.375 -1.29188,-3.67344 -5.17325,-4.9558 -9.09375,-3 -2.24768,1.1213 -3.29245,1.23835 -4.125,0.40625 -1.85447,-1.85351 -14.41352,-1.3109 -16.65625,0.71875 -1.82783,1.65416 -2.00534,1.59143 -4.09375,-1.0625 -2.02476,-2.57308 -2.63947,-2.76339 -8.90625,-2.65625 z m 0.96875,2.1875 c 2.54654,-0.0202 4.09579,1.29911 7.3125,4.65625 4.14851,4.32963 4.34642,4.41802 4.90625,2.1875 0.37768,-1.50479 2.01397,-2.9629 4.71875,-4.15625 3.70427,-1.63432 4.46241,-1.67093 6.71875,-0.40625 1.39378,0.78121 3.10807,2.62848 3.8125,4.09375 l 1.28125,2.65625 3.4375,-3.4375 c 4.06632,-4.06632 5.95649,-4.31903 7.46875,-1 1.20035,2.63448 -0.0217,7.87333 -4.625,19.75 l -2.28125,5.9375 -6.25,1.125 c -10.7387,1.93978 -32.914,0.69407 -34.5625,-1.9375 -0.40326,-0.64374 -1.21189,-3.40209 -1.78125,-6.125 -0.56935,-2.7229 -1.69789,-6.20392 -2.5,-7.75 -1.8991,-3.66052 -1.84691,-4.86594 0.4375,-9.34375 1.42217,-2.78768 2.8644,-4.04226 5.6875,-4.90625 2.80208,-0.85755 4.69083,-1.33161 6.21875,-1.34375 z m -5.96875,34.375 c 0.34872,-2.3e-4 0.75019,0.0362 1.1875,0.0625 1.83274,0.11043 10.93214,0.2783 20.21875,0.375 l 16.875,0.15625 2.46875,5.0625 c 2.63036,5.3695 6.43227,18.4913 9.25,32 l 1.71875,8.21875 -2.59375,2.59375 c -2.49061,2.4906 -2.67368,2.52485 -4.53125,0.84375 -1.14318,-1.0346 -2.20213,-3.7151 -2.59375,-6.5625 -0.36356,-2.6434 -1.26418,-5.33215 -2.03125,-5.96875 -0.76706,-0.6366 -1.40625,-1.57895 -1.40625,-2.09375 0,-1.821 -9.1046,-13.62349 -13.4375,-17.4375 -5.7023,-5.01937 -8.24367,-5.63184 -13.21875,-3.09375 -7.94163,4.05153 -13.11785,12.0464 -15.84375,24.5 -0.55663,2.543 -1.86849,6.5055 -2.9375,8.8125 -1.06901,2.307 -2.3853,4.1875 -2.90625,4.1875 -1.23733,0 -2.96875,-3.31465 -2.96875,-5.65625 0,-1.0128 -0.50259,-2.31505 -1.09375,-2.90625 -2.0074,-2.0074 3.16743,-24.25796 8.5625,-36.8125 2.29969,-5.35143 2.84018,-6.27962 5.28125,-6.28125 z" />
  </g>
</svg>
