<?xml version="1.0" encoding="UTF-8" standalone="no"?>
<!-- Created with Inkscape (http://www.inkscape.org/) -->

<svg
   xmlns:dc="http://purl.org/dc/elements/1.1/"
   xmlns:cc="http://creativecommons.org/ns#"
   xmlns:rdf="http://www.w3.org/1999/02/22-rdf-syntax-ns#"
   xmlns:svg="http://www.w3.org/2000/svg"
   xmlns="http://www.w3.org/2000/svg"
   xmlns:sodipodi="http://sodipodi.sourceforge.net/DTD/sodipodi-0.dtd"
   xmlns:inkscape="http://www.inkscape.org/namespaces/inkscape"
   width="800"
   height="700"
   id="svg2"
   version="1.1"
   inkscape:version="0.48.2 r9819"
   sodipodi:docname="l13.svg">
  <defs
     id="defs4" />
  <sodipodi:namedview
     id="base"
     pagecolor="#ffffff"
     bordercolor="#666666"
     borderopacity="1.0"
     inkscape:pageopacity="0.0"
     inkscape:pageshadow="2"
     inkscape:zoom="3.5355339"
     inkscape:cx="716.0237"
     inkscape:cy="606.22082"
     inkscape:document-units="px"
     inkscape:current-layer="layer1"
     showgrid="false"
     showguides="true"
     inkscape:guide-bbox="true"
     inkscape:window-width="1366"
     inkscape:window-height="746"
     inkscape:window-x="-8"
     inkscape:window-y="-8"
     inkscape:window-maximized="1"
     width="0px"
     height="0px"
     fit-margin-top="0"
     fit-margin-left="0"
     fit-margin-right="0"
     fit-margin-bottom="0">
    <sodipodi:guide
       orientation="1,0"
       position="400.22244,349.31075"
       id="guide3178" />
    <sodipodi:guide
       orientation="0,1"
       position="400.22244,349.31075"
       id="guide3180" />
  </sodipodi:namedview>
  <metadata
     id="metadata7">
    <rdf:RDF>
      <cc:Work
         rdf:about="">
        <dc:format>image/svg+xml</dc:format>
        <dc:type
           rdf:resource="http://purl.org/dc/dcmitype/StillImage" />
        <dc:title></dc:title>
      </cc:Work>
    </rdf:RDF>
  </metadata>
  <g
     inkscape:label="Layer 1"
     inkscape:groupmode="layer"
     id="layer1"
     transform="translate(0,-352.36218)">
    <path
       id="rect3170"
       transform="translate(0,352.36218)"
       style="fill:#ff0000"
       d="m 682.90625,44.09375 c -1.34362,-0.0763 -3.7481,0.85644 -4.75,1.9375 -2.27475,2.45442 -2.68811,4.6861 -2.3125,12.6875 0.13823,2.94584 0.017,3.51831 -1.1875,5.875 -1.36888,2.67815 -2.88857,4.4792 -3.28125,3.84375 -0.12169,-0.19685 -0.3891,-1.13847 -0.5625,-2.09375 -0.17331,-0.95521 -0.56836,-2.27021 -0.90625,-2.9375 -0.39556,-0.78119 -0.69146,-3.34686 -0.84375,-7.1875 -0.2662,-6.71476 -0.7001,-8.56638 -2.125,-9.5 -1.28021,-0.83883 -2.27262,-0.38228 -3.0625,1.3125 -0.3489,0.74858 -1.00372,1.9072 -1.4375,2.625 -1.66882,2.7616 -4.84375,17.94711 -4.84375,23.09375 0,2.82818 -0.10721,3.30797 -0.71875,3.1875 -2.51585,-0.49569 -2.4932,-12.48166 0.0625,-20.8125 1.78779,-5.82764 0.73229,-9.67809 -2.78125,-9.9375 -1.71025,-0.12627 -1.95971,0.02184 -3.96875,2.1875 -2.19291,2.36404 -2.39016,2.90481 -4.53125,10.8125 -0.42112,1.55522 -1.08864,3.74072 -1.4375,4.875 -0.47984,1.55969 -0.57929,3.69856 -0.4375,8.71875 0.16201,5.73329 0.42917,7.52003 1.8125,13.34375 0.88094,3.70863 1.8212,7.4984 2.09375,8.40625 0.27249,0.90786 0.48212,3.94922 0.5,6.75 l 0.0312,5.09375 -1.8125,3.6875 c -2.65017,5.34707 -4.46875,11.18058 -4.46875,14.28125 0,6.4034 3.21471,10.92085 7.75,10.9375 0.64243,0.002 2.18884,0.49793 3.46875,1.09375 1.74742,0.81346 3.04615,1.09478 5.21875,1.09375 2.83779,-0.002 3.40437,-0.21029 6.21875,-2.25 0.58563,-0.42445 1.2533,-0.25679 3.5,0.8125 1.51834,0.72263 3.24558,1.53514 3.84375,1.8125 1.63792,0.75947 6.9454,0.34181 8.65625,-0.65625 1.60697,-0.93753 3.34643,-3.99772 5.3125,-9.4375 1.32532,-3.66701 1.65264,-7.66331 0.84375,-10.6875 -0.23141,-0.86518 -0.73544,-2.91888 -1.125,-4.59375 -0.38958,-1.67488 -1.07982,-3.95453 -1.53125,-5.03125 -0.45145,-1.07668 -1.01613,-3.2939 -1.25,-4.96875 -0.23382,-1.67486 -0.67895,-4.33073 -0.96875,-5.875 -0.6291,-3.3516 -0.0361,-8.14701 1.59375,-13.40625 2.81491,-9.0825 3.28596,-15.11525 1.96875,-24.90625 -0.53114,-3.94787 -0.9627,-8.34923 -0.9375,-9.78125 0.054,-3.06944 -0.16903,-3.95765 -1.09375,-4.3125 -0.14211,-0.0544 -0.30805,-0.08295 -0.5,-0.09375 z m -1.8125,2.4375 c 0.82949,-0.17119 1.10394,1.26966 1.3125,4.8125 0.14779,2.50982 0.53372,5.72063 0.8125,7.15625 1.02319,5.26906 1.25824,9.1426 0.84375,13.0625 -0.37557,3.5518 -0.8573,5.55057 -3.5,14.5625 -0.45602,1.55522 -0.93062,4.79485 -1.0625,7.1875 -0.20399,3.70143 -0.1152,4.75121 0.65625,6.9375 0.49867,1.41325 0.9375,2.77546 0.9375,3.0625 0,0.33582 -1.28431,0.68459 -3.59375,0.90625 -4.49982,0.4319 -6.25181,0.32671 -9.625,-0.46875 -3.94634,-0.93057 -4.97465,-0.8215 -10.34375,1.09375 -2.68295,0.95706 -5.28188,1.75 -5.78125,1.75 -1.39664,0 -1.8996,-1.19543 -1.46875,-3.46875 0.393,-2.07389 0.15795,-5.5637 -0.59375,-8.5 -0.24502,-0.95707 -0.62924,-2.70991 -0.8125,-3.90625 -0.18324,-1.1963 -0.85411,-4.16983 -1.5,-6.5625 -1.60189,-5.93418 -1.90279,-12.19027 -0.90625,-19.09375 0.41443,-2.87122 1.04637,-5.89596 1.375,-6.6875 0.32864,-0.79152 0.71708,-2.43444 0.875,-3.625 0.49697,-3.74623 4.14922,-7.59085 6.1875,-6.5 1.35148,0.72326 1.42075,2.35937 0.28125,6 -2.81569,8.99584 -3.18081,15.24762 -1.28125,20.90625 0.61157,1.82183 1.70161,4.14343 2.40625,5.1875 0.70464,1.04409 1.57334,2.4833 1.9375,3.1875 0.84115,1.62662 4.76743,4.78125 5.96875,4.78125 1.55493,0 3.80843,-1.8263 3.8125,-3.09375 0.005,-1.88395 2.05101,-7.82696 3.90625,-11.28125 6.04298,-11.25118 7.12435,-14.75458 6.09375,-19.71875 -0.60285,-2.90413 -0.17353,-4.62779 1.5625,-6.5 0.63277,-0.68247 1.12297,-1.10968 1.5,-1.1875 z M 665.6875,50.25 c 0.10745,0.0194 0.19164,0.06665 0.28125,0.15625 0.25692,0.25692 0.61545,2.97434 0.8125,6.03125 0.25618,3.97305 0.68066,6.60675 1.5,9.25 1.47828,4.76901 1.58874,8.9262 0.3125,11.96875 -0.50181,1.19633 -1.39235,3.44476 -1.96875,5 -1.39359,3.75984 -2.20537,3.91963 -5.1875,0.9375 l -2.1875,-2.1875 0.1875,-4.6875 c 0.23708,-5.69776 2.28154,-18.23719 3.71875,-22.9375 0.65965,-2.1574 1.77916,-3.66661 2.53125,-3.53125 z m -1.375,54.625 c 1.16098,7.4e-4 2.51722,0.22153 4.5625,0.65625 2.20523,0.46865 4.56787,0.63363 7.28125,0.5 4.84227,-0.23845 5.49673,0.0895 6.40625,3.28125 2.40003,8.42211 2.69552,14.70497 0.9375,20.46875 -1.08831,3.56793 -2.19699,5.19268 -4.4375,6.34375 -0.52262,0.26852 -2.20756,0.47056 -3.71875,0.46875 -3.31433,-0.005 -6.39745,-1.31479 -8.625,-3.65625 -0.82452,-0.86673 -1.75054,-1.5625 -2.0625,-1.5625 -0.73915,0 -0.70065,-1.93691 0.125,-6.09375 0.35641,-1.7945 0.88435,-4.30904 1.125,-5.625 0.24065,-1.31597 0.55619,-2.46288 0.75,-2.53125 0.19385,-0.0685 0.73487,-0.40734 1.1875,-0.75 0.73742,-0.55823 0.51733,-0.6019 -2.40625,-0.59375 -3.09131,0.008 -3.20867,0.009 -2.28125,0.65625 1.20238,0.83875 1.25966,2.49522 0.28125,7.625 -0.38156,2.00036 -0.63698,4.70075 -0.53125,6 0.1165,1.43186 -0.0399,2.79151 -0.375,3.4375 -1.24971,2.40879 -4.59202,3.36581 -7.03125,2.03125 -0.6351,-0.34746 -2.94371,-1.17435 -5.09375,-1.84375 l -3.90625,-1.21875 -1.3125,-2.5625 c -1.15515,-2.27476 -1.3125,-3.02991 -1.3125,-6.3125 0,-4.18214 1.00963,-7.23911 3.59375,-11.125 0.7934,-1.19312 1.40625,-2.42231 1.40625,-2.6875 0,-0.93143 1.53381,-1.78757 3.6875,-2.09375 2.52927,-0.35959 5.73793,-1.17975 8.4375,-2.15625 1.19541,-0.43268 2.15149,-0.65704 3.3125,-0.65625 z" />
  </g>
</svg>
