<?xml version="1.0" encoding="UTF-8" standalone="no"?>
<!-- Created with Inkscape (http://www.inkscape.org/) -->

<svg
   xmlns:dc="http://purl.org/dc/elements/1.1/"
   xmlns:cc="http://creativecommons.org/ns#"
   xmlns:rdf="http://www.w3.org/1999/02/22-rdf-syntax-ns#"
   xmlns:svg="http://www.w3.org/2000/svg"
   xmlns="http://www.w3.org/2000/svg"
   xmlns:sodipodi="http://sodipodi.sourceforge.net/DTD/sodipodi-0.dtd"
   xmlns:inkscape="http://www.inkscape.org/namespaces/inkscape"
   width="800"
   height="400"
   id="svg2"
   version="1.1"
   inkscape:version="0.48.2 r9819"
   sodipodi:docname="f14.svg">
  <defs
     id="defs4" />
  <sodipodi:namedview
     id="base"
     pagecolor="#ffffff"
     bordercolor="#666666"
     borderopacity="1.0"
     inkscape:pageopacity="0.0"
     inkscape:pageshadow="2"
     inkscape:zoom="2.8284271"
     inkscape:cx="632.28238"
     inkscape:cy="308.9814"
     inkscape:document-units="px"
     inkscape:current-layer="layer1"
     showgrid="false"
     showguides="true"
     inkscape:guide-bbox="true"
     inkscape:window-width="1366"
     inkscape:window-height="746"
     inkscape:window-x="-8"
     inkscape:window-y="-8"
     inkscape:window-maximized="1"
     width="0px"
     height="0px"
     fit-margin-top="0"
     fit-margin-left="0"
     fit-margin-right="0"
     fit-margin-bottom="0">
    <sodipodi:guide
       orientation="1,0"
       position="400.22244,349.31075"
       id="guide3178" />
  </sodipodi:namedview>
  <metadata
     id="metadata7">
    <rdf:RDF>
      <cc:Work
         rdf:about="">
        <dc:format>image/svg+xml</dc:format>
        <dc:type
           rdf:resource="http://purl.org/dc/dcmitype/StillImage" />
        <dc:title />
      </cc:Work>
    </rdf:RDF>
  </metadata>
  <g
     inkscape:label="Layer 1"
     inkscape:groupmode="layer"
     id="layer1"
     transform="translate(0,-652.36218)">
    <path
       style="fill:#ff0000"
       d="M 684.4375 35.8125 C 683.0939 35.7362 680.72065 36.66894 679.71875 37.75 C 677.44405 40.20442 677.03065 42.46735 677.40625 50.46875 C 677.54455 53.41459 677.42265 53.98706 676.21875 56.34375 C 674.84985 59.0219 673.29895 60.82295 672.90625 60.1875 C 672.78465 59.99065 672.5484 59.04903 672.375 58.09375 C 672.2017 57.13854 671.80665 55.79229 671.46875 55.125 C 671.07315 54.34381 670.74595 51.77814 670.59375 47.9375 C 670.32755 41.22274 669.9249 39.40237 668.5 38.46875 C 667.2198 37.62992 666.2274 38.05522 665.4375 39.75 C 665.0886 40.49858 664.4338 41.68845 664 42.40625 C 662.3312 45.16785 659.125 60.32211 659.125 65.46875 C 659.125 68.29693 659.0492 68.77672 658.4375 68.65625 C 655.9217 68.16056 655.9439 56.17459 658.5 47.84375 C 660.2878 42.01611 659.23235 38.16566 655.71875 37.90625 C 654.00855 37.77998 653.759 37.92809 651.75 40.09375 C 649.557 42.45779 649.3285 42.99856 647.1875 50.90625 C 646.7663 52.46147 646.13015 54.64697 645.78125 55.78125 C 645.30145 57.34094 645.1707 59.47981 645.3125 64.5 C 645.4745 70.23329 645.7417 72.05128 647.125 77.875 C 648.006 81.58363 648.94625 85.34215 649.21875 86.25 C 649.49125 87.15786 649.7322 90.19922 649.75 93 L 649.78125 98.09375 L 647.96875 101.78125 C 645.31855 107.12832 643.46875 112.96183 643.46875 116.0625 C 643.46875 122.4659 646.68345 127.0146 651.21875 127.03125 C 651.86115 127.03325 653.43885 127.49793 654.71875 128.09375 C 656.46615 128.90721 657.7649 129.18853 659.9375 129.1875 C 662.7753 129.1855 663.34185 129.00846 666.15625 126.96875 C 666.74185 126.5443 667.40955 126.68071 669.65625 127.75 C 671.17465 128.47263 672.9018 129.28514 673.5 129.5625 C 675.1379 130.32197 680.44535 129.93556 682.15625 128.9375 C 683.76315 127.99997 685.50265 124.90853 687.46875 119.46875 C 688.79405 115.80174 689.09005 111.80544 688.28125 108.78125 C 688.04975 107.91607 687.5771 105.86237 687.1875 104.1875 C 686.7979 102.51262 686.10775 100.26422 685.65625 99.1875 C 685.20485 98.11082 684.6088 95.86235 684.375 94.1875 C 684.1412 92.51264 683.7273 89.85677 683.4375 88.3125 C 682.8084 84.9609 683.40145 80.16549 685.03125 74.90625 C 687.84615 65.82375 688.3172 59.82225 687 50.03125 C 686.4688 46.08338 686.0373 41.68202 686.0625 40.25 C 686.1165 37.18056 685.89345 36.2611 684.96875 35.90625 C 684.82575 35.85185 684.6294 35.8233 684.4375 35.8125 z M 682.625 38.28125 C 683.4545 38.11006 683.76015 39.51966 683.96875 43.0625 C 684.11655 45.57232 684.4712 48.81438 684.75 50.25 C 685.7732 55.51906 686.0395 59.36135 685.625 63.28125 C 685.2494 66.83305 684.7677 68.86307 682.125 77.875 C 681.669 79.43022 681.1943 82.6386 681.0625 85.03125 C 680.8585 88.73268 680.94735 89.78246 681.71875 91.96875 C 682.21745 93.382 682.625 94.74421 682.625 95.03125 C 682.625 95.36707 681.372 95.71584 679.0625 95.9375 C 674.5627 96.3694 672.8107 96.29546 669.4375 95.5 C 665.4912 94.56943 664.4316 94.64725 659.0625 96.5625 C 656.3795 97.51956 653.78065 98.3125 653.28125 98.3125 C 651.88465 98.3125 651.41295 97.11707 651.84375 94.84375 C 652.23675 92.76986 651.97045 89.28005 651.21875 86.34375 C 650.97365 85.38668 650.6207 83.63384 650.4375 82.4375 C 650.2542 81.2412 649.5834 78.29892 648.9375 75.90625 C 647.3356 69.97207 647.03475 63.68473 648.03125 56.78125 C 648.44575 53.91003 649.0464 50.91654 649.375 50.125 C 649.7037 49.33348 650.12335 47.69056 650.28125 46.5 C 650.77825 42.75377 654.43045 38.8779 656.46875 39.96875 C 657.82025 40.69201 657.8895 42.32812 656.75 45.96875 C 653.9343 54.96459 653.5379 61.21637 655.4375 66.875 C 656.0491 68.69683 657.1704 71.04968 657.875 72.09375 C 658.5797 73.13784 659.4483 74.5458 659.8125 75.25 C 660.6536 76.87662 664.57985 80.03125 665.78125 80.03125 C 667.33615 80.03125 669.58965 78.20495 669.59375 76.9375 C 669.60375 75.05355 671.6448 69.11054 673.5 65.65625 C 679.543 54.40507 680.62435 50.90167 679.59375 45.9375 C 678.99085 43.03337 679.42025 41.30971 681.15625 39.4375 C 681.78885 38.75503 682.248 38.35907 682.625 38.28125 z M 667.21875 41.96875 C 667.32625 41.98815 667.44165 42.0354 667.53125 42.125 C 667.78825 42.38192 668.14665 45.13059 668.34375 48.1875 C 668.59995 52.16055 669.02445 54.763 669.84375 57.40625 C 671.32205 62.17526 671.43245 66.33245 670.15625 69.375 C 669.65445 70.57133 668.7639 72.81976 668.1875 74.375 C 666.7939 78.13484 664.92275 79.04992 662.96875 75.3125 L 660.78125 73.125 L 660.96875 68.4375 C 661.20585 62.73974 663.2503 50.20031 664.6875 45.5 C 665.3469 43.3426 666.46665 41.83339 667.21875 41.96875 z M 665.875 96.59375 C 667.036 96.59449 668.3922 96.84653 670.4375 97.28125 C 672.6428 97.7499 675.00535 97.88363 677.71875 97.75 C 682.56105 97.51155 683.2155 97.87072 684.125 101.0625 C 686.525 109.48461 686.8206 115.73622 685.0625 121.5 C 683.9742 125.06793 682.83425 126.69268 680.59375 127.84375 C 680.07115 128.11227 678.3862 128.31431 676.875 128.3125 C 673.5606 128.3075 670.50885 127.02896 668.28125 124.6875 C 667.45675 123.82077 666.53065 123.125 666.21875 123.125 C 665.47955 123.125 665.51815 121.18809 666.34375 117.03125 C 666.70015 115.23675 667.22805 112.69096 667.46875 111.375 C 667.70935 110.05903 668.02495 108.91212 668.21875 108.84375 C 668.41265 108.77525 668.95355 108.43641 669.40625 108.09375 C 670.14365 107.53552 669.89235 107.49185 666.96875 107.5 C 663.87745 107.508 663.7601 107.50938 664.6875 108.15625 C 665.8899 108.995 665.94715 110.65147 664.96875 115.78125 C 664.58715 117.78161 664.36305 120.482 664.46875 121.78125 C 664.58525 123.21311 664.42885 124.57276 664.09375 125.21875 C 662.84405 127.62754 659.47055 128.58456 657.03125 127.25 C 656.39615 126.90254 654.11875 126.07565 651.96875 125.40625 L 648.0625 124.1875 L 646.75 121.625 C 645.5949 119.35024 645.40625 118.59509 645.40625 115.3125 C 645.40625 111.13036 646.4159 108.07339 649 104.1875 C 649.7934 102.99438 650.4375 101.79644 650.4375 101.53125 C 650.4375 100.59982 651.9713 99.74368 654.125 99.4375 C 656.6543 99.07791 659.8629 98.25775 662.5625 97.28125 C 663.7577 96.84857 664.714 96.59296 665.875 96.59375 z "
       transform="translate(0,652.36218)"
       id="rect3121" />
  </g>
</svg>
