<?xml version="1.0" encoding="UTF-8" standalone="no"?>
<!-- Created with Inkscape (http://www.inkscape.org/) -->

<svg
   xmlns:dc="http://purl.org/dc/elements/1.1/"
   xmlns:cc="http://creativecommons.org/ns#"
   xmlns:rdf="http://www.w3.org/1999/02/22-rdf-syntax-ns#"
   xmlns:svg="http://www.w3.org/2000/svg"
   xmlns="http://www.w3.org/2000/svg"
   xmlns:sodipodi="http://sodipodi.sourceforge.net/DTD/sodipodi-0.dtd"
   xmlns:inkscape="http://www.inkscape.org/namespaces/inkscape"
   width="900"
   height="800"
   id="svg2"
   version="1.1"
   inkscape:version="0.48+devel r11738"
   sodipodi:docname="f14.svg">
  <defs
     id="defs4" />
  <sodipodi:namedview
     id="base"
     pagecolor="#ffffff"
     bordercolor="#666666"
     borderopacity="1.0"
     inkscape:pageopacity="0.0"
     inkscape:pageshadow="2"
     inkscape:zoom="2"
     inkscape:cx="743.80335"
     inkscape:cy="660.45716"
     inkscape:document-units="px"
     inkscape:current-layer="layer1"
     showgrid="false"
     showguides="true"
     inkscape:guide-bbox="true"
     inkscape:window-width="1366"
     inkscape:window-height="705"
     inkscape:window-x="-4"
     inkscape:window-y="-4"
     inkscape:window-maximized="1"
     width="0px"
     height="0px"
     fit-margin-top="0"
     fit-margin-left="0"
     fit-margin-right="0"
     fit-margin-bottom="0">
    <sodipodi:guide
       orientation="1,0"
       position="450,784"
       id="guide3178" />
    <sodipodi:guide
       orientation="0,1"
       position="-61,400"
       id="guide3180" />
  </sodipodi:namedview>
  <metadata
     id="metadata7">
    <rdf:RDF>
      <cc:Work
         rdf:about="">
        <dc:format>image/svg+xml</dc:format>
        <dc:type
           rdf:resource="http://purl.org/dc/dcmitype/StillImage" />
        <dc:title></dc:title>
      </cc:Work>
    </rdf:RDF>
  </metadata>
  <g
     inkscape:label="Layer 1"
     inkscape:groupmode="layer"
     id="layer1"
     transform="translate(0,-252.36218)">
    <path
       id="rect83"
       transform="translate(0,252.36218)"
       style="fill:#ff0000;fill-opacity:1;stroke:none"
       d="m 770.90625,49.875 c -1.51889,-0.0863 -4.2424,0.96543 -5.375,2.1875 -2.57151,2.77461 -3.01835,5.32978 -2.59375,14.375 0.15628,3.33012 0.0179,3.96088 -1.34375,6.625 -1.54745,3.02753 -3.27483,5.06209 -3.71875,4.34375 -0.13755,-0.22254 -0.42899,-1.26386 -0.625,-2.34375 -0.19592,-1.07984 -0.64928,-2.58942 -1.03125,-3.34375 -0.44716,-0.88309 -0.7966,-3.78335 -0.96875,-8.125 -0.30092,-7.59072 -0.76422,-9.66334 -2.375,-10.71875 -1.44722,-0.94825 -2.57584,-0.44713 -3.46875,1.46875 -0.39442,0.84624 -1.13462,2.15732 -1.625,2.96875 -1.88651,3.12185 -5.5,20.27571 -5.5,26.09375 0,3.19713 -0.0899,3.72995 -0.78125,3.59375 -2.84406,-0.56034 -2.8266,-14.08238 0.0625,-23.5 2.02098,-6.58789 0.81565,-10.95673 -3.15625,-11.25 -1.93335,-0.14274 -2.22886,0.02055 -4.5,2.46875 -2.47896,2.67245 -2.7046,3.27949 -5.125,12.21875 -0.47605,1.75811 -1.23062,4.249 -1.625,5.53125 -0.54244,1.76315 -0.6603,4.16865 -0.5,9.84375 0.18313,6.48121 0.4987,8.51029 2.0625,15.09375 0.99586,4.19243 2.06689,8.47371 2.375,9.5 0.30805,1.0263 0.54227,4.45884 0.5625,7.625 l 0.0312,5.75 -2.03125,4.15625 c -4.81732,8.3931 -8.21276,28.06929 3.6875,28.5625 0.72622,0.002 2.49064,0.54521 3.9375,1.21875 1.97538,0.91958 3.45024,1.2199 5.90625,1.21875 3.20799,-0.002 3.84973,-0.22547 7.03125,-2.53125 0.66203,-0.47984 1.39771,-0.30255 3.9375,0.90625 1.7164,0.8169 3.66755,1.71771 4.34375,2.03125 1.8516,0.85856 7.87846,0.40951 9.8125,-0.71875 1.81659,-1.05983 3.77745,-4.53808 6,-10.6875 1.49821,-4.14536 1.85192,-8.6438 0.9375,-12.0625 -0.26159,-0.97805 -0.84088,-3.29416 -1.28125,-5.1875 -0.4404,-1.89337 -1.20842,-4.47034 -1.71875,-5.6875 -0.51032,-1.21715 -1.17312,-3.73165 -1.4375,-5.625 -0.26433,-1.89335 -0.7349,-4.91052 -1.0625,-6.65625 -0.71117,-3.78883 -0.0613,-9.21093 1.78125,-15.15625 3.18213,-10.26736 3.73906,-17.05672 2.25,-28.125 -0.60041,-4.46288 -1.09099,-9.44369 -1.0625,-11.0625 0.0611,-3.46988 -0.20463,-4.47387 -1.25,-4.875 C 771.30813,49.93849 771.12323,49.88731 770.90625,49.875 z m -2.0625,2.78125 c 0.93771,-0.19354 1.26422,1.40124 1.5,5.40625 0.16706,2.83725 0.5911,6.50212 0.90625,8.125 1.15667,5.95643 1.43733,10.31873 0.96875,14.75 -0.42455,4.01514 -0.95006,6.28116 -3.9375,16.46875 -0.51552,1.75811 -1.06967,5.42022 -1.21875,8.125 -0.2306,4.1843 -0.12209,5.34101 0.75,7.8125 0.56372,1.59761 1.03125,3.17552 1.03125,3.5 0,0.37963 -1.45179,0.74944 -4.0625,1 -5.08683,0.48825 -7.06178,0.39922 -10.875,-0.5 -4.46115,-1.05196 -5.618,-0.94636 -11.6875,1.21875 -3.03296,1.08192 -5.96672,1.96875 -6.53125,1.96875 -1.57884,0 -2.14331,-1.33637 -1.65625,-3.90625 0.44426,-2.34443 0.16226,-6.30563 -0.6875,-9.625 -0.27697,-1.08191 -0.69906,-3.05384 -0.90625,-4.40625 -0.20714,-1.35237 -0.95734,-4.70146 -1.6875,-7.40625 -1.81086,-6.70832 -2.15779,-13.78969 -1.03125,-21.59375 0.46849,-3.24577 1.15975,-6.66771 1.53125,-7.5625 0.37153,-0.89478 0.85272,-2.74788 1.03125,-4.09375 0.5618,-4.23494 4.69581,-8.57688 7,-7.34375 1.52777,0.81763 1.60066,2.66569 0.3125,6.78125 -3.183,10.16938 -3.61611,17.22817 -1.46875,23.625 0.69135,2.0595 1.92218,4.69472 2.71875,5.875 0.79655,1.18029 1.77583,2.79767 2.1875,3.59375 0.95089,1.83883 5.39195,5.375 6.75,5.375 1.75778,0 4.30791,-2.03595 4.3125,-3.46875 0.005,-2.12971 2.30898,-8.84509 4.40625,-12.75 6.83129,-12.71893 8.0713,-16.66948 6.90625,-22.28125 -0.68149,-3.28298 -0.2125,-5.25855 1.75,-7.375 C 767.87158,53.19725 768.41753,52.74423 768.84375,52.65625 z m -17.40625,4.1875 c 0.12146,0.0219 0.2112,0.0862 0.3125,0.1875 0.29044,0.29045 0.71474,3.35681 0.9375,6.8125 0.28958,4.49134 0.76127,7.48068 1.6875,10.46875 1.67111,5.39115 1.81773,10.09178 0.375,13.53125 -0.56727,1.35239 -1.5984,3.86688 -2.25,5.625 -1.57539,4.25033 -2.50382,4.43365 -5.875,1.0625 L 744.15625,92.0625 744.375,86.75 c 0.26801,-6.44105 2.56278,-20.59277 4.1875,-25.90625 C 749.3082,58.40491 750.5873,56.69073 751.4375,56.84375 z m -1.53125,61.75 c 1.31244,8.5e-4 2.84417,0.25857 5.15625,0.75 2.49292,0.52978 5.15142,0.68231 8.21875,0.53125 5.47395,-0.26957 6.22184,0.14183 7.25,3.75 2.71311,9.5208 3.01863,16.60932 1.03125,23.125 -1.23027,4.03339 -2.4672,5.85502 -5,7.15625 -0.59078,0.30355 -2.51041,0.56454 -4.21875,0.5625 -3.74667,-0.005 -7.20062,-1.47808 -9.71875,-4.125 -0.93209,-0.9798 -1.9911,-1.78125 -2.34375,-1.78125 -0.83559,0 -0.7771,-2.17588 0.15625,-6.875 0.40291,-2.0286 0.97796,-4.91862 1.25,-6.40625 0.27205,-1.48763 0.65591,-2.76646 0.875,-2.84375 0.21914,-0.0774 0.80081,-0.45639 1.3125,-0.84375 0.83362,-0.63106 0.58621,-0.6967 -2.71875,-0.6875 -3.49458,0.009 -3.64215,0.0187 -2.59375,0.75 1.35922,0.94817 1.41855,2.82603 0.3125,8.625 -0.43134,2.26132 -0.68202,5.31251 -0.5625,6.78125 0.13169,1.61865 -0.0586,3.14474 -0.4375,3.875 -1.41273,2.72304 -5.21129,3.82116 -7.96875,2.3125 -0.71795,-0.39279 -3.31947,-1.33702 -5.75,-2.09375 l -4.40625,-1.375 -1.46875,-2.90625 c -1.30583,-2.5715 -1.5,-3.41418 -1.5,-7.125 0,-4.72771 1.14127,-8.16969 4.0625,-12.5625 0.89691,-1.34877 1.59375,-2.73147 1.59375,-3.03125 0,-1.05295 1.75286,-2.02888 4.1875,-2.375 2.85921,-0.40649 6.47952,-1.33361 9.53125,-2.4375 C 747.5076,118.85463 748.59381,118.59287 749.90625,118.59375 Z" />
  </g>
</svg>
