<?xml version="1.0" encoding="UTF-8" standalone="no"?>
<!-- Created with Inkscape (http://www.inkscape.org/) -->

<svg
   xmlns:dc="http://purl.org/dc/elements/1.1/"
   xmlns:cc="http://creativecommons.org/ns#"
   xmlns:rdf="http://www.w3.org/1999/02/22-rdf-syntax-ns#"
   xmlns:svg="http://www.w3.org/2000/svg"
   xmlns="http://www.w3.org/2000/svg"
   xmlns:sodipodi="http://sodipodi.sourceforge.net/DTD/sodipodi-0.dtd"
   xmlns:inkscape="http://www.inkscape.org/namespaces/inkscape"
   width="800"
   height="700"
   id="svg2"
   version="1.1"
   inkscape:version="0.48.2 r9819"
   sodipodi:docname="m14.svg">
  <defs
     id="defs4" />
  <sodipodi:namedview
     id="base"
     pagecolor="#ffffff"
     bordercolor="#666666"
     borderopacity="1.0"
     inkscape:pageopacity="0.0"
     inkscape:pageshadow="2"
     inkscape:zoom="4"
     inkscape:cx="721.1799"
     inkscape:cy="441.77149"
     inkscape:document-units="px"
     inkscape:current-layer="layer1"
     showgrid="false"
     showguides="true"
     inkscape:guide-bbox="true"
     inkscape:window-width="1366"
     inkscape:window-height="746"
     inkscape:window-x="-8"
     inkscape:window-y="-8"
     inkscape:window-maximized="1"
     width="0px"
     height="0px"
     fit-margin-top="0"
     fit-margin-left="0"
     fit-margin-right="0"
     fit-margin-bottom="0">
    <sodipodi:guide
       orientation="1,0"
       position="400.22244,349.31075"
       id="guide3178" />
    <sodipodi:guide
       orientation="0,1"
       position="400.22244,349.31075"
       id="guide3180" />
  </sodipodi:namedview>
  <metadata
     id="metadata7">
    <rdf:RDF>
      <cc:Work
         rdf:about="">
        <dc:format>image/svg+xml</dc:format>
        <dc:type
           rdf:resource="http://purl.org/dc/dcmitype/StillImage" />
        <dc:title></dc:title>
      </cc:Work>
    </rdf:RDF>
  </metadata>
  <g
     inkscape:label="Layer 1"
     inkscape:groupmode="layer"
     id="layer1"
     transform="translate(0,-352.36218)">
    <path
       id="rect3067"
       transform="translate(0,352.36218)"
       style="fill:#ff0000"
       d="m 678.5,207.25 c -1.47871,0.0716 -3.16621,0.69798 -5.40625,1.90625 -4.39953,2.37307 -5.21365,2.53492 -7.40625,1.25 -2.30791,-1.35252 -9.50745,-2.62602 -12.46875,-2.21875 -3.02213,0.41566 -4.77866,2.32662 -5.25,5.625 -0.8663,6.06197 -0.0686,10.49089 3.03125,16.65625 0.98773,1.96453 1.78125,3.76303 1.78125,4.03125 0,0.26824 0.29486,1.12102 0.625,1.875 1.05413,2.40719 1.68373,6.22546 1.375,8.15625 -0.65913,4.12204 -2.15816,9.9351 -3.375,12.96875 -3.47147,8.65728 -4.14613,12.23626 -3.46875,18.71875 0.45909,4.39347 2.42975,10.90112 3.96875,13.0625 0.48891,0.68662 0.875,1.38491 0.875,1.5625 0,0.71186 3.35131,5.29481 5.125,7.03125 1.03867,1.01691 2.17067,1.84375 2.53125,1.84375 0.76699,0 2.8125,-1.90171 2.8125,-2.625 0,-0.27309 -0.77947,-2.67496 -1.71875,-5.34375 -2.43357,-6.91425 -2.82161,-9.8229 -2.21875,-15.9375 0.66444,-6.739 2.02452,-10.83573 3.0625,-9.15625 0.46557,0.75325 1.1923,5.81283 1.71875,11.75 0.95058,10.71976 2.38773,16.32257 5.09375,19.9375 0.93669,1.25135 1.27916,1.375 3.125,1.375 1.48955,0 2.31452,-0.22773 2.84375,-0.8125 0.8574,-0.94741 1.31009,-4.80066 2,-17 0.50528,-8.93388 0.86995,-11.09375 1.75,-11.09375 0.32765,0 0.96876,0.67987 1.46875,1.53125 0.49997,0.85134 1.42929,2.43723 2.0625,3.5 1.27747,2.14398 2.27902,6.34732 2.96875,12.59375 0.25096,2.27303 0.66741,5.09895 0.96875,6.28125 0.48622,1.90769 0.72342,2.19427 2.03125,2.53125 2.44873,0.63093 3.77584,-0.24769 5.3125,-3.5 0.7358,-1.55735 1.52808,-3.90351 1.78125,-5.25 0.67634,-3.59712 0.1611,-9.69915 -1.125,-13.59375 -1.31096,-3.96966 -3.2272,-8.25 -3.75,-8.25 -0.20803,0 -0.70021,-0.59736 -1.0625,-1.375 -0.36225,-0.77758 -1.30779,-2.49653 -2.125,-3.8125 -1.54283,-2.48432 -2.0328,-3.72314 -2.9375,-7.9375 -0.76322,-3.55539 0.1166,-7.73199 2.59375,-12.53125 1.0532,-2.0405 2.16601,-3.99725 2.5,-4.375 0.33398,-0.37774 0.59375,-1.02049 0.59375,-1.40625 0,-0.38577 0.22951,-0.78961 0.46875,-0.9375 0.23928,-0.14786 0.4375,-0.74837 0.4375,-1.3125 0,-0.56409 0.20242,-1.09875 0.46875,-1.1875 0.32091,-0.10696 0.49173,-2.22481 0.53125,-6.25 0.0591,-6.04129 0.0833,-6.08166 -1.34375,-9 -1.57564,-3.22172 -3.72203,-5.5282 -5.125,-5.53125 -0.49663,-8.1e-4 -1.39278,-0.48065 -1.96875,-1.09375 -1.74749,-1.86012 -3.25503,-2.74829 -5.15625,-2.65625 z m 0.21875,1.625 c 0.90266,1.2e-4 1.6677,0.26922 2.15625,0.8125 l 0.84375,0.96875 -1.0625,0.71875 c -2.13638,1.4426 -6.82092,3.34146 -7.875,3.1875 -1.16953,-0.1708 -2.15625,-0.8461 -2.15625,-1.4375 0,-0.20106 1.1583,-1.14019 2.5625,-2.09375 2.07239,-1.4073 4.02682,-2.15644 5.53125,-2.15625 z m -19.125,1.25 c 2.07386,-0.005 4.9375,0.95064 4.9375,1.65625 0,0.63239 4.19425,3.5262 6.09375,4.1875 3.20082,1.11439 4.25269,0.87671 8.03125,-1.6875 2.16647,-1.47035 5.26659,-2.0862 6.96875,-1.375 3.76918,1.57488 6.08375,9.19117 4.59375,15.0625 -0.68883,2.71421 -3.38722,8.31704 -4.65625,9.65625 -1.18208,1.24737 -1.33783,1.28787 -3.625,0.96875 -2.9958,-0.41802 -6.33238,-0.43756 -14.34375,-0.0625 -3.46936,0.16251 -6.80807,0.37849 -7.40625,0.5 -0.59815,0.12168 -1.28851,0.0851 -1.53125,-0.0937 -0.63659,-0.46955 -4.75279,-8.92145 -6.09375,-12.5 -0.79087,-2.11061 -1.24079,-4.27958 -1.40625,-7.03125 -0.26642,-4.42899 0.0406,-6.25 1,-6.25 0.35434,0 0.625,-0.18722 0.625,-0.4375 0,-0.87409 4.50743,-2.58967 6.8125,-2.59375 z m -7.125,0.0312 c 0.19585,-0.005 0.31613,0.0717 0.3125,0.28125 -0.004,0.17945 -0.71322,0.76227 -1.5625,1.3125 -1.45908,0.94539 -1.47716,0.98944 -1.03125,0.15625 0.47282,-0.8834 1.69371,-1.7374 2.28125,-1.75 z m 6.03125,3.125 c -1.92969,0.0942 -4.8509,1.36055 -6.15625,2.75 -1.4877,1.58357 -0.62651,1.82106 1.90625,0.53125 1.24195,-0.63249 2.68083,-1.26084 3.1875,-1.40625 1.14972,-0.33008 5.34375,1.73828 5.34375,2.625 0,1.07304 0.68611,0.64191 0.75,-0.46875 0.0823,-1.4313 -2.31367,-3.68576 -4.25,-4 -0.22725,-0.0368 -0.50557,-0.0447 -0.78125,-0.0312 z m 18.46875,26.53125 c 1.38147,-0.0548 2.46057,0.11114 4.09375,0.59375 1.51451,0.44756 2.80295,1.04464 2.90625,1.3125 0.10346,0.26784 -0.5232,1.76617 -1.375,3.34375 -0.85173,1.5775 -1.83552,3.99031 -2.21875,5.375 -1.87822,6.78688 -2.79236,10.60842 -3.1875,13.1875 -0.23825,1.55521 -0.7314,4.59659 -1.09375,6.75 -0.3624,2.1534 -0.83385,8.57015 -1.0625,14.25 -0.32557,8.08801 -0.58858,10.6474 -1.15625,11.84375 -0.93986,1.98048 -1.98682,1.95829 -3.34375,-0.0937 -2.65852,-4.02042 -4.0365,-9.04734 -4.71875,-17.09375 -0.23333,-2.75156 -0.50237,-5.79292 -0.625,-6.75 -0.12271,-0.95705 -0.51002,-4.49402 -0.84375,-7.84375 -0.33376,-3.34973 -0.83008,-6.72507 -1.09375,-7.5625 -0.26367,-0.83743 -0.85965,-3.46988 -1.34375,-5.84375 -0.48407,-2.37389 -1.28889,-5.51478 -1.78125,-6.9375 -0.71599,-2.06887 -0.79596,-2.62676 -0.34375,-2.90625 1.11959,-0.69195 5.93263,-1.33851 9.34375,-1.25 1.91414,0.0497 4.74657,-0.064 6.3125,-0.25 0.56288,-0.0669 1.07073,-0.10678 1.53125,-0.125 z m -19.53125,4.59375 c 0.27538,-0.12409 0.57393,0.54368 1.15625,1.6875 0.63544,1.24817 1.15621,2.83405 1.15625,3.5 9e-5,1.66671 1.12832,7.35584 1.875,9.46875 0.85098,2.40787 0.76413,2.90188 -1.53125,7.59375 -2.33687,4.77646 -2.78741,6.47614 -3.1875,12.4375 -0.36176,5.38994 0.47147,9.26594 2.71875,13.03125 0.85689,1.43559 1.5936,3.16586 1.625,3.875 0.0905,2.05907 -1.13182,1.86735 -3.09375,-0.5 -1.60419,-1.93557 -4.9375,-6.86249 -4.9375,-7.3125 0,-0.10848 -0.43495,-1.20607 -1,-2.46875 -1.98464,-4.43486 -2.45753,-6.86145 -2.4375,-12.5625 0.0126,-3.56195 0.21145,-5.97714 0.625,-7.125 0.3448,-0.95708 0.62093,-2.09094 0.625,-2.5 0.005,-0.40903 0.96458,-2.95484 2.125,-5.65625 1.16048,-2.70145 2.45864,-6.46088 2.875,-8.375 0.74946,-3.44567 1.05219,-4.93422 1.40625,-5.09375 z M 682,252.59375 c 0.39363,-0.14269 0.71974,0.83709 1.25,3.40625 0.29629,1.43558 1.36186,4.27872 2.40625,6.3125 7.28315,14.18312 7.60817,14.9456 8.09375,19.21875 0.72631,6.39124 0.009,11.36453 -1.875,12.875 -0.95568,0.76603 -2.25869,0.96442 -3.0625,0.5 -1.44521,-0.83501 -1.98007,-2.70346 -2.28125,-8.21875 -0.42904,-7.85701 -2.03174,-12.26117 -6.34375,-17.375 -1.36433,-1.61802 -1.71913,-2.38986 -1.71875,-3.75 5.3e-4,-2.06559 1.97676,-10.29631 2.90625,-12.09375 0.25125,-0.48595 0.44608,-0.81013 0.625,-0.875 z" />
  </g>
</svg>
