<?xml version="1.0" encoding="UTF-8" standalone="no"?>
<!-- Created with Inkscape (http://www.inkscape.org/) -->

<svg
   xmlns:dc="http://purl.org/dc/elements/1.1/"
   xmlns:cc="http://creativecommons.org/ns#"
   xmlns:rdf="http://www.w3.org/1999/02/22-rdf-syntax-ns#"
   xmlns:svg="http://www.w3.org/2000/svg"
   xmlns="http://www.w3.org/2000/svg"
   xmlns:sodipodi="http://sodipodi.sourceforge.net/DTD/sodipodi-0.dtd"
   xmlns:inkscape="http://www.inkscape.org/namespaces/inkscape"
   width="900"
   height="800"
   id="svg2"
   version="1.1"
   inkscape:version="0.48+devel r11738"
   sodipodi:docname="l14.svg">
  <defs
     id="defs4" />
  <sodipodi:namedview
     id="base"
     pagecolor="#ffffff"
     bordercolor="#666666"
     borderopacity="1.0"
     inkscape:pageopacity="0.0"
     inkscape:pageshadow="2"
     inkscape:zoom="2"
     inkscape:cx="743.80335"
     inkscape:cy="542.61638"
     inkscape:document-units="px"
     inkscape:current-layer="layer1"
     showgrid="false"
     showguides="true"
     inkscape:guide-bbox="true"
     inkscape:window-width="1366"
     inkscape:window-height="705"
     inkscape:window-x="-4"
     inkscape:window-y="-4"
     inkscape:window-maximized="1"
     width="0px"
     height="0px"
     fit-margin-top="0"
     fit-margin-left="0"
     fit-margin-right="0"
     fit-margin-bottom="0">
    <sodipodi:guide
       orientation="1,0"
       position="450,784"
       id="guide3178" />
    <sodipodi:guide
       orientation="0,1"
       position="-61,400"
       id="guide3180" />
  </sodipodi:namedview>
  <metadata
     id="metadata7">
    <rdf:RDF>
      <cc:Work
         rdf:about="">
        <dc:format>image/svg+xml</dc:format>
        <dc:type
           rdf:resource="http://purl.org/dc/dcmitype/StillImage" />
        <dc:title></dc:title>
      </cc:Work>
    </rdf:RDF>
  </metadata>
  <g
     inkscape:label="Layer 1"
     inkscape:groupmode="layer"
     id="layer1"
     transform="translate(0,-252.36218)">
    <path
       id="rect93"
       transform="translate(0,252.36218)"
       style="fill:#ff0000;fill-opacity:1;stroke:none"
       d="m 765.9375,234.34375 c -1.67162,0.081 -3.59274,0.79035 -6.125,2.15625 -4.97346,2.68264 -5.89638,2.82755 -8.375,1.375 -2.60898,-1.52898 -10.7149,-2.96042 -14.0625,-2.5 -3.41638,0.46988 -5.43592,2.61508 -5.96875,6.34375 -0.97932,6.85276 -0.0667,11.8741 3.4375,18.84375 1.11659,2.22082 2.03125,4.25928 2.03125,4.5625 0,0.30321 0.28305,1.27268 0.65625,2.125 1.19165,2.72122 1.94275,7.03609 1.59375,9.21875 -0.74511,4.65978 -2.46818,11.22685 -3.84375,14.65625 -3.92436,9.78666 -4.672,13.85936 -3.90625,21.1875 0.51898,4.96661 2.72898,12.30667 4.46875,14.75 0.5527,0.77619 1.03125,1.54926 1.03125,1.75 0,0.80473 3.77617,6.00579 5.78125,7.96875 1.17416,1.14957 2.43612,2.09375 2.84375,2.09375 0.86704,0 3.1875,-2.18236 3.1875,-3 0,-0.30872 -0.87567,-3.01433 -1.9375,-6.03125 -2.75103,-7.81625 -3.21276,-11.08773 -2.53125,-18 0.75113,-7.61813 2.32662,-12.24232 3.5,-10.34375 0.52631,0.85152 1.34236,6.56955 1.9375,13.28125 1.07458,12.11818 2.65972,18.41348 5.71875,22.5 1.05888,1.41458 1.47586,1.59375 3.5625,1.59375 1.68386,0 2.58924,-0.27643 3.1875,-0.9375 0.96925,-1.07099 1.50134,-5.42796 2.28125,-19.21875 0.5712,-10.09932 0.9739,-12.5625 1.96875,-12.5625 0.3704,0 1.1223,0.81881 1.6875,1.78125 0.56521,0.9624 1.62793,2.73608 2.34375,3.9375 1.44412,2.42368 2.53281,7.15745 3.3125,14.21875 0.2837,2.56954 0.78435,5.75721 1.125,7.09375 0.54965,2.15655 0.83406,2.49407 2.3125,2.875 2.76816,0.71325 4.23163,-0.26092 5.96875,-3.9375 0.8318,-1.7605 1.74505,-4.4466 2.03125,-5.96875 0.76457,-4.06638 0.17263,-10.97234 -1.28125,-15.375 -1.48197,-4.48751 -3.65898,-9.28125 -4.25,-9.28125 -0.23516,0 -0.77796,-0.71467 -1.1875,-1.59375 -0.40951,-0.87903 -1.48244,-2.7936 -2.40625,-4.28125 -1.74411,-2.8084 -2.2898,-4.23588 -3.3125,-9 -0.86279,-4.0192 0.10599,-8.69967 2.90625,-14.125 1.19059,-2.30669 2.46618,-4.54172 2.84375,-4.96875 0.37754,-0.42702 0.6875,-1.12642 0.6875,-1.5625 0,-0.4361 0.22955,-0.92656 0.5,-1.09375 0.27049,-0.16715 0.5,-0.83105 0.5,-1.46875 0,-0.6377 0.23019,-1.2747 0.53125,-1.375 0.36278,-0.12092 0.58031,-2.48097 0.625,-7.03125 0.0669,-6.82939 0.0508,-6.88846 -1.5625,-10.1875 -1.78119,-3.64201 -4.19524,-6.24655 -5.78125,-6.25 -0.56143,-9.2e-4 -1.56763,-0.55691 -2.21875,-1.25 C 769.77455,235.20973 768.08673,234.2397 765.9375,234.34375 z m 0.25,1.8125 c 1.02041,1.3e-4 1.85396,0.32336 2.40625,0.9375 L 769.5625,238.1875 768.375,239 c -2.41509,1.6308 -7.71467,3.76779 -8.90625,3.59375 -1.3221,-0.19308 -2.4375,-0.95645 -2.4375,-1.625 0,-0.2273 1.28763,-1.29703 2.875,-2.375 C 762.24901,237.00286 764.4868,236.15605 766.1875,236.15625 z m -21.65625,1.40625 c 2.3444,-0.005 5.625,1.1086 5.625,1.90625 0,0.71487 4.7277,3.93994 6.875,4.6875 3.61839,1.25976 4.82224,1.02372 9.09375,-1.875 2.44907,-1.66216 5.91955,-2.36646 7.84375,-1.5625 4.26088,1.78033 6.90311,10.39399 5.21875,17.03125 -0.77869,3.06828 -3.84666,9.39233 -5.28125,10.90625 -1.33628,1.41009 -1.5082,1.45449 -4.09375,1.09375 -3.38659,-0.47256 -7.16228,-0.4866 -16.21875,-0.0625 -3.92195,0.18371 -7.6988,0.45638 -8.375,0.59375 -0.67621,0.13754 -1.44436,0.0773 -1.71875,-0.125 -0.71965,-0.53082 -5.35911,-10.11089 -6.875,-14.15625 -0.89405,-2.38595 -1.40669,-4.7956 -1.59375,-7.90625 -0.30116,-5.00675 0.0404,-7.09375 1.125,-7.09375 0.40055,0 0.71875,-0.21708 0.71875,-0.5 C 736.875,239.51189 741.92547,237.56709 744.53125,237.5625 z m -8.03125,0.0312 c 0.2214,-0.005 0.37911,0.10696 0.375,0.34375 -0.004,0.20287 -0.82118,0.87799 -1.78125,1.5 -1.64943,1.06871 -1.69159,1.06687 -1.1875,0.125 C 734.44075,238.56385 735.8358,237.60798 736.5,237.59375 z m 6.8125,3.5625 c -2.18142,0.10636 -5.46187,1.52303 -6.9375,3.09375 -1.68178,1.79015 -0.73816,2.05183 2.125,0.59375 1.40397,-0.71499 3.021,-1.3981 3.59375,-1.5625 1.2997,-0.37313 6.0625,1.93512 6.0625,2.9375 0,1.21301 0.77152,0.75555 0.84375,-0.5 0.0932,-1.618 -2.62355,-4.17602 -4.8125,-4.53125 C 743.93061,241.14593 743.62414,241.14104 743.3125,241.15625 z m 20.875,29.96875 c 1.5617,-0.0619 2.77876,0.14193 4.625,0.6875 1.71208,0.50593 3.19573,1.16594 3.3125,1.46875 0.11696,0.30277 -0.59959,2.02913 -1.5625,3.8125 -0.96285,1.7833 -2.06678,4.49717 -2.5,6.0625 -2.12324,7.67225 -3.17833,11.99072 -3.625,14.90625 -0.26934,1.7581 -0.80912,5.19067 -1.21875,7.625 -0.40967,2.43432 -0.96027,9.67295 -1.21875,16.09375 -0.36806,9.14312 -0.67076,12.05381 -1.3125,13.40625 -1.06245,2.23884 -2.21605,2.19475 -3.75,-0.125 -3.00533,-4.54491 -4.5725,-10.21641 -5.34375,-19.3125 -0.26375,-3.11051 -0.58012,-6.54307 -0.71875,-7.625 -0.13872,-1.08191 -0.56024,-5.05705 -0.9375,-8.84375 -0.3773,-3.78672 -0.95193,-7.64707 -1.25,-8.59375 -0.29806,-0.94668 -0.984,-3.9102 -1.53125,-6.59375 -0.54721,-2.68357 -1.44343,-6.23543 -2,-7.84375 -0.8094,-2.33876 -0.91745,-2.9653 -0.40625,-3.28125 1.26565,-0.78221 6.70638,-1.5063 10.5625,-1.40625 2.16385,0.0561 5.38605,-0.071 7.15625,-0.28125 C 763.10507,271.20554 763.66692,271.14561 764.1875,271.125 z m -21.96875,5.1875 c 0.28619,0.0672 0.64275,0.8061 1.21875,1.9375 0.71834,1.411 1.2812,3.18468 1.28125,3.9375 9e-5,1.88415 1.28091,8.29895 2.125,10.6875 0.96198,2.72198 0.87607,3.32106 -1.71875,8.625 -2.64171,5.39955 -3.14145,7.29223 -3.59375,14.03125 -0.40895,6.0931 0.52205,10.49349 3.0625,14.75 0.96866,1.62288 1.77702,3.57335 1.8125,4.375 0.10236,2.32769 -1.25088,2.11366 -3.46875,-0.5625 -1.81345,-2.18808 -5.5625,-7.7413 -5.5625,-8.25 0,-0.12263 -0.51748,-1.38509 -1.15625,-2.8125 -2.24355,-5.0134 -2.80388,-7.77397 -2.78125,-14.21875 0.0142,-4.0266 0.25126,-6.73365 0.71875,-8.03125 0.38978,-1.08194 0.71416,-2.38133 0.71875,-2.84375 0.005,-0.46237 1.09445,-3.32119 2.40625,-6.375 1.31188,-3.05387 2.77933,-7.33617 3.25,-9.5 0.84722,-3.89517 1.16227,-5.5384 1.5625,-5.71875 C 742.13266,276.32621 742.17787,276.3029 742.21875,276.3125 z m 27.65625,9.28125 c 0.44498,-0.16131 0.80681,0.93944 1.40625,3.84375 0.33494,1.62287 1.56939,4.85716 2.75,7.15625 8.23327,16.03336 8.60735,16.88816 9.15625,21.71875 0.82108,7.22499 0.005,12.82373 -2.125,14.53125 -1.08035,0.86595 -2.59134,1.08751 -3.5,0.5625 -1.63374,-0.94394 -2.19079,-3.04647 -2.53125,-9.28125 -0.48501,-8.88199 -2.31297,-13.8753 -7.1875,-19.65625 -1.54231,-1.82909 -1.93794,-2.68118 -1.9375,-4.21875 5.8e-4,-2.33505 2.19926,-11.65558 3.25,-13.6875 C 769.44028,286.01315 769.67274,285.66707 769.875,285.59375 Z" />
  </g>
</svg>
