<?xml version="1.0" encoding="UTF-8" standalone="no"?>
<!-- Created with Inkscape (http://www.inkscape.org/) -->

<svg
   xmlns:dc="http://purl.org/dc/elements/1.1/"
   xmlns:cc="http://creativecommons.org/ns#"
   xmlns:rdf="http://www.w3.org/1999/02/22-rdf-syntax-ns#"
   xmlns:svg="http://www.w3.org/2000/svg"
   xmlns="http://www.w3.org/2000/svg"
   xmlns:sodipodi="http://sodipodi.sourceforge.net/DTD/sodipodi-0.dtd"
   xmlns:inkscape="http://www.inkscape.org/namespaces/inkscape"
   width="800"
   height="400"
   id="svg2"
   version="1.1"
   inkscape:version="0.48.2 r9819"
   sodipodi:docname="m14.svg">
  <defs
     id="defs4" />
  <sodipodi:namedview
     id="base"
     pagecolor="#ffffff"
     bordercolor="#666666"
     borderopacity="1.0"
     inkscape:pageopacity="0.0"
     inkscape:pageshadow="2"
     inkscape:zoom="2.8284271"
     inkscape:cx="632.28238"
     inkscape:cy="238.27072"
     inkscape:document-units="px"
     inkscape:current-layer="layer1"
     showgrid="false"
     showguides="true"
     inkscape:guide-bbox="true"
     inkscape:window-width="1366"
     inkscape:window-height="746"
     inkscape:window-x="-8"
     inkscape:window-y="-8"
     inkscape:window-maximized="1"
     width="0px"
     height="0px"
     fit-margin-top="0"
     fit-margin-left="0"
     fit-margin-right="0"
     fit-margin-bottom="0">
    <sodipodi:guide
       orientation="1,0"
       position="400.22244,349.31075"
       id="guide3178" />
  </sodipodi:namedview>
  <metadata
     id="metadata7">
    <rdf:RDF>
      <cc:Work
         rdf:about="">
        <dc:format>image/svg+xml</dc:format>
        <dc:type
           rdf:resource="http://purl.org/dc/dcmitype/StillImage" />
        <dc:title></dc:title>
      </cc:Work>
    </rdf:RDF>
  </metadata>
  <g
     inkscape:label="Layer 1"
     inkscape:groupmode="layer"
     id="layer1"
     transform="translate(0,-652.36218)">
    <path
       id="rect3139"
       transform="translate(0,652.36218)"
       style="fill:#ff0000"
       d="m 668.0625,143.40625 c -4.4356,0.0433 -9.0767,1.33483 -13.5625,3.75 -4.2225,2.27336 -5.30085,3.44507 -6.71875,7.1875 -2.1326,5.62915 -2.1464,6.51785 0.125,16.8125 0.4752,2.15337 1.45675,5.14487 2.15625,6.625 0.6996,1.48015 1.7367,4.11054 2.3125,5.8125 1.3414,3.96493 2.0233,4.97736 4.375,6.46875 1.8464,1.1709 2.21615,1.24607 9.03125,1.46875 3.9472,0.12899 8.39615,0.52588 10.09375,0.90625 1.6748,0.37527 3.55805,0.77116 4.15625,0.875 2.2474,0.39009 4.6643,-0.23092 7.1875,-1.875 0.7178,-0.4677 1.8293,-1.18358 2.5,-1.5625 1.6218,-0.91618 2.7193,-2.05691 3.5625,-3.6875 0.5973,-1.1549 0.6595,-2.59681 0.4375,-10.34375 -0.4674,-16.31096 -1.2454,-18.20013 -9.125,-22.53125 -1.5967,-0.87771 -3.51855,-2.24557 -4.28125,-3.03125 -0.7626,-0.78569 -2.13665,-2.25094 -3.09375,-3.25 -2.8553,-2.98053 -4.60215,-3.6695 -9.15625,-3.625 z m -2.125,2.5625 c 0.5374,-0.012 1.0883,-0.006 1.6875,0 5.4582,0.0517 7.56525,0.96383 10.28125,4.25 2.2641,2.73958 2.5903,2.96884 5.375,4.40625 4.1786,2.15689 6.3369,4.05232 7.5625,6.6875 1.0762,2.31387 1.10985,2.89938 1.15625,9.21875 0.027,3.70862 0.1899,7.93869 0.375,9.40625 0.5793,4.5956 -1.074,7.55258 -5.6875,10.15625 -1.4578,0.82277 -3.2119,1.43463 -4.4375,1.53125 -2.3438,0.18688 -6.0364,-0.34833 -7.3125,-1.03125 -0.4832,-0.25863 -1.2306,-0.44828 -1.6875,-0.4375 -1.9915,0.0501 -10.2168,-0.53984 -12.6875,-0.90625 -3.0722,-0.45568 -3.4037,-0.5815 -4.0625,-1.8125 -0.4293,-0.80202 -0.38755,-0.88175 0.53125,-0.59375 0.5589,0.1752 1.46065,0.71065 2.03125,1.15625 1.409,1.10166 4.46845,1.10132 5.15625,0 0.4664,-0.74682 0.312,-0.84325 -1.8125,-1.0625 -2.0682,-0.21346 -2.90095,-0.56001 -5.96875,-2.34375 -2.8379,-1.65006 -5.53295,-6.7108 -6.15625,-11.5625 -0.2928,-2.27971 -0.2857,-2.27506 2,-2.6875 1.6314,-0.29403 1.65625,-0.29613 1.65625,1.21875 0,2.18386 0.65135,2.30038 1.90625,0.3125 1.3206,-2.09194 2.95295,-2.65322 7.71875,-2.65625 2.6668,-0.002 3.50735,0.168 4.40625,0.875 0.7074,0.55643 2.22745,1.00782 4.15625,1.25 1.6744,0.21025 3.27515,0.52924 3.53125,0.6875 0.7941,0.4908 0.50035,1.52979 -1.15625,4.3125 -1.4569,2.44708 -1.61515,2.99202 -1.78125,6.5625 -0.2119,4.55994 0.2868,6.33294 1.75,6.3125 0.9154,-0.0129 0.92295,-0.0592 0.21875,-0.59375 -1.1598,-0.88041 -1.06905,-6.44023 0.15625,-9.25 1.7835,-4.08984 3.449,-6.19729 5.0625,-6.5 1.9679,-0.36918 4.18075,0.03 6.28125,1.125 0.9475,0.49381 1.91465,0.77425 2.15625,0.625 0.613,-0.37891 -1.2045,-2.26434 -3.1875,-3.28125 -2.0432,-1.04772 -2.1007,-1.71875 -0.125,-1.71875 1.8766,0 1.9946,-0.66562 0.1875,-1.0625 -0.8743,-0.19203 -1.4734,-0.67882 -1.75,-1.40625 -0.4844,-1.2743 -0.86595,-1.04314 -1.53125,0.90625 -0.8011,2.34683 -2.02695,2.69901 -7.34375,2.1875 -4.6886,-0.45107 -6.01535,-0.97679 -5.21875,-2.0625 1.852,-2.52401 2.01905,-2.92009 1.59375,-3.4375 -0.2765,-0.33651 -0.33335,-1.83758 -0.15625,-4 0.2845,-3.47471 0.27865,-3.47505 1.90625,-4.34375 1.1418,-0.60936 1.625,-1.18946 1.625,-1.875 8e-4,-1.19668 -0.21885,-1.20652 -1.59375,-0.125 -1.1797,0.92795 -1.97355,0.78331 -3.46875,-0.5625 -1.4347,-1.29131 -1.6786,-0.60549 -0.625,1.84375 0.5111,1.18818 0.9375,2.9427 0.9375,3.90625 0,2.1918 -1.4856,6.19472 -2.6875,7.28125 -1.9111,1.72785 -8.85825,0.39169 -11.46875,-2.21875 -2.4637,-2.46373 -2.95875,-1.8203 -1.46875,1.84375 0.3125,0.76847 0.44465,1.52413 0.28125,1.6875 -0.1633,0.16341 -1.2594,0.38675 -2.4375,0.5 -2.702,0.25964 -2.9265,-0.082 -3.5,-5.6875 -0.4519,-4.41671 -0.30325,-5.64737 1.28125,-9.34375 1.1212,-2.61588 2.89825,-4.12697 6.40625,-5.53125 3.738,-1.4964 6.1759,-2.073 9.9375,-2.15625 z" />
  </g>
</svg>
