<?xml version="1.0" encoding="UTF-8" standalone="no"?>
<!-- Created with Inkscape (http://www.inkscape.org/) -->

<svg
   xmlns:dc="http://purl.org/dc/elements/1.1/"
   xmlns:cc="http://creativecommons.org/ns#"
   xmlns:rdf="http://www.w3.org/1999/02/22-rdf-syntax-ns#"
   xmlns:svg="http://www.w3.org/2000/svg"
   xmlns="http://www.w3.org/2000/svg"
   xmlns:sodipodi="http://sodipodi.sourceforge.net/DTD/sodipodi-0.dtd"
   xmlns:inkscape="http://www.inkscape.org/namespaces/inkscape"
   width="900"
   height="800"
   id="svg2"
   version="1.1"
   inkscape:version="0.48+devel r11738"
   sodipodi:docname="m14.svg">
  <defs
     id="defs4" />
  <sodipodi:namedview
     id="base"
     pagecolor="#ffffff"
     bordercolor="#666666"
     borderopacity="1.0"
     inkscape:pageopacity="0.0"
     inkscape:pageshadow="2"
     inkscape:zoom="2"
     inkscape:cx="743.80335"
     inkscape:cy="557.19879"
     inkscape:document-units="px"
     inkscape:current-layer="layer1"
     showgrid="false"
     showguides="true"
     inkscape:guide-bbox="true"
     inkscape:window-width="1366"
     inkscape:window-height="705"
     inkscape:window-x="-4"
     inkscape:window-y="-4"
     inkscape:window-maximized="1"
     width="0px"
     height="0px"
     fit-margin-top="0"
     fit-margin-left="0"
     fit-margin-right="0"
     fit-margin-bottom="0">
    <sodipodi:guide
       orientation="1,0"
       position="450,784"
       id="guide3178" />
    <sodipodi:guide
       orientation="0,1"
       position="-61,400"
       id="guide3180" />
  </sodipodi:namedview>
  <metadata
     id="metadata7">
    <rdf:RDF>
      <cc:Work
         rdf:about="">
        <dc:format>image/svg+xml</dc:format>
        <dc:type
           rdf:resource="http://purl.org/dc/dcmitype/StillImage" />
        <dc:title></dc:title>
      </cc:Work>
    </rdf:RDF>
  </metadata>
  <g
     inkscape:label="Layer 1"
     inkscape:groupmode="layer"
     id="layer1"
     transform="translate(0,-252.36218)">
    <path
       id="rect89"
       transform="translate(0,252.36218)"
       style="fill:#ff0000;fill-opacity:1;stroke:none"
       d="m 752.375,171.5 c -5.01428,0.0489 -10.27269,1.51977 -15.34375,4.25 -4.77325,2.56993 -5.99094,3.86309 -7.59375,8.09375 -2.41081,6.36348 -2.44279,7.39363 0.125,19.03125 0.53712,2.43429 1.678,5.79554 2.46875,7.46875 0.79078,1.67323 1.94283,4.66975 2.59375,6.59375 1.5164,4.48216 2.31029,5.62656 4.96875,7.3125 2.08719,1.32364 2.48337,1.40452 10.1875,1.65625 4.46212,0.14583 9.48723,0.60126 11.40625,1.03125 1.89336,0.42422 4.04253,0.85135 4.71875,0.96875 2.54055,0.44096 5.2726,-0.26644 8.125,-2.125 0.81141,-0.52871 2.0543,-1.32164 2.8125,-1.75 1.83338,-1.03569 3.07805,-2.31296 4.03125,-4.15625 0.67516,-1.30557 0.75095,-2.96119 0.5,-11.71875 -0.52831,-18.43876 -1.40505,-20.54136 -10.3125,-25.4375 -1.80506,-0.9922 -3.9816,-2.58057 -4.84375,-3.46875 -0.86212,-0.88818 -2.41808,-2.52687 -3.5,-3.65625 C 759.49089,172.22439 757.52315,171.44969 752.375,171.5 z m -2.40625,2.90625 c 0.60748,-0.0135 1.22889,-0.006 1.90625,0 6.1702,0.0584 8.55471,1.0664 11.625,4.78125 2.55955,3.09697 2.91456,3.37508 6.0625,5 4.72365,2.43827 7.17702,4.58357 8.5625,7.5625 1.21662,2.61571 1.2601,3.26248 1.3125,10.40625 0.0306,4.19242 0.22834,8.96599 0.4375,10.625 0.6549,5.19511 -1.22221,8.55666 -6.4375,11.5 -1.64804,0.93011 -3.6458,1.60952 -5.03125,1.71875 -2.64956,0.21127 -6.8075,-0.38425 -8.25,-1.15625 -0.54625,-0.29237 -1.42102,-0.51218 -1.9375,-0.5 -2.2513,0.0566 -11.51958,-0.58579 -14.3125,-1 -3.47304,-0.51512 -3.84897,-0.67092 -4.59375,-2.0625 -0.48522,-0.90665 -0.44493,-0.98182 0.59375,-0.65625 0.63179,0.19805 1.66743,0.77751 2.3125,1.28125 1.59277,1.24537 5.03503,1.24498 5.8125,0 0.52725,-0.84425 0.3392,-0.93963 -2.0625,-1.1875 -2.33794,-0.24131 -3.28192,-0.63982 -6.75,-2.65625 -3.20811,-1.86531 -6.23297,-7.57787 -6.9375,-13.0625 -0.33107,-2.57711 -0.3339,-2.59626 2.25,-3.0625 1.84419,-0.33238 1.875,-0.30625 1.875,1.40625 0,2.46874 0.73764,2.59096 2.15625,0.34375 1.49287,-2.36484 3.3312,-2.99657 8.71875,-3 3.01475,-0.002 3.95267,0.16952 4.96875,0.96875 0.79968,0.62902 2.53835,1.16373 4.71875,1.4375 1.89281,0.23768 3.6793,0.57108 3.96875,0.75 0.89773,0.55482 0.59152,1.76052 -1.28125,4.90625 -1.64688,2.76631 -1.81232,3.36998 -2,7.40625 -0.23965,5.15479 0.31463,7.17936 1.96875,7.15625 1.0348,-0.0145 1.04604,-0.0831 0.25,-0.6875 -1.31109,-0.99526 -1.19759,-7.26119 0.1875,-10.4375 2.01621,-4.62339 3.86354,-7.03281 5.6875,-7.375 2.22467,-0.41734 4.7504,0.0435 7.125,1.28125 1.07106,0.55822 2.16448,0.88747 2.4375,0.71875 0.69301,-0.42834 -1.38327,-2.56918 -3.625,-3.71875 -2.30971,-1.1844 -2.38962,-1.9375 -0.15625,-1.9375 2.12141,0 2.26161,-0.77009 0.21875,-1.21875 -0.98834,-0.21708 -1.65613,-0.74017 -1.96875,-1.5625 -0.54769,-1.44053 -0.96657,-1.20369 -1.71875,1 -0.90552,2.65298 -2.27085,3.04699 -8.28125,2.46875 -5.30031,-0.50992 -6.8381,-1.11639 -5.9375,-2.34375 2.0936,-2.85327 2.32452,-3.29008 1.84375,-3.875 -0.31256,-0.3804 -0.38765,-2.05549 -0.1875,-4.5 0.32159,-3.928 0.31631,-3.95548 2.15625,-4.9375 1.29067,-0.68885 1.8125,-1.35003 1.8125,-2.125 9.2e-4,-1.35278 -0.22698,-1.34761 -1.78125,-0.125 -1.33363,1.04901 -2.24716,0.89638 -3.9375,-0.625 -1.62179,-1.45976 -1.87857,-0.67501 -0.6875,2.09375 0.57777,1.34318 1.03125,3.31701 1.03125,4.40625 0,2.47773 -1.64135,6.99047 -3,8.21875 -2.16043,1.95325 -10.01777,0.45097 -12.96875,-2.5 -2.78512,-2.78514 -3.37194,-2.07953 -1.6875,2.0625 0.35327,0.86873 0.49721,1.72158 0.3125,1.90625 -0.18465,0.18474 -1.41822,0.46574 -2.75,0.59375 -3.0545,0.29352 -3.32041,-0.10077 -3.96875,-6.4375 -0.51079,-4.99289 -0.32243,-6.38392 1.46875,-10.5625 1.26756,-2.95713 3.25318,-4.69375 7.21875,-6.28125 C 742.94437,175.1209 745.71643,174.50036 749.96875,174.40625 Z" />
  </g>
</svg>
