<?xml version="1.0" encoding="UTF-8" standalone="no"?>
<!-- Created with Inkscape (http://www.inkscape.org/) -->

<svg
   xmlns:dc="http://purl.org/dc/elements/1.1/"
   xmlns:cc="http://creativecommons.org/ns#"
   xmlns:rdf="http://www.w3.org/1999/02/22-rdf-syntax-ns#"
   xmlns:svg="http://www.w3.org/2000/svg"
   xmlns="http://www.w3.org/2000/svg"
   xmlns:sodipodi="http://sodipodi.sourceforge.net/DTD/sodipodi-0.dtd"
   xmlns:inkscape="http://www.inkscape.org/namespaces/inkscape"
   width="800"
   height="700"
   id="svg2"
   version="1.1"
   inkscape:version="0.48.2 r9819"
   sodipodi:docname="f14.svg">
  <defs
     id="defs4" />
  <sodipodi:namedview
     id="base"
     pagecolor="#ffffff"
     bordercolor="#666666"
     borderopacity="1.0"
     inkscape:pageopacity="0.0"
     inkscape:pageshadow="2"
     inkscape:zoom="4"
     inkscape:cx="721.1799"
     inkscape:cy="511.77149"
     inkscape:document-units="px"
     inkscape:current-layer="layer1"
     showgrid="false"
     showguides="true"
     inkscape:guide-bbox="true"
     inkscape:window-width="1366"
     inkscape:window-height="746"
     inkscape:window-x="-8"
     inkscape:window-y="-8"
     inkscape:window-maximized="1"
     width="0px"
     height="0px"
     fit-margin-top="0"
     fit-margin-left="0"
     fit-margin-right="0"
     fit-margin-bottom="0">
    <sodipodi:guide
       orientation="1,0"
       position="400.22244,349.31075"
       id="guide3178" />
    <sodipodi:guide
       orientation="0,1"
       position="400.22244,349.31075"
       id="guide3180" />
  </sodipodi:namedview>
  <metadata
     id="metadata7">
    <rdf:RDF>
      <cc:Work
         rdf:about="">
        <dc:format>image/svg+xml</dc:format>
        <dc:type
           rdf:resource="http://purl.org/dc/dcmitype/StillImage" />
        <dc:title></dc:title>
      </cc:Work>
    </rdf:RDF>
  </metadata>
  <g
     inkscape:label="Layer 1"
     inkscape:groupmode="layer"
     id="layer1"
     transform="translate(0,-352.36218)">
    <path
       id="rect3063"
       transform="translate(0,352.36218)"
       style="fill:#ff0000"
       d="m 666.5,151.6875 c -4.43564,0.0433 -9.07663,1.33483 -13.5625,3.75 -4.22243,2.27336 -5.30089,3.41382 -6.71875,7.15625 -2.1326,5.62915 -2.14647,6.5491 0.125,16.84375 0.47514,2.15337 1.45676,5.11362 2.15625,6.59375 0.69953,1.48015 1.7367,4.11054 2.3125,5.8125 1.34141,3.96493 2.02332,5.00861 4.375,6.5 1.84633,1.1709 2.21617,1.21482 9.03125,1.4375 3.94719,0.12899 8.39618,0.55713 10.09375,0.9375 1.67487,0.37527 3.55808,0.73991 4.15625,0.84375 2.24737,0.39009 4.66426,-0.23092 7.1875,-1.875 0.71776,-0.4677 1.8293,-1.15233 2.5,-1.53125 1.62181,-0.91618 2.7193,-2.05691 3.5625,-3.6875 0.59726,-1.1549 0.65949,-2.62806 0.4375,-10.375 -0.46734,-16.31096 -1.21421,-18.16888 -9.09375,-22.5 -1.59676,-0.87771 -3.54984,-2.27682 -4.3125,-3.0625 -0.76263,-0.78569 -2.13667,-2.21969 -3.09375,-3.21875 -2.85535,-2.98053 -4.6022,-3.6695 -9.15625,-3.625 z m -2.125,2.5625 c 0.53738,-0.012 1.08831,-0.006 1.6875,0 5.45818,0.0517 7.56526,0.93258 10.28125,4.21875 2.26418,2.73958 2.59032,3.00009 5.375,4.4375 4.17854,2.15689 6.33689,4.05232 7.5625,6.6875 1.07622,2.31387 1.1099,2.89938 1.15625,9.21875 0.0272,3.70862 0.22122,7.90744 0.40625,9.375 0.57931,4.5956 -1.07404,7.58383 -5.6875,10.1875 -1.45784,0.82277 -3.24316,1.40338 -4.46875,1.5 -2.34379,0.18688 -6.00521,-0.31708 -7.28125,-1 -0.48322,-0.25863 -1.26188,-0.44828 -1.71875,-0.4375 -1.99151,0.0501 -10.21688,-0.53984 -12.6875,-0.90625 -3.07225,-0.45568 -3.40367,-0.61275 -4.0625,-1.84375 -0.42923,-0.80202 -0.35632,-0.8505 0.5625,-0.5625 0.55887,0.1752 1.46062,0.71065 2.03125,1.15625 1.40896,1.10166 4.43725,1.10132 5.125,0 0.46642,-0.74682 0.31206,-0.84325 -1.8125,-1.0625 -2.06813,-0.21346 -2.90089,-0.56001 -5.96875,-2.34375 -2.83792,-1.65006 -5.53301,-6.7108 -6.15625,-11.5625 -0.29286,-2.27971 -0.28571,-2.27506 2,-2.6875 1.63138,-0.29403 1.65625,-0.29613 1.65625,1.21875 0,2.18386 0.65136,2.26913 1.90625,0.28125 1.3206,-2.09194 2.95291,-2.62197 7.71875,-2.625 2.66684,-0.002 3.50742,0.13675 4.40625,0.84375 0.7074,0.55643 2.22747,1.03907 4.15625,1.28125 1.67439,0.21025 3.27521,0.49799 3.53125,0.65625 0.79414,0.4908 0.53167,1.56104 -1.125,4.34375 -1.45682,2.44708 -1.61523,2.99202 -1.78125,6.5625 -0.21198,4.55994 0.28676,6.33294 1.75,6.3125 0.91538,-0.0129 0.92292,-0.0592 0.21875,-0.59375 -1.15981,-0.88041 -1.069,-6.44023 0.15625,-9.25 1.78354,-4.08984 3.41777,-6.19729 5.03125,-6.5 1.96794,-0.36918 4.18068,-0.001 6.28125,1.09375 0.94745,0.49381 1.94598,0.8055 2.1875,0.65625 0.61302,-0.37891 -1.23571,-2.26434 -3.21875,-3.28125 -2.04318,-1.04772 -2.10066,-1.71875 -0.125,-1.71875 1.87658,0 1.99462,-0.66562 0.1875,-1.0625 -0.87429,-0.19203 -1.47345,-0.67882 -1.75,-1.40625 -0.48449,-1.2743 -0.86589,-1.07439 -1.53125,0.875 -0.80102,2.34683 -1.9957,2.73026 -7.3125,2.21875 -4.68866,-0.45107 -6.04666,-1.00804 -5.25,-2.09375 1.85201,-2.52401 2.05029,-2.88884 1.625,-3.40625 -0.27649,-0.33651 -0.33331,-1.83758 -0.15625,-4 0.28448,-3.47471 0.27865,-3.5063 1.90625,-4.375 1.14173,-0.60936 1.59375,-1.15821 1.59375,-1.84375 8.2e-4,-1.19668 -0.18759,-1.23777 -1.5625,-0.15625 -1.17972,0.92795 -2.00472,0.81456 -3.5,-0.53125 -1.43465,-1.29131 -1.64737,-0.60549 -0.59375,1.84375 0.51109,1.18818 0.90625,2.9427 0.90625,3.90625 0,2.1918 -1.45436,6.19472 -2.65625,7.28125 -1.91111,1.72785 -8.8583,0.39169 -11.46875,-2.21875 -2.46371,-2.46373 -2.99006,-1.8203 -1.5,1.84375 0.31251,0.76847 0.44464,1.49288 0.28125,1.65625 -0.16335,0.16341 -1.25942,0.418 -2.4375,0.53125 -2.70202,0.25964 -2.92647,-0.082 -3.5,-5.6875 -0.45185,-4.41671 -0.27197,-5.64737 1.3125,-9.34375 1.12128,-2.61588 2.86706,-4.15822 6.375,-5.5625 3.73799,-1.4964 6.17588,-2.04175 9.9375,-2.125 z" />
  </g>
</svg>
