<?xml version="1.0" encoding="UTF-8" standalone="no"?>
<!-- Created with Inkscape (http://www.inkscape.org/) -->

<svg
   xmlns:dc="http://purl.org/dc/elements/1.1/"
   xmlns:cc="http://creativecommons.org/ns#"
   xmlns:rdf="http://www.w3.org/1999/02/22-rdf-syntax-ns#"
   xmlns:svg="http://www.w3.org/2000/svg"
   xmlns="http://www.w3.org/2000/svg"
   xmlns:sodipodi="http://sodipodi.sourceforge.net/DTD/sodipodi-0.dtd"
   xmlns:inkscape="http://www.inkscape.org/namespaces/inkscape"
   width="800"
   height="700"
   id="svg2"
   version="1.1"
   inkscape:version="0.48.2 r9819"
   sodipodi:docname="m6-fill.svg">
  <defs
     id="defs4" />
  <sodipodi:namedview
     id="base"
     pagecolor="#ffffff"
     bordercolor="#666666"
     borderopacity="1.0"
     inkscape:pageopacity="0.0"
     inkscape:pageshadow="2"
     inkscape:zoom="5"
     inkscape:cx="338.45527"
     inkscape:cy="542.43734"
     inkscape:document-units="px"
     inkscape:current-layer="layer1"
     showgrid="false"
     showguides="true"
     inkscape:guide-bbox="true"
     inkscape:window-width="1024"
     inkscape:window-height="538"
     inkscape:window-x="-8"
     inkscape:window-y="-8"
     inkscape:window-maximized="1"
     width="0px"
     height="0px"
     fit-margin-top="0"
     fit-margin-left="0"
     fit-margin-right="0"
     fit-margin-bottom="0">
    <sodipodi:guide
       orientation="1,0"
       position="400.22244,349.31075"
       id="guide3178" />
    <sodipodi:guide
       orientation="0,1"
       position="400.22244,349.31075"
       id="guide3180" />
  </sodipodi:namedview>
  <metadata
     id="metadata7">
    <rdf:RDF>
      <cc:Work
         rdf:about="">
        <dc:format>image/svg+xml</dc:format>
        <dc:type
           rdf:resource="http://purl.org/dc/dcmitype/StillImage" />
        <dc:title />
      </cc:Work>
    </rdf:RDF>
  </metadata>
  <g
     inkscape:label="Layer 1"
     inkscape:groupmode="layer"
     id="layer1"
     transform="translate(0,-352.36218)">
    <path
       id="rect3507"
       transform="translate(0,352.36218)"
       style="fill:#00ff00"
       d="m 284.21875,141 c -0.755,0.038 -1.53087,0.27352 -2.5625,0.625 -2.45205,0.8355 -4.81301,2.9237 -6.03125,5.3125 -0.51995,1.01951 -1.51693,2.30801 -2.1875,2.84375 -1.29037,1.03083 -4.75815,5.26973 -4.78125,5.84375 -0.007,0.18647 -0.50523,1.3037 -1.09375,2.5 -1.35738,2.75941 -1.40978,5.7543 -0.15625,8.34375 0.58488,1.20818 2.33368,3.1896 4.875,5.4375 2.18814,1.9355 4.49559,4.08281 5.09375,4.75 1.55618,1.73583 5.22845,3.8649 6.65625,3.875 0.66987,0.005 1.85925,-0.325 2.625,-0.71875 3.18431,-1.63739 5.31354,-4.08146 7,-7.96875 0.46712,-1.07671 1.95971,-3.61866 3.28125,-5.625 2.3312,-3.53917 2.3879,-3.7238 2.3125,-6.4375 -0.0872,-3.13521 -1.5606,-8.58395 -3.03125,-11.21875 -1.44968,-2.59722 -3.8994,-4.67253 -7.34375,-6.21875 -2.1751,-0.97643 -3.39793,-1.40725 -4.65625,-1.34375 z m -0.1875,12.1875 c 0.27045,-0.0242 0.28125,0.094 0.28125,0.375 0,0.23926 -0.26416,0.4375 -0.59375,0.4375 -0.32959,0 -0.78558,0.26002 -1.0625,0.59375 -0.51986,0.62635 -2.17468,1.01329 -5.9375,1.40625 -2.00369,0.20928 -2.09705,0.18768 -1.28125,-0.40625 0.48705,-0.3546 1.84346,-0.77725 3.03125,-0.9375 1.1878,-0.16024 2.87914,-0.56558 3.78125,-0.90625 0.97579,-0.36848 1.51082,-0.5385 1.78125,-0.5625 z m 7.28125,2.25 c 1.06995,-0.0437 1.5458,0.15363 2.34375,0.78125 1.29104,1.01553 2.40625,3.24815 2.40625,4.75 0,1.28141 -1.98777,4.12266 -3.375,4.8125 -1.29504,0.64401 -4.23127,3.50516 -4.625,4.53125 -0.30174,0.78619 -1.08324,0.83971 -1.3125,0.0937 -0.0921,-0.29911 -0.27767,-1.55635 -0.40625,-2.8125 -0.24232,-2.36748 -0.004,-2.66309 1.40625,-1.78125 1.14226,0.71333 2.80254,0.15807 4.59375,-1.53125 1.2802,-1.20737 1.53125,-1.74531 1.53125,-3.1875 0,-2.55518 -1.05152,-3.67221 -3.8125,-3.9375 -1.2397,-0.11929 -2.48092,-0.0144 -2.78125,0.21875 -0.84519,0.65595 -5.18831,1.93667 -5.5,1.625 -0.78692,-0.78692 4.44719,-2.9787 8.21875,-3.4375 0.52456,-0.0636 0.95585,-0.1104 1.3125,-0.125 z m -13.78125,2.90625 c 4.13716,0.0137 4.33234,1.25307 0.21875,1.40625 -1.28075,0.0478 -2.96106,0.31786 -3.71875,0.625 -1.55819,0.6317 -3.1875,2.65625 -3.1875,3.96875 0,1.07518 1.37213,3.5525 1.96875,3.5625 0.23924,0.004 1.39742,0.50527 2.59375,1.09375 2.64593,1.30158 2.8125,1.33903 2.8125,0.28125 0,-0.87994 1.99558,-3.53125 2.65625,-3.53125 0.21415,0 0.20442,0.50554 -0.0312,1.125 -0.23333,0.61372 -0.4375,2.14552 -0.4375,3.4375 0,1.87716 -0.17128,2.45261 -0.84375,2.8125 -1.08676,0.5817 -0.8156,0.7038 -3.09375,-1.40625 -1.09186,-1.01138 -3.12151,-2.70507 -4.5,-3.75 -3.30414,-2.50459 -3.67443,-3.38051 -2.53125,-5.8125 1.1914,-2.53457 3.92101,-3.825 8.09375,-3.8125 z" />
  </g>
</svg>
