<?xml version="1.0" encoding="UTF-8" standalone="no"?>
<!-- Created with Inkscape (http://www.inkscape.org/) -->

<svg
   xmlns:dc="http://purl.org/dc/elements/1.1/"
   xmlns:cc="http://creativecommons.org/ns#"
   xmlns:rdf="http://www.w3.org/1999/02/22-rdf-syntax-ns#"
   xmlns:svg="http://www.w3.org/2000/svg"
   xmlns="http://www.w3.org/2000/svg"
   xmlns:sodipodi="http://sodipodi.sourceforge.net/DTD/sodipodi-0.dtd"
   xmlns:inkscape="http://www.inkscape.org/namespaces/inkscape"
   width="800"
   height="700"
   id="svg2"
   version="1.1"
   inkscape:version="0.48.2 r9819"
   sodipodi:docname="m6.svg">
  <defs
     id="defs4" />
  <sodipodi:namedview
     id="base"
     pagecolor="#ffffff"
     bordercolor="#666666"
     borderopacity="1.0"
     inkscape:pageopacity="0.0"
     inkscape:pageshadow="2"
     inkscape:zoom="5"
     inkscape:cx="338.45527"
     inkscape:cy="510.43734"
     inkscape:document-units="px"
     inkscape:current-layer="layer1"
     showgrid="false"
     showguides="true"
     inkscape:guide-bbox="true"
     inkscape:window-width="1366"
     inkscape:window-height="746"
     inkscape:window-x="-8"
     inkscape:window-y="-8"
     inkscape:window-maximized="1"
     width="0px"
     height="0px"
     fit-margin-top="0"
     fit-margin-left="0"
     fit-margin-right="0"
     fit-margin-bottom="0">
    <sodipodi:guide
       orientation="1,0"
       position="400.22244,349.31075"
       id="guide3178" />
    <sodipodi:guide
       orientation="0,1"
       position="400.22244,349.31075"
       id="guide3180" />
  </sodipodi:namedview>
  <metadata
     id="metadata7">
    <rdf:RDF>
      <cc:Work
         rdf:about="">
        <dc:format>image/svg+xml</dc:format>
        <dc:type
           rdf:resource="http://purl.org/dc/dcmitype/StillImage" />
        <dc:title></dc:title>
      </cc:Work>
    </rdf:RDF>
  </metadata>
  <g
     inkscape:label="Layer 1"
     inkscape:groupmode="layer"
     id="layer1"
     transform="translate(0,-352.36218)">
    <path
       style="fill:#ff0000"
       d="m 284.21875,493.36218 c 1.25832,-0.0635 2.48115,0.36732 4.65625,1.34375 3.44435,1.54622 5.89407,3.62153 7.34375,6.21875 1.47065,2.6348 2.94406,8.08354 3.03125,11.21875 0.0754,2.7137 0.0187,2.89833 -2.3125,6.4375 -1.32154,2.00634 -2.81413,4.54829 -3.28125,5.625 -1.68646,3.88729 -3.81569,6.33136 -7,7.96875 -0.76575,0.39375 -1.95513,0.7233 -2.625,0.71875 -1.4278,-0.0101 -5.10007,-2.13917 -6.65625,-3.875 -0.59816,-0.66719 -2.90561,-2.8145 -5.09375,-4.75 -2.54132,-2.2479 -4.29012,-4.22932 -4.875,-5.4375 -1.25353,-2.58945 -1.20113,-5.58434 0.15625,-8.34375 0.58852,-1.1963 1.08663,-2.31353 1.09375,-2.5 0.0231,-0.57402 3.49088,-4.81292 4.78125,-5.84375 0.67057,-0.53574 1.66755,-1.82424 2.1875,-2.84375 1.21824,-2.3888 3.5792,-4.477 6.03125,-5.3125 1.03163,-0.35148 1.8075,-0.58698 2.5625,-0.625 z"
       id="path3159" />
    <path
       style="fill:#ff0000"
       d="m 284.03125,505.54968 c -0.27043,0.024 -0.80546,0.19402 -1.78125,0.5625 -0.90211,0.34067 -2.59345,0.74601 -3.78125,0.90625 -1.18779,0.16025 -2.5442,0.5829 -3.03125,0.9375 -0.8158,0.59393 -0.72244,0.61553 1.28125,0.40625 3.76282,-0.39296 5.41764,-0.7799 5.9375,-1.40625 0.27692,-0.33373 0.73291,-0.59375 1.0625,-0.59375 0.32959,0 0.59375,-0.19824 0.59375,-0.4375 0,-0.28103 -0.0108,-0.39921 -0.28125,-0.375 z"
       id="path3157" />
    <path
       style="fill:#ff0000"
       d="m 291.3125,507.79968 c -0.35665,0.0146 -0.78794,0.0614 -1.3125,0.125 -3.77156,0.4588 -9.00567,2.65058 -8.21875,3.4375 0.31169,0.31167 4.65481,-0.96905 5.5,-1.625 0.30033,-0.23319 1.54155,-0.33804 2.78125,-0.21875 2.76098,0.26529 3.8125,1.38232 3.8125,3.9375 0,1.44219 -0.25105,1.98013 -1.53125,3.1875 -1.79121,1.68932 -3.45149,2.24458 -4.59375,1.53125 -1.41067,-0.88184 -1.64857,-0.58623 -1.40625,1.78125 0.12858,1.25615 0.31419,2.51339 0.40625,2.8125 0.22926,0.74596 1.01076,0.69249 1.3125,-0.0937 0.39373,-1.02609 3.32996,-3.88724 4.625,-4.53125 1.38723,-0.68984 3.375,-3.53109 3.375,-4.8125 0,-1.50185 -1.11521,-3.73447 -2.40625,-4.75 -0.79795,-0.62762 -1.2738,-0.8249 -2.34375,-0.78125 z"
       id="path3155" />
    <path
       style="fill:#ff0000"
       d="m 277.53125,510.70593 c -4.17274,-0.0125 -6.90235,1.27793 -8.09375,3.8125 -1.14318,2.43199 -0.77289,3.30791 2.53125,5.8125 1.37849,1.04493 3.40814,2.73862 4.5,3.75 2.27815,2.11005 2.00699,1.98795 3.09375,1.40625 0.67247,-0.35989 0.84375,-0.93534 0.84375,-2.8125 0,-1.29198 0.20417,-2.82378 0.4375,-3.4375 0.23567,-0.61946 0.24535,-1.125 0.0312,-1.125 -0.66067,0 -2.65625,2.65131 -2.65625,3.53125 0,1.05778 -0.16657,1.02033 -2.8125,-0.28125 -1.19633,-0.58848 -2.35451,-1.0897 -2.59375,-1.09375 -0.59662,-0.01 -1.96875,-2.48732 -1.96875,-3.5625 0,-1.3125 1.62931,-3.33705 3.1875,-3.96875 0.75769,-0.30714 2.438,-0.57725 3.71875,-0.625 4.11359,-0.15318 3.91841,-1.39252 -0.21875,-1.40625 z"
       id="rect3078" />
  </g>
</svg>
