<?xml version="1.0" encoding="UTF-8" standalone="no"?>
<!-- Created with Inkscape (http://www.inkscape.org/) -->

<svg
   xmlns:dc="http://purl.org/dc/elements/1.1/"
   xmlns:cc="http://creativecommons.org/ns#"
   xmlns:rdf="http://www.w3.org/1999/02/22-rdf-syntax-ns#"
   xmlns:svg="http://www.w3.org/2000/svg"
   xmlns="http://www.w3.org/2000/svg"
   xmlns:sodipodi="http://sodipodi.sourceforge.net/DTD/sodipodi-0.dtd"
   xmlns:inkscape="http://www.inkscape.org/namespaces/inkscape"
   width="800"
   height="700"
   id="svg2"
   version="1.1"
   inkscape:version="0.48.2 r9819"
   sodipodi:docname="l21.svg">
  <defs
     id="defs4" />
  <sodipodi:namedview
     id="base"
     pagecolor="#ffffff"
     bordercolor="#666666"
     borderopacity="1.0"
     inkscape:pageopacity="0.0"
     inkscape:pageshadow="2"
     inkscape:zoom="2.5"
     inkscape:cx="367.87013"
     inkscape:cy="228.85406"
     inkscape:document-units="px"
     inkscape:current-layer="layer1"
     showgrid="false"
     showguides="true"
     inkscape:guide-bbox="true"
     inkscape:window-width="1366"
     inkscape:window-height="746"
     inkscape:window-x="-8"
     inkscape:window-y="-8"
     inkscape:window-maximized="1"
     width="0px"
     height="0px"
     fit-margin-top="0"
     fit-margin-left="0"
     fit-margin-right="0"
     fit-margin-bottom="0">
    <sodipodi:guide
       orientation="1,0"
       position="400.22244,349.31075"
       id="guide3178" />
    <sodipodi:guide
       orientation="0,1"
       position="400.22244,349.31075"
       id="guide3180" />
  </sodipodi:namedview>
  <metadata
     id="metadata7">
    <rdf:RDF>
      <cc:Work
         rdf:about="">
        <dc:format>image/svg+xml</dc:format>
        <dc:type
           rdf:resource="http://purl.org/dc/dcmitype/StillImage" />
        <dc:title></dc:title>
      </cc:Work>
    </rdf:RDF>
  </metadata>
  <g
     inkscape:label="Layer 1"
     inkscape:groupmode="layer"
     id="layer1"
     transform="translate(0,-352.36218)">
    <path
       id="rect3266"
       transform="translate(0,352.36218)"
       style="fill:#ff0000"
       d="m 264.96875,398.46875 c -1.45097,0.0299 -2.75751,1.35495 -3.53125,3.9375 -0.5733,1.91351 0.21059,11.83012 1,12.78125 1.80382,2.1735 2.65701,18.91648 1.46875,28.6875 -0.32008,2.63194 -0.71598,7.82257 -0.875,11.53125 -0.15899,3.70857 -0.35753,6.83441 -0.4375,6.96875 -0.0798,0.13456 -0.17535,2.49263 -0.21875,5.21875 -0.0791,4.96623 -0.25981,5.84595 -3.28125,16.28125 -0.95868,3.31104 -1.24909,8.48312 -0.59375,10.46875 1.13995,3.45404 8.91103,12.35508 12.0625,13.8125 0.53834,0.24899 1,0.61172 1,0.8125 0,0.2008 0.25479,0.375 0.59375,0.375 0.33897,0 0.67013,0.16811 0.75,0.375 0.0797,0.2069 0.91793,0.78097 1.875,1.28125 2.90021,1.51594 4.46109,1.25245 8.34375,-1.375 2.2685,-1.53526 3.83313,-2.96931 4.625,-4.25 1.40014,-2.26479 2.62436,-6.60112 2.3125,-8.1875 -0.12033,-0.61204 -0.26473,-2.11614 -0.3125,-3.3125 -0.0476,-1.19626 -0.25353,-2.50571 -0.46875,-2.9375 -0.21521,-0.43167 -0.58744,-1.94609 -0.8125,-3.34375 -0.22505,-1.39745 -0.67503,-3.09817 -1.03125,-3.78125 -0.35624,-0.683 -0.68648,-1.53042 -0.6875,-1.875 -0.004,-0.60607 -1.92604,-7.13732 -2.625,-8.90625 -2.04219,-5.16844 -2.55724,-9.01048 -3,-22 -0.54162,-15.88926 -1.51048,-23.27112 -4,-30.875 -0.74419,-2.27305 -1.50925,-4.33519 -1.71875,-4.5625 -0.20949,-0.22729 -0.40625,-0.72411 -0.40625,-1.125 0,-0.87615 -3.52765,-8.73827 -5.5,-12.21875 -1.43761,-2.53684 -3.08027,-3.81128 -4.53125,-3.78125 z m 0.40625,1.84375 c 1.37249,0.0967 3.08932,2.2971 4.625,5.9375 0.65608,1.55524 1.47589,3.46427 1.8125,4.25 0.33664,0.78574 0.59375,1.66852 0.59375,1.96875 0,0.30018 0.34027,1.26009 0.78125,2.125 0.44099,0.86497 1.06105,2.52789 1.375,3.6875 0.31396,1.15956 0.77421,2.30789 0.96875,2.5625 0.55876,0.73134 1.71975,5.7889 2.125,9.125 0.20344,1.67486 0.57199,7.82549 0.8125,13.6875 0.51273,12.49697 1.18396,20.53833 1.875,22.5 0.27174,0.77146 0.35974,1.54649 0.1875,1.71875 -0.17221,0.17223 -1.4171,-0.23129 -2.75,-0.90625 -2.11407,-1.07055 -2.73042,-1.20503 -4.875,-0.96875 -2.16242,0.23809 -2.65939,0.48596 -4.0625,2.03125 -0.87731,0.9663 -2.51711,3.51117 -3.625,5.65625 -2.79431,5.41034 -2.91251,5.22099 -1.46875,-1.625 0.68565,-3.25059 0.84607,-5.13319 0.65625,-7.8125 -0.14019,-1.97872 0.0363,-6.57487 0.40625,-10.4375 0.36366,-3.79589 0.67297,-7.89552 0.6875,-9.09375 0.0148,-1.19823 0.22293,-2.94919 0.46875,-3.90625 0.24574,-0.95706 0.42688,-5.12535 0.40625,-9.3125 -0.0347,-7.11082 -0.13445,-7.98344 -1.40625,-12.65625 -1.85019,-6.79784 -2.07628,-8.04319 -2.1875,-12 -0.10142,-3.60825 0.61485,-5.86272 2.03125,-6.40625 0.0901,-0.0345 0.18705,-0.0808 0.28125,-0.0937 0.0883,-0.0122 0.18975,-0.0377 0.28125,-0.0312 z m 7.28125,66.875 c 2.26508,0.008 4.89352,1.3286 7.25,3.71875 1.6191,1.64227 2.08825,2.56249 3.09375,5.9375 0.65583,2.20128 1.70262,5.45552 2.28125,7.25 2.47832,7.68585 3.35855,14.65949 2.34375,18.3125 -0.54337,1.95608 -2.16521,3.7533 -5.21875,5.75 -3.27135,2.1393 -5.70651,2.45843 -6.96875,0.9375 -0.28596,-0.34449 -0.78808,-0.625 -1.09375,-0.625 -0.47012,0 -6.64587,-4.69305 -8.34375,-6.34375 -0.2978,-0.28972 -0.99161,-0.8993 -1.53125,-1.34375 -1.78668,-1.47146 -2.55685,-2.65024 -3.84375,-5.8125 -1.85419,-4.55639 -1.63433,-6.38196 1.25,-11.5 0.48856,-0.86679 1.60202,-3.32266 3.78125,-8.28125 1.73657,-3.95151 3.71602,-7.03451 4.875,-7.5625 0.64845,-0.29548 1.36997,-0.44038 2.125,-0.4375 z m -2.09375,9.15625 c -0.55315,0.0172 -0.90097,0.41811 -1.375,1.53125 -0.38742,0.90981 -1.17971,2.4492 -1.78125,3.40625 -3.14321,5.00077 -4.77484,10.97625 -3.9375,14.3125 0.1537,0.61233 0.48093,1.12511 0.75,1.125 0.34538,0 0.39006,-1.00859 0.1875,-3.4375 -0.15782,-1.89296 -0.12973,-3.51247 0.0625,-3.59375 0.43951,-0.18546 2.19693,-3.19069 4.28125,-7.34375 l 1.59375,-3.1875 1.15625,3.46875 c 0.62507,1.90057 1.27519,3.70091 1.46875,4 0.6,0.92715 1.3125,0.58565 1,-0.46875 -0.15954,-0.53847 -0.34692,-1.13579 -0.40625,-1.375 -0.0593,-0.23931 -0.38792,-0.93312 -0.71875,-1.53125 -0.33086,-0.59811 -0.70756,-2.38232 -0.84375,-3.9375 -0.21509,-2.45553 -0.38647,-2.85443 -1.1875,-2.96875 -0.0887,-0.0127 -0.17098,-0.002 -0.25,0 z M 278.5,477.25 c -0.51622,0.0913 -0.90059,0.6678 -0.84375,1.53125 0.0433,0.65849 0.0431,1.28653 0,1.40625 -0.0432,0.11959 -0.15613,0.62942 -0.25,1.125 -0.0938,0.4954 -0.47828,1.48653 -0.84375,2.1875 -0.69134,1.32571 -0.91123,3.65625 -0.34375,3.65625 0.57373,-0.005 1.94481,-2.76875 2.15625,-4.34375 0.34581,-2.57582 0.81096,-2.3859 2.03125,0.90625 1.56494,4.22196 2.4374,8.96616 2.4375,13.3125 8e-5,3.18462 -0.11697,3.80659 -1.28125,5.78125 -0.71779,1.2173 -1.31352,2.43024 -1.3125,2.71875 0.004,0.68419 2.13564,-1.88109 2.15625,-2.59375 0.008,-0.29916 0.16753,-0.5625 0.375,-0.5625 0.20746,0 0.89333,-0.78604 1.53125,-1.75 1.26911,-1.91774 1.26578,-2.30284 -0.375,-9.96875 -0.3329,-1.55518 -0.71359,-3.53757 -0.875,-4.375 -0.16142,-0.83745 -0.45237,-1.72954 -0.625,-1.96875 -0.1727,-0.23933 -0.80915,-1.69483 -1.375,-3.25 -0.56584,-1.55519 -1.2458,-3.08401 -1.5625,-3.40625 -0.33076,-0.33655 -0.69028,-0.46099 -1,-0.40625 z" />
  </g>
</svg>
