<?xml version="1.0" encoding="UTF-8" standalone="no"?>
<!-- Created with Inkscape (http://www.inkscape.org/) -->

<svg
   xmlns:dc="http://purl.org/dc/elements/1.1/"
   xmlns:cc="http://creativecommons.org/ns#"
   xmlns:rdf="http://www.w3.org/1999/02/22-rdf-syntax-ns#"
   xmlns:svg="http://www.w3.org/2000/svg"
   xmlns="http://www.w3.org/2000/svg"
   xmlns:sodipodi="http://sodipodi.sourceforge.net/DTD/sodipodi-0.dtd"
   xmlns:inkscape="http://www.inkscape.org/namespaces/inkscape"
   width="900"
   height="800"
   id="svg2"
   version="1.1"
   inkscape:version="0.48.2 r9819"
   sodipodi:docname="l21.svg">
  <defs
     id="defs4" />
  <sodipodi:namedview
     id="base"
     pagecolor="#ffffff"
     bordercolor="#666666"
     borderopacity="1.0"
     inkscape:pageopacity="0.0"
     inkscape:pageshadow="2"
     inkscape:zoom="2"
     inkscape:cx="239.0722"
     inkscape:cy="267.35278"
     inkscape:document-units="px"
     inkscape:current-layer="layer1"
     showgrid="false"
     showguides="true"
     inkscape:guide-bbox="true"
     inkscape:window-width="1366"
     inkscape:window-height="746"
     inkscape:window-x="-8"
     inkscape:window-y="-8"
     inkscape:window-maximized="1"
     width="0px"
     height="0px"
     fit-margin-top="0"
     fit-margin-left="0"
     fit-margin-right="0"
     fit-margin-bottom="0">
    <sodipodi:guide
       orientation="1,0"
       position="450,784"
       id="guide3178" />
    <sodipodi:guide
       orientation="0,1"
       position="-61,400"
       id="guide3180" />
  </sodipodi:namedview>
  <metadata
     id="metadata7">
    <rdf:RDF>
      <cc:Work
         rdf:about="">
        <dc:format>image/svg+xml</dc:format>
        <dc:type
           rdf:resource="http://purl.org/dc/dcmitype/StillImage" />
        <dc:title></dc:title>
      </cc:Work>
    </rdf:RDF>
  </metadata>
  <g
     inkscape:label="Layer 1"
     inkscape:groupmode="layer"
     id="layer1"
     transform="translate(0,-252.36218)">
    <path
       id="rect3168"
       transform="translate(0,252.36218)"
       style="fill:#ff0000"
       d="m 298.46875,450.46875 c -1.64026,0.0339 -3.12531,1.54929 -4,4.46875 -0.64809,2.16313 0.2326,13.39353 1.125,14.46875 2.03913,2.45704 2.99953,21.36056 1.65625,32.40625 -0.36183,2.97527 -0.78898,8.83876 -0.96875,13.03125 -0.17974,4.19236 -0.4096,7.75439 -0.5,7.90625 -0.0902,0.15211 -0.20094,2.79325 -0.25,5.875 -0.0894,5.61409 -0.30317,6.60965 -3.71875,18.40625 -1.08376,3.74298 -1.42832,9.56783 -0.6875,11.8125 1.28865,3.90462 10.09365,13.97747 13.65625,15.625 0.60856,0.28146 1.125,0.71051 1.125,0.9375 0,0.22699 0.27308,0.4375 0.65625,0.4375 0.3832,0 0.78471,0.20361 0.875,0.4375 0.0901,0.23388 1.04308,0.87196 2.125,1.4375 3.27856,1.71371 5.01708,1.40771 9.40625,-1.5625 2.56443,-1.73553 4.32358,-3.36473 5.21875,-4.8125 1.5828,-2.56023 2.97754,-7.45667 2.625,-9.25 -0.13603,-0.69188 -0.28975,-2.39757 -0.34375,-3.75 -0.0538,-1.35231 -0.28795,-2.82439 -0.53125,-3.3125 -0.24329,-0.48799 -0.65182,-2.20125 -0.90625,-3.78125 -0.25441,-1.57975 -0.78482,-3.50905 -1.1875,-4.28125 -0.40271,-0.77208 -0.74885,-1.73547 -0.75,-2.125 -0.004,-0.68513 -2.20986,-8.0628 -3,-10.0625 -2.3086,-5.84268 -2.90573,-10.1597 -3.40625,-24.84375 -0.61228,-17.96206 -1.65446,-26.34167 -4.46875,-34.9375 -0.84126,-2.56957 -1.73193,-4.86804 -1.96875,-5.125 -0.23683,-0.25694 -0.4375,-0.85932 -0.4375,-1.3125 0,-0.99045 -4.02035,-9.87797 -6.25,-13.8125 -1.62516,-2.86777 -3.45349,-4.31519 -5.09375,-4.28125 z m 0.125,2.125 c 1.59756,-0.22127 3.6795,2.29785 5.53125,6.6875 0.74167,1.75812 1.68196,3.92427 2.0625,4.8125 0.38055,0.88824 0.6875,1.87936 0.6875,2.21875 0,0.33934 0.37649,1.42851 0.875,2.40625 0.49851,0.9778 1.20758,2.84537 1.5625,4.15625 0.35491,1.31083 0.84258,2.61841 1.0625,2.90625 0.63165,0.82673 1.94813,6.54119 2.40625,10.3125 0.22997,1.89335 0.66561,8.84202 0.9375,15.46875 0.57962,14.12724 1.3438,23.21992 2.125,25.4375 0.30718,0.87211 0.41346,1.77403 0.21875,1.96875 -0.19468,0.19471 -1.61822,-0.29949 -3.125,-1.0625 -2.38987,-1.21021 -3.07565,-1.32959 -5.5,-1.0625 -2.44452,0.26915 -3.00761,0.53435 -4.59375,2.28125 -0.99176,1.09234 -2.84133,3.98134 -4.09375,6.40625 -3.15884,6.11613 -3.3196,5.89533 -1.6875,-1.84375 0.77509,-3.67464 0.96459,-5.78368 0.75,-8.8125 -0.15847,-2.23685 0.0506,-7.44597 0.46875,-11.8125 0.41109,-4.29107 0.73357,-8.9267 0.75,-10.28125 0.0167,-1.35455 0.25337,-3.32434 0.53125,-4.40625 0.2778,-1.08192 0.49207,-5.82912 0.46875,-10.5625 -0.0393,-8.03844 -0.1248,-8.99885 -1.5625,-14.28125 -2.09157,-7.68465 -2.37427,-9.08952 -2.5,-13.5625 -0.11465,-4.07897 0.71132,-6.63557 2.3125,-7.25 0.10191,-0.0391 0.20601,-0.1103 0.3125,-0.125 z m 8.5625,75.5625 c 2.56056,0.009 5.5236,1.51678 8.1875,4.21875 1.83031,1.8565 2.36334,2.8722 3.5,6.6875 0.74139,2.48843 1.90838,6.22142 2.5625,8.25 2.80162,8.68848 3.80344,16.5267 2.65625,20.65625 -0.61425,2.21124 -2.45437,4.24283 -5.90625,6.5 -3.69812,2.41838 -6.4481,2.81308 -7.875,1.09375 -0.32326,-0.38943 -0.8732,-0.71875 -1.21875,-0.71875 -0.53144,0 -7.51812,-5.32146 -9.4375,-7.1875 -0.33665,-0.32752 -1.13996,-0.99755 -1.75,-1.5 -2.01975,-1.6634 -2.88896,-3.01895 -4.34375,-6.59375 -2.09608,-5.15078 -1.85435,-7.18305 1.40625,-12.96875 0.55229,-0.97988 1.81774,-3.76955 4.28125,-9.375 1.96311,-4.46699 4.22107,-7.96563 5.53125,-8.5625 0.73304,-0.33402 1.55273,-0.50324 2.40625,-0.5 z m -2.375,10.375 c -0.62531,0.0195 -0.99538,0.4604 -1.53125,1.71875 -0.43797,1.02849 -1.38249,2.76185 -2.0625,3.84375 -3.55326,5.65313 -5.38408,12.41603 -4.4375,16.1875 0.17374,0.69223 0.53958,1.28137 0.84375,1.28125 0.39044,0 0.44774,-1.12924 0.21875,-3.875 -0.1784,-2.13989 -0.15481,-3.97061 0.0625,-4.0625 0.49685,-0.20966 2.48751,-3.61765 4.84375,-8.3125 l 1.8125,-3.625 1.28125,3.9375 c 0.7066,2.14851 1.46868,4.16189 1.6875,4.5 0.67827,1.0481 1.47827,0.69195 1.125,-0.5 -0.18036,-0.60871 -0.40167,-1.29209 -0.46875,-1.5625 -0.067,-0.27054 -0.40725,-1.04258 -0.78125,-1.71875 -0.37401,-0.67614 -0.8148,-2.71068 -0.96875,-4.46875 -0.24314,-2.77585 -0.43822,-3.21452 -1.34375,-3.34375 -0.10024,-0.0143 -0.19192,-0.003 -0.28125,0 z m 8.96875,1 c -0.58356,0.10316 -1.03301,0.77392 -0.96875,1.75 0.0489,0.7444 0.0487,1.45841 0,1.59375 -0.0488,0.13519 -0.17513,0.68976 -0.28125,1.25 -0.10604,0.56001 -0.52435,1.70759 -0.9375,2.5 -0.78152,1.49865 -1.04776,4.125 -0.40625,4.125 0.64857,-0.005 2.22972,-3.15705 2.46875,-4.9375 0.39093,-2.91186 0.90176,-2.65912 2.28125,1.0625 1.76909,4.77273 2.78113,10.11792 2.78125,15.03125 8e-5,3.60007 -0.18383,4.29899 -1.5,6.53125 -0.81143,1.3761 -1.46989,2.76762 -1.46875,3.09375 0.004,0.77345 2.4142,-2.13187 2.4375,-2.9375 0.009,-0.33818 0.20296,-0.65625 0.4375,-0.65625 0.23452,0 0.99761,-0.87904 1.71875,-1.96875 1.43468,-2.16792 1.44858,-2.61529 -0.40625,-11.28125 -0.37632,-1.75806 -0.84878,-3.95957 -1.03125,-4.90625 -0.18246,-0.94669 -0.4611,-1.94834 -0.65625,-2.21875 -0.19523,-0.27055 -0.92284,-1.96069 -1.5625,-3.71875 -0.63966,-1.75806 -1.42323,-3.47948 -1.78125,-3.84375 -0.3739,-0.38047 -0.77487,-0.53062 -1.125,-0.46875 z" />
  </g>
</svg>
