<?xml version="1.0" encoding="UTF-8" standalone="no"?>
<!-- Created with Inkscape (http://www.inkscape.org/) -->

<svg
   xmlns:dc="http://purl.org/dc/elements/1.1/"
   xmlns:cc="http://creativecommons.org/ns#"
   xmlns:rdf="http://www.w3.org/1999/02/22-rdf-syntax-ns#"
   xmlns:svg="http://www.w3.org/2000/svg"
   xmlns="http://www.w3.org/2000/svg"
   xmlns:sodipodi="http://sodipodi.sourceforge.net/DTD/sodipodi-0.dtd"
   xmlns:inkscape="http://www.inkscape.org/namespaces/inkscape"
   width="900"
   height="800"
   id="svg2"
   version="1.1"
   inkscape:version="0.48.2 r9819"
   sodipodi:docname="m22.svg">
  <defs
     id="defs4" />
  <sodipodi:namedview
     id="base"
     pagecolor="#ffffff"
     bordercolor="#666666"
     borderopacity="1.0"
     inkscape:pageopacity="0.0"
     inkscape:pageshadow="2"
     inkscape:zoom="2"
     inkscape:cx="239.0722"
     inkscape:cy="147.35278"
     inkscape:document-units="px"
     inkscape:current-layer="layer1"
     showgrid="false"
     showguides="true"
     inkscape:guide-bbox="true"
     inkscape:window-width="1366"
     inkscape:window-height="746"
     inkscape:window-x="-8"
     inkscape:window-y="-8"
     inkscape:window-maximized="1"
     width="0px"
     height="0px"
     fit-margin-top="0"
     fit-margin-left="0"
     fit-margin-right="0"
     fit-margin-bottom="0">
    <sodipodi:guide
       orientation="1,0"
       position="450,784"
       id="guide3178" />
    <sodipodi:guide
       orientation="0,1"
       position="-61,400"
       id="guide3180" />
  </sodipodi:namedview>
  <metadata
     id="metadata7">
    <rdf:RDF>
      <cc:Work
         rdf:about="">
        <dc:format>image/svg+xml</dc:format>
        <dc:type
           rdf:resource="http://purl.org/dc/dcmitype/StillImage" />
        <dc:title></dc:title>
      </cc:Work>
    </rdf:RDF>
  </metadata>
  <g
     inkscape:label="Layer 1"
     inkscape:groupmode="layer"
     id="layer1"
     transform="translate(0,-252.36218)">
    <path
       id="rect3176"
       transform="translate(0,252.36218)"
       style="fill:#ff0000"
       d="m 312.6875,650.625 c -0.46019,-0.0145 -0.91574,4.5e-4 -1.3125,0.0312 -2.38048,0.18718 -3.85987,1.17035 -6.28125,3.6875 -1.37947,1.43422 -2.80498,2.625 -3.15625,2.625 -0.35125,0 -1.97472,0.69162 -3.625,1.53125 -7.47891,3.80513 -8.70289,10.5605 -4.28125,23.96875 1.35829,4.11897 3.30177,11.67108 4.40625,17.28125 0.9447,4.79846 1.67507,25.39487 1.375,37.90625 -0.29894,12.46455 -0.3712,13.33755 -3.5625,26.28125 -1.08701,4.4088 -1.41277,9.61575 -0.71875,11.71875 l 0.59375,1.78125 3.125,0 3.125,0 2.15625,-2.59375 c 2.26094,-2.6692 5.85967,-8.64195 7,-11.65625 1.77121,-4.682 5.19727,-14.9984 6.375,-19.15625 3.7686,-13.30444 4.24809,-16.86432 4.65625,-36.15625 0.28246,-13.34978 0.4885,-17.22427 1.125,-19.1875 1.30183,-4.01534 2.501,-19.02182 2.09375,-26.34375 l -0.3125,-6.3125 -1.625,-1.4375 c -2.31423,-2.10591 -5.92153,-3.55289 -9.6875,-3.875 -0.52668,-0.0445 -1.00856,-0.0792 -1.46875,-0.0937 z m -0.34375,2.53125 c 2.13536,-0.0642 5.5684,0.74741 7.875,1.90625 2.78406,1.39862 3.36214,2.56442 3.34375,6.8125 -0.0237,5.47348 -1.26343,18.62534 -2.375,25.03125 -0.96503,5.56158 -0.9976,5.62842 -3.34375,8.03125 -1.30123,1.33258 -3.18398,2.85576 -4.1875,3.375 -1.00351,0.51912 -2.82543,0.93761 -4.03125,0.9375 -1.86936,0 -2.54779,-0.28045 -4.625,-2.0625 -4.31054,-3.69806 -5.55051,-5.70155 -7.65625,-12.4375 -2.56137,-8.19362 -2.78125,-9.40454 -2.78125,-14.84375 l 0,-5.40625 1.71875,-1.53125 c 0.92931,-0.84547 3.02764,-2.10694 4.6875,-2.78125 1.89114,-0.7684 4.1077,-2.21219 5.9375,-3.90625 1.89937,-1.75862 3.51726,-2.85458 4.625,-3.0625 0.24494,-0.0455 0.50746,-0.0533 0.8125,-0.0625 z m -11.4375,44.1875 c 0.39833,-0.0884 1.16417,0.3442 2.5,1.1875 1.07115,0.67615 2.35299,1.21875 2.8125,1.21875 0.45952,0 1.52652,0.27577 2.40625,0.59375 2.10665,0.76197 6.80218,-0.29387 8.5625,-1.90625 1.57797,-1.44582 2.3622,-1.44535 2.65625,-0.0312 1.72314,8.28608 -1.342,35.23817 -5.40625,47.46875 -0.92375,2.77969 -1.6875,5.54145 -1.6875,6.15625 0,0.6147 -0.18456,1.3679 -0.4375,1.625 -0.25295,0.2568 -0.90503,1.9815 -1.4375,3.875 -1.67287,5.9484 -5.66413,13.5086 -8.90625,16.875 -0.58615,0.6085 -1.56377,1.09315 -2.1875,1.09375 -3.13349,0 -3.6202,-4.4914 -1.28125,-11.5625 0.80461,-2.4326 1.45222,-5.20955 1.46875,-6.15625 0.0165,-0.9465 0.36369,-3.0646 0.78125,-4.6875 1.4725,-5.72297 1.41435,-43.6024 -0.0937,-53.9375 -0.16118,-1.10387 -0.14834,-1.72405 0.25,-1.8125 z" />
  </g>
</svg>
