<?xml version="1.0" encoding="UTF-8" standalone="no"?>
<!-- Created with Inkscape (http://www.inkscape.org/) -->

<svg
   xmlns:dc="http://purl.org/dc/elements/1.1/"
   xmlns:cc="http://creativecommons.org/ns#"
   xmlns:rdf="http://www.w3.org/1999/02/22-rdf-syntax-ns#"
   xmlns:svg="http://www.w3.org/2000/svg"
   xmlns="http://www.w3.org/2000/svg"
   xmlns:sodipodi="http://sodipodi.sourceforge.net/DTD/sodipodi-0.dtd"
   xmlns:inkscape="http://www.inkscape.org/namespaces/inkscape"
   width="800"
   height="700"
   id="svg2"
   version="1.1"
   inkscape:version="0.48.2 r9819"
   sodipodi:docname="m22.svg">
  <defs
     id="defs4" />
  <sodipodi:namedview
     id="base"
     pagecolor="#ffffff"
     bordercolor="#666666"
     borderopacity="1.0"
     inkscape:pageopacity="0.0"
     inkscape:pageshadow="2"
     inkscape:zoom="2.5"
     inkscape:cx="367.87013"
     inkscape:cy="100.85406"
     inkscape:document-units="px"
     inkscape:current-layer="layer1"
     showgrid="false"
     showguides="true"
     inkscape:guide-bbox="true"
     inkscape:window-width="1366"
     inkscape:window-height="746"
     inkscape:window-x="-8"
     inkscape:window-y="-8"
     inkscape:window-maximized="1"
     width="0px"
     height="0px"
     fit-margin-top="0"
     fit-margin-left="0"
     fit-margin-right="0"
     fit-margin-bottom="0">
    <sodipodi:guide
       orientation="1,0"
       position="400.22244,349.31075"
       id="guide3178" />
    <sodipodi:guide
       orientation="0,1"
       position="400.22244,349.31075"
       id="guide3180" />
  </sodipodi:namedview>
  <metadata
     id="metadata7">
    <rdf:RDF>
      <cc:Work
         rdf:about="">
        <dc:format>image/svg+xml</dc:format>
        <dc:type
           rdf:resource="http://purl.org/dc/dcmitype/StillImage" />
        <dc:title></dc:title>
      </cc:Work>
    </rdf:RDF>
  </metadata>
  <g
     inkscape:label="Layer 1"
     inkscape:groupmode="layer"
     id="layer1"
     transform="translate(0,-352.36218)">
    <path
       id="rect3274"
       transform="translate(0,352.36218)"
       style="fill:#ff0000"
       d="m 277.5625,575.5 c -0.40708,-0.013 -0.80528,-7.5e-4 -1.15625,0.0312 -2.10578,0.1655 -3.42055,1.05465 -5.5625,3.28125 -1.22029,1.2687 -2.47051,2.3125 -2.78125,2.3125 -0.31072,0 -1.75891,0.60105 -3.21875,1.34375 -6.61585,3.366 -7.69264,9.3266 -3.78125,21.1875 1.20154,3.6436 2.89799,10.3497 3.875,15.3125 0.83569,4.2447 1.51544,22.46375 1.25,33.53125 -0.26445,11.0262 -0.36446,11.8001 -3.1875,23.25 -0.96156,3.9001 -1.23894,8.48335 -0.625,10.34375 l 0.53125,1.59375 2.78125,0 2.75,0 1.90625,-2.28125 c 2.00003,-2.3612 5.17875,-7.646 6.1875,-10.3125 1.56681,-4.1417 4.61443,-13.29075 5.65625,-16.96875 3.33371,-11.7691 3.73269,-14.90315 4.09375,-31.96875 0.24986,-11.8093 0.46821,-15.23205 1.03125,-16.96875 1.1516,-3.552 2.204,-16.8355 1.84375,-23.3125 l -0.3125,-5.59375 -1.40625,-1.25 c -2.04717,-1.8629 -5.26236,-3.1526 -8.59375,-3.4375 -0.46591,-0.039 -0.87415,-0.0807 -1.28125,-0.0937 z m -0.28125,2.25 c 1.88894,-0.057 4.89708,0.6624 6.9375,1.6875 2.46279,1.2372 2.98502,2.27335 2.96875,6.03125 -0.021,4.8418 -1.11045,16.4584 -2.09375,22.125 -0.85367,4.9198 -0.89335,4.9994 -2.96875,7.125 -1.15107,1.1788 -2.83103,2.50945 -3.71875,2.96875 -0.8877,0.4592 -2.49583,0.84385 -3.5625,0.84375 -1.65364,0 -2.25626,-0.26735 -4.09375,-1.84375 -3.8131,-3.2713 -4.88727,-5.0414 -6.75,-11 -2.2658,-7.2481 -2.46875,-8.3135 -2.46875,-13.125 l 0,-4.78125 1.5,-1.375 c 0.82208,-0.7478 2.68794,-1.841 4.15625,-2.4375 1.67291,-0.6798 3.63136,-1.97025 5.25,-3.46875 1.68019,-1.5557 3.11384,-2.5036 4.09375,-2.6875 0.21667,-0.04 0.48016,-0.0545 0.75,-0.0625 z M 267.125,616.84375 c 0.35236,-0.078 1.06833,0.3166 2.25,1.0625 0.94754,0.5982 2.06227,1.0625 2.46875,1.0625 0.4065,0 1.3468,0.2187 2.125,0.5 1.86354,0.6741 6.03657,-0.2612 7.59375,-1.6875 1.39587,-1.279 2.08363,-1.28185 2.34375,-0.0312 1.52429,7.3298 -1.21727,31.21205 -4.8125,42.03125 -0.81716,2.4588 -1.46875,4.8936 -1.46875,5.4375 0,0.5438 -0.15125,1.17885 -0.375,1.40625 -0.22377,0.2272 -0.81022,1.7625 -1.28125,3.4375 -1.47982,5.2619 -5.00702,11.9597 -7.875,14.9375 -0.51851,0.5383 -1.38574,0.96815 -1.9375,0.96875 -2.77188,0 -3.22528,-3.96365 -1.15625,-10.21875 0.71177,-2.1519 1.29788,-4.63135 1.3125,-5.46875 0.0146,-0.8372 0.31812,-2.6894 0.6875,-4.125 1.30258,-5.0626 1.24029,-38.57625 -0.0937,-47.71875 -0.14258,-0.9764 -0.13363,-1.51555 0.21875,-1.59375 z" />
  </g>
</svg>
