<?xml version="1.0" encoding="UTF-8" standalone="no"?>
<!-- Created with Inkscape (http://www.inkscape.org/) -->

<svg
   xmlns:dc="http://purl.org/dc/elements/1.1/"
   xmlns:cc="http://creativecommons.org/ns#"
   xmlns:rdf="http://www.w3.org/1999/02/22-rdf-syntax-ns#"
   xmlns:svg="http://www.w3.org/2000/svg"
   xmlns="http://www.w3.org/2000/svg"
   xmlns:sodipodi="http://sodipodi.sourceforge.net/DTD/sodipodi-0.dtd"
   xmlns:inkscape="http://www.inkscape.org/namespaces/inkscape"
   width="900"
   height="800"
   id="svg2"
   version="1.1"
   inkscape:version="0.48.2 r9819"
   sodipodi:docname="f22.svg">
  <defs
     id="defs4" />
  <sodipodi:namedview
     id="base"
     pagecolor="#ffffff"
     bordercolor="#666666"
     borderopacity="1.0"
     inkscape:pageopacity="0.0"
     inkscape:pageshadow="2"
     inkscape:zoom="2"
     inkscape:cx="239.0722"
     inkscape:cy="147.35278"
     inkscape:document-units="px"
     inkscape:current-layer="layer1"
     showgrid="false"
     showguides="true"
     inkscape:guide-bbox="true"
     inkscape:window-width="1366"
     inkscape:window-height="746"
     inkscape:window-x="-8"
     inkscape:window-y="-8"
     inkscape:window-maximized="1"
     width="0px"
     height="0px"
     fit-margin-top="0"
     fit-margin-left="0"
     fit-margin-right="0"
     fit-margin-bottom="0">
    <sodipodi:guide
       orientation="1,0"
       position="450,784"
       id="guide3178" />
    <sodipodi:guide
       orientation="0,1"
       position="-61,400"
       id="guide3180" />
  </sodipodi:namedview>
  <metadata
     id="metadata7">
    <rdf:RDF>
      <cc:Work
         rdf:about="">
        <dc:format>image/svg+xml</dc:format>
        <dc:type
           rdf:resource="http://purl.org/dc/dcmitype/StillImage" />
        <dc:title></dc:title>
      </cc:Work>
    </rdf:RDF>
  </metadata>
  <g
     inkscape:label="Layer 1"
     inkscape:groupmode="layer"
     id="layer1"
     transform="translate(0,-252.36218)">
    <path
       id="rect3172"
       transform="translate(0,252.36218)"
       style="fill:#ff0000"
       d="m 308.4375,598.46875 c -2.14125,0 -7.72685,3.03971 -8.5625,4.65625 -0.28119,0.54414 -1.24536,1.87261 -2.15625,3 -0.91093,1.12726 -1.68289,2.27495 -1.6875,2.5 -0.005,0.22505 -0.91984,1.37678 -2,2.59375 -5.63722,6.35215 -5.74214,11.99763 -0.375,17 1.17569,1.0958 2.6988,2.73944 3.375,3.65625 2.342,3.17526 6.24941,6.64796 8.40625,7.46875 2.47938,0.94336 5.7038,1.14409 7.5625,0.4375 2.0437,-0.77704 5.12481,-4.40201 7.03125,-8.25 0.97149,-1.96104 1.93594,-3.5625 2.15625,-3.5625 0.22031,0 0.4051,-0.4017 0.40625,-0.875 9.2e-4,-0.4734 0.64617,-1.50113 1.40625,-2.3125 2.71528,-2.89886 3.15579,-4.02661 2.78125,-6.5625 -0.24288,-1.64431 -0.94959,-3.08238 -2.375,-4.9375 -1.11414,-1.45019 -2.30117,-2.75058 -2.625,-2.875 -0.32382,-0.1243 -1.52664,-1.56409 -2.6875,-3.21875 -4.41432,-6.29284 -7.39015,-8.71875 -10.65625,-8.71875 z m 0,1.96875 c 2.42703,0.0376 6.6368,3.67899 9.3125,8.09375 0.89861,1.4827 1.89294,2.6875 2.25,2.6875 0.35708,0 0.78177,0.37551 0.9375,0.78125 0.15572,0.40574 0.53458,0.75 0.84375,0.75 1.18427,0.0324 2.5,2.59622 2.5,4.9375 0,4.15665 -2.04626,5.31003 -10.125,5.8125 -3.15269,0.19631 -7.49824,0.25143 -9.6875,0.125 -2.67138,-0.15472 -4,-0.045 -4,0.3125 0,0.93909 3.46582,1.31571 11.84375,1.28125 l 8.1875,-0.0312 -0.71875,1.71875 c -0.39634,0.96484 -0.94209,1.99303 -1.1875,2.25 -0.24539,0.25698 -0.4375,0.76027 -0.4375,1.125 0,0.95967 -3.01028,5.51022 -4.875,7.375 -3.37232,3.37229 -7.72666,1.44263 -14.09375,-6.25 -2.04964,-2.47625 -3.99929,-4.63709 -4.375,-4.78125 -0.37575,-0.14428 -1.36759,-1.26198 -2.1875,-2.5 -2.31584,-3.49624 -1.93214,-5.95015 1.59375,-9.6875 1.54855,-1.64134 4.58273,-5.81893 5.5,-7.59375 1.58963,-3.0751 6.18057,-6.4453 8.71875,-6.40625 z m -5.5625,6.84375 c -1.02582,0 -5.65986,6.48057 -5.84375,8.15625 -0.33063,3.01296 0.37325,3.49588 6.125,4.4375 3.76369,0.61619 11.60561,0.58988 13.84375,-0.0625 1.37356,-0.40035 2.35007,-2.29317 1.96875,-3.8125 -0.16725,-0.6664 -0.86229,-1.85051 -1.53125,-2.625 -0.66895,-0.77462 -1.69411,-2.13662 -2.3125,-3.0625 -1.37482,-2.05856 -2.375,-2.53003 -2.375,-1.0625 0,0.59139 1.0016,2.20879 2.21875,3.5625 1.21716,1.3538 2.21875,2.72787 2.21875,3.0625 0,0.33453 -0.458,1.04727 -1.03125,1.5625 -0.94042,0.84501 -1.75262,0.90579 -8.1875,0.78125 C 301.1763,618.08767 299,617.71655 299,616.625 c 0,-0.26949 0.97035,-1.99828 2.1875,-3.8125 2.11027,-3.14529 2.84244,-5.53125 1.6875,-5.53125 z" />
  </g>
</svg>
