<?xml version="1.0" encoding="UTF-8" standalone="no"?>
<!-- Created with Inkscape (http://www.inkscape.org/) -->

<svg
   xmlns:dc="http://purl.org/dc/elements/1.1/"
   xmlns:cc="http://creativecommons.org/ns#"
   xmlns:rdf="http://www.w3.org/1999/02/22-rdf-syntax-ns#"
   xmlns:svg="http://www.w3.org/2000/svg"
   xmlns="http://www.w3.org/2000/svg"
   xmlns:sodipodi="http://sodipodi.sourceforge.net/DTD/sodipodi-0.dtd"
   xmlns:inkscape="http://www.inkscape.org/namespaces/inkscape"
   width="800"
   height="700"
   id="svg2"
   version="1.1"
   inkscape:version="0.48.2 r9819"
   sodipodi:docname="m15-fill.svg">
  <defs
     id="defs4" />
  <sodipodi:namedview
     id="base"
     pagecolor="#ffffff"
     bordercolor="#666666"
     borderopacity="1.0"
     inkscape:pageopacity="0.0"
     inkscape:pageshadow="2"
     inkscape:zoom="2.5"
     inkscape:cx="645.80543"
     inkscape:cy="491.70074"
     inkscape:document-units="px"
     inkscape:current-layer="layer1"
     showgrid="false"
     showguides="true"
     inkscape:guide-bbox="true"
     inkscape:window-width="1024"
     inkscape:window-height="538"
     inkscape:window-x="-8"
     inkscape:window-y="-8"
     inkscape:window-maximized="1"
     width="0px"
     height="0px"
     fit-margin-top="0"
     fit-margin-left="0"
     fit-margin-right="0"
     fit-margin-bottom="0">
    <sodipodi:guide
       orientation="1,0"
       position="400.22244,349.31075"
       id="guide3178" />
    <sodipodi:guide
       orientation="0,1"
       position="400.22244,349.31075"
       id="guide3180" />
  </sodipodi:namedview>
  <metadata
     id="metadata7">
    <rdf:RDF>
      <cc:Work
         rdf:about="">
        <dc:format>image/svg+xml</dc:format>
        <dc:type
           rdf:resource="http://purl.org/dc/dcmitype/StillImage" />
        <dc:title />
      </cc:Work>
    </rdf:RDF>
  </metadata>
  <g
     inkscape:label="Layer 1"
     inkscape:groupmode="layer"
     id="layer1"
     transform="translate(0,-352.36218)">
    <path
       id="rect3925"
       transform="translate(0,352.36218)"
       style="fill:#00ff00"
       d="m 711.9375,156.21875 c -1.01932,0.0373 -1.95371,0.21649 -2.78125,0.5625 -3.29496,1.3767 -9.54184,9.16117 -10.09375,12.5625 -0.22592,1.39207 0.43816,7.15688 0.875,7.59375 0.10893,0.10882 0.79125,-0.14856 1.53125,-0.53125 1.20338,-0.62228 1.36725,-0.88065 1.40625,-2.71875 0.054,-2.55517 0.46279,-4.1126 1.15625,-4.34375 0.38515,-0.12841 0.53125,0.64773 0.53125,2.84375 0,2.69784 0.14831,3.27771 1.40625,5.15625 1.47807,2.20764 2.8464,3.0998 5.3125,3.5 1.20159,0.19499 1.91621,-0.0645 3.9375,-1.40625 1.36041,-0.903 2.55825,-1.91323 2.6875,-2.25 0.1292,-0.33674 -0.34432,-1.25802 -1.09375,-2.03125 -1.91665,-1.97744 -1.82915,-3.25934 0.125,-1.78125 0.46451,0.35129 1.0011,0.625 1.15625,0.625 0.15519,0 0.49983,-1.86652 0.78125,-4.15625 0.53914,-4.3873 1.39569,-7.15625 2.25,-7.15625 0.34597,0 0.41268,0.48131 0.21875,1.4375 -1.2847,6.33437 -1.31931,9.875 -0.0937,9.875 0.32074,0 1.25121,-0.69633 2.0625,-1.53125 1.66409,-1.71268 2.125,-1.8483 2.125,-0.71875 0,0.42996 -0.78381,1.55655 -1.75,2.5 -2.36858,2.31284 -2.17539,3.04776 1.3125,4.84375 3.68562,1.89779 4.51391,1.7032 5.9375,-1.40625 1.11495,-2.43532 1.90625,-2.72789 1.90625,-0.75 0,0.96575 0.14671,1.0502 1.09375,0.8125 1.24227,-0.31178 1.34427,0.0491 0.4375,1.34375 -0.57454,0.82029 -0.53077,1.03131 0.4375,2.34375 0.58839,0.79753 1.09375,1.61968 1.09375,1.8125 0,0.58874 -1.33893,0.37978 -2.03125,-0.3125 -1.10047,-1.10047 -2.65767,-0.82259 -3.40625,0.625 -0.36777,0.71118 -1.15496,2.0294 -1.75,2.90625 -0.59501,0.87685 -1.29753,2.29183 -1.53125,3.15625 -0.2338,0.86445 -0.79686,2.36468 -1.28125,3.3125 -0.48441,0.94785 -0.90625,2.04082 -0.90625,2.46875 0,0.42795 -0.16697,0.8125 -0.40625,0.8125 -0.53705,0 -0.58448,-1.4048 -0.0625,-1.96875 0.21037,-0.22728 0.6052,-1.23043 0.90625,-2.1875 0.30103,-0.95704 1.10007,-2.80901 1.75,-4.125 1.45934,-2.955 1.89714,-5.01224 1.1875,-5.59375 -0.28896,-0.23676 -1.32352,-0.6419 -2.3125,-0.90625 -0.98901,-0.26438 -2.07855,-0.76782 -2.375,-1.125 -0.29642,-0.3572 -0.76219,-0.65625 -1.0625,-0.65625 -0.30029,0 -0.7959,-0.26611 -1.09375,-0.625 -1.06055,-1.27789 -2.30193,-0.76009 -5.3125,2.25 -1.78031,1.78004 -1.95565,2.8955 -0.625,4.90625 1.73263,2.61817 1.46727,3.21231 -0.9375,1.96875 -1.03866,-0.53707 -1.58342,-1.28627 -3.125,-4.5625 -0.42467,-0.90275 -2.9931,-1.47195 -3.75,-0.84375 -0.33197,0.27549 -0.68921,1.17619 -0.84375,2 -0.33253,1.77285 -1.22898,1.71569 -1.4375,-0.0937 -0.0806,-0.69936 -0.41103,-1.43318 -0.75,-1.625 -0.44771,-0.25328 -0.54154,-0.82589 -0.34375,-2.0625 0.24666,-1.54255 0.14178,-1.74125 -0.90625,-2.21875 -0.97413,-0.44384 -1.25308,-0.40317 -1.875,0.21875 -0.69488,0.69479 -0.71627,0.84583 0.0312,2.78125 0.43708,1.1316 1.20151,3.4189 1.6875,5.09375 3.12073,10.75601 5.04197,13.24528 10.8125,14.15625 2.87032,0.45278 4.30982,0.43509 6.5,-0.0625 1.07669,-0.24463 5.17713,-0.55487 9.125,-0.71875 6.72426,-0.27911 7.2785,-0.39671 8.625,-1.40625 0.7905,-0.5927 1.83079,-1.98056 2.3125,-3.0625 0.79914,-1.79486 0.8245,-2.23087 0.375,-5.40625 -0.56628,-4.00026 -1.58701,-7.53115 -3.6875,-12.8125 -0.81403,-2.04668 -1.8668,-5.60199 -2.375,-7.875 -1.11839,-5.00228 -1.40499,-5.76579 -3.125,-7.9375 -1.68478,-2.1272 -2.62578,-2.49491 -7.75,-2.96875 -2.70318,-0.24998 -5.04274,-0.72447 -6.75,-1.4375 -1.84785,-0.77173 -3.76991,-1.15585 -5.46875,-1.09375 z" />
  </g>
</svg>
