<?xml version="1.0" encoding="UTF-8" standalone="no"?>
<!-- Created with Inkscape (http://www.inkscape.org/) -->

<svg
   xmlns:dc="http://purl.org/dc/elements/1.1/"
   xmlns:cc="http://creativecommons.org/ns#"
   xmlns:rdf="http://www.w3.org/1999/02/22-rdf-syntax-ns#"
   xmlns:svg="http://www.w3.org/2000/svg"
   xmlns="http://www.w3.org/2000/svg"
   xmlns:sodipodi="http://sodipodi.sourceforge.net/DTD/sodipodi-0.dtd"
   xmlns:inkscape="http://www.inkscape.org/namespaces/inkscape"
   width="800"
   height="700"
   id="svg2"
   version="1.1"
   inkscape:version="0.48.2 r9819"
   sodipodi:docname="m14-fill.svg">
  <defs
     id="defs4" />
  <sodipodi:namedview
     id="base"
     pagecolor="#ffffff"
     bordercolor="#666666"
     borderopacity="1.0"
     inkscape:pageopacity="0.0"
     inkscape:pageshadow="2"
     inkscape:zoom="3.5355339"
     inkscape:cx="716.0237"
     inkscape:cy="527.02486"
     inkscape:document-units="px"
     inkscape:current-layer="layer1"
     showgrid="false"
     showguides="true"
     inkscape:guide-bbox="true"
     inkscape:window-width="1024"
     inkscape:window-height="538"
     inkscape:window-x="-8"
     inkscape:window-y="-8"
     inkscape:window-maximized="1"
     width="0px"
     height="0px"
     fit-margin-top="0"
     fit-margin-left="0"
     fit-margin-right="0"
     fit-margin-bottom="0">
    <sodipodi:guide
       orientation="1,0"
       position="400.22244,349.31075"
       id="guide3178" />
    <sodipodi:guide
       orientation="0,1"
       position="400.22244,349.31075"
       id="guide3180" />
  </sodipodi:namedview>
  <metadata
     id="metadata7">
    <rdf:RDF>
      <cc:Work
         rdf:about="">
        <dc:format>image/svg+xml</dc:format>
        <dc:type
           rdf:resource="http://purl.org/dc/dcmitype/StillImage" />
        <dc:title />
      </cc:Work>
    </rdf:RDF>
  </metadata>
  <g
     inkscape:label="Layer 1"
     inkscape:groupmode="layer"
     id="layer1"
     transform="translate(0,-352.36218)">
    <path
       id="rect3885"
       transform="translate(0,352.36218)"
       style="fill:#00ff00"
       d="m 664.375,154.25 c -3.76162,0.0832 -6.19951,0.6286 -9.9375,2.125 -3.50794,1.40428 -5.25372,2.94662 -6.375,5.5625 -1.58447,3.69638 -1.76435,4.92704 -1.3125,9.34375 0.57353,5.6055 0.79798,5.94714 3.5,5.6875 1.17808,-0.11325 2.27415,-0.36784 2.4375,-0.53125 0.16339,-0.16337 0.0313,-0.88778 -0.28125,-1.65625 -1.49006,-3.66405 -0.96371,-4.30748 1.5,-1.84375 2.61045,2.61044 9.55764,3.9466 11.46875,2.21875 1.20189,-1.08653 2.65625,-5.08945 2.65625,-7.28125 0,-0.96355 -0.39516,-2.71807 -0.90625,-3.90625 -1.05362,-2.44924 -0.8409,-3.13506 0.59375,-1.84375 1.49528,1.34581 2.32028,1.4592 3.5,0.53125 1.37491,-1.08152 1.56332,-1.04043 1.5625,0.15625 0,0.68554 -0.45202,1.23439 -1.59375,1.84375 -1.6276,0.8687 -1.62177,0.90029 -1.90625,4.375 -0.17706,2.16242 -0.12024,3.66349 0.15625,4 0.42529,0.51741 0.22701,0.88224 -1.625,3.40625 -0.79666,1.08571 0.56134,1.64268 5.25,2.09375 5.3168,0.51151 6.51148,0.12808 7.3125,-2.21875 0.66536,-1.94939 1.04676,-2.1493 1.53125,-0.875 0.27655,0.72743 0.87571,1.21422 1.75,1.40625 1.80712,0.39688 1.68908,1.0625 -0.1875,1.0625 -1.97566,0 -1.91818,0.67103 0.125,1.71875 1.98304,1.01691 3.83177,2.90234 3.21875,3.28125 -0.24152,0.14925 -1.24005,-0.16244 -2.1875,-0.65625 -2.10057,-1.09475 -4.31331,-1.46293 -6.28125,-1.09375 -1.61348,0.30271 -3.24771,2.41016 -5.03125,6.5 -1.22525,2.80977 -1.31606,8.36959 -0.15625,9.25 0.70417,0.53455 0.69663,0.58085 -0.21875,0.59375 -1.46324,0.0204 -1.96198,-1.75256 -1.75,-6.3125 0.16602,-3.57048 0.32443,-4.11542 1.78125,-6.5625 1.65667,-2.78271 1.91914,-3.85295 1.125,-4.34375 -0.25604,-0.15826 -1.85686,-0.446 -3.53125,-0.65625 -1.92878,-0.24218 -3.44885,-0.72482 -4.15625,-1.28125 -0.89883,-0.707 -1.73941,-0.84575 -4.40625,-0.84375 -4.76584,0.003 -6.39815,0.53306 -7.71875,2.625 -1.25489,1.98788 -1.90625,1.90261 -1.90625,-0.28125 0,-1.51488 -0.0249,-1.51278 -1.65625,-1.21875 -2.28571,0.41244 -2.29286,0.40779 -2,2.6875 0.62324,4.8517 3.31833,9.91244 6.15625,11.5625 3.06786,1.78374 3.90062,2.13029 5.96875,2.34375 2.12456,0.21925 2.27892,0.31568 1.8125,1.0625 -0.68775,1.10132 -3.71604,1.10166 -5.125,0 -0.57063,-0.4456 -1.47238,-0.98105 -2.03125,-1.15625 -0.91882,-0.288 -0.99173,-0.23952 -0.5625,0.5625 0.65883,1.231 0.99025,1.38807 4.0625,1.84375 2.47062,0.36641 10.69599,0.95635 12.6875,0.90625 0.45687,-0.0108 1.23553,0.17887 1.71875,0.4375 1.27604,0.68292 4.93746,1.18688 7.28125,1 1.22559,-0.0966 3.01091,-0.67723 4.46875,-1.5 4.61346,-2.60367 6.26681,-5.5919 5.6875,-10.1875 -0.18503,-1.46756 -0.37905,-5.66638 -0.40625,-9.375 -0.0463,-6.31937 -0.08,-6.90488 -1.15625,-9.21875 -1.22561,-2.63518 -3.38396,-4.53061 -7.5625,-6.6875 -2.78468,-1.43741 -3.11082,-1.69792 -5.375,-4.4375 -2.71599,-3.28617 -4.82307,-4.16705 -10.28125,-4.21875 -0.59919,-0.006 -1.15012,-0.012 -1.6875,0 z" />
  </g>
</svg>
