<?xml version="1.0" encoding="UTF-8" standalone="no"?>
<!-- Created with Inkscape (http://www.inkscape.org/) -->

<svg
   xmlns:dc="http://purl.org/dc/elements/1.1/"
   xmlns:cc="http://creativecommons.org/ns#"
   xmlns:rdf="http://www.w3.org/1999/02/22-rdf-syntax-ns#"
   xmlns:svg="http://www.w3.org/2000/svg"
   xmlns="http://www.w3.org/2000/svg"
   xmlns:sodipodi="http://sodipodi.sourceforge.net/DTD/sodipodi-0.dtd"
   xmlns:inkscape="http://www.inkscape.org/namespaces/inkscape"
   width="800"
   height="400"
   id="svg2"
   version="1.1"
   inkscape:version="0.48.2 r9819"
   sodipodi:docname="f9.svg">
  <defs
     id="defs4" />
  <sodipodi:namedview
     id="base"
     pagecolor="#ffffff"
     bordercolor="#666666"
     borderopacity="1.0"
     inkscape:pageopacity="0.0"
     inkscape:pageshadow="2"
     inkscape:zoom="2.8284271"
     inkscape:cx="466.95075"
     inkscape:cy="300.06828"
     inkscape:document-units="px"
     inkscape:current-layer="layer1"
     showgrid="false"
     showguides="true"
     inkscape:guide-bbox="true"
     inkscape:window-width="1366"
     inkscape:window-height="746"
     inkscape:window-x="-8"
     inkscape:window-y="-8"
     inkscape:window-maximized="1"
     width="0px"
     height="0px"
     fit-margin-top="0"
     fit-margin-left="0"
     fit-margin-right="0"
     fit-margin-bottom="0">
    <sodipodi:guide
       orientation="1,0"
       position="400.22244,349.31075"
       id="guide3178" />
    <sodipodi:guide
       orientation="0,1"
       position="-117.37973,199.40411"
       id="guide3180" />
  </sodipodi:namedview>
  <metadata
     id="metadata7">
    <rdf:RDF>
      <cc:Work
         rdf:about="">
        <dc:format>image/svg+xml</dc:format>
        <dc:type
           rdf:resource="http://purl.org/dc/dcmitype/StillImage" />
        <dc:title></dc:title>
      </cc:Work>
    </rdf:RDF>
  </metadata>
  <g
     inkscape:label="Layer 1"
     inkscape:groupmode="layer"
     id="layer1"
     transform="translate(0,-652.36218)">
    <path
       id="rect3319"
       transform="translate(0,652.36218)"
       style="fill:#ff0000"
       d="m 431.6875,20.96875 c -0.8735,0.0292 -1.8008,0.16306 -2.3125,0.375 -1.6647,0.68954 -4.0218,3.34645 -5.4375,6.15625 -0.6373,1.26473 -1.52095,2.83366 -1.96875,3.46875 -0.4479,0.63511 -0.78125,1.46196 -0.78125,1.84375 0,0.38179 -0.1682,0.6875 -0.375,0.6875 -0.6854,0 -2.8396,7.0655 -3.3125,10.875 -0.1337,1.0767 -0.75805,4.61367 -1.34375,7.84375 -1.1481,6.33238 -2.9795,22.2617 -3.6875,31.75 -0.7238,9.70037 -0.877,11.01327 -1.5,13.28125 -0.3286,1.19631 -0.7294,3.78914 -0.875,5.78125 -0.1457,1.99213 -0.55445,4.98391 -0.90625,6.65625 -0.7932,3.77067 -0.8232,13.1898 -0.0625,14.6875 0.2955,0.58156 1.44245,1.52018 2.59375,2.09375 1.7631,0.8783 3.08305,1.11131 8.28125,1.40625 9.5482,0.54181 19.11865,0.2876 22.90625,-0.59375 3.7645,-0.87596 4.2438,-1.1819 5.3125,-3.53125 1.6467,-3.62015 0.67045,-9.42877 -2.90625,-17.625 -3.7109,-8.50386 -6.7241,-22.51086 -7.375,-34.125 -0.2986,-5.32831 -2.5053,-21.40446 -3.3125,-24.15625 -0.2457,-0.83742 -0.5565,-3.94666 -0.6875,-6.9375 -0.2094,-4.78481 -0.11365,-6.13116 0.90625,-11.03125 1.1393,-5.4725 1.1479,-5.57506 0.375,-7.15625 -0.7069,-1.44622 -0.9719,-1.62724 -2.6875,-1.75 -0.2623,-0.0186 -0.55255,-0.01009 -0.84375,0 z m -0.71875,2.59375 c 0.1296,-0.0123 0.251,-0.0121 0.375,0 l 1.375,0.125 -0.0625,2.84375 c -0.031,1.55523 -0.2791,3.90277 -0.5625,5.21875 -0.6572,3.05162 -0.6973,13.40396 -0.0625,16.53125 0.2673,1.31597 0.67025,4.0695 0.90625,6.09375 0.236,2.02429 0.7195,5.2326 1.0625,7.15625 0.343,1.92362 0.82485,5.94668 1.09375,8.9375 0.4473,4.97644 1.0363,8.46966 2.25,13.34375 0.654,2.62614 0.1054,2.97787 -1.625,1.0625 -1.0659,-1.17976 -2.4905,-2.0396 -5,-3.03125 -3.8231,-1.51165 -4.71475,-1.51969 -8.09375,0 -1.0037,0.45145 -2.0161,0.8125 -2.25,0.8125 -0.652,0 -4.43575,4.4247 -4.71875,5.53125 -0.433,1.69278 -0.9978,1.05827 -1,-1.09375 0,-4.28816 1.92785,-23.75419 3.03125,-30.53125 0.2142,-1.31596 0.69935,-4.45645 1.09375,-6.96875 0.7699,-4.90483 1.67545,-8.52256 2.65625,-10.71875 0.3368,-0.75396 0.59375,-1.52053 0.59375,-1.6875 0,-0.16695 0.2993,-0.93355 0.625,-1.6875 0.3257,-0.75397 1.2517,-2.87981 2.0625,-4.75 1.784,-4.11354 4.306,-7.00337 6.25,-7.1875 z m -4.625,60.46875 c 0.258,-0.0128 0.4949,-0.007 0.75,0 1.7013,0.0449 3.3321,0.5609 5.25,1.53125 4.03,2.039 6.58205,6.10986 7.96875,12.84375 0.2825,1.37165 1.23805,4.22687 2.15625,6.34375 2.7689,6.384 4.5131,12.55688 4.25,15.09375 -0.4175,4.02481 -1.3566,5.10269 -5.3125,6.15625 -2.2953,0.61128 -6.07565,0.63971 -11.53125,0.125 -1.7945,-0.16929 -6.3205,-0.31236 -10.0625,-0.34375 -9.1834,-0.0767 -8.86515,0.17227 -8.78125,-7.3125 0.074,-6.59991 0.5812,-10.57084 2.375,-18.21875 2.077,-8.85594 2.33925,-9.43575 5.34375,-12.5 2.2967,-2.34234 3.0257,-2.84013 5.125,-3.34375 0.8688,-0.20851 1.69465,-0.33676 2.46875,-0.375 z" />
  </g>
</svg>
