<?xml version="1.0" encoding="UTF-8" standalone="no"?>
<!-- Created with Inkscape (http://www.inkscape.org/) -->

<svg
   xmlns:dc="http://purl.org/dc/elements/1.1/"
   xmlns:cc="http://creativecommons.org/ns#"
   xmlns:rdf="http://www.w3.org/1999/02/22-rdf-syntax-ns#"
   xmlns:svg="http://www.w3.org/2000/svg"
   xmlns="http://www.w3.org/2000/svg"
   xmlns:sodipodi="http://sodipodi.sourceforge.net/DTD/sodipodi-0.dtd"
   xmlns:inkscape="http://www.inkscape.org/namespaces/inkscape"
   width="800"
   height="700"
   id="svg2"
   version="1.1"
   inkscape:version="0.48.2 r9819"
   sodipodi:docname="l8.svg">
  <defs
     id="defs4" />
  <sodipodi:namedview
     id="base"
     pagecolor="#ffffff"
     bordercolor="#666666"
     borderopacity="1.0"
     inkscape:pageopacity="0.0"
     inkscape:pageshadow="2"
     inkscape:zoom="3.5355339"
     inkscape:cx="449.71075"
     inkscape:cy="611.16079"
     inkscape:document-units="px"
     inkscape:current-layer="layer1"
     showgrid="false"
     showguides="true"
     inkscape:guide-bbox="true"
     inkscape:window-width="1366"
     inkscape:window-height="746"
     inkscape:window-x="-8"
     inkscape:window-y="-8"
     inkscape:window-maximized="1"
     width="0px"
     height="0px"
     fit-margin-top="0"
     fit-margin-left="0"
     fit-margin-right="0"
     fit-margin-bottom="0">
    <sodipodi:guide
       orientation="1,0"
       position="400.22244,349.31075"
       id="guide3178" />
    <sodipodi:guide
       orientation="0,1"
       position="400.22244,349.31075"
       id="guide3180" />
  </sodipodi:namedview>
  <metadata
     id="metadata7">
    <rdf:RDF>
      <cc:Work
         rdf:about="">
        <dc:format>image/svg+xml</dc:format>
        <dc:type
           rdf:resource="http://purl.org/dc/dcmitype/StillImage" />
        <dc:title></dc:title>
      </cc:Work>
    </rdf:RDF>
  </metadata>
  <g
     inkscape:label="Layer 1"
     inkscape:groupmode="layer"
     id="layer1"
     transform="translate(0,-352.36218)">
    <path
       id="rect3110"
       transform="translate(0,352.36218)"
       style="fill:#ff0000"
       d="m 430.15625,29.21875 c -0.87348,0.0292 -1.80081,0.19431 -2.3125,0.40625 -1.6647,0.68954 -4.02179,3.34645 -5.4375,6.15625 -0.63723,1.26473 -1.52091,2.83366 -1.96875,3.46875 -0.44787,0.63511 -0.8125,1.43071 -0.8125,1.8125 0,0.38179 -0.16823,0.71875 -0.375,0.71875 -0.68541,0 -2.80833,7.03425 -3.28125,10.84375 -0.13365,1.0767 -0.75811,4.61367 -1.34375,7.84375 -1.14811,6.33238 -3.01075,22.29295 -3.71875,31.78125 -0.72383,9.70037 -0.87702,10.98202 -1.5,13.25 -0.3286,1.19631 -0.69809,3.78914 -0.84375,5.78125 -0.14566,1.99213 -0.5857,5.01516 -0.9375,6.6875 -0.79313,3.77067 -0.82358,13.1898 -0.0625,14.6875 0.29552,0.58156 1.47366,1.52018 2.625,2.09375 1.76305,0.8783 3.08306,1.11131 8.28125,1.40625 9.5482,0.54181 19.08739,0.2876 22.875,-0.59375 3.76448,-0.87596 4.24381,-1.1819 5.3125,-3.53125 1.64676,-3.62015 0.70169,-9.42877 -2.875,-17.625 -3.71085,-8.50386 -6.7553,-22.54211 -7.40625,-34.15625 -0.29858,-5.32831 -2.50528,-21.37321 -3.3125,-24.125 -0.24564,-0.83742 -0.55656,-3.94666 -0.6875,-6.9375 -0.20939,-4.78481 -0.11388,-6.13116 0.90625,-11.03125 1.13921,-5.4725 1.1791,-5.60631 0.40625,-7.1875 -0.70689,-1.44622 -1.00316,-1.62724 -2.71875,-1.75 -0.26244,-0.0186 -0.52134,-0.01009 -0.8125,0 z m -0.75,2.625 c 0.1296,-0.0123 0.28231,-0.0121 0.40625,0 l 1.34375,0.125 -0.0625,2.8125 c -0.0306,1.55523 -0.27906,3.93402 -0.5625,5.25 -0.65721,3.05162 -0.69759,13.37271 -0.0625,16.5 0.26729,1.31597 0.67026,4.0695 0.90625,6.09375 0.23601,2.02429 0.71951,5.26385 1.0625,7.1875 0.34299,1.92362 0.82487,5.94668 1.09375,8.9375 0.44734,4.97644 1.06747,8.43841 2.28125,13.3125 0.65399,2.62614 0.1054,3.00912 -1.625,1.09375 -1.06586,-1.17976 -2.52175,-2.07085 -5.03125,-3.0625 -3.82302,-1.51165 -4.7148,-1.51969 -8.09375,0 -1.00376,0.45145 -2.01616,0.84375 -2.25,0.84375 -0.65204,0 -4.40446,4.4247 -4.6875,5.53125 -0.43295,1.69278 -1.02901,1.05827 -1.03125,-1.09375 -0.005,-4.28816 1.95915,-23.75419 3.0625,-30.53125 0.21423,-1.31596 0.66813,-4.45645 1.0625,-6.96875 0.76993,-4.90483 1.67547,-8.52256 2.65625,-10.71875 0.33675,-0.75396 0.625,-1.52053 0.625,-1.6875 0,-0.16695 0.26808,-0.93355 0.59375,-1.6875 0.3257,-0.75397 1.25168,-2.91106 2.0625,-4.78125 1.78362,-4.11354 4.30605,-6.97212 6.25,-7.15625 z m -4.625,60.46875 c 0.25801,-0.0128 0.49481,-0.007 0.75,0 1.70129,0.0449 3.33214,0.52965 5.25,1.5 4.03008,2.039 6.58208,6.14111 7.96875,12.875 0.28245,1.37165 1.23807,4.22687 2.15625,6.34375 2.76886,6.384 4.51309,12.55688 4.25,15.09375 -0.41748,4.02481 -1.32528,5.10269 -5.28125,6.15625 -2.29521,0.61128 -6.07565,0.63971 -11.53125,0.125 -1.79448,-0.16929 -6.32054,-0.31236 -10.0625,-0.34375 -9.18345,-0.0767 -8.89632,0.17227 -8.8125,-7.3125 0.0741,-6.59991 0.58125,-10.57084 2.375,-18.21875 2.07704,-8.85594 2.33922,-9.467 5.34375,-12.53125 2.29669,-2.34234 3.05691,-2.80888 5.15625,-3.3125 0.86895,-0.20851 1.66343,-0.33676 2.4375,-0.375 z" />
  </g>
</svg>
