<?xml version="1.0" encoding="UTF-8" standalone="no"?>
<!-- Created with Inkscape (http://www.inkscape.org/) -->

<svg
   xmlns:dc="http://purl.org/dc/elements/1.1/"
   xmlns:cc="http://creativecommons.org/ns#"
   xmlns:rdf="http://www.w3.org/1999/02/22-rdf-syntax-ns#"
   xmlns:svg="http://www.w3.org/2000/svg"
   xmlns="http://www.w3.org/2000/svg"
   xmlns:sodipodi="http://sodipodi.sourceforge.net/DTD/sodipodi-0.dtd"
   xmlns:inkscape="http://www.inkscape.org/namespaces/inkscape"
   width="900"
   height="800"
   id="svg2"
   version="1.1"
   inkscape:version="0.48.2 r9819"
   sodipodi:docname="l10.svg">
  <defs
     id="defs4" />
  <sodipodi:namedview
     id="base"
     pagecolor="#ffffff"
     bordercolor="#666666"
     borderopacity="1.0"
     inkscape:pageopacity="0.0"
     inkscape:pageshadow="2"
     inkscape:zoom="1.4142136"
     inkscape:cx="518.64513"
     inkscape:cy="640.3036"
     inkscape:document-units="px"
     inkscape:current-layer="layer1"
     showgrid="false"
     showguides="true"
     inkscape:guide-bbox="true"
     inkscape:window-width="1366"
     inkscape:window-height="746"
     inkscape:window-x="-8"
     inkscape:window-y="-8"
     inkscape:window-maximized="1"
     width="0px"
     height="0px"
     fit-margin-top="0"
     fit-margin-left="0"
     fit-margin-right="0"
     fit-margin-bottom="0">
    <sodipodi:guide
       orientation="1,0"
       position="450,784"
       id="guide3178" />
    <sodipodi:guide
       orientation="0,1"
       position="-61,400"
       id="guide3180" />
  </sodipodi:namedview>
  <metadata
     id="metadata7">
    <rdf:RDF>
      <cc:Work
         rdf:about="">
        <dc:format>image/svg+xml</dc:format>
        <dc:type
           rdf:resource="http://purl.org/dc/dcmitype/StillImage" />
        <dc:title></dc:title>
      </cc:Work>
    </rdf:RDF>
  </metadata>
  <g
     inkscape:label="Layer 1"
     inkscape:groupmode="layer"
     id="layer1"
     transform="translate(0,-252.36218)">
    <path
       id="rect3040"
       transform="translate(0,252.36218)"
       style="fill:#ff0000"
       d="m 485.1875,33.09375 c -0.98744,0.0331 -2.04657,0.1979 -2.625,0.4375 -1.88189,0.77949 -4.55584,3.76115 -6.15625,6.9375 -0.72034,1.42973 -1.71248,3.21955 -2.21875,3.9375 -0.50629,0.71796 -0.90625,1.63091 -0.90625,2.0625 0,0.43159 -0.17251,0.78125 -0.40625,0.78125 -0.77483,0 -3.21539,7.97479 -3.75,12.28125 -0.15109,1.21717 -0.83796,5.22354 -1.5,8.875 -1.29789,7.15847 -3.38715,25.18016 -4.1875,35.90625 -0.81827,10.96581 -0.98325,12.43615 -1.6875,15 -0.37147,1.35238 -0.80409,4.27926 -0.96875,6.53125 -0.16466,2.25201 -0.66481,5.64075 -1.0625,7.53125 -0.8966,4.26258 -0.92286,14.93191 -0.0625,16.625 0.33407,0.65742 1.63596,1.7266 2.9375,2.375 1.99304,0.99287 3.49868,1.26031 9.375,1.59375 10.79379,0.61249 21.59329,0.30882 25.875,-0.6875 4.25557,-0.99024 4.79189,-1.34418 6,-4 1.86158,-4.09242 0.79327,-10.64079 -3.25,-19.90625 -4.19494,-9.61322 -7.63913,-25.46451 -8.375,-38.59375 -0.33753,-6.0234 -2.83748,-24.17048 -3.75,-27.28125 -0.27768,-0.94666 -0.63322,-4.49399 -0.78125,-7.875 -0.2367,-5.40899 -0.12193,-6.89817 1.03125,-12.4375 1.28783,-6.18639 1.31117,-6.33754 0.4375,-8.125 -0.7991,-1.63488 -1.09186,-1.82997 -3.03125,-1.96875 -0.29668,-0.0211 -0.60836,-0.01101 -0.9375,0 z m -0.84375,2.9375 c 0.14651,-0.0139 0.29739,-0.0137 0.4375,0 l 1.53125,0.15625 -0.0625,3.1875 c -0.0346,1.75812 -0.33583,4.4186 -0.65625,5.90625 -0.74295,3.44972 -0.78055,15.15224 -0.0625,18.6875 0.30217,1.48765 0.76448,4.58667 1.03125,6.875 0.26679,2.28835 0.79976,5.95041 1.1875,8.125 0.38772,2.17456 0.97731,6.71275 1.28125,10.09375 0.5057,5.62562 1.15913,9.55256 2.53125,15.0625 0.73929,2.96873 0.14362,3.38398 -1.8125,1.21875 -1.2049,-1.33365 -2.85062,-2.31649 -5.6875,-3.4375 -4.32174,-1.70885 -5.33651,-1.71794 -9.15625,0 -1.1347,0.51034 -2.26691,0.9375 -2.53125,0.9375 -0.7371,0 -4.99254,4.99908 -5.3125,6.25 -0.48943,1.9136 -1.15371,1.21401 -1.15625,-1.21875 -0.005,-4.84755 2.19022,-26.90137 3.4375,-34.5625 0.24219,-1.48763 0.77294,-5.0037 1.21875,-7.84375 0.87037,-5.54468 1.92251,-9.64231 3.03125,-12.125 0.38067,-0.85232 0.65625,-1.7175 0.65625,-1.90625 0,-0.18872 0.31933,-1.05393 0.6875,-1.90625 0.36818,-0.85232 1.42716,-3.26085 2.34375,-5.375 2.0163,-4.65018 4.86495,-7.91683 7.0625,-8.125 z M 479.125,104.375 c 0.29167,-0.0145 0.55527,-0.007 0.84375,0 1.92323,0.0506 3.76944,0.62182 5.9375,1.71875 4.55579,2.30501 7.43244,6.95016 9,14.5625 0.31929,1.5506 1.39957,4.7632 2.4375,7.15625 3.13008,7.21681 5.10991,14.19469 4.8125,17.0625 -0.47193,4.54986 -1.52797,5.77775 -6,6.96875 -2.59462,0.69102 -6.86395,0.70685 -13.03125,0.125 -2.02858,-0.19138 -7.1449,-0.3395 -11.375,-0.375 -10.38146,-0.0867 -10.03225,0.21119 -9.9375,-8.25 0.0837,-7.46089 0.65974,-11.97939 2.6875,-20.625 2.34799,-10.01121 2.63477,-10.661 6.03125,-14.125 2.5963,-2.64789 3.43931,-3.21193 5.8125,-3.78125 0.9823,-0.23571 1.90621,-0.39427 2.78125,-0.4375 z" />
  </g>
</svg>
