<?xml version="1.0" encoding="UTF-8" standalone="no"?>
<!-- Created with Inkscape (http://www.inkscape.org/) -->

<svg
   xmlns:dc="http://purl.org/dc/elements/1.1/"
   xmlns:cc="http://creativecommons.org/ns#"
   xmlns:rdf="http://www.w3.org/1999/02/22-rdf-syntax-ns#"
   xmlns:svg="http://www.w3.org/2000/svg"
   xmlns="http://www.w3.org/2000/svg"
   xmlns:sodipodi="http://sodipodi.sourceforge.net/DTD/sodipodi-0.dtd"
   xmlns:inkscape="http://www.inkscape.org/namespaces/inkscape"
   width="800"
   height="700"
   id="svg2"
   version="1.1"
   inkscape:version="0.48.2 r9819"
   sodipodi:docname="m9.svg">
  <defs
     id="defs4" />
  <sodipodi:namedview
     id="base"
     pagecolor="#ffffff"
     bordercolor="#666666"
     borderopacity="1.0"
     inkscape:pageopacity="0.0"
     inkscape:pageshadow="2"
     inkscape:zoom="1.767767"
     inkscape:cx="407.00442"
     inkscape:cy="467.62781"
     inkscape:document-units="px"
     inkscape:current-layer="layer1"
     showgrid="false"
     showguides="true"
     inkscape:guide-bbox="true"
     inkscape:window-width="1366"
     inkscape:window-height="746"
     inkscape:window-x="-8"
     inkscape:window-y="-8"
     inkscape:window-maximized="1"
     width="0px"
     height="0px"
     fit-margin-top="0"
     fit-margin-left="0"
     fit-margin-right="0"
     fit-margin-bottom="0">
    <sodipodi:guide
       orientation="1,0"
       position="400.22244,349.31075"
       id="guide3178" />
    <sodipodi:guide
       orientation="0,1"
       position="400.22244,349.31075"
       id="guide3180" />
  </sodipodi:namedview>
  <metadata
     id="metadata7">
    <rdf:RDF>
      <cc:Work
         rdf:about="">
        <dc:format>image/svg+xml</dc:format>
        <dc:type
           rdf:resource="http://purl.org/dc/dcmitype/StillImage" />
        <dc:title></dc:title>
      </cc:Work>
    </rdf:RDF>
  </metadata>
  <g
     inkscape:label="Layer 1"
     inkscape:groupmode="layer"
     id="layer1"
     transform="translate(0,-352.36218)">
    <path
       id="rect3118"
       transform="translate(0,352.36218)"
       style="fill:#ff0000"
       d="m 419,206.5 c -5.82413,0.0595 -7.0448,0.66847 -9.53125,3.46875 -2.63872,2.97181 -3.07976,6.48671 -1.625,13.09375 1.44551,6.56502 2.58595,14.45311 2.875,20.09375 0.28181,5.49854 2.45829,21.96445 3.1875,23.96875 0.21766,0.59815 0.64595,2.35104 0.9375,3.90625 0.29155,1.55524 1.08391,4.99308 1.75,7.625 0.66605,2.63193 1.44842,6.23676 1.71875,8.03125 0.76909,5.10544 2.80748,11.78277 5.65625,18.46875 0.91749,2.15338 1.80415,4.26813 1.9375,4.6875 0.13328,0.4194 1.15047,1.37664 2.28125,2.09375 2.42664,1.53893 4.83762,1.71864 5.96875,0.46875 0.69018,-0.76266 0.703,-2.17704 0.25,-20.5625 -0.4932,-20.0165 -0.2816,-25.96069 1.25,-35.1875 0.21843,-1.31599 0.72908,-4.42521 1.125,-6.9375 0.82569,-5.23912 0.95336,-5.78013 1.84375,-7.75 0.35908,-0.79447 1.14992,-3.17332 1.75,-5.25 0.95227,-3.29518 1.82121,-5.6881 3.21875,-8.96875 1.27907,-3.0026 1.69313,-4.41052 2.15625,-7.28125 0.48698,-3.01892 0.43786,-3.37634 -0.5,-5.59375 -1.82379,-4.31174 -2.77951,-5.46933 -5.0625,-6.21875 -3.81601,-1.25263 -11.03038,-2.09305 -18.40625,-2.15625 -1.03735,-0.01 -1.94922,-0.009 -2.78125,0 z m -0.3125,1.5 c 1.83634,-0.005 3.9094,0.12468 5.9375,0.40625 1.67487,0.23252 5.52896,0.70551 8.59375,1.0625 5.70979,0.665 6.70792,0.98914 8.1875,2.46875 2.86989,2.86987 3.40419,7.59934 1.4375,12.75 -0.63954,1.67488 -1.40433,3.99083 -1.71875,5.125 -0.31437,1.13423 -1.38342,3.96041 -2.375,6.28125 -0.99157,2.32086 -2.19849,5.29471 -2.6875,6.625 -0.48905,1.33026 -1.1594,2.73484 -1.46875,3.09375 -0.30936,0.3589 -0.6615,1.14474 -0.8125,1.75 -0.47314,1.89681 -3.08198,4.24137 -5.53125,4.96875 -2.69196,0.79939 -2.43896,0.78432 -4.15625,-0.0625 -1.91806,-0.94577 -3.32878,-2.90403 -4.90625,-6.875 -0.73523,-1.8508 -2.73565,-6.2506 -4.4375,-9.75 -4.14778,-8.52879 -6,-14.59221 -6,-19.59375 l 0,-3.78125 1.84375,-1.78125 c 1.06938,-1.0367 2.58727,-1.9776 3.59375,-2.25 1.06729,-0.28885 2.66366,-0.43317 4.5,-0.4375 z m -0.0312,3.4375 c -0.79451,0.0402 -1.77117,0.26426 -2.46875,0.625 -1.28603,0.66503 -2.00953,2.00993 -2.46875,4.65625 -0.57065,3.28862 2.72965,13.21583 5.6875,17.09375 1.31904,1.72937 2.33115,1.94126 3.4375,0.71875 0.90541,-1.00044 0.1698,-1.71084 -0.875,-0.84375 -0.57809,0.4798 -0.81798,0.34625 -1.59375,-0.71875 -0.50219,-0.68936 -1.7178,-3.11389 -2.65625,-5.40625 -1.59472,-3.89545 -1.66945,-4.48627 -1.71875,-8.8125 -0.0592,-5.21447 0.46033,-6.4375 2.8125,-6.4375 0.6807,0 1.25,-0.1982 1.25,-0.4375 0,-0.32514 -0.61177,-0.47788 -1.40625,-0.4375 z m 17.15625,0.875 c -0.34105,0 0.0594,0.78126 0.96875,1.84375 1.97834,2.31123 2.23475,3.36527 1.59375,6.46875 -0.6064,2.93574 -2.80771,8.46669 -3.875,9.71875 -0.96367,1.13048 -2.25,3.47699 -2.25,4.09375 0,0.95583 0.82055,0.42746 2.5,-1.59375 2.14364,-2.57983 2.35073,-2.97173 3.75,-7.25 1.7376,-5.31266 1.89191,-7.55703 0.65625,-10.03125 -1.03222,-2.06671 -2.25678,-3.25 -3.34375,-3.25 z M 412.59375,236.25 c 0.22495,-0.0211 0.55449,0.3787 0.96875,1.1875 0.33701,0.658 1.10302,2.0483 1.71875,3.125 0.61573,1.0767 1.70352,3.60873 2.40625,5.625 1.01832,2.92181 1.66536,4.0644 3.21875,5.5625 3.02486,2.91721 6.74458,3.07776 11.25,0.5 L 434.5625,250.84375 434.25,253 c -1.75252,12.62371 -2.06751,18.7291 -1.8125,34.5625 0.1407,8.73321 0.43258,16.73581 0.65625,17.8125 0.6992,3.36533 0.54604,5.58408 -0.40625,6.09375 -1.32864,0.71107 -2.53697,0.52824 -3.53125,-0.53125 -1.64756,-1.75566 -5.13766,-9.80171 -5.15625,-11.84375 -0.005,-0.47851 -0.59437,-2.3803 -1.28125,-4.21875 -0.68681,-1.8385 -1.48936,-4.68164 -1.78125,-6.3125 -0.29198,-1.63089 -0.88417,-3.92866 -1.3125,-5.125 -0.42831,-1.19633 -1.00196,-3.34564 -1.28125,-4.78125 -0.27928,-1.43557 -0.80775,-3.82261 -1.15625,-5.28125 -0.68429,-2.86431 -1.21985,-6.59553 -1.9375,-13.4375 -0.25092,-2.39268 -0.73636,-5.92962 -1.09375,-7.84375 -0.35743,-1.91414 -0.82837,-5.35196 -1.0625,-7.625 -0.23419,-2.27303 -0.53912,-5.05099 -0.6875,-6.1875 -0.15172,-1.16199 -0.12028,-1.8419 0.0937,-2 0.0268,-0.0199 0.0616,-0.0281 0.0937,-0.0312 z M 427,236.65625 c -0.48046,0 -0.58699,3.16303 -0.125,3.625 0.51398,0.51402 0.5625,0.33549 0.5625,-1.65625 0,-1.07684 -0.19823,-1.96875 -0.4375,-1.96875 z" />
  </g>
</svg>
