<?xml version="1.0" encoding="UTF-8" standalone="no"?>
<!-- Created with Inkscape (http://www.inkscape.org/) -->

<svg
   xmlns:dc="http://purl.org/dc/elements/1.1/"
   xmlns:cc="http://creativecommons.org/ns#"
   xmlns:rdf="http://www.w3.org/1999/02/22-rdf-syntax-ns#"
   xmlns:svg="http://www.w3.org/2000/svg"
   xmlns="http://www.w3.org/2000/svg"
   xmlns:sodipodi="http://sodipodi.sourceforge.net/DTD/sodipodi-0.dtd"
   xmlns:inkscape="http://www.inkscape.org/namespaces/inkscape"
   width="900"
   height="800"
   id="svg2"
   version="1.1"
   inkscape:version="0.48.2 r9819"
   sodipodi:docname="m9.svg">
  <defs
     id="defs4" />
  <sodipodi:namedview
     id="base"
     pagecolor="#ffffff"
     bordercolor="#666666"
     borderopacity="1.0"
     inkscape:pageopacity="0.0"
     inkscape:pageshadow="2"
     inkscape:zoom="1.4142136"
     inkscape:cx="518.64513"
     inkscape:cy="555.45078"
     inkscape:document-units="px"
     inkscape:current-layer="layer1"
     showgrid="false"
     showguides="true"
     inkscape:guide-bbox="true"
     inkscape:window-width="1366"
     inkscape:window-height="746"
     inkscape:window-x="-8"
     inkscape:window-y="-8"
     inkscape:window-maximized="1"
     width="0px"
     height="0px"
     fit-margin-top="0"
     fit-margin-left="0"
     fit-margin-right="0"
     fit-margin-bottom="0">
    <sodipodi:guide
       orientation="1,0"
       position="450,784"
       id="guide3178" />
    <sodipodi:guide
       orientation="0,1"
       position="-61,400"
       id="guide3180" />
  </sodipodi:namedview>
  <metadata
     id="metadata7">
    <rdf:RDF>
      <cc:Work
         rdf:about="">
        <dc:format>image/svg+xml</dc:format>
        <dc:type
           rdf:resource="http://purl.org/dc/dcmitype/StillImage" />
        <dc:title></dc:title>
      </cc:Work>
    </rdf:RDF>
  </metadata>
  <g
     inkscape:label="Layer 1"
     inkscape:groupmode="layer"
     id="layer1"
     transform="translate(0,-252.36218)">
    <path
       id="rect3048"
       transform="translate(0,252.36218)"
       style="fill:#ff0000"
       d="m 472.5625,233.46875 c -6.58391,0.0673 -7.93919,0.74065 -10.75,3.90625 -2.98295,3.35949 -3.48829,7.37481 -1.84375,14.84375 1.63407,7.42145 2.92325,16.34227 3.25,22.71875 0.31857,6.21584 2.80066,24.79674 3.625,27.0625 0.24604,0.67621 0.70166,2.64815 1.03125,4.40625 0.32959,1.75811 1.21579,5.64975 1.96875,8.625 0.75296,2.97526 1.63191,7.06516 1.9375,9.09375 0.86941,5.77145 3.18586,13.31682 6.40625,20.875 1.03718,2.4343 2.03675,4.83841 2.1875,5.3125 0.15066,0.47412 1.2842,1.53309 2.5625,2.34375 2.74319,1.73968 5.47131,1.94417 6.75,0.53125 0.78021,-0.86217 0.82459,-2.43485 0.3125,-23.21875 -0.55755,-22.62772 -0.3564,-29.35077 1.375,-39.78125 0.24692,-1.48766 0.86492,-5.00372 1.3125,-7.84375 0.93339,-5.92258 1.05596,-6.5544 2.0625,-8.78125 0.40594,-0.89811 1.32162,-3.55866 2,-5.90625 1.07648,-3.72503 2.04515,-6.44765 3.625,-10.15625 1.44592,-3.39431 1.91396,-4.97351 2.4375,-8.21875 0.55051,-3.41275 0.52896,-3.83706 -0.53125,-6.34375 -2.0617,-4.8742 -3.16916,-6.18407 -5.75,-7.03125 -4.3138,-1.41604 -12.44318,-2.36605 -20.78125,-2.4375 -1.17268,-0.0103 -2.24694,-0.01 -3.1875,0 z m -0.34375,1.6875 c 2.0759,-0.005 4.4261,0.15046 6.71875,0.46875 1.89336,0.26285 6.25415,0.8152 9.71875,1.21875 6.45465,0.75176 7.60864,1.10862 9.28125,2.78125 3.24427,3.24425 3.817,8.58365 1.59375,14.40625 -0.72297,1.89336 -1.58207,4.49913 -1.9375,5.78125 -0.3554,1.28219 -1.56655,4.5014 -2.6875,7.125 -1.12093,2.62362 -2.50971,5.99618 -3.0625,7.5 -0.55287,1.5038 -1.2753,3.06303 -1.625,3.46875 -0.34972,0.40572 -0.7668,1.28452 -0.9375,1.96875 -0.53486,2.14424 -3.48122,4.83398 -6.25,5.65625 -3.04315,0.90368 -2.77745,0.86343 -4.71875,-0.0937 -2.16829,-1.06914 -3.748,-3.29225 -5.53125,-7.78125 -0.83114,-2.09224 -3.07613,-7.04409 -5,-11 -4.68886,-9.64141 -6.8125,-16.50223 -6.8125,-22.15625 l 0,-4.28125 2.09375,-2 c 1.20888,-1.17195 2.92472,-2.25456 4.0625,-2.5625 1.20651,-0.32653 3.01786,-0.49511 5.09375,-0.5 z m -0.0312,3.90625 c -0.89815,0.0456 -2.02392,0.27971 -2.8125,0.6875 -1.4538,0.7518 -2.23088,2.28971 -2.75,5.28125 -0.6451,3.71764 3.06254,14.92868 6.40625,19.3125 1.49111,1.95498 2.62433,2.19448 3.875,0.8125 1.02353,-1.13095 0.18109,-1.94894 -1,-0.96875 -0.65352,0.54241 -0.90427,0.42268 -1.78125,-0.78125 -0.5677,-0.77929 -1.90787,-3.5336 -2.96875,-6.125 -1.80276,-4.40364 -1.94428,-5.07815 -2,-9.96875 -0.067,-5.89473 0.55974,-7.28125 3.21875,-7.28125 0.76951,0 1.375,-0.2295 1.375,-0.5 0,-0.36757 -0.66437,-0.5144 -1.5625,-0.46875 z m 19.375,0.96875 c -0.38552,0 0.0969,0.89265 1.125,2.09375 2.23641,2.61274 2.50588,3.80416 1.78125,7.3125 -0.6855,3.3187 -3.16847,9.5846 -4.375,11 -1.08939,1.27797 -2.53125,3.92778 -2.53125,4.625 0,1.08052 0.91397,0.50365 2.8125,-1.78125 2.42328,-2.91637 2.66819,-3.41362 4.25,-8.25 1.96427,-6.00572 2.14685,-8.48425 0.75,-11.28125 -1.16688,-2.33632 -2.58372,-3.71875 -3.8125,-3.71875 z m -26.25,27.0625 c 0.2543,-0.0239 0.6567,0.42943 1.125,1.34375 0.38098,0.74383 1.24143,2.34534 1.9375,3.5625 0.69605,1.21715 1.92434,4.06443 2.71875,6.34375 1.15117,3.30295 1.86896,4.58772 3.625,6.28125 3.41947,3.29777 7.62558,3.47654 12.71875,0.5625 l 2.71875,-1.5625 -0.34375,2.4375 c -1.98114,14.27052 -2.35078,21.16358 -2.0625,39.0625 0.15904,9.87248 0.52839,18.90786 0.78125,20.125 0.79041,3.80435 0.60778,6.3301 -0.46875,6.90625 -1.50195,0.80384 -2.87601,0.57271 -4,-0.625 -1.8625,-1.98468 -5.82273,-11.06659 -5.84375,-13.375 -0.005,-0.54094 -0.66102,-2.70296 -1.4375,-4.78125 -0.77642,-2.07833 -1.67002,-5.31263 -2,-7.15625 -0.33005,-1.84364 -1.0158,-4.39759 -1.5,-5.75 -0.48418,-1.35239 -1.15305,-3.81462 -1.46875,-5.4375 -0.31572,-1.62286 -0.88729,-4.31984 -1.28125,-5.96875 -0.77355,-3.23798 -1.37624,-7.45297 -2.1875,-15.1875 -0.28367,-2.70482 -0.84597,-6.67991 -1.25,-8.84375 -0.40405,-2.16384 -0.92283,-6.05545 -1.1875,-8.625 -0.26473,-2.56956 -0.61351,-5.71522 -0.78125,-7 -0.17151,-1.31357 -0.14821,-2.07127 0.0937,-2.25 0.0303,-0.0225 0.0574,-0.059 0.0937,-0.0625 z m 16.3125,0.46875 c -0.54315,0 -0.67849,3.57151 -0.15625,4.09375 0.58105,0.58107 0.65625,0.40781 0.65625,-1.84375 0,-1.21731 -0.22952,-2.25 -0.5,-2.25 z" />
  </g>
</svg>
