<?xml version="1.0" encoding="UTF-8" standalone="no"?>
<!-- Created with Inkscape (http://www.inkscape.org/) -->

<svg
   xmlns:dc="http://purl.org/dc/elements/1.1/"
   xmlns:cc="http://creativecommons.org/ns#"
   xmlns:rdf="http://www.w3.org/1999/02/22-rdf-syntax-ns#"
   xmlns:svg="http://www.w3.org/2000/svg"
   xmlns="http://www.w3.org/2000/svg"
   xmlns:sodipodi="http://sodipodi.sourceforge.net/DTD/sodipodi-0.dtd"
   xmlns:inkscape="http://www.inkscape.org/namespaces/inkscape"
   width="900"
   height="800"
   id="svg2"
   version="1.1"
   inkscape:version="0.48.2 r9819"
   sodipodi:docname="f9.svg">
  <defs
     id="defs4" />
  <sodipodi:namedview
     id="base"
     pagecolor="#ffffff"
     bordercolor="#666666"
     borderopacity="1.0"
     inkscape:pageopacity="0.0"
     inkscape:pageshadow="2"
     inkscape:zoom="1.4142136"
     inkscape:cx="518.64513"
     inkscape:cy="555.45078"
     inkscape:document-units="px"
     inkscape:current-layer="layer1"
     showgrid="false"
     showguides="true"
     inkscape:guide-bbox="true"
     inkscape:window-width="1366"
     inkscape:window-height="746"
     inkscape:window-x="-8"
     inkscape:window-y="-8"
     inkscape:window-maximized="1"
     width="0px"
     height="0px"
     fit-margin-top="0"
     fit-margin-left="0"
     fit-margin-right="0"
     fit-margin-bottom="0">
    <sodipodi:guide
       orientation="1,0"
       position="450,784"
       id="guide3178" />
    <sodipodi:guide
       orientation="0,1"
       position="-61,400"
       id="guide3180" />
  </sodipodi:namedview>
  <metadata
     id="metadata7">
    <rdf:RDF>
      <cc:Work
         rdf:about="">
        <dc:format>image/svg+xml</dc:format>
        <dc:type
           rdf:resource="http://purl.org/dc/dcmitype/StillImage" />
        <dc:title></dc:title>
      </cc:Work>
    </rdf:RDF>
  </metadata>
  <g
     inkscape:label="Layer 1"
     inkscape:groupmode="layer"
     id="layer1"
     transform="translate(0,-252.36218)">
    <path
       id="rect3044"
       transform="translate(0,252.36218)"
       style="fill:#ff0000"
       d="m 475.625,162.34375 c -1.76196,0.0502 -2.87807,0.3367 -4.84375,0.96875 -4.15584,1.33628 -5.87457,2.67833 -8.25,6.375 -1.66763,2.59535 -1.73357,2.90476 -1.75,7.125 -0.0157,4.01908 0.0852,4.68351 1.375,6.84375 0.78121,1.30846 1.7276,2.4533 2.09375,2.59375 0.36617,0.14049 0.6875,0.55248 0.6875,0.90625 0,0.35381 0.97035,1.5536 2.1875,2.625 1.21716,1.07135 2.21875,2.15453 2.21875,2.40625 0,0.99451 9.54122,9.48146 11.96875,10.65625 3.47929,1.68378 6.8523,1.70307 9.3125,0.0312 1.00943,-0.68595 1.84375,-1.46444 1.84375,-1.75 0,-0.28557 0.44149,-1.12477 1,-1.84375 2.38349,-3.06832 7.48912,-11.67018 8.1875,-13.78125 0.41703,-1.26068 0.95297,-2.49305 1.1875,-2.75 0.23454,-0.25696 0.4375,-1.89885 0.4375,-3.6875 0,-2.47139 -0.27353,-3.91574 -1.21875,-5.875 -1.47941,-3.06668 -5.02624,-6.69821 -7.46875,-7.71875 -3.61312,-1.50966 -9.4225,-2.67718 -14.75,-2.96875 -1.83779,-0.10042 -3.16157,-0.18633 -4.21875,-0.15625 z m 2.71875,2.53125 c 8.24173,-0.12302 17.10894,2.32358 20.65625,6.25 2.05496,2.27458 2.58382,4.80651 2.15625,9.90625 -0.26372,3.14586 -2.08487,7.59966 -4.03125,9.84375 -0.35194,0.40574 -1.44076,2.30838 -2.4375,4.25 -0.99674,1.94166 -2.63958,4.43001 -3.65625,5.53125 -1.56227,1.69227 -2.15876,1.97929 -3.78125,1.96875 -3.37768,-0.022 -7.55514,-2.48556 -11.125,-6.5625 -1.74704,-1.99519 -4.61194,-4.81456 -6.34375,-6.28125 -2.90263,-2.45829 -6.34271,-6.82056 -6.3125,-8 0.0277,-1.08668 8.11273,-3.85492 13.625,-4.65625 7.54338,-1.09659 16.37281,-0.56882 20.6875,1.25 1.92869,0.81309 2.19204,0.82094 1.78125,0.15625 -0.76169,-1.23242 -6.00293,-3.26234 -9.0625,-3.53125 -3.80501,-0.3344 -15.87551,0.35003 -17.96875,1.03125 -0.81142,0.26407 -2.78338,0.87315 -4.40625,1.34375 -1.62287,0.47062 -3.45722,1.26844 -4.03125,1.78125 -0.94238,0.84176 -1.03373,0.82028 -1.3125,0.0937 -0.4778,-1.2451 -0.38484,-4.44674 0.21875,-6.84375 0.68999,-2.74016 3.91934,-5.54641 7.53125,-6.53125 2.39165,-0.65222 5.06528,-0.95901 7.8125,-1 z m 11.78125,15.21875 c -1.62493,-0.002 -3.43853,0.29836 -5.4375,0.90625 -2.62774,0.79913 -4.03653,0.86106 -9.34375,0.625 -5.49168,-0.24422 -6.38624,-0.14505 -7.125,0.59375 -0.46333,0.46333 -0.84375,1.26128 -0.84375,1.78125 0,0.94329 9.40277,10.44358 11.5,11.625 0.58319,0.32853 1.5164,0.61555 2.125,0.625 1.04297,0.0164 1.125,-0.18908 1.125,-3.40625 0,-1.87737 -0.22952,-3.55157 -0.5,-3.71875 -0.30038,-0.18565 -0.46875,0.56803 -0.46875,1.9375 0,1.2331 -0.22042,2.25 -0.46875,2.25 -0.24837,0 -0.77561,0.13518 -1.15625,0.28125 -1.02512,0.39339 -9.92021,-8.33013 -9.53125,-9.34375 0.25487,-0.6641 1.30798,-0.78125 6.875,-0.78125 4.41573,0 7.37901,-0.22701 9,-0.71875 2.82726,-0.85767 6.73591,-0.96217 8.125,-0.21875 0.8464,0.45297 0.92271,0.84629 0.625,2.84375 -0.18894,1.26775 -0.68421,2.80995 -1.09375,3.4375 -0.40959,0.62758 -1.10141,1.82744 -1.53125,2.6875 -0.42975,0.86012 -0.89517,1.5625 -1.0625,1.5625 -0.1673,0 -1.08539,-0.96032 -2,-2.15625 -2.06911,-2.70552 -3.02322,-3.15703 -2.5625,-1.1875 0.18018,0.77031 0.76305,2.26186 1.34375,3.34375 0.92099,1.71597 1.28818,1.96875 2.78125,1.96875 1.38113,0 1.72137,-0.20245 1.84375,-1.0625 0.0835,-0.58623 0.71467,-1.63126 1.375,-2.34375 0.66031,-0.71252 1.1875,-1.47285 1.1875,-1.6875 0,-0.21459 0.45904,-0.82293 1,-1.3125 0.69053,-0.62497 0.96875,-1.49674 0.96875,-2.96875 0,-2.91884 -0.34206,-3.55535 -2.5,-4.65625 -1.19949,-0.61185 -2.62505,-0.9042 -4.25,-0.90625 z" />
  </g>
</svg>
