<?xml version="1.0" encoding="UTF-8" standalone="no"?>
<!-- Created with Inkscape (http://www.inkscape.org/) -->

<svg
   xmlns:dc="http://purl.org/dc/elements/1.1/"
   xmlns:cc="http://creativecommons.org/ns#"
   xmlns:rdf="http://www.w3.org/1999/02/22-rdf-syntax-ns#"
   xmlns:svg="http://www.w3.org/2000/svg"
   xmlns="http://www.w3.org/2000/svg"
   xmlns:sodipodi="http://sodipodi.sourceforge.net/DTD/sodipodi-0.dtd"
   xmlns:inkscape="http://www.inkscape.org/namespaces/inkscape"
   width="800"
   height="700"
   id="svg2"
   version="1.1"
   inkscape:version="0.48.2 r9819"
   sodipodi:docname="f9.svg">
  <defs
     id="defs4" />
  <sodipodi:namedview
     id="base"
     pagecolor="#ffffff"
     bordercolor="#666666"
     borderopacity="1.0"
     inkscape:pageopacity="0.0"
     inkscape:pageshadow="2"
     inkscape:zoom="2"
     inkscape:cx="561.65387"
     inkscape:cy="472.12681"
     inkscape:document-units="px"
     inkscape:current-layer="layer1"
     showgrid="false"
     showguides="true"
     inkscape:guide-bbox="true"
     inkscape:window-width="1366"
     inkscape:window-height="746"
     inkscape:window-x="-8"
     inkscape:window-y="-8"
     inkscape:window-maximized="1"
     width="0px"
     height="0px"
     fit-margin-top="0"
     fit-margin-left="0"
     fit-margin-right="0"
     fit-margin-bottom="0">
    <sodipodi:guide
       orientation="1,0"
       position="400.22244,349.31075"
       id="guide3178" />
    <sodipodi:guide
       orientation="0,1"
       position="400.22244,349.31075"
       id="guide3180" />
  </sodipodi:namedview>
  <metadata
     id="metadata7">
    <rdf:RDF>
      <cc:Work
         rdf:about="">
        <dc:format>image/svg+xml</dc:format>
        <dc:type
           rdf:resource="http://purl.org/dc/dcmitype/StillImage" />
        <dc:title></dc:title>
      </cc:Work>
    </rdf:RDF>
  </metadata>
  <g
     inkscape:label="Layer 1"
     inkscape:groupmode="layer"
     id="layer1"
     transform="translate(0,-352.36218)">
    <path
       id="rect3123"
       transform="translate(0,352.36218)"
       style="fill:#ff0000"
       d="m 421.6875,143.59375 c -1.55864,0.0445 -2.54241,0.28463 -4.28125,0.84375 -3.67626,1.18209 -5.17994,2.35494 -7.28125,5.625 -1.4752,2.29587 -1.54796,2.57927 -1.5625,6.3125 -0.0139,3.55527 0.0778,4.12029 1.21875,6.03125 0.69106,1.15746 1.51985,2.18826 1.84375,2.3125 0.32392,0.12429 0.625,0.49955 0.625,0.8125 0,0.31297 0.86081,1.36473 1.9375,2.3125 1.07671,0.94772 1.96875,1.90233 1.96875,2.125 0,0.87975 8.4151,8.39829 10.5625,9.4375 3.07779,1.48948 6.07369,1.51013 8.25,0.0312 0.89292,-0.60679 1.625,-1.30989 1.625,-1.5625 0,-0.25262 0.38095,-0.98899 0.875,-1.625 2.10845,-2.71424 6.63222,-10.32003 7.25,-12.1875 0.36891,-1.11519 0.85503,-2.21021 1.0625,-2.4375 0.20748,-0.22732 0.375,-1.699 0.375,-3.28125 0,-2.18619 -0.2576,-3.42307 -1.09375,-5.15625 -1.30868,-2.71278 -4.4331,-5.94097 -6.59375,-6.84375 -3.19617,-1.33545 -8.34981,-2.36708 -13.0625,-2.625 -1.62572,-0.0887 -2.78358,-0.15161 -3.71875,-0.125 z m 2.4375,2.21875 c 7.29064,-0.10882 15.11203,2.05793 18.25,5.53125 1.8178,2.01211 2.28448,4.23876 1.90625,8.75 -0.2333,2.78284 -1.84073,6.73364 -3.5625,8.71875 -0.31133,0.35892 -1.27453,2.03245 -2.15625,3.75 -0.88172,1.7176 -2.35065,3.93208 -3.25,4.90625 -1.38197,1.49697 -1.87724,1.75933 -3.3125,1.75 -2.98791,-0.0195 -6.68585,-2.20603 -9.84375,-5.8125 -1.54543,-1.76494 -4.09305,-4.26508 -5.625,-5.5625 -2.56768,-2.1746 -5.62048,-6.05042 -5.59375,-7.09375 0.0245,-0.96128 7.18632,-3.41614 12.0625,-4.125 6.67287,-0.97004 14.46446,-0.48392 18.28125,1.125 1.70613,0.71927 1.95712,0.74425 1.59375,0.15625 -0.67379,-1.09019 -5.32476,-2.91837 -8.03125,-3.15625 -3.36592,-0.29582 -14.02331,0.3349 -15.875,0.9375 -0.71777,0.23359 -2.47067,0.73995 -3.90625,1.15625 -1.4356,0.41629 -3.05471,1.14013 -3.5625,1.59375 -0.83363,0.74463 -0.90965,0.73646 -1.15625,0.0937 -0.42267,-1.10142 -0.34643,-3.94211 0.1875,-6.0625 0.61037,-2.42397 3.46115,-4.91006 6.65625,-5.78125 2.11566,-0.57695 4.50731,-0.83874 6.9375,-0.875 z m 10.40625,13.46875 c -1.43741,-0.002 -3.04421,0.2435 -4.8125,0.78125 -2.32451,0.7069 -3.58648,0.77133 -8.28125,0.5625 -4.85795,-0.21603 -5.62773,-0.1223 -6.28125,0.53125 -0.40986,0.40987 -0.75,1.10254 -0.75,1.5625 0,0.83443 8.30103,9.26742 10.15625,10.3125 0.51589,0.29062 1.3679,0.5229 1.90625,0.53125 0.92262,0.0146 0.96875,-0.18535 0.96875,-3.03125 0,-1.66073 -0.19823,-3.10211 -0.4375,-3.25 -0.26571,-0.16422 -0.40625,0.50732 -0.40625,1.71875 0,1.09082 -0.18659,1.96875 -0.40625,1.96875 -0.21972,0 -0.69455,0.12078 -1.03125,0.25 -0.90683,0.34799 -8.78157,-7.35337 -8.4375,-8.25 0.22546,-0.58747 1.16916,-0.71875 6.09375,-0.71875 3.90617,0 6.50357,-0.19 7.9375,-0.625 2.50102,-0.7587 5.98994,-0.84513 7.21875,-0.1875 0.74872,0.40069 0.7946,0.73305 0.53125,2.5 -0.16713,1.12147 -0.57522,2.50738 -0.9375,3.0625 -0.36232,0.55518 -0.99476,1.61418 -1.375,2.375 -0.38016,0.76086 -0.82072,1.375 -0.96875,1.375 -0.14799,0 -0.94094,-0.84833 -1.75,-1.90625 -1.83035,-2.39331 -2.68881,-2.80474 -2.28125,-1.0625 0.15939,0.68143 0.70506,2.01171 1.21875,2.96875 0.81471,1.51795 1.11672,1.71875 2.4375,1.71875 1.22176,0 1.54798,-0.14545 1.65625,-0.90625 0.0739,-0.51858 0.63462,-1.46347 1.21875,-2.09375 0.58412,-0.63029 1.03125,-1.31012 1.03125,-1.5 0,-0.18983 0.42773,-0.69192 0.90625,-1.125 0.61084,-0.55285 0.84375,-1.35412 0.84375,-2.65625 0,-2.58202 -0.30983,-3.15114 -2.21875,-4.125 -1.06107,-0.54124 -2.31257,-0.77944 -3.75,-0.78125 z" />
  </g>
</svg>
