<?xml version="1.0" encoding="UTF-8" standalone="no"?>
<!-- Created with Inkscape (http://www.inkscape.org/) -->

<svg
   xmlns:dc="http://purl.org/dc/elements/1.1/"
   xmlns:cc="http://creativecommons.org/ns#"
   xmlns:rdf="http://www.w3.org/1999/02/22-rdf-syntax-ns#"
   xmlns:svg="http://www.w3.org/2000/svg"
   xmlns="http://www.w3.org/2000/svg"
   xmlns:sodipodi="http://sodipodi.sourceforge.net/DTD/sodipodi-0.dtd"
   xmlns:inkscape="http://www.inkscape.org/namespaces/inkscape"
   width="800"
   height="400"
   id="svg2"
   version="1.1"
   inkscape:version="0.48.2 r9819"
   sodipodi:docname="m9.svg">
  <defs
     id="defs4" />
  <sodipodi:namedview
     id="base"
     pagecolor="#ffffff"
     bordercolor="#666666"
     borderopacity="1.0"
     inkscape:pageopacity="0.0"
     inkscape:pageshadow="2"
     inkscape:zoom="2.8284271"
     inkscape:cx="466.95075"
     inkscape:cy="271.78401"
     inkscape:document-units="px"
     inkscape:current-layer="layer1"
     showgrid="false"
     showguides="true"
     inkscape:guide-bbox="true"
     inkscape:window-width="1366"
     inkscape:window-height="746"
     inkscape:window-x="-8"
     inkscape:window-y="-8"
     inkscape:window-maximized="1"
     width="0px"
     height="0px"
     fit-margin-top="0"
     fit-margin-left="0"
     fit-margin-right="0"
     fit-margin-bottom="0">
    <sodipodi:guide
       orientation="1,0"
       position="400.22244,349.31075"
       id="guide3178" />
    <sodipodi:guide
       orientation="0,1"
       position="-117.37973,199.40411"
       id="guide3180" />
  </sodipodi:namedview>
  <metadata
     id="metadata7">
    <rdf:RDF>
      <cc:Work
         rdf:about="">
        <dc:format>image/svg+xml</dc:format>
        <dc:type
           rdf:resource="http://purl.org/dc/dcmitype/StillImage" />
        <dc:title></dc:title>
      </cc:Work>
    </rdf:RDF>
  </metadata>
  <g
     inkscape:label="Layer 1"
     inkscape:groupmode="layer"
     id="layer1"
     transform="translate(0,-652.36218)">
    <path
       id="rect3339"
       transform="translate(0,652.36218)"
       style="fill:#ff0000"
       d="m 423.25,135.3125 c -1.5586,0.0445 -2.54245,0.28463 -4.28125,0.84375 -3.6763,1.18209 -5.2112,2.35494 -7.3125,5.625 -1.4752,2.29587 -1.548,2.61052 -1.5625,6.34375 -0.014,3.55527 0.1095,4.12029 1.25,6.03125 0.691,1.15746 1.51985,2.18826 1.84375,2.3125 0.3239,0.12429 0.59375,0.4683 0.59375,0.78125 0,0.31297 0.8608,1.36473 1.9375,2.3125 1.0767,0.94772 1.96875,1.90233 1.96875,2.125 0,0.87975 8.44635,8.39829 10.59375,9.4375 3.0777,1.48948 6.0737,1.51013 8.25,0.0312 0.8929,-0.60679 1.625,-1.30989 1.625,-1.5625 0,-0.25262 0.3809,-0.95774 0.875,-1.59375 2.1084,-2.71424 6.6323,-10.35128 7.25,-12.21875 0.3689,-1.11519 0.82375,-2.21021 1.03125,-2.4375 0.2075,-0.22732 0.40625,-1.66775 0.40625,-3.25 0,-2.18619 -0.25765,-3.45432 -1.09375,-5.1875 -1.3087,-2.71278 -4.43305,-5.94097 -6.59375,-6.84375 -3.1961,-1.33545 -8.3498,-2.36708 -13.0625,-2.625 -1.6259,-0.0887 -2.78355,-0.15161 -3.71875,-0.125 z m 2.40625,2.21875 c 7.2907,-0.10882 15.14325,2.05793 18.28125,5.53125 1.8178,2.01211 2.28445,4.23876 1.90625,8.75 -0.2333,2.78284 -1.8407,6.73364 -3.5625,8.71875 -0.3113,0.35892 -1.27455,2.0637 -2.15625,3.78125 -0.8817,1.7176 -2.3507,3.90083 -3.25,4.875 -1.382,1.49697 -1.90845,1.75933 -3.34375,1.75 -2.9879,-0.0195 -6.68585,-2.20603 -9.84375,-5.8125 -1.5454,-1.76494 -4.093,-4.26508 -5.625,-5.5625 -2.5677,-2.1746 -5.5893,-6.01917 -5.5625,-7.0625 0.024,-0.96128 7.1863,-3.41614 12.0625,-4.125 6.6729,-0.97004 14.46445,-0.51517 18.28125,1.09375 1.7061,0.71927 1.95715,0.74425 1.59375,0.15625 -0.6738,-1.09019 -5.32485,-2.88712 -8.03125,-3.125 -3.366,-0.29582 -14.0233,0.30365 -15.875,0.90625 -0.7178,0.23359 -2.47065,0.7712 -3.90625,1.1875 -1.4356,0.41629 -3.0547,1.14013 -3.5625,1.59375 -0.8337,0.74463 -0.9409,0.73646 -1.1875,0.0937 -0.4227,-1.10142 -0.3464,-3.94211 0.1875,-6.0625 0.6104,-2.42397 3.4924,-4.91006 6.6875,-5.78125 2.1156,-0.57695 4.47615,-0.86999 6.90625,-0.90625 z M 436.09375,151 c -1.4374,-0.002 -3.07545,0.2435 -4.84375,0.78125 -2.3245,0.7069 -3.5553,0.80258 -8.25,0.59375 -4.858,-0.21603 -5.62775,-0.15355 -6.28125,0.5 -0.4099,0.40987 -0.78125,1.13379 -0.78125,1.59375 0,0.83443 8.3323,9.23617 10.1875,10.28125 0.5159,0.29062 1.36785,0.5229 1.90625,0.53125 0.9226,0.0146 0.96875,-0.1541 0.96875,-3 0,-1.66073 -0.1982,-3.13336 -0.4375,-3.28125 -0.2657,-0.16422 -0.40625,0.50732 -0.40625,1.71875 0,1.09082 -0.2178,1.96875 -0.4375,1.96875 -0.2197,0 -0.6633,0.12078 -1,0.25 -0.9068,0.34799 -8.7815,-7.35337 -8.4375,-8.25 0.2255,-0.58747 1.16915,-0.6875 6.09375,-0.6875 3.9061,0 6.5036,-0.22125 7.9375,-0.65625 2.5011,-0.7587 5.9587,-0.84513 7.1875,-0.1875 0.7488,0.40069 0.8258,0.73305 0.5625,2.5 -0.1671,1.12147 -0.60645,2.50738 -0.96875,3.0625 -0.3623,0.55518 -0.9948,1.61418 -1.375,2.375 -0.3802,0.76086 -0.7895,1.375 -0.9375,1.375 -0.148,0 -0.941,-0.84833 -1.75,-1.90625 -1.8304,-2.39331 -2.68875,-2.80474 -2.28125,-1.0625 0.1594,0.68143 0.70515,2.01171 1.21875,2.96875 0.8148,1.51795 1.1167,1.75 2.4375,1.75 1.2217,0 1.54795,-0.1767 1.65625,-0.9375 0.074,-0.51858 0.6034,-1.46347 1.1875,-2.09375 0.5841,-0.63029 1.0625,-1.31012 1.0625,-1.5 0,-0.18983 0.3965,-0.69192 0.875,-1.125 0.6108,-0.55285 0.875,-1.35412 0.875,-2.65625 0,-2.58202 -0.30985,-3.15114 -2.21875,-4.125 -1.0611,-0.54124 -2.3126,-0.77944 -3.75,-0.78125 z" />
  </g>
</svg>
