<?xml version="1.0" encoding="UTF-8" standalone="no"?>
<!-- Created with Inkscape (http://www.inkscape.org/) -->

<svg
   xmlns:dc="http://purl.org/dc/elements/1.1/"
   xmlns:cc="http://creativecommons.org/ns#"
   xmlns:rdf="http://www.w3.org/1999/02/22-rdf-syntax-ns#"
   xmlns:svg="http://www.w3.org/2000/svg"
   xmlns="http://www.w3.org/2000/svg"
   xmlns:sodipodi="http://sodipodi.sourceforge.net/DTD/sodipodi-0.dtd"
   xmlns:inkscape="http://www.inkscape.org/namespaces/inkscape"
   width="800"
   height="700"
   id="svg2"
   version="1.1"
   inkscape:version="0.48.2 r9819"
   sodipodi:docname="f4.svg">
  <defs
     id="defs4" />
  <sodipodi:namedview
     id="base"
     pagecolor="#ffffff"
     bordercolor="#666666"
     borderopacity="1.0"
     inkscape:pageopacity="0.0"
     inkscape:pageshadow="2"
     inkscape:zoom="1.767767"
     inkscape:cx="239.23402"
     inkscape:cy="593.27649"
     inkscape:document-units="px"
     inkscape:current-layer="layer1"
     showgrid="false"
     showguides="true"
     inkscape:guide-bbox="true"
     inkscape:window-width="1366"
     inkscape:window-height="746"
     inkscape:window-x="-8"
     inkscape:window-y="-8"
     inkscape:window-maximized="1"
     width="0px"
     height="0px"
     fit-margin-top="0"
     fit-margin-left="0"
     fit-margin-right="0"
     fit-margin-bottom="0">
    <sodipodi:guide
       orientation="1,0"
       position="400.22244,349.31075"
       id="guide3178" />
    <sodipodi:guide
       orientation="0,1"
       position="400.22244,349.31075"
       id="guide3180" />
  </sodipodi:namedview>
  <metadata
     id="metadata7">
    <rdf:RDF>
      <cc:Work
         rdf:about="">
        <dc:format>image/svg+xml</dc:format>
        <dc:type
           rdf:resource="http://purl.org/dc/dcmitype/StillImage" />
        <dc:title></dc:title>
      </cc:Work>
    </rdf:RDF>
  </metadata>
  <g
     inkscape:label="Layer 1"
     inkscape:groupmode="layer"
     id="layer1"
     transform="translate(0,-352.36218)">
    <path
       style="fill:#ff0000"
       d="m 180.96875,446.92468 c 0.61682,-0.0262 1.16644,0.16161 2.21875,0.65625 1.06436,0.50031 2.03767,0.9375 2.15625,0.9375 0.52178,0 4.5625,2.71226 4.5625,3.0625 0,0.21389 0.79393,1.39526 1.75,2.65625 0.95602,1.261 1.74695,2.60986 1.75,2.96875 0.002,0.35887 0.30988,1.25096 0.6875,1.96875 1.56231,2.96969 1.99453,5.12165 1.84375,9.03125 l -0.15625,3.875 -2.4375,2.25 c -1.34754,1.23981 -2.97206,3.13868 -3.59375,4.25 -1.33848,2.39252 -3.24805,4.13732 -5.84375,5.25 -1.99643,0.85575 -3.76313,0.98336 -4.84375,0.375 -0.35891,-0.2021 -1.55155,-0.64937 -2.625,-0.96875 -2.37343,-0.70617 -4.26893,-2.28122 -6.09375,-5.125 -1.12045,-1.74603 -1.4264,-2.74885 -1.625,-5.375 -0.34807,-4.60185 0.21077,-6.68153 4.25,-16.1875 0.91503,-2.1534 1.80561,-4.43835 1.96875,-5.09375 0.37226,-1.49503 2.68065,-3.56705 4.75,-4.25 0.51474,-0.16989 0.91116,-0.26551 1.28125,-0.28125 z"
       id="rect3050" />
  </g>
</svg>
