<?xml version="1.0" encoding="UTF-8" standalone="no"?>
<!-- Created with Inkscape (http://www.inkscape.org/) -->

<svg
   xmlns:dc="http://purl.org/dc/elements/1.1/"
   xmlns:cc="http://creativecommons.org/ns#"
   xmlns:rdf="http://www.w3.org/1999/02/22-rdf-syntax-ns#"
   xmlns:svg="http://www.w3.org/2000/svg"
   xmlns="http://www.w3.org/2000/svg"
   xmlns:sodipodi="http://sodipodi.sourceforge.net/DTD/sodipodi-0.dtd"
   xmlns:inkscape="http://www.inkscape.org/namespaces/inkscape"
   width="800"
   height="700"
   id="svg2"
   version="1.1"
   inkscape:version="0.48.2 r9819"
   sodipodi:docname="f4-fill.svg">
  <defs
     id="defs4" />
  <sodipodi:namedview
     id="base"
     pagecolor="#ffffff"
     bordercolor="#666666"
     borderopacity="1.0"
     inkscape:pageopacity="0.0"
     inkscape:pageshadow="2"
     inkscape:zoom="1.767767"
     inkscape:cx="239.23402"
     inkscape:cy="593.27649"
     inkscape:document-units="px"
     inkscape:current-layer="layer1"
     showgrid="false"
     showguides="true"
     inkscape:guide-bbox="true"
     inkscape:window-width="1024"
     inkscape:window-height="538"
     inkscape:window-x="-8"
     inkscape:window-y="-8"
     inkscape:window-maximized="1"
     width="0px"
     height="0px"
     fit-margin-top="0"
     fit-margin-left="0"
     fit-margin-right="0"
     fit-margin-bottom="0">
    <sodipodi:guide
       orientation="1,0"
       position="400.22244,349.31075"
       id="guide3178" />
    <sodipodi:guide
       orientation="0,1"
       position="400.22244,349.31075"
       id="guide3180" />
  </sodipodi:namedview>
  <metadata
     id="metadata7">
    <rdf:RDF>
      <cc:Work
         rdf:about="">
        <dc:format>image/svg+xml</dc:format>
        <dc:type
           rdf:resource="http://purl.org/dc/dcmitype/StillImage" />
        <dc:title />
      </cc:Work>
    </rdf:RDF>
  </metadata>
  <g
     inkscape:label="Layer 1"
     inkscape:groupmode="layer"
     id="layer1"
     transform="translate(0,-352.36218)">
    <path
       id="rect3350"
       transform="translate(0,352.36218)"
       style="fill:#00ff00"
       d="m 180.96875,94.5625 c -0.37009,0.01574 -0.76651,0.11136 -1.28125,0.28125 -2.06935,0.68295 -4.37774,2.75497 -4.75,4.25 -0.16314,0.6554 -1.05372,2.94035 -1.96875,5.09375 -4.03923,9.50597 -4.59807,11.58565 -4.25,16.1875 0.1986,2.62615 0.50455,3.62897 1.625,5.375 1.82482,2.84378 3.72032,4.41883 6.09375,5.125 1.07345,0.31938 2.26609,0.76665 2.625,0.96875 1.08062,0.60836 2.84732,0.48075 4.84375,-0.375 2.5957,-1.11268 4.50527,-2.85748 5.84375,-5.25 0.62169,-1.11132 2.24621,-3.01019 3.59375,-4.25 l 2.4375,-2.25 0.15625,-3.875 c 0.15078,-3.9096 -0.28144,-6.06156 -1.84375,-9.03125 -0.37762,-0.71779 -0.6855,-1.60988 -0.6875,-1.96875 -0.003,-0.35889 -0.79398,-1.70775 -1.75,-2.96875 -0.95607,-1.26099 -1.75,-2.44236 -1.75,-2.65625 0,-0.35024 -4.04072,-3.0625 -4.5625,-3.0625 -0.11858,0 -1.09189,-0.43719 -2.15625,-0.9375 -1.05231,-0.49464 -1.60193,-0.68245 -2.21875,-0.65625 z" />
  </g>
</svg>
