<?xml version="1.0" encoding="UTF-8" standalone="no"?>
<!-- Created with Inkscape (http://www.inkscape.org/) -->

<svg
   xmlns:dc="http://purl.org/dc/elements/1.1/"
   xmlns:cc="http://creativecommons.org/ns#"
   xmlns:rdf="http://www.w3.org/1999/02/22-rdf-syntax-ns#"
   xmlns:svg="http://www.w3.org/2000/svg"
   xmlns="http://www.w3.org/2000/svg"
   xmlns:sodipodi="http://sodipodi.sourceforge.net/DTD/sodipodi-0.dtd"
   xmlns:inkscape="http://www.inkscape.org/namespaces/inkscape"
   width="800"
   height="700"
   id="svg2"
   version="1.1"
   inkscape:version="0.48.2 r9819"
   sodipodi:docname="l29.svg">
  <defs
     id="defs4" />
  <sodipodi:namedview
     id="base"
     pagecolor="#ffffff"
     bordercolor="#666666"
     borderopacity="1.0"
     inkscape:pageopacity="0.0"
     inkscape:pageshadow="2"
     inkscape:zoom="2.5"
     inkscape:cx="767.23831"
     inkscape:cy="227.28513"
     inkscape:document-units="px"
     inkscape:current-layer="layer1"
     showgrid="false"
     showguides="true"
     inkscape:guide-bbox="true"
     inkscape:window-width="1366"
     inkscape:window-height="746"
     inkscape:window-x="-8"
     inkscape:window-y="-8"
     inkscape:window-maximized="1"
     width="0px"
     height="0px"
     fit-margin-top="0"
     fit-margin-left="0"
     fit-margin-right="0"
     fit-margin-bottom="0">
    <sodipodi:guide
       orientation="1,0"
       position="400.22244,349.31075"
       id="guide3178" />
    <sodipodi:guide
       orientation="0,1"
       position="400.22244,349.31075"
       id="guide3180" />
  </sodipodi:namedview>
  <metadata
     id="metadata7">
    <rdf:RDF>
      <cc:Work
         rdf:about="">
        <dc:format>image/svg+xml</dc:format>
        <dc:type
           rdf:resource="http://purl.org/dc/dcmitype/StillImage" />
        <dc:title></dc:title>
      </cc:Work>
    </rdf:RDF>
  </metadata>
  <g
     inkscape:label="Layer 1"
     inkscape:groupmode="layer"
     id="layer1"
     transform="translate(0,-352.36218)">
    <path
       id="rect3372"
       transform="translate(0,352.36218)"
       style="fill:#ff0000"
       d="m 669.59375,417.53125 c -1.02804,0.004 -2.23885,0.34256 -3.34375,0.96875 -1.93981,1.09931 -5.42676,4.55566 -6.84375,6.8125 -3.38219,5.38657 -7.65625,15.4297 -7.65625,17.96875 0,0.81577 -0.2005,2.14229 -0.4375,2.96875 -0.23704,0.8264 -0.51149,4.36735 -0.625,7.875 -0.21579,6.673 -1.06914,11.98339 -2.40625,15.03125 -0.43517,0.9919 -0.92426,2.44742 -1.09375,3.25 -0.16956,0.80261 -0.974,2.90722 -1.78125,4.625 -0.80722,1.71766 -1.67372,3.93489 -1.90625,4.96875 -0.23263,1.03368 -0.71214,2.76708 -1.09375,3.84375 -1.75525,4.95209 -1.64652,8.3393 0.40625,11.71875 1.85621,3.05568 2.94411,3.9375 4.84375,3.9375 0.75486,0 1.63096,0.31821 1.9375,0.6875 0.30654,0.36936 1.36485,1.02709 2.34375,1.5 2.57246,1.2423 5.56863,0.96549 6.84375,-0.65625 1.33387,-1.69581 4.66018,-3.6875 6.125,-3.6875 1.40196,0 6.50119,2.1887 7.5625,3.25 2.43256,2.43346 4.78685,2.45045 7.46875,0.0312 0.88294,-0.79658 2.28756,-1.74296 3.125,-2.09375 5.49487,-2.30299 7.13217,-8.81493 3.9375,-15.75 -2.25998,-4.90596 -2.625,-5.78435 -2.625,-6.21875 0,-0.22619 -0.27186,-0.97962 -0.625,-1.6875 -0.35312,-0.70799 -0.87582,-2.743 -1.125,-4.5 -1.14251,-8.05563 -0.18079,-14.64409 2.90625,-20.25 4.00611,-7.275 4.90495,-9.48557 5.84375,-14.3125 0.53024,-2.72659 0.82272,-5.5228 0.6875,-6.53125 -0.14754,-1.09991 0.0802,-2.9204 0.625,-4.90625 1.21736,-4.43721 1.19277,-5.56692 -0.21875,-6.875 -1.72933,-1.60268 -3.85204,-1.42826 -6.4375,0.46875 -3.00629,2.20572 -4.60599,5.64507 -5.5625,12.15625 -0.69135,4.70616 -1.1534,6.167 -2.875,8.59375 -0.80662,1.1371 -1.46875,2.1763 -1.46875,2.3125 0,0.13618 -0.23218,0.51026 -0.53125,0.84375 -1.27217,1.41863 -1.92623,2.22457 -2.75,3.46875 -1.53207,2.31415 -3.18744,5.60315 -3.9375,7.84375 -0.87098,2.60204 -2.15605,4.125 -3.5,4.125 -1.11987,0 -1.21845,-0.58065 -1.6875,-7.90625 -0.22319,-3.48589 -0.13811,-4.92641 0.65625,-8.28125 1.41903,-5.99299 2.54298,-9.00993 4.8125,-12.96875 2.29726,-4.00724 3.61747,-9.83308 2.625,-11.6875 -0.33295,-0.62223 -1.1907,-0.9404 -2.21875,-0.9375 z m -1.25,1.40625 c 0.66761,-0.0841 1.04196,0.16698 1.625,0.75 0.68756,0.68755 0.76843,1.1341 0.46875,2.71875 -0.38295,2.02522 -1.76576,5.21608 -3.9375,9.09375 -1.38646,2.47558 -2.71934,6.00952 -3.25,8.65625 -0.16787,0.8374 -0.64584,2.68679 -1.09375,4.09375 -0.87808,2.75831 -1.08276,9.31234 -0.40625,12.8125 0.55059,2.849 4.36332,5.71802 5.90625,4.4375 0.31334,-0.26003 1.18962,-2.09902 1.96875,-4.0625 1.71093,-4.31179 4.35186,-8.98568 6.28125,-11.125 3.42711,-3.80004 6.43998,-10.49077 7,-15.5 0.13373,-1.19637 0.63739,-2.99627 1.09375,-4 0.45636,-1.00379 0.8125,-2.0255 0.8125,-2.28125 0,-0.74906 1.75246,-3.22349 2.90625,-4.09375 1.49341,-1.12647 3.87718,-0.67299 4.25,0.8125 0.27611,1.10005 -0.47015,4.84284 -1.125,5.6875 -0.20147,0.25978 -0.47621,2.80558 -0.625,5.65625 -0.33848,6.48523 -0.97779,8.76702 -4.125,14.78125 -3.50597,6.69973 -4.60818,9.73237 -5.34375,14.75 -0.61462,4.1924 -0.49842,8.35014 0.40625,13.8125 0.31036,1.87386 -0.077,2.05668 -2.53125,1.03125 -2.156,-0.90094 -9.35113,-2 -13.1875,-2 -2.5656,0 -4.26357,0.30658 -7.90625,1.5 -2.55605,0.83742 -4.74248,1.52683 -4.875,1.5 -3.71419,-0.7528 -4.93921,-1.14343 -4.875,-1.5 0.28408,-1.57672 0.74231,-3.06755 2.03125,-6.8125 0.80295,-2.33288 1.39724,-4.25 1.3125,-4.25 -0.0848,0 0.20072,-1.22387 0.65625,-2.6875 0.65389,-2.10086 0.83943,-3.90607 0.8125,-8.59375 -0.0294,-5.10168 0.16195,-7.37412 1.09375,-12.4375 0.0882,-0.47855 0.21565,-0.875 0.25,-0.875 0.0343,0 0.14992,-0.60986 0.25,-1.375 0.1001,-0.76515 0.8779,-2.86032 1.71875,-4.65625 0.84078,-1.79589 1.5,-3.41509 1.5,-3.5625 0,-0.14735 0.63016,-1.16142 1.40625,-2.28125 1.63859,-2.36421 4.25,-6.59876 4.25,-6.90625 0,-0.42063 2.35309,-2.1265 3.65625,-2.625 0.70549,-0.26998 1.22442,-0.41826 1.625,-0.46875 z m -4.8125,57.875 c 0.37825,-0.006 0.79149,-0.0119 1.1875,0 1.90088,0.0574 4.0133,0.32872 6.40625,0.78125 9.31158,1.76087 10.75677,2.23731 11.625,3.9375 1.41223,2.76546 0.88461,11.31299 -0.90625,14.59375 -0.2445,0.44773 -0.90031,1.73606 -1.4375,2.875 -1.75476,3.72066 -3.87411,4.6362 -6.46875,2.78125 -0.83743,-0.59894 -2.70941,-1.72019 -4.1875,-2.5 l -2.71875,-1.4375 0.65625,-1.1875 c 0.93974,-1.81745 0.81269,-1.8157 -1.78125,-0.15625 -1.32063,0.84465 -2.70285,1.5 -3.03125,1.5 -0.55598,0 -5.08429,3.77556 -5.40625,4.5 -0.0797,0.17937 -1.07947,0.3125 -2.21875,0.3125 -1.46763,0 -2.26201,-0.23865 -2.78125,-0.8125 -0.40306,-0.44529 -1.5527,-1.14851 -2.5625,-1.5625 -3.80409,-1.56015 -4.80223,-2.1825 -6.03125,-3.96875 -1.97244,-2.86688 -1.72075,-5.72244 1.15625,-13.28125 1.34645,-3.53735 2.26778,-4.12174 6.25,-4 2.23485,0.0684 3.41878,-0.16092 5.34375,-1 2.05897,-0.89773 4.25855,-1.33566 6.90625,-1.375 z m 21.1875,8.40625 c 0.0269,0.0267 0.0335,0.0996 0.0625,0.1875 0.19765,0.59823 0.77532,2.06243 1.28125,3.21875 1.62058,3.70399 0.84533,8.05086 -1.6875,9.40625 -1.53917,0.82373 -1.59968,0.53558 -0.59375,-2.25 0.47231,-1.30805 0.66134,-3.36838 0.65625,-6.65625 -0.005,-2.3206 0.0549,-3.65913 0.1875,-3.875 0.0222,-0.036 0.0669,-0.058 0.0937,-0.0312 z" />
  </g>
</svg>
