<?xml version="1.0" encoding="UTF-8" standalone="no"?>
<!-- Created with Inkscape (http://www.inkscape.org/) -->

<svg
   xmlns:dc="http://purl.org/dc/elements/1.1/"
   xmlns:cc="http://creativecommons.org/ns#"
   xmlns:rdf="http://www.w3.org/1999/02/22-rdf-syntax-ns#"
   xmlns:svg="http://www.w3.org/2000/svg"
   xmlns="http://www.w3.org/2000/svg"
   xmlns:sodipodi="http://sodipodi.sourceforge.net/DTD/sodipodi-0.dtd"
   xmlns:inkscape="http://www.inkscape.org/namespaces/inkscape"
   width="800"
   height="400"
   id="svg2"
   version="1.1"
   inkscape:version="0.48.2 r9819"
   sodipodi:docname="f30.svg">
  <defs
     id="defs4" />
  <sodipodi:namedview
     id="base"
     pagecolor="#ffffff"
     bordercolor="#666666"
     borderopacity="1.0"
     inkscape:pageopacity="0.0"
     inkscape:pageshadow="2"
     inkscape:zoom="4"
     inkscape:cx="81.786948"
     inkscape:cy="86.06705"
     inkscape:document-units="px"
     inkscape:current-layer="layer1"
     showgrid="false"
     showguides="true"
     inkscape:guide-bbox="true"
     inkscape:window-width="1366"
     inkscape:window-height="746"
     inkscape:window-x="-8"
     inkscape:window-y="-8"
     inkscape:window-maximized="1"
     width="0px"
     height="0px"
     fit-margin-top="0"
     fit-margin-left="0"
     fit-margin-right="0"
     fit-margin-bottom="0">
    <sodipodi:guide
       orientation="1,0"
       position="400.22244,349.31075"
       id="guide3178" />
    <sodipodi:guide
       orientation="0,1"
       position="-117.37973,199.40411"
       id="guide3180" />
  </sodipodi:namedview>
  <metadata
     id="metadata7">
    <rdf:RDF>
      <cc:Work
         rdf:about="">
        <dc:format>image/svg+xml</dc:format>
        <dc:type
           rdf:resource="http://purl.org/dc/dcmitype/StillImage" />
        <dc:title></dc:title>
      </cc:Work>
    </rdf:RDF>
  </metadata>
  <g
     inkscape:label="Layer 1"
     inkscape:groupmode="layer"
     id="layer1"
     transform="translate(0,-652.36218)">
    <path
       id="rect3405"
       transform="translate(0,652.36218)"
       style="fill:#ff0000"
       d="m 128.03125,269.25 c -1.21388,0.055 -2.15452,0.59365 -3.28125,1.65625 -1.15088,1.0854 -2.04058,1.5 -3.03125,1.5 -2.09066,0 -6.78125,2.8997 -6.78125,4.1875 0,0.3232 -0.17366,0.625 -0.40625,0.625 -0.23258,0 -0.79089,1.10465 -1.1875,2.46875 -1.26051,4.3362 -0.5233,8.5871 2.6875,15.625 0.34396,0.7541 0.65625,1.6026 0.65625,1.875 0,0.2725 0.39675,1.3138 0.90625,2.3125 0.87822,1.7213 0.89164,2.0734 0.4375,6.625 -0.87108,8.7308 -1.38526,10.85985 -5.46875,22.40625 -4.3222,12.221 -4.84202,21.5689 -1.5625,27.6875 0.48392,0.903 1.333,1.8866 1.875,2.1875 1.61785,0.8986 3.95562,0.70605 5,-0.40625 1.14946,-1.2235 2.11115,-5.3234 2.9375,-12.6875 0.34903,-3.1106 0.83112,-6.5502 1.09375,-7.625 0.54911,-2.2475 3.51521,-8.1411 4.78125,-9.5 0.4713,-0.506 0.84375,-1.11435 0.84375,-1.34375 0,-0.2291 0.13306,-0.4822 0.3125,-0.5625 0.17947,-0.08 1.19411,-1.28065 2.21875,-2.65625 1.02462,-1.376 2.04756,-2.5 2.28125,-2.5 0.60387,0 3.03125,2.4047 3.03125,3 0,0.2732 0.16825,0.5 0.375,0.5 0.20676,0 0.71935,0.926 1.125,2.0625 0.40564,1.1365 0.93484,2.4155 1.1875,2.875 0.25268,0.46 0.44962,2.64985 0.4375,4.84375 -0.019,3.4835 -0.21641,4.4901 -1.53125,7.875 -2.5046,6.4478 -3.45512,9.7705 -3.40625,11.9375 0.0906,4.023 1.30801,5.1848 4.625,4.5625 2.41637,-0.4533 8.23516,-7.0311 9.40625,-10.625 0.28261,-0.8673 0.69136,-1.6718 0.90625,-1.8125 0.21491,-0.14 0.86554,-1.62685 1.4375,-3.28125 0.90174,-2.6083 1.08116,-4.35405 1.5,-13.21875 0.83548,-17.6825 1.24878,-23.8794 1.59375,-24.4375 0.18392,-0.2979 0.48788,-1.3468 0.65625,-2.3125 0.42816,-2.4564 1.672,-6.8242 2.09375,-7.375 0.37706,-0.4925 1.859,-4.96185 2.625,-7.90625 0.25621,-0.9848 0.4375,-4.14635 0.4375,-7.03125 l 0,-5.25 -1.3125,-1.34375 c -0.73629,-0.7363 -1.8605,-1.46015 -2.5,-1.59375 -0.63948,-0.1338 -1.55136,-0.442 -2,-0.6875 -0.44863,-0.2454 -2.20151,-0.53295 -3.90625,-0.65625 -2.62052,-0.1901 -3.58528,-0.0462 -6.34375,0.9375 -5.00078,1.7837 -4.9233,1.77475 -7.125,0.0937 -1.09234,-0.8339 -2.81167,-1.83385 -3.84375,-2.21875 -1.30404,-0.4864 -2.33189,-0.7563 -3.21875,-0.8125 -0.18475,-0.011 -0.38909,-0.0104 -0.5625,0 z m 0.0625,2.34375 c 1.11326,-0.059 2.34347,0.3968 4.09375,1.3125 3.99615,2.0908 3.82295,1.68155 3.28125,8.15625 -0.51246,6.1252 -0.88938,7.27025 -2.5625,7.90625 -0.60308,0.2292 -0.97398,0.6398 -0.875,0.9375 0.25685,0.7711 5.61661,0.7739 5.875,0 0.10725,-0.3212 -0.27245,-0.6719 -0.8125,-0.8125 -0.83852,-0.2194 -0.89051,-0.47745 -0.65625,-1.84375 0.14792,-0.8626 0.38138,-3.4144 0.53125,-5.6875 0.14986,-2.273 0.41532,-4.4661 0.625,-4.875 0.46202,-0.9015 2.2603,-1.7456 6.21875,-2.9375 3.74741,-1.1279 5.93257,-1.13925 8,-0.0312 0.89283,0.4785 2.11597,0.875 2.75,0.875 2.10881,0 2.70397,1.66215 2.4375,6.71875 -0.33239,6.308 -2.14548,13.8201 -4.46875,18.5 l -1,1.96875 -4.28125,0.78125 c -3.8358,0.6678 -13.69127,1.1759 -15.53125,0.8125 -0.39212,-0.077 -0.6875,-0.2952 -0.6875,-0.5 0,-0.7927 -7.90267,-3.90625 -9.90625,-3.90625 -1.26665,0 -1.48603,-0.20505 -2.375,-2.28125 -0.53781,-1.256 -1.49459,-3.3176 -2.15625,-4.5625 -2.18256,-4.1072 -2.82884,-9.59935 -1.4375,-12.53125 0.40733,-0.8583 0.84271,-1.47015 0.96875,-1.34375 0.12598,0.1258 0.33821,1.3721 0.4375,2.75 0.22741,3.1556 0.96875,4.1143 0.96875,1.25 0,-2.7046 0.8686,-4.26775 3.25,-5.90625 1.07019,-0.7363 2.8713,-2.1125 3.96875,-3.0625 1.24151,-1.0742 2.23047,-1.6284 3.34375,-1.6875 z m -6.90625,29.59375 c 0.40857,-0.01 1.04824,0.17135 2.28125,0.53125 1.40754,0.4109 4.08633,1.55205 5.96875,2.53125 3.33427,1.7346 3.48107,1.74835 5.65625,1.28125 1.92698,-0.4142 4.38779,-0.56265 13.96875,-1.03125 1.6815,-0.082 1.74923,-0.0742 1.65625,1.1875 -0.0529,0.7178 -0.27215,6.30495 -0.5,12.40625 -0.44476,11.9099 -1.10085,20.04945 -1.84375,22.84375 -0.25444,0.9571 -1.1238,3.12065 -1.9375,4.78125 -0.81369,1.6606 -1.49975,3.1838 -1.5,3.4375 -3.1e-4,0.2535 -0.48345,1.0407 -1.09375,1.75 -0.61028,0.7099 -1.51625,1.9672 -2,2.75 -1.18276,1.9137 -4.18356,3.66455 -5.25,3.09375 -1.00782,-0.5394 -1.05927,-4.52875 -0.0937,-7.09375 1.54474,-4.1041 2.85684,-8.60615 3.375,-11.59375 0.67159,-3.8722 0.25855,-6.9696 -1.78125,-12.8125 -1.07995,-3.0934 -1.7602,-4.2512 -3.15625,-5.5625 -2.44003,-2.292 -3.22502,-2.06895 -5.78125,1.65625 -1.1483,1.6735 -2.6518,3.6558 -3.34375,4.375 -2.68991,2.7955 -5.04036,9.10335 -6.125,16.53125 -1.00241,6.865 -2.62457,14.33365 -3.3125,15.09375 -0.91274,1.0084 -1.42334,0.9924 -2.84375,-0.1875 -1.6634,-1.3826 -2.5,-5.1751 -2.5,-11.125 0,-2.6391 0.18,-5.8507 0.4375,-7.125 0.72085,-3.5675 1.8177,-7.51025 2.21875,-7.96875 0.19881,-0.2274 0.34375,-0.86685 0.34375,-1.40625 0,-0.5397 0.77884,-2.70785 1.71875,-4.84375 2.14057,-4.8644 3.96875,-13.28085 3.96875,-18.40625 0,-2.4202 0.2019,-3.9642 0.59375,-4.5 0.28652,-0.3919 0.46639,-0.58505 0.875,-0.59375 z" />
  </g>
</svg>
