<?xml version="1.0" encoding="UTF-8" standalone="no"?>
<!-- Created with Inkscape (http://www.inkscape.org/) -->

<svg
   xmlns:dc="http://purl.org/dc/elements/1.1/"
   xmlns:cc="http://creativecommons.org/ns#"
   xmlns:rdf="http://www.w3.org/1999/02/22-rdf-syntax-ns#"
   xmlns:svg="http://www.w3.org/2000/svg"
   xmlns="http://www.w3.org/2000/svg"
   xmlns:sodipodi="http://sodipodi.sourceforge.net/DTD/sodipodi-0.dtd"
   xmlns:inkscape="http://www.inkscape.org/namespaces/inkscape"
   width="900"
   height="800"
   id="svg2"
   version="1.1"
   inkscape:version="0.48.2 r9819"
   sodipodi:docname="l29.svg">
  <defs
     id="defs4" />
  <sodipodi:namedview
     id="base"
     pagecolor="#ffffff"
     bordercolor="#666666"
     borderopacity="1.0"
     inkscape:pageopacity="0.0"
     inkscape:pageshadow="2"
     inkscape:zoom="4"
     inkscape:cx="809.33196"
     inkscape:cy="268.12652"
     inkscape:document-units="px"
     inkscape:current-layer="layer1"
     showgrid="false"
     showguides="true"
     inkscape:guide-bbox="true"
     inkscape:window-width="1366"
     inkscape:window-height="746"
     inkscape:window-x="-8"
     inkscape:window-y="-8"
     inkscape:window-maximized="1"
     width="0px"
     height="0px"
     fit-margin-top="0"
     fit-margin-left="0"
     fit-margin-right="0"
     fit-margin-bottom="0">
    <sodipodi:guide
       orientation="1,0"
       position="450,784"
       id="guide3178" />
    <sodipodi:guide
       orientation="0,1"
       position="-61,400"
       id="guide3180" />
  </sodipodi:namedview>
  <metadata
     id="metadata7">
    <rdf:RDF>
      <cc:Work
         rdf:about="">
        <dc:format>image/svg+xml</dc:format>
        <dc:type
           rdf:resource="http://purl.org/dc/dcmitype/StillImage" />
        <dc:title></dc:title>
      </cc:Work>
    </rdf:RDF>
  </metadata>
  <g
     inkscape:label="Layer 1"
     inkscape:groupmode="layer"
     id="layer1"
     transform="translate(0,-252.36218)">
    <path
       id="rect3269"
       transform="translate(0,252.36218)"
       style="fill:#ff0000"
       d="m 755.84375,472.0625 c -1.16215,0.004 -2.5322,0.35462 -3.78125,1.0625 -2.19286,1.24272 -6.11692,5.16748 -7.71875,7.71875 -3.82341,6.08926 -8.625,17.41098 -8.625,20.28125 0,0.92219 -0.26334,2.44073 -0.53125,3.375 -0.26795,0.93421 -0.55918,4.94102 -0.6875,8.90625 -0.24393,7.54351 -1.23846,13.52329 -2.75,16.96875 -0.49194,1.12129 -1.02715,2.81146 -1.21875,3.71875 -0.19166,0.90729 -1.08745,3.24564 -2,5.1875 -0.91253,1.94174 -1.89337,4.48751 -2.15625,5.65625 -0.26297,1.16851 -0.81862,3.12664 -1.25,4.34375 -1.98424,5.59811 -1.85181,9.42971 0.46875,13.25 2.09837,3.45431 3.3213,4.4375 5.46875,4.4375 0.85334,0 1.84096,0.33254 2.1875,0.75 0.34652,0.41756 1.51841,1.18413 2.625,1.71875 2.90805,1.40435 6.30854,1.08329 7.75,-0.75 1.50788,-1.91704 5.28161,-4.15625 6.9375,-4.15625 1.58486,0 7.36273,2.45649 8.5625,3.65625 2.74988,2.75091 5.40574,2.76607 8.4375,0.0312 0.99812,-0.9005 2.58457,-1.97845 3.53125,-2.375 6.21171,-2.60341 8.08017,-9.94148 4.46875,-17.78125 -2.5548,-5.54595 -3,-6.54017 -3,-7.03125 0,-0.25571 -0.31953,-1.10603 -0.71875,-1.90625 -0.3992,-0.80035 -0.96833,-3.0763 -1.25,-5.0625 -1.29157,-9.10651 -0.20852,-16.56904 3.28125,-22.90625 4.52871,-8.22404 5.53249,-10.73089 6.59375,-16.1875 0.59941,-3.08229 0.93412,-6.235 0.78125,-7.375 -0.16677,-1.24341 0.10291,-3.31757 0.71875,-5.5625 1.37616,-5.01605 1.34565,-6.27128 -0.25,-7.75 -1.95493,-1.81176 -4.35851,-1.64447 -7.28125,0.5 -3.39847,2.49347 -5.19997,6.38942 -6.28125,13.75 -0.78155,5.32011 -1.30382,6.97541 -3.25,9.71875 -0.91185,1.28542 -1.65625,2.47104 -1.65625,2.625 0,0.15395 -0.28691,0.56049 -0.625,0.9375 -1.43814,1.60369 -2.16252,2.49976 -3.09375,3.90625 -1.73194,2.61603 -3.58961,6.34211 -4.4375,8.875 -0.98461,2.9415 -2.41821,4.65625 -3.9375,4.65625 -1.26594,0 -1.40725,-0.65625 -1.9375,-8.9375 -0.25231,-3.94064 -0.148,-5.52003 0.75,-9.3125 1.60413,-6.77481 2.87193,-10.21224 5.4375,-14.6875 2.59694,-4.52999 4.05944,-11.1224 2.9375,-13.21875 -0.37638,-0.70339 -1.33783,-1.03452 -2.5,-1.03125 z m -1.40625,1.5625 c 0.7547,-0.0951 1.18467,0.18467 1.84375,0.84375 0.77726,0.77724 0.87002,1.30238 0.53125,3.09375 -0.43292,2.28942 -1.98245,5.86648 -4.4375,10.25 -1.56735,2.79853 -3.08762,6.8205 -3.6875,9.8125 -0.18978,0.94664 -0.74366,3.03451 -1.25,4.625 -0.99262,3.11814 -1.2335,10.51199 -0.46875,14.46875 0.62244,3.22065 4.94331,6.47882 6.6875,5.03125 0.35423,-0.29394 1.33797,-2.37414 2.21875,-4.59375 1.93413,-4.87428 4.94391,-10.14409 7.125,-12.5625 3.87419,-4.29575 7.30442,-11.86853 7.9375,-17.53125 0.15117,-1.35242 0.70288,-3.39658 1.21875,-4.53125 0.5159,-1.13473 0.90625,-2.30464 0.90625,-2.59375 0,-0.84679 1.97695,-3.6412 3.28125,-4.625 1.68823,-1.27342 4.39104,-0.74176 4.8125,0.9375 0.31213,1.24357 -0.50973,5.48266 -1.25,6.4375 -0.22775,0.29369 -0.55055,3.15246 -0.71875,6.375 -0.38264,7.33125 -1.12973,9.88869 -4.6875,16.6875 -3.96332,7.57373 -5.19971,11.04656 -6.03125,16.71875 -0.69479,4.73931 -0.55395,9.41881 0.46875,15.59375 0.35083,2.11832 -0.10052,2.31545 -2.875,1.15625 -2.43725,-1.01847 -10.53817,-2.25 -14.875,-2.25 -2.90028,0 -4.81962,0.36965 -8.9375,1.71875 -2.88949,0.94668 -5.38144,1.71784 -5.53125,1.6875 -4.19871,-0.85099 -5.57258,-1.2844 -5.5,-1.6875 0.32115,-1.78241 0.85541,-3.48525 2.3125,-7.71875 0.90769,-2.6372 1.56455,-4.8125 1.46875,-4.8125 -0.0959,0 0.23503,-1.37669 0.75,-3.03125 0.73917,-2.37492 0.90544,-4.41955 0.875,-9.71875 -0.0333,-5.76721 0.22789,-8.33858 1.28125,-14.0625 0.0996,-0.54097 0.21115,-0.96875 0.25,-0.96875 0.0389,0 0.1681,-0.72879 0.28125,-1.59375 0.11315,-0.86497 0.98696,-3.18854 1.9375,-5.21875 0.95046,-2.03017 1.71875,-3.86461 1.71875,-4.03125 0,-0.16659 0.71642,-1.32784 1.59375,-2.59375 1.85236,-2.67263 4.8125,-7.4649 4.8125,-7.8125 0,-0.4755 2.65183,-2.37397 4.125,-2.9375 0.79751,-0.30521 1.35967,-0.50542 1.8125,-0.5625 z m -5.40625,65.40625 c 0.42759,-0.006 0.86483,-0.0134 1.3125,0 2.14887,0.0649 4.54487,0.39467 7.25,0.90625 10.5263,1.99057 12.17476,2.51552 13.15625,4.4375 1.59646,3.12622 0.96197,12.82249 -1.0625,16.53125 -0.27639,0.50613 -0.98649,1.93122 -1.59375,3.21875 -1.98368,4.20604 -4.41064,5.25317 -7.34375,3.15625 -0.94669,-0.67708 -3.04785,-1.93096 -4.71875,-2.8125 l -3.0625,-1.625 0.71875,-1.375 c 1.06233,-2.05455 0.93233,-2.03218 -2,-0.15625 -1.4929,0.95484 -3.03501,1.71875 -3.40625,1.71875 -0.6285,0 -5.76103,4.24355 -6.125,5.0625 -0.0901,0.20277 -1.21208,0.34375 -2.5,0.34375 -1.65908,0 -2.56927,-0.25755 -3.15625,-0.90625 -0.45565,-0.50339 -1.76472,-1.31326 -2.90625,-1.78125 -4.30034,-1.76368 -5.39191,-2.48073 -6.78125,-4.5 -2.22976,-3.24087 -1.97104,-6.45511 1.28125,-15 1.5221,-3.99881 2.56079,-4.66888 7.0625,-4.53125 2.5264,0.0773 3.85516,-0.14522 6.03125,-1.09375 2.32758,-1.01485 4.85063,-1.54927 7.84375,-1.59375 z m 23.875,9.53125 c 0.0421,-0.008 0.0758,0.0697 0.125,0.21875 0.22341,0.67627 0.86557,2.31783 1.4375,3.625 1.83199,4.1872 0.95699,9.12406 -1.90625,10.65625 -1.73997,0.9312 -1.79339,0.58646 -0.65625,-2.5625 0.53392,-1.47869 0.75575,-3.81446 0.75,-7.53125 -0.005,-2.62332 0.069,-4.13097 0.21875,-4.375 0.0125,-0.0204 0.0172,-0.0287 0.0312,-0.0312 z" />
  </g>
</svg>
