<?xml version="1.0" encoding="UTF-8" standalone="no"?>
<!-- Created with Inkscape (http://www.inkscape.org/) -->

<svg
   xmlns:dc="http://purl.org/dc/elements/1.1/"
   xmlns:cc="http://creativecommons.org/ns#"
   xmlns:rdf="http://www.w3.org/1999/02/22-rdf-syntax-ns#"
   xmlns:svg="http://www.w3.org/2000/svg"
   xmlns="http://www.w3.org/2000/svg"
   xmlns:sodipodi="http://sodipodi.sourceforge.net/DTD/sodipodi-0.dtd"
   xmlns:inkscape="http://www.inkscape.org/namespaces/inkscape"
   width="900"
   height="800"
   id="svg2"
   version="1.1"
   inkscape:version="0.48.2 r9819"
   sodipodi:docname="m30.svg">
  <defs
     id="defs4" />
  <sodipodi:namedview
     id="base"
     pagecolor="#ffffff"
     bordercolor="#666666"
     borderopacity="1.0"
     inkscape:pageopacity="0.0"
     inkscape:pageshadow="2"
     inkscape:zoom="4"
     inkscape:cx="809.33196"
     inkscape:cy="108.12652"
     inkscape:document-units="px"
     inkscape:current-layer="layer1"
     showgrid="false"
     showguides="true"
     inkscape:guide-bbox="true"
     inkscape:window-width="1366"
     inkscape:window-height="746"
     inkscape:window-x="-8"
     inkscape:window-y="-8"
     inkscape:window-maximized="1"
     width="0px"
     height="0px"
     fit-margin-top="0"
     fit-margin-left="0"
     fit-margin-right="0"
     fit-margin-bottom="0">
    <sodipodi:guide
       orientation="1,0"
       position="450,784"
       id="guide3178" />
    <sodipodi:guide
       orientation="0,1"
       position="-61,400"
       id="guide3180" />
  </sodipodi:namedview>
  <metadata
     id="metadata7">
    <rdf:RDF>
      <cc:Work
         rdf:about="">
        <dc:format>image/svg+xml</dc:format>
        <dc:type
           rdf:resource="http://purl.org/dc/dcmitype/StillImage" />
        <dc:title></dc:title>
      </cc:Work>
    </rdf:RDF>
  </metadata>
  <g
     inkscape:label="Layer 1"
     inkscape:groupmode="layer"
     id="layer1"
     transform="translate(0,-252.36218)">
    <path
       id="rect3277"
       transform="translate(0,252.36218)"
       style="fill:#ff0000"
       d="m 743.21875,635.8125 c -2.17488,0 -3.85427,0.74668 -6.375,2.8125 -2.94659,2.41444 -4.60408,5.31456 -4.59375,8.0625 0.0144,3.52702 1.29926,10.71729 2.625,14.71875 1.22735,3.70403 1.22747,3.86883 1.4375,25.34375 l 0.21875,21.625 1.4375,5.21875 c 0.78292,2.86833 1.64749,5.49764 1.9375,5.875 0.28996,0.37737 0.94379,1.57436 1.4375,2.65625 1.19998,2.62961 7.28352,8.6298 10.34375,10.21875 1.3524,0.70212 2.66659,1.30388 2.9375,1.3125 2.94403,0.0919 2.38373,-5.26632 -1.4375,-13.5 -4.24613,-9.14937 -4.67037,-10.71787 -4.6875,-17.5 -0.0117,-4.59007 0.62705,-7.58013 2.28125,-10.75 0.36067,-0.6911 0.65625,-1.563 0.65625,-1.96875 0.005,-0.98667 4.29224,-6.40625 5.0625,-6.40625 0.33418,0.004 1.20398,1.71935 1.96875,3.8125 1.60319,4.38846 4.0536,9.27144 5.34375,10.65625 0.48981,0.5258 0.90625,1.13294 0.90625,1.34375 0,0.21101 1.42004,2.036 3.1875,4.0625 3.79668,4.35321 4.50132,5.85439 5.125,10.96875 0.58557,4.80201 2.90493,11.84226 4.5,13.71875 1.1514,1.35437 3.84378,2.65625 5.5,2.65625 1.15232,0 1.33575,-1.0683 1.03125,-5.28125 -0.15146,-2.09601 -0.0406,-5.15852 0.25,-6.78125 1.47177,-8.21887 1.69737,-11.45459 0.875,-13.96875 -0.4362,-1.33371 -0.8125,-2.698 -0.8125,-3 0,-0.66295 -1.25281,-3.44112 -4.59375,-10.3125 l -2.5,-5.1875 0,-8.59375 -0.0312,-8.59375 2.5625,-5.15625 c 1.41269,-2.84005 3.0296,-7.0367 3.625,-9.28125 0.96776,-3.64832 1.07154,-4.4577 0.59375,-7.84375 -0.78664,-5.57526 -1.12487,-6.61218 -2.4375,-7.875 -1.07664,-1.03584 -1.48289,-1.10728 -4.25,-0.8125 -2.85645,0.30476 -3.10402,0.22079 -4.21875,-0.96875 -0.81011,-0.86444 -1.72306,-1.28125 -2.8125,-1.28125 -2.23784,0 -8.44656,1.38153 -10.1875,2.25 -1.91677,0.95632 -3.37187,0.89955 -6.6875,-0.21875 -3.16106,-1.06571 -7.97318,-2.03125 -10.21875,-2.03125 z m 0.5,2.59375 c 0.77117,-0.0135 1.65102,0.066 2.875,0.28125 4.43623,0.78045 8.88712,2.6995 9.5625,4.09375 0.30554,0.63076 0.70435,3.61515 0.875,6.625 0.30995,5.4683 0.31172,5.49401 -0.9375,6.3125 -1.68701,1.10532 -1.1387,1.75 1.5,1.75 2.23182,0 2.53499,-0.37047 1.6875,-1.875 -0.49812,-0.88443 -1.43771,-12.71233 -1.09375,-13.71875 0.32044,-0.9375 4.98819,-2.68815 8.5625,-3.21875 2.81779,-0.41827 3.54957,-0.38249 4.5625,0.28125 1.78639,1.17047 4.71875,7.74586 4.71875,10.59375 0,2.19321 0.59455,3.5 1.625,3.5 0.28104,0 0.34372,-1.66576 0.125,-4.28125 -0.67643,-8.09193 -0.74812,-7.73405 1.03125,-7.90625 2.46756,-0.23883 3.36971,1.83599 3.3125,7.75 -0.0424,4.37858 -0.17865,4.96505 -2.125,9.34375 -1.14214,2.56953 -2.56517,5.05911 -3.15625,5.53125 -1.17735,0.94048 -6.96349,2.84375 -8.65625,2.84375 -0.58437,0 -2.09522,0.55636 -3.375,1.21875 -3.88826,2.01169 -9.72883,1.94166 -13.375,-0.125 -1.73751,-0.98494 -3.92853,-1.59399 -8.875,-2.5625 -1.48764,-0.29122 -3.02849,-0.79887 -3.4375,-1.125 -2.49431,-1.98941 -5.68934,-15.51993 -4.4375,-18.8125 0.76928,-2.02342 4.5059,-5.32225 6.84375,-6.09375 0.75733,-0.24969 1.41635,-0.39278 2.1875,-0.40625 z m -4.125,28.46875 c 2.25491,-0.11602 7.41808,1.06263 10.46875,2.46875 3.14967,1.45178 4.03557,1.625 7.75,1.625 3.4658,0 4.51694,-0.14914 6.0625,-1.0625 1.88768,-1.11557 7.68238,-2.67097 10.40625,-2.78125 1.35499,-0.0545 1.47903,0.0514 1.34375,1.40625 -0.58639,5.8714 -0.61238,11.9403 -0.0937,15.96875 0.50144,3.89452 1.03656,5.63099 3.25,10.40625 1.46045,3.15068 2.65625,6.05831 2.65625,6.4375 0,0.3791 0.19321,0.89917 0.4375,1.15625 0.24425,0.25686 0.78914,1.82778 1.21875,3.53125 0.70425,2.79206 0.69259,3.63306 0.0312,8.34375 -0.40345,2.87406 -0.71875,7.09174 -0.71875,9.34375 l 0,4.0625 -1.40625,0 c -1.57693,0 -3.23415,-1.56766 -3.65625,-3.4375 -0.15263,-0.67626 -0.72323,-2.76861 -1.28125,-4.65625 -0.55808,-1.8874 -1,-4.39767 -1,-5.5625 0,-3.25775 -2.35784,-9.74823 -4.03125,-11.15625 -0.77283,-0.65032 -1.40625,-1.26013 -1.40625,-1.375 0,-0.11498 -0.79206,-1.07824 -1.75,-2.09375 -0.95788,-1.01549 -2.27767,-2.88538 -2.9375,-4.1875 -0.65977,-1.30212 -1.40037,-2.49887 -1.65625,-2.65625 -0.25593,-0.15794 -0.72221,-1.11454 -1.03125,-2.125 -0.30908,-1.01078 -0.75931,-2.30282 -1,-2.84375 -0.24068,-0.54098 -0.92931,-2.53275 -1.5,-4.46875 -0.5707,-1.93599 -1.45283,-3.90805 -1.96875,-4.375 -0.90119,-0.81551 -0.99478,-0.75107 -3.25,1.75 -3.15136,3.4945 -4.257,5.35262 -6.3125,11.03125 -1.67117,4.61684 -1.71875,5.06193 -1.71875,11.4375 0,6.11494 0.0978,6.97579 1.46875,10.96875 1.31642,3.83384 2.58102,6.54029 4.96875,10.8125 0.85017,1.52097 1.92831,4.45656 1.9375,5.28125 0.012,1.0023 -1.16979,0.69936 -3.59375,-0.90625 -4.49178,-2.97517 -9.59367,-9.75374 -10.4375,-13.875 -0.17715,-0.86502 -0.8078,-3.02321 -1.375,-4.78125 -0.96213,-2.9824 -1.03405,-4.52324 -1.21875,-23.21875 -0.17165,-17.36997 -0.10011,-20.07022 0.53125,-20.3125 0.1878,-0.0716 0.49036,-0.13968 0.8125,-0.15625 z" />
  </g>
</svg>
