<?xml version="1.0" encoding="UTF-8" standalone="no"?>
<!-- Created with Inkscape (http://www.inkscape.org/) -->

<svg
   xmlns:dc="http://purl.org/dc/elements/1.1/"
   xmlns:cc="http://creativecommons.org/ns#"
   xmlns:rdf="http://www.w3.org/1999/02/22-rdf-syntax-ns#"
   xmlns:svg="http://www.w3.org/2000/svg"
   xmlns="http://www.w3.org/2000/svg"
   xmlns:sodipodi="http://sodipodi.sourceforge.net/DTD/sodipodi-0.dtd"
   xmlns:inkscape="http://www.inkscape.org/namespaces/inkscape"
   width="900"
   height="800"
   id="svg2"
   version="1.1"
   inkscape:version="0.48.2 r9819"
   sodipodi:docname="f30.svg">
  <defs
     id="defs4" />
  <sodipodi:namedview
     id="base"
     pagecolor="#ffffff"
     bordercolor="#666666"
     borderopacity="1.0"
     inkscape:pageopacity="0.0"
     inkscape:pageshadow="2"
     inkscape:zoom="4"
     inkscape:cx="809.33196"
     inkscape:cy="188.12652"
     inkscape:document-units="px"
     inkscape:current-layer="layer1"
     showgrid="false"
     showguides="true"
     inkscape:guide-bbox="true"
     inkscape:window-width="1366"
     inkscape:window-height="746"
     inkscape:window-x="-8"
     inkscape:window-y="-8"
     inkscape:window-maximized="1"
     width="0px"
     height="0px"
     fit-margin-top="0"
     fit-margin-left="0"
     fit-margin-right="0"
     fit-margin-bottom="0">
    <sodipodi:guide
       orientation="1,0"
       position="450,784"
       id="guide3178" />
    <sodipodi:guide
       orientation="0,1"
       position="-61,400"
       id="guide3180" />
  </sodipodi:namedview>
  <metadata
     id="metadata7">
    <rdf:RDF>
      <cc:Work
         rdf:about="">
        <dc:format>image/svg+xml</dc:format>
        <dc:type
           rdf:resource="http://purl.org/dc/dcmitype/StillImage" />
        <dc:title></dc:title>
      </cc:Work>
    </rdf:RDF>
  </metadata>
  <g
     inkscape:label="Layer 1"
     inkscape:groupmode="layer"
     id="layer1"
     transform="translate(0,-252.36218)">
    <path
       id="rect3273"
       transform="translate(0,252.36218)"
       style="fill:#ff0000"
       d="m 766.78125,580.09375 c -1.60788,0.0499 -3.14687,0.25776 -4.53125,0.53125 -1.8686,0.36943 -3.49213,0.37357 -5.21875,0.0312 -5.24473,-1.03985 -13.63508,1.47792 -16.375,4.9375 -1.39139,1.75703 -3.84005,8.66344 -4.9375,13.84375 -0.31514,1.48775 -1.0444,3.94378 -1.5625,5.5 -0.64921,1.94987 -0.9375,4.25853 -0.9375,7.3125 0,4.25901 0.095,4.5226 1.78125,7.0625 2.15691,3.24855 4.28452,4.05016 9.53125,3.5625 2.12364,-0.19735 3.91374,-0.0988 4.78125,0.25 0.76196,0.30661 2.60612,0.82966 4.09375,1.1875 4.3731,1.05225 7.9744,0.54038 12.65625,-1.8125 2.85734,-1.43582 4.96516,-2.1463 7.125,-2.375 3.60323,-0.38162 3.81009,-0.47904 7.65625,-3.875 l 2.9375,-2.625 0.5625,-3.9375 c 0.62426,-4.26958 0.38722,-7.15954 -0.84375,-9.5 -0.60831,-1.15702 -0.7709,-2.82874 -0.6875,-7.75 0.099,-5.83212 0.0311,-6.41812 -1,-7.8125 -0.61019,-0.82549 -1.77188,-1.89805 -2.59375,-2.40625 -2.32211,-1.43478 -7.6139,-2.24315 -12.4375,-2.09375 l 0,-0.0312 z m 2.34375,1.75 c 2.85661,-0.074 7.74344,1.03463 9.625,2.3125 2.26063,1.53565 2.59618,2.68627 2.28125,7.59375 -0.19961,3.11025 -0.37376,3.89366 -1.15625,4.3125 -1.63796,0.87662 -2.46201,0.15071 -2.09375,-1.8125 0.27236,-1.45236 0.18007,-1.68623 -0.46875,-1.4375 -0.42612,0.16369 -0.90005,0.73833 -1.0625,1.25 -0.34326,1.08154 -3.78275,3.92739 -5.78125,4.78125 -2.51166,1.07272 -6.01418,0.3033 -7.84375,-1.71875 -0.77849,-0.8603 -0.74557,-1.02403 0.125,-2.96875 0.53528,-1.19552 0.73592,-2.20992 0.46875,-2.375 -0.25449,-0.15726 -0.46875,-0.0364 -0.46875,0.25 0,0.28649 -0.32087,0.5 -0.6875,0.5 -0.46016,0 -0.7366,-0.94226 -0.9375,-3.09375 -0.30342,-3.24868 -1.16583,-5.75 -1.96875,-5.75 -0.26967,0 -0.31707,0.6751 -0.125,1.59375 0.18368,0.87925 0.45072,3.38606 0.59375,5.5625 0.25666,3.90667 0.21992,3.97823 -1.0625,4.5625 -1.62932,0.74277 -2.96936,0.75299 -4.125,0.0312 -1.10513,-0.69017 -4.13159,-0.19632 -4.96875,0.8125 -0.84349,1.0163 -4.07146,0.94013 -5.03125,-0.125 -0.42659,-0.4734 -0.96764,-1.46309 -1.15625,-2.21875 -0.47578,-1.90624 -1.35941,-1.41802 -1.84375,1.03125 -0.31193,1.57735 -0.59806,2.03125 -1.34375,2.03125 -1.44567,0 -1.69292,-1.33695 -0.71875,-3.875 0.47816,-1.2456 1.03065,-3.00125 1.25,-3.90625 0.39343,-1.62388 2.21987,-4.03125 3.0625,-4.03125 0.23815,0 1.44878,-0.46882 2.71875,-1.0625 1.98,-0.92614 3.56537,-1.14722 11.15625,-1.46875 4.8686,-0.2062 9.60421,-0.50759 10.5,-0.6875 0.31096,-0.0621 0.65443,-0.0832 1.0625,-0.0937 z M 752.40625,597.125 c 0.31328,-0.009 0.53183,0.1568 0.84375,0.46875 0.56051,0.56047 0.59718,1.12348 0.21875,2.625 -0.88926,3.52772 -1.72134,10.02877 -1.34375,10.40625 0.70576,0.70591 1.62789,-1.35023 1.9375,-4.3125 0.32683,-3.12714 1.26191,-5.4174 2.9375,-7.25 1.34645,-1.47258 2.3197,-1.38247 4.53125,0.375 1.01632,0.80768 2.55343,1.68476 3.46875,1.9375 1.70327,0.47031 5.59375,4.16627 5.59375,5.3125 0,1.02743 3.48657,4.5354 5.5,5.5625 2.2252,1.13519 2.375,1.16097 2.375,0.25 0,-0.38872 -0.99262,-1.43185 -2.21875,-2.3125 -2.31254,-1.66063 -5.15625,-5.67908 -5.15625,-7.28125 0,-0.5059 0.53798,-1.27269 1.21875,-1.71875 1.00904,-0.66122 1.60593,-0.69859 3.15625,-0.28125 1.04587,0.28167 2.1961,0.8461 2.53125,1.25 0.3351,0.40368 0.79391,0.71875 1.03125,0.71875 0.86823,0 0.40745,-1.09368 -1.03125,-2.4375 -0.81143,-0.75793 -1.46875,-1.51529 -1.46875,-1.65625 0,-0.38565 3.42378,-1.45113 3.71875,-1.15625 0.14079,0.14084 0.45917,1.00585 0.6875,1.90625 0.22833,0.9005 0.79915,2.62654 1.25,3.84375 1.59618,4.30876 -0.0254,9.82931 -3.75,12.84375 -1.31723,1.06604 -2.51509,1.51211 -5.15625,1.84375 -2.3814,0.29904 -4.58605,0.9974 -7.125,2.28125 -4.65831,2.35553 -9.02271,2.74705 -13.25,1.1875 -2.25141,-0.82985 -3.41513,-0.95356 -7,-0.71875 -5.66103,0.3706 -7.86475,-0.23327 -9.46875,-2.59375 -1.77807,-2.61697 -1.74725,-8.4559 0.0625,-14.0625 0.70904,-2.19653 1.37249,-4.28073 1.46875,-4.625 0.25341,-0.90567 1.60861,-1.32884 2.25,-0.6875 0.40497,0.40507 0.2917,1.13334 -0.5,2.71875 -1.35425,2.71151 -1.47935,5.89875 -0.21875,5.65625 0.63724,-0.12256 0.95351,-0.86915 1.1875,-2.78125 0.20499,-1.67511 0.77705,-3.13834 1.625,-4.25 1.23689,-1.62227 1.45873,-1.71875 4.25,-1.71875 1.73459,0 3.57965,-0.35254 4.46875,-0.8125 0.66071,-0.34054 1.06173,-0.52183 1.375,-0.53125 z" />
  </g>
</svg>
