<?xml version="1.0" encoding="UTF-8" standalone="no"?>
<!-- Created with Inkscape (http://www.inkscape.org/) -->

<svg
   xmlns:dc="http://purl.org/dc/elements/1.1/"
   xmlns:cc="http://creativecommons.org/ns#"
   xmlns:rdf="http://www.w3.org/1999/02/22-rdf-syntax-ns#"
   xmlns:svg="http://www.w3.org/2000/svg"
   xmlns="http://www.w3.org/2000/svg"
   xmlns:sodipodi="http://sodipodi.sourceforge.net/DTD/sodipodi-0.dtd"
   xmlns:inkscape="http://www.inkscape.org/namespaces/inkscape"
   width="800"
   height="400"
   id="svg2"
   version="1.1"
   inkscape:version="0.48.2 r9819"
   sodipodi:docname="mi-fill.svg">
  <defs
     id="defs4" />
  <sodipodi:namedview
     id="base"
     pagecolor="#ffffff"
     bordercolor="#666666"
     borderopacity="1.0"
     inkscape:pageopacity="0.0"
     inkscape:pageshadow="2"
     inkscape:zoom="4"
     inkscape:cx="542.67639"
     inkscape:cy="242.13974"
     inkscape:document-units="px"
     inkscape:current-layer="layer1"
     showgrid="false"
     showguides="true"
     inkscape:guide-bbox="true"
     inkscape:window-width="1024"
     inkscape:window-height="538"
     inkscape:window-x="-8"
     inkscape:window-y="-8"
     inkscape:window-maximized="1"
     width="0px"
     height="0px"
     fit-margin-top="0"
     fit-margin-left="0"
     fit-margin-right="0"
     fit-margin-bottom="0">
    <sodipodi:guide
       orientation="1,0"
       position="400.22244,349.31075"
       id="guide3178" />
  </sodipodi:namedview>
  <metadata
     id="metadata7">
    <rdf:RDF>
      <cc:Work
         rdf:about="">
        <dc:format>image/svg+xml</dc:format>
        <dc:type
           rdf:resource="http://purl.org/dc/dcmitype/StillImage" />
        <dc:title />
        <cc:license
           rdf:resource="" />
      </cc:Work>
    </rdf:RDF>
  </metadata>
  <g
     inkscape:label="Layer 1"
     inkscape:groupmode="layer"
     id="layer1"
     transform="translate(0,-652.36218)">
    <path
       id="rect4085"
       transform="translate(0,652.36218)"
       style="fill:#00ff00"
       d="m 550.03125,132.6875 c -0.79043,1e-4 -1.61043,0.0493 -2.46875,0.0937 -14.66048,0.75982 -21.05651,10.19184 -17.0625,25.125 2.16574,8.09746 11.90286,16.98264 17.03125,15.5625 1.08566,-0.30064 3.30901,-0.89068 4.9375,-1.3125 5.45084,-1.41192 11.40166,-5.06548 13.28125,-8.15625 1.58942,-2.61359 1.76399,-4.35845 1.3125,-12.03125 -0.83236,-14.14537 -5.17486,-19.28425 -17.03125,-19.28125 z m 1.15625,8.90625 c 0.20986,-0.12114 0.67622,0.48703 1.71875,1.84375 1.84522,2.40138 1.89088,2.41764 3.90625,0.59375 2.73038,-2.47096 2.59552,-0.78359 -0.375,4.53125 -1.33747,2.393 -2.92384,6.66774 -3.53125,9.5 -1.17882,5.49665 -2.90625,6.92358 -2.90625,2.40625 0,-1.50044 0.85606,-5.13505 1.9375,-8.09375 1.71377,-4.68866 1.78365,-5.50039 0.5,-6.21875 -0.81002,-0.45331 -1.4496,-1.8056 -1.4375,-3 0.009,-0.93839 0.0243,-1.4683 0.1875,-1.5625 z m -9.875,2.3125 c 0.50939,-0.0389 1.26895,0.668 1.8125,1.75 0.62121,1.23658 2.30835,3.25008 3.75,4.46875 2.2565,1.90749 2.35564,2.21475 0.75,2.21875 -2.3106,0.006 -4.48955,2.73678 -4.53125,5.6875 -0.0416,2.94171 -1.41463,2.81799 -2.8125,-0.25 -1.25054,-2.74463 -3.59495,-3.27709 -4.46875,-1 -0.97749,2.5473 -2.67772,1.66899 -2,-1.03125 0.42077,-1.67646 0.0799,-3.11597 -1.03125,-4.34375 -1.24883,-1.37994 -1.37096,-2.0049 -0.46875,-2.5625 0.73698,-0.45547 1.92305,0.26789 3.09375,1.875 2.0607,2.82888 3.73564,3.20919 6.8125,1.5625 1.96444,-1.0513 1.94841,-1.05096 -0.0312,-4.40625 -1.09075,-1.8484 -1.58208,-3.60444 -1.09375,-3.90625 0.061,-0.0377 0.14595,-0.0565 0.21875,-0.0625 z m 22.125,0.75 c 0.73581,0.098 1.34639,2.03521 1.8125,5.8125 0.51729,4.19199 0.48044,4.25441 -0.78125,1.59375 l -1.28125,-2.78125 -1.1875,2.5625 c -0.64124,1.40737 -1.15625,3.15276 -1.15625,3.875 0,0.72224 -0.6545,1.88673 -1.46875,2.5625 -1.2346,1.02462 -1.5,0.88586 -1.5,-0.8125 0,-1.12008 0.37537,-2.27303 0.84375,-2.5625 0.46836,-0.28947 1.43325,-2.56054 2.125,-5.03125 1.0028,-3.58166 1.85794,-5.31675 2.59375,-5.21875 z" />
  </g>
</svg>
