<?xml version="1.0" encoding="UTF-8" standalone="no"?>
<!-- Created with Inkscape (http://www.inkscape.org/) -->

<svg
   xmlns:dc="http://purl.org/dc/elements/1.1/"
   xmlns:cc="http://creativecommons.org/ns#"
   xmlns:rdf="http://www.w3.org/1999/02/22-rdf-syntax-ns#"
   xmlns:svg="http://www.w3.org/2000/svg"
   xmlns="http://www.w3.org/2000/svg"
   xmlns:sodipodi="http://sodipodi.sourceforge.net/DTD/sodipodi-0.dtd"
   xmlns:inkscape="http://www.inkscape.org/namespaces/inkscape"
   width="800"
   height="400"
   id="svg2"
   version="1.1"
   inkscape:version="0.48.2 r9819"
   sodipodi:docname="mi.svg">
  <defs
     id="defs4" />
  <sodipodi:namedview
     id="base"
     pagecolor="#ffffff"
     bordercolor="#666666"
     borderopacity="1.0"
     inkscape:pageopacity="0.0"
     inkscape:pageshadow="2"
     inkscape:zoom="4"
     inkscape:cx="542.67639"
     inkscape:cy="242.13974"
     inkscape:document-units="px"
     inkscape:current-layer="layer1"
     showgrid="false"
     showguides="true"
     inkscape:guide-bbox="true"
     inkscape:window-width="1366"
     inkscape:window-height="746"
     inkscape:window-x="-8"
     inkscape:window-y="-8"
     inkscape:window-maximized="1"
     width="0px"
     height="0px"
     fit-margin-top="0"
     fit-margin-left="0"
     fit-margin-right="0"
     fit-margin-bottom="0">
    <sodipodi:guide
       orientation="1,0"
       position="400.22244,349.31075"
       id="guide3178" />
  </sodipodi:namedview>
  <metadata
     id="metadata7">
    <rdf:RDF>
      <cc:Work
         rdf:about="">
        <dc:format>image/svg+xml</dc:format>
        <dc:type
           rdf:resource="http://purl.org/dc/dcmitype/StillImage" />
        <dc:title></dc:title>
        <cc:license
           rdf:resource="" />
      </cc:Work>
    </rdf:RDF>
  </metadata>
  <g
     inkscape:label="Layer 1"
     inkscape:groupmode="layer"
     id="layer1"
     transform="translate(0,-652.36218)">
    <path
       style="fill:#ff0000"
       d="m 550.03125,785.04968 c 11.85639,-0.003 16.19889,5.13588 17.03125,19.28125 0.45149,7.6728 0.27692,9.41766 -1.3125,12.03125 -1.87959,3.09077 -7.83041,6.74433 -13.28125,8.15625 -1.62849,0.42182 -3.85184,1.01186 -4.9375,1.3125 -5.12839,1.42014 -14.86551,-7.46504 -17.03125,-15.5625 -3.99401,-14.93316 2.40202,-24.36518 17.0625,-25.125 0.85832,-0.0445 1.67832,-0.0936 2.46875,-0.0937 z"
       id="path3551" />
    <path
       style="fill:#ff0000"
       d="m 551.1875,793.95593 c -0.16322,0.0942 -0.17801,0.62411 -0.1875,1.5625 -0.0121,1.1944 0.62748,2.54669 1.4375,3 1.28365,0.71836 1.21377,1.53009 -0.5,6.21875 -1.08144,2.9587 -1.9375,6.59331 -1.9375,8.09375 0,4.51733 1.72743,3.0904 2.90625,-2.40625 0.60741,-2.83226 2.19378,-7.107 3.53125,-9.5 2.97052,-5.31484 3.10538,-7.00221 0.375,-4.53125 -2.01537,1.82389 -2.06103,1.80763 -3.90625,-0.59375 -1.04253,-1.35672 -1.50889,-1.96489 -1.71875,-1.84375 z"
       id="path3549" />
    <path
       style="fill:#ff0000"
       d="m 541.3125,796.26843 c -0.0728,0.006 -0.15771,0.0248 -0.21875,0.0625 -0.48833,0.30181 0.003,2.05785 1.09375,3.90625 1.97966,3.35529 1.99564,3.35495 0.0312,4.40625 -3.07686,1.64669 -4.7518,1.26638 -6.8125,-1.5625 -1.1707,-1.60711 -2.35677,-2.33047 -3.09375,-1.875 -0.90221,0.5576 -0.78008,1.18256 0.46875,2.5625 1.11115,1.22778 1.45202,2.66729 1.03125,4.34375 -0.67772,2.70024 1.02251,3.57855 2,1.03125 0.8738,-2.27709 3.21821,-1.74463 4.46875,1 1.39787,3.06799 2.7709,3.19171 2.8125,0.25 0.0417,-2.95072 2.22065,-5.6815 4.53125,-5.6875 1.60564,-0.004 1.5065,-0.31126 -0.75,-2.21875 -1.44165,-1.21867 -3.12879,-3.23217 -3.75,-4.46875 -0.54355,-1.082 -1.30311,-1.78888 -1.8125,-1.75 z"
       id="path3547" />
    <path
       style="fill:#ff0000"
       d="m 563.4375,797.01843 c -0.73581,-0.098 -1.59095,1.63709 -2.59375,5.21875 -0.69175,2.47071 -1.65664,4.74178 -2.125,5.03125 -0.46838,0.28947 -0.84375,1.44242 -0.84375,2.5625 0,1.69836 0.2654,1.83712 1.5,0.8125 0.81425,-0.67577 1.46875,-1.84026 1.46875,-2.5625 0,-0.72224 0.51501,-2.46763 1.15625,-3.875 l 1.1875,-2.5625 1.28125,2.78125 c 1.26169,2.66066 1.29854,2.59824 0.78125,-1.59375 -0.46611,-3.77729 -1.07669,-5.7145 -1.8125,-5.8125 z"
       id="rect3092" />
  </g>
</svg>
