<?xml version="1.0" encoding="UTF-8" standalone="no"?>
<!-- Created with Inkscape (http://www.inkscape.org/) -->

<svg
   xmlns:dc="http://purl.org/dc/elements/1.1/"
   xmlns:cc="http://creativecommons.org/ns#"
   xmlns:rdf="http://www.w3.org/1999/02/22-rdf-syntax-ns#"
   xmlns:svg="http://www.w3.org/2000/svg"
   xmlns="http://www.w3.org/2000/svg"
   xmlns:sodipodi="http://sodipodi.sourceforge.net/DTD/sodipodi-0.dtd"
   xmlns:inkscape="http://www.inkscape.org/namespaces/inkscape"
   width="800"
   height="400"
   id="svg2"
   version="1.1"
   inkscape:version="0.48.2 r9819"
   sodipodi:docname="mi33-fill.svg">
  <defs
     id="defs4" />
  <sodipodi:namedview
     id="base"
     pagecolor="#ffffff"
     bordercolor="#666666"
     borderopacity="1.0"
     inkscape:pageopacity="0.0"
     inkscape:pageshadow="2"
     inkscape:zoom="5.6568542"
     inkscape:cx="546.50556"
     inkscape:cy="241.92077"
     inkscape:document-units="px"
     inkscape:current-layer="layer1"
     showgrid="false"
     showguides="true"
     inkscape:guide-bbox="true"
     inkscape:window-width="1024"
     inkscape:window-height="538"
     inkscape:window-x="-8"
     inkscape:window-y="-8"
     inkscape:window-maximized="1"
     width="0px"
     height="0px"
     fit-margin-top="0"
     fit-margin-left="0"
     fit-margin-right="0"
     fit-margin-bottom="0">
    <sodipodi:guide
       orientation="1,0"
       position="400.22244,349.31075"
       id="guide3178" />
  </sodipodi:namedview>
  <metadata
     id="metadata7">
    <rdf:RDF>
      <cc:Work
         rdf:about="">
        <dc:format>image/svg+xml</dc:format>
        <dc:type
           rdf:resource="http://purl.org/dc/dcmitype/StillImage" />
        <dc:title></dc:title>
        <cc:license
           rdf:resource="" />
      </cc:Work>
    </rdf:RDF>
  </metadata>
  <g
     inkscape:label="Layer 1"
     inkscape:groupmode="layer"
     id="layer1"
     transform="translate(0,-652.36218)">
    <path
       id="rect4085"
       transform="translate(0,652.36218)"
       style="fill:#00ff00"
       d="m 529.71875,145.78125 c -0.67809,3.46221 -0.44845,7.52729 0.78125,12.125 0.15703,0.58712 0.36176,1.19008 0.59375,1.78125 l 10.375,0 c -0.3725,-0.39033 -0.77785,-1.00717 -1.1875,-1.90625 -1.25054,-2.74463 -3.59495,-3.27709 -4.46875,-1 -0.97749,2.5473 -2.67772,1.66899 -2,-1.03125 0.42077,-1.67646 0.0799,-3.11597 -1.03125,-4.34375 -1.24883,-1.37994 -1.37096,-2.0049 -0.46875,-2.5625 0.73698,-0.45547 1.92305,0.26789 3.09375,1.875 1.93633,2.65815 3.54298,3.12846 6.28125,1.8125 l 0,-5.625 c -0.19623,-0.40312 -0.34627,-0.77301 -0.46875,-1.125 l -11.5,0 z" />
  </g>
</svg>
