<?xml version="1.0" encoding="UTF-8" standalone="no"?>
<!-- Created with Inkscape (http://www.inkscape.org/) -->

<svg
   xmlns:dc="http://purl.org/dc/elements/1.1/"
   xmlns:cc="http://creativecommons.org/ns#"
   xmlns:rdf="http://www.w3.org/1999/02/22-rdf-syntax-ns#"
   xmlns:svg="http://www.w3.org/2000/svg"
   xmlns="http://www.w3.org/2000/svg"
   xmlns:sodipodi="http://sodipodi.sourceforge.net/DTD/sodipodi-0.dtd"
   xmlns:inkscape="http://www.inkscape.org/namespaces/inkscape"
   width="800"
   height="400"
   id="svg2"
   version="1.1"
   inkscape:version="0.48.2 r9819"
   sodipodi:docname="mi21-fill.svg">
  <defs
     id="defs4" />
  <sodipodi:namedview
     id="base"
     pagecolor="#ffffff"
     bordercolor="#666666"
     borderopacity="1.0"
     inkscape:pageopacity="0.0"
     inkscape:pageshadow="2"
     inkscape:zoom="5.6568542"
     inkscape:cx="546.50556"
     inkscape:cy="241.92077"
     inkscape:document-units="px"
     inkscape:current-layer="layer1"
     showgrid="false"
     showguides="true"
     inkscape:guide-bbox="true"
     inkscape:window-width="1024"
     inkscape:window-height="538"
     inkscape:window-x="-8"
     inkscape:window-y="-8"
     inkscape:window-maximized="1"
     width="0px"
     height="0px"
     fit-margin-top="0"
     fit-margin-left="0"
     fit-margin-right="0"
     fit-margin-bottom="0">
    <sodipodi:guide
       orientation="1,0"
       position="400.22244,349.31075"
       id="guide3178" />
  </sodipodi:namedview>
  <metadata
     id="metadata7">
    <rdf:RDF>
      <cc:Work
         rdf:about="">
        <dc:format>image/svg+xml</dc:format>
        <dc:type
           rdf:resource="http://purl.org/dc/dcmitype/StillImage" />
        <dc:title></dc:title>
        <cc:license
           rdf:resource="" />
      </cc:Work>
    </rdf:RDF>
  </metadata>
  <g
     inkscape:label="Layer 1"
     inkscape:groupmode="layer"
     id="layer1"
     transform="translate(0,-652.36218)">
    <path
       id="rect4085"
       transform="translate(0,652.36218)"
       style="fill:#00ff00"
       d="m 543.1875,145.78125 c 0.66066,1.24303 2.28602,3.15904 3.6875,4.34375 2.2565,1.90749 2.35564,2.21475 0.75,2.21875 -2.3106,0.006 -4.48955,2.73678 -4.53125,5.6875 -0.0108,0.76301 -0.11411,1.30359 -0.28125,1.65625 l 7.25,0 c 0.2004,-1.76109 0.94984,-4.78136 1.875,-7.3125 1.71377,-4.68866 1.78365,-5.50039 0.5,-6.21875 -0.1575,-0.0881 -0.29642,-0.22665 -0.4375,-0.375 l -8.8125,0 z m -1.5,1.125 0,5.625 c 0.17588,-0.0845 0.34555,-0.15062 0.53125,-0.25 1.96444,-1.0513 1.94836,-1.05096 -0.0312,-4.40625 -0.19695,-0.33375 -0.34438,-0.64904 -0.5,-0.96875 z m 13,5.53125 c -0.75769,1.94086 -1.43402,4.00591 -1.78125,5.625 -0.12771,0.59547 -0.26856,1.12744 -0.40625,1.625 l 2.1875,0 0,-7.25 z" />
  </g>
</svg>
