<?xml version="1.0" encoding="UTF-8" standalone="no"?>
<!-- Created with Inkscape (http://www.inkscape.org/) -->

<svg
   xmlns:dc="http://purl.org/dc/elements/1.1/"
   xmlns:cc="http://creativecommons.org/ns#"
   xmlns:rdf="http://www.w3.org/1999/02/22-rdf-syntax-ns#"
   xmlns:svg="http://www.w3.org/2000/svg"
   xmlns="http://www.w3.org/2000/svg"
   xmlns:sodipodi="http://sodipodi.sourceforge.net/DTD/sodipodi-0.dtd"
   xmlns:inkscape="http://www.inkscape.org/namespaces/inkscape"
   width="800"
   height="400"
   id="svg2"
   version="1.1"
   inkscape:version="0.48.2 r9819"
   sodipodi:docname="mi22-fill.svg">
  <defs
     id="defs4" />
  <sodipodi:namedview
     id="base"
     pagecolor="#ffffff"
     bordercolor="#666666"
     borderopacity="1.0"
     inkscape:pageopacity="0.0"
     inkscape:pageshadow="2"
     inkscape:zoom="5.6568542"
     inkscape:cx="546.50556"
     inkscape:cy="241.92077"
     inkscape:document-units="px"
     inkscape:current-layer="layer1"
     showgrid="false"
     showguides="true"
     inkscape:guide-bbox="true"
     inkscape:window-width="1024"
     inkscape:window-height="538"
     inkscape:window-x="-8"
     inkscape:window-y="-8"
     inkscape:window-maximized="1"
     width="0px"
     height="0px"
     fit-margin-top="0"
     fit-margin-left="0"
     fit-margin-right="0"
     fit-margin-bottom="0">
    <sodipodi:guide
       orientation="1,0"
       position="400.22244,349.31075"
       id="guide3178" />
  </sodipodi:namedview>
  <metadata
     id="metadata7">
    <rdf:RDF>
      <cc:Work
         rdf:about="">
        <dc:format>image/svg+xml</dc:format>
        <dc:type
           rdf:resource="http://purl.org/dc/dcmitype/StillImage" />
        <dc:title></dc:title>
        <cc:license
           rdf:resource="" />
      </cc:Work>
    </rdf:RDF>
  </metadata>
  <g
     inkscape:label="Layer 1"
     inkscape:groupmode="layer"
     id="layer1"
     transform="translate(0,-652.36218)">
    <path
       id="rect4085"
       transform="translate(0,652.36218)"
       style="fill:#00ff00"
       d="m 557.875,145.78125 c -0.37092,0.78207 -0.82594,1.68705 -1.4375,2.78125 -0.57289,1.02502 -1.18227,2.42072 -1.75,3.875 l 0,7.25 12.46875,0 c 0.16345,-1.70635 0.1245,-4.00966 -0.0937,-7.71875 -0.13567,-2.30565 -0.37922,-4.34368 -0.71875,-6.1875 l -2.03125,0 c 0.36128,0.95453 0.66865,2.50881 0.9375,4.6875 0.51729,4.19199 0.48044,4.25441 -0.78125,1.59375 l -1.28125,-2.78125 -1.1875,2.5625 c -0.64124,1.40737 -1.15625,3.15276 -1.15625,3.875 0,0.72224 -0.6545,1.88673 -1.46875,2.5625 -1.2346,1.02462 -1.5,0.88586 -1.5,-0.8125 0,-1.12008 0.37537,-2.27303 0.84375,-2.5625 0.46836,-0.28947 1.43325,-2.56054 2.125,-5.03125 0.52328,-1.86897 1.02186,-3.22848 1.46875,-4.09375 l -4.4375,0 z" />
  </g>
</svg>
