<?xml version="1.0" encoding="UTF-8" standalone="no"?>
<!-- Created with Inkscape (http://www.inkscape.org/) -->

<svg
   xmlns:dc="http://purl.org/dc/elements/1.1/"
   xmlns:cc="http://creativecommons.org/ns#"
   xmlns:rdf="http://www.w3.org/1999/02/22-rdf-syntax-ns#"
   xmlns:svg="http://www.w3.org/2000/svg"
   xmlns="http://www.w3.org/2000/svg"
   xmlns:sodipodi="http://sodipodi.sourceforge.net/DTD/sodipodi-0.dtd"
   xmlns:inkscape="http://www.inkscape.org/namespaces/inkscape"
   width="800"
   height="400"
   id="svg2"
   version="1.1"
   inkscape:version="0.48.2 r9819"
   sodipodi:docname="mp.svg">
  <defs
     id="defs4" />
  <sodipodi:namedview
     id="base"
     pagecolor="#ffffff"
     bordercolor="#666666"
     borderopacity="1.0"
     inkscape:pageopacity="0.0"
     inkscape:pageshadow="2"
     inkscape:zoom="2.8284271"
     inkscape:cx="306.2857"
     inkscape:cy="100.86535"
     inkscape:document-units="px"
     inkscape:current-layer="layer1"
     showgrid="false"
     showguides="true"
     inkscape:guide-bbox="true"
     inkscape:window-width="1366"
     inkscape:window-height="746"
     inkscape:window-x="-8"
     inkscape:window-y="-8"
     inkscape:window-maximized="1"
     width="0px"
     height="0px"
     fit-margin-top="0"
     fit-margin-left="0"
     fit-margin-right="0"
     fit-margin-bottom="0">
    <sodipodi:guide
       orientation="1,0"
       position="400.22244,349.31075"
       id="guide3178" />
  </sodipodi:namedview>
  <metadata
     id="metadata7">
    <rdf:RDF>
      <cc:Work
         rdf:about="">
        <dc:format>image/svg+xml</dc:format>
        <dc:type
           rdf:resource="http://purl.org/dc/dcmitype/StillImage" />
        <dc:title></dc:title>
        <cc:license
           rdf:resource="" />
      </cc:Work>
    </rdf:RDF>
  </metadata>
  <g
     inkscape:label="Layer 1"
     inkscape:groupmode="layer"
     id="layer1"
     transform="translate(0,-652.36218)">
    <path
       id="rect3148"
       transform="translate(0,652.36218)"
       style="fill:#ff0000"
       d="m 388.125,287.5625 c -4.51876,0.0889 -5.90688,0.57153 -7.59375,2.15625 -2.83906,2.66717 -2.84511,5.26673 -0.125,15.1875 1.17729,4.29377 2.43692,12.03061 2.8125,17.1875 2.39733,32.9167 3.20914,40.0388 4.71875,41.75 2.10088,2.3816 4.16448,1.78965 6.25,-1.78125 2.03459,-3.4837 3.77695,-21.76539 3.84375,-40.34375 0.0236,-6.57085 0.4889,-13.96351 1.03125,-16.40625 3.48451,-15.6942 2.45525,-17.75 -8.8125,-17.75 -0.78408,0 -1.47946,-0.0127 -2.125,0 z m 2.09375,1.96875 c 6.28907,0 7.78125,1.08849 7.78125,5.71875 0,4.90989 -2.83048,15.00902 -5.09375,18.1875 -1.07812,1.51407 -2.76951,2.75 -3.78125,2.75 -2.37516,0 -5.9375,-5.00408 -5.9375,-8.34375 0,-1.42642 -0.65451,-4.17623 -1.46875,-6.125 -3.31669,-7.93796 -0.35553,-12.1875 8.5,-12.1875 z m 5.875,25.78125 -0.59375,15.46875 c -0.33166,8.5182 -0.9986,18.565 -1.46875,22.3125 -0.88994,7.0937 -2.93562,10.87495 -4.53125,8.34375 -0.46058,-0.7306 -1.4108,-8.43973 -2.09375,-17.125 -0.68295,-8.6853 -1.5277,-18.38217 -1.875,-21.53125 l -0.625,-5.71875 2.5625,0.65625 c 1.53152,0.38439 3.76349,0.007 5.59375,-0.90625 l 3.03125,-1.5 z" />
  </g>
</svg>
