<?xml version="1.0" encoding="UTF-8" standalone="no"?>
<!-- Created with Inkscape (http://www.inkscape.org/) -->

<svg
   xmlns:dc="http://purl.org/dc/elements/1.1/"
   xmlns:cc="http://creativecommons.org/ns#"
   xmlns:rdf="http://www.w3.org/1999/02/22-rdf-syntax-ns#"
   xmlns:svg="http://www.w3.org/2000/svg"
   xmlns="http://www.w3.org/2000/svg"
   xmlns:sodipodi="http://sodipodi.sourceforge.net/DTD/sodipodi-0.dtd"
   xmlns:inkscape="http://www.inkscape.org/namespaces/inkscape"
   width="800"
   height="400"
   id="svg2"
   version="1.1"
   inkscape:version="0.48.2 r9819"
   sodipodi:docname="mi.svg">
  <defs
     id="defs4" />
  <sodipodi:namedview
     id="base"
     pagecolor="#ffffff"
     bordercolor="#666666"
     borderopacity="1.0"
     inkscape:pageopacity="0.0"
     inkscape:pageshadow="2"
     inkscape:zoom="4"
     inkscape:cx="523.44662"
     inkscape:cy="336.49504"
     inkscape:document-units="px"
     inkscape:current-layer="layer1"
     showgrid="false"
     showguides="true"
     inkscape:guide-bbox="true"
     inkscape:window-width="1366"
     inkscape:window-height="746"
     inkscape:window-x="-8"
     inkscape:window-y="-8"
     inkscape:window-maximized="1"
     width="0px"
     height="0px"
     fit-margin-top="0"
     fit-margin-left="0"
     fit-margin-right="0"
     fit-margin-bottom="0">
    <sodipodi:guide
       orientation="1,0"
       position="400.22244,349.31075"
       id="guide3178" />
  </sodipodi:namedview>
  <metadata
     id="metadata7">
    <rdf:RDF>
      <cc:Work
         rdf:about="">
        <dc:format>image/svg+xml</dc:format>
        <dc:type
           rdf:resource="http://purl.org/dc/dcmitype/StillImage" />
        <dc:title></dc:title>
        <cc:license
           rdf:resource="" />
      </cc:Work>
    </rdf:RDF>
  </metadata>
  <g
     inkscape:label="Layer 1"
     inkscape:groupmode="layer"
     id="layer1"
     transform="translate(0,-652.36218)">
    <path
       id="rect3097"
       transform="translate(0,652.36218)"
       style="fill:#ff0000"
       d="m 582.96875,18.71875 c -0.31692,0.02475 -0.63429,0.149294 -0.90625,0.375 -0.76551,0.63532 -2.12111,3.11683 -3.03125,5.5 -1.4509,3.79912 -1.51402,5.33402 -0.46875,12.5 1.36356,9.34814 2.99105,16.59472 4.03125,18.03125 1.46688,2.02578 3.90625,12.30616 3.90625,16.4375 0,2.8698 -1.10893,6.54998 -3.375,11.1875 -2.30458,4.71633 -3.59607,9.04244 -4.0625,13.59375 l -0.6875,6.6875 4.4375,4.40625 c 3.407,3.40701 5.18199,4.45555 7.75,4.53125 1.83563,0.0541 4.45542,0.47164 5.8125,0.90625 3.90387,1.25024 4.97199,1.09861 8.46875,-1.0625 2.77358,-1.71418 3.86565,-1.87943 6.9375,-1.03125 8.09113,2.23406 19.94035,-2.02919 22,-7.9375 1.07815,-3.09278 -0.23161,-15.94627 -1.84375,-18.09375 -0.40751,-0.54284 -1.22834,-2.48501 -1.84375,-4.3125 -1.00639,-2.98849 -0.72906,-4.23606 2.71875,-12.34375 3.49972,-8.22974 5.80777,-15.21158 9.5625,-28.71875 3.07619,-11.06627 -0.14456,-22.4305 -5.4375,-19.125 -1.84046,1.14939 -3.75994,4.46951 -14.53125,25.21875 -3.62333,6.97979 -4.16528,6.79026 -6.625,-2.1875 -0.9036,-3.298 -2.54883,-6.69433 -3.71875,-7.65625 -3.87094,-3.18271 -5.62359,-2.18459 -9.4375,5.21875 -1.53499,2.97961 -3.24057,5.40625 -3.78125,5.40625 -1.45917,0 -5.97314,-8.89492 -8.34375,-16.40625 -2.12611,-6.736599 -5.31284,-11.298259 -7.53125,-11.125 z m 0.90625,3.1875 c 0.65141,0.07162 1.30841,1.64019 2.1875,4.71875 0.91197,3.19364 2.44847,7.35009 3.4375,9.25 0.98904,1.89991 2.44567,5.00634 3.21875,6.90625 0.77307,1.89991 1.93471,4.80901 2.59375,6.4375 2.28743,5.65235 8.22677,13.19993 11.625,14.8125 3.13034,1.48544 3.55891,1.49709 5.84375,0 1.35899,-0.89044 3.66684,-3.67342 5.125,-6.15625 1.45817,-2.48284 3.60226,-5.64501 4.75,-7.0625 1.14774,-1.41749 4.84248,-8.15211 8.21875,-14.9375 3.37629,-6.78539 6.4634,-12.69487 6.875,-13.125 1.41822,-1.48203 3.04881,1.98835 3.1875,6.8125 0.1811,6.29934 -1.11982,13.36982 -2.75,15 -0.71116,0.71117 -1.79072,3.15472 -2.40625,5.4375 -0.61553,2.28279 -2.39844,7.50757 -3.96875,11.625 -1.57032,4.11743 -2.871,7.90962 -2.875,8.40625 -0.004,0.49664 -0.77237,2.04298 -1.71875,3.4375 -1.6752,2.46791 -1.83376,2.4937 -6.15625,1.21875 -3.23743,-0.9549 -6.19604,-1.07671 -10.875,-0.4375 -3.6977,0.50482 -7.10459,0.50035 -8.0625,0 -2.19693,-1.14749 -6.97576,-1.10359 -10.125,0.09375 -1.85809,0.70644 -2.5624,0.63754 -2.625,-0.25 -0.0469,-0.66511 -0.19242,-3.24144 -0.34375,-5.71875 -0.15133,-2.47731 -0.7902,-5.44263 -1.40625,-6.59375 -0.61607,-1.15111 -1.125,-3.35064 -1.125,-4.90625 0,-1.55561 -0.46399,-3.30774 -1.03125,-3.875 -0.56726,-0.56726 -1.91887,-6.03372 -3,-12.15625 -1.60373,-9.08204 -1.74453,-11.79893 -0.8125,-14.71875 0.91956,-2.88082 1.56734,-4.290365 2.21875,-4.21875 z M 609.0625,35.875 c 1.08803,0 2.71949,3.30441 5.09375,10.3125 1.09428,3.23 2.49947,6.20715 3.125,6.59375 0.77603,0.47961 0.32174,1.58909 -1.4375,3.5 -1.41805,1.5403 -3.38432,3.83166 -4.375,5.09375 l -1.8125,2.28125 -3.9375,-4.21875 c -5.83483,-6.27017 -6.5639,-8.59351 -3.875,-12.21875 1.20787,-1.6285 3.1538,-4.84922 4.3125,-7.15625 1.1587,-2.30704 2.46618,-4.1875 2.90625,-4.1875 z m 7.03125,40.5 c 1.35112,-0.0073 4.36549,0.70696 6.6875,1.59375 3.12557,1.19366 4.36322,2.28204 4.78125,4.1875 0.31056,1.41559 1.23391,4.64627 2.03125,7.1875 0.79733,2.54123 1.29198,6.74563 1.125,9.34375 -0.32772,5.09954 0.13648,4.68522 -9.6875,9 -4.14833,1.82199 -4.7415,1.86813 -8.25,0.46875 -3.54555,-1.41415 -4.0603,-1.36498 -8.15625,0.625 -2.40063,1.16631 -4.44131,2.063 -4.5625,2 -0.12119,-0.063 -1.13309,-0.30515 -2.21875,-0.53125 -7.97043,-1.65994 -10.61674,-2.84984 -13.4375,-6.0625 -2.77015,-3.15505 -3.00542,-3.95123 -2.5,-8.21875 0.65908,-5.56492 5.99304,-17.17165 8.375,-18.21875 1.36587,-0.60044 14.78043,-1.3157 25.8125,-1.375 z" />
  </g>
</svg>
