<?xml version="1.0" encoding="UTF-8" standalone="no"?>
<!-- Created with Inkscape (http://www.inkscape.org/) -->

<svg
   xmlns:dc="http://purl.org/dc/elements/1.1/"
   xmlns:cc="http://creativecommons.org/ns#"
   xmlns:rdf="http://www.w3.org/1999/02/22-rdf-syntax-ns#"
   xmlns:svg="http://www.w3.org/2000/svg"
   xmlns="http://www.w3.org/2000/svg"
   xmlns:sodipodi="http://sodipodi.sourceforge.net/DTD/sodipodi-0.dtd"
   xmlns:inkscape="http://www.inkscape.org/namespaces/inkscape"
   width="800"
   height="700"
   id="svg2"
   version="1.1"
   inkscape:version="0.48.2 r9819"
   sodipodi:docname="f15-fill.svg">
  <defs
     id="defs4" />
  <sodipodi:namedview
     id="base"
     pagecolor="#ffffff"
     bordercolor="#666666"
     borderopacity="1.0"
     inkscape:pageopacity="0.0"
     inkscape:pageshadow="2"
     inkscape:zoom="5"
     inkscape:cx="708.28701"
     inkscape:cy="577.79084"
     inkscape:document-units="px"
     inkscape:current-layer="layer1"
     showgrid="false"
     showguides="true"
     inkscape:guide-bbox="true"
     inkscape:window-width="1024"
     inkscape:window-height="538"
     inkscape:window-x="-8"
     inkscape:window-y="-8"
     inkscape:window-maximized="1"
     width="0px"
     height="0px"
     fit-margin-top="0"
     fit-margin-left="0"
     fit-margin-right="0"
     fit-margin-bottom="0">
    <sodipodi:guide
       orientation="1,0"
       position="400.22244,349.31075"
       id="guide3178" />
    <sodipodi:guide
       orientation="0,1"
       position="400.22244,349.31075"
       id="guide3180" />
  </sodipodi:namedview>
  <metadata
     id="metadata7">
    <rdf:RDF>
      <cc:Work
         rdf:about="">
        <dc:format>image/svg+xml</dc:format>
        <dc:type
           rdf:resource="http://purl.org/dc/dcmitype/StillImage" />
        <dc:title />
      </cc:Work>
    </rdf:RDF>
  </metadata>
  <g
     inkscape:label="Layer 1"
     inkscape:groupmode="layer"
     id="layer1"
     transform="translate(0,-352.36218)">
    <path
       id="rect3905"
       transform="translate(0,352.36218)"
       style="fill:#00ff00"
       d="m 723.90625,109.09375 -4.78125,0.5 c -2.63193,0.26557 -7.6511,0.5583 -11.15625,0.625 -4.06827,0.0775 -6.57593,0.29897 -6.96875,0.625 -0.33847,0.28088 -1.06734,1.5175 -1.625,2.78125 -0.55769,1.26372 -1.51817,3.40277 -2.125,4.71875 -2.0715,4.49223 -1.67977,12.59336 0.75,15.3125 1.54651,1.7307 3.87315,1.99721 7.46875,0.84375 1.53143,-0.49127 3.70455,-1.16934 4.78125,-1.5 1.2843,-0.39444 2.10705,-0.96381 2.4375,-1.65625 0.27697,-0.58049 0.64449,-3.32067 0.8125,-6.09375 l 0.28125,-5.03125 -1.375,-1.625 c -0.77588,-0.88375 -1.32921,-1.70205 -1.1875,-1.84375 0.29759,-0.29759 6.375,1.60866 6.375,2 0,0.14311 -0.52173,0.45565 -1.21875,0.71875 -1.12888,0.4261 -1.30695,0.76286 -1.53125,2.84375 -0.13849,1.28477 -0.3131,3.97745 -0.375,6 L 714.375,132 l 3.03125,2.0625 c 3.46444,2.34535 4.03789,2.52225 6.75,2.28125 1.55238,-0.13792 2.18176,-0.46801 3.15625,-1.59375 0.67592,-0.7808 1.60414,-2.11669 2.0625,-3 1.07204,-2.06599 2.54687,-4.23753 3.78125,-5.5625 1.13,-1.2129 1.29251,-3.43821 0.375,-5.1875 -0.95458,-1.81991 -1.93473,-4.49675 -2.25,-6.15625 -0.39588,-2.08381 -1.18217,-2.86474 -4.5,-4.40625 l -2.875,-1.34375 z" />
  </g>
</svg>
