<?xml version="1.0" encoding="UTF-8" standalone="no"?>
<!-- Created with Inkscape (http://www.inkscape.org/) -->

<svg
   xmlns:dc="http://purl.org/dc/elements/1.1/"
   xmlns:cc="http://creativecommons.org/ns#"
   xmlns:rdf="http://www.w3.org/1999/02/22-rdf-syntax-ns#"
   xmlns:svg="http://www.w3.org/2000/svg"
   xmlns="http://www.w3.org/2000/svg"
   xmlns:sodipodi="http://sodipodi.sourceforge.net/DTD/sodipodi-0.dtd"
   xmlns:inkscape="http://www.inkscape.org/namespaces/inkscape"
   width="800"
   height="700"
   id="svg2"
   version="1.1"
   inkscape:version="0.48.2 r9819"
   sodipodi:docname="f15.svg">
  <defs
     id="defs4" />
  <sodipodi:namedview
     id="base"
     pagecolor="#ffffff"
     bordercolor="#666666"
     borderopacity="1.0"
     inkscape:pageopacity="0.0"
     inkscape:pageshadow="2"
     inkscape:zoom="5"
     inkscape:cx="708.28701"
     inkscape:cy="599.05428"
     inkscape:document-units="px"
     inkscape:current-layer="layer1"
     showgrid="false"
     showguides="true"
     inkscape:guide-bbox="true"
     inkscape:window-width="1366"
     inkscape:window-height="746"
     inkscape:window-x="-8"
     inkscape:window-y="-8"
     inkscape:window-maximized="1"
     width="0px"
     height="0px"
     fit-margin-top="0"
     fit-margin-left="0"
     fit-margin-right="0"
     fit-margin-bottom="0">
    <sodipodi:guide
       orientation="1,0"
       position="400.22244,349.31075"
       id="guide3178" />
    <sodipodi:guide
       orientation="0,1"
       position="400.22244,349.31075"
       id="guide3180" />
  </sodipodi:namedview>
  <metadata
     id="metadata7">
    <rdf:RDF>
      <cc:Work
         rdf:about="">
        <dc:format>image/svg+xml</dc:format>
        <dc:type
           rdf:resource="http://purl.org/dc/dcmitype/StillImage" />
        <dc:title></dc:title>
      </cc:Work>
    </rdf:RDF>
  </metadata>
  <g
     inkscape:label="Layer 1"
     inkscape:groupmode="layer"
     id="layer1"
     transform="translate(0,-352.36218)">
    <path
       style="fill:#ff0000"
       d="m 723.90625,461.45593 2.875,1.34375 c 3.31783,1.54151 4.10412,2.32244 4.5,4.40625 0.31527,1.6595 1.29542,4.33634 2.25,6.15625 0.91751,1.74929 0.755,3.9746 -0.375,5.1875 -1.23438,1.32497 -2.70921,3.49651 -3.78125,5.5625 -0.45836,0.88331 -1.38658,2.2192 -2.0625,3 -0.97449,1.12574 -1.60387,1.45583 -3.15625,1.59375 -2.71211,0.241 -3.28556,0.0641 -6.75,-2.28125 l -3.03125,-2.0625 0.0937,-3.6875 c 0.0619,-2.02255 0.23651,-4.71523 0.375,-6 0.2243,-2.08089 0.40237,-2.41765 1.53125,-2.84375 0.69702,-0.2631 1.21875,-0.57564 1.21875,-0.71875 0,-0.39134 -6.07741,-2.29759 -6.375,-2 -0.14171,0.1417 0.41162,0.96 1.1875,1.84375 l 1.375,1.625 -0.2812,5.03125 c -0.16801,2.77308 -0.53553,5.51326 -0.8125,6.09375 -0.33045,0.69244 -1.1532,1.26181 -2.4375,1.65625 -1.0767,0.33066 -3.24982,1.00873 -4.78125,1.5 -3.5956,1.15346 -5.92224,0.88695 -7.46875,-0.84375 -2.42977,-2.71914 -2.8215,-10.82027 -0.75,-15.3125 0.60683,-1.31598 1.56731,-3.45503 2.125,-4.71875 0.55766,-1.26375 1.28653,-2.50037 1.625,-2.78125 0.39282,-0.32603 2.90048,-0.54747 6.96875,-0.625 3.50515,-0.0667 8.52432,-0.35943 11.15625,-0.625 l 4.78125,-0.5 z"
       id="rect3182" />
  </g>
</svg>
