<?xml version="1.0" encoding="UTF-8" standalone="no"?>
<!-- Created with Inkscape (http://www.inkscape.org/) -->

<svg
   xmlns:dc="http://purl.org/dc/elements/1.1/"
   xmlns:cc="http://creativecommons.org/ns#"
   xmlns:rdf="http://www.w3.org/1999/02/22-rdf-syntax-ns#"
   xmlns:svg="http://www.w3.org/2000/svg"
   xmlns="http://www.w3.org/2000/svg"
   xmlns:sodipodi="http://sodipodi.sourceforge.net/DTD/sodipodi-0.dtd"
   xmlns:inkscape="http://www.inkscape.org/namespaces/inkscape"
   width="800"
   height="700"
   id="svg2"
   version="1.1"
   inkscape:version="0.48.2 r9819"
   sodipodi:docname="f10-fill.svg">
  <defs
     id="defs4" />
  <sodipodi:namedview
     id="base"
     pagecolor="#ffffff"
     bordercolor="#666666"
     borderopacity="1.0"
     inkscape:pageopacity="0.0"
     inkscape:pageshadow="2"
     inkscape:zoom="3.5355339"
     inkscape:cx="462.52"
     inkscape:cy="594.98952"
     inkscape:document-units="px"
     inkscape:current-layer="layer1"
     showgrid="false"
     showguides="true"
     inkscape:guide-bbox="true"
     inkscape:window-width="1024"
     inkscape:window-height="538"
     inkscape:window-x="-8"
     inkscape:window-y="-8"
     inkscape:window-maximized="1"
     width="0px"
     height="0px"
     fit-margin-top="0"
     fit-margin-left="0"
     fit-margin-right="0"
     fit-margin-bottom="0">
    <sodipodi:guide
       orientation="1,0"
       position="400.22244,349.31075"
       id="guide3178" />
    <sodipodi:guide
       orientation="0,1"
       position="400.22244,349.31075"
       id="guide3180" />
  </sodipodi:namedview>
  <metadata
     id="metadata7">
    <rdf:RDF>
      <cc:Work
         rdf:about="">
        <dc:format>image/svg+xml</dc:format>
        <dc:type
           rdf:resource="http://purl.org/dc/dcmitype/StillImage" />
        <dc:title />
      </cc:Work>
    </rdf:RDF>
  </metadata>
  <g
     inkscape:label="Layer 1"
     inkscape:groupmode="layer"
     id="layer1"
     transform="translate(0,-352.36218)">
    <path
       id="rect3670"
       transform="translate(0,352.36218)"
       style="fill:#00ff00"
       d="m 473.09375,93.96875 c -2.15948,0.1317 -4.17143,1.25785 -5.5,3.21875 -1.54858,2.2856 -1.83001,3.07429 -3.375,10.03125 -2.6407,11.89121 -3.11834,15.79897 -2.625,20.40625 0.29256,2.73185 0.39879,2.9435 2.125,4.21875 l 1.8125,1.3125 8.6875,-0.28125 c 5.98599,-0.18443 9.28655,-0.43065 10.53125,-0.875 1.97643,-0.70548 3.15625,-2.57539 3.15625,-4.84375 0,-0.68315 -0.77108,-3.90302 -1.71875,-7.1875 -0.94773,-3.28445 -2.10996,-7.98109 -2.59375,-10.4375 -1.97743,-10.04084 -3.31116,-13.02883 -6.5625,-14.6875 -1.28664,-0.65641 -2.64181,-0.9539 -3.9375,-0.875 z" />
  </g>
</svg>
