<?xml version="1.0" encoding="UTF-8" standalone="no"?>
<!-- Created with Inkscape (http://www.inkscape.org/) -->

<svg
   xmlns:dc="http://purl.org/dc/elements/1.1/"
   xmlns:cc="http://creativecommons.org/ns#"
   xmlns:rdf="http://www.w3.org/1999/02/22-rdf-syntax-ns#"
   xmlns:svg="http://www.w3.org/2000/svg"
   xmlns="http://www.w3.org/2000/svg"
   xmlns:sodipodi="http://sodipodi.sourceforge.net/DTD/sodipodi-0.dtd"
   xmlns:inkscape="http://www.inkscape.org/namespaces/inkscape"
   width="800"
   height="400"
   id="svg2"
   version="1.1"
   inkscape:version="0.48.2 r9819"
   sodipodi:docname="ft-fill.svg">
  <defs
     id="defs4" />
  <sodipodi:namedview
     id="base"
     pagecolor="#ffffff"
     bordercolor="#666666"
     borderopacity="1.0"
     inkscape:pageopacity="0.0"
     inkscape:pageshadow="2"
     inkscape:zoom="2"
     inkscape:cx="387.93063"
     inkscape:cy="69.39031"
     inkscape:document-units="px"
     inkscape:current-layer="layer1"
     showgrid="false"
     showguides="true"
     inkscape:guide-bbox="true"
     inkscape:window-width="1024"
     inkscape:window-height="538"
     inkscape:window-x="-8"
     inkscape:window-y="-8"
     inkscape:window-maximized="1"
     width="0px"
     height="0px"
     fit-margin-top="0"
     fit-margin-left="0"
     fit-margin-right="0"
     fit-margin-bottom="0">
    <sodipodi:guide
       orientation="1,0"
       position="400.22244,349.31075"
       id="guide3178" />
  </sodipodi:namedview>
  <metadata
     id="metadata7">
    <rdf:RDF>
      <cc:Work
         rdf:about="">
        <dc:format>image/svg+xml</dc:format>
        <dc:type
           rdf:resource="http://purl.org/dc/dcmitype/StillImage" />
        <dc:title />
        <cc:license
           rdf:resource="" />
      </cc:Work>
    </rdf:RDF>
  </metadata>
  <g
     inkscape:label="Layer 1"
     inkscape:groupmode="layer"
     id="layer1"
     transform="translate(0,-652.36218)">
    <path
       id="rect4506"
       transform="translate(0,652.36218)"
       style="fill:#00ff00"
       d="m 221.125,292 c -0.41155,0.0477 -0.66496,0.3255 -0.9375,0.8125 -0.46454,0.8301 -2.10597,1.7845 -3.65625,2.125 -1.65487,0.36347 -3.29043,1.61107 -3.9375,3.03125 -1.39504,3.06177 -2.51242,3.05884 -3.90625,0 -0.60524,-1.32837 -2.21431,-3.15866 -3.59375,-4.0625 -2.36877,-1.55208 -2.74967,-1.53288 -6.875,0.40625 -2.40236,1.12925 -4.66321,2.56076 -5.03125,3.15625 -0.45612,0.73801 -1.25767,0.56475 -2.46875,-0.53125 -2.04054,-1.84667 -7.47578,-2.27422 -9.03125,-0.71875 -0.57883,0.57882 -1.41247,3.05542 -1.875,5.53125 -0.95185,5.09498 0.26745,9.73023 4.34375,16.1875 3.27808,5.19283 7.5079,6.09655 26.59375,5.78125 12.98317,-0.21476 14.78088,-0.44549 16.40625,-2.15625 2.38771,-2.51315 5.03125,-10.64282 5.03125,-15.46875 0,-5.25985 -2.28574,-9.18359 -7.09375,-12.21875 -2.18768,-1.38102 -3.28283,-1.9546 -3.96875,-1.875 z" />
  </g>
</svg>
