<?xml version="1.0" encoding="UTF-8" standalone="no"?>
<!-- Created with Inkscape (http://www.inkscape.org/) -->

<svg
   xmlns:dc="http://purl.org/dc/elements/1.1/"
   xmlns:cc="http://creativecommons.org/ns#"
   xmlns:rdf="http://www.w3.org/1999/02/22-rdf-syntax-ns#"
   xmlns:svg="http://www.w3.org/2000/svg"
   xmlns="http://www.w3.org/2000/svg"
   xmlns:sodipodi="http://sodipodi.sourceforge.net/DTD/sodipodi-0.dtd"
   xmlns:inkscape="http://www.inkscape.org/namespaces/inkscape"
   width="800"
   height="400"
   id="svg2"
   version="1.1"
   inkscape:version="0.48.2 r9819"
   sodipodi:docname="ft.svg">
  <defs
     id="defs4" />
  <sodipodi:namedview
     id="base"
     pagecolor="#ffffff"
     bordercolor="#666666"
     borderopacity="1.0"
     inkscape:pageopacity="0.0"
     inkscape:pageshadow="2"
     inkscape:zoom="2"
     inkscape:cx="387.93063"
     inkscape:cy="69.39031"
     inkscape:document-units="px"
     inkscape:current-layer="layer1"
     showgrid="false"
     showguides="true"
     inkscape:guide-bbox="true"
     inkscape:window-width="1366"
     inkscape:window-height="746"
     inkscape:window-x="-8"
     inkscape:window-y="-8"
     inkscape:window-maximized="1"
     width="0px"
     height="0px"
     fit-margin-top="0"
     fit-margin-left="0"
     fit-margin-right="0"
     fit-margin-bottom="0">
    <sodipodi:guide
       orientation="1,0"
       position="400.22244,349.31075"
       id="guide3178" />
  </sodipodi:namedview>
  <metadata
     id="metadata7">
    <rdf:RDF>
      <cc:Work
         rdf:about="">
        <dc:format>image/svg+xml</dc:format>
        <dc:type
           rdf:resource="http://purl.org/dc/dcmitype/StillImage" />
        <dc:title></dc:title>
        <cc:license
           rdf:resource="" />
      </cc:Work>
    </rdf:RDF>
  </metadata>
  <g
     inkscape:label="Layer 1"
     inkscape:groupmode="layer"
     id="layer1"
     transform="translate(0,-652.36218)">
    <path
       style="fill:#ff0000"
       d="m 221.125,944.36218 c 0.68592,-0.0796 1.78107,0.49398 3.96875,1.875 4.80801,3.03516 7.09375,6.9589 7.09375,12.21875 0,4.82593 -2.64354,12.9556 -5.03125,15.46875 -1.62537,1.71076 -3.42308,1.94149 -16.40625,2.15625 -19.08585,0.3153 -23.31567,-0.58842 -26.59375,-5.78125 -4.0763,-6.45727 -5.2956,-11.09252 -4.34375,-16.1875 0.46253,-2.47583 1.29617,-4.95243 1.875,-5.53125 1.55547,-1.55547 6.99071,-1.12792 9.03125,0.71875 1.21108,1.096 2.01263,1.26926 2.46875,0.53125 0.36804,-0.59549 2.62889,-2.027 5.03125,-3.15625 4.12533,-1.93913 4.50623,-1.95833 6.875,-0.40625 1.37944,0.90384 2.98851,2.73413 3.59375,4.0625 1.39383,3.05884 2.51121,3.06177 3.90625,0 0.64707,-1.42018 2.28263,-2.66778 3.9375,-3.03125 1.55028,-0.3405 3.19171,-1.2949 3.65625,-2.125 0.27254,-0.487 0.52595,-0.76476 0.9375,-0.8125 z"
       id="path3139" />
  </g>
</svg>
