<?xml version="1.0" encoding="UTF-8" standalone="no"?>
<!-- Created with Inkscape (http://www.inkscape.org/) -->

<svg
   xmlns:dc="http://purl.org/dc/elements/1.1/"
   xmlns:cc="http://creativecommons.org/ns#"
   xmlns:rdf="http://www.w3.org/1999/02/22-rdf-syntax-ns#"
   xmlns:svg="http://www.w3.org/2000/svg"
   xmlns="http://www.w3.org/2000/svg"
   xmlns:sodipodi="http://sodipodi.sourceforge.net/DTD/sodipodi-0.dtd"
   xmlns:inkscape="http://www.inkscape.org/namespaces/inkscape"
   width="800"
   height="400"
   id="svg2"
   version="1.1"
   inkscape:version="0.48.2 r9819"
   sodipodi:docname="ft.svg">
  <defs
     id="defs4" />
  <sodipodi:namedview
     id="base"
     pagecolor="#ffffff"
     bordercolor="#666666"
     borderopacity="1.0"
     inkscape:pageopacity="0.0"
     inkscape:pageshadow="2"
     inkscape:zoom="2.8284271"
     inkscape:cx="245.1674"
     inkscape:cy="100.86535"
     inkscape:document-units="px"
     inkscape:current-layer="layer1"
     showgrid="false"
     showguides="true"
     inkscape:guide-bbox="true"
     inkscape:window-width="1366"
     inkscape:window-height="746"
     inkscape:window-x="-8"
     inkscape:window-y="-8"
     inkscape:window-maximized="1"
     width="0px"
     height="0px"
     fit-margin-top="0"
     fit-margin-left="0"
     fit-margin-right="0"
     fit-margin-bottom="0">
    <sodipodi:guide
       orientation="1,0"
       position="400.22244,349.31075"
       id="guide3178" />
  </sodipodi:namedview>
  <metadata
     id="metadata7">
    <rdf:RDF>
      <cc:Work
         rdf:about="">
        <dc:format>image/svg+xml</dc:format>
        <dc:type
           rdf:resource="http://purl.org/dc/dcmitype/StillImage" />
        <dc:title></dc:title>
        <cc:license
           rdf:resource="" />
      </cc:Work>
    </rdf:RDF>
  </metadata>
  <g
     inkscape:label="Layer 1"
     inkscape:groupmode="layer"
     id="layer1"
     transform="translate(0,-652.36218)">
    <path
       id="rect3120"
       transform="translate(0,652.36218)"
       style="fill:#ff0000"
       d="m 286.84375,289.03125 c -1.59333,-0.0223 -3.46411,0.2568 -5.65625,0.78125 -4.09185,0.97892 -9.46079,1.32594 -16.4375,1.0625 -13.75601,-0.5194 -13.97616,-0.51479 -16.40625,0.0937 -2.67967,0.67104 -5.3125,6.13103 -5.3125,11.0625 0,3.28956 4.01896,14.98318 6.96875,20.3125 0.65011,1.17453 0.44663,3.02174 -0.59375,5.90625 -4.43482,12.29581 -5.5282,17.01668 -6.34375,27.40625 -0.92811,11.8236 -0.0291,18.6257 2.875,22.125 0.80442,0.9692 2.44167,1.5473 3.90625,1.375 1.94882,-0.2294 2.70217,-1.0792 3.40625,-3.75 3.09307,-11.7334 6.6938,-23.0432 8.375,-26.3125 3.60362,-7.00768 11.65067,-12.78086 15.40625,-11.03125 2.45563,1.144 7.94489,8.29541 8.96875,11.6875 0.40962,1.3571 2.89154,5.84325 5.53125,9.96875 2.6397,4.1254 4.8125,8.06395 4.8125,8.78125 0,1.9908 3.02255,4.9375 5.09375,4.9375 2.56587,0 3.80415,-3.8666 3.71875,-11.6875 -0.12118,-11.0964 -2.52406,-22.38502 -6.03125,-28.5 -6.64631,-11.58821 -6.93965,-12.38568 -5.6875,-15.03125 1.80661,-3.81701 2.30058,-21.72031 0.6875,-24.75 -1.58267,-2.97258 -3.77593,-4.38837 -7.28125,-4.4375 z m -1.125,2.15625 c 4.81141,-0.0562 7.00184,3.81417 7.09375,11.875 0.13034,11.43049 -3.18128,15.63135 -14.59375,18.5 -8.68918,2.18414 -9.81177,2.27943 -17.40625,1.15625 l -7.40625,-1.125 -2.15625,-4.4375 c -4.82348,-9.84928 -6.17889,-14.46468 -5.21875,-17.8125 2.00905,-7.00513 6.7753,-8.89145 14,-5.5 8.43505,3.95962 9.53954,4.0058 15.875,0.625 4.0269,-2.14887 7.29224,-3.25178 9.8125,-3.28125 z m -17.03125,1.375 c 6.05206,-0.009 6.29646,0.0756 3.96875,1.40625 -2.98054,1.70387 -3.614,1.70519 -7.40625,-0.0312 -2.87178,-1.31502 -2.7847,-1.366 3.4375,-1.375 z m 19.65625,29.03125 c 0.47123,-0.0217 0.78261,0.0666 0.84375,0.25 0.16303,0.48908 1.84363,3.30235 3.75,6.25 3.03369,4.69071 4.53283,8.71181 9.53125,25.78125 1.03004,3.5175 0.6194,16.09935 -0.5625,17.28125 -0.72637,0.7264 -4.5182,-3.70885 -4.5625,-5.34375 -0.0181,-0.6667 -2.70081,-6.45355 -5.96875,-12.84375 -6.12266,-11.97231 -11.49855,-18.03125 -16.03125,-18.03125 -2.85502,0 -11.88434,6.25453 -15.28125,10.59375 -3.05844,3.90689 -5.04638,9.63495 -7.6875,22.15625 -1.82519,8.6531 -3.58602,11.0805 -5.46875,7.5625 -3.28082,-6.1302 -1.88234,-24.9792 2.75,-37.21875 1.36694,-3.61172 2.96974,-8.19982 3.5625,-10.21875 0.8624,-2.93731 1.47347,-3.60193 3.09375,-3.28125 9.6234,1.9046 20.37445,1.135 28.65625,-2.0625 1.34791,-0.52042 2.58962,-0.83887 3.375,-0.875 z" />
  </g>
</svg>
