<?xml version="1.0" encoding="UTF-8" standalone="no"?>
<!-- Created with Inkscape (http://www.inkscape.org/) -->

<svg
   xmlns:dc="http://purl.org/dc/elements/1.1/"
   xmlns:cc="http://creativecommons.org/ns#"
   xmlns:rdf="http://www.w3.org/1999/02/22-rdf-syntax-ns#"
   xmlns:svg="http://www.w3.org/2000/svg"
   xmlns="http://www.w3.org/2000/svg"
   xmlns:sodipodi="http://sodipodi.sourceforge.net/DTD/sodipodi-0.dtd"
   xmlns:inkscape="http://www.inkscape.org/namespaces/inkscape"
   width="800"
   height="400"
   id="svg2"
   version="1.1"
   inkscape:version="0.48.2 r9819"
   sodipodi:docname="fs.svg">
  <defs
     id="defs4" />
  <sodipodi:namedview
     id="base"
     pagecolor="#ffffff"
     bordercolor="#666666"
     borderopacity="1.0"
     inkscape:pageopacity="0.0"
     inkscape:pageshadow="2"
     inkscape:zoom="2.8284271"
     inkscape:cx="245.1674"
     inkscape:cy="100.86535"
     inkscape:document-units="px"
     inkscape:current-layer="layer1"
     showgrid="false"
     showguides="true"
     inkscape:guide-bbox="true"
     inkscape:window-width="1366"
     inkscape:window-height="746"
     inkscape:window-x="-8"
     inkscape:window-y="-8"
     inkscape:window-maximized="1"
     width="0px"
     height="0px"
     fit-margin-top="0"
     fit-margin-left="0"
     fit-margin-right="0"
     fit-margin-bottom="0">
    <sodipodi:guide
       orientation="1,0"
       position="400.22244,349.31075"
       id="guide3178" />
  </sodipodi:namedview>
  <metadata
     id="metadata7">
    <rdf:RDF>
      <cc:Work
         rdf:about="">
        <dc:format>image/svg+xml</dc:format>
        <dc:type
           rdf:resource="http://purl.org/dc/dcmitype/StillImage" />
        <dc:title></dc:title>
        <cc:license
           rdf:resource="" />
      </cc:Work>
    </rdf:RDF>
  </metadata>
  <g
     inkscape:label="Layer 1"
     inkscape:groupmode="layer"
     id="layer1"
     transform="translate(0,-652.36218)">
    <path
       id="rect3124"
       transform="translate(0,652.36218)"
       style="fill:#ff0000"
       d="m 262.53125,230.75 c -1.42334,0.0224 -2.88302,0.10407 -4.375,0.21875 -7.12473,0.54765 -8.96049,1.04524 -10.65625,2.875 -2.08223,2.24676 -3.96298,9.38235 -5.03125,19.15625 -0.77266,7.06922 1.91708,14.39227 6.40625,17.46875 3.60135,2.46803 13.00935,3.98058 16.1875,2.59375 1.49165,-0.6509 2.90808,-0.5238 4.625,0.40625 3.64339,1.97362 12.40929,0.69748 16.4375,-2.375 5.52765,-4.21614 7.55288,-8.74991 7,-15.65625 -0.60502,-7.55761 -3.75459,-14.75999 -8.28125,-18.90625 -4.21988,-3.86527 -12.34914,-5.93839 -22.3125,-5.78125 z m 0.125,2.6875 c 2.00666,-0.0416 4.22887,0.16645 7.375,0.625 9.03951,1.31753 13.7438,3.8757 15.40625,8.34375 0.65464,1.75941 2.10439,5.29982 3.21875,7.84375 3.6174,8.25808 0.15536,16.85272 -8.28125,20.5 -2.54337,1.09954 -4.9953,1.98525 -5.4375,1.96875 -1.44417,-0.0539 -4.70466,-2.25988 -6.40625,-4.34375 -1.57749,-1.93188 -1.67964,-1.92567 -2.34375,-0.21875 -1.96985,5.06296 -11.25589,3.65036 -17.5625,-2.65625 l -3.84375,-3.84375 0.6875,-8.875 c 0.50956,-6.51386 1.29625,-9.99112 2.96875,-12.96875 2.03895,-3.63005 2.90419,-4.20979 8.0625,-5.46875 2.34501,-0.57233 4.14959,-0.86467 6.15625,-0.90625 z M 253,242.21875 l -2,2.5625 c -1.10387,1.40334 -1.71669,3.00964 -1.375,3.5625 0.36152,0.58496 1.27667,0.0927 2.21875,-1.15625 l 1.625,-2.15625 2.28125,3.125 c 1.71426,2.31866 2.13848,3.83883 1.6875,6.09375 -0.88374,4.41871 -2.33664,5.85188 -4.6875,4.59375 -1.86467,-0.99794 -1.88754,-0.92493 -0.375,2 0.86112,1.66521 1.95118,3.03127 2.40625,3.03125 0.45506,0 2.06767,-1.79784 3.59375,-4 1.52608,-2.20214 4.01666,-4.89026 5.53125,-5.96875 2.55657,-1.82043 2.95255,-1.85179 5.6875,-0.4375 4.01024,2.07377 7.55475,1.91883 9.75,-0.4375 1.82235,-1.95606 1.8362,-1.95615 3.90625,0.84375 1.92544,2.6043 1.96008,2.94617 0.46875,4.4375 -1.18467,1.18467 -1.30806,1.87945 -0.5,2.6875 1.51049,1.5105 5.01103,-3.67965 3.6875,-5.46875 -3.75967,-5.08221 -4.8421,-7.10114 -4.9375,-9.28125 -0.15609,-3.56553 -2.40625,-3.94555 -2.40625,-0.40625 0,3.12673 -3.4544,7.55021 -5.28125,6.78125 -5.48133,-2.30718 -8.69166,-2.80175 -11,-1.75 -1.89999,0.86574 -2.46777,0.84106 -2.46875,-0.0937 -9e-4,-0.6669 -1.76143,-2.85693 -3.90625,-4.875 L 253,242.21875 z" />
  </g>
</svg>
