<?xml version="1.0" encoding="UTF-8" standalone="no"?>
<!-- Created with Inkscape (http://www.inkscape.org/) -->

<svg
   xmlns:dc="http://purl.org/dc/elements/1.1/"
   xmlns:cc="http://creativecommons.org/ns#"
   xmlns:rdf="http://www.w3.org/1999/02/22-rdf-syntax-ns#"
   xmlns:svg="http://www.w3.org/2000/svg"
   xmlns="http://www.w3.org/2000/svg"
   xmlns:sodipodi="http://sodipodi.sourceforge.net/DTD/sodipodi-0.dtd"
   xmlns:inkscape="http://www.inkscape.org/namespaces/inkscape"
   width="800"
   height="400"
   id="svg2"
   version="1.1"
   inkscape:version="0.48.2 r9819"
   sodipodi:docname="ms-fill.svg">
  <defs
     id="defs4" />
  <sodipodi:namedview
     id="base"
     pagecolor="#ffffff"
     bordercolor="#666666"
     borderopacity="1.0"
     inkscape:pageopacity="0.0"
     inkscape:pageshadow="2"
     inkscape:zoom="2.8284271"
     inkscape:cx="245.1674"
     inkscape:cy="155.09075"
     inkscape:document-units="px"
     inkscape:current-layer="layer1"
     showgrid="false"
     showguides="true"
     inkscape:guide-bbox="true"
     inkscape:window-width="1024"
     inkscape:window-height="538"
     inkscape:window-x="-8"
     inkscape:window-y="-8"
     inkscape:window-maximized="1"
     width="0px"
     height="0px"
     fit-margin-top="0"
     fit-margin-left="0"
     fit-margin-right="0"
     fit-margin-bottom="0">
    <sodipodi:guide
       orientation="1,0"
       position="400.22244,349.31075"
       id="guide3178" />
  </sodipodi:namedview>
  <metadata
     id="metadata7">
    <rdf:RDF>
      <cc:Work
         rdf:about="">
        <dc:format>image/svg+xml</dc:format>
        <dc:type
           rdf:resource="http://purl.org/dc/dcmitype/StillImage" />
        <dc:title />
        <cc:license
           rdf:resource="" />
      </cc:Work>
    </rdf:RDF>
  </metadata>
  <g
     inkscape:label="Layer 1"
     inkscape:groupmode="layer"
     id="layer1"
     transform="translate(0,-652.36218)">
    <path
       id="rect4488"
       transform="translate(0,652.36218)"
       style="fill:#00ff00"
       d="m 262.65625,233.4375 c -2.00666,0.0416 -3.81124,0.33392 -6.15625,0.90625 -5.15831,1.25896 -6.02355,1.8387 -8.0625,5.46875 -1.6725,2.97763 -2.45919,6.45489 -2.96875,12.96875 l -0.6875,8.875 3.84375,3.84375 c 6.30661,6.30661 15.59265,7.71921 17.5625,2.65625 0.66411,-1.70692 0.76626,-1.71313 2.34375,0.21875 1.70159,2.08387 4.96208,4.28985 6.40625,4.34375 0.4422,0.0165 2.89413,-0.86921 5.4375,-1.96875 8.43661,-3.64728 11.89865,-12.24192 8.28125,-20.5 -1.11436,-2.54393 -2.56411,-6.08434 -3.21875,-7.84375 -1.66245,-4.46805 -6.36674,-7.02622 -15.40625,-8.34375 -3.14613,-0.45855 -5.36834,-0.6666 -7.375,-0.625 z M 253,242.21875 l 3.90625,3.6875 c 2.14482,2.01807 3.90535,4.2081 3.90625,4.875 9.8e-4,0.93476 0.56876,0.95949 2.46875,0.0937 2.30834,-1.05175 5.51867,-0.55718 11,1.75 1.82685,0.76896 5.28125,-3.65452 5.28125,-6.78125 0,-3.5393 2.25016,-3.15928 2.40625,0.40625 0.0954,2.18011 1.17783,4.19904 4.9375,9.28125 1.32353,1.7891 -2.17701,6.97925 -3.6875,5.46875 -0.80806,-0.80805 -0.68467,-1.50283 0.5,-2.6875 1.49133,-1.49133 1.45669,-1.8332 -0.46875,-4.4375 -2.07005,-2.7999 -2.0839,-2.79981 -3.90625,-0.84375 -2.19525,2.35633 -5.73976,2.51127 -9.75,0.4375 -2.73495,-1.41429 -3.13093,-1.38293 -5.6875,0.4375 -1.51459,1.07849 -4.00517,3.76661 -5.53125,5.96875 -1.52608,2.20216 -3.13869,4 -3.59375,4 -0.45507,2e-5 -1.54513,-1.36604 -2.40625,-3.03125 -1.51254,-2.92493 -1.48967,-2.99794 0.375,-2 2.35086,1.25813 3.80376,-0.17504 4.6875,-4.59375 0.45098,-2.25492 0.0268,-3.77509 -1.6875,-6.09375 l -2.28125,-3.125 -1.625,2.15625 c -0.94208,1.24895 -1.85723,1.74121 -2.21875,1.15625 -0.34169,-0.55286 0.27113,-2.15916 1.375,-3.5625 l 2,-2.5625 z" />
  </g>
</svg>
