<?xml version="1.0" encoding="UTF-8" standalone="no"?>
<!-- Created with Inkscape (http://www.inkscape.org/) -->

<svg
   xmlns:dc="http://purl.org/dc/elements/1.1/"
   xmlns:cc="http://creativecommons.org/ns#"
   xmlns:rdf="http://www.w3.org/1999/02/22-rdf-syntax-ns#"
   xmlns:svg="http://www.w3.org/2000/svg"
   xmlns="http://www.w3.org/2000/svg"
   xmlns:sodipodi="http://sodipodi.sourceforge.net/DTD/sodipodi-0.dtd"
   xmlns:inkscape="http://www.inkscape.org/namespaces/inkscape"
   width="800"
   height="700"
   id="svg2"
   version="1.1"
   inkscape:version="0.48.2 r9819"
   sodipodi:docname="f29-fill.svg">
  <defs
     id="defs4" />
  <sodipodi:namedview
     id="base"
     pagecolor="#ffffff"
     bordercolor="#666666"
     borderopacity="1.0"
     inkscape:pageopacity="0.0"
     inkscape:pageshadow="2"
     inkscape:zoom="3.535534"
     inkscape:cx="642.83399"
     inkscape:cy="213.66201"
     inkscape:document-units="px"
     inkscape:current-layer="layer1"
     showgrid="false"
     showguides="true"
     inkscape:guide-bbox="true"
     inkscape:window-width="1024"
     inkscape:window-height="538"
     inkscape:window-x="-8"
     inkscape:window-y="-8"
     inkscape:window-maximized="1"
     width="0px"
     height="0px"
     fit-margin-top="0"
     fit-margin-left="0"
     fit-margin-right="0"
     fit-margin-bottom="0">
    <sodipodi:guide
       orientation="1,0"
       position="400.22244,349.31075"
       id="guide3178" />
    <sodipodi:guide
       orientation="0,1"
       position="400.22244,349.31075"
       id="guide3180" />
  </sodipodi:namedview>
  <metadata
     id="metadata7">
    <rdf:RDF>
      <cc:Work
         rdf:about="">
        <dc:format>image/svg+xml</dc:format>
        <dc:type
           rdf:resource="http://purl.org/dc/dcmitype/StillImage" />
        <dc:title />
      </cc:Work>
    </rdf:RDF>
  </metadata>
  <g
     inkscape:label="Layer 1"
     inkscape:groupmode="layer"
     id="layer1"
     transform="translate(0,-352.36218)">
    <path
       id="rect4583"
       transform="translate(0,352.36218)"
       style="fill:#00ff00"
       d="m 623.3125,473.96875 c -2.36023,-0.0523 -4.76054,1.02913 -7.15625,3.21875 -5.3596,4.89833 -6.5343,12.4101 -2.875,18.15625 0.5333,0.83744 0.9367,1.6452 0.9375,1.78125 0,0.32408 2.68324,1.6515 3.40625,1.6875 0.3086,0.0152 1.29978,-0.31989 2.1875,-0.78125 0.88771,-0.46136 2.14436,-1.58279 2.8125,-2.4375 1.32766,-1.69805 3.25256,-2.07683 4.25,-0.875 0.87662,1.05623 2.8544,0.79737 3.875,-0.5 0.49589,-0.63046 0.875,-1.49109 0.875,-1.9375 0,-0.44632 0.19824,-0.84375 0.4375,-0.84375 0.23928,0 0.4375,0.42163 0.4375,0.90625 0,0.85378 1.4647,1.71875 2.875,1.71875 0.90398,0 0.80839,-2.63019 -0.25,-6.53125 -1.72894,-6.37232 -2.33492,-7.58558 -4.8125,-10.03125 -2.32414,-2.29412 -4.63977,-3.47895 -7,-3.53125 z m -13.5,13.78125 c -0.1049,-0.0819 -0.21472,0.33516 -0.40625,1.3125 -0.41601,2.12354 -0.48479,5.99988 -0.125,6.9375 0.34334,0.89492 0.71498,0.83174 1.3125,-0.125 0.46186,-0.73958 0.18529,-4.48512 -0.5625,-7.46875 -0.0919,-0.36659 -0.15565,-0.60715 -0.21875,-0.65625 z m 23.90625,7.34375 c -0.49865,0.0102 -1.10945,0.21004 -1.78125,0.625 -1.73852,1.07451 -4.52107,1.33419 -5.875,0.5 -0.90565,-0.5582 -1.08482,-0.53368 -1.65625,0.25 -2.43116,3.3349 -4.5108,4.192 -7.71875,3.25 -0.99378,-0.29175 -2.40681,-1.0967 -3.15625,-1.8125 -1.21699,-1.16242 -1.45846,-1.2638 -2.28125,-0.75 -1.85288,1.15705 -0.9608,2.3724 3.40625,4.5625 1.79449,0.89972 3.52798,1.90963 3.84375,2.21875 0.84971,0.83196 4.16955,1.46117 6.28125,1.1875 0.64797,-0.0839 2.64457,-0.86801 4.4375,-1.71875 4.09589,-1.94377 6.57392,-4.64362 6.125,-6.6875 -0.23622,-1.07537 -0.79388,-1.642 -1.625,-1.625 z" />
  </g>
</svg>
