<?xml version="1.0" encoding="UTF-8" standalone="no"?>
<!-- Created with Inkscape (http://www.inkscape.org/) -->

<svg
   xmlns:dc="http://purl.org/dc/elements/1.1/"
   xmlns:cc="http://creativecommons.org/ns#"
   xmlns:rdf="http://www.w3.org/1999/02/22-rdf-syntax-ns#"
   xmlns:svg="http://www.w3.org/2000/svg"
   xmlns="http://www.w3.org/2000/svg"
   xmlns:sodipodi="http://sodipodi.sourceforge.net/DTD/sodipodi-0.dtd"
   xmlns:inkscape="http://www.inkscape.org/namespaces/inkscape"
   width="800"
   height="700"
   id="svg2"
   version="1.1"
   inkscape:version="0.48.2 r9819"
   sodipodi:docname="f29.svg">
  <defs
     id="defs4" />
  <sodipodi:namedview
     id="base"
     pagecolor="#ffffff"
     bordercolor="#666666"
     borderopacity="1.0"
     inkscape:pageopacity="0.0"
     inkscape:pageshadow="2"
     inkscape:zoom="3.535534"
     inkscape:cx="642.83399"
     inkscape:cy="213.66201"
     inkscape:document-units="px"
     inkscape:current-layer="layer1"
     showgrid="false"
     showguides="true"
     inkscape:guide-bbox="true"
     inkscape:window-width="1366"
     inkscape:window-height="746"
     inkscape:window-x="-8"
     inkscape:window-y="-8"
     inkscape:window-maximized="1"
     width="0px"
     height="0px"
     fit-margin-top="0"
     fit-margin-left="0"
     fit-margin-right="0"
     fit-margin-bottom="0">
    <sodipodi:guide
       orientation="1,0"
       position="400.22244,349.31075"
       id="guide3178" />
    <sodipodi:guide
       orientation="0,1"
       position="400.22244,349.31075"
       id="guide3180" />
  </sodipodi:namedview>
  <metadata
     id="metadata7">
    <rdf:RDF>
      <cc:Work
         rdf:about="">
        <dc:format>image/svg+xml</dc:format>
        <dc:type
           rdf:resource="http://purl.org/dc/dcmitype/StillImage" />
        <dc:title></dc:title>
      </cc:Work>
    </rdf:RDF>
  </metadata>
  <g
     inkscape:label="Layer 1"
     inkscape:groupmode="layer"
     id="layer1"
     transform="translate(0,-352.36218)">
    <path
       style="fill:#ff0000"
       d="m 623.30514,826.34049 c 2.36023,0.0523 4.67586,1.23713 7,3.53125 2.47758,2.44567 3.08356,3.65893 4.8125,10.03125 1.05839,3.90106 1.15398,6.53125 0.25,6.53125 -1.4103,0 -2.875,-0.86497 -2.875,-1.71875 0,-0.48462 -0.19822,-0.90625 -0.4375,-0.90625 -0.23926,0 -0.4375,0.39743 -0.4375,0.84375 0,0.44641 -0.37911,1.30704 -0.875,1.9375 -1.0206,1.29737 -2.99838,1.55623 -3.875,0.5 -0.99744,-1.20183 -2.92234,-0.82305 -4.25,0.875 -0.66814,0.85471 -1.92479,1.97614 -2.8125,2.4375 -0.88772,0.46136 -1.8789,0.79649 -2.1875,0.78125 -0.72301,-0.036 -3.40625,-1.36342 -3.40625,-1.6875 -8e-4,-0.13605 -0.4042,-0.94381 -0.9375,-1.78125 -3.6593,-5.74615 -2.4846,-13.25792 2.875,-18.15625 2.39571,-2.18962 4.79602,-3.27105 7.15625,-3.21875 z"
       id="path3005"
       inkscape:connector-curvature="0" />
    <path
       style="fill:#ff0000"
       d="m 609.80514,840.12174 c 0.0631,0.0491 0.12687,0.28966 0.21875,0.65625 0.74779,2.98363 1.02436,6.72917 0.5625,7.46875 -0.59752,0.95674 -0.96916,1.01992 -1.3125,0.125 -0.35979,-0.93762 -0.29101,-4.81396 0.125,-6.9375 0.19153,-0.97734 0.30135,-1.39436 0.40625,-1.3125 z"
       id="path3003"
       inkscape:connector-curvature="0" />
    <path
       style="fill:#ff0000"
       d="m 633.71139,847.46549 c 0.83112,-0.017 1.38878,0.54963 1.625,1.625 0.44892,2.04388 -2.02911,4.74373 -6.125,6.6875 -1.79293,0.85074 -3.78953,1.63482 -4.4375,1.71875 -2.1117,0.27367 -5.43154,-0.35554 -6.28125,-1.1875 -0.31577,-0.30912 -2.04926,-1.31903 -3.84375,-2.21875 -4.36705,-2.1901 -5.25913,-3.40545 -3.40625,-4.5625 0.82279,-0.5138 1.06426,-0.41242 2.28125,0.75 0.74944,0.7158 2.16247,1.52075 3.15625,1.8125 3.20795,0.942 5.28759,0.0849 7.71875,-3.25 0.57143,-0.78368 0.7506,-0.8082 1.65625,-0.25 1.35393,0.83419 4.13648,0.57451 5.875,-0.5 0.6718,-0.41496 1.2826,-0.61475 1.78125,-0.625 z"
       id="rect3354"
       inkscape:connector-curvature="0" />
  </g>
</svg>
