<?xml version="1.0" encoding="UTF-8" standalone="no"?>
<!-- Created with Inkscape (http://www.inkscape.org/) -->

<svg
   xmlns:dc="http://purl.org/dc/elements/1.1/"
   xmlns:cc="http://creativecommons.org/ns#"
   xmlns:rdf="http://www.w3.org/1999/02/22-rdf-syntax-ns#"
   xmlns:svg="http://www.w3.org/2000/svg"
   xmlns="http://www.w3.org/2000/svg"
   xmlns:sodipodi="http://sodipodi.sourceforge.net/DTD/sodipodi-0.dtd"
   xmlns:inkscape="http://www.inkscape.org/namespaces/inkscape"
   width="800"
   height="700"
   id="svg2"
   version="1.1"
   inkscape:version="0.48.2 r9819"
   sodipodi:docname="m9-fill.svg">
  <defs
     id="defs4" />
  <sodipodi:namedview
     id="base"
     pagecolor="#ffffff"
     bordercolor="#666666"
     borderopacity="1.0"
     inkscape:pageopacity="0.0"
     inkscape:pageshadow="2"
     inkscape:zoom="3.535534"
     inkscape:cx="452.22712"
     inkscape:cy="536.20717"
     inkscape:document-units="px"
     inkscape:current-layer="layer1"
     showgrid="false"
     showguides="true"
     inkscape:guide-bbox="true"
     inkscape:window-width="1024"
     inkscape:window-height="538"
     inkscape:window-x="-8"
     inkscape:window-y="-8"
     inkscape:window-maximized="1"
     width="0px"
     height="0px"
     fit-margin-top="0"
     fit-margin-left="0"
     fit-margin-right="0"
     fit-margin-bottom="0">
    <sodipodi:guide
       orientation="1,0"
       position="400.22244,349.31075"
       id="guide3178" />
    <sodipodi:guide
       orientation="0,1"
       position="400.22244,349.31075"
       id="guide3180" />
  </sodipodi:namedview>
  <metadata
     id="metadata7">
    <rdf:RDF>
      <cc:Work
         rdf:about="">
        <dc:format>image/svg+xml</dc:format>
        <dc:type
           rdf:resource="http://purl.org/dc/dcmitype/StillImage" />
        <dc:title />
      </cc:Work>
    </rdf:RDF>
  </metadata>
  <g
     inkscape:label="Layer 1"
     inkscape:groupmode="layer"
     id="layer1"
     transform="translate(0,-352.36218)">
    <path
       id="rect3650"
       transform="translate(0,352.36218)"
       style="fill:#00ff00"
       d="m 424.125,145.8125 c -2.43019,0.0363 -4.82184,0.29805 -6.9375,0.875 -3.1951,0.87119 -6.04588,3.35728 -6.65625,5.78125 -0.53393,2.12039 -0.61017,4.96108 -0.1875,6.0625 0.2466,0.64276 0.32262,0.65088 1.15625,-0.0937 0.50779,-0.45362 2.1269,-1.17746 3.5625,-1.59375 1.43558,-0.4163 3.18848,-0.92266 3.90625,-1.15625 1.85169,-0.6026 12.50908,-1.23332 15.875,-0.9375 2.70649,0.23788 7.35746,2.06606 8.03125,3.15625 0.36337,0.588 0.11238,0.56302 -1.59375,-0.15625 -3.81679,-1.60892 -11.60838,-2.09504 -18.28125,-1.125 -4.87618,0.70886 -12.038,3.16372 -12.0625,4.125 -0.0267,1.04333 3.02607,4.91915 5.59375,7.09375 1.53195,1.29742 4.07957,3.79756 5.625,5.5625 3.1579,3.60647 6.85584,5.793 9.84375,5.8125 1.43526,0.009 1.93053,-0.25303 3.3125,-1.75 0.89935,-0.97417 2.36828,-3.18865 3.25,-4.90625 0.88172,-1.71755 1.84492,-3.39108 2.15625,-3.75 1.72177,-1.98511 3.3292,-5.93591 3.5625,-8.71875 0.37823,-4.51124 -0.0885,-6.73789 -1.90625,-8.75 -3.13797,-3.47332 -10.95936,-5.64007 -18.25,-5.53125 z m 10.40625,13.46875 c 1.43743,0.002 2.68893,0.24001 3.75,0.78125 1.90892,0.97386 2.21875,1.54298 2.21875,4.125 0,1.30213 -0.23291,2.1034 -0.84375,2.65625 -0.47852,0.43308 -0.90625,0.93517 -0.90625,1.125 0,0.18988 -0.44713,0.86971 -1.03125,1.5 -0.58413,0.63028 -1.14485,1.57517 -1.21875,2.09375 -0.10827,0.7608 -0.43449,0.90625 -1.65625,0.90625 -1.32078,0 -1.62279,-0.2008 -2.4375,-1.71875 -0.51369,-0.95704 -1.05936,-2.28732 -1.21875,-2.96875 -0.40756,-1.74224 0.4509,-1.33081 2.28125,1.0625 0.80906,1.05792 1.60201,1.90625 1.75,1.90625 0.14803,0 0.58859,-0.61414 0.96875,-1.375 0.38024,-0.76082 1.01268,-1.81982 1.375,-2.375 0.36228,-0.55512 0.77037,-1.94103 0.9375,-3.0625 0.26335,-1.76695 0.21747,-2.09931 -0.53125,-2.5 -1.22881,-0.65763 -4.71773,-0.5712 -7.21875,0.1875 -1.43393,0.435 -4.03133,0.625 -7.9375,0.625 -4.92459,0 -5.86829,0.13128 -6.09375,0.71875 -0.34407,0.89663 7.53067,8.59799 8.4375,8.25 0.3367,-0.12922 0.81153,-0.25 1.03125,-0.25 0.21966,0 0.40625,-0.87793 0.40625,-1.96875 0,-1.21143 0.14054,-1.88297 0.40625,-1.71875 0.23927,0.14789 0.4375,1.58927 0.4375,3.25 0,2.8459 -0.0461,3.04585 -0.96875,3.03125 -0.53835,-0.008 -1.39036,-0.24063 -1.90625,-0.53125 -1.85522,-1.04508 -10.15625,-9.47807 -10.15625,-10.3125 0,-0.45996 0.34014,-1.15263 0.75,-1.5625 0.65352,-0.65355 1.4233,-0.74728 6.28125,-0.53125 4.69477,0.20883 5.95674,0.1444 8.28125,-0.5625 1.76829,-0.53775 3.37509,-0.78325 4.8125,-0.78125 z" />
  </g>
</svg>
