<?xml version="1.0" encoding="UTF-8" standalone="no"?>
<!-- Created with Inkscape (http://www.inkscape.org/) -->

<svg
   xmlns:dc="http://purl.org/dc/elements/1.1/"
   xmlns:cc="http://creativecommons.org/ns#"
   xmlns:rdf="http://www.w3.org/1999/02/22-rdf-syntax-ns#"
   xmlns:svg="http://www.w3.org/2000/svg"
   xmlns="http://www.w3.org/2000/svg"
   xmlns:sodipodi="http://sodipodi.sourceforge.net/DTD/sodipodi-0.dtd"
   xmlns:inkscape="http://www.inkscape.org/namespaces/inkscape"
   width="800"
   height="700"
   id="svg2"
   version="1.1"
   inkscape:version="0.48.2 r9819"
   sodipodi:docname="m2-fill.svg">
  <defs
     id="defs4" />
  <sodipodi:namedview
     id="base"
     pagecolor="#ffffff"
     bordercolor="#666666"
     borderopacity="1.0"
     inkscape:pageopacity="0.0"
     inkscape:pageshadow="2"
     inkscape:zoom="4.0000001"
     inkscape:cx="151.08282"
     inkscape:cy="526.40152"
     inkscape:document-units="px"
     inkscape:current-layer="layer1"
     showgrid="false"
     showguides="true"
     inkscape:guide-bbox="true"
     inkscape:window-width="1024"
     inkscape:window-height="538"
     inkscape:window-x="-8"
     inkscape:window-y="-8"
     inkscape:window-maximized="1"
     width="0px"
     height="0px"
     fit-margin-top="0"
     fit-margin-left="0"
     fit-margin-right="0"
     fit-margin-bottom="0">
    <sodipodi:guide
       orientation="1,0"
       position="400.22244,349.31075"
       id="guide3178" />
    <sodipodi:guide
       orientation="0,1"
       position="400.22244,349.31075"
       id="guide3180" />
  </sodipodi:namedview>
  <metadata
     id="metadata7">
    <rdf:RDF>
      <cc:Work
         rdf:about="">
        <dc:format>image/svg+xml</dc:format>
        <dc:type
           rdf:resource="http://purl.org/dc/dcmitype/StillImage" />
        <dc:title />
      </cc:Work>
    </rdf:RDF>
  </metadata>
  <g
     inkscape:label="Layer 1"
     inkscape:groupmode="layer"
     id="layer1"
     transform="translate(0,-352.36218)">
    <path
       id="rect3263"
       transform="translate(0,352.36218)"
       style="fill:#00ff00"
       d="m 95,144.15625 c -0.56412,0.0143 -1.28076,0.10038 -2.34375,0.28125 -1.6518,0.28093 -4.48677,1.19983 -6.28125,2.03125 -5.28223,2.44732 -6.46743,2.79539 -11.5,3.1875 -8.16005,0.63577 -9.83341,1.58574 -11.5,6.59375 -1.20936,3.63416 -0.93713,6.93787 0.71875,8.59375 l 1.09375,1.03125 0.71875,-0.9375 0.6875,-0.9375 1.65625,1.9375 c 2.59481,3.10424 6.65545,4.37083 8.15625,2.5625 0.27586,-0.3324 0.74893,-0.59375 1.03125,-0.59375 0.28233,0 0.87417,-0.92596 1.28125,-2.0625 0.62484,-1.74441 0.64751,-2.69873 0.3125,-6.1875 -0.2183,-2.27305 -0.4806,-4.421 -0.5625,-4.75 -0.08176,-0.32896 0.13501,-0.67043 0.4375,-0.78125 0.9514,-0.34847 1.87932,2.79805 2.15625,7.34375 0.32278,5.2982 0.73533,5.96034 4.0625,6.5 3.55683,0.57687 4.67997,0.18307 7.25,-2.5625 2.38358,-2.54639 3.21592,-2.74354 2.3125,-0.5625 -0.63153,1.52462 -0.34466,2.20875 0.96875,2.21875 0.52422,0.003 1.23484,0.20555 1.59375,0.4375 0.52622,0.34005 0.48786,0.40125 -0.3125,0.40625 -1.54756,0.009 -1.67715,1.19924 -0.28125,2.65625 1.49656,1.5621 2.42026,1.49106 2.9375,-0.25 0.38572,-1.29852 0.60673,-1.82714 1.46875,-3.46875 1.0444,-1.98893 3.14369,-9.37252 3.40625,-12 L 104.75,152.03125 102.21875,149 c -1.53982,-1.83133 -3.34983,-3.40738 -4.5625,-4.03125 -1.17954,-0.60683 -1.71603,-0.8365 -2.65625,-0.8125 z m -30.5625,23.75 c -1.21146,-0.0263 -2.19426,1.62217 -3.09375,5 -0.88955,3.34059 -0.75599,5.8873 0.46875,8.5625 1.88067,4.10789 4.71089,5.92475 8.46875,5.34375 0.83743,-0.12947 2.12594,-0.01 2.84375,0.28125 4.72919,1.91082 11.4175,2.19206 15.5625,0.6875 1.5223,-0.55254 3.5073,-1.56434 4.40625,-2.25 1.91906,-1.46374 4.05287,-5.44376 4.4375,-8.25 0.22694,-1.65557 0.12887,-2.22155 -0.84375,-3.625 -0.63073,-0.91014 -1.83658,-2.29932 -2.65625,-3.09375 -1.28577,-1.24605 -1.68987,-1.40655 -2.9375,-1.15625 -3.75509,0.75327 -6.86966,0.79324 -8.34375,0.0937 -0.81494,-0.38669 -1.88406,-0.6875 -2.34375,-0.6875 -1.22846,0 -5.71472,2.49982 -6.25,3.5 -0.51116,0.95512 -0.1818,2.7882 0.78125,4.71875 0.7277,1.45862 0.36348,6.49514 -0.53125,7.71875 -0.72458,0.99093 -1.64316,0.33499 -1.0625,-0.75 0.62701,-1.17157 0.54165,-5.95799 -0.15625,-8.25 -0.62568,-2.05473 -2.32012,-5.20576 -3.09375,-5.78125 -0.24993,-0.1859 -1.00175,-0.24441 -1.65625,-0.125 -0.89194,0.16279 -1.44471,-0.0401 -2.21875,-0.875 -0.64273,-0.69316 -1.23059,-1.0505 -1.78125,-1.0625 z" />
  </g>
</svg>
