<?xml version="1.0" encoding="UTF-8" standalone="no"?>
<!-- Created with Inkscape (http://www.inkscape.org/) -->

<svg
   xmlns:dc="http://purl.org/dc/elements/1.1/"
   xmlns:cc="http://creativecommons.org/ns#"
   xmlns:rdf="http://www.w3.org/1999/02/22-rdf-syntax-ns#"
   xmlns:svg="http://www.w3.org/2000/svg"
   xmlns="http://www.w3.org/2000/svg"
   xmlns:sodipodi="http://sodipodi.sourceforge.net/DTD/sodipodi-0.dtd"
   xmlns:inkscape="http://www.inkscape.org/namespaces/inkscape"
   width="800"
   height="700"
   id="svg2"
   version="1.1"
   inkscape:version="0.48.2 r9819"
   sodipodi:docname="f3-fill.svg">
  <defs
     id="defs4" />
  <sodipodi:namedview
     id="base"
     pagecolor="#ffffff"
     bordercolor="#666666"
     borderopacity="1.0"
     inkscape:pageopacity="0.0"
     inkscape:pageshadow="2"
     inkscape:zoom="5.6568542"
     inkscape:cx="125.50905"
     inkscape:cy="585.6048"
     inkscape:document-units="px"
     inkscape:current-layer="layer1"
     showgrid="false"
     showguides="true"
     inkscape:guide-bbox="true"
     inkscape:window-width="1024"
     inkscape:window-height="538"
     inkscape:window-x="-8"
     inkscape:window-y="-8"
     inkscape:window-maximized="1"
     width="0px"
     height="0px"
     fit-margin-top="0"
     fit-margin-left="0"
     fit-margin-right="0"
     fit-margin-bottom="0">
    <sodipodi:guide
       orientation="1,0"
       position="400.22244,349.31075"
       id="guide3178" />
    <sodipodi:guide
       orientation="0,1"
       position="400.22244,349.31075"
       id="guide3180" />
  </sodipodi:namedview>
  <metadata
     id="metadata7">
    <rdf:RDF>
      <cc:Work
         rdf:about="">
        <dc:format>image/svg+xml</dc:format>
        <dc:type
           rdf:resource="http://purl.org/dc/dcmitype/StillImage" />
        <dc:title />
      </cc:Work>
    </rdf:RDF>
  </metadata>
  <g
     inkscape:label="Layer 1"
     inkscape:groupmode="layer"
     id="layer1"
     transform="translate(0,-352.36218)">
    <path
       style="fill:#00ff00"
       d="m 131.96875,453.73718 c -1.41335,-0.0255 -2.98075,0.3696 -4.6875,1.1875 -1.88785,0.90462 -3.71913,1.27885 -8.6875,1.8125 -7.0198,0.75396 -6.71883,0.61961 -8.59375,4.625 -0.60838,1.29968 -1.71815,3.21538 -2.4375,4.28125 -2.31411,3.42888 -3.18922,9.96705 -1.75,13 0.39259,0.82728 1.43214,2.01177 2.28125,2.65625 0.84914,0.64445 2.40888,2.07471 3.5,3.15625 3.43012,3.39998 6.05445,3.56761 9.15625,0.65625 0.83743,-0.78602 2.26294,-1.84224 3.15625,-2.375 2.37375,-1.41572 3.37,-2.90713 3.375,-5 0.003,-0.98461 0.29993,-2.76297 0.65625,-3.9375 0.82241,-2.71099 0.82256,-4.33367 0,-5.15625 -0.57411,-0.57412 -0.28996,-0.70682 2.5,-0.84375 1.73222,-0.0851 3.2369,-0.1038 3.3125,-0.0625 0.0755,0.0413 -0.68529,0.4466 -1.65625,0.875 -0.97097,0.42838 -1.82841,1.06408 -1.9375,1.4375 -0.37708,1.291 -1.125,7.48914 -1.125,9.375 0,2.24315 1.36173,4.17606 3.5625,5 3.4285,1.28358 4.68786,1.89961 4.90625,2.46875 0.27497,0.71654 1.76044,1.3985 3.1875,1.4375 0.55641,0.0153 2.30926,-0.72773 3.90625,-1.625 1.59696,-0.89723 3.50094,-1.92014 4.21875,-2.28125 2.80183,-1.4096 3.9626,-6.07846 2.65625,-10.6875 -0.33441,-1.17992 -1.22478,-4.86903 -2,-8.21875 -1.9162,-8.27976 -1.75681,-8.0545 -6.4375,-8.0625 -3.97812,-0.007 -4.5211,-0.18121 -7.28125,-2.375 -1.09258,-0.86834 -2.36791,-1.31815 -3.78125,-1.34375 z"
       id="rect3283"
       inkscape:connector-curvature="0" />
  </g>
</svg>
