<?xml version="1.0" encoding="UTF-8" standalone="no"?>
<!-- Created with Inkscape (http://www.inkscape.org/) -->

<svg
   xmlns:dc="http://purl.org/dc/elements/1.1/"
   xmlns:cc="http://creativecommons.org/ns#"
   xmlns:rdf="http://www.w3.org/1999/02/22-rdf-syntax-ns#"
   xmlns:svg="http://www.w3.org/2000/svg"
   xmlns="http://www.w3.org/2000/svg"
   xmlns:sodipodi="http://sodipodi.sourceforge.net/DTD/sodipodi-0.dtd"
   xmlns:inkscape="http://www.inkscape.org/namespaces/inkscape"
   width="800"
   height="700"
   id="svg2"
   version="1.1"
   inkscape:version="0.48.2 r9819"
   sodipodi:docname="f3.svg">
  <defs
     id="defs4" />
  <sodipodi:namedview
     id="base"
     pagecolor="#ffffff"
     bordercolor="#666666"
     borderopacity="1.0"
     inkscape:pageopacity="0.0"
     inkscape:pageshadow="2"
     inkscape:zoom="5.6568542"
     inkscape:cx="125.50905"
     inkscape:cy="599.79297"
     inkscape:document-units="px"
     inkscape:current-layer="layer1"
     showgrid="false"
     showguides="true"
     inkscape:guide-bbox="true"
     inkscape:window-width="1366"
     inkscape:window-height="746"
     inkscape:window-x="-8"
     inkscape:window-y="-8"
     inkscape:window-maximized="1"
     width="0px"
     height="0px"
     fit-margin-top="0"
     fit-margin-left="0"
     fit-margin-right="0"
     fit-margin-bottom="0">
    <sodipodi:guide
       orientation="1,0"
       position="400.22244,349.31075"
       id="guide3178" />
    <sodipodi:guide
       orientation="0,1"
       position="400.22244,349.31075"
       id="guide3180" />
  </sodipodi:namedview>
  <metadata
     id="metadata7">
    <rdf:RDF>
      <cc:Work
         rdf:about="">
        <dc:format>image/svg+xml</dc:format>
        <dc:type
           rdf:resource="http://purl.org/dc/dcmitype/StillImage" />
        <dc:title></dc:title>
      </cc:Work>
    </rdf:RDF>
  </metadata>
  <g
     inkscape:label="Layer 1"
     inkscape:groupmode="layer"
     id="layer1"
     transform="translate(0,-352.36218)">
    <path
       style="fill:#ff0000"
       d="m 131.96875,451.73718 c 1.41334,0.0256 2.68867,0.47541 3.78125,1.34375 2.76015,2.19379 3.30313,2.36789 7.28125,2.375 4.68069,0.008 4.5213,-0.21726 6.4375,8.0625 0.77522,3.34972 1.66559,7.03883 2,8.21875 1.30635,4.60904 0.14558,9.2779 -2.65625,10.6875 -0.71781,0.36111 -2.62179,1.38402 -4.21875,2.28125 -1.59699,0.89727 -3.34984,1.64031 -3.90625,1.625 -1.42706,-0.039 -2.91253,-0.72096 -3.1875,-1.4375 -0.21839,-0.56914 -1.47775,-1.18517 -4.90625,-2.46875 -2.20077,-0.82394 -3.5625,-2.75685 -3.5625,-5 0,-1.88586 0.74792,-8.084 1.125,-9.375 0.10909,-0.37342 0.96653,-1.00912 1.9375,-1.4375 0.97096,-0.4284 1.73177,-0.83365 1.65625,-0.875 -0.0756,-0.0413 -1.58028,-0.0226 -3.3125,0.0625 -2.78996,0.13693 -3.07411,0.26963 -2.5,0.84375 0.82256,0.82258 0.82241,2.44526 0,5.15625 -0.35632,1.17453 -0.65321,2.95289 -0.65625,3.9375 -0.005,2.09287 -1.00125,3.58428 -3.375,5 -0.89331,0.53276 -2.31882,1.58898 -3.15625,2.375 -3.1018,2.91136 -5.72613,2.74373 -9.15625,-0.65625 -1.09112,-1.08154 -2.65086,-2.5118 -3.5,-3.15625 -0.84911,-0.64448 -1.88866,-1.82897 -2.28125,-2.65625 -1.43922,-3.03295 -0.56411,-9.57112 1.75,-13 0.71935,-1.06587 1.82912,-2.98157 2.4375,-4.28125 1.87492,-4.00539 1.57395,-3.87104 8.59375,-4.625 4.96837,-0.53365 6.79965,-0.90788 8.6875,-1.8125 1.70675,-0.8179 3.27415,-1.213 4.6875,-1.1875 z"
       id="rect3032" />
  </g>
</svg>
