<?xml version="1.0" encoding="UTF-8" standalone="no"?>
<!-- Created with Inkscape (http://www.inkscape.org/) -->

<svg
   xmlns:dc="http://purl.org/dc/elements/1.1/"
   xmlns:cc="http://creativecommons.org/ns#"
   xmlns:rdf="http://www.w3.org/1999/02/22-rdf-syntax-ns#"
   xmlns:svg="http://www.w3.org/2000/svg"
   xmlns="http://www.w3.org/2000/svg"
   xmlns:sodipodi="http://sodipodi.sourceforge.net/DTD/sodipodi-0.dtd"
   xmlns:inkscape="http://www.inkscape.org/namespaces/inkscape"
   width="800"
   height="700"
   id="svg2"
   version="1.1"
   inkscape:version="0.48.2 r9819"
   sodipodi:docname="f16-fill.svg">
  <defs
     id="defs4" />
  <sodipodi:namedview
     id="base"
     pagecolor="#ffffff"
     bordercolor="#666666"
     borderopacity="1.0"
     inkscape:pageopacity="0.0"
     inkscape:pageshadow="2"
     inkscape:zoom="3.5355339"
     inkscape:cx="799.30134"
     inkscape:cy="591.28308"
     inkscape:document-units="px"
     inkscape:current-layer="layer1"
     showgrid="false"
     showguides="true"
     inkscape:guide-bbox="true"
     inkscape:window-width="1024"
     inkscape:window-height="538"
     inkscape:window-x="-8"
     inkscape:window-y="-8"
     inkscape:window-maximized="1"
     width="0px"
     height="0px"
     fit-margin-top="0"
     fit-margin-left="0"
     fit-margin-right="0"
     fit-margin-bottom="0">
    <sodipodi:guide
       orientation="1,0"
       position="400.22244,349.31075"
       id="guide3178" />
    <sodipodi:guide
       orientation="0,1"
       position="400.22244,349.31075"
       id="guide3180" />
  </sodipodi:namedview>
  <metadata
     id="metadata7">
    <rdf:RDF>
      <cc:Work
         rdf:about="">
        <dc:format>image/svg+xml</dc:format>
        <dc:type
           rdf:resource="http://purl.org/dc/dcmitype/StillImage" />
        <dc:title />
      </cc:Work>
    </rdf:RDF>
  </metadata>
  <g
     inkscape:label="Layer 1"
     inkscape:groupmode="layer"
     id="layer1"
     transform="translate(0,-352.36218)">
    <path
       id="rect3945"
       transform="translate(0,352.36218)"
       style="fill:#00ff00"
       d="m 777.25,109.1875 c -0.23392,0 -0.91677,0.22014 -1.53125,0.5 -0.85805,0.39105 -2.25188,0.38959 -5.9375,-0.0312 -5.12351,-0.58501 -4.55179,-0.65479 -14.1875,1.78125 -1.0089,0.25503 -2.1356,0.89617 -2.46875,1.40625 -1.24325,1.90328 -3.8314,10.5274 -4.0625,13.53125 -0.21334,2.77269 -0.0944,3.18456 0.9375,4.6875 0.62324,0.90787 1.09375,1.8227 1.09375,2.03125 0,0.84203 3.65685,3.19186 5.78125,3.71875 2.71545,0.67357 3.79839,0.52662 5.90625,-0.875 0.87787,-0.58379 2.12281,-1.67772 2.75,-2.46875 1.00508,-1.26767 1.14368,-1.93348 1.3125,-5.5625 0.12932,-2.78021 0.45118,-4.61177 0.96875,-5.59375 0.42158,-0.79985 0.86782,-1.35092 1,-1.21875 0.1322,0.13201 0.2086,2.3513 0.1875,4.90625 -0.0209,2.55492 0.1988,5.02276 0.4375,5.46875 0.65885,1.23108 3.25374,2.12936 4.875,1.71875 1.1804,-0.29894 1.6409,-0.8442 3.28125,-4.21875 2.2753,-4.68056 3.01847,-8.58956 2.25,-11.78125 -0.28002,-1.16286 -0.65294,-2.91791 -0.84375,-3.875 -0.46659,-2.34059 -1.23118,-4.125 -1.75,-4.125 z" />
  </g>
</svg>
