<?xml version="1.0" encoding="UTF-8" standalone="no"?>
<!-- Created with Inkscape (http://www.inkscape.org/) -->

<svg
   xmlns:dc="http://purl.org/dc/elements/1.1/"
   xmlns:cc="http://creativecommons.org/ns#"
   xmlns:rdf="http://www.w3.org/1999/02/22-rdf-syntax-ns#"
   xmlns:svg="http://www.w3.org/2000/svg"
   xmlns="http://www.w3.org/2000/svg"
   xmlns:sodipodi="http://sodipodi.sourceforge.net/DTD/sodipodi-0.dtd"
   xmlns:inkscape="http://www.inkscape.org/namespaces/inkscape"
   width="800"
   height="700"
   id="svg2"
   version="1.1"
   inkscape:version="0.48.2 r9819"
   sodipodi:docname="f16.svg">
  <defs
     id="defs4" />
  <sodipodi:namedview
     id="base"
     pagecolor="#ffffff"
     bordercolor="#666666"
     borderopacity="1.0"
     inkscape:pageopacity="0.0"
     inkscape:pageshadow="2"
     inkscape:zoom="3.5355339"
     inkscape:cx="799.30134"
     inkscape:cy="591.28308"
     inkscape:document-units="px"
     inkscape:current-layer="layer1"
     showgrid="false"
     showguides="true"
     inkscape:guide-bbox="true"
     inkscape:window-width="1366"
     inkscape:window-height="746"
     inkscape:window-x="-8"
     inkscape:window-y="-8"
     inkscape:window-maximized="1"
     width="0px"
     height="0px"
     fit-margin-top="0"
     fit-margin-left="0"
     fit-margin-right="0"
     fit-margin-bottom="0">
    <sodipodi:guide
       orientation="1,0"
       position="400.22244,349.31075"
       id="guide3178" />
    <sodipodi:guide
       orientation="0,1"
       position="400.22244,349.31075"
       id="guide3180" />
  </sodipodi:namedview>
  <metadata
     id="metadata7">
    <rdf:RDF>
      <cc:Work
         rdf:about="">
        <dc:format>image/svg+xml</dc:format>
        <dc:type
           rdf:resource="http://purl.org/dc/dcmitype/StillImage" />
        <dc:title></dc:title>
      </cc:Work>
    </rdf:RDF>
  </metadata>
  <g
     inkscape:label="Layer 1"
     inkscape:groupmode="layer"
     id="layer1"
     transform="translate(0,-352.36218)">
    <path
       style="fill:#ff0000"
       d="m 777.25,461.54968 c 0.51882,0 1.28341,1.78441 1.75,4.125 0.19081,0.95709 0.56373,2.71214 0.84375,3.875 0.76847,3.19169 0.0253,7.10069 -2.25,11.78125 -1.64035,3.37455 -2.10085,3.91981 -3.28125,4.21875 -1.62126,0.41061 -4.21615,-0.48767 -4.875,-1.71875 -0.2387,-0.44599 -0.45844,-2.91383 -0.4375,-5.46875 0.0211,-2.55495 -0.0553,-4.77424 -0.1875,-4.90625 -0.13218,-0.13217 -0.57842,0.4189 -1,1.21875 -0.51757,0.98198 -0.83943,2.81354 -0.96875,5.59375 -0.16882,3.62902 -0.30742,4.29483 -1.3125,5.5625 -0.62719,0.79103 -1.87213,1.88496 -2.75,2.46875 -2.10786,1.40162 -3.1908,1.54857 -5.90625,0.875 -2.1244,-0.52689 -5.78125,-2.87672 -5.78125,-3.71875 0,-0.20855 -0.47051,-1.12338 -1.09375,-2.03125 -1.03186,-1.50294 -1.15084,-1.91481 -0.9375,-4.6875 0.2311,-3.00385 2.81925,-11.62797 4.0625,-13.53125 0.33315,-0.51008 1.45985,-1.15122 2.46875,-1.40625 9.63571,-2.43604 9.06399,-2.36626 14.1875,-1.78125 3.68562,0.42084 5.07945,0.42225 5.9375,0.0312 0.61448,-0.27986 1.29733,-0.5 1.53125,-0.5 z"
       id="rect3194" />
  </g>
</svg>
