<?xml version="1.0" encoding="UTF-8" standalone="no"?>
<!-- Created with Inkscape (http://www.inkscape.org/) -->

<svg
   xmlns:dc="http://purl.org/dc/elements/1.1/"
   xmlns:cc="http://creativecommons.org/ns#"
   xmlns:rdf="http://www.w3.org/1999/02/22-rdf-syntax-ns#"
   xmlns:svg="http://www.w3.org/2000/svg"
   xmlns="http://www.w3.org/2000/svg"
   xmlns:sodipodi="http://sodipodi.sourceforge.net/DTD/sodipodi-0.dtd"
   xmlns:inkscape="http://www.inkscape.org/namespaces/inkscape"
   width="900"
   height="800"
   id="svg2"
   version="1.1"
   inkscape:version="0.48.2 r9819"
   sodipodi:docname="l26.svg">
  <defs
     id="defs4" />
  <sodipodi:namedview
     id="base"
     pagecolor="#ffffff"
     bordercolor="#666666"
     borderopacity="1.0"
     inkscape:pageopacity="0.0"
     inkscape:pageshadow="2"
     inkscape:zoom="2"
     inkscape:cx="702.00206"
     inkscape:cy="321.60587"
     inkscape:document-units="px"
     inkscape:current-layer="layer1"
     showgrid="false"
     showguides="true"
     inkscape:guide-bbox="true"
     inkscape:window-width="1366"
     inkscape:window-height="746"
     inkscape:window-x="-8"
     inkscape:window-y="-8"
     inkscape:window-maximized="1"
     width="0px"
     height="0px"
     fit-margin-top="0"
     fit-margin-left="0"
     fit-margin-right="0"
     fit-margin-bottom="0">
    <sodipodi:guide
       orientation="1,0"
       position="450,784"
       id="guide3178" />
    <sodipodi:guide
       orientation="0,1"
       position="-61,400"
       id="guide3180" />
  </sodipodi:namedview>
  <metadata
     id="metadata7">
    <rdf:RDF>
      <cc:Work
         rdf:about="">
        <dc:format>image/svg+xml</dc:format>
        <dc:type
           rdf:resource="http://purl.org/dc/dcmitype/StillImage" />
        <dc:title></dc:title>
      </cc:Work>
    </rdf:RDF>
  </metadata>
  <g
     inkscape:label="Layer 1"
     inkscape:groupmode="layer"
     id="layer1"
     transform="translate(0,-252.36218)">
    <path
       id="rect3233"
       transform="translate(0,252.36218)"
       style="fill:#ff0000"
       d="m 594.84375,442.03125 c -2.89663,0 -3.80954,0.73021 -5.53125,4.21875 -0.53398,1.08192 -1.61175,3.16863 -2.40625,4.65625 -0.79443,1.48764 -1.54483,3.14651 -1.625,3.6875 -0.0802,0.54092 -0.53307,2.11637 -1.03125,3.46875 -1.25464,3.40598 -2.95955,9.34057 -3.53125,12.28125 -1.6992,8.74031 -2.43517,13.26375 -2.6875,16.71875 -0.15804,2.16383 -0.47242,4.87079 -0.71875,6 -0.56763,2.60234 -1.30962,14.64658 -1.6875,27.65625 -0.18844,6.48825 -0.64126,12.04959 -1.25,15.53125 -1.94759,11.13791 -2.7056,23.19888 -1.78125,27.84375 0.62761,3.15367 4.98873,7.38074 9.4375,9.125 3.2887,1.28937 7.21448,0.41009 9.53125,-2.0625 0.66062,-0.7051 2.35076,-1.94347 3.71875,-2.8125 1.36796,-0.86902 2.56595,-1.76095 2.65625,-1.96875 0.0901,-0.20794 0.34217,-0.375 0.625,-0.375 1.12655,0 5.73413,-5.47123 6.5,-7.71875 1.50986,-4.43108 0.5514,-14.20547 -2.21875,-22.53125 -0.26992,-0.81148 -0.59272,-2.04246 -0.71875,-2.71875 -0.12605,-0.67615 -0.77085,-2.99245 -1.40625,-5.15625 C 599.15323,522.54364 598,517.20635 598,515.5 c 0,-0.77449 -0.21961,-2.18005 -0.5,-3.125 -1.44878,-4.88211 -2.17636,-41.38338 -1,-50.15625 0.30832,-2.29908 0.73048,-5.85641 0.96875,-7.90625 0.23828,-2.04981 0.79001,-4.56763 1.21875,-5.59375 1.04136,-2.49227 1.00334,-3.79017 -0.21875,-5.34375 -0.87001,-1.10608 -1.41986,-1.34375 -3.625,-1.34375 z m 0.21875,2 c 1.31472,0 2.9375,1.07397 2.9375,1.9375 0,0.21352 -0.54254,2.11947 -1.21875,4.25 -0.67618,2.13053 -1.25,4.47541 -1.25,5.1875 0,0.71205 -0.43243,3.91183 -1,7.125 -0.95804,5.42345 -1.04718,7.1053 -0.8125,23.3125 0.13903,9.60197 0.52025,19.24243 0.8125,21.40625 1.81808,13.46184 2.25131,16.38043 2.71875,17.53125 0.48396,1.19159 -0.37397,1.10324 -1.8125,-0.21875 -3.43586,-3.15768 -5.00466,-4.01335 -7.84375,-4.21875 -3.22553,-0.23331 -5.16368,0.67938 -7.75,3.625 -0.82209,0.93636 -1.57911,1.6875 -1.71875,1.6875 -0.79968,0 0.76231,-29.91564 1.96875,-37.625 0.381,-2.4343 0.86981,-6.33008 1.125,-8.65625 0.75976,-6.92726 3.83488,-18.53753 6.84375,-26 2.37888,-5.90003 4.96153,-9.34375 7,-9.34375 z m -7.25,78.25 c 2.561,-0.0229 4.15211,0.88353 6.625,3.59375 2.98511,3.27163 4.52882,6.19167 6.65625,12.59375 2.32538,6.99775 3.02711,10.4628 3,14.25 -0.0363,5.13436 -1.84186,7.70825 -10.4375,14.65625 -5.42065,4.38136 -9.79384,5.22923 -13.90625,2.6875 -4.10758,-2.53853 -4.90766,-4.45292 -5.1875,-11.96875 -0.33466,-8.98774 1.12826,-19.52218 3.03125,-21.625 0.64063,-0.70791 0.78043,-1.43229 0.53125,-3.09375 -0.40163,-2.67843 1.15315,-6.0146 4.09375,-8.875 1.62863,-1.58425 2.38032,-1.95855 4.4375,-2.15625 0.41066,-0.0395 0.79037,-0.0592 1.15625,-0.0625 z m 4.65625,9.75 c -0.24307,0 -0.88926,1.09023 -1.4375,2.375 -0.54826,1.28474 -1.43497,3.28954 -1.96875,4.46875 -0.53383,1.17929 -0.8513,2.27368 -0.71875,2.40625 0.50765,0.50774 1.45368,-0.59562 2.40625,-2.78125 1.73069,-3.97083 1.78578,-3.94054 4.125,0.71875 1.17336,2.33712 2.125,4.57968 2.125,4.96875 0,0.38909 0.32695,0.81825 0.71875,0.96875 0.39188,0.15025 1.07743,1.38378 1.53125,2.75 1.05968,3.19053 0.73425,7.61573 -0.71875,9.65625 -0.56766,0.79714 -1.03125,1.68776 -1.03125,2 0,0.91108 0.93841,0.10904 2.25,-1.96875 1.29945,-2.05846 1.40012,-3.22165 0.625,-8.0625 -0.69849,-4.36217 -2.28233,-8.879 -4.03125,-11.53125 -0.85088,-1.29038 -1.95284,-3.13096 -2.46875,-4.125 -0.51593,-0.99402 -1.16316,-1.84375 -1.40625,-1.84375 z m -11.40625,1.53125 c -0.6806,0 -3.24194,7.23668 -3.25,9.21875 -0.002,0.72507 -0.43056,3.86206 -0.96875,6.9375 -0.53813,3.07567 -1.0002,6.36226 -1,7.34375 5e-4,2.17505 2.44139,7.56767 3.90625,8.59375 1.10073,0.77092 2.99995,0.60904 3,-0.25 0,-0.26767 -0.60349,-0.97355 -1.3125,-1.53125 -2.80389,-2.20561 -3.78598,-7.3999 -2.8125,-14.46875 0.81812,-5.94113 1.65414,-9.90847 2.15625,-10.21875 0.22268,-0.13763 0.77955,0.3835 1.25,1.125 0.9124,1.43801 3.63669,4.03125 4.25,4.03125 0.53845,0.002 0.48005,-0.86403 -0.0937,-1.21875 -0.27046,-0.16714 -0.5,-0.70444 -0.5,-1.1875 0,-0.48304 -0.42667,-1.29061 -0.96875,-1.78125 -0.5421,-0.49052 -1.48642,-2.17005 -2.0625,-3.75 -0.5761,-1.57989 -1.26716,-2.84375 -1.59375,-2.84375 z" />
  </g>
</svg>
