<?xml version="1.0" encoding="UTF-8" standalone="no"?>
<!-- Created with Inkscape (http://www.inkscape.org/) -->

<svg
   xmlns:dc="http://purl.org/dc/elements/1.1/"
   xmlns:cc="http://creativecommons.org/ns#"
   xmlns:rdf="http://www.w3.org/1999/02/22-rdf-syntax-ns#"
   xmlns:svg="http://www.w3.org/2000/svg"
   xmlns="http://www.w3.org/2000/svg"
   xmlns:sodipodi="http://sodipodi.sourceforge.net/DTD/sodipodi-0.dtd"
   xmlns:inkscape="http://www.inkscape.org/namespaces/inkscape"
   width="800"
   height="700"
   id="svg2"
   version="1.1"
   inkscape:version="0.48.2 r9819"
   sodipodi:docname="l26.svg">
  <defs
     id="defs4" />
  <sodipodi:namedview
     id="base"
     pagecolor="#ffffff"
     bordercolor="#666666"
     borderopacity="1.0"
     inkscape:pageopacity="0.0"
     inkscape:pageshadow="2"
     inkscape:zoom="1.767767"
     inkscape:cx="516.88149"
     inkscape:cy="257.86932"
     inkscape:document-units="px"
     inkscape:current-layer="layer1"
     showgrid="false"
     showguides="true"
     inkscape:guide-bbox="true"
     inkscape:window-width="1366"
     inkscape:window-height="746"
     inkscape:window-x="-8"
     inkscape:window-y="-8"
     inkscape:window-maximized="1"
     width="0px"
     height="0px"
     fit-margin-top="0"
     fit-margin-left="0"
     fit-margin-right="0"
     fit-margin-bottom="0">
    <sodipodi:guide
       orientation="1,0"
       position="400.22244,349.31075"
       id="guide3178" />
    <sodipodi:guide
       orientation="0,1"
       position="400.22244,349.31075"
       id="guide3180" />
  </sodipodi:namedview>
  <metadata
     id="metadata7">
    <rdf:RDF>
      <cc:Work
         rdf:about="">
        <dc:format>image/svg+xml</dc:format>
        <dc:type
           rdf:resource="http://purl.org/dc/dcmitype/StillImage" />
        <dc:title></dc:title>
      </cc:Work>
    </rdf:RDF>
  </metadata>
  <g
     inkscape:label="Layer 1"
     inkscape:groupmode="layer"
     id="layer1"
     transform="translate(0,-352.36218)">
    <path
       id="rect3330"
       transform="translate(0,352.36218)"
       style="fill:#ff0000"
       d="m 527.15625,391 c -2.56237,0 -3.38323,0.63279 -4.90625,3.71875 -0.47235,0.95707 -1.42216,2.80904 -2.125,4.125 -0.70274,1.31598 -1.33532,2.80269 -1.40625,3.28125 -0.0709,0.4785 -0.49682,1.83493 -0.9375,3.03125 -1.10986,3.01293 -2.58803,8.27367 -3.09375,10.875 -1.50312,7.73169 -2.18304,11.72495 -2.40625,14.78125 -0.1398,1.91412 -0.40709,4.31359 -0.625,5.3125 -0.50212,2.30202 -1.16573,12.96038 -1.5,24.46875 -0.16669,5.73951 -0.55524,10.63886 -1.09375,13.71875 -1.72282,9.8526 -2.41143,20.5474 -1.59375,24.65625 0.55518,2.78974 4.40837,6.51954 8.34375,8.0625 2.90919,1.14058 6.38807,0.37474 8.4375,-1.8125 0.58438,-0.62373 2.07115,-1.73126 3.28125,-2.5 1.21011,-0.76873 2.26387,-1.56619 2.34375,-1.75 0.0797,-0.18394 0.34356,-0.3125 0.59375,-0.3125 0.99655,0 5.0725,-4.85559 5.75,-6.84375 1.33562,-3.91974 0.48172,-12.57251 -1.96875,-19.9375 -0.23876,-0.71783 -0.54478,-1.77675 -0.65625,-2.375 -0.1115,-0.59812 -0.65668,-2.6484 -1.21875,-4.5625 -1.38488,-4.71613 -2.4375,-9.45931 -2.4375,-10.96875 0,-0.68511 -0.18947,-1.9141 -0.4375,-2.75 -1.28159,-4.31873 -1.91563,-36.61451 -0.875,-44.375 0.27274,-2.03377 0.63298,-5.18671 0.84375,-7 0.21078,-1.81326 0.7145,-4.02979 1.09375,-4.9375 0.92121,-2.20467 0.89357,-3.3757 -0.1875,-4.75 C 529.60539,391.17782 529.10691,391 527.15625,391 z m 0.1875,1.75 c 1.163,0 2.59375,0.95486 2.59375,1.71875 0,0.18889 -0.46434,1.89659 -1.0625,3.78125 -0.59816,1.88467 -1.125,3.93257 -1.125,4.5625 0,0.62988 -0.37293,3.47012 -0.875,6.3125 -0.84748,4.79759 -0.92635,6.28809 -0.71875,20.625 0.123,8.49392 0.46023,16.99213 0.71875,18.90625 1.60829,11.90835 1.99276,14.51323 2.40625,15.53125 0.42811,1.05408 -0.32122,0.98192 -1.59375,-0.1875 -3.03937,-2.79329 -4.42604,-3.56831 -6.9375,-3.75 -2.85332,-0.2064 -4.58716,0.61305 -6.875,3.21875 -0.72722,0.82829 -1.40772,1.5 -1.53125,1.5 -0.7074,0 0.68278,-26.46154 1.75,-33.28125 0.33702,-2.15338 0.80551,-5.59851 1.03125,-7.65625 0.67209,-6.12785 3.3696,-16.39869 6.03125,-23 2.10436,-5.21918 4.38426,-8.28125 6.1875,-8.28125 z m -6.40625,69.21875 c 2.26548,-0.0203 3.68749,0.79003 5.875,3.1875 2.64065,2.89408 3.99309,5.46172 5.875,11.125 2.05704,6.19022 2.68023,9.27483 2.65625,12.625 -0.0322,4.54185 -1.64628,6.79131 -9.25,12.9375 -4.7951,3.87576 -8.64341,4.65466 -12.28125,2.40625 -3.63357,-2.24559 -4.34619,-3.94523 -4.59375,-10.59375 -0.29604,-7.95057 1.00409,-17.29609 2.6875,-19.15625 0.56669,-0.62622 0.65793,-1.24902 0.4375,-2.71875 -0.35529,-2.36934 1.02374,-5.31345 3.625,-7.84375 1.4407,-1.40144 2.11771,-1.73136 3.9375,-1.90625 0.36326,-0.0348 0.7076,-0.0595 1.03125,-0.0625 z m 4.125,8.625 c -0.21502,0 -0.79626,0.98849 -1.28125,2.125 -0.48499,1.13648 -1.27783,2.89436 -1.75,3.9375 -0.47223,1.0432 -0.74225,2.00772 -0.625,2.125 0.44907,0.44913 1.28236,-0.53534 2.125,-2.46875 1.53097,-3.51259 1.58697,-3.46536 3.65625,0.65625 1.03795,2.06742 1.875,4.03082 1.875,4.375 0,0.34419 0.2784,0.71062 0.625,0.84375 0.34665,0.13291 0.97353,1.26019 1.375,2.46875 0.93737,2.82234 0.66033,6.72619 -0.625,8.53125 -0.50215,0.70515 -0.9375,1.50503 -0.9375,1.78125 0,0.80594 0.83976,0.0881 2,-1.75 1.14949,-1.82092 1.21692,-2.87402 0.53125,-7.15625 -0.61788,-3.85877 -1.98414,-7.84131 -3.53125,-10.1875 -0.75268,-1.14147 -1.73112,-2.77692 -2.1875,-3.65625 -0.45639,-0.8793 -1.03497,-1.625 -1.25,-1.625 z m -10.09375,1.34375 c -0.60205,0 -2.86785,6.4029 -2.875,8.15625 -0.002,0.64141 -0.36767,3.40445 -0.84375,6.125 -0.47603,2.72075 -0.90643,5.66301 -0.90625,6.53125 4.4e-4,1.92404 2.17294,6.68608 3.46875,7.59375 0.9737,0.68196 2.62497,0.54115 2.625,-0.21875 0,-0.23678 -0.49781,-0.85041 -1.125,-1.34375 -2.48031,-1.95108 -3.36112,-6.55939 -2.5,-12.8125 0.72372,-5.25553 1.46209,-8.75677 1.90625,-9.03125 0.19699,-0.12173 0.67759,0.31281 1.09375,0.96875 0.80712,1.27205 3.23871,3.59375 3.78125,3.59375 0.47632,0.002 0.41381,-0.77996 -0.0937,-1.09375 -0.23926,-0.14784 -0.4375,-0.60394 -0.4375,-1.03125 0,-0.42731 -0.39548,-1.15972 -0.875,-1.59375 -0.47954,-0.43391 -1.3029,-1.91488 -1.8125,-3.3125 -0.50961,-1.39757 -1.11733,-2.53125 -1.40625,-2.53125 z" />
  </g>
</svg>
