<?xml version="1.0" encoding="UTF-8" standalone="no"?>
<!-- Created with Inkscape (http://www.inkscape.org/) -->

<svg
   xmlns:dc="http://purl.org/dc/elements/1.1/"
   xmlns:cc="http://creativecommons.org/ns#"
   xmlns:rdf="http://www.w3.org/1999/02/22-rdf-syntax-ns#"
   xmlns:svg="http://www.w3.org/2000/svg"
   xmlns="http://www.w3.org/2000/svg"
   xmlns:sodipodi="http://sodipodi.sourceforge.net/DTD/sodipodi-0.dtd"
   xmlns:inkscape="http://www.inkscape.org/namespaces/inkscape"
   width="800"
   height="700"
   id="svg2"
   version="1.1"
   inkscape:version="0.48.2 r9819"
   sodipodi:docname="l27.svg">
  <defs
     id="defs4" />
  <sodipodi:namedview
     id="base"
     pagecolor="#ffffff"
     bordercolor="#666666"
     borderopacity="1.0"
     inkscape:pageopacity="0.0"
     inkscape:pageshadow="2"
     inkscape:zoom="1.767767"
     inkscape:cx="516.88149"
     inkscape:cy="76.849982"
     inkscape:document-units="px"
     inkscape:current-layer="layer1"
     showgrid="false"
     showguides="true"
     inkscape:guide-bbox="true"
     inkscape:window-width="1366"
     inkscape:window-height="746"
     inkscape:window-x="-8"
     inkscape:window-y="-8"
     inkscape:window-maximized="1"
     width="0px"
     height="0px"
     fit-margin-top="0"
     fit-margin-left="0"
     fit-margin-right="0"
     fit-margin-bottom="0">
    <sodipodi:guide
       orientation="1,0"
       position="400.22244,349.31075"
       id="guide3178" />
    <sodipodi:guide
       orientation="0,1"
       position="400.22244,349.31075"
       id="guide3180" />
  </sodipodi:namedview>
  <metadata
     id="metadata7">
    <rdf:RDF>
      <cc:Work
         rdf:about="">
        <dc:format>image/svg+xml</dc:format>
        <dc:type
           rdf:resource="http://purl.org/dc/dcmitype/StillImage" />
        <dc:title></dc:title>
      </cc:Work>
    </rdf:RDF>
  </metadata>
  <g
     inkscape:label="Layer 1"
     inkscape:groupmode="layer"
     id="layer1"
     transform="translate(0,-352.36218)">
    <path
       id="rect3338"
       transform="translate(0,352.36218)"
       style="fill:#ff0000"
       d="m 514.34375,572.9375 c -0.43993,-0.01 -0.93589,-7.5e-4 -1.53125,0.0312 l -3,0.15625 -2.09375,2.34375 c -3.62408,4.1034 -4.09905,7.2591 -2.5625,16.625 0.47916,2.9211 1.04265,6.5367 1.28125,8 0.23862,1.4631 0.45961,4.00885 0.46875,5.65625 0.0105,1.6471 0.19249,4.35635 0.40625,6.03125 0.69282,5.428 1.65317,12.51785 2.3125,16.96875 0.35447,2.3928 0.89607,6.8895 1.1875,10 0.70073,7.48 3.96194,21.08425 6.6875,27.84375 0.85603,2.123 1.5625,4.03655 1.5625,4.21875 0,0.2919 1.59118,2.873 2.5,4.0625 0.18285,0.2393 0.64109,1.00095 1,1.71875 1.29739,2.5948 5.99272,7.46695 8.28125,8.59375 1.87234,0.922 1.68696,0.928 3.3125,-0.0625 1.92112,-1.1718 2.16473,-2.6701 0.8125,-4.8125 -0.60231,-0.9538 -1.125,-2.03065 -1.125,-2.40625 0,-0.3754 -0.28935,-1.25935 -0.65625,-1.96875 -3.32792,-6.4357 -4.66554,-16.2469 -4.5625,-33.0625 0.0531,-8.6764 0.50074,-18.46335 1.28125,-27.40625 0.17749,-2.0337 0.95402,-7.09425 1.75,-11.28125 1.45186,-7.6373 2.02852,-15.9842 1.25,-18.75 -0.82135,-2.9176 -4.7288,-6.2978 -10.59375,-9.1875 -1.91414,-0.9432 -4.1313,-2.0843 -4.96875,-2.5625 -0.90954,-0.5201 -1.6802,-0.7265 -3,-0.75 z m -2.21875,2.625 c 0.33229,0.004 0.70359,0.0325 1.0625,0.0625 2.01182,0.1684 3.45682,0.69225 6.28125,2.21875 2.01544,1.0891 4.01737,1.96875 4.46875,1.96875 0.96973,0 5.3734,4.0549 6.25,5.75 1.31469,2.5423 0.41721,17.91555 -1.5,25.40625 -0.94633,3.6975 -2.49417,5.9053 -4.96875,7.0625 -1.98539,0.9283 -4.32989,1.3523 -5.84375,1.0625 -1.70951,-0.3277 -5.23519,-4.76625 -7.375,-9.28125 -0.77183,-1.6285 -1.79263,-6.9777 -3.1875,-16.625 -1.25786,-8.6994 -1.1772,-10.1613 0.71875,-13.9375 0.86794,-1.7288 1.7939,-3.3076 2.0625,-3.5 0.13431,-0.096 0.56337,-0.13235 1.125,-0.15625 0.28079,-0.012 0.57396,-0.0348 0.90625,-0.0312 z m -1.375,39.5 c 0.20086,0 0.57659,0.4761 0.84375,1.0625 0.26727,0.5864 1.61373,1.94285 3,3.03125 2.14422,1.6833 2.80332,1.96875 4.46875,1.96875 2.74051,0 5.03046,-0.71815 6.28125,-1.96875 0.58679,-0.587 1.22186,-1.0625 1.375,-1.0625 0.15254,0 0.14838,6.77915 0,15.09375 -0.2889,16.1922 0.17648,29.84135 1.1875,33.40625 1.01792,3.5886 3.85714,10.77865 4.875,12.40625 1.29526,2.0714 1.45785,2.70325 1,3.59375 -0.42321,0.8227 -2.50124,0.99985 -4.125,0.34375 -2.40336,-0.9712 -7.88876,-9.9087 -10.46875,-17 -0.81323,-2.2351 -3.70494,-11.3083 -4.21875,-13.25 -0.31442,-1.188 -1.45732,-8.86485 -2.6875,-18.28125 -0.56265,-4.3068 -1.19591,-8.70465 -1.4375,-9.78125 -0.53515,-2.3844 -0.60096,-9.5625 -0.0937,-9.5625 z" />
  </g>
</svg>
