<?xml version="1.0" encoding="UTF-8" standalone="no"?>
<!-- Created with Inkscape (http://www.inkscape.org/) -->

<svg
   xmlns:dc="http://purl.org/dc/elements/1.1/"
   xmlns:cc="http://creativecommons.org/ns#"
   xmlns:rdf="http://www.w3.org/1999/02/22-rdf-syntax-ns#"
   xmlns:svg="http://www.w3.org/2000/svg"
   xmlns="http://www.w3.org/2000/svg"
   xmlns:sodipodi="http://sodipodi.sourceforge.net/DTD/sodipodi-0.dtd"
   xmlns:inkscape="http://www.inkscape.org/namespaces/inkscape"
   width="900"
   height="800"
   id="svg2"
   version="1.1"
   inkscape:version="0.48.2 r9819"
   sodipodi:docname="m27.svg">
  <defs
     id="defs4" />
  <sodipodi:namedview
     id="base"
     pagecolor="#ffffff"
     bordercolor="#666666"
     borderopacity="1.0"
     inkscape:pageopacity="0.0"
     inkscape:pageshadow="2"
     inkscape:zoom="2"
     inkscape:cx="702.00206"
     inkscape:cy="61.605867"
     inkscape:document-units="px"
     inkscape:current-layer="layer1"
     showgrid="false"
     showguides="true"
     inkscape:guide-bbox="true"
     inkscape:window-width="1366"
     inkscape:window-height="746"
     inkscape:window-x="-8"
     inkscape:window-y="-8"
     inkscape:window-maximized="1"
     width="0px"
     height="0px"
     fit-margin-top="0"
     fit-margin-left="0"
     fit-margin-right="0"
     fit-margin-bottom="0">
    <sodipodi:guide
       orientation="1,0"
       position="450,784"
       id="guide3178" />
    <sodipodi:guide
       orientation="0,1"
       position="-61,400"
       id="guide3180" />
  </sodipodi:namedview>
  <metadata
     id="metadata7">
    <rdf:RDF>
      <cc:Work
         rdf:about="">
        <dc:format>image/svg+xml</dc:format>
        <dc:type
           rdf:resource="http://purl.org/dc/dcmitype/StillImage" />
        <dc:title></dc:title>
      </cc:Work>
    </rdf:RDF>
  </metadata>
  <g
     inkscape:label="Layer 1"
     inkscape:groupmode="layer"
     id="layer1"
     transform="translate(0,-252.36218)">
    <path
       id="rect3241"
       transform="translate(0,252.36218)"
       style="fill:#ff0000"
       d="m 580.375,647.71875 c -0.49732,-0.009 -1.077,-0.003 -1.75,0.0312 l -3.375,0.15625 -2.375,2.65625 c -4.09686,4.63867 -4.64325,8.22478 -2.90625,18.8125 0.54168,3.30209 1.19902,7.4083 1.46875,9.0625 0.26974,1.65397 0.48967,4.51274 0.5,6.375 0.0119,1.862 0.22712,4.95037 0.46875,6.84375 0.78322,6.13606 1.87967,14.12471 2.625,19.15625 0.40071,2.70486 0.98303,7.79628 1.3125,11.3125 0.79213,8.45587 4.51263,23.8276 7.59375,31.46875 0.96771,2.4001 1.75,4.5441 1.75,4.75 0,0.33 1.81637,3.24905 2.84375,4.59375 0.2067,0.2705 0.68803,1.15735 1.09375,1.96875 1.46663,2.9333 6.78793,8.4137 9.375,9.6875 2.11661,1.0423 1.9124,1.057 3.75,-0.0625 2.17173,-1.3245 2.43489,-2.98445 0.90625,-5.40625 -0.68087,-1.0783 -1.25,-2.3255 -1.25,-2.75 0,-0.4244 -0.33523,-1.41695 -0.75,-2.21875 -3.76206,-7.2753 -5.27272,-18.36573 -5.15625,-37.375 0.0601,-9.80819 0.58643,-20.85926 1.46875,-30.96875 0.20065,-2.29899 1.06894,-8.04794 1.96875,-12.78125 1.64127,-8.63359 2.28633,-18.06093 1.40625,-21.1875 -0.9285,-3.29829 -5.33873,-7.10829 -11.96875,-10.375 -2.16385,-1.06628 -4.67832,-2.36565 -5.625,-2.90625 -1.0282,-0.58795 -1.88302,-0.8172 -3.375,-0.84375 z m -3.5625,3 c 0.63485,-0.027 1.4073,-0.0367 2.21875,0.0312 2.27428,0.19036 3.93211,0.8056 7.125,2.53125 2.27836,1.23123 4.55224,2.21875 5.0625,2.21875 1.09623,0 6.07155,4.58378 7.0625,6.5 1.4862,2.87397 0.44857,20.25082 -1.71875,28.71875 -1.06978,4.17985 -2.79634,6.66055 -5.59375,7.96875 -2.24437,1.04937 -4.91368,1.54637 -6.625,1.21875 -1.93253,-0.37049 -5.89356,-5.39597 -8.3125,-10.5 -0.87251,-1.84097 -2.04816,-7.90669 -3.625,-18.8125 -1.42194,-9.83426 -1.33077,-11.48113 0.8125,-15.75 0.98118,-1.95427 2.04012,-3.72003 2.34375,-3.9375 0.15183,-0.10847 0.61512,-0.16046 1.25,-0.1875 z m -0.53125,44.625 c 0.22706,0 0.66673,0.52456 0.96875,1.1875 0.30213,0.66294 1.80789,2.2072 3.375,3.4375 2.42394,1.90292 3.17981,2.21875 5.0625,2.21875 3.09801,-0.004 5.67979,-0.80496 7.09375,-2.21875 0.66333,-0.6635 1.38939,-1.21875 1.5625,-1.21875 0.17245,0 0.16774,7.69453 0,17.09375 -0.32659,18.30458 0.20085,33.72 1.34375,37.75 1.15071,4.0566 4.34936,12.16 5.5,14 1.46424,2.3416 1.67384,3.0559 1.15625,4.0625 -0.47841,0.93 -2.82066,1.14795 -4.65625,0.40625 -2.71689,-1.0979 -8.92719,-11.20235 -11.84375,-19.21875 -0.91931,-2.5266 -4.20041,-12.77385 -4.78125,-14.96875 -0.35546,-1.34298 -1.6406,-10.01144 -3.03125,-20.65625 -0.63605,-4.86864 -1.38316,-9.8454 -1.65625,-11.0625 -0.60497,-2.69541 -0.66706,-10.8125 -0.0937,-10.8125 z" />
  </g>
</svg>
