<?xml version="1.0" encoding="UTF-8" standalone="no"?>
<!-- Created with Inkscape (http://www.inkscape.org/) -->

<svg
   xmlns:dc="http://purl.org/dc/elements/1.1/"
   xmlns:cc="http://creativecommons.org/ns#"
   xmlns:rdf="http://www.w3.org/1999/02/22-rdf-syntax-ns#"
   xmlns:svg="http://www.w3.org/2000/svg"
   xmlns="http://www.w3.org/2000/svg"
   xmlns:sodipodi="http://sodipodi.sourceforge.net/DTD/sodipodi-0.dtd"
   xmlns:inkscape="http://www.inkscape.org/namespaces/inkscape"
   width="900"
   height="800"
   id="svg2"
   version="1.1"
   inkscape:version="0.48.2 r9819"
   sodipodi:docname="f27.svg">
  <defs
     id="defs4" />
  <sodipodi:namedview
     id="base"
     pagecolor="#ffffff"
     bordercolor="#666666"
     borderopacity="1.0"
     inkscape:pageopacity="0.0"
     inkscape:pageshadow="2"
     inkscape:zoom="2"
     inkscape:cx="702.00206"
     inkscape:cy="161.60587"
     inkscape:document-units="px"
     inkscape:current-layer="layer1"
     showgrid="false"
     showguides="true"
     inkscape:guide-bbox="true"
     inkscape:window-width="1366"
     inkscape:window-height="746"
     inkscape:window-x="-8"
     inkscape:window-y="-8"
     inkscape:window-maximized="1"
     width="0px"
     height="0px"
     fit-margin-top="0"
     fit-margin-left="0"
     fit-margin-right="0"
     fit-margin-bottom="0">
    <sodipodi:guide
       orientation="1,0"
       position="450,784"
       id="guide3178" />
    <sodipodi:guide
       orientation="0,1"
       position="-61,400"
       id="guide3180" />
  </sodipodi:namedview>
  <metadata
     id="metadata7">
    <rdf:RDF>
      <cc:Work
         rdf:about="">
        <dc:format>image/svg+xml</dc:format>
        <dc:type
           rdf:resource="http://purl.org/dc/dcmitype/StillImage" />
        <dc:title></dc:title>
      </cc:Work>
    </rdf:RDF>
  </metadata>
  <g
     inkscape:label="Layer 1"
     inkscape:groupmode="layer"
     id="layer1"
     transform="translate(0,-252.36218)">
    <path
       id="rect3237"
       transform="translate(0,252.36218)"
       style="fill:#ff0000"
       d="m 591.0625,597.03125 c -2.85683,-0.0173 -4.47899,1.03196 -6.53125,4.03125 -1.9744,2.88578 -2.42923,3.93029 -3.46875,7.71875 -0.4097,1.49305 -1.42926,3.77634 -2.28125,5.0625 -1.84173,2.78054 -2.42108,4.88081 -2.4375,9.1875 -0.0149,4.07623 0.52216,5.7708 2.5625,8.5625 1.17687,1.61022 2.60781,2.73406 5.03125,3.96875 3.00998,1.53336 3.82096,1.71886 7.21875,1.71875 4.04617,0 6.17016,-0.76467 9.0625,-3.25 0.7454,-0.64055 1.58413,-1.15625 1.8125,-1.15625 0.22845,0 0.375,-0.3015 0.375,-0.65625 0,-0.35462 0.41876,-1.06948 0.90625,-1.59375 0.48748,-0.52418 1.16931,-2.05394 1.53125,-3.40625 0.36192,-1.35241 0.88737,-2.69833 1.1875,-2.96875 0.85451,-0.77013 2.63054,-4.2027 3.28125,-6.40625 0.52306,-1.77115 0.46271,-2.29348 -0.5,-4.53125 -0.73936,-1.71877 -1.6197,-2.83315 -2.75,-3.5 -1.82575,-1.07707 -3.64821,-3.67734 -3.65625,-5.21875 -0.006,-1.29923 -3.52787,-5.38273 -5.53125,-6.40625 -0.87186,-0.44526 -2.87544,-0.94143 -4.46875,-1.09375 -0.46313,-0.0441 -0.93563,-0.06 -1.34375,-0.0625 z M 591.40625,599 c 1.08203,-0.0597 2.24135,0.19282 3.5,0.71875 2.40437,1.00459 3.47657,2.00879 4.59375,4.375 0.5108,1.08188 1.59495,2.74071 2.40625,3.6875 0.81126,0.94668 1.46875,1.91386 1.46875,2.125 6.1e-4,0.21115 0.78502,1.05526 1.71875,1.875 0.93367,0.81975 1.81072,1.85599 1.9375,2.3125 0.12675,0.45664 0.38855,1.30087 0.5625,1.90625 0.33787,1.1761 0.39788,1.12153 -5.46875,6.40625 -4.94946,4.45843 -11.26159,6.02319 -16.65625,4.125 -1.61356,-0.56761 -3.35918,-1.03125 -3.875,-1.03125 -0.79545,0 -0.82328,0.1283 -0.28125,0.78125 1.50646,1.81527 3.52503,2.31799 8.8125,2.28125 5.70963,-0.0394 8.06174,-0.63657 11.65625,-3.0625 L 604,624 l -0.375,1.5625 c -0.18949,0.86283 -0.54554,1.83206 -0.78125,2.125 -0.23572,0.29316 -1.13851,1.50625 -2.03125,2.71875 -1.04096,1.41388 -2.58982,2.69496 -4.3125,3.5625 -1.91832,0.96586 -3.40014,1.33811 -5.15625,1.3125 -8.04616,-0.11684 -13.08571,-4.67885 -13.09375,-11.8125 -0.004,-2.85762 0.28485,-3.81843 2.3125,-8.09375 1.26859,-2.67486 2.71945,-6.19345 3.25,-7.78125 1.872,-5.6023 4.34764,-8.41475 7.59375,-8.59375 z m 3.625,6.34375 c -0.12459,0.007 -0.23576,0.0796 -0.3125,0.15625 -0.17714,0.17703 0.67232,1.25334 1.90625,2.40625 1.82311,1.70393 2.32156,2.5393 2.59375,4.375 0.70163,4.73104 -0.0741,5.47894 -7.21875,7.0625 -6.11299,1.35484 -6.9766,-0.022 -4.84375,-7.71875 0.64932,-2.343 0.82359,-3.70765 0.5,-4.03125 -0.79572,-0.79564 -1.36196,0.21025 -2.21875,3.90625 -1.60857,6.93871 -1.40248,9.2566 0.84375,9.71875 1.54202,0.31751 6.77014,-0.1484 8.28125,-0.75 0.67619,-0.26882 2.30932,-0.75154 3.65625,-1.0625 1.78907,-0.41344 2.64274,-0.88992 3.09375,-1.78125 0.89055,-1.76 0.73558,-4.24399 -0.3125,-5.78125 -0.49955,-0.73291 -1.41705,-2.2306 -2.09375,-3.3125 -1.07134,-1.71264 -3.00293,-3.24742 -3.875,-3.1875 z" />
  </g>
</svg>
