<?xml version="1.0" encoding="UTF-8" standalone="no"?>
<!-- Created with Inkscape (http://www.inkscape.org/) -->

<svg
   xmlns:dc="http://purl.org/dc/elements/1.1/"
   xmlns:cc="http://creativecommons.org/ns#"
   xmlns:rdf="http://www.w3.org/1999/02/22-rdf-syntax-ns#"
   xmlns:svg="http://www.w3.org/2000/svg"
   xmlns="http://www.w3.org/2000/svg"
   xmlns:sodipodi="http://sodipodi.sourceforge.net/DTD/sodipodi-0.dtd"
   xmlns:inkscape="http://www.inkscape.org/namespaces/inkscape"
   width="900"
   height="800"
   id="svg2"
   version="1.1"
   inkscape:version="0.48.2 r9819"
   sodipodi:docname="l4.svg">
  <defs
     id="defs4" />
  <sodipodi:namedview
     id="base"
     pagecolor="#ffffff"
     bordercolor="#666666"
     borderopacity="1.0"
     inkscape:pageopacity="0.0"
     inkscape:pageshadow="2"
     inkscape:zoom="2"
     inkscape:cx="235.68722"
     inkscape:cy="703.20803"
     inkscape:document-units="px"
     inkscape:current-layer="layer1"
     showgrid="false"
     showguides="true"
     inkscape:guide-bbox="true"
     inkscape:window-width="1366"
     inkscape:window-height="746"
     inkscape:window-x="-8"
     inkscape:window-y="-8"
     inkscape:window-maximized="1"
     width="0px"
     height="0px"
     fit-margin-top="0"
     fit-margin-left="0"
     fit-margin-right="0"
     fit-margin-bottom="0">
    <sodipodi:guide
       orientation="1,0"
       position="450,784"
       id="guide3178" />
    <sodipodi:guide
       orientation="0,1"
       position="-61,400"
       id="guide3180" />
  </sodipodi:namedview>
  <metadata
     id="metadata7">
    <rdf:RDF>
      <cc:Work
         rdf:about="">
        <dc:format>image/svg+xml</dc:format>
        <dc:type
           rdf:resource="http://purl.org/dc/dcmitype/StillImage" />
        <dc:title></dc:title>
      </cc:Work>
    </rdf:RDF>
  </metadata>
  <g
     inkscape:label="Layer 1"
     inkscape:groupmode="layer"
     id="layer1"
     transform="translate(0,-252.36218)">
    <path
       id="rect3115"
       transform="translate(0,252.36218)"
       style="fill:#ff0000"
       d="m 144.96875,45.78125 c -1.46202,0 -3.17106,1.41567 -3.9375,3.25 -0.97089,2.32368 -0.8622,5.67104 0.34375,9.96875 1.20374,4.28996 1.10537,10.1075 -0.21875,12.5625 -0.4338,0.80423 -0.92158,2.41448 -1.09375,3.5625 -0.4933,3.28949 -1.22378,3.4488 -3.625,0.84375 -1.14296,-1.23994 -2.66634,-3.46501 -3.375,-5 -1.21343,-2.62838 -1.29377,-3.25071 -1.3125,-10.53125 -0.0188,-7.28412 -0.0791,-7.82803 -1.09375,-8.84375 C 129.74637,50.68293 129.34583,50.61402 128,51 c -3.04702,0.87386 -7.28827,8.8851 -7.3125,13.84375 -0.0155,3.15325 1.85791,15.17079 2.90625,18.5625 2.89753,9.37455 3.60311,17.14808 2.21875,25.0625 -0.77603,4.43672 -3.28463,9.91079 -8.53125,18.71875 -1.67513,2.81202 -1.73323,3.12188 -1.75,7.59375 -0.0158,4.23404 0.0918,4.89211 1.3125,6.96875 1.42486,2.42379 5.44426,6.13566 8.125,7.5 0.87907,0.44739 1.625,0.9969 1.625,1.25 0,0.2531 0.91298,0.74825 2.0625,1.0625 3.13799,0.85778 5.69348,-0.02 9.5,-3.25 3.39595,-2.88083 4.92781,-3.31133 6.3125,-1.78125 0.45737,0.50542 2.42379,1.63656 4.375,2.53125 1.95122,0.8947 4.62237,2.38229 5.9375,3.28125 1.31511,0.89897 2.68685,1.625 3.03125,1.625 0.89432,0 3.12391,-1.05642 5.40625,-2.53125 1.08192,-0.6991 2.78045,-1.54649 3.78125,-1.875 2.31244,-0.7591 4.65145,-3.42366 5.09375,-5.78125 0.38574,-2.05626 -0.4549,-9.65074 -1.5625,-13.84375 -0.40237,-1.52328 -0.95678,-4.01237 -1.21875,-5.5 -0.26203,-1.48764 -0.81054,-4.46117 -1.21875,-6.625 -1.90938,-10.1202 -1.90487,-15.28831 0.0937,-30.46875 0.46605,-3.5399 0.88408,-9.92445 0.90625,-14.28125 0.0417,-8.22824 -0.48212,-11.32715 -2.625,-16.0625 -0.5291,-1.16923 -1.41047,-3.13812 -1.9375,-4.375 -1.12756,-2.64612 -3.03543,-3.7632 -5.125,-2.96875 -1.701,0.64675 -2.10612,3.33766 -1.5625,10.3125 0.46582,5.97679 0.32579,11.91118 -0.28125,12.53125 -0.74062,0.75662 -1.81075,-1.79937 -2.65625,-6.3125 -2.13255,-11.38325 -2.4117,-12.33466 -4.09375,-15.25 -1.75841,-3.04772 -4.13389,-5.15625 -5.84375,-5.15625 z m -0.0937,3.0625 c 2.00648,0.0283 4.4374,3.27799 5.96875,8.71875 0.49484,1.75812 1.32156,4.64813 1.8125,6.40625 1.66838,5.97435 2.9375,12.76936 2.9375,15.71875 0,3.28104 -1.85962,9.8732 -3.21875,11.375 -0.46924,0.51851 -1.01061,0.9375 -1.1875,0.9375 -0.58903,0 -1.84016,-1.19928 -3.28125,-3.1875 -0.78417,-1.08191 -2.54874,-3.33712 -3.96875,-5.03125 -3.19743,-3.81465 -3.2864,-4.88457 -0.875,-12.34375 1.96013,-6.0633 2.28014,-10.41343 0.90625,-12.375 -0.45125,-0.64422 -1.12292,-2.38737 -1.46875,-3.875 -0.51966,-2.23552 -0.51963,-2.93133 0.0312,-4.25 0.59943,-1.4346 1.4317,-2.10659 2.34375,-2.09375 z m 15.96875,4.5 c 1.12029,0.031 2.106,1.80317 3.75,6.4375 3.00572,8.47293 3.23557,11.63065 1.59375,24.59375 -1.76739,13.95459 -1.88826,15.63794 -1.59375,22.8125 0.2605,6.34642 0.18447,7.37434 -0.46875,7.625 -1.04371,0.40052 -5.96666,0.29198 -8,-0.1875 -0.92168,-0.21737 -1.88372,-0.75633 -2.125,-1.1875 -0.2413,-0.43116 -0.72102,-0.75 -1.0625,-0.75 -0.34147,0 -1.5683,-0.49158 -2.75,-1.0625 l -2.15625,-1.03125 -4.9375,1.53125 c -3.40035,1.05737 -5.96114,1.56135 -8.15625,1.5625 -1.75809,9.2e-4 -4.08192,0.15717 -5.15625,0.40625 -1.07432,0.24787 -2.04036,0.39713 -2.15625,0.28125 -0.11591,-0.11589 0.26123,-1.81589 0.84375,-3.78125 0.64856,-2.18819 1.06349,-4.9345 1.0625,-7.0625 -0.002,-5.1185 -0.52513,-7.6494 -4.03125,-20 -1.68009,-5.91829 -2.97684,-15.0697 -2.65625,-18.75 0.35497,-4.07522 1.8636,-7.77134 3.84375,-9.4375 1.2121,-1.01996 1.60015,-1.13841 2.21875,-0.625 0.60433,0.50161 0.66864,1.41234 0.4375,4.6875 -0.66726,9.45536 1.57041,14.80172 9.28125,22.5625 4.85246,4.88392 9.09375,9.91917 9.09375,10.75 0,0.34067 0.41595,0.99668 0.9375,1.46875 3.51686,3.18267 8.30017,-6.71098 11.28125,-23.34375 0.56085,-3.1294 0.30584,-10.02965 -0.46875,-12.90625 -0.62565,-2.3235 -0.27921,-4.0571 0.875,-4.5 0.16652,-0.064 0.33994,-0.09817 0.5,-0.09375 z m -12.75,59.03125 c 1.59772,0.0289 3.04616,0.54961 4.28125,1.53125 3.12023,2.47996 3.75294,2.67946 8.25,2.6875 5.2913,0.009 5.08384,-0.23489 7.25,9.125 0.87636,3.78669 1.87197,7.9474 2.25,9.28125 1.47678,5.2103 0.19859,10.46902 -2.96875,12.0625 -0.81144,0.40821 -2.97596,1.57946 -4.78125,2.59375 -1.80532,1.01431 -3.77725,1.82981 -4.40625,1.8125 -1.61323,-0.044 -3.31418,-0.78374 -3.625,-1.59375 -0.24689,-0.64338 -1.65549,-1.36147 -5.53125,-2.8125 -2.48788,-0.93143 -4.03125,-3.08922 -4.03125,-5.625 0,-2.13188 0.82372,-9.13433 1.25,-10.59375 0.12332,-0.42213 1.08988,-1.17199 2.1875,-1.65625 1.09764,-0.48428 1.96036,-0.92199 1.875,-0.96875 -0.0854,-0.0467 -1.76055,-0.0337 -3.71875,0.0625 -3.15391,0.1548 -3.49275,0.2885 -2.84375,0.9375 0.92987,0.92989 0.92969,2.77912 0,5.84375 -0.4028,1.32775 -0.71531,3.3557 -0.71875,4.46875 -0.005,2.36589 -1.16033,4.02459 -3.84375,5.625 -1.00984,0.60228 -2.61583,1.79894 -3.5625,2.6875 -3.50642,3.29115 -6.43492,3.09352 -10.3125,-0.75 -1.23349,-1.22264 -3.0401,-2.83396 -4,-3.5625 -0.95988,-0.72856 -2.11871,-2.0648 -2.5625,-3 -1.62699,-3.42862 -0.61599,-10.8113 2,-14.6875 0.8132,-1.20491 2.03102,-3.37454 2.71875,-4.84375 2.11953,-4.52791 1.78319,-4.39767 9.71875,-5.25 5.61649,-0.60326 7.70962,-1.00864 9.84375,-2.03125 1.92941,-0.92461 3.68353,-1.37258 5.28125,-1.34375 z" />
  </g>
</svg>
