<?xml version="1.0" encoding="UTF-8" standalone="no"?>
<!-- Created with Inkscape (http://www.inkscape.org/) -->

<svg
   xmlns:dc="http://purl.org/dc/elements/1.1/"
   xmlns:cc="http://creativecommons.org/ns#"
   xmlns:rdf="http://www.w3.org/1999/02/22-rdf-syntax-ns#"
   xmlns:svg="http://www.w3.org/2000/svg"
   xmlns="http://www.w3.org/2000/svg"
   xmlns:sodipodi="http://sodipodi.sourceforge.net/DTD/sodipodi-0.dtd"
   xmlns:inkscape="http://www.inkscape.org/namespaces/inkscape"
   width="800"
   height="700"
   id="svg2"
   version="1.1"
   inkscape:version="0.48.2 r9819"
   sodipodi:docname="l2.svg">
  <defs
     id="defs4" />
  <sodipodi:namedview
     id="base"
     pagecolor="#ffffff"
     bordercolor="#666666"
     borderopacity="1.0"
     inkscape:pageopacity="0.0"
     inkscape:pageshadow="2"
     inkscape:zoom="2"
     inkscape:cx="191.37885"
     inkscape:cy="600.25451"
     inkscape:document-units="px"
     inkscape:current-layer="layer1"
     showgrid="false"
     showguides="true"
     inkscape:guide-bbox="true"
     inkscape:window-width="1366"
     inkscape:window-height="746"
     inkscape:window-x="-8"
     inkscape:window-y="-8"
     inkscape:window-maximized="1"
     width="0px"
     height="0px"
     fit-margin-top="0"
     fit-margin-left="0"
     fit-margin-right="0"
     fit-margin-bottom="0">
    <sodipodi:guide
       orientation="1,0"
       position="400.22244,349.31075"
       id="guide3178" />
    <sodipodi:guide
       orientation="0,1"
       position="400.22244,349.31075"
       id="guide3180" />
  </sodipodi:namedview>
  <metadata
     id="metadata7">
    <rdf:RDF>
      <cc:Work
         rdf:about="">
        <dc:format>image/svg+xml</dc:format>
        <dc:type
           rdf:resource="http://purl.org/dc/dcmitype/StillImage" />
        <dc:title></dc:title>
      </cc:Work>
    </rdf:RDF>
  </metadata>
  <g
     inkscape:label="Layer 1"
     inkscape:groupmode="layer"
     id="layer1"
     transform="translate(0,-352.36218)">
    <path
       id="rect3032"
       transform="translate(0,352.36218)"
       style="fill:#ff0000"
       d="m 129.1875,40.46875 c -1.2933,0 -2.79075,1.25238 -3.46875,2.875 -0.85884,2.05555 -0.7543,5.01075 0.3125,8.8125 1.06482,3.7949 0.9838,8.95331 -0.1875,11.125 -0.38374,0.71143 -0.8477,2.10946 -1,3.125 -0.43637,2.90989 -1.09463,3.08567 -3.21875,0.78125 -1.01108,-1.09684 -2.34188,-3.11089 -2.96875,-4.46875 -1.0734,-2.32506 -1.13967,-2.84088 -1.15625,-9.28125 -0.0166,-6.44354 -0.0713,-6.91398 -0.96875,-7.8125 -0.80488,-0.8057 -1.15322,-0.90393 -2.34375,-0.5625 -2.6954,0.77302 -6.44731,7.89484 -6.46875,12.28125 -0.0137,2.78939 1.66639,13.40593 2.59375,16.40625 2.56316,8.29273 3.16211,15.15515 1.9375,22.15625 -0.68648,3.92473 -2.89008,8.77099 -7.53125,16.5625 -1.48184,2.48753 -1.54767,2.76293 -1.5625,6.71875 -0.014,3.74544 0.10764,4.31924 1.1875,6.15625 1.26044,2.14408 4.78488,5.44937 7.15625,6.65625 0.77763,0.39576 1.4375,0.86985 1.4375,1.09375 0,0.22388 0.82689,0.65953 1.84375,0.9375 2.77587,0.75879 5.00775,-0.0178 8.375,-2.875 3.00406,-2.5484 4.36885,-2.91601 5.59375,-1.5625 0.40459,0.4471 2.14896,1.45855 3.875,2.25 1.72605,0.79145 4.08662,2.07978 5.25,2.875 1.16333,0.79524 2.38283,1.4375 2.6875,1.4375 0.7911,0 2.76229,-0.91411 4.78125,-2.21875 0.95708,-0.6184 2.45845,-1.36566 3.34375,-1.65625 2.04559,-0.6715 4.13999,-3.03946 4.53125,-5.125 0.34123,-1.81897 -0.42648,-8.54087 -1.40625,-12.25 -0.35595,-1.3475 -0.86201,-3.52781 -1.09375,-4.84375 -0.23179,-1.31599 -0.70141,-3.96088 -1.0625,-5.875 -1.68905,-8.95235 -1.67423,-13.54011 0.0937,-26.96875 0.41225,-3.13139 0.76165,-8.77098 0.78125,-12.625 0.0369,-7.27872 -0.41692,-10.02986 -2.3125,-14.21875 -0.46805,-1.0343 -1.25254,-2.78085 -1.71875,-3.875 -0.99744,-2.34075 -2.68281,-3.29654 -4.53125,-2.59375 -1.50471,0.57211 -1.85589,2.95505 -1.375,9.125 0.41207,5.28708 0.28699,10.51398 -0.25,11.0625 C 139.6886,64.76305 138.74793,62.49231 138,58.5 136.11353,48.43034 135.86295,47.57891 134.375,45 c -1.55548,-2.69602 -3.67495,-4.53125 -5.1875,-4.53125 z m -0.375,2.71875 c 0.0981,-0.01736 0.1804,-0.0014 0.28125,0 1.77493,0.025 3.95787,2.8746 5.3125,7.6875 0.43775,1.55523 1.15947,4.10101 1.59375,5.65625 1.47584,5.2849 2.59375,11.2972 2.59375,13.90625 0,2.90241 -1.64146,8.76525 -2.84375,10.09375 -0.41509,0.45867 -0.90602,0.8125 -1.0625,0.8125 -0.52106,0 -1.6002,-1.05373 -2.875,-2.8125 -0.69367,-0.95706 -2.27511,-2.97012 -3.53125,-4.46875 -2.82845,-3.37445 -2.91437,-4.30784 -0.78125,-10.90625 1.73393,-5.36359 2.02784,-9.20228 0.8125,-10.9375 -0.39918,-0.56988 -1.00656,-2.12155 -1.3125,-3.4375 -0.45968,-1.97754 -0.45608,-2.61477 0.0312,-3.78125 0.46398,-1.110419 1.09433,-1.690959 1.78125,-1.8125 z M 143,47.15625 c 0.075,-0.01724 0.14795,-0.002 0.21875,0 0.99101,0.0275 1.88946,1.58798 3.34375,5.6875 2.65886,7.49518 2.85861,10.31408 1.40625,21.78125 -1.56344,12.34422 -1.66677,13.80963 -1.40625,20.15625 0.23043,5.61406 0.17159,6.52826 -0.40625,6.75 -0.92326,0.3543 -5.29506,0.23665 -7.09375,-0.1875 -0.81532,-0.19228 -1.66157,-0.64984 -1.875,-1.03125 -0.21346,-0.38141 -0.63544,-0.6875 -0.9375,-0.6875 -0.30207,0 -1.39216,-0.40122 -2.4375,-0.90625 l -1.90625,-0.9375 -4.375,1.375 c -3.00796,0.93535 -5.24571,1.37399 -7.1875,1.375 -1.55522,8.3e-4 -3.64341,0.15465 -4.59375,0.375 -0.95036,0.21927 -1.80374,0.32127 -1.90625,0.21875 -0.10253,-0.10251 0.23471,-1.60519 0.75,-3.34375 0.57372,-1.93569 0.93839,-4.36757 0.9375,-6.25 -0.002,-4.52784 -0.42973,-6.76215 -3.53125,-17.6875 -1.4862,-5.23532 -2.65858,-13.30689 -2.375,-16.5625 0.31402,-3.60494 1.65459,-6.90112 3.40625,-8.375 1.07222,-0.90226 1.42154,-0.9854 1.96875,-0.53125 0.53459,0.44373 0.57947,1.22778 0.375,4.125 -0.59024,8.36421 1.36649,13.10355 8.1875,19.96875 4.29249,4.32031 8.09375,8.76504 8.09375,9.5 0,0.30136 0.35113,0.89491 0.8125,1.3125 3.11103,2.8154 7.33168,-5.94289 9.96875,-20.65625 0.49612,-2.76827 0.27895,-8.86161 -0.40625,-11.40625 -0.55346,-2.05537 -0.27102,-3.57695 0.75,-3.96875 0.0737,-0.0283 0.14372,-0.07651 0.21875,-0.09375 z M 131.96875,99.375 c 1.41334,0.0256 2.68867,0.47541 3.78125,1.34375 2.76015,2.19379 3.30313,2.36789 7.28125,2.375 4.68069,0.008 4.5213,-0.21726 6.4375,8.0625 0.77522,3.34972 1.66559,7.03883 2,8.21875 1.30635,4.60904 0.14558,9.2779 -2.65625,10.6875 -0.71781,0.36111 -2.62179,1.38402 -4.21875,2.28125 -1.59699,0.89727 -3.34984,1.64031 -3.90625,1.625 -1.42706,-0.039 -2.91253,-0.72096 -3.1875,-1.4375 -0.21839,-0.56914 -1.47775,-1.18517 -4.90625,-2.46875 -2.20077,-0.82394 -3.5625,-2.75685 -3.5625,-5 0,-1.88586 0.74792,-8.084 1.125,-9.375 0.10909,-0.37342 0.96653,-1.00912 1.9375,-1.4375 0.97096,-0.4284 1.73177,-0.83365 1.65625,-0.875 -0.0756,-0.0413 -1.58028,-0.0226 -3.3125,0.0625 -2.78996,0.13693 -3.07411,0.26963 -2.5,0.84375 0.82256,0.82258 0.82241,2.44526 0,5.15625 -0.35632,1.17453 -0.65321,2.95289 -0.65625,3.9375 -0.005,2.09287 -1.00125,3.58428 -3.375,5 -0.89331,0.53276 -2.31882,1.58898 -3.15625,2.375 -3.1018,2.91136 -5.72613,2.74373 -9.15625,-0.65625 -1.09112,-1.08154 -2.65086,-2.5118 -3.5,-3.15625 -0.84911,-0.64448 -1.88866,-1.82897 -2.28125,-2.65625 -1.43922,-3.03295 -0.56411,-9.57112 1.75,-13 0.71935,-1.06587 1.82912,-2.98157 2.4375,-4.28125 1.87492,-4.00539 1.57395,-3.87104 8.59375,-4.625 4.96837,-0.53365 6.79965,-0.90788 8.6875,-1.8125 1.70675,-0.8179 3.27415,-1.213 4.6875,-1.1875 z" />
  </g>
</svg>
