<?xml version="1.0" encoding="UTF-8" standalone="no"?>
<!-- Created with Inkscape (http://www.inkscape.org/) -->

<svg
   xmlns:dc="http://purl.org/dc/elements/1.1/"
   xmlns:cc="http://creativecommons.org/ns#"
   xmlns:rdf="http://www.w3.org/1999/02/22-rdf-syntax-ns#"
   xmlns:svg="http://www.w3.org/2000/svg"
   xmlns="http://www.w3.org/2000/svg"
   xmlns:sodipodi="http://sodipodi.sourceforge.net/DTD/sodipodi-0.dtd"
   xmlns:inkscape="http://www.inkscape.org/namespaces/inkscape"
   width="800"
   height="400"
   id="svg2"
   version="1.1"
   inkscape:version="0.48.2 r9819"
   sodipodi:docname="f3.svg">
  <defs
     id="defs4" />
  <sodipodi:namedview
     id="base"
     pagecolor="#ffffff"
     bordercolor="#666666"
     borderopacity="1.0"
     inkscape:pageopacity="0.0"
     inkscape:pageshadow="2"
     inkscape:zoom="4"
     inkscape:cx="87.90643"
     inkscape:cy="324.31071"
     inkscape:document-units="px"
     inkscape:current-layer="layer1"
     showgrid="false"
     showguides="true"
     inkscape:guide-bbox="true"
     inkscape:window-width="1366"
     inkscape:window-height="746"
     inkscape:window-x="-8"
     inkscape:window-y="-8"
     inkscape:window-maximized="1"
     width="0px"
     height="0px"
     fit-margin-top="0"
     fit-margin-left="0"
     fit-margin-right="0"
     fit-margin-bottom="0">
    <sodipodi:guide
       orientation="1,0"
       position="400.22244,349.31075"
       id="guide3178" />
    <sodipodi:guide
       orientation="0,1"
       position="-117.37973,199.40411"
       id="guide3180" />
  </sodipodi:namedview>
  <metadata
     id="metadata7">
    <rdf:RDF>
      <cc:Work
         rdf:about="">
        <dc:format>image/svg+xml</dc:format>
        <dc:type
           rdf:resource="http://purl.org/dc/dcmitype/StillImage" />
        <dc:title></dc:title>
      </cc:Work>
    </rdf:RDF>
  </metadata>
  <g
     inkscape:label="Layer 1"
     inkscape:groupmode="layer"
     id="layer1"
     transform="translate(0,-652.36218)">
    <path
       id="rect3205"
       transform="translate(0,652.36218)"
       style="fill:#ff0000"
       d="m 130.75,32.1875 c -1.2933,0 -2.822,1.25238 -3.5,2.875 -0.85884,2.05555 -0.7543,5.01075 0.3125,8.8125 1.06482,3.7949 0.9838,8.95331 -0.1875,11.125 -0.38374,0.71143 -0.81645,2.14071 -0.96875,3.15625 -0.43637,2.90989 -1.09463,3.05442 -3.21875,0.75 -1.01108,-1.09684 -2.34188,-3.07964 -2.96875,-4.4375 -1.0734,-2.32506 -1.13967,-2.87213 -1.15625,-9.3125 -0.0166,-6.44354 -0.0713,-6.91398 -0.96875,-7.8125 -0.80488,-0.8057 -1.18447,-0.87268 -2.375,-0.53125 -2.6954,0.77302 -6.41606,7.86359 -6.4375,12.25 -0.0137,2.78939 1.63514,13.40593 2.5625,16.40625 2.56316,8.29273 3.16211,15.1864 1.9375,22.1875 -0.68648,3.92473 -2.85883,8.73974 -7.5,16.53125 -1.48184,2.48753 -1.54767,2.79418 -1.5625,6.75 -0.014,3.74544 0.0764,4.31924 1.15625,6.15625 1.26044,2.14408 4.81613,5.41812 7.1875,6.625 0.77763,0.39576 1.4375,0.9011 1.4375,1.125 0,0.22388 0.82689,0.62828 1.84375,0.90625 2.77587,0.75879 5.00775,0.0135 8.375,-2.84375 3.00406,-2.5484 4.36885,-2.94726 5.59375,-1.59375 0.40459,0.4471 2.14896,1.45855 3.875,2.25 1.72605,0.79145 4.05537,2.07978 5.21875,2.875 1.16333,0.79524 2.41408,1.4375 2.71875,1.4375 0.7911,0 2.73104,-0.91411 4.75,-2.21875 0.95708,-0.6184 2.4897,-1.36566 3.375,-1.65625 2.04559,-0.6715 4.10874,-3.00821 4.5,-5.09375 0.34123,-1.81897 -0.39523,-8.57212 -1.375,-12.28125 -0.35595,-1.3475 -0.86201,-3.52781 -1.09375,-4.84375 -0.23179,-1.31599 -0.73266,-3.96088 -1.09375,-5.875 -1.68905,-8.95235 -1.67423,-13.54011 0.0937,-26.96875 0.41225,-3.13139 0.7929,-8.73973 0.8125,-12.59375 0.0369,-7.27872 -0.41692,-10.06111 -2.3125,-14.25 -0.46805,-1.0343 -1.25254,-2.78085 -1.71875,-3.875 -0.99744,-2.34075 -2.68281,-3.29654 -4.53125,-2.59375 -1.50471,0.57211 -1.85589,2.95505 -1.375,9.125 0.41207,5.28708 0.28699,10.51398 -0.25,11.0625 -0.65515,0.6693 -1.62707,-1.57019 -2.375,-5.5625 -1.88647,-10.06966 -2.1058,-10.92109 -3.59375,-13.5 -1.55568,-2.69602 -3.67495,-4.5625 -5.1875,-4.5625 z m -0.0937,2.71875 c 1.77493,0.025 3.95787,2.90585 5.3125,7.71875 0.43775,1.55523 1.12822,4.10101 1.5625,5.65625 1.47584,5.2849 2.625,11.2972 2.625,13.90625 0,2.90241 -1.67271,8.734 -2.875,10.0625 -0.41509,0.45867 -0.87477,0.8125 -1.03125,0.8125 -0.52106,0 -1.63145,-1.05373 -2.90625,-2.8125 -0.69367,-0.95706 -2.24386,-2.93887 -3.5,-4.4375 -2.82845,-3.37445 -2.91437,-4.33909 -0.78125,-10.9375 1.73393,-5.36359 2.02784,-9.20228 0.8125,-10.9375 -0.39918,-0.56988 -1.00656,-2.0903 -1.3125,-3.40625 -0.45968,-1.97754 -0.45608,-2.61477 0.0312,-3.78125 0.53006,-1.26905 1.25569,-1.8551 2.0625,-1.84375 z m 14.125,3.96875 c 0.99101,0.0275 1.88946,1.61923 3.34375,5.71875 2.65886,7.49518 2.85861,10.28283 1.40625,21.75 -1.56344,12.34422 -1.66677,13.80963 -1.40625,20.15625 0.23043,5.61406 0.17159,6.55951 -0.40625,6.78125 -0.92326,0.3543 -5.29506,0.2054 -7.09375,-0.21875 -0.81532,-0.19228 -1.66157,-0.64984 -1.875,-1.03125 -0.21346,-0.38141 -0.63544,-0.65625 -0.9375,-0.65625 -0.30207,0 -1.42341,-0.43247 -2.46875,-0.9375 l -1.90625,-0.90625 -4.34375,1.34375 c -3.00796,0.93535 -5.27696,1.37399 -7.21875,1.375 -1.55522,8.3e-4 -3.61216,0.15465 -4.5625,0.375 -0.95036,0.21927 -1.80374,0.32127 -1.90625,0.21875 -0.10253,-0.10251 0.23471,-1.57394 0.75,-3.3125 0.57372,-1.93569 0.93839,-4.39882 0.9375,-6.28125 -0.002,-4.52784 -0.46098,-6.76215 -3.5625,-17.6875 -1.4862,-5.23532 -2.62733,-13.30689 -2.34375,-16.5625 0.31402,-3.60494 1.65459,-6.86987 3.40625,-8.34375 1.07222,-0.90226 1.42154,-1.01665 1.96875,-0.5625 0.53459,0.44373 0.57947,1.25903 0.375,4.15625 -0.59024,8.36421 1.36649,13.10355 8.1875,19.96875 4.29249,4.32031 8.0625,8.76504 8.0625,9.5 0,0.30136 0.38238,0.86366 0.84375,1.28125 3.11103,2.8154 7.33168,-5.91164 9.96875,-20.625 0.49612,-2.76827 0.27895,-8.89286 -0.40625,-11.4375 -0.55346,-2.05537 -0.27102,-3.57695 0.75,-3.96875 0.14712,-0.0566 0.29591,-0.09765 0.4375,-0.09375 z M 133.5,91.09375 c 1.41334,0.0256 2.68867,0.47541 3.78125,1.34375 2.76015,2.19379 3.33438,2.36789 7.3125,2.375 4.68069,0.008 4.49005,-0.21726 6.40625,8.0625 0.77522,3.34972 1.66559,7.07008 2,8.25 1.30635,4.60904 0.17683,9.24665 -2.625,10.65625 -0.71781,0.36111 -2.62179,1.38402 -4.21875,2.28125 -1.59699,0.89727 -3.34984,1.64031 -3.90625,1.625 -1.42706,-0.039 -2.94378,-0.72096 -3.21875,-1.4375 -0.21839,-0.56914 -1.4465,-1.18517 -4.875,-2.46875 -2.20077,-0.82394 -3.5625,-2.7256 -3.5625,-4.96875 0,-1.88586 0.71667,-8.084 1.09375,-9.375 0.10909,-0.37342 0.96653,-1.04037 1.9375,-1.46875 0.97096,-0.4284 1.73177,-0.8024 1.65625,-0.84375 -0.0756,-0.0413 -1.54903,-0.0226 -3.28125,0.0625 -2.78996,0.13693 -3.10536,0.23838 -2.53125,0.8125 0.82256,0.82258 0.82241,2.47651 0,5.1875 -0.35632,1.17453 -0.62196,2.95289 -0.625,3.9375 -0.005,2.09287 -1.0325,3.55303 -3.40625,4.96875 -0.89331,0.53276 -2.28757,1.58898 -3.125,2.375 -3.1018,2.91136 -5.72613,2.74373 -9.15625,-0.65625 -1.09112,-1.08154 -2.68211,-2.48055 -3.53125,-3.125 -0.84911,-0.64448 -1.85741,-1.86022 -2.25,-2.6875 -1.43922,-3.03295 -0.56411,-9.53987 1.75,-12.96875 0.71935,-1.06587 1.79787,-3.01282 2.40625,-4.3125 1.87492,-4.00539 1.6052,-3.87104 8.625,-4.625 4.96837,-0.53365 6.79965,-0.90788 8.6875,-1.8125 1.70655,-0.8179 3.2429,-1.213 4.65625,-1.1875 z" />
  </g>
</svg>
