<?xml version="1.0" encoding="UTF-8" standalone="no"?>
<!-- Created with Inkscape (http://www.inkscape.org/) -->

<svg
   xmlns:dc="http://purl.org/dc/elements/1.1/"
   xmlns:cc="http://creativecommons.org/ns#"
   xmlns:rdf="http://www.w3.org/1999/02/22-rdf-syntax-ns#"
   xmlns:svg="http://www.w3.org/2000/svg"
   xmlns="http://www.w3.org/2000/svg"
   xmlns:sodipodi="http://sodipodi.sourceforge.net/DTD/sodipodi-0.dtd"
   xmlns:inkscape="http://www.inkscape.org/namespaces/inkscape"
   width="900"
   height="800"
   id="svg2"
   version="1.1"
   inkscape:version="0.48.2 r9819"
   sodipodi:docname="m3.svg">
  <defs
     id="defs4" />
  <sodipodi:namedview
     id="base"
     pagecolor="#ffffff"
     bordercolor="#666666"
     borderopacity="1.0"
     inkscape:pageopacity="0.0"
     inkscape:pageshadow="2"
     inkscape:zoom="1.4142136"
     inkscape:cx="243.84193"
     inkscape:cy="516.69518"
     inkscape:document-units="px"
     inkscape:current-layer="layer1"
     showgrid="false"
     showguides="true"
     inkscape:guide-bbox="true"
     inkscape:window-width="1366"
     inkscape:window-height="746"
     inkscape:window-x="-8"
     inkscape:window-y="-8"
     inkscape:window-maximized="1"
     width="0px"
     height="0px"
     fit-margin-top="0"
     fit-margin-left="0"
     fit-margin-right="0"
     fit-margin-bottom="0">
    <sodipodi:guide
       orientation="1,0"
       position="450,784"
       id="guide3178" />
    <sodipodi:guide
       orientation="0,1"
       position="-61,400"
       id="guide3180" />
  </sodipodi:namedview>
  <metadata
     id="metadata7">
    <rdf:RDF>
      <cc:Work
         rdf:about="">
        <dc:format>image/svg+xml</dc:format>
        <dc:type
           rdf:resource="http://purl.org/dc/dcmitype/StillImage" />
        <dc:title></dc:title>
      </cc:Work>
    </rdf:RDF>
  </metadata>
  <g
     inkscape:label="Layer 1"
     inkscape:groupmode="layer"
     id="layer1"
     transform="translate(0,-252.36218)">
    <path
       id="rect3128"
       transform="translate(0,252.36218)"
       style="fill:#ff0000"
       d="m 130.21875,233.15625 c -2.9319,0 -8.13528,2.04471 -9.78125,3.875 -2.57706,2.86562 -2.84923,7.41495 -0.75,12.09375 0.81144,1.80852 1.46875,3.45076 1.46875,3.65625 0,0.20548 1.08714,2.26003 2.4375,4.53125 7.12487,11.98345 9.49045,19.4371 7.71875,24.5 -0.42411,1.21193 -1.96205,5.66044 -3.4375,9.875 -3.47276,9.91981 -4.73132,16.14761 -5.0625,24.8125 -0.20094,5.25639 -0.10017,7.74659 0.5,10.5625 0.86152,4.04148 1.71126,5.07255 3.96875,4.84375 1.9789,-0.20059 3.1314,-2.02668 3.75,-5.8125 0.87461,-5.35246 2.97965,-12.89898 4.28125,-15.46875 1.06592,-2.10449 1.27457,-2.31794 1.78125,-1.625 0.32233,0.44075 1.24159,3.65757 2,7.125 0.75843,3.46741 1.77095,7.5374 2.28125,9.09375 0.51028,1.55631 0.9375,3.08813 0.9375,3.375 0,0.28689 0.45012,1.56559 1,2.84375 0.68329,1.58834 1.52102,2.57612 2.65625,3.1875 1.59641,0.85969 1.72876,0.87458 3.15625,0.0312 0.90739,-0.53605 1.80299,-1.6852 2.28125,-2.9375 1.22821,-3.216 2.21417,-10.32218 2.21875,-15.96875 0.005,-6.09589 0.98947,-17.6875 1.5,-17.6875 0.19613,0 1.24058,1.88843 2.34375,4.1875 1.10314,2.29908 2.2483,4.15625 2.53125,4.15625 0.28293,0 0.5,0.42964 0.5,0.9375 0,0.50786 0.34114,1.22319 0.75,1.5625 1.73089,1.43652 4.33286,8.48677 5.65625,15.3125 1.18932,6.13434 1.86023,7.98465 3.6875,10.15625 0.71026,0.8441 1.58385,1.56244 1.9375,1.5625 0.97649,0 3.53392,-3.12529 4.28125,-5.25 0.42572,-1.21031 0.65526,-4.17927 0.65625,-8.28125 9.2e-4,-6.54005 0.0624,-6.34286 -3.375,-20.40625 -0.36362,-1.48762 -1.01669,-3.68909 -1.4375,-4.90625 -3.84845,-11.13221 -5.48012,-21.07203 -4.3125,-26.5 0.71595,-3.32821 1.94988,-7.80218 2.53125,-9.15625 2.89797,-6.74985 3.875,-10.36635 3.875,-14.1875 0,-3.62405 -0.12861,-4.19658 -1.5625,-6.5625 -0.86853,-1.43306 -1.9275,-2.73141 -2.34375,-2.84375 -0.41627,-0.11224 -1.94985,-0.45511 -3.4375,-0.78125 -1.48764,-0.32609 -3.58137,-1.05155 -4.625,-1.59375 -1.52381,-0.79172 -2.40411,-0.90993 -4.5625,-0.65625 -2.41636,0.284 -4.42067,0.95516 -6.5625,2.1875 -5.55941,3.1988 -7.07704,3.15529 -12.15625,-0.34375 -4.15933,-2.86509 -5.83859,-3.5 -9.28125,-3.5 z m 0.28125,1.4375 c 3.1195,-0.10064 6.24565,1.41442 9.84375,4.71875 0.94667,0.86938 2.37606,1.94904 3.1875,2.375 1.44297,0.75746 1.45246,0.76872 0.25,0.75 -1.68379,-0.0261 -2.21795,-0.29627 -5.90625,-2.71875 -3.70141,-2.43108 -6.66068,-3.23761 -10.25,-2.8125 -2.68187,0.31765 -3.36797,-0.23847 -1.4375,-1.1875 1.45414,-0.7148 2.89456,-1.07925 4.3125,-1.125 z m 29.1875,1.53125 c 1.26068,0.0225 1.6247,0.42486 3.09375,2.09375 4.361,4.95437 4.80958,5.90013 5.03125,10.96875 0.1712,3.9143 0.0173,5.04624 -0.90625,7.4375 -1.51216,3.91521 -5.42626,10.45236 -6.90625,11.53125 -1.15505,0.842 -1.37743,0.82853 -3.6875,0.0937 -1.43127,-0.45524 -4.16053,-0.7755 -6.59375,-0.78125 -2.70195,-0.006 -5.4311,0.34089 -7.65625,0.96875 -2.81366,0.79389 -3.78039,0.88112 -5.21875,0.4375 -2.84243,-0.87662 -6.21325,-3.38876 -7.15625,-5.25 -0.4816,-0.95051 -1.47798,-2.49085 -2.1875,-3.4375 -2.18113,-2.91017 -5.0194,-9.59962 -6.09375,-14.4375 -0.85623,-3.85556 3.04033,-7.6875 7.78125,-7.6875 1.99164,0 2.81674,0.29963 4.75,1.71875 2.62957,1.9303 4.99621,3.02944 8.625,4 l 2.4375,0.625 2.96875,-2.84375 c 3.64729,-3.58249 6.48266,-5.1138 10.09375,-5.375 0.68955,-0.0499 1.20478,-0.07 1.625,-0.0625 z m 6,3.28125 2.15625,0.28125 c 1.53226,0.19543 2.62381,0.73931 3.84375,1.90625 l 1.71875,1.65625 -0.21875,4.46875 c -0.20687,4.14663 -0.43422,4.93209 -2.71875,9.84375 -1.36432,2.93323 -2.62843,6.00258 -2.8125,6.8125 -0.1841,0.80991 -0.59314,1.75415 -0.875,2.09375 -0.49641,0.59818 -2.34375,0.86636 -2.34375,0.34375 0,-0.14218 0.99129,-2.20274 2.1875,-4.5625 2.74833,-5.4218 3.88794,-9.75276 3.46875,-13.09375 -0.55981,-4.46146 -1.66308,-7.53823 -3.09375,-8.6875 l -1.3125,-1.0625 z m -32.65625,28.9375 c 0.0616,-0.0163 0.1121,0.005 0.1875,0 0.45239,-0.0319 1.24912,0.20813 2.25,0.71875 2.63873,1.34616 6.11671,1.44865 10.03125,0.28125 4.5128,-1.34581 12.00108,-0.41513 13.28125,1.65625 0.16209,0.26227 -0.22014,1.51755 -0.875,2.8125 -1.5779,3.12001 -3.68387,11.02914 -4.5625,17.125 -0.38982,2.70482 -1.06622,10.31075 -1.46875,16.9375 -1.08739,17.90173 -1.46262,21.45143 -2.53125,23.28125 -0.51221,0.87702 -1.29065,1.63631 -1.71875,1.71875 -0.88729,0.17089 -2.45638,-1.65828 -3.1875,-3.6875 -1.89271,-5.2533 -3.22671,-10.18794 -3.59375,-13.40625 -0.23542,-2.06402 -0.66038,-4.76154 -0.9375,-5.96875 -1.76978,-7.70944 -2.50387,-11.53193 -2.96875,-15.21875 -0.63474,-5.03415 -2.21805,-14.17531 -3.5625,-20.8125 -0.6245,-3.08332 -0.79795,-5.0458 -0.5,-5.34375 0.0373,-0.0373 0.0947,-0.0774 0.15625,-0.0937 z m 30.8125,0.4375 c 0.36746,-0.0311 0.7382,0.091 1.09375,0.28125 0.98051,0.52472 1.02637,0.77997 0.71875,4.0625 -0.54121,5.77551 0.74967,11.81243 5.90625,27.40625 3.81222,11.52847 5.29743,26.9635 3,31.40625 -0.78018,1.50871 -1.78892,2.15444 -2.5625,1.625 -0.81959,-0.56094 -2.13948,-4.69734 -3.125,-9.78125 -0.94986,-4.90003 -2.7856,-10.65289 -4.4375,-13.90625 -0.48067,-0.94668 -2.10078,-3.60717 -3.625,-5.90625 -2.65135,-3.99925 -4.35792,-8.19557 -5.03125,-12.40625 -0.49097,-3.07041 1.71105,-14.47585 3.21875,-16.625 0.4744,-0.6762 1.26033,-2.05924 1.75,-3.09375 0.88451,-1.86901 1.99141,-2.96944 3.09375,-3.0625 z M 132.8125,286.0625 c 0.58535,-0.0197 0.97711,1.8306 2.84375,12.84375 l 0.78125,4.53125 -2.40625,4.8125 c -1.90692,3.79865 -2.7127,6.13909 -3.71875,11.03125 -0.70168,3.41202 -1.28125,6.83109 -1.28125,7.625 0,0.79395 -0.23792,1.73793 -0.5625,2.0625 -0.97877,0.97876 -1.83034,0.62076 -2.75,-1.0625 -0.756,-1.38343 -0.84304,-2.81263 -0.78125,-10.6875 0.0657,-8.37519 0.15748,-9.53617 1.53125,-14.96875 0.82078,-3.24574 2.21387,-7.56515 3.0625,-9.59375 0.84865,-2.02858 1.76006,-4.27784 2.03125,-5 0.27118,-0.72223 0.76788,-1.4254 1.125,-1.5625 0.0411,-0.0158 0.086,-0.0299 0.125,-0.0312 z" />
  </g>
</svg>
