<?xml version="1.0" encoding="UTF-8" standalone="no"?>
<!-- Created with Inkscape (http://www.inkscape.org/) -->

<svg
   xmlns:dc="http://purl.org/dc/elements/1.1/"
   xmlns:cc="http://creativecommons.org/ns#"
   xmlns:rdf="http://www.w3.org/1999/02/22-rdf-syntax-ns#"
   xmlns:svg="http://www.w3.org/2000/svg"
   xmlns="http://www.w3.org/2000/svg"
   xmlns:sodipodi="http://sodipodi.sourceforge.net/DTD/sodipodi-0.dtd"
   xmlns:inkscape="http://www.inkscape.org/namespaces/inkscape"
   width="800"
   height="700"
   id="svg2"
   version="1.1"
   inkscape:version="0.48.2 r9819"
   sodipodi:docname="m3.svg">
  <defs
     id="defs4" />
  <sodipodi:namedview
     id="base"
     pagecolor="#ffffff"
     bordercolor="#666666"
     borderopacity="1.0"
     inkscape:pageopacity="0.0"
     inkscape:pageshadow="2"
     inkscape:zoom="2.8284271"
     inkscape:cx="177.35158"
     inkscape:cy="482.80875"
     inkscape:document-units="px"
     inkscape:current-layer="layer1"
     showgrid="false"
     showguides="true"
     inkscape:guide-bbox="true"
     inkscape:window-width="1366"
     inkscape:window-height="746"
     inkscape:window-x="-8"
     inkscape:window-y="-8"
     inkscape:window-maximized="1"
     width="0px"
     height="0px"
     fit-margin-top="0"
     fit-margin-left="0"
     fit-margin-right="0"
     fit-margin-bottom="0">
    <sodipodi:guide
       orientation="1,0"
       position="400.22244,349.31075"
       id="guide3178" />
    <sodipodi:guide
       orientation="0,1"
       position="400.22244,349.31075"
       id="guide3180" />
  </sodipodi:namedview>
  <metadata
     id="metadata7">
    <rdf:RDF>
      <cc:Work
         rdf:about="">
        <dc:format>image/svg+xml</dc:format>
        <dc:type
           rdf:resource="http://purl.org/dc/dcmitype/StillImage" />
        <dc:title></dc:title>
      </cc:Work>
    </rdf:RDF>
  </metadata>
  <g
     inkscape:label="Layer 1"
     inkscape:groupmode="layer"
     id="layer1"
     transform="translate(0,-352.36218)">
    <path
       id="rect3046"
       transform="translate(0,352.36218)"
       style="fill:#ff0000"
       d="m 116.15625,206.21875 c -2.59355,0 -7.20023,1.78719 -8.65625,3.40625 -2.27967,2.53495 -2.51324,6.57988 -0.65625,10.71875 0.71781,1.59981 1.3125,3.03698 1.3125,3.21875 0,0.18179 0.96173,2.02212 2.15625,4.03125 6.30268,10.60057 8.37974,17.20886 6.8125,21.6875 -0.37516,1.07209 -1.72607,4.99055 -3.03125,8.71875 -3.07199,8.77508 -4.20704,14.27252 -4.5,21.9375 -0.17775,4.64979 -0.0622,6.85279 0.46875,9.34375 0.7621,3.5751 1.47177,4.48365 3.46875,4.28125 1.75054,-0.17744 2.79655,-1.77605 3.34375,-5.125 0.77368,-4.73478 2.62985,-11.41429 3.78125,-13.6875 0.94292,-1.86163 1.14554,-2.05049 1.59375,-1.4375 0.28513,0.38989 1.07911,3.21397 1.75,6.28125 0.6709,3.06728 1.57984,6.68576 2.03125,8.0625 0.45139,1.37672 0.8125,2.74624 0.8125,3 0,0.25378 0.41984,1.36934 0.90625,2.5 0.60444,1.40504 1.33953,2.27165 2.34375,2.8125 1.41219,0.76048 1.5185,0.77721 2.78125,0.0312 0.80268,-0.4742 1.57692,-1.48597 2,-2.59375 1.08646,-2.84488 1.9647,-9.13003 1.96875,-14.125 0.005,-5.39243 0.89213,-15.65625 1.34375,-15.65625 0.1735,0 1.08666,1.68499 2.0625,3.71875 0.97585,2.03377 1.99972,3.6875 2.25,3.6875 0.25029,0 0.4375,0.36323 0.4375,0.8125 0,0.44924 0.32582,1.07484 0.6875,1.375 1.53115,1.27074 3.79809,7.52445 4.96875,13.5625 1.05208,5.42644 1.66485,7.04776 3.28125,8.96875 0.62829,0.74671 1.40592,1.37495 1.71875,1.375 0.86382,0 3.12018,-2.74549 3.78125,-4.625 0.37659,-1.07065 0.56163,-3.71514 0.5625,-7.34375 8.2e-4,-5.78534 0.0407,-5.59076 -3,-18.03125 -0.32164,-1.31594 -0.87775,-3.29829 -1.25,-4.375 -3.40435,-9.84756 -4.84537,-18.60466 -3.8125,-23.40625 0.63334,-2.94414 1.73572,-6.92719 2.25,-8.125 2.56355,-5.97092 3.4375,-9.15105 3.4375,-12.53125 0,-3.20584 -0.13782,-3.7196 -1.40625,-5.8125 -0.7683,-1.26768 -1.69428,-2.40061 -2.0625,-2.5 -0.36823,-0.0993 -1.74653,-0.43023 -3.0625,-0.71875 -1.31598,-0.28845 -3.17056,-0.89537 -4.09375,-1.375 -1.34797,-0.70036 -2.12194,-0.84939 -4.03125,-0.625 -2.13751,0.25122 -3.91782,0.84738 -5.8125,1.9375 -4.91785,2.82967 -6.22566,2.814 -10.71875,-0.28125 -3.67934,-2.53447 -5.17338,-3.09375 -8.21875,-3.09375 z m 0.25,1.25 c 2.75952,-0.0889 5.50461,1.26449 8.6875,4.1875 0.83744,0.76906 2.12596,1.71693 2.84375,2.09375 1.27645,0.67004 1.28245,0.70405 0.21875,0.6875 -1.48948,-0.0231 -1.98733,-0.26333 -5.25,-2.40625 -3.27428,-2.15055 -5.88737,-2.87603 -9.0625,-2.5 -2.37239,0.28101 -2.95769,-0.19174 -1.25,-1.03125 1.28633,-0.63232 2.5582,-0.99077 3.8125,-1.03125 z m 25.8125,1.375 c 1.11519,0.0199 1.41923,0.36745 2.71875,1.84375 3.85775,4.38264 4.27266,5.23505 4.46875,9.71875 0.15145,3.46261 0.004,4.4472 -0.8125,6.5625 -1.33766,3.4634 -4.78454,9.23311 -6.09375,10.1875 -1.02175,0.74483 -1.23775,0.74374 -3.28125,0.0937 -1.2661,-0.40271 -3.69133,-0.68241 -5.84375,-0.6875 -2.39015,-0.006 -4.78163,0.3196 -6.75,0.875 -2.48898,0.70228 -3.32137,0.76743 -4.59375,0.375 -2.5144,-0.77546 -5.54082,-3.00979 -6.375,-4.65625 -0.42602,-0.84082 -1.30986,-2.19384 -1.9375,-3.03125 -1.92943,-2.57434 -4.39339,-8.50166 -5.34375,-12.78125 -0.75742,-3.41064 2.64992,-6.78125 6.84375,-6.78125 1.76179,0 2.50857,0.27589 4.21875,1.53125 2.32612,1.70753 4.41497,2.64144 7.625,3.5 l 2.15625,0.59375 2.65625,-2.5625 c 3.22638,-3.16909 5.71188,-4.4877 8.90625,-4.71875 0.60998,-0.0442 1.06577,-0.0692 1.4375,-0.0625 z m 5.3125,2.875 L 149.4375,212 c 1.35545,0.17288 2.29584,0.62397 3.375,1.65625 l 1.53125,1.46875 -0.1875,3.96875 c -0.18301,3.66812 -0.38534,4.37388 -2.40625,8.71875 -1.20686,2.59473 -2.30593,5.31479 -2.46875,6.03125 -0.16286,0.71645 -0.53191,1.54333 -0.78125,1.84375 -0.43913,0.52915 -2.09375,0.77482 -2.09375,0.3125 0,-0.12576 0.87935,-1.94381 1.9375,-4.03125 2.43118,-4.79614 3.46458,-8.63832 3.09375,-11.59375 -0.49521,-3.94661 -1.48443,-6.67086 -2.75,-7.6875 l -1.15625,-0.96875 z M 118.8125,237.3125 c 0.40017,-0.0282 1.08336,0.20456 1.96875,0.65625 2.33422,1.19081 5.44345,1.28269 8.90625,0.25 3.99204,-1.19051 10.61756,-0.36359 11.75,1.46875 0.14338,0.23202 -0.23321,1.35449 -0.8125,2.5 -1.39583,2.75996 -3.254,9.76385 -4.03125,15.15625 -0.34482,2.39269 -0.9564,9.10672 -1.3125,14.96875 -0.96189,15.83589 -1.27343,18.97509 -2.21875,20.59375 -0.45309,0.7758 -1.12129,1.45831 -1.5,1.53125 -0.78489,0.15117 -2.197,-1.48621 -2.84375,-3.28125 -1.67429,-4.64707 -2.86281,-8.99683 -3.1875,-11.84375 -0.20825,-1.82583 -0.56737,-4.21336 -0.8125,-5.28125 -1.56557,-6.81978 -2.21377,-10.2074 -2.625,-13.46875 -0.56149,-4.45322 -1.96695,-12.53499 -3.15625,-18.40625 -0.55242,-2.72751 -0.70107,-4.45518 -0.4375,-4.71875 0.0659,-0.0659 0.17908,-0.1157 0.3125,-0.125 z m 27.09375,0.4375 c 0.32505,-0.0276 0.62298,0.0504 0.9375,0.21875 0.86736,0.46417 0.92837,0.72127 0.65625,3.625 -0.47877,5.10902 0.65724,10.42444 5.21875,24.21875 3.3723,10.1981 4.68855,23.85118 2.65625,27.78125 -0.69015,1.3346 -1.56568,1.90584 -2.25,1.4375 -0.72501,-0.49621 -1.90947,-4.12777 -2.78125,-8.625 -0.84025,-4.33457 -2.47623,-9.46583 -3.9375,-12.34375 -0.4252,-0.83743 -1.87041,-3.15373 -3.21875,-5.1875 -2.34538,-3.53775 -3.84188,-7.27524 -4.4375,-11 -0.43433,-2.7161 1.54127,-12.81761 2.875,-14.71875 0.41965,-0.59817 1.09807,-1.80362 1.53125,-2.71875 0.78242,-1.65332 1.77487,-2.60518 2.75,-2.6875 z m -27.375,15.28125 c 0.46973,0.21619 0.89634,2.25098 2.4375,11.34375 l 0.65625,4 -2.125,4.28125 c -1.68687,3.36027 -2.36004,5.39115 -3.25,9.71875 -0.62071,3.01829 -1.15625,6.07896 -1.15625,6.78125 0,0.70233 -0.21287,1.52539 -0.5,1.8125 -0.86582,0.86582 -1.59274,0.55152 -2.40625,-0.9375 -0.66877,-1.2238 -0.77343,-2.47139 -0.71875,-9.4375 0.058,-7.40871 0.15975,-8.44433 1.375,-13.25 0.72607,-2.87119 1.9368,-6.70549 2.6875,-8.5 0.75073,-1.79447 1.5726,-3.79867 1.8125,-4.4375 0.23987,-0.63888 0.6841,-1.22248 1,-1.34375 0.0727,-0.0279 0.1204,-0.0621 0.1875,-0.0312 z" />
  </g>
</svg>
