<?xml version="1.0" encoding="UTF-8" standalone="no"?>
<!-- Created with Inkscape (http://www.inkscape.org/) -->

<svg
   xmlns:dc="http://purl.org/dc/elements/1.1/"
   xmlns:cc="http://creativecommons.org/ns#"
   xmlns:rdf="http://www.w3.org/1999/02/22-rdf-syntax-ns#"
   xmlns:svg="http://www.w3.org/2000/svg"
   xmlns="http://www.w3.org/2000/svg"
   xmlns:sodipodi="http://sodipodi.sourceforge.net/DTD/sodipodi-0.dtd"
   xmlns:inkscape="http://www.inkscape.org/namespaces/inkscape"
   width="800"
   height="700"
   id="svg2"
   version="1.1"
   inkscape:version="0.48.2 r9819"
   sodipodi:docname="f3.svg">
  <defs
     id="defs4" />
  <sodipodi:namedview
     id="base"
     pagecolor="#ffffff"
     bordercolor="#666666"
     borderopacity="1.0"
     inkscape:pageopacity="0.0"
     inkscape:pageshadow="2"
     inkscape:zoom="2.8284271"
     inkscape:cx="177.35158"
     inkscape:cy="492.67778"
     inkscape:document-units="px"
     inkscape:current-layer="layer1"
     showgrid="false"
     showguides="true"
     inkscape:guide-bbox="true"
     inkscape:window-width="1366"
     inkscape:window-height="746"
     inkscape:window-x="-8"
     inkscape:window-y="-8"
     inkscape:window-maximized="1"
     width="0px"
     height="0px"
     fit-margin-top="0"
     fit-margin-left="0"
     fit-margin-right="0"
     fit-margin-bottom="0">
    <sodipodi:guide
       orientation="1,0"
       position="400.22244,349.31075"
       id="guide3178" />
    <sodipodi:guide
       orientation="0,1"
       position="400.22244,349.31075"
       id="guide3180" />
  </sodipodi:namedview>
  <metadata
     id="metadata7">
    <rdf:RDF>
      <cc:Work
         rdf:about="">
        <dc:format>image/svg+xml</dc:format>
        <dc:type
           rdf:resource="http://purl.org/dc/dcmitype/StillImage" />
        <dc:title></dc:title>
      </cc:Work>
    </rdf:RDF>
  </metadata>
  <g
     inkscape:label="Layer 1"
     inkscape:groupmode="layer"
     id="layer1"
     transform="translate(0,-352.36218)">
    <path
       id="rect3042"
       transform="translate(0,352.36218)"
       style="fill:#ff0000"
       d="m 141.5,145.3125 c -1.99206,0 -3.07206,0.2894 -5.96875,1.75 -3.12334,1.57478 -3.79236,1.76428 -5.5625,1.53125 -3.11535,-0.41012 -5.49377,0.73787 -10.71875,5.1875 -4.0438,3.44372 -4.78009,4.30612 -6.125,7.0625 -1.21263,2.48529 -1.64348,4.16522 -2.15625,8.0625 -0.35559,2.70285 -0.98669,6.96398 -1.375,9.53125 -0.42448,2.80665 -0.55453,5.49029 -0.375,6.6875 0.30357,2.0244 2.09238,6.02826 2.90625,6.53125 0.24604,0.15207 0.57629,0.71081 0.78125,1.25 0.20501,0.53919 1.2136,1.42491 2.25,1.9375 1.70373,0.84269 2.40494,0.88725 7.125,0.6875 7.63182,-0.32296 8.1033,-0.30741 15,0.0312 l 6.3125,0.28125 2.1875,-1.4375 c 1.24712,-0.84055 2.75239,-2.37562 3.53125,-3.625 0.74585,-1.19634 1.83153,-2.7277 2.4375,-3.375 2.05839,-2.19865 2.88527,-4.01627 3.59375,-8.15625 0.57481,-3.35884 1.04329,-4.71258 2.53125,-7.1875 2.50994,-4.17483 2.90625,-5.25417 2.90625,-7.53125 0,-2.95312 -1.48418,-5.40792 -6.09375,-10.15625 -2.27302,-2.34142 -4.85815,-5.11086 -5.75,-6.15625 -1.85307,-2.17195 -3.74237,-2.90625 -7.4375,-2.90625 z m 0.6875,1.28125 c 2.25374,0 2.54895,0.13342 4.625,2 1.22221,1.09886 2.21875,2.27192 2.21875,2.59375 0,0.32184 1.28018,1.70309 2.84375,3.09375 3.83272,3.40888 5.58849,5.75835 6.5,8.65625 0.75162,2.38961 0.74689,2.47668 -0.21875,5.125 -0.53947,1.4796 -1.30293,2.94546 -1.6875,3.25 -1.71347,1.35688 -2.07965,1.39164 -3.5,0.34375 -0.76763,-0.56633 -1.95475,-1.27195 -2.65625,-1.5625 -1.39099,-0.57617 -1.66989,-1.72656 -0.625,-2.59375 0.3589,-0.29786 0.65931,-0.89184 0.65625,-1.28125 -0.005,-0.50072 -0.1059,-0.53055 -0.34375,-0.15625 -0.18499,0.29113 -1.31616,1.02678 -2.5,1.65625 -1.78822,0.95075 -2.48682,1.10062 -4.1875,0.875 -2.4309,-0.32248 -4.7874,-1.2536 -5.5625,-2.1875 -0.54979,-0.66248 -0.42868,-5.85953 0.25,-11.78125 l 0.21875,-2.21875 -1.5625,0.1875 -1.53125,0.1875 0.75,1.25 c 0.66262,1.12172 0.68106,1.66657 0.1875,5.09375 -0.30224,2.09855 -0.73215,3.97979 -0.9375,4.1875 -0.20531,0.20766 -0.28855,1.02914 -0.15625,1.84375 0.17306,1.06656 0.0312,1.72214 -0.53125,2.34375 -0.42967,0.47477 -1.01371,1.30703 -1.28125,1.84375 -0.71234,1.42913 -3.96568,2.85262 -6.53125,2.875 -2.55266,0.0222 -2.74931,-0.0773 -4.25,-2.3125 l -1.15625,-1.6875 -0.75,1.375 c -0.7412,1.30208 -0.95142,1.37196 -3.4375,1.375 -1.72636,0.002 -2.95666,-0.25064 -3.625,-0.71875 -0.90537,-0.63416 -0.96741,-0.93825 -0.71875,-2.8125 0.51076,-3.85055 3.55636,-9.13207 7.09375,-12.3125 1.20647,-1.08471 2.40073,-1.96875 2.65625,-1.96875 0.25551,0 0.66301,-0.38922 0.90625,-0.84375 0.65361,-1.22124 4.09337,-2.21875 7.65625,-2.21875 2.29566,0 3.27807,-0.16294 3.6875,-0.65625 1.13093,-1.36284 4.99887,-2.84375 7.5,-2.84375 z m -4.625,22.0625 c 0.7372,-0.0258 1.79276,0.13321 3.375,0.40625 5.58112,0.96314 5.74274,1.05896 7.34375,4.40625 l 1.40625,2.9375 0.125,-2.1875 c 0.0742,-1.19634 0.31068,-2.30828 0.5,-2.5 0.18934,-0.19173 0.9654,0.36072 1.71875,1.21875 1.28563,1.4641 1.375,1.75831 1.375,4.9375 0,3.97395 -0.90689,6.85897 -2.5625,8.4375 -0.75698,0.72172 -2.38638,1.46798 -4.625,2.0625 -6.36664,1.6908 -9.375,2.68015 -9.375,3.125 0,0.53859 1.69671,0.32007 6.53125,-0.90625 2.23097,-0.56582 3.81879,-0.80619 4.0625,-0.5625 0.87915,0.87916 -0.0507,2.02054 -2.71875,3.40625 -2.20302,1.1442 -3.2593,1.44796 -5.1875,1.4375 -1.33991,-0.007 -2.83396,-0.24076 -3.3125,-0.53125 -0.59403,-0.36045 -2.5297,-0.50643 -6.09375,-0.40625 -2.87117,0.0808 -6.70551,0.18116 -8.5,0.21875 -6.05366,0.12662 -8.8162,-1.8984 -10.28125,-7.59375 -0.89234,-3.47091 -0.8889,-4.83875 0,-9.65625 0.84684,-4.58951 1.22275,-5.2123 3.0625,-4.84375 2.75242,0.55138 2.875,0.62861 2.875,2.15625 0,1.94687 0.64522,2.27134 1.59375,0.78125 0.99324,-1.56029 1.41082,-1.83563 2.75,-1.84375 1.28446,-0.008 2.80292,1.51655 2.4375,2.46875 -0.50804,1.32395 0.64171,3.90523 3.40625,7.46875 2.54114,3.27569 2.86993,3.85371 2.875,5.65625 0.01,2.75846 0.61037,3.6161 1.25,1.78125 0.82892,-2.37789 0.59141,-4.61659 -0.6875,-6.625 -0.64424,-1.01176 -1.4217,-2.04198 -1.6875,-2.28125 -1.36045,-1.22472 -3.27169,-4.64873 -3.03125,-5.40625 0.28425,-0.89565 6.68398,-4.25862 8.5,-4.46875 0.81588,-0.0944 1.11787,-0.43892 1.21875,-1.3125 0.14091,-1.2191 0.42763,-1.70714 1.65625,-1.75 l 0,-0.0312 z" />
  </g>
</svg>
