<?xml version="1.0" encoding="UTF-8" standalone="no"?>
<!-- Created with Inkscape (http://www.inkscape.org/) -->

<svg
   xmlns:dc="http://purl.org/dc/elements/1.1/"
   xmlns:cc="http://creativecommons.org/ns#"
   xmlns:rdf="http://www.w3.org/1999/02/22-rdf-syntax-ns#"
   xmlns:svg="http://www.w3.org/2000/svg"
   xmlns="http://www.w3.org/2000/svg"
   xmlns:sodipodi="http://sodipodi.sourceforge.net/DTD/sodipodi-0.dtd"
   xmlns:inkscape="http://www.inkscape.org/namespaces/inkscape"
   width="900"
   height="800"
   id="svg2"
   version="1.1"
   inkscape:version="0.48.2 r9819"
   sodipodi:docname="f3.svg">
  <defs
     id="defs4" />
  <sodipodi:namedview
     id="base"
     pagecolor="#ffffff"
     bordercolor="#666666"
     borderopacity="1.0"
     inkscape:pageopacity="0.0"
     inkscape:pageshadow="2"
     inkscape:zoom="1.4142136"
     inkscape:cx="243.84193"
     inkscape:cy="544.97945"
     inkscape:document-units="px"
     inkscape:current-layer="layer1"
     showgrid="false"
     showguides="true"
     inkscape:guide-bbox="true"
     inkscape:window-width="1366"
     inkscape:window-height="746"
     inkscape:window-x="-8"
     inkscape:window-y="-8"
     inkscape:window-maximized="1"
     width="0px"
     height="0px"
     fit-margin-top="0"
     fit-margin-left="0"
     fit-margin-right="0"
     fit-margin-bottom="0">
    <sodipodi:guide
       orientation="1,0"
       position="450,784"
       id="guide3178" />
    <sodipodi:guide
       orientation="0,1"
       position="-61,400"
       id="guide3180" />
  </sodipodi:namedview>
  <metadata
     id="metadata7">
    <rdf:RDF>
      <cc:Work
         rdf:about="">
        <dc:format>image/svg+xml</dc:format>
        <dc:type
           rdf:resource="http://purl.org/dc/dcmitype/StillImage" />
        <dc:title></dc:title>
      </cc:Work>
    </rdf:RDF>
  </metadata>
  <g
     inkscape:label="Layer 1"
     inkscape:groupmode="layer"
     id="layer1"
     transform="translate(0,-252.36218)">
    <path
       id="rect3119"
       transform="translate(0,252.36218)"
       style="fill:#ff0000"
       d="m 158.875,164.28125 c -2.25194,0 -3.47543,0.38011 -6.75,2.03125 -3.5308,1.78022 -4.28019,1.98219 -6.28125,1.71875 -3.52178,-0.46361 -6.21841,0.81367 -12.125,5.84375 -4.57132,3.89297 -5.38589,4.85278 -6.90625,7.96875 -1.37083,2.80951 -1.85785,4.71929 -2.4375,9.125 -0.40198,3.05543 -1.12355,7.9103 -1.5625,10.8125 -0.47987,3.17277 -0.64045,6.17786 -0.4375,7.53125 0.34318,2.28848 2.36119,6.83763 3.28125,7.40625 0.27814,0.1719 0.67455,0.76548 0.90625,1.375 0.23175,0.60953 1.35965,1.60803 2.53125,2.1875 1.926,0.95261 2.7267,1.0383 8.0625,0.8125 8.62741,-0.3651 9.17236,-0.35155 16.96875,0.0312 l 7.09375,0.3125 2.5,-1.65625 c 1.40983,-0.9502 3.08827,-2.68137 3.96875,-4.09375 0.84313,-1.35239 2.09623,-3.04953 2.78125,-3.78125 2.32692,-2.48549 3.23036,-4.56995 4.03125,-9.25 0.6498,-3.79701 1.19295,-5.29597 2.875,-8.09375 2.83739,-4.71946 3.3125,-5.92588 3.3125,-8.5 0,-3.33836 -1.69533,-6.13224 -6.90625,-11.5 -2.56954,-2.64689 -5.49179,-5.78697 -6.5,-6.96875 -2.09481,-2.45528 -4.22908,-3.3125 -8.40625,-3.3125 z m 0.78125,1.5 c 2.54775,0 2.90312,0.13993 5.25,2.25 1.38164,1.24221 2.5,2.54243 2.5,2.90625 0,0.36382 1.41996,1.95919 3.1875,3.53125 4.33273,3.85358 6.34457,6.47404 7.375,9.75 0.84967,2.70134 0.8416,2.81868 -0.25,5.8125 -0.60985,1.6726 -1.47152,3.31199 -1.90625,3.65625 -1.93702,1.5339 -2.36311,1.59084 -3.96875,0.40625 -0.86778,-0.64022 -2.20698,-1.42153 -3,-1.75 -1.57243,-0.65133 -1.89993,-1.98844 -0.71875,-2.96875 0.40574,-0.33671 0.75345,-0.9973 0.75,-1.4375 -0.005,-0.56604 -0.13736,-0.57939 -0.40625,-0.15625 -0.20912,0.3291 -1.4742,1.13218 -2.8125,1.84375 -2.02148,1.07478 -2.82746,1.28631 -4.75,1.03125 -2.74801,-0.36454 -5.40505,-1.44427 -6.28125,-2.5 -0.62152,-0.74889 -0.48596,-6.61827 0.28125,-13.3125 l 0.25,-2.5 -1.75,0.21875 -1.71875,0.21875 0.8125,1.375 c 0.74905,1.26805 0.77669,1.87574 0.21875,5.75 -0.34166,2.37232 -0.79913,4.51521 -1.03125,4.75 -0.23211,0.23474 -0.33704,1.14163 -0.1875,2.0625 0.19566,1.2057 0.0421,1.95355 -0.59375,2.65625 -0.48574,0.53671 -1.13508,1.48703 -1.4375,2.09375 -0.80528,1.61557 -4.50598,3.25597 -7.40625,3.28125 -2.88565,0.0252 -3.11604,-0.0983 -4.8125,-2.625 l -1.28125,-1.90625 -0.875,1.53125 c -0.8379,1.47196 -1.06461,1.55907 -3.875,1.5625 -1.95156,0.002 -3.33823,-0.28332 -4.09375,-0.8125 -1.02349,-0.7169 -1.09358,-1.06877 -0.8125,-3.1875 0.5774,-4.35288 4.00113,-10.34217 8,-13.9375 1.36386,-1.22622 2.71117,-2.21875 3,-2.21875 0.28885,0 0.78752,-0.42367 1.0625,-0.9375 0.73887,-1.38054 4.59734,-2.5 8.625,-2.5 2.59513,0 3.72466,-0.19232 4.1875,-0.75 1.27845,-1.54061 5.64133,-3.1875 8.46875,-3.1875 z m -5.25,24.9375 c 0.83336,-0.0291 2.0551,0.12884 3.84375,0.4375 6.3092,1.08878 6.4714,1.1848 8.28125,4.96875 L 168.125,199.46875 168.28125,197 c 0.0839,-1.3524 0.34849,-2.62701 0.5625,-2.84375 0.21405,-0.21674 1.08587,0.40503 1.9375,1.375 1.45332,1.65509 1.53125,1.99981 1.53125,5.59375 0,4.49235 -1.00341,7.77805 -2.875,9.5625 -0.85573,0.81588 -2.68811,1.60917 -5.21875,2.28125 -7.19719,1.91136 -10.59375,3.05963 -10.59375,3.5625 0,0.60887 1.87852,0.35504 7.34375,-1.03125 2.522,-0.63964 4.31825,-0.90047 4.59375,-0.625 0.99384,0.99385 -0.0152,2.27728 -3.03125,3.84375 -2.49042,1.29347 -3.7265,1.63683 -5.90625,1.625 -1.5147,-0.007 -3.17778,-0.29662 -3.71875,-0.625 -0.6715,-0.40748 -2.87726,-0.55076 -6.90625,-0.4375 -3.24574,0.0913 -7.5339,0.2075 -9.5625,0.25 -6.84337,0.14314 -10.00007,-2.15542 -11.65625,-8.59375 -1.00873,-3.92369 -1.00487,-5.49154 0,-10.9375 0.95732,-5.18822 1.389,-5.85413 3.46875,-5.4375 3.11149,0.62329 3.25,0.71057 3.25,2.4375 0,2.20084 0.74023,2.55948 1.8125,0.875 1.12281,-1.76384 1.61114,-2.08456 3.125,-2.09375 1.45202,-0.009 3.13184,1.70484 2.71875,2.78125 -0.5743,1.49666 0.74983,4.40909 3.875,8.4375 2.87265,3.703 3.21302,4.36856 3.21875,6.40625 0.0103,3.11832 0.68317,4.07421 1.40625,2 0.93706,-2.68809 0.69574,-5.19835 -0.75,-7.46875 -0.72829,-1.14375 -1.60579,-2.29202 -1.90625,-2.5625 -1.53793,-1.3845 -3.7093,-5.26864 -3.4375,-6.125 0.32133,-1.01248 7.57208,-4.82495 9.625,-5.0625 0.92232,-0.10672 1.22969,-0.48122 1.34375,-1.46875 0.15928,-1.37814 0.48609,-1.95156 1.875,-2 z" />
  </g>
</svg>
