<?xml version="1.0" encoding="UTF-8" standalone="no"?>
<!-- Created with Inkscape (http://www.inkscape.org/) -->

<svg
   xmlns:dc="http://purl.org/dc/elements/1.1/"
   xmlns:cc="http://creativecommons.org/ns#"
   xmlns:rdf="http://www.w3.org/1999/02/22-rdf-syntax-ns#"
   xmlns:svg="http://www.w3.org/2000/svg"
   xmlns="http://www.w3.org/2000/svg"
   xmlns:sodipodi="http://sodipodi.sourceforge.net/DTD/sodipodi-0.dtd"
   xmlns:inkscape="http://www.inkscape.org/namespaces/inkscape"
   width="800"
   height="400"
   id="svg2"
   version="1.1"
   inkscape:version="0.48.2 r9819"
   sodipodi:docname="m3.svg">
  <defs
     id="defs4" />
  <sodipodi:namedview
     id="base"
     pagecolor="#ffffff"
     bordercolor="#666666"
     borderopacity="1.0"
     inkscape:pageopacity="0.0"
     inkscape:pageshadow="2"
     inkscape:zoom="4"
     inkscape:cx="87.90643"
     inkscape:cy="262.9067"
     inkscape:document-units="px"
     inkscape:current-layer="layer1"
     showgrid="false"
     showguides="true"
     inkscape:guide-bbox="true"
     inkscape:window-width="1366"
     inkscape:window-height="746"
     inkscape:window-x="-8"
     inkscape:window-y="-8"
     inkscape:window-maximized="1"
     width="0px"
     height="0px"
     fit-margin-top="0"
     fit-margin-left="0"
     fit-margin-right="0"
     fit-margin-bottom="0">
    <sodipodi:guide
       orientation="1,0"
       position="400.22244,349.31075"
       id="guide3178" />
    <sodipodi:guide
       orientation="0,1"
       position="-117.37973,199.40411"
       id="guide3180" />
  </sodipodi:namedview>
  <metadata
     id="metadata7">
    <rdf:RDF>
      <cc:Work
         rdf:about="">
        <dc:format>image/svg+xml</dc:format>
        <dc:type
           rdf:resource="http://purl.org/dc/dcmitype/StillImage" />
        <dc:title></dc:title>
      </cc:Work>
    </rdf:RDF>
  </metadata>
  <g
     inkscape:label="Layer 1"
     inkscape:groupmode="layer"
     id="layer1"
     transform="translate(0,-652.36218)">
    <path
       id="rect3225"
       transform="translate(0,652.36218)"
       style="fill:#ff0000"
       d="m 143.03125,137.03125 c -1.99206,0 -3.07206,0.32065 -5.96875,1.78125 -3.12334,1.57478 -3.79236,1.76428 -5.5625,1.53125 -3.11535,-0.41012 -5.46252,0.70662 -10.6875,5.15625 -4.0438,3.44372 -4.78009,4.30612 -6.125,7.0625 -1.21263,2.48529 -1.64348,4.16522 -2.15625,8.0625 -0.35559,2.70285 -0.98669,6.99523 -1.375,9.5625 -0.42448,2.80665 -0.55453,5.45904 -0.375,6.65625 0.30357,2.0244 2.06113,6.02826 2.875,6.53125 0.24604,0.15207 0.60754,0.71081 0.8125,1.25 0.20501,0.53919 1.2136,1.42491 2.25,1.9375 1.70373,0.84269 2.37369,0.88725 7.09375,0.6875 7.63182,-0.32296 8.13455,-0.30741 15.03125,0.0312 l 6.28125,0.3125 2.1875,-1.46875 c 1.24712,-0.84055 2.75239,-2.37562 3.53125,-3.625 0.74585,-1.19634 1.83153,-2.7277 2.4375,-3.375 2.05839,-2.19865 2.88527,-4.01627 3.59375,-8.15625 0.57481,-3.35884 1.07454,-4.68133 2.5625,-7.15625 2.50994,-4.17483 2.90625,-5.25417 2.90625,-7.53125 0,-2.95312 -1.48418,-5.43917 -6.09375,-10.1875 -2.27302,-2.34142 -4.85815,-5.11086 -5.75,-6.15625 -1.85307,-2.17195 -3.77362,-2.90625 -7.46875,-2.90625 z m 0.71875,1.3125 c 2.25374,0 2.54895,0.13342 4.625,2 1.22221,1.09886 2.21875,2.24067 2.21875,2.5625 0,0.32184 1.28018,1.70309 2.84375,3.09375 3.83272,3.40888 5.58849,5.75835 6.5,8.65625 0.75162,2.38961 0.74689,2.47668 -0.21875,5.125 -0.53947,1.4796 -1.30293,2.94546 -1.6875,3.25 -1.71347,1.35688 -2.07965,1.39164 -3.5,0.34375 -0.76763,-0.56633 -1.95475,-1.2407 -2.65625,-1.53125 -1.39099,-0.57617 -1.70114,-1.75781 -0.65625,-2.625 0.3589,-0.29786 0.69056,-0.86059 0.6875,-1.25 -0.005,-0.50072 -0.1059,-0.5618 -0.34375,-0.1875 -0.18499,0.29113 -1.34741,1.02678 -2.53125,1.65625 -1.78822,0.95075 -2.48682,1.13187 -4.1875,0.90625 -2.4309,-0.32248 -4.7874,-1.2536 -5.5625,-2.1875 -0.54979,-0.66248 -0.42868,-5.85953 0.25,-11.78125 l 0.25,-2.25 -1.5625,0.21875 -1.53125,0.1875 0.71875,1.21875 c 0.66262,1.12172 0.68106,1.66657 0.1875,5.09375 -0.30224,2.09855 -0.7009,3.97979 -0.90625,4.1875 -0.20531,0.20766 -0.28855,1.02914 -0.15625,1.84375 0.17306,1.06656 0.0312,1.72214 -0.53125,2.34375 -0.42967,0.47477 -1.01371,1.30703 -1.28125,1.84375 -0.71234,1.42913 -3.96568,2.88387 -6.53125,2.90625 -2.55266,0.0222 -2.74931,-0.10856 -4.25,-2.34375 l -1.15625,-1.65625 -0.75,1.34375 c -0.7412,1.30208 -0.95142,1.37196 -3.4375,1.375 -1.72636,0.002 -2.95666,-0.21939 -3.625,-0.6875 -0.90537,-0.63416 -0.96741,-0.9695 -0.71875,-2.84375 0.51076,-3.85055 3.52511,-9.13207 7.0625,-12.3125 1.20647,-1.08471 2.43198,-1.96875 2.6875,-1.96875 0.25551,0 0.66301,-0.38922 0.90625,-0.84375 0.65361,-1.22124 4.09337,-2.21875 7.65625,-2.21875 2.29566,0 3.27807,-0.16294 3.6875,-0.65625 1.13093,-1.36284 4.99887,-2.8125 7.5,-2.8125 z m -4.65625,22.0625 c 0.7372,-0.0258 1.82401,0.10196 3.40625,0.375 5.58112,0.96314 5.74274,1.05896 7.34375,4.40625 l 1.375,2.96875 0.125,-2.1875 c 0.0742,-1.19634 0.34193,-2.33953 0.53125,-2.53125 0.18934,-0.19173 0.9654,0.36072 1.71875,1.21875 1.28563,1.4641 1.34375,1.75831 1.34375,4.9375 0,3.97395 -0.87564,6.89022 -2.53125,8.46875 -0.75698,0.72172 -2.38638,1.43673 -4.625,2.03125 -6.36664,1.6908 -9.375,2.68015 -9.375,3.125 0,0.53859 1.66546,0.32007 6.5,-0.90625 2.23097,-0.56582 3.81879,-0.77494 4.0625,-0.53125 0.87915,0.87916 -0.0194,1.98929 -2.6875,3.375 -2.20302,1.1442 -3.29055,1.44796 -5.21875,1.4375 -1.33991,-0.007 -2.80271,-0.24076 -3.28125,-0.53125 -0.59403,-0.36045 -2.56095,-0.47518 -6.125,-0.375 -2.87117,0.0808 -6.67426,0.18116 -8.46875,0.21875 -6.05366,0.12662 -8.8162,-1.92965 -10.28125,-7.625 -0.89234,-3.47091 -0.8889,-4.83875 0,-9.65625 0.84684,-4.58951 1.1915,-5.18105 3.03125,-4.8125 2.75242,0.55138 2.90625,0.62861 2.90625,2.15625 0,1.94687 0.64522,2.24009 1.59375,0.75 0.99324,-1.56029 1.41082,-1.83563 2.75,-1.84375 1.28446,-0.008 2.77167,1.51655 2.40625,2.46875 -0.50804,1.32395 0.67296,3.90523 3.4375,7.46875 2.54114,3.27569 2.86993,3.85371 2.875,5.65625 0.01,2.75846 0.57912,3.6161 1.21875,1.78125 0.82892,-2.37789 0.62266,-4.58534 -0.65625,-6.59375 -0.64424,-1.01176 -1.4217,-2.07323 -1.6875,-2.3125 -1.36045,-1.22472 -3.30294,-4.61748 -3.0625,-5.375 0.28425,-0.89565 6.71523,-4.28987 8.53125,-4.5 0.81588,-0.0944 1.08662,-0.40767 1.1875,-1.28125 0.14091,-1.2191 0.42763,-1.73839 1.65625,-1.78125 z" />
  </g>
</svg>
