<?xml version="1.0" encoding="UTF-8" standalone="no"?>
<!-- Created with Inkscape (http://www.inkscape.org/) -->

<svg
   xmlns:dc="http://purl.org/dc/elements/1.1/"
   xmlns:cc="http://creativecommons.org/ns#"
   xmlns:rdf="http://www.w3.org/1999/02/22-rdf-syntax-ns#"
   xmlns:svg="http://www.w3.org/2000/svg"
   xmlns="http://www.w3.org/2000/svg"
   xmlns:sodipodi="http://sodipodi.sourceforge.net/DTD/sodipodi-0.dtd"
   xmlns:inkscape="http://www.inkscape.org/namespaces/inkscape"
   width="800"
   height="700"
   id="svg2"
   version="1.1"
   inkscape:version="0.48.2 r9819"
   sodipodi:docname="m21-fill.svg">
  <defs
     id="defs4" />
  <sodipodi:namedview
     id="base"
     pagecolor="#ffffff"
     bordercolor="#666666"
     borderopacity="1.0"
     inkscape:pageopacity="0.0"
     inkscape:pageshadow="2"
     inkscape:zoom="3.535534"
     inkscape:cx="172.85221"
     inkscape:cy="145.01413"
     inkscape:document-units="px"
     inkscape:current-layer="layer1"
     showgrid="false"
     showguides="true"
     inkscape:guide-bbox="true"
     inkscape:window-width="1024"
     inkscape:window-height="538"
     inkscape:window-x="-8"
     inkscape:window-y="-8"
     inkscape:window-maximized="1"
     width="0px"
     height="0px"
     fit-margin-top="0"
     fit-margin-left="0"
     fit-margin-right="0"
     fit-margin-bottom="0">
    <sodipodi:guide
       orientation="1,0"
       position="400.22244,349.31075"
       id="guide3178" />
    <sodipodi:guide
       orientation="0,1"
       position="400.22244,349.31075"
       id="guide3180" />
  </sodipodi:namedview>
  <metadata
     id="metadata7">
    <rdf:RDF>
      <cc:Work
         rdf:about="">
        <dc:format>image/svg+xml</dc:format>
        <dc:type
           rdf:resource="http://purl.org/dc/dcmitype/StillImage" />
        <dc:title />
      </cc:Work>
    </rdf:RDF>
  </metadata>
  <g
     inkscape:label="Layer 1"
     inkscape:groupmode="layer"
     id="layer1"
     transform="translate(0,-352.36218)">
    <path
       id="rect4210"
       transform="translate(0,352.36218)"
       style="fill:#00ff00"
       d="m 230.40625,531.09375 c -3.41936,0 -4.25316,0.15448 -6.09375,1.125 -4.91335,2.59138 -6.40635,5.25916 -6.34375,11.5 0.0494,4.94271 0.66762,8.37036 1.90625,10.4375 2.7197,4.53901 6.26139,7.40625 9.125,7.40625 0.92554,0 2.5239,-0.46055 3.53125,-0.96875 1.00735,-0.5079 2.38148,-1.60105 3.09375,-2.46875 0.71226,-0.8676 2.30175,-2.65277 3.53125,-3.96875 3.20083,-3.42597 3.8852,-5.12179 3.875,-9.59375 -0.009,-4.30954 -0.57341,-5.47723 -3.09375,-6.34375 -2.57215,-0.88437 -2.95413,-0.31649 -2.65625,4.28125 0.20188,3.11596 0.15956,3.8125 -0.34375,3.8125 -0.3388,0 -0.73196,-0.56097 -0.875,-1.21875 -0.81854,-3.7652 -1.30221,-4.63886 -2.8125,-5.375 -0.83747,-0.4081 -2.52826,-0.76975 -3.75,-0.78125 -1.89143,-0.0173 -2.49861,0.21764 -4.21875,1.53125 -1.1111,0.84833 -2.03125,1.70927 -2.03125,1.9375 0,0.22823 -0.28894,0.40625 -0.65625,0.40625 -0.54686,0 -0.594,-0.14668 -0.1875,-0.90625 0.27308,-0.51033 0.51795,-2.0649 0.53125,-3.46875 0.0137,-1.40408 0.0813,-2.5625 0.15625,-2.5625 0.0749,0 0.41479,0.57266 0.78125,1.28125 l 0.6875,1.28125 2,-0.8125 c 2.34082,-1.00318 5.2561,-1.14052 7.3125,-0.28125 1.45573,0.60811 1.49106,0.62081 2.84375,-1.0625 1.14344,-1.42287 1.27767,-1.84148 0.875,-2.59375 -1.00781,-1.8833 -2.94528,-2.59175 -7.1875,-2.59375 z" />
  </g>
</svg>
