<?xml version="1.0" encoding="UTF-8" standalone="no"?>
<!-- Created with Inkscape (http://www.inkscape.org/) -->

<svg
   xmlns:dc="http://purl.org/dc/elements/1.1/"
   xmlns:cc="http://creativecommons.org/ns#"
   xmlns:rdf="http://www.w3.org/1999/02/22-rdf-syntax-ns#"
   xmlns:svg="http://www.w3.org/2000/svg"
   xmlns="http://www.w3.org/2000/svg"
   xmlns:sodipodi="http://sodipodi.sourceforge.net/DTD/sodipodi-0.dtd"
   xmlns:inkscape="http://www.inkscape.org/namespaces/inkscape"
   width="800"
   height="700"
   id="svg2"
   version="1.1"
   inkscape:version="0.48.2 r9819"
   sodipodi:docname="m21.svg">
  <defs
     id="defs4" />
  <sodipodi:namedview
     id="base"
     pagecolor="#ffffff"
     bordercolor="#666666"
     borderopacity="1.0"
     inkscape:pageopacity="0.0"
     inkscape:pageshadow="2"
     inkscape:zoom="3.535534"
     inkscape:cx="172.85221"
     inkscape:cy="122.38671"
     inkscape:document-units="px"
     inkscape:current-layer="layer1"
     showgrid="false"
     showguides="true"
     inkscape:guide-bbox="true"
     inkscape:window-width="1366"
     inkscape:window-height="746"
     inkscape:window-x="-8"
     inkscape:window-y="-8"
     inkscape:window-maximized="1"
     width="0px"
     height="0px"
     fit-margin-top="0"
     fit-margin-left="0"
     fit-margin-right="0"
     fit-margin-bottom="0">
    <sodipodi:guide
       orientation="1,0"
       position="400.22244,349.31075"
       id="guide3178" />
    <sodipodi:guide
       orientation="0,1"
       position="400.22244,349.31075"
       id="guide3180" />
  </sodipodi:namedview>
  <metadata
     id="metadata7">
    <rdf:RDF>
      <cc:Work
         rdf:about="">
        <dc:format>image/svg+xml</dc:format>
        <dc:type
           rdf:resource="http://purl.org/dc/dcmitype/StillImage" />
        <dc:title></dc:title>
      </cc:Work>
    </rdf:RDF>
  </metadata>
  <g
     inkscape:label="Layer 1"
     inkscape:groupmode="layer"
     id="layer1"
     transform="translate(0,-352.36218)">
    <path
       style="fill:#ff0000"
       d="m 230.40625,883.45593 c 4.24222,0.002 6.17969,0.71045 7.1875,2.59375 0.40267,0.75227 0.26844,1.17088 -0.875,2.59375 -1.35269,1.68331 -1.38802,1.67061 -2.84375,1.0625 -2.0564,-0.85927 -4.97168,-0.72193 -7.3125,0.28125 l -2,0.8125 -0.6875,-1.28125 c -0.36646,-0.70859 -0.70635,-1.28125 -0.78125,-1.28125 -0.0749,0 -0.14255,1.15842 -0.15625,2.5625 -0.0133,1.40385 -0.25817,2.95842 -0.53125,3.46875 -0.4065,0.75957 -0.35936,0.90625 0.1875,0.90625 0.36731,0 0.65625,-0.17802 0.65625,-0.40625 0,-0.22823 0.92015,-1.08917 2.03125,-1.9375 1.72014,-1.31361 2.32732,-1.54852 4.21875,-1.53125 1.22174,0.0115 2.91253,0.37315 3.75,0.78125 1.51029,0.73614 1.99396,1.6098 2.8125,5.375 0.14304,0.65778 0.5362,1.21875 0.875,1.21875 0.50331,0 0.54563,-0.69654 0.34375,-3.8125 -0.29788,-4.59774 0.0841,-5.16562 2.65625,-4.28125 2.52034,0.86652 3.08458,2.03421 3.09375,6.34375 0.0102,4.47196 -0.67417,6.16778 -3.875,9.59375 -1.2295,1.31598 -2.81899,3.10115 -3.53125,3.96875 -0.71227,0.8677 -2.0864,1.96085 -3.09375,2.46875 -1.00735,0.5082 -2.60571,0.96875 -3.53125,0.96875 -2.86361,0 -6.4053,-2.86724 -9.125,-7.40625 -1.23863,-2.06714 -1.85687,-5.49479 -1.90625,-10.4375 -0.0626,-6.24084 1.4304,-8.90862 6.34375,-11.5 1.84059,-0.97052 2.67439,-1.125 6.09375,-1.125 z"
       id="rect3258" />
  </g>
</svg>
