<?xml version="1.0" encoding="UTF-8" standalone="no"?>
<!-- Created with Inkscape (http://www.inkscape.org/) -->

<svg
   xmlns:dc="http://purl.org/dc/elements/1.1/"
   xmlns:cc="http://creativecommons.org/ns#"
   xmlns:rdf="http://www.w3.org/1999/02/22-rdf-syntax-ns#"
   xmlns:svg="http://www.w3.org/2000/svg"
   xmlns="http://www.w3.org/2000/svg"
   xmlns:sodipodi="http://sodipodi.sourceforge.net/DTD/sodipodi-0.dtd"
   xmlns:inkscape="http://www.inkscape.org/namespaces/inkscape"
   width="800"
   height="700"
   id="svg2"
   version="1.1"
   inkscape:version="0.48.2 r9819"
   sodipodi:docname="m32-fill.svg">
  <defs
     id="defs4" />
  <sodipodi:namedview
     id="base"
     pagecolor="#ffffff"
     bordercolor="#666666"
     borderopacity="1.0"
     inkscape:pageopacity="0.0"
     inkscape:pageshadow="2"
     inkscape:zoom="2.5"
     inkscape:cx="637.99206"
     inkscape:cy="143.67183"
     inkscape:document-units="px"
     inkscape:current-layer="layer1"
     showgrid="false"
     showguides="true"
     inkscape:guide-bbox="true"
     inkscape:window-width="1024"
     inkscape:window-height="538"
     inkscape:window-x="-8"
     inkscape:window-y="-8"
     inkscape:window-maximized="1"
     width="0px"
     height="0px"
     fit-margin-top="0"
     fit-margin-left="0"
     fit-margin-right="0"
     fit-margin-bottom="0">
    <sodipodi:guide
       orientation="1,0"
       position="400.22244,349.31075"
       id="guide3178" />
    <sodipodi:guide
       orientation="0,1"
       position="400.22244,349.31075"
       id="guide3180" />
  </sodipodi:namedview>
  <metadata
     id="metadata7">
    <rdf:RDF>
      <cc:Work
         rdf:about="">
        <dc:format>image/svg+xml</dc:format>
        <dc:type
           rdf:resource="http://purl.org/dc/dcmitype/StillImage" />
        <dc:title />
      </cc:Work>
    </rdf:RDF>
  </metadata>
  <g
     inkscape:label="Layer 1"
     inkscape:groupmode="layer"
     id="layer1"
     transform="translate(0,-352.36218)">
    <path
       id="rect4765"
       transform="translate(0,352.36218)"
       style="fill:#00ff00"
       d="m 778.1875,518.90625 c -1.24161,0 -3.04794,0.41457 -4.0625,0.875 -2.21061,1.00368 -2.89622,2.7253 -2.6875,6.9375 0.16143,3.25717 0.84288,3.8034 1.90625,1.5625 0.4059,-0.85532 0.93015,-1.6728 1.15625,-1.8125 0.74106,-0.4581 0.94293,0.25964 0.40625,1.4375 -0.65152,1.42988 -0.30385,1.80625 2.15625,2.3125 2.1863,0.45007 5.09429,0.19985 5.9375,-0.5 0.31193,-0.25884 0.71678,-1.0502 0.90625,-1.78125 0.4305,-1.66137 1.40625,-2.12942 1.40625,-0.65625 0,1.25763 1.01147,2.26151 1.9375,1.90625 0.77085,-0.29581 0.63184,-0.86272 -1.125,-4.40625 -1.81539,-3.66185 -4.81544,-5.8883 -7.9375,-5.875 z m -11.375,0.0625 c -0.69259,7e-4 -1.45858,0.007 -2.25,0.0312 -4.83335,0.15041 -5.83821,0.32775 -7.53125,1.21875 -1.07666,0.56661 -2.30538,1.33951 -2.75,1.71875 -1.19514,1.01922 -2.90625,4.58694 -2.90625,6.09375 0,1.10357 0.24271,1.43559 1.59375,2 2.09394,0.87501 2.75,0.55866 2.75,-1.28125 0,-3.41844 1.18268,-3.92979 1.375,-0.59375 0.11432,1.98237 0.29951,2.32901 1.3125,2.8125 0.85734,0.40932 1.66811,0.46823 3.0625,0.15625 1.42017,-0.31817 2.33256,-0.30133 3.625,0.15625 0.94874,0.33586 2.01611,0.5881 2.375,0.5 0.35897,-0.0887 1.08162,-0.31246 1.625,-0.46875 0.94765,-0.27263 1.01285,-0.47076 0.96875,-4.71875 -0.0252,-2.4347 0.16918,-4.9906 0.4375,-5.6875 0.3047,-0.7908 0.31782,-1.43213 0.0625,-1.6875 -0.17372,-0.1736 -1.67229,-0.252 -3.75,-0.25 z m -15.6875,12.125 c -0.59264,0.0231 -1.12003,0.42869 -1.4375,1.125 -0.80093,1.75782 -0.57535,5.80271 0.40625,7.78125 3.14477,6.3393 3.57222,6.90367 6.4375,8.375 2.30524,1.18375 3.23268,1.41125 5.65625,1.40625 1.59407,-0.003 3.32897,-0.23573 3.84375,-0.53125 0.51471,-0.29559 2.13014,-1.18664 3.59375,-2 3.12139,-1.73443 3.53169,-2.7026 2.25,-5.125 -1.43293,-2.70834 -2.38625,-3.72563 -3.21875,-3.40625 -0.4089,0.15689 -0.75,0.46864 -0.75,0.65625 0,0.39753 -3.17912,1.71875 -4.125,1.71875 -1.33052,0 -0.59484,-1.2792 1.28125,-2.1875 2.77066,-1.34134 4.5403,-3.56671 4.03125,-5.09375 -0.0596,-0.17956 -0.78757,-0.39 -1.625,-0.4375 -0.83741,-0.0478 -3.41865,-0.21464 -5.75,-0.375 -5.00162,-0.34375 -5.69468,-0.0205 -7.25,3.09375 -0.89273,1.78757 -0.92307,2.15526 -0.4375,3.0625 0.69358,1.29605 0.1819,1.93189 -0.78125,0.96875 -0.65898,-0.65921 -0.67514,-0.97344 -0.0312,-3.90625 0.68381,-3.11482 0.68261,-3.19626 -0.21875,-4.15625 -0.61962,-0.66003 -1.28232,-0.99195 -1.875,-0.96875 z m 35.28125,0 c -0.92548,0 -1.09375,0.20332 -1.09375,1.28125 0,0.70361 0.19823,1.41465 0.4375,1.5625 0.67884,0.41951 0.52402,1.53125 -0.21875,1.53125 -0.36696,0 -1.09966,-0.69389 -1.59375,-1.53125 -0.87152,-1.47722 -0.97426,-1.5322 -3.78125,-1.625 -5.08532,-0.16795 -6.20577,-0.0752 -6.9375,0.65625 -0.66146,0.66143 -0.60385,0.83146 0.28125,2.40625 1.00718,1.79205 1.24934,3.53125 0.5,3.53125 -0.24516,0 -0.63532,-0.42043 -0.84375,-0.96875 -0.58863,-1.54825 -1.54105,-2.21016 -2.15625,-1.46875 -0.39951,0.48127 -0.17508,1.0451 1.09375,2.71875 0.88222,1.16353 1.76751,2.20155 1.96875,2.28125 0.2012,0.0793 0.375,1.08213 0.375,2.21875 0,1.1365 0.13304,2.19082 0.3125,2.375 0.17942,0.18425 1.58634,0.21829 3.125,0.0625 2.06459,-0.20779 3.21496,-0.59257 4.40625,-1.46875 1.86475,-1.37113 4.5254,-4.40222 5.53125,-6.34375 0.81557,-1.57448 0.89104,-4.3402 0.1875,-6.03125 -0.35681,-0.85797 -0.80625,-1.1875 -1.59375,-1.1875 z" />
  </g>
</svg>
