<?xml version="1.0" encoding="UTF-8" standalone="no"?>
<!-- Created with Inkscape (http://www.inkscape.org/) -->

<svg
   xmlns:dc="http://purl.org/dc/elements/1.1/"
   xmlns:cc="http://creativecommons.org/ns#"
   xmlns:rdf="http://www.w3.org/1999/02/22-rdf-syntax-ns#"
   xmlns:svg="http://www.w3.org/2000/svg"
   xmlns="http://www.w3.org/2000/svg"
   xmlns:sodipodi="http://sodipodi.sourceforge.net/DTD/sodipodi-0.dtd"
   xmlns:inkscape="http://www.inkscape.org/namespaces/inkscape"
   width="800"
   height="700"
   id="svg2"
   version="1.1"
   inkscape:version="0.48.2 r9819"
   sodipodi:docname="f22-fill.svg">
  <defs
     id="defs4" />
  <sodipodi:namedview
     id="base"
     pagecolor="#ffffff"
     bordercolor="#666666"
     borderopacity="1.0"
     inkscape:pageopacity="0.0"
     inkscape:pageshadow="2"
     inkscape:zoom="2.5"
     inkscape:cx="367.87013"
     inkscape:cy="228.85406"
     inkscape:document-units="px"
     inkscape:current-layer="layer1"
     showgrid="false"
     showguides="true"
     inkscape:guide-bbox="true"
     inkscape:window-width="1024"
     inkscape:window-height="538"
     inkscape:window-x="-8"
     inkscape:window-y="-8"
     inkscape:window-maximized="1"
     width="0px"
     height="0px"
     fit-margin-top="0"
     fit-margin-left="0"
     fit-margin-right="0"
     fit-margin-bottom="0">
    <sodipodi:guide
       orientation="1,0"
       position="400.22244,349.31075"
       id="guide3178" />
    <sodipodi:guide
       orientation="0,1"
       position="400.22244,349.31075"
       id="guide3180" />
  </sodipodi:namedview>
  <metadata
     id="metadata7">
    <rdf:RDF>
      <cc:Work
         rdf:about="">
        <dc:format>image/svg+xml</dc:format>
        <dc:type
           rdf:resource="http://purl.org/dc/dcmitype/StillImage" />
        <dc:title />
      </cc:Work>
    </rdf:RDF>
  </metadata>
  <g
     inkscape:label="Layer 1"
     inkscape:groupmode="layer"
     id="layer1"
     transform="translate(0,-352.36218)">
    <path
       id="rect4237"
       transform="translate(0,352.36218)"
       style="fill:#00ff00"
       d="m 272.65625,467.1875 c -0.75503,-0.003 -1.47655,0.14202 -2.125,0.4375 -1.15898,0.52799 -3.13843,3.61099 -4.875,7.5625 -2.17923,4.95859 -3.29269,7.41446 -3.78125,8.28125 -2.88433,5.11804 -3.10419,6.94361 -1.25,11.5 1.2869,3.16226 2.05707,4.34104 3.84375,5.8125 0.53964,0.44445 1.23345,1.05403 1.53125,1.34375 1.69788,1.6507 7.87363,6.34375 8.34375,6.34375 0.30567,0 0.80779,0.28051 1.09375,0.625 1.26224,1.52093 3.6974,1.2018 6.96875,-0.9375 3.05354,-1.9967 4.67538,-3.79392 5.21875,-5.75 1.0148,-3.65301 0.13457,-10.62665 -2.34375,-18.3125 -0.57863,-1.79448 -1.62542,-5.04872 -2.28125,-7.25 -1.0055,-3.37501 -1.47465,-4.29523 -3.09375,-5.9375 -2.35648,-2.39015 -4.98492,-3.71075 -7.25,-3.71875 z m -2.09375,9.15625 c 0.079,-0.002 0.1613,-0.0127 0.25,0 0.80103,0.11432 0.97241,0.51322 1.1875,2.96875 0.13619,1.55518 0.51289,3.33939 0.84375,3.9375 0.33083,0.59813 0.65945,1.29194 0.71875,1.53125 0.0593,0.23921 0.24671,0.83653 0.40625,1.375 0.3125,1.0544 -0.4,1.3959 -1,0.46875 -0.19356,-0.29909 -0.84368,-2.09943 -1.46875,-4 l -1.15625,-3.46875 -1.59375,3.1875 c -2.08432,4.15306 -3.84174,7.15829 -4.28125,7.34375 -0.19223,0.0813 -0.22032,1.70079 -0.0625,3.59375 0.20256,2.42891 0.15788,3.4375 -0.1875,3.4375 -0.26907,1.1e-4 -0.5963,-0.51267 -0.75,-1.125 -0.83734,-3.33625 0.79429,-9.31173 3.9375,-14.3125 0.60154,-0.95705 1.39383,-2.49644 1.78125,-3.40625 0.47403,-1.11314 0.82185,-1.51405 1.375,-1.53125 z M 278.5,477.25 c 0.30972,-0.0547 0.66924,0.0697 1,0.40625 0.3167,0.32224 0.99666,1.85106 1.5625,3.40625 0.56585,1.55517 1.2023,3.01067 1.375,3.25 0.17263,0.23921 0.46358,1.1313 0.625,1.96875 0.16141,0.83743 0.5421,2.81982 0.875,4.375 1.64078,7.66591 1.64411,8.05101 0.375,9.96875 -0.63792,0.96396 -1.32379,1.75 -1.53125,1.75 -0.20747,0 -0.367,0.26334 -0.375,0.5625 -0.0206,0.71266 -2.15225,3.27794 -2.15625,2.59375 -0.001,-0.28851 0.59471,-1.50145 1.3125,-2.71875 1.16428,-1.97466 1.28133,-2.59663 1.28125,-5.78125 -10e-5,-4.34634 -0.87256,-9.09054 -2.4375,-13.3125 -1.22029,-3.29215 -1.68544,-3.48207 -2.03125,-0.90625 -0.21144,1.575 -1.58252,4.33875 -2.15625,4.34375 -0.56748,0 -0.34759,-2.33054 0.34375,-3.65625 0.36547,-0.70097 0.74995,-1.6921 0.84375,-2.1875 0.0939,-0.49558 0.2068,-1.00541 0.25,-1.125 0.0431,-0.11972 0.0433,-0.74776 0,-1.40625 -0.0568,-0.86345 0.32753,-1.43995 0.84375,-1.53125 z" />
  </g>
</svg>
