<?xml version="1.0" encoding="UTF-8" standalone="no"?>
<!-- Created with Inkscape (http://www.inkscape.org/) -->

<svg
   xmlns:dc="http://purl.org/dc/elements/1.1/"
   xmlns:cc="http://creativecommons.org/ns#"
   xmlns:rdf="http://www.w3.org/1999/02/22-rdf-syntax-ns#"
   xmlns:svg="http://www.w3.org/2000/svg"
   xmlns="http://www.w3.org/2000/svg"
   xmlns:sodipodi="http://sodipodi.sourceforge.net/DTD/sodipodi-0.dtd"
   xmlns:inkscape="http://www.inkscape.org/namespaces/inkscape"
   width="800"
   height="400"
   id="svg2"
   version="1.1"
   inkscape:version="0.48.2 r9819"
   sodipodi:docname="f12.svg">
  <defs
     id="defs4" />
  <sodipodi:namedview
     id="base"
     pagecolor="#ffffff"
     bordercolor="#666666"
     borderopacity="1.0"
     inkscape:pageopacity="0.0"
     inkscape:pageshadow="2"
     inkscape:zoom="2.8284271"
     inkscape:cx="618.40625"
     inkscape:cy="308.71349"
     inkscape:document-units="px"
     inkscape:current-layer="layer1"
     showgrid="false"
     showguides="true"
     inkscape:guide-bbox="true"
     inkscape:window-width="1366"
     inkscape:window-height="746"
     inkscape:window-x="-8"
     inkscape:window-y="-8"
     inkscape:window-maximized="1"
     width="0px"
     height="0px"
     fit-margin-top="0"
     fit-margin-left="0"
     fit-margin-right="0"
     fit-margin-bottom="0">
    <sodipodi:guide
       orientation="1,0"
       position="400.22244,349.31075"
       id="guide3178" />
    <sodipodi:guide
       orientation="0,1"
       position="-117.37973,199.40411"
       id="guide3180" />
  </sodipodi:namedview>
  <metadata
     id="metadata7">
    <rdf:RDF>
      <cc:Work
         rdf:about="">
        <dc:format>image/svg+xml</dc:format>
        <dc:type
           rdf:resource="http://purl.org/dc/dcmitype/StillImage" />
        <dc:title></dc:title>
      </cc:Work>
    </rdf:RDF>
  </metadata>
  <g
     inkscape:label="Layer 1"
     inkscape:groupmode="layer"
     id="layer1"
     transform="translate(0,-652.36218)">
    <path
       id="rect3199"
       transform="translate(0,652.36218)"
       style="fill:#ff0000"
       d="m 569.6875,20.46875 c -1.205,0.0633 -2.3617,1.15015 -3.125,2.96875 -1.1933,2.84278 -1.37135,3.74849 -1.84375,9.9375 -0.2312,3.03016 -0.7075,7.00281 -1.0625,8.8125 -2.0306,10.35151 -2.98225,15.27605 -3.34375,17.40625 -0.6089,3.58705 -1.1043,5.99121 -1.875,9.125 -1.1724,4.76651 -2.00985,9.61728 -2.40625,13.71875 -0.8905,9.21499 -1.7183,13.28125 -2.6875,13.28125 -0.1662,0 -0.43875,0.92598 -0.59375,2.0625 -0.155,1.13651 -0.569,3.15993 -0.9375,4.53125 -0.8068,3.00235 -0.62755,11.68358 0.28125,13.40625 0.7982,1.51302 3.37565,3.82932 5.28125,4.75 0.8791,0.42473 1.89245,0.97947 2.21875,1.25 2.7698,2.29631 3.74295,2.97372 5.09375,3.40625 2.5119,0.80428 5.24495,0.70349 7.34375,-0.3125 1.0518,-0.50921 2.02685,-1.22541 2.15625,-1.5625 0.1293,-0.33706 0.77985,-0.8938 1.46875,-1.25 0.6887,-0.35617 1.25,-0.79936 1.25,-1 0,-0.20067 0.926,-1.35019 2.0625,-2.53125 1.1365,-1.18108 2.29205,-2.43944 2.53125,-2.8125 0.2393,-0.3731 0.77815,-1.18935 1.21875,-1.8125 1.2399,-1.75356 1.4148,-5.66038 0.375,-8.78125 -1.1341,-3.4044 -3.6483,-9.87403 -5,-12.875 -2.7539,-6.11339 -3.0797,-11.05003 -2.1875,-33.25 0.5646,-14.04554 1.10855,-17.14413 3.90625,-22.09375 0.7965,-1.40926 1.46875,-2.83445 1.46875,-3.15625 0,-0.32181 0.18205,-0.67402 0.40625,-0.8125 0.7017,-0.43367 2.625,-4.90453 2.625,-6.09375 0,-0.62984 -0.48985,-1.61485 -1.09375,-2.21875 -0.9216,-0.92149 -1.33635,-1.06278 -2.71875,-0.8125 -2.0061,0.36321 -3.39245,1.02616 -5.09375,2.5 -1.2219,1.05859 -1.3482,1.12097 -1.875,0.40625 -0.3095,-0.41989 -0.6857,-1.24561 -0.8125,-1.84375 -0.4077,-1.92389 -1.6787,-4.15432 -2.5,-4.3125 -0.1733,-0.0334 -0.35915,-0.04015 -0.53125,-0.03125 z m -0.5625,3.1875 c 0.5648,-0.0665 1.1472,0.3578 1.625,1.40625 0.6293,1.38121 1.68005,7.95468 2.03125,12.78125 0.148,2.03377 0.58965,5.64034 0.96875,8.03125 0.5715,3.60348 0.6116,6.03995 0.3125,14.15625 -0.4796,13.01375 -0.4846,15.83626 -0.0625,21.875 0.1967,2.81138 0.1967,5.06656 0,5.0625 -0.1967,-0.005 -1.0025,-0.56727 -1.8125,-1.28125 -1.425,-1.25607 -2.02695,0.45502 -5.84375,-1.3125 l -4.3125,0 -1.71875,1.53125 c -0.9269,0.83744 -1.85525,1.53125 -2.09375,1.53125 -0.9232,0 -0.24965,-7.60459 1.28125,-14.375 1.7157,-7.58764 2.59935,-12.01208 2.84375,-14.125 0.1383,-1.19634 0.75915,-4.54449 1.34375,-7.4375 2.1442,-10.61133 3.65625,-20.57273 3.65625,-23.90625 2e-4,-2.33518 0.83995,-3.82638 1.78125,-3.9375 z m 11.625,2.0625 c 0.3412,0.0156 0.6052,0.23023 1.0625,0.6875 l 0.90625,0.96875 -1.53125,2.5 c -1.5719,2.57387 -4.36125,8.2654 -4.90625,10.03125 -0.5361,1.73694 -0.99735,1.03705 -1.28125,-1.96875 -0.5483,-5.8063 -0.37045,-7.15657 1.03125,-9.0625 0.7093,-0.96456 2.084,-2.12127 3.0625,-2.5625 0.8794,-0.39657 1.31505,-0.60922 1.65625,-0.59375 z m -15.53125,60.4375 c 4.3479,-0.0274 7.8968,1.85413 9.3125,4.96875 0.3262,0.71782 0.8915,1.8081 1.25,2.40625 0.6223,1.03841 4.5506,9.21151 6.125,12.75 0.8515,1.91381 0.67025,4.42356 -0.53125,6.6875 -1.193,2.24802 -8.54785,9.51058 -10.65625,10.53125 -1.0557,0.51103 -2.38625,0.88556 -2.96875,0.875 -1.318,-0.0239 -4.07255,-1.43345 -5.90625,-3.03125 -0.7638,-0.66554 -2.66525,-1.9438 -4.21875,-2.8125 -2.2869,-1.27894 -3.00885,-1.93574 -3.78125,-3.53125 -0.8506,-1.75702 -0.9553,-2.46104 -0.75,-6.40625 0.275,-5.28472 1.3774,-9.57355 3.8125,-14.84375 2.8958,-6.26776 4.3464,-7.56875 8.3125,-7.59375 z" />
  </g>
</svg>
