<?xml version="1.0" encoding="UTF-8" standalone="no"?>
<!-- Created with Inkscape (http://www.inkscape.org/) -->

<svg
   xmlns:dc="http://purl.org/dc/elements/1.1/"
   xmlns:cc="http://creativecommons.org/ns#"
   xmlns:rdf="http://www.w3.org/1999/02/22-rdf-syntax-ns#"
   xmlns:svg="http://www.w3.org/2000/svg"
   xmlns="http://www.w3.org/2000/svg"
   xmlns:sodipodi="http://sodipodi.sourceforge.net/DTD/sodipodi-0.dtd"
   xmlns:inkscape="http://www.inkscape.org/namespaces/inkscape"
   width="900"
   height="800"
   id="svg2"
   version="1.1"
   inkscape:version="0.48+devel r11738"
   sodipodi:docname="f12.svg">
  <defs
     id="defs4" />
  <sodipodi:namedview
     id="base"
     pagecolor="#ffffff"
     bordercolor="#666666"
     borderopacity="1.0"
     inkscape:pageopacity="0.0"
     inkscape:pageshadow="2"
     inkscape:zoom="1.4142136"
     inkscape:cx="594.63024"
     inkscape:cy="630.99194"
     inkscape:document-units="px"
     inkscape:current-layer="layer1"
     showgrid="false"
     showguides="true"
     inkscape:guide-bbox="true"
     inkscape:window-width="1366"
     inkscape:window-height="705"
     inkscape:window-x="-4"
     inkscape:window-y="-4"
     inkscape:window-maximized="1"
     width="0px"
     height="0px"
     fit-margin-top="0"
     fit-margin-left="0"
     fit-margin-right="0"
     fit-margin-bottom="0">
    <sodipodi:guide
       orientation="1,0"
       position="450,784"
       id="guide3178" />
    <sodipodi:guide
       orientation="0,1"
       position="-61,400"
       id="guide3180" />
  </sodipodi:namedview>
  <metadata
     id="metadata7">
    <rdf:RDF>
      <cc:Work
         rdf:about="">
        <dc:format>image/svg+xml</dc:format>
        <dc:type
           rdf:resource="http://purl.org/dc/dcmitype/StillImage" />
        <dc:title></dc:title>
      </cc:Work>
    </rdf:RDF>
  </metadata>
  <g
     inkscape:label="Layer 1"
     inkscape:groupmode="layer"
     id="layer1"
     transform="translate(0,-252.36218)">
    <path
       id="rect109"
       transform="translate(0,252.36218)"
       style="fill:#ff0000;fill-opacity:1;stroke:none"
       d="m 641.15625,32.5625 c -1.36211,0.0715 -2.66831,1.25665 -3.53125,3.3125 -1.34896,3.21364 -1.52848,4.25362 -2.0625,11.25 -0.26142,3.42545 -0.81747,7.89175 -1.21875,9.9375 -2.29558,11.7019 -3.37253,17.31067 -3.78125,19.71875 -0.68826,4.055 -1.25371,6.73866 -2.125,10.28125 -1.32529,5.38833 -2.27069,10.89473 -2.71875,15.53125 -1.00662,10.41711 -1.90437,15 -3,15 -0.18792,0 -0.51228,1.05897 -0.6875,2.34375 -0.17524,1.28476 -0.67721,3.5748 -1.09375,5.125 -0.91199,3.39402 -0.68358,13.20886 0.34375,15.15625 0.90234,1.7104 3.8145,4.33421 5.96875,5.375 0.99377,0.48014 2.13111,1.10043 2.5,1.40625 3.13111,2.59588 4.25424,3.35479 5.78125,3.84375 2.83957,0.9092 5.90866,0.77353 8.28125,-0.375 1.18908,-0.57565 2.29128,-1.36895 2.4375,-1.75 0.1462,-0.38105 0.87754,-1.00357 1.65625,-1.40625 0.77863,-0.40264 1.4375,-0.92943 1.4375,-1.15625 0,-0.22683 1.05897,-1.47735 2.34375,-2.8125 1.28478,-1.33515 2.542,-2.79701 2.8125,-3.21875 0.27046,-0.42176 0.90814,-1.3268 1.40625,-2.03125 1.40162,-1.98232 1.58161,-6.4095 0.40625,-9.9375 -1.28214,-3.84851 -4.12817,-11.17004 -5.65625,-14.5625 -3.11308,-6.91089 -3.47737,-12.46645 -2.46875,-37.5625 0.63823,-15.87782 1.24355,-19.40468 4.40625,-25 0.90044,-1.59311 1.65625,-3.19873 1.65625,-3.5625 0,-0.36379 0.21538,-0.7497 0.46875,-0.90625 0.79329,-0.49025 3,-5.56192 3,-6.90625 0,-0.71202 -0.59856,-1.81732 -1.28125,-2.5 -1.04175,-1.0417 -1.4685,-1.18918 -3.03125,-0.90625 -2.26781,0.4106 -3.85804,1.17763 -5.78125,2.84375 -1.3813,1.19669 -1.52945,1.21423 -2.125,0.40625 -0.34987,-0.47466 -0.76294,-1.38633 -0.90625,-2.0625 -0.46094,-2.17487 -1.88404,-4.66494 -2.8125,-4.84375 C 641.58562,32.55608 641.35083,32.5523 641.15625,32.5625 z m -0.59375,3.5625 c 0.63846,-0.0753 1.27246,0.40852 1.8125,1.59375 0.7114,1.5614 1.91543,9.01254 2.3125,14.46875 0.16729,2.29908 0.63391,6.39093 1.0625,9.09375 0.64602,4.07357 0.71313,6.79365 0.375,15.96875 -0.54217,14.71144 -0.57132,17.89226 -0.0937,24.71875 0.22242,3.17815 0.22242,5.7546 0,5.75 -0.22237,-0.005 -1.11556,-0.66163 -2.03125,-1.46875 -1.61088,-1.41992 -1.87013,-1.46875 -6.625,-1.46875 l -4.875,0 -1.9375,1.71875 c -1.04783,0.94669 -2.10535,1.71875 -2.375,1.71875 -1.04361,0 -0.29312,-8.5651 1.4375,-16.21875 1.93948,-8.57747 2.97379,-13.58018 3.25,-15.96875 0.15633,-1.35241 0.83917,-5.13584 1.5,-8.40625 C 636.7989,55.6294 638.5,44.36216 638.5,40.59375 638.50005,37.95394 639.49843,36.25061 640.5625,36.125 z m 13.125,2.34375 c 0.38571,0.0175 0.67057,0.26432 1.1875,0.78125 l 1.03125,1.09375 -1.75,2.84375 c -1.777,2.90966 -4.91515,9.34754 -5.53125,11.34375 -0.60603,1.96355 -1.11658,1.14792 -1.4375,-2.25 -0.61988,-6.56375 -0.42824,-8.09542 1.15625,-10.25 0.80185,-1.09039 2.33139,-2.37622 3.4375,-2.875 C 652.77559,38.70794 653.30179,38.45127 653.6875,38.46875 z m -17.5625,68.3125 c 4.91504,-0.0309 8.9309,2.10406 10.53125,5.625 0.36879,0.81145 1.00101,2.04257 1.40625,2.71875 0.70348,1.17388 5.12645,10.40616 6.90625,14.40625 0.96263,2.16348 0.76451,5.00321 -0.59375,7.5625 -1.34865,2.54128 -9.64784,10.75242 -12.03125,11.90625 -1.19346,0.5777 -2.71661,1.01194 -3.375,1 -1.49001,-0.0271 -4.61467,-1.63127 -6.6875,-3.4375 -0.86346,-0.75238 -2.9939,-2.17422 -4.75,-3.15625 -2.58529,-1.44578 -3.40807,-2.22761 -4.28125,-4.03125 -0.9615,-1.98623 -1.07586,-2.75889 -0.84375,-7.21875 0.31092,-5.97413 1.55977,-10.82354 4.3125,-16.78125 C 629.9926,108.28959 631.64153,106.80951 636.125,106.78125 Z" />
  </g>
</svg>
