<?xml version="1.0" encoding="UTF-8" standalone="no"?>
<!-- Created with Inkscape (http://www.inkscape.org/) -->

<svg
   xmlns:dc="http://purl.org/dc/elements/1.1/"
   xmlns:cc="http://creativecommons.org/ns#"
   xmlns:rdf="http://www.w3.org/1999/02/22-rdf-syntax-ns#"
   xmlns:svg="http://www.w3.org/2000/svg"
   xmlns="http://www.w3.org/2000/svg"
   xmlns:sodipodi="http://sodipodi.sourceforge.net/DTD/sodipodi-0.dtd"
   xmlns:inkscape="http://www.inkscape.org/namespaces/inkscape"
   width="800"
   height="700"
   id="svg2"
   version="1.1"
   inkscape:version="0.48.2 r9819"
   sodipodi:docname="l11.svg">
  <defs
     id="defs4" />
  <sodipodi:namedview
     id="base"
     pagecolor="#ffffff"
     bordercolor="#666666"
     borderopacity="1.0"
     inkscape:pageopacity="0.0"
     inkscape:pageshadow="2"
     inkscape:zoom="3.5355339"
     inkscape:cx="639.98929"
     inkscape:cy="609.48592"
     inkscape:document-units="px"
     inkscape:current-layer="layer1"
     showgrid="false"
     showguides="true"
     inkscape:guide-bbox="true"
     inkscape:window-width="1366"
     inkscape:window-height="746"
     inkscape:window-x="-8"
     inkscape:window-y="-8"
     inkscape:window-maximized="1"
     width="0px"
     height="0px"
     fit-margin-top="0"
     fit-margin-left="0"
     fit-margin-right="0"
     fit-margin-bottom="0">
    <sodipodi:guide
       orientation="1,0"
       position="400.22244,349.31075"
       id="guide3178" />
    <sodipodi:guide
       orientation="0,1"
       position="400.22244,349.31075"
       id="guide3180" />
  </sodipodi:namedview>
  <metadata
     id="metadata7">
    <rdf:RDF>
      <cc:Work
         rdf:about="">
        <dc:format>image/svg+xml</dc:format>
        <dc:type
           rdf:resource="http://purl.org/dc/dcmitype/StillImage" />
        <dc:title></dc:title>
      </cc:Work>
    </rdf:RDF>
  </metadata>
  <g
     inkscape:label="Layer 1"
     inkscape:groupmode="layer"
     id="layer1"
     transform="translate(0,-352.36218)">
    <path
       id="rect3146"
       transform="translate(0,352.36218)"
       style="fill:#ff0000"
       d="m 568.125,28.75 c -1.20494,0.0633 -2.36165,1.15015 -3.125,2.96875 -1.19331,2.84278 -1.34011,3.74849 -1.8125,9.9375 -0.23125,3.03016 -0.73878,6.97156 -1.09375,8.78125 -2.03068,10.35151 -2.98219,15.3073 -3.34375,17.4375 -0.60883,3.58705 -1.10425,5.99121 -1.875,9.125 -1.17236,4.76651 -2.00989,9.61728 -2.40625,13.71875 C 553.57828,99.93374 552.78169,104 551.8125,104 c -0.16623,0 -0.47001,0.92598 -0.625,2.0625 -0.15501,1.13651 -0.56903,3.15993 -0.9375,4.53125 -0.80676,3.00235 -0.62751,11.68358 0.28125,13.40625 0.79822,1.51302 3.40685,3.82932 5.3125,4.75 0.8791,0.42473 1.86119,0.97947 2.1875,1.25 2.76979,2.29631 3.77421,2.97372 5.125,3.40625 2.5119,0.80428 5.21372,0.67224 7.3125,-0.34375 1.05186,-0.50921 2.02689,-1.19416 2.15625,-1.53125 0.12932,-0.33706 0.77991,-0.8938 1.46875,-1.25 0.68879,-0.35617 1.28125,-0.83061 1.28125,-1.03125 0,-0.20067 0.92597,-1.31894 2.0625,-2.5 1.13651,-1.18108 2.26074,-2.43944 2.5,-2.8125 0.23925,-0.3731 0.80938,-1.18935 1.25,-1.8125 1.23988,-1.75356 1.38348,-5.69163 0.34375,-8.8125 -1.13417,-3.4044 -3.64826,-9.84278 -5,-12.84375 -2.75384,-6.11339 -3.07974,-11.05003 -2.1875,-33.25 0.56458,-14.04554 1.10851,-17.14413 3.90625,-22.09375 0.79652,-1.40926 1.46875,-2.83445 1.46875,-3.15625 0,-0.32181 0.18212,-0.70527 0.40625,-0.84375 0.70175,-0.43367 2.65625,-4.90453 2.65625,-6.09375 0,-0.62984 -0.5211,-1.61485 -1.125,-2.21875 -0.92155,-0.92149 -1.3051,-1.03153 -2.6875,-0.78125 -2.00613,0.36321 -3.42372,1.02616 -5.125,2.5 -1.22191,1.05859 -1.34816,1.08972 -1.875,0.375 -0.30949,-0.41989 -0.65447,-1.24561 -0.78125,-1.84375 -0.40774,-1.92389 -1.70993,-4.12307 -2.53125,-4.28125 -0.17307,-0.0334 -0.35914,-0.04015 -0.53125,-0.03125 z m -0.53125,3.1875 c 0.5648,-0.0665 1.14728,0.3578 1.625,1.40625 0.62931,1.38121 1.68001,7.95468 2.03125,12.78125 0.148,2.03377 0.55837,5.64034 0.9375,8.03125 0.57147,3.60348 0.61159,6.0087 0.3125,14.125 -0.4796,13.01375 -0.48487,15.83626 -0.0625,21.875 0.19674,2.81138 0.19674,5.09781 0,5.09375 -0.19671,-0.005 -1.00246,-0.59852 -1.8125,-1.3125 -1.42496,-1.25607 -1.63757,-1.28125 -5.84375,-1.28125 l -4.3125,0 -1.71875,1.53125 c -0.9269,0.83744 -1.85521,1.5 -2.09375,1.5 -0.92317,0 -0.24966,-7.57334 1.28125,-14.34375 1.71567,-7.58764 2.5994,-12.01208 2.84375,-14.125 0.13827,-1.19634 0.75918,-4.54449 1.34375,-7.4375 2.14418,-10.61133 3.65625,-20.57273 3.65625,-23.90625 4e-5,-2.33518 0.87123,-3.82638 1.8125,-3.9375 z M 579.21875,34 c 0.3412,0.0156 0.57396,0.23023 1.03125,0.6875 l 0.9375,0.96875 -1.5625,2.5 c -1.57194,2.57387 -4.36125,8.2654 -4.90625,10.03125 -0.53609,1.73694 -0.9661,1.03705 -1.25,-1.96875 -0.54834,-5.8063 -0.40165,-7.18782 1,-9.09375 0.70931,-0.96456 2.08402,-2.09002 3.0625,-2.53125 0.87958,-0.39657 1.34631,-0.60922 1.6875,-0.59375 z M 563.6875,94.4375 c 4.34783,-0.0274 7.89682,1.85413 9.3125,4.96875 0.32622,0.71782 0.86028,1.77685 1.21875,2.375 0.6223,1.03841 4.55058,9.24276 6.125,12.78125 0.85152,1.91381 0.67026,4.39231 -0.53125,6.65625 -1.19302,2.24802 -8.51663,9.54183 -10.625,10.5625 -1.05573,0.51103 -2.41757,0.88556 -3,0.875 -1.31807,-0.0239 -4.07261,-1.43345 -5.90625,-3.03125 -0.7638,-0.66554 -2.66531,-1.9438 -4.21875,-2.8125 -2.28696,-1.27894 -3.00884,-1.96699 -3.78125,-3.5625 -0.85055,-1.75702 -0.92407,-2.42979 -0.71875,-6.375 0.27504,-5.28472 1.37745,-9.57355 3.8125,-14.84375 2.89605,-6.26776 4.3464,-7.56875 8.3125,-7.59375 z" />
  </g>
</svg>
