<?xml version="1.0" encoding="UTF-8" standalone="no"?>
<!-- Created with Inkscape (http://www.inkscape.org/) -->

<svg
   xmlns:dc="http://purl.org/dc/elements/1.1/"
   xmlns:cc="http://creativecommons.org/ns#"
   xmlns:rdf="http://www.w3.org/1999/02/22-rdf-syntax-ns#"
   xmlns:svg="http://www.w3.org/2000/svg"
   xmlns="http://www.w3.org/2000/svg"
   xmlns:sodipodi="http://sodipodi.sourceforge.net/DTD/sodipodi-0.dtd"
   xmlns:inkscape="http://www.inkscape.org/namespaces/inkscape"
   width="900"
   height="800"
   id="svg2"
   version="1.1"
   inkscape:version="0.48+devel r11738"
   sodipodi:docname="l12.svg">
  <defs
     id="defs4" />
  <sodipodi:namedview
     id="base"
     pagecolor="#ffffff"
     bordercolor="#666666"
     borderopacity="1.0"
     inkscape:pageopacity="0.0"
     inkscape:pageshadow="2"
     inkscape:zoom="1.4142136"
     inkscape:cx="594.63024"
     inkscape:cy="574.42339"
     inkscape:document-units="px"
     inkscape:current-layer="layer1"
     showgrid="false"
     showguides="true"
     inkscape:guide-bbox="true"
     inkscape:window-width="1366"
     inkscape:window-height="705"
     inkscape:window-x="-4"
     inkscape:window-y="-4"
     inkscape:window-maximized="1"
     width="0px"
     height="0px"
     fit-margin-top="0"
     fit-margin-left="0"
     fit-margin-right="0"
     fit-margin-bottom="0">
    <sodipodi:guide
       orientation="1,0"
       position="450,784"
       id="guide3178" />
    <sodipodi:guide
       orientation="0,1"
       position="-61,400"
       id="guide3180" />
  </sodipodi:namedview>
  <metadata
     id="metadata7">
    <rdf:RDF>
      <cc:Work
         rdf:about="">
        <dc:format>image/svg+xml</dc:format>
        <dc:type
           rdf:resource="http://purl.org/dc/dcmitype/StillImage" />
        <dc:title></dc:title>
      </cc:Work>
    </rdf:RDF>
  </metadata>
  <g
     inkscape:label="Layer 1"
     inkscape:groupmode="layer"
     id="layer1"
     transform="translate(0,-252.36218)">
    <path
       id="rect117"
       transform="translate(0,252.36218)"
       style="fill:#ff0000;fill-opacity:1;stroke:none"
       d="m 643.84375,232.8125 c -0.36163,-0.002 -0.68953,0.0177 -1.03125,0.0625 -3.18895,0.42303 -4.60052,1.1845 -8.28125,4.46875 -1.66282,1.4837 -3.27524,2.6875 -3.59375,2.6875 -1.18727,0 -3.68592,3.21801 -4.1875,5.40625 -1.08323,4.72576 -0.29804,18.82137 1.3125,23.875 1.11223,3.4901 2.05791,9.33091 2.0625,12.5 0.005,4.70193 1.58702,18.33033 2.5,21.65625 2.98279,10.86644 3.30468,14.68702 2.25,25.625 -1.37225,14.23219 -0.90661,20.5271 1.75,23.75 1.586,1.92409 1.91548,2.0311 3.375,1.25 0.94274,-0.50454 3.42602,-4.75303 3.46875,-5.96875 0.0122,-0.34706 0.28352,-1.32442 0.625,-2.125 l 0.625,-1.4375 1.65625,2.375 c 1.04882,1.52436 2.34722,2.68683 3.65625,3.28125 2.62797,1.19335 3.78362,1.18941 5.375,-0.0625 1.09545,-0.86167 1.28125,-1.42362 1.28125,-3.53125 0,-2.33807 -1.59597,-8.849 -2.4375,-9.9375 -1.09692,-1.41882 -4.01344,-16.10911 -4.40625,-22.15625 -0.31462,-4.84252 0.50313,-17.63162 1.4375,-22.625 0.25307,-1.3524 0.581,-3.90777 0.75,-5.6875 0.3909,-4.11695 3.48852,-16.87117 4.15625,-17.09375 0.27751,-0.0925 0.5,-0.76425 0.5,-1.5 0,-0.73573 0.81776,-3.64321 1.78125,-6.46875 2.16968,-6.36283 2.13141,-9.03014 -0.1875,-13.75 -0.86179,-1.75408 -1.59375,-3.39572 -1.59375,-3.65625 0,-0.70142 -4.12722,-6.716 -5.46875,-7.96875 C 649.3026,233.99212 646.37525,232.8265 643.84375,232.8125 z m -0.875,1.8125 c 0.2039,-0.0136 0.41927,0 0.65625,0 4.77764,0 7.33433,2.10828 10.5,8.65625 1.76061,3.64355 2.14246,4.90496 1.75,5.53125 -0.90851,1.44984 -2.28219,1.10488 -4.8125,-1.1875 -4.84825,-4.39234 -8.61766,-5.91818 -11.21875,-4.5625 -1.10236,0.57458 -1.34289,0.76355 -4.25,3.375 -1.39178,1.2501 -2.03083,1.46388 -3.625,1.34375 -3.95759,-0.2984 -3.73104,-3.15009 0.5,-5.9375 1.56177,-1.0289 4.24406,-3.05819 5.9375,-4.53125 C 640.78454,235.24392 641.54147,234.72013 642.96875,234.625 z m -0.40625,9.34375 c 1.54429,0.002 4.34958,1.79602 4.65625,2.96875 0.1379,0.52735 0.46415,0.96875 0.71875,0.96875 1.02368,0 4.64953,4.31883 5.21875,6.21875 1.94294,6.48498 -1.1869,18.59752 -5.65625,21.96875 -1.29657,0.97803 -4.68648,1.41838 -6.8125,0.875 -6.09139,-1.5569 -8.08957,-5.26404 -8.875,-16.4375 -0.46395,-6.60023 -0.0155,-8.84599 2.1875,-11.1875 0.99391,-1.05637 2.04759,-1.93703 2.34375,-1.9375 0.2962,-4.5e-4 0.95411,-0.49384 1.46875,-1.0625 C 639.03158,244.99673 641.14156,243.9653 642.5625,243.96875 z m -13.625,6.0625 c 0.63581,-0.002 0.85498,1.83473 1.09375,8.375 0.2884,7.90355 -0.20561,10.1807 -1.25,5.65625 -0.6808,-2.94957 -0.77852,-13.53365 -0.125,-13.9375 C 628.76609,250.05718 628.84667,250.03155 628.9375,250.03125 z m 27.5,1.375 c 0.92034,0.0372 1.75,1.38952 1.75,3.03125 0,1.64557 -0.9494,5.29946 -1.5625,6 -0.22487,0.25694 -0.375,0.81034 -0.375,1.28125 0,0.4709 -0.20338,0.97063 -0.40625,1.09375 -0.20285,0.12309 -0.39878,-2.3163 -0.46875,-5.40625 -0.10994,-4.84657 -0.0143,-5.63704 0.6875,-5.90625 C 656.19559,251.44902 656.30601,251.40092 656.4375,251.40625 z m -25.40625,20.5 2.15625,2.125 c 3.6357,3.59909 5.93015,4.92623 9.15625,5.21875 3.28718,0.29807 4.89382,-0.33589 7.21875,-2.78125 2.54516,-2.67709 2.7149,-2.07071 1.28125,4.0625 -1.54648,6.61596 -2.98632,22.81105 -2.96875,33.03125 0.0131,7.63159 1.86887,18.94306 4.0625,24.84375 1.11555,3.00079 2.8125,7.94721 2.8125,8.15625 0,0.0741 -0.35621,0.44998 -0.78125,0.875 -1.04126,1.04122 -2.24764,0.96304 -3.75,-0.21875 -1.46636,-1.15343 -4.3125,-5.23314 -4.3125,-6.21875 0,-0.37609 -0.54283,-1.84674 -1.1875,-3.25 -2.81455,-6.12658 -5.96516,-15.76864 -7.4375,-22.71875 -0.45838,-2.16384 -1.12444,-4.90784 -1.46875,-6.125 -1.58509,-5.60338 -1.917,-8.0474 -3.375,-23.875 -0.42356,-4.59816 -0.92287,-9.44406 -1.09375,-10.75 L 631.03125,271.90625 Z M 637.5,326.9375 c 0.009,-0.008 0.0107,-0.009 0.0312,0 0.28809,0.13113 0.91451,1.36861 1.46875,2.96875 0.63337,1.82875 1.30686,3.51078 1.5,3.78125 0.19318,0.27048 0.81858,1.98959 1.40625,3.78125 1.02295,3.11876 1.02469,3.39696 0.3125,6.8125 -0.40912,1.9622 -1.20886,4.53633 -1.78125,5.71875 -1.11611,2.30552 -2.5067,2.84533 -3.34375,1.28125 -1.25001,-2.33561 -0.92641,-22.9798 0.375,-24.28125 C 637.48239,326.98631 637.4906,326.94542 637.5,326.9375 Z" />
  </g>
</svg>
