<?xml version="1.0" encoding="UTF-8" standalone="no"?>
<!-- Created with Inkscape (http://www.inkscape.org/) -->

<svg
   xmlns:dc="http://purl.org/dc/elements/1.1/"
   xmlns:cc="http://creativecommons.org/ns#"
   xmlns:rdf="http://www.w3.org/1999/02/22-rdf-syntax-ns#"
   xmlns:svg="http://www.w3.org/2000/svg"
   xmlns="http://www.w3.org/2000/svg"
   xmlns:sodipodi="http://sodipodi.sourceforge.net/DTD/sodipodi-0.dtd"
   xmlns:inkscape="http://www.inkscape.org/namespaces/inkscape"
   width="800"
   height="700"
   id="svg2"
   version="1.1"
   inkscape:version="0.48.2 r9819"
   sodipodi:docname="m12.svg">
  <defs
     id="defs4" />
  <sodipodi:namedview
     id="base"
     pagecolor="#ffffff"
     bordercolor="#666666"
     borderopacity="1.0"
     inkscape:pageopacity="0.0"
     inkscape:pageshadow="2"
     inkscape:zoom="2"
     inkscape:cx="699.71764"
     inkscape:cy="463.82666"
     inkscape:document-units="px"
     inkscape:current-layer="layer1"
     showgrid="false"
     showguides="true"
     inkscape:guide-bbox="true"
     inkscape:window-width="1366"
     inkscape:window-height="746"
     inkscape:window-x="-8"
     inkscape:window-y="-8"
     inkscape:window-maximized="1"
     width="0px"
     height="0px"
     fit-margin-top="0"
     fit-margin-left="0"
     fit-margin-right="0"
     fit-margin-bottom="0">
    <sodipodi:guide
       orientation="1,0"
       position="400.22244,349.31075"
       id="guide3178" />
    <sodipodi:guide
       orientation="0,1"
       position="400.22244,349.31075"
       id="guide3180" />
  </sodipodi:namedview>
  <metadata
     id="metadata7">
    <rdf:RDF>
      <cc:Work
         rdf:about="">
        <dc:format>image/svg+xml</dc:format>
        <dc:type
           rdf:resource="http://purl.org/dc/dcmitype/StillImage" />
        <dc:title></dc:title>
      </cc:Work>
    </rdf:RDF>
  </metadata>
  <g
     inkscape:label="Layer 1"
     inkscape:groupmode="layer"
     id="layer1"
     transform="translate(0,-352.36218)">
    <path
       id="rect3091"
       transform="translate(0,352.36218)"
       style="fill:#ff0000"
       d="m 570.5,205.90625 c -0.31989,-0.002 -0.60398,0.0228 -0.90625,0.0625 -2.82095,0.37422 -4.08779,1.0635 -7.34375,3.96875 -1.47094,1.31248 -2.90575,2.375 -3.1875,2.375 -1.05026,0 -3.21255,2.81428 -3.65625,4.75 -0.95823,4.18041 -0.29969,16.65456 1.125,21.125 0.98389,3.08735 1.83968,8.29038 1.84375,11.09375 0.005,4.15934 1.37986,16.18289 2.1875,19.125 2.63858,9.61247 2.93296,13.01177 2,22.6875 -1.21389,12.58982 -0.78755,18.14902 1.5625,21 1.40298,1.70206 1.70891,1.78471 3,1.09375 0.83394,-0.44631 2.99345,-4.20584 3.03125,-5.28125 0.0108,-0.30701 0.26042,-1.13556 0.5625,-1.84375 l 0.5625,-1.28125 1.4375,2.09375 c 0.92779,1.34845 2.09203,2.34918 3.25,2.875 2.32471,1.05565 3.37352,1.04495 4.78125,-0.0625 0.96904,-0.76223 1.125,-1.22934 1.125,-3.09375 0,-2.06827 -1.41183,-7.84962 -2.15625,-8.8125 -0.97034,-1.2551 -3.55876,-14.24445 -3.90625,-19.59375 -0.27832,-4.28369 0.45471,-15.58285 1.28125,-20 0.22386,-1.19634 0.50675,-3.4569 0.65625,-5.03125 0.34581,-3.64185 3.09684,-14.9281 3.6875,-15.125 0.2455,-0.082 0.4375,-0.69292 0.4375,-1.34375 0,-0.65084 0.7102,-3.21928 1.5625,-5.71875 1.91929,-5.62857 1.89505,-7.98106 -0.15625,-12.15625 -0.76235,-1.55166 -1.40625,-3.01953 -1.40625,-3.25 0,-0.62049 -3.65701,-5.92306 -4.84375,-7.03125 -1.69504,-1.58266 -4.29188,-2.61262 -6.53125,-2.625 z M 570.3125,207.5 c 4.2263,0 6.48088,1.86391 9.28125,7.65625 1.55744,3.22309 1.90968,4.35224 1.5625,4.90625 -0.80366,1.28253 -2.0117,0.96533 -4.25,-1.0625 -4.28878,-3.88548 -7.66782,-5.23049 -9.96875,-4.03125 -0.97515,0.50827 -1.1471,0.68991 -3.71875,3 -1.23116,1.10584 -1.80856,1.29377 -3.21875,1.1875 -3.5009,-0.26395 -3.30529,-2.78426 0.4375,-5.25 1.38154,-0.91017 3.75198,-2.69694 5.25,-4 2.40436,-2.09128 2.94797,-2.40625 4.625,-2.40625 z m -0.9375,8.28125 c 1.36608,0.002 3.85372,1.58759 4.125,2.625 0.12198,0.46651 0.39977,0.84375 0.625,0.84375 0.90554,0 4.09022,3.81932 4.59375,5.5 1.71873,5.7366 -1.01515,16.45533 -4.96875,19.4375 -1.14694,0.86517 -4.15057,1.26192 -6.03125,0.78125 -5.38845,-1.37724 -7.14897,-4.64721 -7.84375,-14.53125 -0.41042,-5.83858 -0.0113,-7.83493 1.9375,-9.90625 0.87921,-0.93446 1.80052,-1.71835 2.0625,-1.71875 0.26202,-4.1e-4 0.85724,-0.40322 1.3125,-0.90625 1.07836,-1.19157 2.93054,-2.12806 4.1875,-2.125 z m -12.03125,5.34375 c 0.56243,-0.002 0.72629,1.65197 0.9375,7.4375 0.25513,6.99149 -0.20113,9.00233 -1.125,5 -0.60223,-2.6092 -0.67185,-11.98651 -0.0937,-12.34375 0.0972,-0.06 0.20091,-0.0934 0.28125,-0.0937 z m 24.3125,1.25 c 0.81414,0.033 1.53125,1.20397 1.53125,2.65625 0,1.45568 -0.83266,4.69281 -1.375,5.3125 -0.19892,0.22731 -0.34375,0.73967 -0.34375,1.15625 0,0.41656 -0.1643,0.82859 -0.34375,0.9375 -0.17945,0.10889 -0.37559,-2.01664 -0.4375,-4.75 -0.0973,-4.28729 0.004,-5.01185 0.625,-5.25 0.11772,-0.0452 0.22744,-0.0671 0.34375,-0.0625 z m -22.46875,18.125 1.875,1.875 c 3.21614,3.18377 5.2712,4.33499 8.125,4.59375 2.90786,0.26367 4.31837,-0.27435 6.375,-2.4375 2.25147,-2.36816 2.39319,-1.8317 1.125,3.59375 -1.36803,5.85248 -2.64053,20.17795 -2.625,29.21875 0.0116,6.75092 1.65325,16.74899 3.59375,21.96875 0.9868,2.6545 2.5,7.03383 2.5,7.21875 0,0.0655 -0.3115,0.40529 -0.6875,0.78125 -0.92109,0.92108 -2.01476,0.85791 -3.34375,-0.1875 -1.29716,-1.02032 -3.8125,-4.65938 -3.8125,-5.53125 0,-0.3327 -0.46096,-1.60243 -1.03125,-2.84375 -2.48975,-5.41958 -5.2913,-13.94567 -6.59375,-20.09375 -0.40547,-1.91413 -0.97667,-4.36081 -1.28125,-5.4375 -1.40217,-4.95676 -1.71026,-7.12389 -3,-21.125 -0.37468,-4.06753 -0.78633,-8.34477 -0.9375,-9.5 L 559.1875,240.5 z m 5.71875,48.6875 c 0.25484,0.11599 0.82223,1.17826 1.3125,2.59375 0.56028,1.61772 1.17289,3.13575 1.34375,3.375 0.17089,0.23927 0.69889,1.75885 1.21875,3.34375 0.9049,2.75886 0.94251,3.00986 0.3125,6.03125 -0.36191,1.73575 -1.08739,3.98527 -1.59375,5.03125 -0.98731,2.03946 -2.22829,2.53984 -2.96875,1.15625 -1.10574,-2.06608 -0.83872,-20.34875 0.3125,-21.5 0.0241,-0.0243 0.0261,-0.0478 0.0625,-0.0312 z" />
  </g>
</svg>
