<?xml version="1.0" encoding="UTF-8" standalone="no"?>
<!-- Created with Inkscape (http://www.inkscape.org/) -->

<svg
   xmlns:dc="http://purl.org/dc/elements/1.1/"
   xmlns:cc="http://creativecommons.org/ns#"
   xmlns:rdf="http://www.w3.org/1999/02/22-rdf-syntax-ns#"
   xmlns:svg="http://www.w3.org/2000/svg"
   xmlns="http://www.w3.org/2000/svg"
   xmlns:sodipodi="http://sodipodi.sourceforge.net/DTD/sodipodi-0.dtd"
   xmlns:inkscape="http://www.inkscape.org/namespaces/inkscape"
   width="800"
   height="400"
   id="svg2"
   version="1.1"
   inkscape:version="0.48.2 r9819"
   sodipodi:docname="m12.svg">
  <defs
     id="defs4" />
  <sodipodi:namedview
     id="base"
     pagecolor="#ffffff"
     bordercolor="#666666"
     borderopacity="1.0"
     inkscape:pageopacity="0.0"
     inkscape:pageshadow="2"
     inkscape:zoom="2.8284271"
     inkscape:cx="618.40625"
     inkscape:cy="262.93638"
     inkscape:document-units="px"
     inkscape:current-layer="layer1"
     showgrid="false"
     showguides="true"
     inkscape:guide-bbox="true"
     inkscape:window-width="1366"
     inkscape:window-height="746"
     inkscape:window-x="-8"
     inkscape:window-y="-8"
     inkscape:window-maximized="1"
     width="0px"
     height="0px"
     fit-margin-top="0"
     fit-margin-left="0"
     fit-margin-right="0"
     fit-margin-bottom="0">
    <sodipodi:guide
       orientation="1,0"
       position="400.22244,349.31075"
       id="guide3178" />
    <sodipodi:guide
       orientation="0,1"
       position="-117.37973,199.40411"
       id="guide3180" />
  </sodipodi:namedview>
  <metadata
     id="metadata7">
    <rdf:RDF>
      <cc:Work
         rdf:about="">
        <dc:format>image/svg+xml</dc:format>
        <dc:type
           rdf:resource="http://purl.org/dc/dcmitype/StillImage" />
        <dc:title></dc:title>
      </cc:Work>
    </rdf:RDF>
  </metadata>
  <g
     inkscape:label="Layer 1"
     inkscape:groupmode="layer"
     id="layer1"
     transform="translate(0,-652.36218)">
    <path
       id="rect3219"
       transform="translate(0,652.36218)"
       style="fill:#ff0000"
       d="m 568.65625,138.375 c -3.1881,0.004 -5.04395,1.12501 -7.78125,4.75 -1.3481,1.78509 -2.834,3.43319 -3.3125,3.6875 -5.7336,3.047 -8.30565,6.32814 -8.28125,10.65625 0.015,2.61652 0.55415,4.27022 3.28125,10.25 0.4365,0.95704 1.0069,2.41257 1.25,3.25 1.6883,5.81491 4.6471,10.24082 7.125,10.59375 2.4486,0.3487 5.8439,-0.0668 7.8125,-0.9375 4.2562,-1.8827 11.7751,-11.43963 12.375,-15.75 0.4099,-2.94564 0.61705,-3.46913 1.90625,-4.9375 2.4991,-2.84634 3.30195,-7.3432 1.78125,-9.84375 -1.1206,-1.84277 -10.36195,-9.95288 -12.46875,-10.9375 -0.9571,-0.44731 -2.6108,-0.78213 -3.6875,-0.78125 z m 0.25,1.65625 c 1.6013,0.0629 3.3144,1.00171 5.0625,2.75 1.0263,1.02642 3.3075,3.01156 5.0625,4.40625 4.0165,3.19202 5.1473,5.28965 4.125,7.65625 -0.3669,0.84926 -0.85695,2.18227 -1.09375,3 -0.2368,0.81774 -0.9241,2.2753 -1.5,3.1875 -0.5758,0.91218 -1.03125,1.84972 -1.03125,2.09375 0,0.66671 -0.62415,0.52866 -1.78125,-0.375 -0.5707,-0.44562 -1.511,-0.95212 -2.0625,-1.125 -1.2048,-0.37757 -1.0526,-1.15738 0.375,-1.875 1.0569,-0.53125 2.15625,-1.73448 2.15625,-2.375 0,-0.19159 -0.7277,-0.0727 -1.625,0.25 -5.1358,1.84701 -6.53045,1.97633 -11.46875,0.9375 -2.9917,-0.62931 -5.30805,-1.71429 -6.71875,-3.125 -0.5647,-0.56465 -0.625,-0.52947 -0.625,0.4375 0,0.68265 0.554,1.67504 1.5,2.59375 1.5199,1.47614 1.54175,1.47994 0.65625,2.28125 -0.4874,0.44109 -1.467,2.05305 -2.1875,3.5625 -0.7203,1.50942 -1.58085,2.71874 -1.90625,2.71875 -0.8309,0 -2.80615,-2.45137 -3.09375,-3.84375 -0.132,-0.63956 -0.51105,-2.03455 -0.84375,-3.15625 -0.9238,-3.11418 0.0989,-6.34468 2.8125,-8.78125 1.1208,-1.00639 2.6153,-2.11329 3.3125,-2.46875 2.4324,-1.24016 3.54175,-2.28645 5.15625,-4.78125 1.5568,-2.40561 3.2606,-3.73087 5.0625,-3.9375 0.2253,-0.0261 0.42755,-0.0401 0.65625,-0.0312 z m -3.375,20.59375 c 0.3219,-0.0156 0.63625,-0.0106 0.96875,0 2.2174,0.0709 4.6348,0.68348 6,1.6875 1.5986,1.17555 1.7168,1.44994 2,4.09375 0.2024,1.89066 0.537,2.92841 1,3.1875 1.1641,0.65148 -0.1028,2.8908 -3.6875,6.40625 -2.4597,2.41233 -3.71185,3.26129 -5.15625,3.625 -2.3613,0.59457 -4.3973,0.63309 -4.75,0.0625 -0.1479,-0.23924 -0.6237,-0.46875 -1.0625,-0.46875 -1.1544,0 -5.5419,-8.57549 -4.875,-9.53125 0.2578,-0.36942 0.93325,-1.57958 1.46875,-2.65625 1.2774,-2.56871 3.63275,-5.1021 5.53125,-5.90625 0.6816,-0.28878 1.5971,-0.4533 2.5625,-0.5 z M 577.25,165 c 0.077,-0.0323 0.13555,-0.0293 0.21875,0 0.2903,0.10229 0.50715,0.81548 0.46875,1.59375 -0.089,1.82197 -0.8423,2.62824 -1.25,1.34375 -0.3478,-1.09585 0.0256,-2.71095 0.5625,-2.9375 z" />
  </g>
</svg>
