<?xml version="1.0" encoding="UTF-8" standalone="no"?>
<!-- Created with Inkscape (http://www.inkscape.org/) -->

<svg
   xmlns:dc="http://purl.org/dc/elements/1.1/"
   xmlns:cc="http://creativecommons.org/ns#"
   xmlns:rdf="http://www.w3.org/1999/02/22-rdf-syntax-ns#"
   xmlns:svg="http://www.w3.org/2000/svg"
   xmlns="http://www.w3.org/2000/svg"
   xmlns:sodipodi="http://sodipodi.sourceforge.net/DTD/sodipodi-0.dtd"
   xmlns:inkscape="http://www.inkscape.org/namespaces/inkscape"
   width="800"
   height="700"
   id="svg2"
   version="1.1"
   inkscape:version="0.48.2 r9819"
   sodipodi:docname="f12.svg">
  <defs
     id="defs4" />
  <sodipodi:namedview
     id="base"
     pagecolor="#ffffff"
     bordercolor="#666666"
     borderopacity="1.0"
     inkscape:pageopacity="0.0"
     inkscape:pageshadow="2"
     inkscape:zoom="2"
     inkscape:cx="699.71764"
     inkscape:cy="463.82666"
     inkscape:document-units="px"
     inkscape:current-layer="layer1"
     showgrid="false"
     showguides="true"
     inkscape:guide-bbox="true"
     inkscape:window-width="1366"
     inkscape:window-height="746"
     inkscape:window-x="-8"
     inkscape:window-y="-8"
     inkscape:window-maximized="1"
     width="0px"
     height="0px"
     fit-margin-top="0"
     fit-margin-left="0"
     fit-margin-right="0"
     fit-margin-bottom="0">
    <sodipodi:guide
       orientation="1,0"
       position="400.22244,349.31075"
       id="guide3178" />
    <sodipodi:guide
       orientation="0,1"
       position="400.22244,349.31075"
       id="guide3180" />
  </sodipodi:namedview>
  <metadata
     id="metadata7">
    <rdf:RDF>
      <cc:Work
         rdf:about="">
        <dc:format>image/svg+xml</dc:format>
        <dc:type
           rdf:resource="http://purl.org/dc/dcmitype/StillImage" />
        <dc:title></dc:title>
      </cc:Work>
    </rdf:RDF>
  </metadata>
  <g
     inkscape:label="Layer 1"
     inkscape:groupmode="layer"
     id="layer1"
     transform="translate(0,-352.36218)">
    <path
       id="rect3087"
       transform="translate(0,352.36218)"
       style="fill:#ff0000"
       d="m 567.125,146.625 c -3.18806,0.004 -5.0439,1.15626 -7.78125,4.78125 -1.34805,1.78509 -2.86523,3.43319 -3.34375,3.6875 -5.73365,3.047 -8.27438,6.32814 -8.25,10.65625 0.0149,2.61652 0.52285,4.23897 3.25,10.21875 0.4365,0.95704 1.00686,2.44382 1.25,3.28125 1.68827,5.81491 4.67839,10.20957 7.15625,10.5625 2.44863,0.3487 5.8439,-0.0355 7.8125,-0.90625 4.25615,-1.8827 11.74384,-11.43963 12.34375,-15.75 0.40992,-2.94564 0.617,-3.50038 1.90625,-4.96875 2.49912,-2.84634 3.33319,-7.3432 1.8125,-9.84375 -1.12063,-1.84277 -10.39319,-9.92163 -12.5,-10.90625 -0.95708,-0.44731 -2.57957,-0.81338 -3.65625,-0.8125 z m 0.25,1.6875 c 1.60125,0.0629 3.28309,1.00171 5.03125,2.75 1.02629,1.02642 3.30754,3.01156 5.0625,4.40625 4.01646,3.19202 5.14731,5.28965 4.125,7.65625 -0.36685,0.84926 -0.85693,2.18227 -1.09375,3 -0.23677,0.81774 -0.89292,2.2753 -1.46875,3.1875 -0.57587,0.91218 -1.0625,1.84972 -1.0625,2.09375 0,0.66671 -0.62414,0.52866 -1.78125,-0.375 -0.57064,-0.44562 -1.51099,-0.95212 -2.0625,-1.125 -1.20485,-0.37757 -1.05263,-1.15738 0.375,-1.875 1.05694,-0.53125 2.15625,-1.73448 2.15625,-2.375 0,-0.19159 -0.6965,-0.0727 -1.59375,0.25 -5.13581,1.84701 -6.53041,1.97633 -11.46875,0.9375 -2.99163,-0.62931 -5.33931,-1.71429 -6.75,-3.125 -0.56474,-0.56465 -0.625,-0.52947 -0.625,0.4375 0,0.68265 0.58523,1.67504 1.53125,2.59375 1.5199,1.47614 1.51048,1.47994 0.625,2.28125 -0.48741,0.44109 -1.46708,2.0218 -2.1875,3.53125 -0.72037,1.50942 -1.58088,2.74999 -1.90625,2.75 -0.83087,0 -2.80618,-2.45137 -3.09375,-3.84375 -0.13207,-0.63956 -0.51104,-2.0658 -0.84375,-3.1875 -0.92372,-3.11418 0.0988,-6.31343 2.8125,-8.75 1.12081,-1.00639 2.61531,-2.11329 3.3125,-2.46875 2.43232,-1.24016 3.57297,-2.28645 5.1875,-4.78125 1.5568,-2.40561 3.2293,-3.73087 5.03125,-3.9375 0.22524,-0.0261 0.45873,-0.0401 0.6875,-0.0312 z m -3.40625,20.59375 c 0.32184,-0.0156 0.63617,-0.0106 0.96875,0 2.21732,0.0709 4.66607,0.65223 6.03125,1.65625 1.59858,1.17555 1.71688,1.48119 2,4.125 0.20245,1.89066 0.50574,2.92841 0.96875,3.1875 1.16412,0.65148 -0.10301,2.85955 -3.6875,6.375 -2.45975,2.41233 -3.6806,3.26129 -5.125,3.625 -2.36128,0.59457 -4.42849,0.63309 -4.78125,0.0625 -0.14787,-0.23924 -0.59249,-0.4375 -1.03125,-0.4375 -1.1544,0 -5.57312,-8.60674 -4.90625,-9.5625 0.25776,-0.36942 0.93329,-1.54833 1.46875,-2.625 1.27748,-2.56871 3.66408,-5.1021 5.5625,-5.90625 0.68166,-0.28878 1.5658,-0.4533 2.53125,-0.5 z m 11.71875,4.375 c 0.0768,-0.0323 0.1355,-0.0293 0.21875,0 0.29025,0.10229 0.50715,0.81548 0.46875,1.59375 -0.0893,1.82197 -0.81102,2.59699 -1.21875,1.3125 -0.34778,-1.09585 -0.006,-2.6797 0.53125,-2.90625 z" />
  </g>
</svg>
