<?xml version="1.0" encoding="UTF-8" standalone="no"?>
<!-- Created with Inkscape (http://www.inkscape.org/) -->

<svg
   xmlns:dc="http://purl.org/dc/elements/1.1/"
   xmlns:cc="http://creativecommons.org/ns#"
   xmlns:rdf="http://www.w3.org/1999/02/22-rdf-syntax-ns#"
   xmlns:svg="http://www.w3.org/2000/svg"
   xmlns="http://www.w3.org/2000/svg"
   xmlns:sodipodi="http://sodipodi.sourceforge.net/DTD/sodipodi-0.dtd"
   xmlns:inkscape="http://www.inkscape.org/namespaces/inkscape"
   width="900"
   height="800"
   id="svg2"
   version="1.1"
   inkscape:version="0.48+devel r11738"
   sodipodi:docname="m12.svg">
  <defs
     id="defs4" />
  <sodipodi:namedview
     id="base"
     pagecolor="#ffffff"
     bordercolor="#666666"
     borderopacity="1.0"
     inkscape:pageopacity="0.0"
     inkscape:pageshadow="2"
     inkscape:zoom="1.4142136"
     inkscape:cx="594.63024"
     inkscape:cy="630.99194"
     inkscape:document-units="px"
     inkscape:current-layer="layer1"
     showgrid="false"
     showguides="true"
     inkscape:guide-bbox="true"
     inkscape:window-width="1366"
     inkscape:window-height="705"
     inkscape:window-x="-4"
     inkscape:window-y="-4"
     inkscape:window-maximized="1"
     width="0px"
     height="0px"
     fit-margin-top="0"
     fit-margin-left="0"
     fit-margin-right="0"
     fit-margin-bottom="0">
    <sodipodi:guide
       orientation="1,0"
       position="450,784"
       id="guide3178" />
    <sodipodi:guide
       orientation="0,1"
       position="-61,400"
       id="guide3180" />
  </sodipodi:namedview>
  <metadata
     id="metadata7">
    <rdf:RDF>
      <cc:Work
         rdf:about="">
        <dc:format>image/svg+xml</dc:format>
        <dc:type
           rdf:resource="http://purl.org/dc/dcmitype/StillImage" />
        <dc:title></dc:title>
      </cc:Work>
    </rdf:RDF>
  </metadata>
  <g
     inkscape:label="Layer 1"
     inkscape:groupmode="layer"
     id="layer1"
     transform="translate(0,-252.36218)">
    <path
       id="rect113"
       transform="translate(0,252.36218)"
       style="fill:#ff0000;fill-opacity:1;stroke:none"
       d="m 640,165.8125 c -3.60396,0.004 -5.68679,1.27711 -8.78125,5.375 -1.52391,2.01794 -3.24031,3.86877 -3.78125,4.15625 -6.48163,3.44448 -9.34006,7.16978 -9.3125,12.0625 0.0168,2.95785 0.60459,4.80264 3.6875,11.5625 0.49346,1.0819 1.13138,2.74082 1.40625,3.6875 1.90852,6.57347 5.2614,11.56979 8.0625,11.96875 2.76805,0.3942 6.61834,-0.0468 8.84375,-1.03125 4.81137,-2.12831 13.29059,-12.93983 13.96875,-17.8125 0.4634,-3.32989 0.69881,-3.93383 2.15625,-5.59375 2.82512,-3.21765 3.75032,-8.29825 2.03125,-11.125 -1.26682,-2.08317 -11.71209,-11.26192 -14.09375,-12.375 C 643.1056,166.18185 641.21715,165.81151 640,165.8125 z m 0.28125,1.90625 c 1.81015,0.0711 3.74254,1.08613 5.71875,3.0625 1.16018,1.16032 3.73484,3.42338 5.71875,5 4.54043,3.60842 5.81192,5.98091 4.65625,8.65625 -0.41469,0.96004 -0.95105,2.48184 -1.21875,3.40625 -0.26766,0.92441 -1.03654,2.56255 -1.6875,3.59375 -0.65098,1.03118 -1.1875,2.09913 -1.1875,2.375 0,0.7537 -0.69193,0.58405 -2,-0.4375 -0.64508,-0.50374 -1.72032,-1.05459 -2.34375,-1.25 -1.36204,-0.42683 -1.17637,-1.31376 0.4375,-2.125 1.19482,-0.60055 2.4375,-1.96342 2.4375,-2.6875 0,-0.21659 -0.82946,-0.0834 -1.84375,0.28125 -5.8058,2.08796 -7.35494,2.20559 -12.9375,1.03125 -3.3819,-0.7114 -6.03028,-1.90527 -7.625,-3.5 -0.63839,-0.63832 -0.71875,-0.59312 -0.71875,0.5 0,0.77169 0.64933,1.86767 1.71875,2.90625 1.71818,1.6687 1.71973,1.68791 0.71875,2.59375 -0.551,0.49864 -1.65434,2.29363 -2.46875,4 -0.81433,1.70633 -1.78843,3.09374 -2.15625,3.09375 -0.93926,0 -3.14366,-2.76973 -3.46875,-4.34375 -0.1493,-0.72298 -0.59262,-2.32573 -0.96875,-3.59375 -1.04423,-3.52044 0.11983,-7.15183 3.1875,-9.90625 1.26702,-1.13769 2.9306,-2.41067 3.71875,-2.8125 2.74962,-1.40194 4.04985,-2.55474 5.875,-5.375 1.75988,-2.71943 3.65046,-4.20394 5.6875,-4.4375 C 639.78589,167.72062 640.02265,167.70863 640.28125,167.71875 z m -3.8125,23.25 c 0.36381,-0.0176 0.71778,-0.012 1.09375,0 2.50658,0.0802 5.23798,0.77125 6.78125,1.90625 1.80711,1.3289 1.96119,1.63629 2.28125,4.625 0.22887,2.13731 0.57036,3.33211 1.09375,3.625 1.316,0.73646 -0.10414,3.2447 -4.15625,7.21875 -2.78063,2.72703 -4.17965,3.6826 -5.8125,4.09375 -2.66929,0.67215 -4.97623,0.70765 -5.375,0.0625 -0.16716,-0.27047 -0.69148,-0.5 -1.1875,-0.5 -1.30498,0 -6.28512,-9.73207 -5.53125,-10.8125 0.29137,-0.41761 1.05092,-1.75161 1.65625,-2.96875 1.44412,-2.90379 4.13518,-5.77845 6.28125,-6.6875 C 634.36434,191.2048 635.37735,191.02153 636.46875,190.96875 z m 13.21875,4.9375 c 0.0867,-0.0364 0.15591,-0.0332 0.25,0 0.32812,0.11564 0.60592,0.93269 0.5625,1.8125 -0.10098,2.05963 -0.94533,2.95205 -1.40625,1.5 C 648.70061,197.97994 649.08009,196.16235 649.6875,195.90625 Z" />
  </g>
</svg>
