<?xml version="1.0" encoding="UTF-8" standalone="no"?>
<!-- Created with Inkscape (http://www.inkscape.org/) -->

<svg
   xmlns:dc="http://purl.org/dc/elements/1.1/"
   xmlns:cc="http://creativecommons.org/ns#"
   xmlns:rdf="http://www.w3.org/1999/02/22-rdf-syntax-ns#"
   xmlns:svg="http://www.w3.org/2000/svg"
   xmlns="http://www.w3.org/2000/svg"
   xmlns:sodipodi="http://sodipodi.sourceforge.net/DTD/sodipodi-0.dtd"
   xmlns:inkscape="http://www.inkscape.org/namespaces/inkscape"
   width="800"
   height="700"
   id="svg2"
   version="1.1"
   inkscape:version="0.48.2 r9819"
   sodipodi:docname="m31-fill.svg">
  <defs
     id="defs4" />
  <sodipodi:namedview
     id="base"
     pagecolor="#ffffff"
     bordercolor="#666666"
     borderopacity="1.0"
     inkscape:pageopacity="0.0"
     inkscape:pageshadow="2"
     inkscape:zoom="3.5355339"
     inkscape:cx="699.10218"
     inkscape:cy="169.20803"
     inkscape:document-units="px"
     inkscape:current-layer="layer1"
     showgrid="false"
     showguides="true"
     inkscape:guide-bbox="true"
     inkscape:window-width="1024"
     inkscape:window-height="538"
     inkscape:window-x="-8"
     inkscape:window-y="-8"
     inkscape:window-maximized="1"
     width="0px"
     height="0px"
     fit-margin-top="0"
     fit-margin-left="0"
     fit-margin-right="0"
     fit-margin-bottom="0">
    <sodipodi:guide
       orientation="1,0"
       position="400.22244,349.31075"
       id="guide3178" />
    <sodipodi:guide
       orientation="0,1"
       position="400.22244,349.31075"
       id="guide3180" />
  </sodipodi:namedview>
  <metadata
     id="metadata7">
    <rdf:RDF>
      <cc:Work
         rdf:about="">
        <dc:format>image/svg+xml</dc:format>
        <dc:type
           rdf:resource="http://purl.org/dc/dcmitype/StillImage" />
        <dc:title />
      </cc:Work>
    </rdf:RDF>
  </metadata>
  <g
     inkscape:label="Layer 1"
     inkscape:groupmode="layer"
     id="layer1"
     transform="translate(0,-352.36218)">
    <path
       id="rect4714"
       transform="translate(0,352.36218)"
       style="fill:#00ff00"
       d="m 717.9375,513.9375 c -4.98515,0.007 -10.1022,0.15984 -11.71875,0.4375 -1.53482,0.2637 -3.11252,1.50763 -4,3.1875 -0.31558,0.59751 -0.65852,3.25086 -0.78125,6.03125 l -0.21875,4.96875 1.03125,-0.15625 c 1.01023,-0.1435 1.05465,-0.24905 0.90625,-3.46875 -0.17518,-3.79972 0.55587,-5.14022 1,-1.8125 0.64668,4.84525 1.52264,5.62612 5.65625,4.90625 2.15405,-0.37517 3.36647,-0.3688 5.03125,0.0312 2.25836,0.54174 4.34375,0.28369 4.34375,-0.5 0,-0.24622 -0.64627,-1.44287 -1.4375,-2.6875 -0.7912,-1.24444 -1.59138,-2.48549 -1.75,-2.75 -0.1904,-0.3177 0.10295,-0.38557 0.8125,-0.25 0.59091,0.11308 1.0625,0.35105 1.0625,0.5625 0,0.21138 0.2661,0.375 0.625,0.375 0.52524,0 0.6875,-0.6569 0.6875,-3.4375 0,-1.89988 0.19823,-3.60216 0.4375,-3.75 0.5225,-0.32306 0.53808,-0.0842 0.4375,4.4375 -0.0856,3.84525 0.33501,4.6555 1.75,3.375 1.0665,-0.96518 1.07056,-0.52389 -0.0312,2.375 -0.6825,1.79592 -0.7634,2.46945 -0.375,2.9375 0.6521,0.78584 2.29311,0.77186 3.84375,-0.0312 1.76348,-0.9118 3.94233,-0.94909 5.65625,-0.0937 1.86383,0.92982 2.39135,0.47362 2.40625,-2.0625 0.007,-1.33629 0.14414,-1.83506 0.53125,-1.6875 0.87114,0.33168 1.15716,2.2131 0.59375,4.09375 -0.67555,2.25462 -0.11127,3.0251 1.96875,2.6875 2.11565,-0.34325 1.8842,0.57305 -0.28125,1.15625 -1.52178,0.40971 -1.71875,0.64813 -1.71875,1.75 0,1.67276 -0.65236,3.32382 -1.4375,3.625 -0.52852,0.20294 -0.55155,-0.006 -0.1875,-1.1875 0.36915,-1.20286 0.23453,-1.86143 -0.78125,-4.125 -1.37485,-3.0634 -2.54079,-3.69423 -4.5625,-2.5 -0.66176,0.39082 -1.9295,0.84121 -2.84375,1.03125 l -1.6875,0.375 0.125,2.0625 c 0.14328,2.33166 -0.59485,2.75412 -1.0625,0.625 -0.31924,-1.45336 -1.82384,-3.8125 -2.4375,-3.8125 -0.50534,0 -0.4289,3.83615 0.0937,4.8125 0.24112,0.45059 0.4909,2.85058 0.5625,5.375 l 0.125,4.625 -1.4375,0 c -1.53324,0 -1.83975,-0.45469 -0.84375,-1.28125 1.03246,-0.85695 1.31473,-5.22946 0.46875,-7.34375 -0.78119,-1.95239 -0.99012,-2.13471 -1.8125,-1.3125 -0.38404,0.38439 -0.67431,0.41978 -1.03125,0.0625 -0.35699,-0.357 -0.20714,-0.89923 0.65625,-2.03125 1.26278,-1.65548 1.23669,-3.13681 -0.0937,-3.5 -3.88032,-1.05947 -7.61297,-0.52132 -9.09375,1.3125 -0.54815,0.6788 -1.2266,1.97761 -1.5,2.875 -0.5823,1.91075 -0.94985,2.02216 -1.90625,0.5625 -0.59156,-0.9029 -0.63006,-1.31538 -0.1875,-2.65625 0.6023,-1.82507 0.0711,-2.52735 -1.5,-1.96875 -1.46051,0.51959 -2.4055,2.94975 -2.40625,6.09375 0,3.46217 1.0548,5.86921 3.59375,8.09375 1.00292,0.87849 2.35501,2.07613 3,2.65625 1.41117,1.26944 3.94247,2.2706 5.90625,2.3125 0.79037,0.0171 3.23031,-0.482 5.40625,-1.09375 3.54263,-0.99596 4.4164,-1.07752 8.375,-0.8125 5.44675,0.36501 6.93486,-0.17465 7.40625,-2.6875 0.28469,-1.51725 1.55338,-3.76424 2.6875,-4.71875 0.28749,-0.24195 1.12937,-1.63142 1.875,-3.0625 1.08975,-2.08879 1.32961,-2.89603 1.09375,-4.125 -0.1616,-0.84213 -0.44821,-3.25212 -0.625,-5.34375 -0.58598,-6.93294 -4.17491,-11.94759 -9.375,-13.15625 -1.17883,-0.27413 -6.04609,-0.41325 -11.03125,-0.40625 z" />
  </g>
</svg>
