<?xml version="1.0" encoding="UTF-8" standalone="no"?>
<!-- Created with Inkscape (http://www.inkscape.org/) -->

<svg
   xmlns:dc="http://purl.org/dc/elements/1.1/"
   xmlns:cc="http://creativecommons.org/ns#"
   xmlns:rdf="http://www.w3.org/1999/02/22-rdf-syntax-ns#"
   xmlns:svg="http://www.w3.org/2000/svg"
   xmlns="http://www.w3.org/2000/svg"
   xmlns:sodipodi="http://sodipodi.sourceforge.net/DTD/sodipodi-0.dtd"
   xmlns:inkscape="http://www.inkscape.org/namespaces/inkscape"
   width="800"
   height="700"
   id="svg2"
   version="1.1"
   inkscape:version="0.48.2 r9819"
   sodipodi:docname="f12-fill.svg">
  <defs
     id="defs4" />
  <sodipodi:namedview
     id="base"
     pagecolor="#ffffff"
     bordercolor="#666666"
     borderopacity="1.0"
     inkscape:pageopacity="0.0"
     inkscape:pageshadow="2"
     inkscape:zoom="3.5355339"
     inkscape:cx="639.98929"
     inkscape:cy="597.5205"
     inkscape:document-units="px"
     inkscape:current-layer="layer1"
     showgrid="false"
     showguides="true"
     inkscape:guide-bbox="true"
     inkscape:window-width="1024"
     inkscape:window-height="538"
     inkscape:window-x="-8"
     inkscape:window-y="-8"
     inkscape:window-maximized="1"
     width="0px"
     height="0px"
     fit-margin-top="0"
     fit-margin-left="0"
     fit-margin-right="0"
     fit-margin-bottom="0">
    <sodipodi:guide
       orientation="1,0"
       position="400.22244,349.31075"
       id="guide3178" />
    <sodipodi:guide
       orientation="0,1"
       position="400.22244,349.31075"
       id="guide3180" />
  </sodipodi:namedview>
  <metadata
     id="metadata7">
    <rdf:RDF>
      <cc:Work
         rdf:about="">
        <dc:format>image/svg+xml</dc:format>
        <dc:type
           rdf:resource="http://purl.org/dc/dcmitype/StillImage" />
        <dc:title />
      </cc:Work>
    </rdf:RDF>
  </metadata>
  <g
     inkscape:label="Layer 1"
     inkscape:groupmode="layer"
     id="layer1"
     transform="translate(0,-352.36218)">
    <path
       id="rect3778"
       transform="translate(0,352.36218)"
       style="fill:#00ff00"
       d="m 563.6875,94.4375 c -3.9661,0.025 -5.41645,1.32599 -8.3125,7.59375 -2.43505,5.2702 -3.53746,9.55903 -3.8125,14.84375 -0.20532,3.94521 -0.1318,4.61798 0.71875,6.375 0.77241,1.59551 1.49429,2.28356 3.78125,3.5625 1.55344,0.8687 3.45495,2.14696 4.21875,2.8125 1.83364,1.5978 4.58818,3.00735 5.90625,3.03125 0.58243,0.0106 1.94427,-0.36397 3,-0.875 2.10837,-1.02067 9.43198,-8.31448 10.625,-10.5625 1.20151,-2.26394 1.38277,-4.74244 0.53125,-6.65625 -1.57442,-3.53849 -5.5027,-11.74284 -6.125,-12.78125 -0.35847,-0.59815 -0.89253,-1.65718 -1.21875,-2.375 -1.41568,-3.11462 -4.96467,-4.99615 -9.3125,-4.96875 z" />
  </g>
</svg>
