<?xml version="1.0" encoding="UTF-8" standalone="no"?>
<!-- Created with Inkscape (http://www.inkscape.org/) -->

<svg
   xmlns:dc="http://purl.org/dc/elements/1.1/"
   xmlns:cc="http://creativecommons.org/ns#"
   xmlns:rdf="http://www.w3.org/1999/02/22-rdf-syntax-ns#"
   xmlns:svg="http://www.w3.org/2000/svg"
   xmlns="http://www.w3.org/2000/svg"
   xmlns:sodipodi="http://sodipodi.sourceforge.net/DTD/sodipodi-0.dtd"
   xmlns:inkscape="http://www.inkscape.org/namespaces/inkscape"
   width="800"
   height="700"
   id="svg2"
   version="1.1"
   inkscape:version="0.48.2 r9819"
   sodipodi:docname="f12.svg">
  <defs
     id="defs4" />
  <sodipodi:namedview
     id="base"
     pagecolor="#ffffff"
     bordercolor="#666666"
     borderopacity="1.0"
     inkscape:pageopacity="0.0"
     inkscape:pageshadow="2"
     inkscape:zoom="3.5355339"
     inkscape:cx="639.98929"
     inkscape:cy="609.48592"
     inkscape:document-units="px"
     inkscape:current-layer="layer1"
     showgrid="false"
     showguides="true"
     inkscape:guide-bbox="true"
     inkscape:window-width="1366"
     inkscape:window-height="746"
     inkscape:window-x="-8"
     inkscape:window-y="-8"
     inkscape:window-maximized="1"
     width="0px"
     height="0px"
     fit-margin-top="0"
     fit-margin-left="0"
     fit-margin-right="0"
     fit-margin-bottom="0">
    <sodipodi:guide
       orientation="1,0"
       position="400.22244,349.31075"
       id="guide3178" />
    <sodipodi:guide
       orientation="0,1"
       position="400.22244,349.31075"
       id="guide3180" />
  </sodipodi:namedview>
  <metadata
     id="metadata7">
    <rdf:RDF>
      <cc:Work
         rdf:about="">
        <dc:format>image/svg+xml</dc:format>
        <dc:type
           rdf:resource="http://purl.org/dc/dcmitype/StillImage" />
        <dc:title></dc:title>
      </cc:Work>
    </rdf:RDF>
  </metadata>
  <g
     inkscape:label="Layer 1"
     inkscape:groupmode="layer"
     id="layer1"
     transform="translate(0,-352.36218)">
    <path
       style="fill:#ff0000"
       d="m 563.6875,446.79968 c 4.34783,-0.0274 7.89682,1.85413 9.3125,4.96875 0.32622,0.71782 0.86028,1.77685 1.21875,2.375 0.6223,1.03841 4.55058,9.24276 6.125,12.78125 0.85152,1.91381 0.67026,4.39231 -0.53125,6.65625 -1.19302,2.24802 -8.51663,9.54183 -10.625,10.5625 -1.05573,0.51103 -2.41757,0.88556 -3,0.875 -1.31807,-0.0239 -4.07261,-1.43345 -5.90625,-3.03125 -0.7638,-0.66554 -2.66531,-1.9438 -4.21875,-2.8125 -2.28696,-1.27894 -3.00884,-1.96699 -3.78125,-3.5625 -0.85055,-1.75702 -0.92407,-2.42979 -0.71875,-6.375 0.27504,-5.28472 1.37745,-9.57355 3.8125,-14.84375 2.89605,-6.26776 4.3464,-7.56875 8.3125,-7.59375 z"
       id="rect3146" />
  </g>
</svg>
