<?xml version="1.0" encoding="UTF-8" standalone="no"?>
<!-- Created with Inkscape (http://www.inkscape.org/) -->

<svg
   xmlns:dc="http://purl.org/dc/elements/1.1/"
   xmlns:cc="http://creativecommons.org/ns#"
   xmlns:rdf="http://www.w3.org/1999/02/22-rdf-syntax-ns#"
   xmlns:svg="http://www.w3.org/2000/svg"
   xmlns="http://www.w3.org/2000/svg"
   xmlns:sodipodi="http://sodipodi.sourceforge.net/DTD/sodipodi-0.dtd"
   xmlns:inkscape="http://www.inkscape.org/namespaces/inkscape"
   width="800"
   height="700"
   id="svg2"
   version="1.1"
   inkscape:version="0.48.2 r9819"
   sodipodi:docname="m25-fill.svg">
  <defs
     id="defs4" />
  <sodipodi:namedview
     id="base"
     pagecolor="#ffffff"
     bordercolor="#666666"
     borderopacity="1.0"
     inkscape:pageopacity="0.0"
     inkscape:pageshadow="2"
     inkscape:zoom="5"
     inkscape:cx="475.51318"
     inkscape:cy="132.40777"
     inkscape:document-units="px"
     inkscape:current-layer="layer1"
     showgrid="false"
     showguides="true"
     inkscape:guide-bbox="true"
     inkscape:window-width="1024"
     inkscape:window-height="538"
     inkscape:window-x="-8"
     inkscape:window-y="-8"
     inkscape:window-maximized="1"
     width="0px"
     height="0px"
     fit-margin-top="0"
     fit-margin-left="0"
     fit-margin-right="0"
     fit-margin-bottom="0">
    <sodipodi:guide
       orientation="1,0"
       position="389.2,148.8"
       id="guide3178" />
    <sodipodi:guide
       orientation="0,1"
       position="400.22244,349.31075"
       id="guide3180" />
  </sodipodi:namedview>
  <metadata
     id="metadata7">
    <rdf:RDF>
      <cc:Work
         rdf:about="">
        <dc:format>image/svg+xml</dc:format>
        <dc:type
           rdf:resource="http://purl.org/dc/dcmitype/StillImage" />
        <dc:title />
      </cc:Work>
    </rdf:RDF>
  </metadata>
  <g
     inkscape:label="Layer 1"
     inkscape:groupmode="layer"
     id="layer1"
     transform="translate(0,-352.36218)">
    <path
       id="rect4409"
       transform="translate(0,352.36218)"
       style="fill:#00ff00"
       d="m 425.375,541.25 c -1.29337,-0.0204 -2.49124,0.82752 -4.3125,2.625 -1.25088,1.23479 -2.86686,2.60171 -3.5625,3.09375 -1.80128,1.27418 -1.25873,2.40095 1.1875,2.46875 1.02441,0.0275 2.43843,0.17829 3.15625,0.375 1.47767,0.40506 10.9147,0.30402 11.34375,-0.125 0.31568,-0.31574 0.10019,-0.84217 -1.125,-2.71875 -0.46863,-0.71783 -1.1325,-1.85126 -1.5,-2.5 -0.36751,-0.64864 -1.55428,-1.68492 -2.625,-2.3125 -0.97497,-0.5713 -1.78646,-0.89405 -2.5625,-0.90625 z m -8.03125,9.40625 c -1.42534,-0.0115 -2.34964,0.30247 -2.65625,0.875 -0.57075,1.06649 -0.593,2.94081 -0.0312,3.625 0.52831,0.64323 3.72461,4.6911 5.28125,6.6875 1.4951,1.9174 4.21836,4.0625 5.15625,4.0625 0.40882,0 1.38639,-0.3034 2.15625,-0.6875 1.55136,-0.7739 4.8125,-4.03025 4.8125,-4.78125 0,-0.2637 0.70411,-1.14425 1.5625,-1.96875 2.72156,-2.6143 4.0882,-6.19563 2.5625,-6.78125 -0.3772,-0.14501 -2.74513,-0.012 -5.21875,0.28125 -4.16161,0.49313 -4.75623,0.4657 -8,-0.375 -2.29077,-0.59382 -4.19963,-0.9261 -5.625,-0.9375 z" />
  </g>
</svg>
