<?xml version="1.0" encoding="UTF-8" standalone="no"?>
<!-- Created with Inkscape (http://www.inkscape.org/) -->

<svg
   xmlns:dc="http://purl.org/dc/elements/1.1/"
   xmlns:cc="http://creativecommons.org/ns#"
   xmlns:rdf="http://www.w3.org/1999/02/22-rdf-syntax-ns#"
   xmlns:svg="http://www.w3.org/2000/svg"
   xmlns="http://www.w3.org/2000/svg"
   xmlns:sodipodi="http://sodipodi.sourceforge.net/DTD/sodipodi-0.dtd"
   xmlns:inkscape="http://www.inkscape.org/namespaces/inkscape"
   width="800"
   height="700"
   id="svg2"
   version="1.1"
   inkscape:version="0.48.2 r9819"
   sodipodi:docname="l4-fill.svg">
  <defs
     id="defs4" />
  <sodipodi:namedview
     id="base"
     pagecolor="#ffffff"
     bordercolor="#666666"
     borderopacity="1.0"
     inkscape:pageopacity="0.0"
     inkscape:pageshadow="2"
     inkscape:zoom="5"
     inkscape:cx="203.91"
     inkscape:cy="475.39709"
     inkscape:document-units="px"
     inkscape:current-layer="layer1"
     showgrid="false"
     showguides="true"
     inkscape:guide-bbox="true"
     inkscape:window-width="1024"
     inkscape:window-height="538"
     inkscape:window-x="-8"
     inkscape:window-y="-8"
     inkscape:window-maximized="1"
     width="0px"
     height="0px"
     fit-margin-top="0"
     fit-margin-left="0"
     fit-margin-right="0"
     fit-margin-bottom="0">
    <sodipodi:guide
       orientation="1,0"
       position="400.22244,349.31075"
       id="guide3178" />
    <sodipodi:guide
       orientation="0,1"
       position="400.22244,349.31075"
       id="guide3180" />
  </sodipodi:namedview>
  <metadata
     id="metadata7">
    <rdf:RDF>
      <cc:Work
         rdf:about="">
        <dc:format>image/svg+xml</dc:format>
        <dc:type
           rdf:resource="http://purl.org/dc/dcmitype/StillImage" />
        <dc:title />
      </cc:Work>
    </rdf:RDF>
  </metadata>
  <g
     inkscape:label="Layer 1"
     inkscape:groupmode="layer"
     id="layer1"
     transform="translate(0,-352.36218)">
    <path
       id="rect3377"
       transform="translate(0,352.36218)"
       style="fill:#00ff00"
       d="m 182.46875,206.6875 c -2.4234,-0.0381 -4.87567,1.15044 -7.625,3.625 -2.28787,2.05918 -4.16892,5.00229 -3.6875,5.78125 0.27511,0.44511 3.04794,-1.44516 6.8125,-4.59375 1.37842,-1.15284 3.80515,-2.25 4.90625,-2.25 2.66133,0 7.81552,4.1044 9.78125,7.78125 0.55851,1.04469 1.0213,1.38382 1.71875,1.28125 0.52107,-0.0766 1.00185,-0.37702 1.09375,-0.65625 0.27101,-0.8237 -7.75269,-9.20355 -9.71875,-10.15625 -1.0818,-0.52418 -2.17972,-0.795 -3.28125,-0.8125 z m -0.34375,4.53125 c -1.31071,0.0129 -2.57068,0.52708 -3.75,1.5625 -0.78121,0.68593 -1.61118,1.28125 -1.84375,1.28125 -0.56313,0 -2.37991,1.71812 -3.28125,3.09375 -0.39793,0.60732 -0.86342,2.34663 -1,3.875 -0.20127,2.25228 -0.0111,3.5454 0.9375,6.71875 0.64374,2.15339 1.41883,4.89746 1.71875,6.09375 0.86245,3.44004 2.76475,7.67806 4.03125,9 1.26757,1.32302 2.67401,1.54016 5.40625,0.78125 0.91389,-0.25382 2.20274,-1.12324 3,-2.03125 2.47364,-2.81737 5.24955,-10.07024 5.84375,-15.25 0.43689,-3.80835 -0.93781,-7.57849 -3.96875,-10.9375 -2.54163,-2.8167 -4.90926,-4.2091 -7.09375,-4.1875 z M 170.1875,218.25 c -0.0592,0.0675 -0.16721,0.64178 -0.375,1.78125 -0.4341,2.38209 -0.2471,3.58764 1.75,11.625 1.52312,6.12974 2.61456,8.29586 2.03125,4.03125 -0.1718,-1.25615 -0.49181,-2.77685 -0.71875,-3.375 -0.6871,-1.8112 -2.53845,-10.96303 -2.59375,-12.84375 -0.0255,-0.87381 -0.0346,-1.28625 -0.0937,-1.21875 z m 25.78125,1.53125 c -0.19161,0.002 -0.43043,0.13191 -0.84375,0.40625 -0.86983,0.57755 -0.95653,1.01643 -1.0625,5.15625 -0.0782,3.05205 -0.41451,5.60829 -1.03125,7.71875 -0.50605,1.73164 -0.9375,3.43645 -0.9375,3.8125 0,1.11274 0.90392,0.25004 1.75,-1.6875 0.79911,-1.83006 3.04315,-11.79323 3.03125,-13.46875 -0.003,-0.5091 -0.159,-1.2212 -0.375,-1.5625 -0.16966,-0.26809 -0.33965,-0.377 -0.53125,-0.375 z" />
  </g>
</svg>
