<?xml version="1.0" encoding="UTF-8" standalone="no"?>
<!-- Created with Inkscape (http://www.inkscape.org/) -->

<svg
   xmlns:dc="http://purl.org/dc/elements/1.1/"
   xmlns:cc="http://creativecommons.org/ns#"
   xmlns:rdf="http://www.w3.org/1999/02/22-rdf-syntax-ns#"
   xmlns:svg="http://www.w3.org/2000/svg"
   xmlns="http://www.w3.org/2000/svg"
   xmlns:sodipodi="http://sodipodi.sourceforge.net/DTD/sodipodi-0.dtd"
   xmlns:inkscape="http://www.inkscape.org/namespaces/inkscape"
   width="800"
   height="700"
   id="svg2"
   version="1.1"
   inkscape:version="0.48.2 r9819"
   sodipodi:docname="l4.svg">
  <defs
     id="defs4" />
  <sodipodi:namedview
     id="base"
     pagecolor="#ffffff"
     bordercolor="#666666"
     borderopacity="1.0"
     inkscape:pageopacity="0.0"
     inkscape:pageshadow="2"
     inkscape:zoom="5"
     inkscape:cx="203.91"
     inkscape:cy="467.39709"
     inkscape:document-units="px"
     inkscape:current-layer="layer1"
     showgrid="false"
     showguides="true"
     inkscape:guide-bbox="true"
     inkscape:window-width="1366"
     inkscape:window-height="746"
     inkscape:window-x="-8"
     inkscape:window-y="-8"
     inkscape:window-maximized="1"
     width="0px"
     height="0px"
     fit-margin-top="0"
     fit-margin-left="0"
     fit-margin-right="0"
     fit-margin-bottom="0">
    <sodipodi:guide
       orientation="1,0"
       position="400.22244,349.31075"
       id="guide3178" />
    <sodipodi:guide
       orientation="0,1"
       position="400.22244,349.31075"
       id="guide3180" />
  </sodipodi:namedview>
  <metadata
     id="metadata7">
    <rdf:RDF>
      <cc:Work
         rdf:about="">
        <dc:format>image/svg+xml</dc:format>
        <dc:type
           rdf:resource="http://purl.org/dc/dcmitype/StillImage" />
        <dc:title></dc:title>
      </cc:Work>
    </rdf:RDF>
  </metadata>
  <g
     inkscape:label="Layer 1"
     inkscape:groupmode="layer"
     id="layer1"
     transform="translate(0,-352.36218)">
    <path
       style="fill:#ff0000"
       d="m 182.46875,559.04968 c 1.10153,0.0175 2.19945,0.28832 3.28125,0.8125 1.96606,0.9527 9.98976,9.33255 9.71875,10.15625 -0.0919,0.27923 -0.57268,0.57962 -1.09375,0.65625 -0.69745,0.10257 -1.16024,-0.23656 -1.71875,-1.28125 -1.96573,-3.67685 -7.11992,-7.78125 -9.78125,-7.78125 -1.1011,0 -3.52783,1.09716 -4.90625,2.25 -3.76456,3.14859 -6.53739,5.03886 -6.8125,4.59375 -0.48142,-0.77896 1.39963,-3.72207 3.6875,-5.78125 2.74933,-2.47456 5.2016,-3.66311 7.625,-3.625 z"
       id="path4150" />
    <path
       style="fill:#ff0000"
       d="m 182.125,563.58093 c 2.18449,-0.0216 4.55212,1.3708 7.09375,4.1875 3.03094,3.35901 4.40564,7.12915 3.96875,10.9375 -0.5942,5.17976 -3.37011,12.43263 -5.84375,15.25 -0.79726,0.90801 -2.08611,1.77743 -3,2.03125 -2.73224,0.75891 -4.13868,0.54177 -5.40625,-0.78125 -1.2665,-1.32194 -3.1688,-5.55996 -4.03125,-9 -0.29992,-1.19629 -1.07501,-3.94036 -1.71875,-6.09375 -0.94864,-3.17335 -1.13877,-4.46647 -0.9375,-6.71875 0.13658,-1.52837 0.60207,-3.26768 1,-3.875 0.90134,-1.37563 2.71812,-3.09375 3.28125,-3.09375 0.23257,0 1.06254,-0.59532 1.84375,-1.28125 1.17932,-1.03542 2.43929,-1.54955 3.75,-1.5625 z"
       id="path4148" />
    <path
       style="fill:#ff0000"
       d="m 170.1875,570.61218 c 0.0591,-0.0675 0.0682,0.34494 0.0937,1.21875 0.0553,1.88072 1.90665,11.03255 2.59375,12.84375 0.22694,0.59815 0.54695,2.11885 0.71875,3.375 0.58331,4.26461 -0.50813,2.09849 -2.03125,-4.03125 -1.9971,-8.03736 -2.1841,-9.24291 -1.75,-11.625 0.20779,-1.13947 0.31581,-1.7138 0.375,-1.78125 z"
       id="path4146" />
    <path
       style="fill:#ff0000"
       d="m 195.96875,572.14343 c 0.1916,-0.002 0.36159,0.10691 0.53125,0.375 0.216,0.3413 0.37194,1.0534 0.375,1.5625 0.0119,1.67552 -2.23214,11.63869 -3.03125,13.46875 -0.84608,1.93754 -1.75,2.80024 -1.75,1.6875 0,-0.37605 0.43145,-2.08086 0.9375,-3.8125 0.61674,-2.11046 0.95302,-4.6667 1.03125,-7.71875 0.10597,-4.13982 0.19267,-4.5787 1.0625,-5.15625 0.41332,-0.27434 0.65214,-0.40416 0.84375,-0.40625 z"
       id="path4144" />
  </g>
</svg>
