<?xml version="1.0" encoding="UTF-8" standalone="no"?>
<!-- Created with Inkscape (http://www.inkscape.org/) -->

<svg
   xmlns:dc="http://purl.org/dc/elements/1.1/"
   xmlns:cc="http://creativecommons.org/ns#"
   xmlns:rdf="http://www.w3.org/1999/02/22-rdf-syntax-ns#"
   xmlns:svg="http://www.w3.org/2000/svg"
   xmlns="http://www.w3.org/2000/svg"
   xmlns:sodipodi="http://sodipodi.sourceforge.net/DTD/sodipodi-0.dtd"
   xmlns:inkscape="http://www.inkscape.org/namespaces/inkscape"
   width="800"
   height="700"
   id="svg2"
   version="1.1"
   inkscape:version="0.48.2 r9819"
   sodipodi:docname="m28-fill.svg">
  <defs
     id="defs4" />
  <sodipodi:namedview
     id="base"
     pagecolor="#ffffff"
     bordercolor="#666666"
     borderopacity="1.0"
     inkscape:pageopacity="0.0"
     inkscape:pageshadow="2"
     inkscape:zoom="2.5"
     inkscape:cx="638.689"
     inkscape:cy="151.79259"
     inkscape:document-units="px"
     inkscape:current-layer="layer1"
     showgrid="false"
     showguides="true"
     inkscape:guide-bbox="true"
     inkscape:window-width="1024"
     inkscape:window-height="538"
     inkscape:window-x="-8"
     inkscape:window-y="-8"
     inkscape:window-maximized="1"
     width="0px"
     height="0px"
     fit-margin-top="0"
     fit-margin-left="0"
     fit-margin-right="0"
     fit-margin-bottom="0">
    <sodipodi:guide
       orientation="1,0"
       position="400.22244,349.31075"
       id="guide3178" />
    <sodipodi:guide
       orientation="0,1"
       position="400.22244,349.31075"
       id="guide3180" />
  </sodipodi:namedview>
  <metadata
     id="metadata7">
    <rdf:RDF>
      <cc:Work
         rdf:about="">
        <dc:format>image/svg+xml</dc:format>
        <dc:type
           rdf:resource="http://purl.org/dc/dcmitype/StillImage" />
        <dc:title />
      </cc:Work>
    </rdf:RDF>
  </metadata>
  <g
     inkscape:label="Layer 1"
     inkscape:groupmode="layer"
     id="layer1"
     transform="translate(0,-352.36218)">
    <path
       id="rect4556"
       transform="translate(0,352.36218)"
       style="fill:#00ff00"
       d="m 575.40625,530.25 c -3.02218,0.0142 -5.41449,0.63348 -6.46875,1.6875 l -0.875,0.875 0.84375,1.8125 0.90625,1.8125 3.875,0.0937 c 2.69517,0.065 4.366,0.30478 5.46875,0.84375 1.81595,0.88756 3,0.67314 3,-0.59375 0,-0.47771 0.36073,-1.07073 0.8125,-1.3125 0.76061,-0.40709 0.82163,-0.3132 0.5,1.1875 -0.19101,0.8915 -0.52155,2.83674 -0.6875,4.34375 -0.33236,3.0179 -1.17808,3.53931 -1.40625,0.84375 -0.12046,-1.42376 -0.36723,-1.67724 -2.15625,-2.46875 -2.22909,-0.98611 -5.70398,-1.61498 -7.875,-1.40625 -1.27702,0.12325 -1.54147,0.39528 -2.5,2.5625 -1.12385,2.54119 -1.934,2.91021 -1.09375,0.5 0.82963,-2.38 0.60223,-4.439 -0.59375,-5.5625 -0.96979,-0.91112 -1.1927,-0.97156 -2.40625,-0.46875 -1.72032,0.71255 -4.21477,3.66119 -4.8125,5.65625 -0.3576,1.19353 -0.3165,2.13245 0.1875,4.0625 0.66602,2.55032 3.10363,6.31935 4.09375,6.34375 0.29909,0 0.53125,0.24493 0.53125,0.5 0,0.74204 5.63812,6.0816 7.125,6.75 1.56954,0.7054 5.44931,0.4472 7.28125,-0.5 2.58672,-1.3376 8.05318,-10.4391 8.8125,-14.65625 0.51616,-2.86678 -0.81052,-5.748 -4.125,-9.0625 -3.1619,-3.16188 -4.67114,-3.85745 -8.4375,-3.84375 z" />
  </g>
</svg>
