<?xml version="1.0" encoding="UTF-8" standalone="no"?>
<!-- Created with Inkscape (http://www.inkscape.org/) -->

<svg
   xmlns:dc="http://purl.org/dc/elements/1.1/"
   xmlns:cc="http://creativecommons.org/ns#"
   xmlns:rdf="http://www.w3.org/1999/02/22-rdf-syntax-ns#"
   xmlns:svg="http://www.w3.org/2000/svg"
   xmlns="http://www.w3.org/2000/svg"
   xmlns:sodipodi="http://sodipodi.sourceforge.net/DTD/sodipodi-0.dtd"
   xmlns:inkscape="http://www.inkscape.org/namespaces/inkscape"
   width="800"
   height="700"
   id="svg2"
   version="1.1"
   inkscape:version="0.48.2 r9819"
   sodipodi:docname="l1-fill.svg">
  <defs
     id="defs4" />
  <sodipodi:namedview
     id="base"
     pagecolor="#ffffff"
     bordercolor="#666666"
     borderopacity="1.0"
     inkscape:pageopacity="0.0"
     inkscape:pageshadow="2"
     inkscape:zoom="5.6568542"
     inkscape:cx="68.119819"
     inkscape:cy="478.98206"
     inkscape:document-units="px"
     inkscape:current-layer="layer1"
     showgrid="false"
     showguides="true"
     inkscape:guide-bbox="true"
     inkscape:window-width="1024"
     inkscape:window-height="538"
     inkscape:window-x="-8"
     inkscape:window-y="-8"
     inkscape:window-maximized="1"
     width="0px"
     height="0px"
     fit-margin-top="0"
     fit-margin-left="0"
     fit-margin-right="0"
     fit-margin-bottom="0">
    <sodipodi:guide
       orientation="1,0"
       position="400.22244,349.31075"
       id="guide3178" />
    <sodipodi:guide
       orientation="0,1"
       position="400.22244,349.31075"
       id="guide3180" />
  </sodipodi:namedview>
  <metadata
     id="metadata7">
    <rdf:RDF>
      <cc:Work
         rdf:about="">
        <dc:format>image/svg+xml</dc:format>
        <dc:type
           rdf:resource="http://purl.org/dc/dcmitype/StillImage" />
        <dc:title />
      </cc:Work>
    </rdf:RDF>
  </metadata>
  <g
     inkscape:label="Layer 1"
     inkscape:groupmode="layer"
     id="layer1"
     transform="translate(0,-352.36218)">
    <path
       id="rect3198"
       transform="translate(0,352.36218)"
       style="fill:#00ff00"
       d="m 26.75,207.5625 c -0.64218,0.0387 -1.26285,0.24386 -2.25,0.59375 -1.2457,0.44145 -3.31298,1.51681 -4.59375,2.375 -3.79871,2.54543 -5.82327,3.53125 -7.3125,3.53125 -1.82357,0 -2.30108,-0.77779 -0.8125,-1.34375 1.94331,-0.73884 4.5525,-2.76271 4.5625,-3.5625 0.01073,-0.87397 -1.67307,-1.43109 -3.03125,-1 -1.2651,0.40154 -2.46404,1.75426 -3.96875,4.53125 -1.51494,2.79581 -1.55394,3.99561 -0.375,8.25 0.98386,3.55028 1.37296,4.44454 4.21875,9.3125 2.23671,3.82611 2.55614,4.10108 4.8125,4.90625 2.33279,0.83242 5.06299,0.76333 9.03125,-0.25 8.35181,-2.13273 11.05344,-3.43757 12.96875,-6.28125 2.92721,-4.34606 3.12582,-6.90247 0.9375,-11.46875 -0.82809,-1.72792 -1.72013,-3.09375 -1.96875,-3.09375 -0.2486,0 -0.4375,-0.22611 -0.4375,-0.46875 0,-1.46558 -5.54926,-4.77556 -9.5,-5.6875 -0.99738,-0.23016 -1.6391,-0.38265 -2.28125,-0.34375 z" />
  </g>
</svg>
