<?xml version="1.0" encoding="UTF-8" standalone="no"?>
<!-- Created with Inkscape (http://www.inkscape.org/) -->

<svg
   xmlns:dc="http://purl.org/dc/elements/1.1/"
   xmlns:cc="http://creativecommons.org/ns#"
   xmlns:rdf="http://www.w3.org/1999/02/22-rdf-syntax-ns#"
   xmlns:svg="http://www.w3.org/2000/svg"
   xmlns="http://www.w3.org/2000/svg"
   xmlns:sodipodi="http://sodipodi.sourceforge.net/DTD/sodipodi-0.dtd"
   xmlns:inkscape="http://www.inkscape.org/namespaces/inkscape"
   width="800"
   height="700"
   id="svg2"
   version="1.1"
   inkscape:version="0.48.2 r9819"
   sodipodi:docname="l1.svg">
  <defs
     id="defs4" />
  <sodipodi:namedview
     id="base"
     pagecolor="#ffffff"
     bordercolor="#666666"
     borderopacity="1.0"
     inkscape:pageopacity="0.0"
     inkscape:pageshadow="2"
     inkscape:zoom="5.6568542"
     inkscape:cx="68.119819"
     inkscape:cy="450.69779"
     inkscape:document-units="px"
     inkscape:current-layer="layer1"
     showgrid="false"
     showguides="true"
     inkscape:guide-bbox="true"
     inkscape:window-width="1366"
     inkscape:window-height="746"
     inkscape:window-x="-8"
     inkscape:window-y="-8"
     inkscape:window-maximized="1"
     width="0px"
     height="0px"
     fit-margin-top="0"
     fit-margin-left="0"
     fit-margin-right="0"
     fit-margin-bottom="0">
    <sodipodi:guide
       orientation="1,0"
       position="400.22244,349.31075"
       id="guide3178" />
    <sodipodi:guide
       orientation="0,1"
       position="400.22244,349.31075"
       id="guide3180" />
  </sodipodi:namedview>
  <metadata
     id="metadata7">
    <rdf:RDF>
      <cc:Work
         rdf:about="">
        <dc:format>image/svg+xml</dc:format>
        <dc:type
           rdf:resource="http://purl.org/dc/dcmitype/StillImage" />
        <dc:title></dc:title>
      </cc:Work>
    </rdf:RDF>
  </metadata>
  <g
     inkscape:label="Layer 1"
     inkscape:groupmode="layer"
     id="layer1"
     transform="translate(0,-352.36218)">
    <path
       style="fill:#ff0000"
       d="m 26.75,559.92468 c 0.64215,-0.0389 1.28387,0.11359 2.28125,0.34375 3.95074,0.91194 9.5,4.22192 9.5,5.6875 0,0.24264 0.1889,0.46875 0.4375,0.46875 0.24862,0 1.14066,1.36583 1.96875,3.09375 2.18832,4.56628 1.98971,7.12269 -0.9375,11.46875 -1.91531,2.84368 -4.61694,4.14852 -12.96875,6.28125 -3.96826,1.01333 -6.69846,1.08242 -9.03125,0.25 -2.25636,-0.80517 -2.57579,-1.08014 -4.8125,-4.90625 -2.84579,-4.86796 -3.23489,-5.76222 -4.21875,-9.3125 -1.17894,-4.25439 -1.13994,-5.45419 0.375,-8.25 1.50471,-2.77699 2.70365,-4.12971 3.96875,-4.53125 1.35818,-0.43109 3.04198,0.12603 3.03125,1 -0.01,0.79979 -2.61919,2.82366 -4.5625,3.5625 -1.48858,0.56596 -1.01107,1.34375 0.8125,1.34375 1.48923,0 3.51379,-0.98582 7.3125,-3.53125 1.28077,-0.85819 3.34805,-1.93355 4.59375,-2.375 0.98715,-0.34989 1.60782,-0.55505 2.25,-0.59375 z"
       id="path3897" />
  </g>
</svg>
