<?xml version="1.0" encoding="UTF-8" standalone="no"?>
<!-- Created with Inkscape (http://www.inkscape.org/) -->

<svg
   xmlns:dc="http://purl.org/dc/elements/1.1/"
   xmlns:cc="http://creativecommons.org/ns#"
   xmlns:rdf="http://www.w3.org/1999/02/22-rdf-syntax-ns#"
   xmlns:svg="http://www.w3.org/2000/svg"
   xmlns="http://www.w3.org/2000/svg"
   xmlns:sodipodi="http://sodipodi.sourceforge.net/DTD/sodipodi-0.dtd"
   xmlns:inkscape="http://www.inkscape.org/namespaces/inkscape"
   width="900"
   height="800"
   id="svg2"
   version="1.1"
   inkscape:version="0.48+devel r11738"
   sodipodi:docname="f32-fill.svg">
  <defs
     id="defs4" />
  <sodipodi:namedview
     id="base"
     pagecolor="#ffffff"
     bordercolor="#666666"
     borderopacity="1.0"
     inkscape:pageopacity="0.0"
     inkscape:pageshadow="2"
     inkscape:zoom="11.313708"
     inkscape:cx="855.81674"
     inkscape:cy="149.08078"
     inkscape:document-units="px"
     inkscape:current-layer="layer1"
     showgrid="false"
     showguides="true"
     inkscape:guide-bbox="true"
     inkscape:window-width="1366"
     inkscape:window-height="705"
     inkscape:window-x="-4"
     inkscape:window-y="-4"
     inkscape:window-maximized="1"
     width="0px"
     height="0px"
     fit-margin-top="0"
     fit-margin-left="0"
     fit-margin-right="0"
     fit-margin-bottom="0">
    <sodipodi:guide
       orientation="1,0"
       position="450,784"
       id="guide3178" />
    <sodipodi:guide
       orientation="0,1"
       position="-61,400"
       id="guide3180" />
  </sodipodi:namedview>
  <metadata
     id="metadata7">
    <rdf:RDF>
      <cc:Work
         rdf:about="">
        <dc:format>image/svg+xml</dc:format>
        <dc:type
           rdf:resource="http://purl.org/dc/dcmitype/StillImage" />
        <dc:title></dc:title>
      </cc:Work>
    </rdf:RDF>
  </metadata>
  <g
     inkscape:label="Layer 1"
     inkscape:groupmode="layer"
     id="layer1"
     transform="translate(0,-252.36218)">
    <path
       style="fill:#800000;fill-opacity:1;stroke:none"
       d="M 879.375 632.375 C 878.3829 632.375 872.57137 635.14127 872.15625 635.8125 C 872.01353 636.04317 871.24608 636.38476 870.4375 636.5625 C 869.45995 636.77719 868.87678 637.24596 868.6875 638 C 868.41175 639.09878 868.64799 645.88054 869.03125 647.875 C 869.19586 648.73151 868.90938 648.86951 866.875 649 C 864.53292 649.15095 863.65569 648.42707 865.40625 647.78125 C 866.76865 647.27865 866.993 646.59203 867 643.03125 C 867.01033 637.92067 865.44314 635.76289 860.59375 634 L 857.90625 633 L 854.71875 634 C 850.60404 635.28499 847.92549 636.99179 847.53125 638.5625 C 847.35992 639.24542 847.29642 641.20919 847.40625 642.9375 C 847.57586 645.60054 848.1214 647.11296 850.90625 652.78125 C 854.5253 660.14742 854.81401 660.40625 859.125 660.40625 C 860.44965 660.40625 862.7261 660.82279 864.15625 661.34375 C 867.5522 662.58081 868.57483 662.82808 869.46875 662.5 C 869.87462 662.35123 871.96116 662.06387 874.125 661.875 C 881.59248 661.22309 886.1719 659.26922 886.1875 656.75 C 886.1921 656.18848 886.6511 654.32067 887.21875 652.5625 C 887.97406 650.22318 888.2626 647.93864 888.3125 644.09375 C 888.37694 639.10045 888.30847 638.76471 887.15625 637.6875 C 884.76802 635.45434 880.26197 632.375 879.375 632.375 z "
       transform="translate(0,252.36218)"
       id="rect92" />
  </g>
</svg>
