<?xml version="1.0" encoding="UTF-8" standalone="no"?>
<!-- Created with Inkscape (http://www.inkscape.org/) -->

<svg
   xmlns:dc="http://purl.org/dc/elements/1.1/"
   xmlns:cc="http://creativecommons.org/ns#"
   xmlns:rdf="http://www.w3.org/1999/02/22-rdf-syntax-ns#"
   xmlns:svg="http://www.w3.org/2000/svg"
   xmlns="http://www.w3.org/2000/svg"
   xmlns:sodipodi="http://sodipodi.sourceforge.net/DTD/sodipodi-0.dtd"
   xmlns:inkscape="http://www.inkscape.org/namespaces/inkscape"
   width="800"
   height="400"
   id="svg2"
   version="1.1"
   inkscape:version="0.48.2 r9819"
   sodipodi:docname="mb-fill.svg">
  <defs
     id="defs4" />
  <sodipodi:namedview
     id="base"
     pagecolor="#ffffff"
     bordercolor="#666666"
     borderopacity="1.0"
     inkscape:pageopacity="0.0"
     inkscape:pageshadow="2"
     inkscape:zoom="5.6568542"
     inkscape:cx="262.36028"
     inkscape:cy="238.72068"
     inkscape:document-units="px"
     inkscape:current-layer="layer1"
     showgrid="false"
     showguides="true"
     inkscape:guide-bbox="true"
     inkscape:window-width="1024"
     inkscape:window-height="538"
     inkscape:window-x="-8"
     inkscape:window-y="-8"
     inkscape:window-maximized="1"
     width="0px"
     height="0px"
     fit-margin-top="0"
     fit-margin-left="0"
     fit-margin-right="0"
     fit-margin-bottom="0">
    <sodipodi:guide
       orientation="1,0"
       position="400.22244,349.31075"
       id="guide3178" />
  </sodipodi:namedview>
  <metadata
     id="metadata7">
    <rdf:RDF>
      <cc:Work
         rdf:about="">
        <dc:format>image/svg+xml</dc:format>
        <dc:type
           rdf:resource="http://purl.org/dc/dcmitype/StillImage" />
        <dc:title />
        <cc:license
           rdf:resource="" />
      </cc:Work>
    </rdf:RDF>
  </metadata>
  <g
     inkscape:label="Layer 1"
     inkscape:groupmode="layer"
     id="layer1"
     transform="translate(0,-652.36218)">
    <path
       style="fill:#00ff00"
       d="M 267.46875 138.21875 C 266.71402 138.23205 265.88052 138.25125 264.9375 138.28125 C 256.17943 138.55975 254.54018 139.12312 248.84375 143.6875 C 245.31469 146.51523 245.25127 146.68183 244.78125 155.125 C 244.22545 165.10892 245.01102 167.25315 251.03125 172.40625 C 254.97254 175.77983 262.1152 179.83605 264.34375 179.9375 C 264.93813 179.9646 268.09992 178.25285 271.34375 176.15625 C 278.45075 171.56278 280.40594 167.98664 281.8125 156.96875 C 282.95691 148.00432 281.96092 144.9995 276.3125 140.5 C 273.83947 138.53 272.75185 138.12575 267.46875 138.21875 z M 258.75 145.96875 C 258.8147 145.96145 258.8779 145.9632 258.9375 146 C 260.06869 146.69911 260.07516 150.70353 258.9375 151.90625 C 258.07939 152.81342 259.82186 160.20964 262 164.84375 C 263.03249 167.04041 262.42155 169.125 260.71875 169.125 C 260.18416 169.125 259.83402 168.55354 259.96875 167.875 C 260.65742 164.40677 254.14024 150.375 251.84375 150.375 C 250.10713 150.375 250.91094 156.85828 252.90625 159 C 254.12066 160.30351 254.47459 161.36012 253.84375 161.75 C 251.12925 163.42765 248.06317 156.10225 249.34375 151 C 250.15633 147.76245 253.51558 147.03281 255.375 149.6875 C 256.80646 151.73119 256.8516 151.71073 257.46875 148.625 C 257.77127 147.11238 258.29709 146.01955 258.75 145.96875 z M 268.625 147.4375 C 268.9119 147.41437 269.23356 147.58958 269.59375 147.96875 C 270.07505 148.47538 270.15428 151.0153 269.75 153.59375 C 269.06463 157.96497 269.17096 158.28125 271.15625 158.28125 C 272.61255 158.28125 273.98242 157.01268 275.5 154.3125 C 276.72035 152.14118 278.11691 150.375 278.625 150.375 C 280.14043 150.375 279.70076 152.25129 277.4375 155.3125 C 275.70171 157.6603 275.53085 158.45085 276.53125 159.65625 C 278.42758 161.94119 276.78182 163.66769 274.59375 161.6875 C 272.64148 159.92071 270.6875 160.47669 270.6875 162.78125 C 270.6875 163.56346 270.23033 164.1875 269.6875 164.1875 C 269.14469 164.1875 268.6875 163.73527 268.6875 163.1875 C 268.6875 162.63973 267.37849 160.79782 265.75 159.09375 C 261.6875 154.84279 261.71301 151.16201 265.78125 154.84375 C 267.3368 156.25148 267.4703 156.07147 267.375 152.4375 C 267.29303 149.31113 267.76431 147.5069 268.625 147.4375 z "
       transform="translate(0,652.36218)"
       id="path3267" />
  </g>
</svg>
