<?xml version="1.0" encoding="UTF-8" standalone="no"?>
<!-- Created with Inkscape (http://www.inkscape.org/) -->

<svg
   xmlns:dc="http://purl.org/dc/elements/1.1/"
   xmlns:cc="http://creativecommons.org/ns#"
   xmlns:rdf="http://www.w3.org/1999/02/22-rdf-syntax-ns#"
   xmlns:svg="http://www.w3.org/2000/svg"
   xmlns="http://www.w3.org/2000/svg"
   xmlns:sodipodi="http://sodipodi.sourceforge.net/DTD/sodipodi-0.dtd"
   xmlns:inkscape="http://www.inkscape.org/namespaces/inkscape"
   width="800"
   height="400"
   id="svg2"
   version="1.1"
   inkscape:version="0.48.2 r9819"
   sodipodi:docname="mb23-fill.svg">
  <defs
     id="defs4" />
  <sodipodi:namedview
     id="base"
     pagecolor="#ffffff"
     bordercolor="#666666"
     borderopacity="1.0"
     inkscape:pageopacity="0.0"
     inkscape:pageshadow="2"
     inkscape:zoom="4"
     inkscape:cx="266.38216"
     inkscape:cy="230.36491"
     inkscape:document-units="px"
     inkscape:current-layer="layer1"
     showgrid="false"
     showguides="true"
     inkscape:guide-bbox="true"
     inkscape:window-width="1366"
     inkscape:window-height="746"
     inkscape:window-x="-8"
     inkscape:window-y="-8"
     inkscape:window-maximized="1"
     width="0px"
     height="0px"
     fit-margin-top="0"
     fit-margin-left="0"
     fit-margin-right="0"
     fit-margin-bottom="0">
    <sodipodi:guide
       orientation="1,0"
       position="400.22244,349.31075"
       id="guide3178" />
  </sodipodi:namedview>
  <metadata
     id="metadata7">
    <rdf:RDF>
      <cc:Work
         rdf:about="">
        <dc:format>image/svg+xml</dc:format>
        <dc:type
           rdf:resource="http://purl.org/dc/dcmitype/StillImage" />
        <dc:title></dc:title>
        <cc:license
           rdf:resource="" />
      </cc:Work>
    </rdf:RDF>
  </metadata>
  <g
     inkscape:label="Layer 1"
     inkscape:groupmode="layer"
     id="layer1"
     transform="translate(0,-652.36218)">
    <path
       style="fill:#ff5555;fill-opacity:1;stroke:none"
       d="M 257.21875 149.75 C 256.90318 151.13613 256.6407 151.33899 256 150.53125 L 256 155.78125 C 257.83627 159.31155 259.56959 163.70719 259.9375 166.34375 L 262.4375 166.34375 C 262.36906 165.86619 262.24224 165.35912 262 164.84375 C 259.82186 160.20964 258.07939 152.81342 258.9375 151.90625 C 259.35441 151.4655 259.63944 150.64271 259.75 149.75 L 257.21875 149.75 z M 267.46875 149.75 C 267.37643 150.48857 267.3473 151.38108 267.375 152.4375 C 267.4703 156.07147 267.3368 156.25148 265.78125 154.84375 C 261.71301 151.16201 261.6875 154.84279 265.75 159.09375 C 267.37849 160.79782 268.6875 162.63973 268.6875 163.1875 C 268.6875 163.73527 269.14469 164.1875 269.6875 164.1875 C 270.23033 164.1875 270.6875 163.56346 270.6875 162.78125 C 270.6875 162.08443 270.85303 161.54872 271.15625 161.1875 L 271.15625 158.28125 C 269.17096 158.28125 269.06463 157.96497 269.75 153.59375 C 269.96968 152.19263 270.05279 150.8083 270 149.75 L 267.46875 149.75 z "
       transform="translate(0,652.36218)"
       id="rect4070-9-8" />
  </g>
</svg>
