<?xml version="1.0" encoding="UTF-8" standalone="no"?>
<!-- Created with Inkscape (http://www.inkscape.org/) -->

<svg
   xmlns:dc="http://purl.org/dc/elements/1.1/"
   xmlns:cc="http://creativecommons.org/ns#"
   xmlns:rdf="http://www.w3.org/1999/02/22-rdf-syntax-ns#"
   xmlns:svg="http://www.w3.org/2000/svg"
   xmlns="http://www.w3.org/2000/svg"
   xmlns:sodipodi="http://sodipodi.sourceforge.net/DTD/sodipodi-0.dtd"
   xmlns:inkscape="http://www.inkscape.org/namespaces/inkscape"
   width="800"
   height="400"
   id="svg2"
   version="1.1"
   inkscape:version="0.48.2 r9819"
   sodipodi:docname="mb33-fill.svg">
  <defs
     id="defs4" />
  <sodipodi:namedview
     id="base"
     pagecolor="#ffffff"
     bordercolor="#666666"
     borderopacity="1.0"
     inkscape:pageopacity="0.0"
     inkscape:pageshadow="2"
     inkscape:zoom="4"
     inkscape:cx="266.38216"
     inkscape:cy="230.36491"
     inkscape:document-units="px"
     inkscape:current-layer="layer1"
     showgrid="false"
     showguides="true"
     inkscape:guide-bbox="true"
     inkscape:window-width="1366"
     inkscape:window-height="746"
     inkscape:window-x="-8"
     inkscape:window-y="-8"
     inkscape:window-maximized="1"
     width="0px"
     height="0px"
     fit-margin-top="0"
     fit-margin-left="0"
     fit-margin-right="0"
     fit-margin-bottom="0">
    <sodipodi:guide
       orientation="1,0"
       position="400.22244,349.31075"
       id="guide3178" />
  </sodipodi:namedview>
  <metadata
     id="metadata7">
    <rdf:RDF>
      <cc:Work
         rdf:about="">
        <dc:format>image/svg+xml</dc:format>
        <dc:type
           rdf:resource="http://purl.org/dc/dcmitype/StillImage" />
        <dc:title></dc:title>
        <cc:license
           rdf:resource="" />
      </cc:Work>
    </rdf:RDF>
  </metadata>
  <g
     inkscape:label="Layer 1"
     inkscape:groupmode="layer"
     id="layer1"
     transform="translate(0,-652.36218)">
    <path
       style="fill:#ffaaaa;fill-opacity:1;stroke:none"
       d="M 282.15625 149.75 C 282.34031 151.68551 282.19255 153.99174 281.8125 156.96875 C 281.30621 160.93463 280.70688 163.91173 279.84375 166.34375 L 283.3125 166.34375 C 284.51498 162.94024 284.97567 158.93487 284.9375 153.5625 C 284.9273 152.12921 284.89224 150.88569 284.8125 149.75 L 282.15625 149.75 z M 278.625 150.375 C 278.11691 150.375 276.72035 152.14118 275.5 154.3125 C 273.98242 157.01268 272.61255 158.28125 271.15625 158.28125 L 271.15625 161.1875 C 271.85586 160.35407 273.23178 160.45493 274.59375 161.6875 C 276.78182 163.66769 278.42758 161.94119 276.53125 159.65625 C 275.53085 158.45085 275.70171 157.6603 277.4375 155.3125 C 279.70076 152.25129 280.14043 150.375 278.625 150.375 z "
       transform="translate(0,652.36218)"
       id="rect4070-9-4-2" />
  </g>
</svg>
