<?xml version="1.0" encoding="UTF-8" standalone="no"?>
<!-- Created with Inkscape (http://www.inkscape.org/) -->

<svg
   xmlns:dc="http://purl.org/dc/elements/1.1/"
   xmlns:cc="http://creativecommons.org/ns#"
   xmlns:rdf="http://www.w3.org/1999/02/22-rdf-syntax-ns#"
   xmlns:svg="http://www.w3.org/2000/svg"
   xmlns="http://www.w3.org/2000/svg"
   xmlns:sodipodi="http://sodipodi.sourceforge.net/DTD/sodipodi-0.dtd"
   xmlns:inkscape="http://www.inkscape.org/namespaces/inkscape"
   width="800"
   height="700"
   id="svg2"
   version="1.1"
   inkscape:version="0.48.2 r9819"
   sodipodi:docname="f26-fill.svg">
  <defs
     id="defs4" />
  <sodipodi:namedview
     id="base"
     pagecolor="#ffffff"
     bordercolor="#666666"
     borderopacity="1.0"
     inkscape:pageopacity="0.0"
     inkscape:pageshadow="2"
     inkscape:zoom="5.0000001"
     inkscape:cx="527.95078"
     inkscape:cy="209.37663"
     inkscape:document-units="px"
     inkscape:current-layer="layer1"
     showgrid="false"
     showguides="true"
     inkscape:guide-bbox="true"
     inkscape:window-width="1024"
     inkscape:window-height="538"
     inkscape:window-x="-8"
     inkscape:window-y="-8"
     inkscape:window-maximized="1"
     width="0px"
     height="0px"
     fit-margin-top="0"
     fit-margin-left="0"
     fit-margin-right="0"
     fit-margin-bottom="0">
    <sodipodi:guide
       orientation="1,0"
       position="400.22244,349.31075"
       id="guide3178" />
    <sodipodi:guide
       orientation="0,1"
       position="400.22244,349.31075"
       id="guide3180" />
  </sodipodi:namedview>
  <metadata
     id="metadata7">
    <rdf:RDF>
      <cc:Work
         rdf:about="">
        <dc:format>image/svg+xml</dc:format>
        <dc:type
           rdf:resource="http://purl.org/dc/dcmitype/StillImage" />
        <dc:title />
      </cc:Work>
    </rdf:RDF>
  </metadata>
  <g
     inkscape:label="Layer 1"
     inkscape:groupmode="layer"
     id="layer1"
     transform="translate(0,-352.36218)">
    <path
       id="rect4434"
       transform="translate(0,352.36218)"
       style="fill:#00ff00"
       d="m 468.84375,469.65625 c -1.15636,-0.0152 -2.26516,0.19231 -2.8125,0.6875 -1.42063,1.28568 -3.01387,7.3797 -3.375,12.90625 -0.15789,2.41558 -0.75264,6.40519 -2.28125,15.0625 -0.36104,2.04451 0.52996,5.7336 1.46875,6.09375 0.32547,0.1248 1.19622,0.1395 1.9375,0.0625 l 1.34375,-0.125 -1.5,-2.53125 c -1.99666,-3.30597 -2.34234,-5.40087 -1.21875,-7.5625 0.47127,-0.90674 1.10819,-2.74655 1.40625,-4.0625 1.10141,-4.8631 2.29676,-9.125 2.59375,-9.125 0.16814,0 0.57593,-0.82684 0.90625,-1.84375 0.5975,-1.8396 0.6076,-1.8363 0.75,-0.5 0.0788,0.73866 -0.1437,2.1941 -0.53125,3.25 -0.38752,1.05584 -0.88747,2.50103 -1.09375,3.21875 -0.20626,0.71795 -0.71644,2.40269 -1.09375,3.71875 -1.03839,3.62159 -1.256,5.17352 -1.25,8.03125 0.007,3.0939 0.9593,5.23042 2.53125,5.625 0.67235,0.16859 1.21242,0.66478 1.375,1.3125 0.17945,0.71519 0.65509,1.1297 1.4375,1.25 1.61933,0.24897 4.65607,0.01 7.21875,-0.5625 1.19632,-0.26694 2.5831,-0.76085 3.09375,-1.09375 1.37206,-0.89475 3.1975,-4.87454 3.1875,-6.9375 -0.009,-2.34322 -1.04768,-7.09161 -1.90625,-8.71875 -0.37873,-0.71781 -0.68669,-1.57268 -0.6875,-1.875 0,-0.30232 -0.14639,-0.86584 -0.34375,-1.28125 -0.19739,-0.41543 -1.06454,-2.20552 -1.9375,-4 -0.87302,-1.79451 -2.06178,-4.39842 -2.65625,-5.78125 -1.15865,-2.6952 -1.57351,-3.23891 -3.40625,-4.4375 -0.78416,-0.51279 -1.99986,-0.76595 -3.15625,-0.78125 z m 3.1875,7.9375 c 0.22293,0 0.6167,0.98044 0.90625,2.1875 0.28953,1.20713 1.39083,3.42149 2.40625,4.90625 3.86343,5.64838 4.44023,7.09808 4.75,11.625 0.30351,4.43486 0.10279,5.625 -0.9375,5.625 -0.4185,0 -0.54546,-0.24332 -0.375,-0.6875 0.62896,-1.63902 0.71977,-2.69771 0.28125,-2.96875 -0.25862,-0.15994 -0.46875,-1.49706 -0.46875,-2.9375 0,-2.43802 -0.16625,-2.8935 -2.59375,-6.84375 -1.43391,-2.33336 -2.84932,-4.90062 -3.125,-5.71875 -0.27565,-0.81813 -0.67242,-1.73221 -0.90625,-2.03125 -0.23376,-0.29908 -0.27214,-0.5625 -0.0937,-0.5625 0.17822,0 0.0766,-0.30038 -0.21875,-0.65625 -0.56396,-0.67953 -0.31817,-1.9375 0.375,-1.9375 z" />
  </g>
</svg>
