<?xml version="1.0" encoding="UTF-8" standalone="no"?>
<!-- Created with Inkscape (http://www.inkscape.org/) -->

<svg
   xmlns:dc="http://purl.org/dc/elements/1.1/"
   xmlns:cc="http://creativecommons.org/ns#"
   xmlns:rdf="http://www.w3.org/1999/02/22-rdf-syntax-ns#"
   xmlns:svg="http://www.w3.org/2000/svg"
   xmlns="http://www.w3.org/2000/svg"
   xmlns:sodipodi="http://sodipodi.sourceforge.net/DTD/sodipodi-0.dtd"
   xmlns:inkscape="http://www.inkscape.org/namespaces/inkscape"
   width="800"
   height="700"
   id="svg2"
   version="1.1"
   inkscape:version="0.48.2 r9819"
   sodipodi:docname="m17-fill.svg">
  <defs
     id="defs4" />
  <sodipodi:namedview
     id="base"
     pagecolor="#ffffff"
     bordercolor="#666666"
     borderopacity="1.0"
     inkscape:pageopacity="0.0"
     inkscape:pageshadow="2"
     inkscape:zoom="3.5355339"
     inkscape:cx="108.94915"
     inkscape:cy="143.81015"
     inkscape:document-units="px"
     inkscape:current-layer="layer1"
     showgrid="false"
     showguides="true"
     inkscape:guide-bbox="true"
     inkscape:window-width="1024"
     inkscape:window-height="538"
     inkscape:window-x="-8"
     inkscape:window-y="-8"
     inkscape:window-maximized="1"
     width="0px"
     height="0px"
     fit-margin-top="0"
     fit-margin-left="0"
     fit-margin-right="0"
     fit-margin-bottom="0">
    <sodipodi:guide
       orientation="1,0"
       position="400.22244,349.31075"
       id="guide3178" />
    <sodipodi:guide
       orientation="0,1"
       position="400.22244,349.31075"
       id="guide3180" />
  </sodipodi:namedview>
  <metadata
     id="metadata7">
    <rdf:RDF>
      <cc:Work
         rdf:about="">
        <dc:format>image/svg+xml</dc:format>
        <dc:type
           rdf:resource="http://purl.org/dc/dcmitype/StillImage" />
        <dc:title />
      </cc:Work>
    </rdf:RDF>
  </metadata>
  <g
     inkscape:label="Layer 1"
     inkscape:groupmode="layer"
     id="layer1"
     transform="translate(0,-352.36218)">
    <path
       id="rect4010"
       transform="translate(0,352.36218)"
       style="fill:#00ff00"
       d="m 38.5,525.03125 c -1.18537,0.03 -2.47509,0.13117 -3.84375,0.3125 -2.61878,0.34765 -3.01343,1.03188 -3.4375,5.59375 -0.26813,2.88424 -0.23948,3.19102 0.6875,4.0625 0.77415,0.72775 1.3542,0.90206 2.53125,0.71875 0.83744,-0.13038 2.88772,0.0555 4.5625,0.40625 3.85266,0.8082 5.77086,0.78872 7.34375,-0.0312 0.68533,-0.35738 1.3452,-0.625 1.4375,-0.625 0.09229,0 0.15625,0.73044 0.15625,1.6875 0,0.95713 0.19039,1.75 0.40625,1.75 0.42691,0 1.43077,2.66289 1.125,2.96875 -0.1031,0.10305 -0.49928,-0.48131 -0.90625,-1.28125 -0.40698,-0.79986 -0.7884,-1.5279 -0.875,-1.625 -0.27107,-0.30384 -8.13279,-1.2967 -10.34375,-1.3125 -3.90721,-0.0295 -5.97373,2.70911 -3.78125,5.0625 0.47855,0.51357 0.875,1.2476 0.875,1.625 0,1.07301 -1.48471,0.0871 -2.53125,-1.6875 -0.78991,-1.33893 -1.13706,-1.54068 -3.3125,-1.8125 -1.3388,-0.16737 -2.5569,-0.44501 -2.6875,-0.65625 -0.1306,-0.21129 -1.25069,-0.375 -2.53125,-0.375 -2.09271,0 -2.46174,0.10466 -3.53125,1.375 -1.07901,1.28212 -1.13772,1.33004 -0.8125,0.34375 0.19741,-0.59814 0.31915,-1.94169 0.28125,-2.96875 -0.06799,-1.84205 -0.03891,-1.8183 0.90625,-1.15625 0.52706,0.36919 1.75662,0.65625 2.75,0.65625 0.99338,0 2.63901,0.26608 3.65625,0.625 2.38054,0.84007 4.30156,0.83785 4.625,0 0.1388,-0.36167 -0.17516,-1.67529 -0.6875,-2.9375 -0.84044,-2.0708 -0.87087,-2.65395 -0.5,-5.96875 0.22625,-2.02091 0.32364,-3.79916 0.21875,-3.96875 -0.10489,-0.16981 -1.01304,-0.44101 -2.03125,-0.59375 -2.44284,-0.36624 -5.20423,0.71459 -7.53125,2.9375 -2.23968,2.13919 -3.46311,4.47383 -4.625,9.09375 -0.50179,1.99538 -1.36872,4.51894 -1.9375,5.59375 -1.62823,3.07682 -1.41866,5.7585 0.65625,8.96875 3.23976,5.01263 6.58784,6.8129 12.03125,6.4375 1.91412,-0.1373 4.65816,-0.26 6.09375,-0.25 1.43559,0 5.13953,0.0852 8.25,0.15625 l 5.65625,0.125 3.28125,-1.625 c 3.88983,-1.90705 4.77699,-3.14758 5.09375,-7.09375 0.20866,-2.59942 0.1477,-2.92068 -1.59375,-6.09375 -1.5613,-2.8447 -1.91332,-3.90768 -2.1875,-6.90625 C 50.68956,528.38325 46.7976,524.82107 38.5,525.03125 z" />
  </g>
</svg>
