<?xml version="1.0" encoding="UTF-8" standalone="no"?>
<!-- Created with Inkscape (http://www.inkscape.org/) -->

<svg
   xmlns:dc="http://purl.org/dc/elements/1.1/"
   xmlns:cc="http://creativecommons.org/ns#"
   xmlns:rdf="http://www.w3.org/1999/02/22-rdf-syntax-ns#"
   xmlns:svg="http://www.w3.org/2000/svg"
   xmlns="http://www.w3.org/2000/svg"
   xmlns:sodipodi="http://sodipodi.sourceforge.net/DTD/sodipodi-0.dtd"
   xmlns:inkscape="http://www.inkscape.org/namespaces/inkscape"
   width="800"
   height="400"
   id="svg2"
   version="1.1"
   inkscape:version="0.48.2 r9819"
   sodipodi:docname="f15.svg">
  <defs
     id="defs4" />
  <sodipodi:namedview
     id="base"
     pagecolor="#ffffff"
     bordercolor="#666666"
     borderopacity="1.0"
     inkscape:pageopacity="0.0"
     inkscape:pageshadow="2"
     inkscape:zoom="2.8284271"
     inkscape:cx="632.28238"
     inkscape:cy="280.69713"
     inkscape:document-units="px"
     inkscape:current-layer="layer1"
     showgrid="false"
     showguides="true"
     inkscape:guide-bbox="true"
     inkscape:window-width="1366"
     inkscape:window-height="746"
     inkscape:window-x="-8"
     inkscape:window-y="-8"
     inkscape:window-maximized="1"
     width="0px"
     height="0px"
     fit-margin-top="0"
     fit-margin-left="0"
     fit-margin-right="0"
     fit-margin-bottom="0">
    <sodipodi:guide
       orientation="1,0"
       position="400.22244,349.31075"
       id="guide3178" />
    <sodipodi:guide
       orientation="0,1"
       position="-117.37973,199.40411"
       id="guide3180" />
  </sodipodi:namedview>
  <metadata
     id="metadata7">
    <rdf:RDF>
      <cc:Work
         rdf:about="">
        <dc:format>image/svg+xml</dc:format>
        <dc:type
           rdf:resource="http://purl.org/dc/dcmitype/StillImage" />
        <dc:title></dc:title>
      </cc:Work>
    </rdf:RDF>
  </metadata>
  <g
     inkscape:label="Layer 1"
     inkscape:groupmode="layer"
     id="layer1"
     transform="translate(0,-652.36218)">
    <path
       id="rect3103"
       transform="translate(0,652.36218)"
       style="fill:#ff0000"
       d="m 725.375,42.21875 c -1.812,-0.0179 -3.499,1.57186 -9,8.46875 -4.101,5.14158 -8.8618,13.49506 -9.8125,17.21875 -0.2074,0.81229 -0.86585,3.1063 -1.46875,5.09375 -1.2076,3.98208 -2.15525,9.93141 -2.90625,18.5625 -0.6197,7.12139 -1.1483,10.18739 -1.875,11.0625 -0.3143,0.3785 -1.5064,2.73769 -2.6875,5.25 -2.1203,4.51033 -2.1664,4.64923 -2.3125,9.5 -0.1187,3.93632 -0.0216,5.12442 0.53125,5.96875 0.3797,0.57954 0.6875,1.34144 0.6875,1.6875 0,1.18874 2.47395,2.70999 5.21875,3.25 2.3977,0.47174 2.98525,0.4384 5.40625,-0.34375 1.491,-0.48169 4.03075,-1.08408 5.65625,-1.34375 2.9541,-0.47192 2.95585,-0.4669 6.71875,1.28125 4.607,2.14031 6.92405,2.30049 9.34375,0.65625 0.893,-0.60678 1.625,-1.34305 1.625,-1.65625 0,-0.31317 0.39785,-0.95045 0.90625,-1.40625 1.3356,-1.19728 4.93755,-6.67329 5.53125,-8.40625 0.7324,-2.13751 0.6144,-4.08347 -0.375,-6.59375 -0.4786,-1.21404 -0.875,-2.71392 -0.875,-3.375 0,-0.6611 -0.23215,-1.44935 -0.53125,-1.75 -0.4029,-0.40496 -0.5318,-2.89379 -0.5,-9.5625 0.048,-10.16472 0.1086,-10.50053 3.5625,-18.375 1.207,-2.75154 2.3339,-5.49558 2.5,-6.09375 0.166,-0.59819 0.8777,-2.35658 1.5625,-3.9375 0.6848,-1.58096 1.7392,-4.8754 2.375,-7.34375 1.4627,-5.67781 1.3281,-9.76558 -0.4375,-12.5625 -1.2969,-2.05445 -2.33195,-2.24715 -4.53125,-0.90625 -1.6545,1.00874 -2.0144,1.86597 -2.4375,5.4375 -0.4418,3.72904 -1.53345,6.55181 -3.15625,8.125 -0.774,0.75036 -1.52845,1.25285 -1.65625,1.125 -0.1279,-0.12796 0.44715,-2.80453 1.28125,-5.9375 1.7166,-6.44786 1.60125,-7.84619 -0.65625,-8.78125 -1.1529,-0.47755 -1.3884,-0.4014 -3,0.875 -1.5285,1.21056 -8.27615,10.67835 -8.28125,11.625 -8e-4,0.18681 -0.5106,0.93846 -1.125,1.65625 -1.2394,1.44813 -1.1914,1.62669 -0.1875,-2.1875 0.189,-0.71777 0.7402,-2.00632 1.25,-2.84375 0.5097,-0.83743 1.10515,-1.95553 1.34375,-2.5 0.2387,-0.54448 0.7523,-1.10703 1.125,-1.25 0.3727,-0.143 1.0968,-1.04106 1.625,-2 0.5281,-0.95894 1.31145,-2.34753 1.71875,-3.09375 1.5012,-2.75135 0.64435,-4.56643 -2.15625,-4.59375 z m -0.59375,1.40625 c 0.2963,-0.0256 0.48995,0.15442 0.90625,0.53125 0.4747,0.4295 0.875,1.00728 0.875,1.28125 0,0.274 -0.918,1.67016 -2.0625,3.09375 -2.3499,2.92318 -4.94635,7.37451 -5.78125,9.96875 -0.308,0.95709 -0.90325,2.37136 -1.34375,3.15625 -0.4405,0.78491 -0.8125,1.90794 -0.8125,2.46875 0,0.5608 -0.3227,1.84091 -0.6875,2.875 -0.3649,1.03408 -0.75705,3.61756 -0.90625,5.71875 -0.2605,3.67041 -0.22575,3.91342 1.09375,6.59375 1.5726,3.19446 3.09725,4.49719 4.34375,3.71875 0.921,-0.57513 5.28125,-6.93119 5.28125,-7.6875 0,-0.28003 0.5947,-1.47011 1.3125,-2.6875 0.7178,-1.2174 1.3125,-2.33948 1.3125,-2.5 0,-0.16051 0.3938,-0.70056 0.875,-1.1875 0.4812,-0.48692 1.8037,-2.13597 2.9375,-3.65625 1.1339,-1.52025 2.6745,-3.57049 3.4375,-4.5625 0.7631,-0.99203 1.82945,-3.16891 2.34375,-4.84375 2.0626,-6.71705 2.32495,-7.38444 3.34375,-7.53125 1.617,-0.23298 2.4199,2.35808 2.125,6.875 -0.1328,2.03376 -0.3433,4.18309 -0.5,4.78125 -0.1567,0.59818 -0.3782,1.58935 -0.5,2.1875 -0.2132,1.04681 -2.7185,7.19808 -7.5625,18.6875 l -2.28125,5.4375 0.0937,7.3125 0.0937,7.25 -1.46875,-0.0625 c -1.8001,-0.0632 -2.70995,-0.24021 -4.78125,-1.03125 -2.0728,-0.79143 -4.4913,-0.79073 -8.625,0 -2.597,0.49677 -3.9322,0.53552 -6.625,0.15625 -2.4492,-0.34509 -3.8153,-0.34443 -4.9375,0 -1.7699,0.54313 -2.78125,0.30615 -2.78125,-0.65625 0,-0.36457 0.30275,-2.5734 0.65625,-4.875 0.3535,-2.30156 0.8358,-6.90027 1.0625,-10.25 0.346,-5.1119 0.6705,-7.00895 2.125,-11.8125 1.7156,-5.66592 1.98975,-6.40729 4.15625,-11.0625 1.0877,-2.33701 5.78215,-9.81306 6.90625,-11.03125 0.3108,-0.33682 1.2286,-1.6254 2.0625,-2.8125 0.8338,-1.18718 2.1523,-2.55576 2.9375,-3.09375 0.6891,-0.47195 1.0787,-0.72447 1.375,-0.75 z m 7.0625,5.96875 c 1.0422,0 1.34485,3.97497 0.34375,4.59375 -0.2108,0.13023 -0.40625,0.75489 -0.40625,1.40625 0,1.27984 -3.9599,12.02004 -6.125,16.59375 -0.7321,1.5464 -2.1142,4.15739 -3.0625,5.78125 -1.1583,1.98321 -2.0148,2.9375 -2.5625,2.9375 -1.3308,0 -2.77845,-2.88623 -2.96875,-5.875 -0.155,-2.43558 0.0228,-2.96441 2.15625,-7.40625 1.2642,-2.63193 3.8172,-7.09424 5.6875,-9.9375 1.8704,-2.84324 3.40625,-5.32385 3.40625,-5.53125 0,-0.20739 0.133,-0.40594 0.3125,-0.40625 0.1794,-2.9e-4 0.9299,-0.46465 1.625,-1.0625 0.6951,-0.59794 1.38575,-1.09375 1.59375,-1.09375 z m -6.375,51.21875 2.875,1.34375 c 3.3179,1.54151 4.1041,2.32244 4.5,4.40625 0.3152,1.6595 1.2955,4.33634 2.25,6.15625 0.9176,1.74929 0.755,3.9746 -0.375,5.1875 -1.2343,1.32497 -2.70925,3.49651 -3.78125,5.5625 -0.4584,0.88331 -1.3866,2.2192 -2.0625,3 -0.9745,1.12574 -1.6351,1.45583 -3.1875,1.59375 -2.7121,0.241 -3.25425,0.0641 -6.71875,-2.28125 l -3.0625,-2.0625 0.0937,-3.6875 c 0.062,-2.02255 0.26775,-4.71523 0.40625,-6 0.2243,-2.08089 0.3711,-2.3864 1.5,-2.8125 0.697,-0.2631 1.25,-0.60689 1.25,-0.75 0,-0.39134 -6.0774,-2.29759 -6.375,-2 -0.1417,0.1417 0.38035,0.96 1.15625,1.84375 l 1.40625,1.625 L 715.0625,117 c -0.168,2.77308 -0.56675,5.51326 -0.84375,6.09375 -0.3304,0.69244 -1.1532,1.26181 -2.4375,1.65625 -1.0767,0.33066 -3.2185,0.97748 -4.75,1.46875 -3.5956,1.15346 -5.92225,0.88695 -7.46875,-0.84375 -2.4298,-2.71914 -2.8215,-10.82027 -0.75,-15.3125 0.6069,-1.31598 1.5673,-3.42378 2.125,-4.6875 0.5577,-1.26375 1.25525,-2.53162 1.59375,-2.8125 0.3928,-0.32603 2.9318,-0.54747 7,-0.625 3.5052,-0.0667 8.52425,-0.32818 11.15625,-0.59375 l 4.78125,-0.53125 z" />
  </g>
</svg>
