<?xml version="1.0" encoding="UTF-8" standalone="no"?>
<!-- Created with Inkscape (http://www.inkscape.org/) -->

<svg
   xmlns:dc="http://purl.org/dc/elements/1.1/"
   xmlns:cc="http://creativecommons.org/ns#"
   xmlns:rdf="http://www.w3.org/1999/02/22-rdf-syntax-ns#"
   xmlns:svg="http://www.w3.org/2000/svg"
   xmlns="http://www.w3.org/2000/svg"
   xmlns:sodipodi="http://sodipodi.sourceforge.net/DTD/sodipodi-0.dtd"
   xmlns:inkscape="http://www.inkscape.org/namespaces/inkscape"
   width="800"
   height="700"
   id="svg2"
   version="1.1"
   inkscape:version="0.48.2 r9819"
   sodipodi:docname="l14.svg">
  <defs
     id="defs4" />
  <sodipodi:namedview
     id="base"
     pagecolor="#ffffff"
     bordercolor="#666666"
     borderopacity="1.0"
     inkscape:pageopacity="0.0"
     inkscape:pageshadow="2"
     inkscape:zoom="2.5"
     inkscape:cx="645.80543"
     inkscape:cy="619.70074"
     inkscape:document-units="px"
     inkscape:current-layer="layer1"
     showgrid="false"
     showguides="true"
     inkscape:guide-bbox="true"
     inkscape:window-width="1366"
     inkscape:window-height="746"
     inkscape:window-x="-8"
     inkscape:window-y="-8"
     inkscape:window-maximized="1"
     width="0px"
     height="0px"
     fit-margin-top="0"
     fit-margin-left="0"
     fit-margin-right="0"
     fit-margin-bottom="0">
    <sodipodi:guide
       orientation="1,0"
       position="400.22244,349.31075"
       id="guide3178" />
    <sodipodi:guide
       orientation="0,1"
       position="400.22244,349.31075"
       id="guide3180" />
  </sodipodi:namedview>
  <metadata
     id="metadata7">
    <rdf:RDF>
      <cc:Work
         rdf:about="">
        <dc:format>image/svg+xml</dc:format>
        <dc:type
           rdf:resource="http://purl.org/dc/dcmitype/StillImage" />
        <dc:title></dc:title>
      </cc:Work>
    </rdf:RDF>
  </metadata>
  <g
     inkscape:label="Layer 1"
     inkscape:groupmode="layer"
     id="layer1"
     transform="translate(0,-352.36218)">
    <path
       id="rect3182"
       transform="translate(0,352.36218)"
       style="fill:#ff0000"
       d="m 723.8125,50.46875 c -1.81196,-0.0179 -3.49898,1.60311 -9,8.5 -4.10097,5.14158 -8.86179,13.46381 -9.8125,17.1875 -0.20743,0.81229 -0.86594,3.13755 -1.46875,5.125 -1.20768,3.98208 -2.12395,9.90016 -2.875,18.53125 -0.61969,7.12139 -1.14831,10.21864 -1.875,11.09375 -0.3143,0.3785 -1.53769,2.73769 -2.71875,5.25 -2.12033,4.51033 -2.1664,4.64923 -2.3125,9.5 -0.11864,3.93632 -0.022,5.12442 0.53125,5.96875 0.37974,0.57954 0.71875,1.31019 0.71875,1.65625 0,1.18874 2.44268,2.74124 5.1875,3.28125 2.39774,0.47174 2.98521,0.4384 5.40625,-0.34375 1.491,-0.48169 4.03068,-1.11533 5.65625,-1.375 2.95408,-0.47192 2.95584,-0.43565 6.71875,1.3125 4.607,2.14031 6.92401,2.26924 9.34375,0.625 0.89296,-0.60678 1.625,-1.34305 1.625,-1.65625 0,-0.31317 0.42904,-0.9192 0.9375,-1.375 1.3356,-1.19728 4.90629,-6.70454 5.5,-8.4375 0.73236,-2.13751 0.61448,-4.05222 -0.375,-6.5625 -0.47852,-1.21404 -0.84375,-2.74517 -0.84375,-3.40625 0,-0.6611 -0.26343,-1.44935 -0.5625,-1.75 -0.40288,-0.40496 -0.53181,-2.86254 -0.5,-9.53125 0.0484,-10.16472 0.10852,-10.50053 3.5625,-18.375 1.20696,-2.75154 2.33396,-5.49558 2.5,-6.09375 0.16602,-0.59819 0.87771,-2.35658 1.5625,-3.9375 0.68479,-1.58096 1.73912,-4.90665 2.375,-7.375 1.46265,-5.67781 1.32812,-9.73433 -0.4375,-12.53125 -1.29695,-2.05445 -2.30072,-2.2784 -4.5,-0.9375 -1.65449,1.00874 -2.01444,1.86597 -2.4375,5.4375 -0.44177,3.72904 -1.56469,6.55181 -3.1875,8.125 -0.77403,0.75036 -1.5284,1.2841 -1.65625,1.15625 -0.12792,-0.12796 0.47838,-2.80453 1.3125,-5.9375 1.71662,-6.44786 1.57002,-7.87744 -0.6875,-8.8125 -1.15289,-0.47755 -1.38843,-0.37015 -3,0.90625 -1.52848,1.21056 -8.24491,10.67835 -8.25,11.625 -8.2e-4,0.18681 -0.5419,0.93846 -1.15625,1.65625 -1.23948,1.44813 -1.19142,1.62669 -0.1875,-2.1875 0.18894,-0.71777 0.77153,-2.00632 1.28125,-2.84375 0.50971,-0.83743 1.07388,-1.95553 1.3125,-2.5 0.23864,-0.54448 0.75232,-1.10703 1.125,-1.25 0.37272,-0.143 1.12811,-1.04106 1.65625,-2 0.52817,-0.95894 1.3115,-2.34753 1.71875,-3.09375 1.50142,-2.75135 0.61313,-4.59768 -2.1875,-4.625 z m -0.59375,1.4375 c 0.29631,-0.0256 0.52114,0.12317 0.9375,0.5 0.47464,0.4295 0.84375,1.03853 0.84375,1.3125 0,0.274 -0.91805,1.63891 -2.0625,3.0625 -2.34995,2.92318 -4.94638,7.40576 -5.78125,10 -0.308,0.95709 -0.90324,2.37136 -1.34375,3.15625 C 715.372,70.72241 715,71.81419 715,72.375 c 0,0.5608 -0.29145,1.87216 -0.65625,2.90625 -0.36486,1.03408 -0.78838,3.61756 -0.9375,5.71875 -0.26052,3.67041 -0.19455,3.91342 1.125,6.59375 1.57263,3.19446 3.06601,4.49719 4.3125,3.71875 0.92096,-0.57513 5.3125,-6.93119 5.3125,-7.6875 0,-0.28003 0.56344,-1.47011 1.28125,-2.6875 0.71778,-1.2174 1.3125,-2.37073 1.3125,-2.53125 0,-0.16051 0.39382,-0.66931 0.875,-1.15625 0.48118,-0.48692 1.80363,-2.13597 2.9375,-3.65625 1.13388,-1.52025 2.70567,-3.57049 3.46875,-4.5625 0.76308,-0.99203 1.7982,-3.20016 2.3125,-4.875 2.06263,-6.71705 2.35617,-7.38444 3.375,-7.53125 1.61698,-0.23298 2.41991,2.38933 2.125,6.90625 -0.13277,2.03376 -0.37452,4.15184 -0.53125,4.75 -0.15674,0.59818 -0.37818,1.58935 -0.5,2.1875 -0.2132,1.04681 -2.7185,7.22933 -7.5625,18.71875 l -2.28125,5.4375 0.0937,7.28125 0.0937,7.28125 -1.46875,-0.0625 c -1.80009,-0.0632 -2.71004,-0.24021 -4.78125,-1.03125 -2.07286,-0.79143 -4.46007,-0.79073 -8.59375,0 -2.597,0.49677 -3.96343,0.53552 -6.65625,0.15625 -2.44921,-0.34509 -3.78402,-0.34443 -4.90625,0 -1.76981,0.54313 -2.8125,0.2749 -2.8125,-0.6875 0,-0.36457 0.33405,-2.54215 0.6875,-4.84375 0.3535,-2.30156 0.80452,-6.90027 1.03125,-10.25 0.34599,-5.1119 0.67056,-7.00895 2.125,-11.8125 1.71559,-5.66592 1.98968,-6.40729 4.15625,-11.0625 1.08765,-2.33701 5.78213,-9.84431 6.90625,-11.0625 0.31079,-0.33682 1.22864,-1.59415 2.0625,-2.78125 0.83385,-1.18718 2.15235,-2.58701 2.9375,-3.125 0.68889,-0.47195 1.07868,-0.69322 1.375,-0.71875 z m 7.09375,5.96875 c 1.04216,0 1.31367,3.94372 0.3125,4.5625 -0.21072,0.13023 -0.375,0.78614 -0.375,1.4375 0,1.27984 -3.95986,12.02004 -6.125,16.59375 -0.73207,1.5464 -2.1454,4.12614 -3.09375,5.75 -1.15828,1.98321 -1.98354,2.96875 -2.53125,2.96875 -1.33078,0 -2.80974,-2.88623 -3,-5.875 -0.15503,-2.43558 0.0229,-2.96441 2.15625,-7.40625 1.26419,-2.63193 3.81714,-7.09424 5.6875,-9.9375 1.87032,-2.84324 3.40625,-5.3551 3.40625,-5.5625 0,-0.20739 0.13306,-0.37469 0.3125,-0.375 0.17946,-2.9e-4 0.92984,-0.46465 1.625,-1.0625 0.69524,-0.59794 1.41699,-1.09375 1.625,-1.09375 z m -6.40625,51.21875 2.875,1.34375 c 3.31783,1.54151 4.10412,2.32244 4.5,4.40625 0.31527,1.6595 1.29542,4.33634 2.25,6.15625 0.91751,1.74929 0.755,3.9746 -0.375,5.1875 -1.23438,1.32497 -2.70921,3.49651 -3.78125,5.5625 -0.45836,0.88331 -1.38658,2.2192 -2.0625,3 -0.97449,1.12574 -1.60387,1.45583 -3.15625,1.59375 -2.71211,0.241 -3.28556,0.0641 -6.75,-2.28125 L 714.375,132 l 0.0937,-3.6875 c 0.0619,-2.02255 0.23651,-4.71523 0.375,-6 0.2243,-2.08089 0.40237,-2.41765 1.53125,-2.84375 0.69702,-0.2631 1.21875,-0.57564 1.21875,-0.71875 0,-0.39134 -6.07741,-2.29759 -6.375,-2 -0.14171,0.1417 0.41162,0.96 1.1875,1.84375 l 1.375,1.625 L 713.5,125.25 c -0.16801,2.77308 -0.53553,5.51326 -0.8125,6.09375 -0.33045,0.69244 -1.1532,1.26181 -2.4375,1.65625 -1.0767,0.33066 -3.24982,1.00873 -4.78125,1.5 -3.5956,1.15346 -5.92224,0.88695 -7.46875,-0.84375 -2.42977,-2.71914 -2.8215,-10.82027 -0.75,-15.3125 0.60683,-1.31598 1.56731,-3.45503 2.125,-4.71875 0.55766,-1.26375 1.28653,-2.50037 1.625,-2.78125 0.39282,-0.32603 2.90048,-0.54747 6.96875,-0.625 3.50515,-0.0667 8.52432,-0.35943 11.15625,-0.625 l 4.78125,-0.5 z" />
  </g>
</svg>
