<?xml version="1.0" encoding="UTF-8" standalone="no"?>
<!-- Created with Inkscape (http://www.inkscape.org/) -->

<svg
   xmlns:dc="http://purl.org/dc/elements/1.1/"
   xmlns:cc="http://creativecommons.org/ns#"
   xmlns:rdf="http://www.w3.org/1999/02/22-rdf-syntax-ns#"
   xmlns:svg="http://www.w3.org/2000/svg"
   xmlns="http://www.w3.org/2000/svg"
   xmlns:sodipodi="http://sodipodi.sourceforge.net/DTD/sodipodi-0.dtd"
   xmlns:inkscape="http://www.inkscape.org/namespaces/inkscape"
   width="900"
   height="800"
   id="svg2"
   version="1.1"
   inkscape:version="0.48+devel r11738"
   sodipodi:docname="f19.svg">
  <defs
     id="defs4" />
  <sodipodi:namedview
     id="base"
     pagecolor="#ffffff"
     bordercolor="#666666"
     borderopacity="1.0"
     inkscape:pageopacity="0.0"
     inkscape:pageshadow="2"
     inkscape:zoom="1.4142136"
     inkscape:cx="616.2984"
     inkscape:cy="678.95626"
     inkscape:document-units="px"
     inkscape:current-layer="layer1"
     showgrid="false"
     showguides="true"
     inkscape:guide-bbox="true"
     inkscape:window-width="1366"
     inkscape:window-height="705"
     inkscape:window-x="-4"
     inkscape:window-y="-4"
     inkscape:window-maximized="1"
     width="0px"
     height="0px"
     fit-margin-top="0"
     fit-margin-left="0"
     fit-margin-right="0"
     fit-margin-bottom="0">
    <sodipodi:guide
       orientation="1,0"
       position="450,784"
       id="guide3178" />
    <sodipodi:guide
       orientation="0,1"
       position="-61,400"
       id="guide3180" />
  </sodipodi:namedview>
  <metadata
     id="metadata7">
    <rdf:RDF>
      <cc:Work
         rdf:about="">
        <dc:format>image/svg+xml</dc:format>
        <dc:type
           rdf:resource="http://purl.org/dc/dcmitype/StillImage" />
        <dc:title></dc:title>
      </cc:Work>
    </rdf:RDF>
  </metadata>
  <g
     inkscape:label="Layer 1"
     inkscape:groupmode="layer"
     id="layer1"
     transform="translate(0,-252.36218)">
    <path
       id="rect64"
       transform="translate(0,252.36218)"
       style="fill:#ff0000;fill-opacity:1;stroke:none"
       d="m 817.15625,57.09375 c -2.04832,-0.0202 -3.96885,1.79714 -10.1875,9.59375 -4.63596,5.81232 -10.01902,15.2593 -11.09375,19.46875 -0.23449,0.91827 -0.97483,3.53454 -1.65625,5.78125 -1.36525,4.50157 -2.40099,11.18045 -3.25,20.9375 -0.70054,8.05039 -1.30352,11.54197 -2.125,12.53125 -0.3553,0.42787 -1.72737,3.09746 -3.0625,5.9375 -2.39693,5.09873 -2.42857,5.23517 -2.59375,10.71875 -0.1341,4.44982 -0.0316,5.79553 0.59375,6.75 0.42927,0.65515 0.78125,1.51505 0.78125,1.90625 0,1.34381 2.80337,3.1083 5.90625,3.71875 2.71054,0.53328 3.35689,0.47794 6.09375,-0.40625 1.68551,-0.54452 4.53737,-1.26893 6.375,-1.5625 3.33944,-0.53347 3.37121,-0.4762 7.625,1.5 5.208,2.41953 7.82708,2.5775 10.5625,0.71875 1.00943,-0.68594 1.8125,-1.52096 1.8125,-1.875 0,-0.35404 0.48771,-1.07849 1.0625,-1.59375 1.50983,-1.35347 5.57883,-7.54099 6.25,-9.5 0.82788,-2.41636 0.68107,-4.59975 -0.4375,-7.4375 -0.54094,-1.37241 -0.96875,-3.09644 -0.96875,-3.84375 0,-0.74735 -0.28691,-1.62887 -0.625,-1.96875 -0.45544,-0.45778 -0.59846,-3.27383 -0.5625,-10.8125 0.0547,-11.49073 0.0954,-11.84827 4,-20.75 1.36441,-3.11049 2.65606,-6.1988 2.84375,-6.875 0.18768,-0.67621 1.00713,-2.68159 1.78125,-4.46875 0.77411,-1.7872 1.96867,-5.52214 2.6875,-8.3125 1.65346,-6.4185 1.49594,-11.02572 -0.5,-14.1875 -1.46616,-2.32246 -2.63882,-2.54706 -5.125,-1.03125 -1.87034,1.14035 -2.27174,2.08757 -2.75,6.125 -0.4994,4.21551 -1.75922,7.40908 -3.59375,9.1875 -0.87502,0.84825 -1.73047,1.45704 -1.875,1.3125 -0.1446,-0.14463 0.5258,-3.17707 1.46875,-6.71875 1.94055,-7.289 1.80201,-8.91169 -0.75,-9.96875 -1.3033,-0.53983 -1.58444,-0.41166 -3.40625,1.03125 -1.72788,1.36847 -9.30674,12.05486 -9.3125,13.125 -9.2e-4,0.2112 -0.618,1.06356 -1.3125,1.875 -1.4012,1.63703 -1.35364,1.84301 -0.21875,-2.46875 0.21359,-0.81143 0.86129,-2.27208 1.4375,-3.21875 0.57622,-0.94669 1.26151,-2.19698 1.53125,-2.8125 0.26977,-0.61549 0.8287,-1.24462 1.25,-1.40625 0.42132,-0.16166 1.2467,-1.1972 1.84375,-2.28125 0.59706,-1.08404 1.47713,-2.65644 1.9375,-3.5 C 821.29104,59.20223 820.32223,57.12465 817.15625,57.09375 z m -0.65625,1.625 c 0.33498,-0.0289 0.56056,0.13653 1.03125,0.5625 0.53653,0.48553 0.96875,1.15904 0.96875,1.46875 0,0.30974 -1.04999,1.8907 -2.34375,3.5 -2.6565,3.30453 -5.58747,8.34857 -6.53125,11.28125 -0.3482,1.08193 -1.00202,2.67522 -1.5,3.5625 -0.49797,0.88729 -0.9375,2.14729 -0.9375,2.78125 0,0.63396 -0.33762,2.08103 -0.75,3.25 -0.41246,1.16898 -0.86268,4.09346 -1.03125,6.46875 -0.29451,4.14924 -0.24169,4.43876 1.25,7.46875 1.77779,3.61118 3.46591,5.09875 4.875,4.21875 1.04111,-0.65015 6,-7.83254 6,-8.6875 0,-0.31656 0.65732,-1.6863 1.46875,-3.0625 0.81143,-1.37621 1.46875,-2.66229 1.46875,-2.84375 0,-0.18146 0.45608,-0.76204 1,-1.3125 0.54396,-0.55045 2.03072,-2.40641 3.3125,-4.125 1.28182,-1.71857 3.04362,-4.06608 3.90625,-5.1875 0.86264,-1.12145 2.04361,-3.60666 2.625,-5.5 2.3317,-7.5933 2.66076,-8.33405 3.8125,-8.5 1.82792,-0.26338 2.73962,2.67509 2.40625,7.78125 -0.1501,2.29906 -0.41657,4.73005 -0.59375,5.40625 -0.17719,0.67621 -0.42478,1.79256 -0.5625,2.46875 -0.241,1.18337 -3.05532,8.16801 -8.53125,21.15625 L 825.25,107 l 0.0937,8.25 0.125,8.21875 -1.65625,-0.0625 c -2.03492,-0.0714 -3.09609,-0.29328 -5.4375,-1.1875 -2.34328,-0.89467 -5.04582,-0.89389 -9.71875,0 -2.93578,0.56158 -4.45589,0.61626 -7.5,0.1875 -2.76872,-0.39011 -4.29387,-0.38937 -5.5625,0 -2.00067,0.61398 -3.15625,0.33794 -3.15625,-0.75 0,-0.41213 0.35044,-2.89815 0.75,-5.5 0.39961,-2.60181 0.93119,-7.80704 1.1875,-11.59375 0.39113,-5.77876 0.76206,-7.91353 2.40625,-13.34375 1.93939,-6.40504 2.23829,-7.23749 4.6875,-12.5 1.22956,-2.64188 6.54171,-11.12288 7.8125,-12.5 0.35132,-0.38076 1.36988,-1.81429 2.3125,-3.15625 0.94264,-1.34205 2.45619,-2.92308 3.34375,-3.53125 C 815.71626,58.99775 816.16504,58.74761 816.5,58.71875 z m 8,6.75 c 1.17811,0 1.47553,4.45675 0.34375,5.15625 -0.23819,0.1472 -0.4375,0.88866 -0.4375,1.625 0,1.44679 -4.45867,13.57965 -6.90625,18.75 -0.82758,1.74814 -2.42792,4.69556 -3.5,6.53125 -1.30937,2.24192 -2.25584,3.34375 -2.875,3.34375 -1.50438,0 -3.15992,-3.27759 -3.375,-6.65625 -0.17525,-2.75331 0.057,-3.3537 2.46875,-8.375 1.4291,-2.97526 4.29189,-8.00459 6.40625,-11.21875 2.11431,-3.21415 3.84375,-6.04679 3.84375,-6.28125 0,-0.23444 0.17213,-0.43715 0.375,-0.4375 0.20287,-3.3e-4 1.02663,-0.54289 1.8125,-1.21875 C 823.44218,66.01157 824.26485,65.46875 824.5,65.46875 z m -7.21875,57.90625 3.21875,1.5 c 3.75066,1.7426 4.64625,2.64435 5.09375,5 0.3564,1.87599 1.48341,4.91144 2.5625,6.96875 1.03721,1.97749 0.83991,4.47262 -0.4375,5.84375 -1.39541,1.49782 -3.06935,3.94574 -4.28125,6.28125 -0.51815,0.99855 -1.5484,2.52357 -2.3125,3.40625 -1.10162,1.2726 -1.83886,1.62535 -3.59375,1.78125 -3.06592,0.27244 -3.7086,0.0889 -7.625,-2.5625 l -3.4375,-2.34375 0.0937,-4.15625 c 0.07,-2.2864 0.28094,-5.32887 0.4375,-6.78125 0.25354,-2.35233 0.4426,-2.73705 1.71875,-3.21875 0.78794,-0.29742 1.40625,-0.65071 1.40625,-0.8125 0,-0.44238 -6.88234,-2.58641 -7.21875,-2.25 -0.16019,0.16019 0.46664,1.06345 1.34375,2.0625 l 1.5625,1.84375 -0.3125,5.71875 c -0.18992,3.13485 -0.62439,6.21878 -0.9375,6.875 -0.37357,0.78277 -1.29817,1.42911 -2.75,1.875 -1.21717,0.37381 -3.67505,1.13214 -5.40625,1.6875 -4.06467,1.30393 -6.68923,0.98773 -8.4375,-0.96875 -2.74674,-3.07387 -3.1855,-12.23424 -0.84375,-17.3125 0.68598,-1.48765 1.7758,-3.88393 2.40625,-5.3125 0.63041,-1.42861 1.42986,-2.83871 1.8125,-3.15625 0.44407,-0.36856 3.30724,-0.6311 7.90625,-0.71875 3.96241,-0.0755 9.61846,-0.38729 12.59375,-0.6875 L 817.28125,123.375 Z" />
  </g>
</svg>
