<?xml version="1.0" encoding="UTF-8" standalone="no"?>
<!-- Created with Inkscape (http://www.inkscape.org/) -->

<svg
   xmlns:dc="http://purl.org/dc/elements/1.1/"
   xmlns:cc="http://creativecommons.org/ns#"
   xmlns:rdf="http://www.w3.org/1999/02/22-rdf-syntax-ns#"
   xmlns:svg="http://www.w3.org/2000/svg"
   xmlns="http://www.w3.org/2000/svg"
   xmlns:sodipodi="http://sodipodi.sourceforge.net/DTD/sodipodi-0.dtd"
   xmlns:inkscape="http://www.inkscape.org/namespaces/inkscape"
   width="800"
   height="700"
   id="svg2"
   version="1.1"
   inkscape:version="0.48.2 r9819"
   sodipodi:docname="m15.svg">
  <defs
     id="defs4" />
  <sodipodi:namedview
     id="base"
     pagecolor="#ffffff"
     bordercolor="#666666"
     borderopacity="1.0"
     inkscape:pageopacity="0.0"
     inkscape:pageshadow="2"
     inkscape:zoom="2.5"
     inkscape:cx="645.80543"
     inkscape:cy="491.70074"
     inkscape:document-units="px"
     inkscape:current-layer="layer1"
     showgrid="false"
     showguides="true"
     inkscape:guide-bbox="true"
     inkscape:window-width="1366"
     inkscape:window-height="746"
     inkscape:window-x="-8"
     inkscape:window-y="-8"
     inkscape:window-maximized="1"
     width="0px"
     height="0px"
     fit-margin-top="0"
     fit-margin-left="0"
     fit-margin-right="0"
     fit-margin-bottom="0">
    <sodipodi:guide
       orientation="1,0"
       position="400.22244,349.31075"
       id="guide3178" />
    <sodipodi:guide
       orientation="0,1"
       position="400.22244,349.31075"
       id="guide3180" />
  </sodipodi:namedview>
  <metadata
     id="metadata7">
    <rdf:RDF>
      <cc:Work
         rdf:about="">
        <dc:format>image/svg+xml</dc:format>
        <dc:type
           rdf:resource="http://purl.org/dc/dcmitype/StillImage" />
        <dc:title></dc:title>
      </cc:Work>
    </rdf:RDF>
  </metadata>
  <g
     inkscape:label="Layer 1"
     inkscape:groupmode="layer"
     id="layer1"
     transform="translate(0,-352.36218)">
    <path
       id="rect3190"
       transform="translate(0,352.36218)"
       style="fill:#ff0000"
       d="m 732.8125,208.875 c -0.71132,0.002 -1.59349,0.0204 -2.71875,0.0625 -2.67181,0.0993 -5.38731,0.3147 -6.0625,0.5 -0.76388,0.20961 -1.63562,0.14132 -2.25,-0.1875 -1.06123,-0.56792 -4.97448,-0.42095 -10.65625,0.375 -2.73372,0.38296 -3.43982,0.66575 -4.6875,1.875 -0.80882,0.78396 -1.97571,2.50597 -2.59375,3.8125 -1.01372,2.14273 -1.07687,2.67636 -0.8125,5.59375 0.33202,3.66399 2.49516,13.60733 3.46875,15.9375 0.35474,0.84899 1.02833,3.02023 1.53125,4.8125 0.85228,3.03737 0.89829,3.62146 0.4375,8.71875 -0.55054,6.09028 -0.0164,18.69266 1.0625,24.5625 0.3297,1.79452 0.7593,4.14204 0.90625,5.21875 0.46134,3.38054 2.94777,9.01056 4.9375,11.125 1.35309,1.43785 2.16698,1.9375 3.125,1.9375 2.34381,0 2.77901,-2.69066 1.28125,-7.46875 -0.64576,-2.06 -0.83967,-4.00036 -0.84375,-7.65625 -0.004,-2.97645 0.14166,-4.875 0.40625,-4.875 0.23925,0 0.4375,0.26288 0.4375,0.625 0,0.36214 0.2154,1.02201 0.4375,1.4375 0.22203,0.41549 1.74083,3.56191 3.40625,7.03125 3.70089,7.7096 5.59606,10.03125 8.25,10.03125 0.99817,0 2.07082,-0.28963 2.4375,-0.65625 0.91296,-0.91288 1.35385,-5.23464 0.8125,-7.84375 -0.24829,-1.19648 -0.38334,-2.23536 -0.3125,-2.3125 0.071,-0.077 1.36527,0.87718 2.875,2.09375 2.41676,1.94743 4.7271,3.05539 6.34375,3.0625 0.28073,8.2e-4 1.10757,-0.50557 1.84375,-1.125 1.00438,-0.84513 1.3125,-1.49942 1.3125,-2.59375 0,-0.80202 -0.19826,-1.57087 -0.4375,-1.71875 -0.23928,-0.14788 -0.40625,-0.65654 -0.40625,-1.125 0,-0.80277 -2.62969,-5.45081 -5.25,-9.3125 -1.92239,-2.83322 -4.16382,-7.60296 -5.25,-11.09375 -1.92165,-6.17578 -1.13163,-15.13512 1.78125,-19.8125 0.89692,-1.44026 1.74013,-3.21232 1.90625,-3.96875 0.16616,-0.75638 0.62523,-1.62116 0.96875,-1.90625 0.34351,-0.28513 0.59375,-0.76147 0.59375,-1.03125 8.2e-4,-0.26983 0.28295,-0.96433 0.59375,-1.5625 2.32704,-4.47878 2.40648,-12.96552 0.15625,-17.28125 -0.97641,-1.87269 -2.28493,-3.0519 -4.8125,-4.34375 -1.46123,-0.74693 -2.0848,-0.94295 -4.21875,-0.9375 z m -1.84375,0.65625 c 0.31764,0.006 0.64533,0.0241 0.90625,0.0937 1.40243,0.37505 1.77601,1.25318 0.6875,1.59375 -0.43867,0.13724 -1.14704,0.4657 -1.5625,0.6875 -1.03588,0.55302 -4.55389,0.50782 -4.90625,-0.0625 -0.59145,-0.95681 2.65166,-2.35498 4.875,-2.3125 z m -13.5625,0.34375 c 1.07962,-0.10399 2.08695,0.27928 3.0625,1.125 0.47855,0.41482 1.98196,1.46597 3.375,2.34375 2.39166,1.50707 2.52735,1.67472 2.25,2.9375 l -0.3125,1.3125 2.5625,-1.84375 c 4.12964,-3.05079 8.33663,-4.10313 11,-2.71875 1.83007,0.95126 2.07236,1.78174 2.125,6.875 0.0432,4.19228 -0.99222,9.69015 -2.5,13 -0.7695,1.68912 -1.04078,1.86989 -3.09375,2.34375 -1.24143,0.28655 -3.24391,1.00994 -4.40625,1.59375 -1.1624,0.58383 -2.71933,1.162 -3.5,1.28125 -5.0063,0.76401 -11.69017,0.19887 -14.15625,-1.21875 -0.67015,-0.38524 -2.24654,-1.048 -3.5625,-1.5 l -2.4375,-0.84375 -1.25,-3.625 c -0.98536,-2.80025 -1.29034,-4.42839 -1.3125,-7.125 -0.0376,-4.54806 0.94313,-6.8684 3.40625,-8.125 0.95501,-0.48719 2.71469,-1.81225 3.9375,-2.96875 1.87401,-1.77237 3.42435,-2.71004 4.8125,-2.84375 z m -8.09375,2 c 0.28764,-0.008 0.46875,0.0948 0.46875,0.375 0,0.21085 -0.66256,0.92375 -1.5,1.5625 -1.65644,1.26345 -2.06628,0.68402 -0.6875,-0.96875 0.50305,-0.60294 1.23937,-0.95571 1.71875,-0.96875 z m 0.25,25.25 c 0.70123,-0.0474 1.96963,0.38215 3.71875,1.25 5.12526,2.5429 13.22508,2.80517 17.8125,0.59375 1.31596,-0.63439 2.74079,-1.30001 3.15625,-1.5 2.08704,-1.0045 2.85135,0.57405 1.15625,2.375 -1.99138,2.11572 -4.18893,7.76997 -5.375,13.78125 -0.99831,5.05899 -1.13485,6.53121 -0.90625,10.65625 0.27597,4.98048 1.21993,9.67236 3.34375,16.8125 1.33775,4.49741 1.52753,7.03747 0.71875,8.8125 -1.09106,2.39456 -3.01874,0.76218 -6.28125,-5.34375 -0.56238,-1.05252 -1,-2.1748 -1,-2.46875 0,-0.294 -0.31274,-0.74616 -0.65625,-1.03125 -0.34353,-0.28509 -0.75038,-1.10293 -0.90625,-1.8125 -0.15583,-0.70958 -1.16559,-3.10757 -2.25,-5.3125 -1.08435,-2.2049 -2.80572,-6.39453 -3.84375,-9.3125 -1.03802,-2.91795 -2.09228,-5.66196 -2.3125,-6.09375 -0.89339,-1.75144 -1.95966,-4.33272 -2.28125,-5.5625 -0.18772,-0.71777 -0.711,-2.37153 -1.1875,-3.6875 -1.38659,-3.82935 -3.5625,-10.88304 -3.5625,-11.5625 0,-0.3645 0.23554,-0.56535 0.65625,-0.59375 z m 23.46875,12.125 c 0.15914,0.0275 0.19729,0.98423 0.21875,3.46875 0.0324,3.745 0.61808,6.91703 1.875,10.03125 0.24144,0.59815 0.64241,1.58931 0.875,2.1875 0.75969,1.95375 3.06867,6.26635 3.8125,7.15625 0.39994,0.47856 1.72877,2.69074 2.96875,4.875 2.24939,3.96243 2.74072,5.97805 1.71875,7 -0.8937,0.89367 -2.36499,0.59548 -4.15625,-0.875 -1.66497,-1.36683 -5.75,-6.36871 -5.75,-7.03125 0,-0.1789 -0.69033,-1.75172 -1.53125,-3.5 -2.07595,-4.3161 -2.73313,-10.35261 -1.78125,-16.71875 0.35434,-2.36962 0.93232,-4.98191 1.28125,-5.78125 0.23097,-0.52916 0.37329,-0.82898 0.46875,-0.8125 z m -22.625,1.09375 c 0.20781,0 1.32234,2.64488 2.5,5.875 3.77434,10.35199 3.60203,9.38195 3.625,18.71875 0.0209,8.43257 -0.006,8.48941 1.21875,10.90625 0.73477,1.45002 1.17992,2.92096 1.09375,3.65625 -0.0793,0.67809 -0.32991,1.31976 -0.59375,1.40625 -0.63179,0.20703 -3.33372,-2.78273 -4,-4.4375 -1.37085,-3.40467 -3.55857,-12.23953 -4,-16.125 -0.55036,-4.84451 -0.42979,-20 0.15625,-20 z" />
  </g>
</svg>
