<?xml version="1.0" encoding="UTF-8" standalone="no"?>
<!-- Created with Inkscape (http://www.inkscape.org/) -->

<svg
   xmlns:dc="http://purl.org/dc/elements/1.1/"
   xmlns:cc="http://creativecommons.org/ns#"
   xmlns:rdf="http://www.w3.org/1999/02/22-rdf-syntax-ns#"
   xmlns:svg="http://www.w3.org/2000/svg"
   xmlns="http://www.w3.org/2000/svg"
   xmlns:sodipodi="http://sodipodi.sourceforge.net/DTD/sodipodi-0.dtd"
   xmlns:inkscape="http://www.inkscape.org/namespaces/inkscape"
   width="900"
   height="800"
   id="svg2"
   version="1.1"
   inkscape:version="0.48+devel r11738"
   sodipodi:docname="l19.svg">
  <defs
     id="defs4" />
  <sodipodi:namedview
     id="base"
     pagecolor="#ffffff"
     bordercolor="#666666"
     borderopacity="1.0"
     inkscape:pageopacity="0.0"
     inkscape:pageshadow="2"
     inkscape:zoom="1.4142136"
     inkscape:cx="616.2984"
     inkscape:cy="565.81918"
     inkscape:document-units="px"
     inkscape:current-layer="layer1"
     showgrid="false"
     showguides="true"
     inkscape:guide-bbox="true"
     inkscape:window-width="1366"
     inkscape:window-height="705"
     inkscape:window-x="-4"
     inkscape:window-y="-4"
     inkscape:window-maximized="1"
     width="0px"
     height="0px"
     fit-margin-top="0"
     fit-margin-left="0"
     fit-margin-right="0"
     fit-margin-bottom="0">
    <sodipodi:guide
       orientation="1,0"
       position="450,784"
       id="guide3178" />
    <sodipodi:guide
       orientation="0,1"
       position="-61,400"
       id="guide3180" />
  </sodipodi:namedview>
  <metadata
     id="metadata7">
    <rdf:RDF>
      <cc:Work
         rdf:about="">
        <dc:format>image/svg+xml</dc:format>
        <dc:type
           rdf:resource="http://purl.org/dc/dcmitype/StillImage" />
        <dc:title></dc:title>
      </cc:Work>
    </rdf:RDF>
  </metadata>
  <g
     inkscape:label="Layer 1"
     inkscape:groupmode="layer"
     id="layer1"
     transform="translate(0,-252.36218)">
    <path
       sodipodi:type="inkscape:offset"
       inkscape:radius="0"
       inkscape:original="M 827.3125 236.15625 C 826.5084 236.15825 825.52206 236.2025 824.25 236.25 C 821.22965 236.36224 818.13828 236.60303 817.375 236.8125 C 816.51148 237.04945 815.56954 236.96546 814.875 236.59375 C 813.67535 235.95174 809.23547 236.13148 802.8125 237.03125 C 799.72216 237.46418 798.91043 237.78925 797.5 239.15625 C 796.58566 240.04247 795.29243 241.96054 794.59375 243.4375 C 793.4478 245.85976 793.3574 246.48327 793.65625 249.78125 C 794.03158 253.92323 796.4619 265.1471 797.5625 267.78125 C 797.96351 268.741 798.74397 271.19266 799.3125 273.21875 C 800.27594 276.65233 800.30216 277.33152 799.78125 283.09375 C 799.1589 289.97854 799.78036 304.20816 801 310.84375 C 801.37271 312.87236 801.86514 315.53284 802.03125 316.75 C 802.55278 320.57155 805.37571 326.92223 807.625 329.3125 C 809.1546 330.93794 810.042 331.5 811.125 331.5 C 813.77456 331.5 814.28689 328.46389 812.59375 323.0625 C 811.86374 320.73376 811.62959 318.57032 811.625 314.4375 C 811.621 311.07276 811.79465 308.90625 812.09375 308.90625 C 812.36421 308.90625 812.59375 309.21564 812.59375 309.625 C 812.59375 310.03439 812.81143 310.74908 813.0625 311.21875 C 813.3135 311.68845 815.05483 315.26556 816.9375 319.1875 C 821.12117 327.90284 823.24985 330.5 826.25 330.5 C 827.37839 330.5 828.5855 330.19571 829 329.78125 C 830.03207 328.74929 830.54947 323.85573 829.9375 320.90625 C 829.65682 319.55368 829.51367 318.39969 829.59375 318.3125 C 829.67405 318.2253 831.10583 319.28097 832.8125 320.65625 C 835.54454 322.85771 838.17244 324.11696 840 324.125 C 840.31735 324.12592 841.26154 323.54399 842.09375 322.84375 C 843.22915 321.88836 843.59375 321.14332 843.59375 319.90625 C 843.59375 318.99958 843.36421 318.13591 843.09375 317.96875 C 842.82327 317.80157 842.625 317.24833 842.625 316.71875 C 842.625 315.81125 839.64963 310.52172 836.6875 306.15625 C 834.51431 302.95344 831.97787 297.57118 830.75 293.625 C 828.57766 286.64358 829.48838 276.53757 832.78125 271.25 C 833.79518 269.62186 834.74969 267.6051 834.9375 266.75 C 835.12532 265.89493 835.61166 264.91604 836 264.59375 C 836.38831 264.27144 836.6875 263.74247 836.6875 263.4375 C 836.68842 263.13248 836.9924 262.33244 837.34375 261.65625 C 839.97436 256.59319 840.07502 247.00374 837.53125 242.125 C 836.42746 240.00801 834.95104 238.71038 832.09375 237.25 C 830.44189 236.40568 829.72485 236.1501 827.3125 236.15625 z M 825.25 236.90625 C 825.60906 236.91225 825.95505 236.95255 826.25 237.03125 C 827.83538 237.45523 828.26177 238.4275 827.03125 238.8125 C 826.53536 238.96764 825.7509 239.31176 825.28125 239.5625 C 824.11023 240.18765 820.11709 240.14461 819.71875 239.5 C 819.05016 238.41838 822.7366 236.85822 825.25 236.90625 z M 810.375 237.25 C 811.42265 237.2712 812.41003 237.72597 813.375 238.5625 C 813.91597 239.03145 815.64397 240.22646 817.21875 241.21875 C 819.92241 242.92242 820.0323 243.10373 819.71875 244.53125 L 819.40625 246.03125 L 822.25 243.90625 C 826.91837 240.4575 831.70793 239.31002 834.71875 240.875 C 836.78758 241.95035 837.0655 242.86732 837.125 248.625 C 837.1738 253.36418 835.98573 259.6021 834.28125 263.34375 C 833.41137 265.25321 833.10203 265.46432 830.78125 266 C 829.37786 266.32393 827.12647 267.12128 825.8125 267.78125 C 824.49846 268.44125 822.72625 269.08392 821.84375 269.21875 C 816.18435 270.08242 808.66277 269.47755 805.875 267.875 C 805.11741 267.43951 803.30013 266.63596 801.8125 266.125 L 799.0625 265.21875 L 797.625 261.125 C 796.5111 257.95945 796.1813 256.07967 796.15625 253.03125 C 796.11385 247.8899 797.21555 245.29554 800 243.875 C 801.07959 243.32426 803.08642 241.80737 804.46875 240.5 C 806.58723 238.49643 808.33703 237.43239 809.90625 237.28125 C 810.05881 237.26656 810.22534 237.24697 810.375 237.25 z M 800.75 239.53125 C 801.07516 239.52225 801.3125 239.65204 801.3125 239.96875 C 801.3125 240.20711 800.50919 240.99668 799.5625 241.71875 C 797.68997 243.14701 797.25387 242.52463 798.8125 240.65625 C 799.38118 239.97465 800.20809 239.54598 800.75 239.53125 z M 801.0625 268.125 C 801.8552 268.0714 803.27268 268.51894 805.25 269.5 C 811.04385 272.37462 820.18914 272.6874 825.375 270.1875 C 826.86264 269.47034 828.46785 268.69482 828.9375 268.46875 C 831.29681 267.33321 832.19748 269.12035 830.28125 271.15625 C 828.03007 273.54797 825.49703 279.95451 824.15625 286.75 C 823.02771 292.46895 822.89784 294.14934 823.15625 298.8125 C 823.46824 304.4427 824.53661 309.7409 826.9375 317.8125 C 828.44976 322.89661 828.66427 325.77466 827.75 327.78125 C 826.51661 330.4882 824.34438 328.62121 820.65625 321.71875 C 820.02053 320.52893 819.5 319.26979 819.5 318.9375 C 819.5 318.60515 819.16956 318.07228 818.78125 317.75 C 818.3929 317.42771 817.9262 316.52088 817.75 315.71875 C 817.57383 314.9166 816.41336 312.21132 815.1875 309.71875 C 813.96169 307.22621 812.01718 302.48612 810.84375 299.1875 C 809.6703 295.88889 808.49893 292.80062 808.25 292.3125 C 807.24006 290.33257 806.05106 287.42146 805.6875 286.03125 C 805.47531 285.21983 804.85117 283.30013 804.3125 281.8125 C 802.74501 277.48359 800.28125 269.5181 800.28125 268.75 C 800.28125 268.33795 800.58689 268.15711 801.0625 268.125 z M 827.59375 281.78125 C 827.77366 281.81225 827.8195 282.94138 827.84375 285.75 C 827.88025 289.98356 828.5166 293.57328 829.9375 297.09375 C 830.21043 297.76994 830.64333 298.85503 830.90625 299.53125 C 831.76505 301.73988 834.37789 306.61902 835.21875 307.625 C 835.67086 308.16599 837.19201 310.65581 838.59375 313.125 C 841.13658 317.60434 841.68654 319.90723 840.53125 321.0625 C 839.52098 322.07275 837.86867 321.7248 835.84375 320.0625 C 833.96158 318.51736 829.34375 312.87397 829.34375 312.125 C 829.34375 311.92276 828.57562 310.16385 827.625 308.1875 C 825.27824 303.30836 824.5177 296.44662 825.59375 289.25 C 825.99432 286.57124 826.6368 283.62236 827.03125 282.71875 C 827.29237 282.12055 827.48582 281.76263 827.59375 281.78125 z M 801.96875 283.0625 C 802.20368 283.0625 803.48121 286.03602 804.8125 289.6875 C 809.07922 301.38995 808.88029 300.28893 808.90625 310.84375 C 808.92975 320.37637 808.92805 320.45538 810.3125 323.1875 C 811.14311 324.82668 811.62866 326.48128 811.53125 327.3125 C 811.44155 328.07905 811.142 328.77724 810.84375 328.875 C 810.12953 329.10905 807.0657 325.74563 806.3125 323.875 C 804.76283 320.02619 802.31151 310.04858 801.8125 305.65625 C 801.19035 300.17975 801.30627 283.0625 801.96875 283.0625 z "
       style="fill:#ff0000;fill-opacity:1;stroke:none"
       id="path81"
       d="m 827.3125,236.15625 c -0.8041,0.002 -1.79044,0.0462 -3.0625,0.0937 -3.02035,0.11224 -6.11172,0.35303 -6.875,0.5625 -0.86352,0.23695 -1.80546,0.15296 -2.5,-0.21875 -1.19965,-0.64201 -5.63953,-0.46227 -12.0625,0.4375 -3.09034,0.43293 -3.90207,0.758 -5.3125,2.125 -0.91434,0.88622 -2.20757,2.80429 -2.90625,4.28125 -1.14595,2.42226 -1.23635,3.04577 -0.9375,6.34375 0.37533,4.14198 2.80565,15.36585 3.90625,18 0.40101,0.95975 1.18147,3.41141 1.75,5.4375 0.96344,3.43358 0.98966,4.11277 0.46875,9.875 -0.62235,6.88479 -8.9e-4,21.11441 1.21875,27.75 0.37271,2.02861 0.86514,4.68909 1.03125,5.90625 0.52153,3.82155 3.34446,10.17223 5.59375,12.5625 1.5296,1.62544 2.417,2.1875 3.5,2.1875 2.64956,0 3.16189,-3.03611 1.46875,-8.4375 -0.73001,-2.32874 -0.96416,-4.49218 -0.96875,-8.625 -0.004,-3.36474 0.16965,-5.53125 0.46875,-5.53125 0.27046,0 0.5,0.30939 0.5,0.71875 0,0.40939 0.21768,1.12408 0.46875,1.59375 0.251,0.4697 1.99233,4.04681 3.875,7.96875 4.18367,8.71534 6.31235,11.3125 9.3125,11.3125 1.12839,0 2.3355,-0.30429 2.75,-0.71875 1.03207,-1.03196 1.54947,-5.92552 0.9375,-8.875 -0.28068,-1.35257 -0.42383,-2.50656 -0.34375,-2.59375 0.0803,-0.0872 1.51208,0.96847 3.21875,2.34375 2.73204,2.20146 5.35994,3.46071 7.1875,3.46875 0.31735,9.2e-4 1.26154,-0.58101 2.09375,-1.28125 1.1354,-0.95539 1.5,-1.70043 1.5,-2.9375 0,-0.90667 -0.22954,-1.77034 -0.5,-1.9375 -0.27048,-0.16718 -0.46875,-0.72042 -0.46875,-1.25 0,-0.9075 -2.97537,-6.19703 -5.9375,-10.5625 -2.17319,-3.20281 -4.70963,-8.58507 -5.9375,-12.53125 -2.17234,-6.98142 -1.26162,-17.08743 2.03125,-22.375 1.01393,-1.62814 1.96844,-3.6449 2.15625,-4.5 0.18782,-0.85507 0.67416,-1.83396 1.0625,-2.15625 0.38831,-0.32231 0.6875,-0.85128 0.6875,-1.15625 9.2e-4,-0.30502 0.3049,-1.10506 0.65625,-1.78125 2.63061,-5.06306 2.73127,-14.65251 0.1875,-19.53125 -1.10379,-2.11699 -2.58021,-3.41462 -5.4375,-4.875 C 830.44189,236.40568 829.72485,236.1501 827.3125,236.15625 z m -2.0625,0.75 c 0.35906,0.006 0.70505,0.0463 1,0.125 1.58538,0.42398 2.01177,1.39625 0.78125,1.78125 -0.49589,0.15514 -1.28035,0.49926 -1.75,0.75 -1.17102,0.62515 -5.16416,0.58211 -5.5625,-0.0625 C 819.05016,238.41838 822.7366,236.85822 825.25,236.90625 Z M 810.375,237.25 c 1.04765,0.0212 2.03503,0.47597 3,1.3125 0.54097,0.46895 2.26897,1.66396 3.84375,2.65625 2.70366,1.70367 2.81355,1.88498 2.5,3.3125 l -0.3125,1.5 2.84375,-2.125 c 4.66837,-3.44875 9.45793,-4.59623 12.46875,-3.03125 2.06883,1.07535 2.34675,1.99232 2.40625,7.75 0.0488,4.73918 -1.13927,10.9771 -2.84375,14.71875 -0.86988,1.90946 -1.17922,2.12057 -3.5,2.65625 -1.40339,0.32393 -3.65478,1.12128 -4.96875,1.78125 -1.31404,0.66 -3.08625,1.30267 -3.96875,1.4375 -5.6594,0.86367 -13.18098,0.2588 -15.96875,-1.34375 -0.75759,-0.43549 -2.57487,-1.23904 -4.0625,-1.75 l -2.75,-0.90625 -1.4375,-4.09375 c -1.1139,-3.16555 -1.4437,-5.04533 -1.46875,-8.09375 -0.0424,-5.14135 1.0593,-7.73571 3.84375,-9.15625 1.07959,-0.55074 3.08642,-2.06763 4.46875,-3.375 2.11848,-2.00357 3.86828,-3.06761 5.4375,-3.21875 C 810.05881,237.26656 810.22534,237.24697 810.375,237.25 z m -9.625,2.28125 c 0.32516,-0.009 0.5625,0.12079 0.5625,0.4375 0,0.23836 -0.80331,1.02793 -1.75,1.75 -1.87253,1.42826 -2.30863,0.80588 -0.75,-1.0625 C 799.38118,239.97465 800.20809,239.54598 800.75,239.53125 z m 0.3125,28.59375 c 0.7927,-0.0536 2.21018,0.39394 4.1875,1.375 5.79385,2.87462 14.93914,3.1874 20.125,0.6875 1.48764,-0.71716 3.09285,-1.49268 3.5625,-1.71875 2.35931,-1.13554 3.25998,0.6516 1.34375,2.6875 -2.25118,2.39172 -4.78422,8.79826 -6.125,15.59375 -1.12854,5.71895 -1.25841,7.39934 -1,12.0625 0.31199,5.6302 1.38036,10.9284 3.78125,19 1.51226,5.08411 1.72677,7.96216 0.8125,9.96875 -1.23339,2.70695 -3.40562,0.83996 -7.09375,-6.0625 -0.63572,-1.18982 -1.15625,-2.44896 -1.15625,-2.78125 0,-0.33235 -0.33044,-0.86522 -0.71875,-1.1875 -0.38835,-0.32229 -0.85505,-1.22912 -1.03125,-2.03125 -0.17617,-0.80215 -1.33664,-3.50743 -2.5625,-6 -1.22581,-2.49254 -3.17032,-7.23263 -4.34375,-10.53125 -1.17345,-3.29861 -2.34482,-6.38688 -2.59375,-6.875 -1.00994,-1.97993 -2.19894,-4.89104 -2.5625,-6.28125 -0.21219,-0.81142 -0.83633,-2.73112 -1.375,-4.21875 -1.56749,-4.32891 -4.03125,-12.2944 -4.03125,-13.0625 C 800.28125,268.33795 800.58689,268.15711 801.0625,268.125 z m 26.53125,13.65625 c 0.17991,0.031 0.22575,1.16013 0.25,3.96875 0.0365,4.23356 0.67285,7.82328 2.09375,11.34375 0.27293,0.67619 0.70583,1.76128 0.96875,2.4375 0.8588,2.20863 3.47164,7.08777 4.3125,8.09375 0.45211,0.54099 1.97326,3.03081 3.375,5.5 2.54283,4.47934 3.09279,6.78223 1.9375,7.9375 -1.01027,1.01025 -2.66258,0.6623 -4.6875,-1 -1.88217,-1.54514 -6.5,-7.18853 -6.5,-7.9375 0,-0.20224 -0.76813,-1.96115 -1.71875,-3.9375 -2.34676,-4.87914 -3.1073,-11.74088 -2.03125,-18.9375 0.40057,-2.67876 1.04305,-5.62764 1.4375,-6.53125 C 827.29237,282.12055 827.48582,281.76263 827.59375,281.78125 z m -25.625,1.28125 c 0.23493,0 1.51246,2.97352 2.84375,6.625 4.26672,11.70245 4.06779,10.60143 4.09375,21.15625 0.0235,9.53262 0.0218,9.61163 1.40625,12.34375 0.83061,1.63918 1.31616,3.29378 1.21875,4.125 -0.0897,0.76655 -0.38925,1.46474 -0.6875,1.5625 -0.71422,0.23405 -3.77805,-3.12937 -4.53125,-5 -1.54967,-3.84881 -4.00099,-13.82642 -4.5,-18.21875 C 801.19035,300.17975 801.30627,283.0625 801.96875,283.0625 Z"
       transform="translate(0,252.36218)" />
  </g>
</svg>
