<?xml version="1.0" encoding="UTF-8" standalone="no"?>
<!-- Created with Inkscape (http://www.inkscape.org/) -->

<svg
   xmlns:dc="http://purl.org/dc/elements/1.1/"
   xmlns:cc="http://creativecommons.org/ns#"
   xmlns:rdf="http://www.w3.org/1999/02/22-rdf-syntax-ns#"
   xmlns:svg="http://www.w3.org/2000/svg"
   xmlns="http://www.w3.org/2000/svg"
   xmlns:sodipodi="http://sodipodi.sourceforge.net/DTD/sodipodi-0.dtd"
   xmlns:inkscape="http://www.inkscape.org/namespaces/inkscape"
   width="900"
   height="800"
   id="svg2"
   version="1.1"
   inkscape:version="0.48+devel r11738"
   sodipodi:docname="m19.svg">
  <defs
     id="defs4" />
  <sodipodi:namedview
     id="base"
     pagecolor="#ffffff"
     bordercolor="#666666"
     borderopacity="1.0"
     inkscape:pageopacity="0.0"
     inkscape:pageshadow="2"
     inkscape:zoom="1.4142136"
     inkscape:cx="616.2984"
     inkscape:cy="565.81918"
     inkscape:document-units="px"
     inkscape:current-layer="layer1"
     showgrid="false"
     showguides="true"
     inkscape:guide-bbox="true"
     inkscape:window-width="1366"
     inkscape:window-height="705"
     inkscape:window-x="-4"
     inkscape:window-y="-4"
     inkscape:window-maximized="1"
     width="0px"
     height="0px"
     fit-margin-top="0"
     fit-margin-left="0"
     fit-margin-right="0"
     fit-margin-bottom="0">
    <sodipodi:guide
       orientation="1,0"
       position="450,784"
       id="guide3178" />
    <sodipodi:guide
       orientation="0,1"
       position="-61,400"
       id="guide3180" />
  </sodipodi:namedview>
  <metadata
     id="metadata7">
    <rdf:RDF>
      <cc:Work
         rdf:about="">
        <dc:format>image/svg+xml</dc:format>
        <dc:type
           rdf:resource="http://purl.org/dc/dcmitype/StillImage" />
        <dc:title></dc:title>
      </cc:Work>
    </rdf:RDF>
  </metadata>
  <g
     inkscape:label="Layer 1"
     inkscape:groupmode="layer"
     id="layer1"
     transform="translate(0,-252.36218)">
    <path
       id="rect70"
       transform="translate(0,252.36218)"
       style="fill:#ff0000;fill-opacity:1;stroke:none"
       d="m 805.46875,173.4375 c -4.01603,-0.0566 -6.57835,1.50146 -12.6875,7.75 -6.83948,6.99555 -8.01362,10.09457 -6.53125,17.25 0.72017,3.47634 2.49326,8.4999 3.21875,9.15625 0.67846,0.6138 1.99815,4.14452 3.21875,8.625 0.73182,2.68628 1.60948,5.43017 1.96875,6.125 1.32109,2.5547 5.55452,5.82628 9.09375,7.03125 1.19094,0.40547 6.36565,0.28751 10.34375,-0.21875 2.02859,-0.25817 6.54626,-0.63048 10.0625,-0.875 3.51621,-0.24453 7.58324,-0.74205 9.03125,-1.0625 2.55269,-0.56488 2.65949,-0.65204 3.90625,-3.34375 2.349,-5.07134 1.95853,-14.02122 -0.875,-19.71875 -1.49628,-3.00862 -3.05195,-7.70811 -3.9375,-11.8125 -0.77259,-3.58114 -1.90899,-6.96302 -2.625,-7.875 -0.65052,-0.82855 -1.66075,-2.56124 -2.65625,-4.53125 -0.87699,-1.73543 -3.45029,-2.5722 -6.875,-2.21875 -2.4708,0.25503 -3.03585,0.11664 -7.1875,-1.96875 C 809.15407,173.84971 807.94786,173.47253 805.46875,173.4375 z m -1.71875,3.21875 c 1.92046,-0.0702 4.06735,0.34635 6.15625,1.21875 1.92998,0.80605 4.56917,1.37366 7.625,1.65625 5.79267,0.53565 6.84543,0.90779 8.75,3.3125 1.9444,2.45502 2.29824,3.34516 3.5625,9 0.5745,2.56954 1.76728,6.56133 2.6875,8.875 2.3745,5.97031 3.5161,9.94665 4.15625,14.46875 0.50813,3.58962 0.49714,4.12724 -0.40625,6.15625 -0.54455,1.22308 -1.73136,2.76749 -2.625,3.4375 -1.52216,1.14124 -2.14854,1.27823 -9.75,1.59375 -4.46288,0.18526 -9.12661,0.53596 -10.34375,0.8125 -2.47589,0.5625 -4.09898,0.57445 -7.34375,0.0625 -6.52331,-1.0298 -8.69089,-3.84085 -12.21875,-16 -0.54938,-1.89334 -1.38092,-4.47078 -1.875,-5.75 -0.84504,-2.1879 -0.84802,-2.37082 -0.0625,-3.15625 0.70305,-0.70305 1.02378,-0.75174 2.125,-0.25 1.18473,0.53979 1.27884,0.75622 1,2.5 -0.22359,1.39792 -0.0998,2.05743 0.40625,2.34375 0.3832,0.21684 0.78391,1.05315 0.875,1.84375 0.23572,2.04547 1.21783,2.09778 1.59375,0.0937 0.17471,-0.93128 0.59346,-1.93856 0.96875,-2.25 0.85564,-0.71013 3.76993,-0.0516 4.25,0.96875 1.74268,3.70364 2.32585,4.54909 3.5,5.15625 2.71849,1.40579 3.05241,0.74097 1.09375,-2.21875 -1.50425,-2.27305 -1.32507,-3.55024 0.6875,-5.5625 3.40332,-3.40277 4.83235,-4.0071 6.03125,-2.5625 0.3367,0.40569 0.87929,0.71875 1.21875,0.71875 0.33949,0 0.88366,0.37745 1.21875,0.78125 0.33513,0.40376 1.53824,0.95113 2.65625,1.25 1.11799,0.29884 2.29835,0.7636 2.625,1.03125 0.80224,0.65736 0.30597,2.97202 -1.34375,6.3125 -0.73471,1.48766 -1.62846,3.6056 -1.96875,4.6875 -0.34033,1.08192 -0.79344,2.18055 -1.03125,2.4375 -0.59006,0.6375 -0.54448,2.21875 0.0625,2.21875 0.2705,0 0.46875,-0.42246 0.46875,-0.90625 0,-0.48375 0.4524,-1.70974 1,-2.78125 0.54758,-1.07145 1.20446,-2.77279 1.46875,-3.75 0.26421,-0.97719 1.04611,-2.60252 1.71875,-3.59375 0.67266,-0.99124 1.55301,-2.44603 1.96875,-3.25 0.84623,-1.63643 2.59973,-1.96277 3.84375,-0.71875 0.78264,0.78259 2.3125,1.0093 2.3125,0.34375 0,-0.21797 -0.55359,-1.12968 -1.21875,-2.03125 -1.09458,-1.48364 -1.1495,-1.72894 -0.5,-2.65625 1.02506,-1.46347 0.90433,-1.8837 -0.5,-1.53125 -1.07058,0.26871 -1.21875,0.1855 -1.21875,-0.90625 0,-2.2359 -0.89585,-1.90927 -2.15625,0.84375 -1.6093,3.51508 -2.55234,3.73911 -6.71875,1.59375 -3.9429,-2.03027 -4.1463,-2.85419 -1.46875,-5.46875 1.09224,-1.06652 1.96875,-2.35769 1.96875,-2.84375 0,-1.2769 -0.52508,-1.09234 -2.40625,0.84375 -0.91708,0.9438 -1.98117,1.71875 -2.34375,1.71875 -1.38544,0 -1.32736,-3.99555 0.125,-11.15625 0.21923,-1.08093 0.1411,-1.625 -0.25,-1.625 -0.96576,0 -1.95304,3.10287 -2.5625,8.0625 -0.31814,2.58842 -0.73082,4.71875 -0.90625,4.71875 -0.17541,0 -0.75616,-0.32165 -1.28125,-0.71875 -2.20906,-1.67092 -2.29168,-0.23542 -0.125,2 0.84719,0.87409 1.39604,1.93183 1.25,2.3125 -0.14611,0.38071 -1.52463,1.51046 -3.0625,2.53125 -2.28498,1.51677 -3.07915,1.81417 -4.4375,1.59375 -2.7878,-0.4524 -4.32909,-1.44187 -6,-3.9375 -1.42203,-2.12361 -1.625,-2.79395 -1.625,-5.84375 0,-2.48249 -0.12711,-3.36391 -0.5625,-3.21875 -0.78394,0.2613 -1.28275,2.01776 -1.34375,4.90625 -0.044,2.0779 -0.20215,2.39028 -1.5625,3.09375 -0.83655,0.43261 -1.59561,0.71675 -1.71875,0.59375 -0.49383,-0.49386 -1.28664,-7.02007 -1.03125,-8.59375 0.6239,-3.84504 7.71271,-12.63118 11.4375,-14.1875 C 801.52925,176.8901 802.59772,176.6984 803.75,176.65625 Z" />
  </g>
</svg>
