<?xml version="1.0" encoding="UTF-8" standalone="no"?>
<!-- Created with Inkscape (http://www.inkscape.org/) -->

<svg
   xmlns:dc="http://purl.org/dc/elements/1.1/"
   xmlns:cc="http://creativecommons.org/ns#"
   xmlns:rdf="http://www.w3.org/1999/02/22-rdf-syntax-ns#"
   xmlns:svg="http://www.w3.org/2000/svg"
   xmlns="http://www.w3.org/2000/svg"
   xmlns:sodipodi="http://sodipodi.sourceforge.net/DTD/sodipodi-0.dtd"
   xmlns:inkscape="http://www.inkscape.org/namespaces/inkscape"
   width="800"
   height="400"
   id="svg2"
   version="1.1"
   inkscape:version="0.48.2 r9819"
   sodipodi:docname="m15.svg">
  <defs
     id="defs4" />
  <sodipodi:namedview
     id="base"
     pagecolor="#ffffff"
     bordercolor="#666666"
     borderopacity="1.0"
     inkscape:pageopacity="0.0"
     inkscape:pageshadow="2"
     inkscape:zoom="2.8284271"
     inkscape:cx="632.28238"
     inkscape:cy="280.69713"
     inkscape:document-units="px"
     inkscape:current-layer="layer1"
     showgrid="false"
     showguides="true"
     inkscape:guide-bbox="true"
     inkscape:window-width="1366"
     inkscape:window-height="746"
     inkscape:window-x="-8"
     inkscape:window-y="-8"
     inkscape:window-maximized="1"
     width="0px"
     height="0px"
     fit-margin-top="0"
     fit-margin-left="0"
     fit-margin-right="0"
     fit-margin-bottom="0">
    <sodipodi:guide
       orientation="1,0"
       position="400.22244,349.31075"
       id="guide3178" />
    <sodipodi:guide
       orientation="0,1"
       position="-117.37973,199.40411"
       id="guide3180" />
  </sodipodi:namedview>
  <metadata
     id="metadata7">
    <rdf:RDF>
      <cc:Work
         rdf:about="">
        <dc:format>image/svg+xml</dc:format>
        <dc:type
           rdf:resource="http://purl.org/dc/dcmitype/StillImage" />
        <dc:title></dc:title>
      </cc:Work>
    </rdf:RDF>
  </metadata>
  <g
     inkscape:label="Layer 1"
     inkscape:groupmode="layer"
     id="layer1"
     transform="translate(0,-652.36218)">
    <path
       id="rect3083"
       transform="translate(0,652.36218)"
       style="fill:#ff0000"
       d="m 715.03125,145.125 c -3.5526,-0.0502 -5.81465,1.31628 -11.21875,6.84375 -6.0502,6.18827 -7.09255,8.92029 -5.78125,15.25 0.6371,3.07517 2.20195,7.51313 2.84375,8.09375 0.6001,0.54297 1.76405,3.66157 2.84375,7.625 0.6474,2.3763 1.4322,4.82284 1.75,5.4375 1.1686,2.25987 4.90045,5.15283 8.03125,6.21875 1.0535,0.35869 5.63725,0.26034 9.15625,-0.1875 1.7945,-0.22838 5.79585,-0.56495 8.90625,-0.78125 3.1105,-0.21632 6.68775,-0.65403 7.96875,-0.9375 2.2581,-0.49969 2.36585,-0.55641 3.46875,-2.9375 2.078,-4.48611 1.7565,-12.42871 -0.75,-17.46875 -1.3236,-2.66143 -2.7167,-6.80674 -3.5,-10.4375 -0.6835,-3.16787 -1.6792,-6.16201 -2.3125,-6.96875 -0.5755,-0.73293 -1.46305,-2.25733 -2.34375,-4 -0.7758,-1.53516 -3.0955,-2.28141 -6.125,-1.96875 -2.1857,0.22561 -2.67115,0.0948 -6.34375,-1.75 -3.3468,-1.681 -4.40075,-2.00028 -6.59375,-2.03125 z M 713.5,147.9375 c 1.6989,-0.0621 3.62095,0.32202 5.46875,1.09375 1.7073,0.71303 4.01555,1.21877 6.71875,1.46875 5.1242,0.47384 6.0652,0.8103 7.75,2.9375 1.72,2.17171 2.03785,2.93522 3.15625,7.9375 0.5082,2.27301 1.561,5.82832 2.375,7.875 2.1005,5.28135 3.1212,8.81224 3.6875,12.8125 0.4495,3.17538 0.4241,3.64264 -0.375,5.4375 -0.4818,1.08194 -1.522,2.43855 -2.3125,3.03125 -1.3465,1.00954 -1.9007,1.12714 -8.625,1.40625 -3.9478,0.16388 -8.0483,0.47412 -9.125,0.71875 -2.1901,0.49759 -3.66095,0.51528 -6.53125,0.0625 -5.7705,-0.91097 -7.66055,-3.40024 -10.78125,-14.15625 -0.486,-1.67485 -1.2504,-3.96215 -1.6875,-5.09375 -0.7475,-1.93542 -0.72575,-2.08646 -0.0312,-2.78125 0.6219,-0.62192 0.9009,-0.66259 1.875,-0.21875 1.048,0.4775 1.1216,0.6762 0.875,2.21875 -0.1978,1.23661 -0.10355,1.80922 0.34375,2.0625 0.3389,0.19182 0.70065,0.92564 0.78125,1.625 0.2085,1.80944 1.105,1.86655 1.4375,0.0937 0.1546,-0.82381 0.51185,-1.72451 0.84375,-2 0.7569,-0.6282 3.3254,-0.059 3.75,0.84375 1.5416,3.27623 2.05515,4.05668 3.09375,4.59375 2.4048,1.24356 2.70135,0.64942 0.96875,-1.96875 -1.3307,-2.01075 -1.18665,-3.15746 0.59375,-4.9375 3.0105,-3.01009 4.28325,-3.52789 5.34375,-2.25 0.2979,0.35889 0.7622,0.625 1.0625,0.625 0.3003,0 0.79725,0.3303 1.09375,0.6875 0.2964,0.35718 1.35475,0.82937 2.34375,1.09375 0.989,0.26435 2.0235,0.70074 2.3125,0.9375 0.7096,0.58151 0.30305,2.63875 -1.15625,5.59375 -0.6499,1.31599 -1.449,3.16796 -1.75,4.125 -0.301,0.95707 -0.7271,1.92897 -0.9375,2.15625 -0.522,0.56395 -0.44355,1.96875 0.0937,1.96875 0.2393,0 0.40625,-0.38455 0.40625,-0.8125 0,-0.42793 0.3906,-1.5209 0.875,-2.46875 0.4844,-0.94782 1.0787,-2.44805 1.3125,-3.3125 0.2337,-0.86442 0.93625,-2.2794 1.53125,-3.15625 0.595,-0.87685 1.3822,-2.19507 1.75,-2.90625 0.7485,-1.44759 2.2745,-1.72547 3.375,-0.625 0.6923,0.69228 2.03125,0.90124 2.03125,0.3125 0,-0.19282 -0.4741,-1.01497 -1.0625,-1.8125 -0.9682,-1.31244 -1.012,-1.52346 -0.4375,-2.34375 0.9068,-1.2946 0.77345,-1.65553 -0.46875,-1.34375 -0.9471,0.2377 -1.0625,0.15325 -1.0625,-0.8125 0,-1.97789 -0.79125,-1.68532 -1.90625,0.75 -1.4236,3.10945 -2.2518,3.30404 -5.9375,1.40625 -3.4879,-1.79599 -3.6811,-2.49966 -1.3125,-4.8125 0.9662,-0.94345 1.75,-2.10129 1.75,-2.53125 0,-1.12955 -0.4609,-0.96268 -2.125,0.75 -0.8113,0.83487 -1.7417,1.5 -2.0625,1.5 -1.2255,0 -1.19075,-3.54063 0.0937,-9.875 0.194,-0.95619 0.12715,-1.40625 -0.21875,-1.40625 -0.8544,0 -1.7109,2.7377 -2.25,7.125 -0.2814,2.28973 -0.6573,4.15625 -0.8125,4.15625 -0.1552,0 -0.6605,-0.27371 -1.125,-0.625 -1.9542,-1.47809 -2.0417,-0.19619 -0.125,1.78125 0.7494,0.77323 1.22295,1.69451 1.09375,2.03125 -0.1292,0.33677 -1.3271,1.347 -2.6875,2.25 -2.0213,1.34173 -2.7359,1.60124 -3.9375,1.40625 -2.4661,-0.4002 -3.8344,-1.29236 -5.3125,-3.5 -1.2579,-1.87854 -1.4375,-2.42716 -1.4375,-5.125 0,-2.19602 -0.1149,-3.00341 -0.5,-2.875 -0.6935,0.23115 -1.1335,1.78858 -1.1875,4.34375 -0.039,1.8381 -0.1717,2.12772 -1.375,2.75 -0.74,0.38269 -1.42235,0.60882 -1.53125,0.5 -0.4369,-0.43687 -1.13215,-6.20168 -0.90625,-7.59375 0.5519,-3.40133 6.83,-11.15455 10.125,-12.53125 0.8277,-0.34601 1.76195,-0.55646 2.78125,-0.59375 z" />
  </g>
</svg>
