<?xml version="1.0" encoding="UTF-8" standalone="no"?>
<!-- Created with Inkscape (http://www.inkscape.org/) -->

<svg
   xmlns:dc="http://purl.org/dc/elements/1.1/"
   xmlns:cc="http://creativecommons.org/ns#"
   xmlns:rdf="http://www.w3.org/1999/02/22-rdf-syntax-ns#"
   xmlns:svg="http://www.w3.org/2000/svg"
   xmlns="http://www.w3.org/2000/svg"
   xmlns:sodipodi="http://sodipodi.sourceforge.net/DTD/sodipodi-0.dtd"
   xmlns:inkscape="http://www.inkscape.org/namespaces/inkscape"
   width="800"
   height="700"
   id="svg2"
   version="1.1"
   inkscape:version="0.48.2 r9819"
   sodipodi:docname="f15.svg">
  <defs
     id="defs4" />
  <sodipodi:namedview
     id="base"
     pagecolor="#ffffff"
     bordercolor="#666666"
     borderopacity="1.0"
     inkscape:pageopacity="0.0"
     inkscape:pageshadow="2"
     inkscape:zoom="2.8284271"
     inkscape:cx="636.85717"
     inkscape:cy="489.244"
     inkscape:document-units="px"
     inkscape:current-layer="layer1"
     showgrid="false"
     showguides="true"
     inkscape:guide-bbox="true"
     inkscape:window-width="1366"
     inkscape:window-height="746"
     inkscape:window-x="-8"
     inkscape:window-y="-8"
     inkscape:window-maximized="1"
     width="0px"
     height="0px"
     fit-margin-top="0"
     fit-margin-left="0"
     fit-margin-right="0"
     fit-margin-bottom="0">
    <sodipodi:guide
       orientation="1,0"
       position="400.22244,349.31075"
       id="guide3178" />
    <sodipodi:guide
       orientation="0,1"
       position="400.22244,349.31075"
       id="guide3180" />
  </sodipodi:namedview>
  <metadata
     id="metadata7">
    <rdf:RDF>
      <cc:Work
         rdf:about="">
        <dc:format>image/svg+xml</dc:format>
        <dc:type
           rdf:resource="http://purl.org/dc/dcmitype/StillImage" />
        <dc:title></dc:title>
      </cc:Work>
    </rdf:RDF>
  </metadata>
  <g
     inkscape:label="Layer 1"
     inkscape:groupmode="layer"
     id="layer1"
     transform="translate(0,-352.36218)">
    <path
       id="rect3051"
       transform="translate(0,352.36218)"
       style="fill:#ff0000"
       d="m 713.46875,153.40625 c -3.55258,-0.0502 -5.81458,1.31628 -11.21875,6.84375 -6.0502,6.18827 -7.06131,8.92029 -5.75,15.25 0.63707,3.07517 2.17074,7.51313 2.8125,8.09375 0.60018,0.54297 1.76401,3.66157 2.84375,7.625 0.64736,2.3763 1.4322,4.82284 1.75,5.4375 1.16864,2.25987 4.90044,5.15283 8.03125,6.21875 1.05349,0.35869 5.63722,0.26034 9.15625,-0.1875 1.79449,-0.22838 5.82704,-0.5962 8.9375,-0.8125 3.11045,-0.21632 6.68783,-0.62278 7.96875,-0.90625 2.2581,-0.49969 2.3346,-0.58766 3.4375,-2.96875 2.07792,-4.48611 1.75653,-12.39746 -0.75,-17.4375 -1.32362,-2.66143 -2.71665,-6.83799 -3.5,-10.46875 -0.68344,-3.16787 -1.67912,-6.13076 -2.3125,-6.9375 -0.57545,-0.73293 -1.46313,-2.25733 -2.34375,-4 -0.7758,-1.53516 -3.06425,-2.28141 -6.09375,-1.96875 -2.18567,0.22561 -2.67119,0.0948 -6.34375,-1.75 -3.34682,-1.681 -4.43197,-2.00028 -6.625,-2.03125 z m -1.53125,2.8125 c 1.69884,-0.0621 3.6209,0.32202 5.46875,1.09375 1.70726,0.71303 4.04682,1.18752 6.75,1.4375 5.12422,0.47384 6.06522,0.84155 7.75,2.96875 1.72001,2.17171 2.00661,2.93522 3.125,7.9375 0.5082,2.27301 1.56097,5.82832 2.375,7.875 2.10049,5.28135 3.12122,8.81224 3.6875,12.8125 0.4495,3.17538 0.42414,3.61139 -0.375,5.40625 -0.48171,1.08194 -1.522,2.4698 -2.3125,3.0625 -1.3465,1.00954 -1.90074,1.12714 -8.625,1.40625 -3.94787,0.16388 -8.04831,0.47412 -9.125,0.71875 -2.19018,0.49759 -3.62968,0.51528 -6.5,0.0625 -5.77053,-0.91097 -7.69177,-3.40024 -10.8125,-14.15625 -0.48599,-1.67485 -1.25042,-3.96215 -1.6875,-5.09375 -0.74752,-1.93542 -0.72608,-2.08646 -0.0312,-2.78125 0.62192,-0.62192 0.90087,-0.66259 1.875,-0.21875 1.04803,0.4775 1.15291,0.6762 0.90625,2.21875 -0.19779,1.23661 -0.10396,1.80922 0.34375,2.0625 0.33897,0.19182 0.66943,0.92564 0.75,1.625 0.20852,1.80944 1.10497,1.86655 1.4375,0.0937 0.15454,-0.82381 0.51178,-1.72451 0.84375,-2 0.7569,-0.6282 3.32533,-0.059 3.75,0.84375 1.54158,3.27623 2.08634,4.02543 3.125,4.5625 2.40477,1.24356 2.67013,0.64942 0.9375,-1.96875 -1.33065,-2.01075 -1.15531,-3.12621 0.625,-4.90625 3.01057,-3.01009 4.25195,-3.52789 5.3125,-2.25 0.29785,0.35889 0.79346,0.625 1.09375,0.625 0.30031,0 0.76608,0.29905 1.0625,0.65625 0.29645,0.35718 1.38599,0.86062 2.375,1.125 0.98898,0.26435 2.02354,0.66949 2.3125,0.90625 0.70964,0.58151 0.27184,2.63875 -1.1875,5.59375 -0.64993,1.31599 -1.44897,3.16796 -1.75,4.125 -0.30105,0.95707 -0.69588,1.96022 -0.90625,2.1875 -0.52198,0.56395 -0.47455,1.96875 0.0625,1.96875 0.23928,0 0.40625,-0.38455 0.40625,-0.8125 0,-0.42793 0.42184,-1.5209 0.90625,-2.46875 0.48439,-0.94782 1.04745,-2.44805 1.28125,-3.3125 0.23372,-0.86442 0.93624,-2.2794 1.53125,-3.15625 0.59504,-0.87685 1.38223,-2.19507 1.75,-2.90625 0.74858,-1.44759 2.30578,-1.72547 3.40625,-0.625 0.69232,0.69228 2.03125,0.90124 2.03125,0.3125 0,-0.19282 -0.50536,-1.01497 -1.09375,-1.8125 -0.96827,-1.31244 -1.01204,-1.52346 -0.4375,-2.34375 0.90677,-1.2946 0.80477,-1.65553 -0.4375,-1.34375 -0.94704,0.2377 -1.09375,0.15325 -1.09375,-0.8125 0,-1.97789 -0.7913,-1.68532 -1.90625,0.75 -1.42359,3.10945 -2.25188,3.30404 -5.9375,1.40625 -3.48789,-1.79599 -3.68108,-2.53091 -1.3125,-4.84375 0.96619,-0.94345 1.75,-2.07004 1.75,-2.5 0,-1.12955 -0.46091,-0.99393 -2.125,0.71875 C 722.50126,173.30362 721.57074,174 721.25,174 c -1.22556,0 -1.191,-3.54063 0.0937,-9.875 0.19393,-0.95619 0.12722,-1.4375 -0.21875,-1.4375 -0.85431,0 -1.71086,2.76895 -2.25,7.15625 -0.28142,2.28973 -0.62606,4.15625 -0.78125,4.15625 -0.15515,0 -0.69174,-0.27371 -1.15625,-0.625 -1.95415,-1.47809 -2.04165,-0.19619 -0.125,1.78125 0.74943,0.77323 1.22295,1.69451 1.09375,2.03125 -0.12925,0.33677 -1.32709,1.347 -2.6875,2.25 -2.02129,1.34173 -2.73591,1.60124 -3.9375,1.40625 -2.4661,-0.4002 -3.83443,-1.29236 -5.3125,-3.5 -1.25794,-1.87854 -1.40625,-2.45841 -1.40625,-5.15625 0,-2.19602 -0.1461,-2.97216 -0.53125,-2.84375 -0.69346,0.23115 -1.10228,1.78858 -1.15625,4.34375 -0.039,1.8381 -0.20287,2.09647 -1.40625,2.71875 -0.74,0.38269 -1.42232,0.64007 -1.53125,0.53125 -0.43684,-0.43687 -1.10092,-6.20168 -0.875,-7.59375 0.55191,-3.40133 6.79879,-11.1858 10.09375,-12.5625 0.82754,-0.34601 1.76193,-0.52521 2.78125,-0.5625 z" />
  </g>
</svg>
