<?xml version="1.0" encoding="UTF-8" standalone="no"?>
<!-- Created with Inkscape (http://www.inkscape.org/) -->

<svg
   xmlns:dc="http://purl.org/dc/elements/1.1/"
   xmlns:cc="http://creativecommons.org/ns#"
   xmlns:rdf="http://www.w3.org/1999/02/22-rdf-syntax-ns#"
   xmlns:svg="http://www.w3.org/2000/svg"
   xmlns="http://www.w3.org/2000/svg"
   xmlns:sodipodi="http://sodipodi.sourceforge.net/DTD/sodipodi-0.dtd"
   xmlns:inkscape="http://www.inkscape.org/namespaces/inkscape"
   width="800"
   height="700"
   id="svg2"
   version="1.1"
   inkscape:version="0.48.2 r9819"
   sodipodi:docname="l3-fill.svg">
  <defs
     id="defs4" />
  <sodipodi:namedview
     id="base"
     pagecolor="#ffffff"
     bordercolor="#666666"
     borderopacity="1.0"
     inkscape:pageopacity="0.0"
     inkscape:pageshadow="2"
     inkscape:zoom="5.6568542"
     inkscape:cx="176.32409"
     inkscape:cy="476.90056"
     inkscape:document-units="px"
     inkscape:current-layer="layer1"
     showgrid="false"
     showguides="true"
     inkscape:guide-bbox="true"
     inkscape:window-width="1024"
     inkscape:window-height="538"
     inkscape:window-x="-8"
     inkscape:window-y="-8"
     inkscape:window-maximized="1"
     width="0px"
     height="0px"
     fit-margin-top="0"
     fit-margin-left="0"
     fit-margin-right="0"
     fit-margin-bottom="0">
    <sodipodi:guide
       orientation="1,0"
       position="400.22244,349.31075"
       id="guide3178" />
    <sodipodi:guide
       orientation="0,1"
       position="400.22244,349.31075"
       id="guide3180" />
  </sodipodi:namedview>
  <metadata
     id="metadata7">
    <rdf:RDF>
      <cc:Work
         rdf:about="">
        <dc:format>image/svg+xml</dc:format>
        <dc:type
           rdf:resource="http://purl.org/dc/dcmitype/StillImage" />
        <dc:title />
      </cc:Work>
    </rdf:RDF>
  </metadata>
  <g
     inkscape:label="Layer 1"
     inkscape:groupmode="layer"
     id="layer1"
     transform="translate(0,-352.36218)">
    <path
       id="rect3307"
       transform="translate(0,352.36218)"
       style="fill:#00ff00"
       d="m 116.40625,207.46875 c -1.2543,0.0405 -2.52617,0.39893 -3.8125,1.03125 -1.70769,0.83951 -1.12239,1.31226 1.25,1.03125 3.17513,-0.37603 5.78822,0.34945 9.0625,2.5 3.26267,2.14292 3.76052,2.38315 5.25,2.40625 1.0637,0.0165 1.0577,-0.0175 -0.21875,-0.6875 -0.71779,-0.37682 -2.00631,-1.32469 -2.84375,-2.09375 -3.18289,-2.92301 -5.92798,-4.2764 -8.6875,-4.1875 z m 25.8125,1.375 c -0.37173,-0.007 -0.82752,0.0183 -1.4375,0.0625 -3.19437,0.23105 -5.67987,1.54966 -8.90625,4.71875 l -2.65625,2.5625 -2.15625,-0.59375 c -3.21003,-0.85856 -5.29888,-1.79247 -7.625,-3.5 -1.71018,-1.25536 -2.45696,-1.53125 -4.21875,-1.53125 -4.19383,0 -7.60117,3.37061 -6.84375,6.78125 0.95036,4.27959 3.41432,10.20691 5.34375,12.78125 0.62764,0.83741 1.51148,2.19043 1.9375,3.03125 0.83418,1.64646 3.8606,3.88079 6.375,4.65625 1.27238,0.39243 2.10477,0.32728 4.59375,-0.375 1.96837,-0.5554 4.35985,-0.881 6.75,-0.875 2.15242,0.005 4.57765,0.28479 5.84375,0.6875 2.0435,0.65004 2.2595,0.65108 3.28125,-0.0937 1.30921,-0.95439 4.75609,-6.7241 6.09375,-10.1875 0.8165,-2.1153 0.96395,-3.09989 0.8125,-6.5625 -0.19609,-4.4837 -0.611,-5.33611 -4.46875,-9.71875 -1.29952,-1.4763 -1.60356,-1.82385 -2.71875,-1.84375 z m 5.3125,2.875 1.15625,0.96875 c 1.26557,1.01664 2.25479,3.74089 2.75,7.6875 0.37083,2.95543 -0.66257,6.79761 -3.09375,11.59375 -1.05815,2.08744 -1.9375,3.90549 -1.9375,4.03125 0,0.46232 1.65462,0.21665 2.09375,-0.3125 0.24934,-0.30042 0.61839,-1.1273 0.78125,-1.84375 0.16282,-0.71646 1.26189,-3.43652 2.46875,-6.03125 2.02091,-4.34487 2.22324,-5.05063 2.40625,-8.71875 l 0.1875,-3.96875 -1.53125,-1.46875 c -1.07916,-1.03228 -2.01955,-1.48337 -3.375,-1.65625 l -1.90625,-0.28125 z" />
  </g>
</svg>
