<?xml version="1.0" encoding="UTF-8" standalone="no"?>
<!-- Created with Inkscape (http://www.inkscape.org/) -->

<svg
   xmlns:dc="http://purl.org/dc/elements/1.1/"
   xmlns:cc="http://creativecommons.org/ns#"
   xmlns:rdf="http://www.w3.org/1999/02/22-rdf-syntax-ns#"
   xmlns:svg="http://www.w3.org/2000/svg"
   xmlns="http://www.w3.org/2000/svg"
   xmlns:sodipodi="http://sodipodi.sourceforge.net/DTD/sodipodi-0.dtd"
   xmlns:inkscape="http://www.inkscape.org/namespaces/inkscape"
   width="800"
   height="700"
   id="svg2"
   version="1.1"
   inkscape:version="0.48.2 r9819"
   sodipodi:docname="l3.svg">
  <defs
     id="defs4" />
  <sodipodi:namedview
     id="base"
     pagecolor="#ffffff"
     bordercolor="#666666"
     borderopacity="1.0"
     inkscape:pageopacity="0.0"
     inkscape:pageshadow="2"
     inkscape:zoom="5.6568542"
     inkscape:cx="176.32409"
     inkscape:cy="455.68736"
     inkscape:document-units="px"
     inkscape:current-layer="layer1"
     showgrid="false"
     showguides="true"
     inkscape:guide-bbox="true"
     inkscape:window-width="1366"
     inkscape:window-height="746"
     inkscape:window-x="-8"
     inkscape:window-y="-8"
     inkscape:window-maximized="1"
     width="0px"
     height="0px"
     fit-margin-top="0"
     fit-margin-left="0"
     fit-margin-right="0"
     fit-margin-bottom="0">
    <sodipodi:guide
       orientation="1,0"
       position="400.22244,349.31075"
       id="guide3178" />
    <sodipodi:guide
       orientation="0,1"
       position="400.22244,349.31075"
       id="guide3180" />
  </sodipodi:namedview>
  <metadata
     id="metadata7">
    <rdf:RDF>
      <cc:Work
         rdf:about="">
        <dc:format>image/svg+xml</dc:format>
        <dc:type
           rdf:resource="http://purl.org/dc/dcmitype/StillImage" />
        <dc:title></dc:title>
      </cc:Work>
    </rdf:RDF>
  </metadata>
  <g
     inkscape:label="Layer 1"
     inkscape:groupmode="layer"
     id="layer1"
     transform="translate(0,-352.36218)">
    <path
       style="fill:#ff0000"
       d="m 116.40625,559.83093 c 2.75952,-0.0889 5.50461,1.26449 8.6875,4.1875 0.83744,0.76906 2.12596,1.71693 2.84375,2.09375 1.27645,0.67004 1.28245,0.70405 0.21875,0.6875 -1.48948,-0.0231 -1.98733,-0.26333 -5.25,-2.40625 -3.27428,-2.15055 -5.88737,-2.87603 -9.0625,-2.5 -2.37239,0.28101 -2.95769,-0.19174 -1.25,-1.03125 1.28633,-0.63232 2.5582,-0.99077 3.8125,-1.03125 z"
       id="path4092" />
    <path
       style="fill:#ff0000"
       d="m 142.21875,561.20593 c 1.11519,0.0199 1.41923,0.36745 2.71875,1.84375 3.85775,4.38264 4.27266,5.23505 4.46875,9.71875 0.15145,3.46261 0.004,4.4472 -0.8125,6.5625 -1.33766,3.4634 -4.78454,9.23311 -6.09375,10.1875 -1.02175,0.74483 -1.23775,0.74374 -3.28125,0.0937 -1.2661,-0.40271 -3.69133,-0.68241 -5.84375,-0.6875 -2.39015,-0.006 -4.78163,0.3196 -6.75,0.875 -2.48898,0.70228 -3.32137,0.76743 -4.59375,0.375 -2.5144,-0.77546 -5.54082,-3.00979 -6.375,-4.65625 -0.42602,-0.84082 -1.30986,-2.19384 -1.9375,-3.03125 -1.92943,-2.57434 -4.39339,-8.50166 -5.34375,-12.78125 -0.75742,-3.41064 2.64992,-6.78125 6.84375,-6.78125 1.76179,0 2.50857,0.27589 4.21875,1.53125 2.32612,1.70753 4.41497,2.64144 7.625,3.5 l 2.15625,0.59375 2.65625,-2.5625 c 3.22638,-3.16909 5.71188,-4.4877 8.90625,-4.71875 0.60998,-0.0442 1.06577,-0.0692 1.4375,-0.0625 z"
       id="path4090" />
    <path
       style="fill:#ff0000"
       d="m 147.53125,564.08093 1.90625,0.28125 c 1.35545,0.17288 2.29584,0.62397 3.375,1.65625 l 1.53125,1.46875 -0.1875,3.96875 c -0.18301,3.66812 -0.38534,4.37388 -2.40625,8.71875 -1.20686,2.59473 -2.30593,5.31479 -2.46875,6.03125 -0.16286,0.71645 -0.53191,1.54333 -0.78125,1.84375 -0.43913,0.52915 -2.09375,0.77482 -2.09375,0.3125 0,-0.12576 0.87935,-1.94381 1.9375,-4.03125 2.43118,-4.79614 3.46458,-8.63832 3.09375,-11.59375 -0.49521,-3.94661 -1.48443,-6.67086 -2.75,-7.6875 l -1.15625,-0.96875 z"
       id="path4088" />
  </g>
</svg>
