<?xml version="1.0" encoding="UTF-8" standalone="no"?>
<!-- Created with Inkscape (http://www.inkscape.org/) -->

<svg
   xmlns:dc="http://purl.org/dc/elements/1.1/"
   xmlns:cc="http://creativecommons.org/ns#"
   xmlns:rdf="http://www.w3.org/1999/02/22-rdf-syntax-ns#"
   xmlns:svg="http://www.w3.org/2000/svg"
   xmlns="http://www.w3.org/2000/svg"
   xmlns:sodipodi="http://sodipodi.sourceforge.net/DTD/sodipodi-0.dtd"
   xmlns:inkscape="http://www.inkscape.org/namespaces/inkscape"
   width="800"
   height="700"
   id="svg2"
   version="1.1"
   inkscape:version="0.48.2 r9819"
   sodipodi:docname="m12-fill.svg">
  <defs
     id="defs4" />
  <sodipodi:namedview
     id="base"
     pagecolor="#ffffff"
     bordercolor="#666666"
     borderopacity="1.0"
     inkscape:pageopacity="0.0"
     inkscape:pageshadow="2"
     inkscape:zoom="2.5"
     inkscape:cx="562.58103"
     inkscape:cy="526.60822"
     inkscape:document-units="px"
     inkscape:current-layer="layer1"
     showgrid="false"
     showguides="true"
     inkscape:guide-bbox="true"
     inkscape:window-width="1024"
     inkscape:window-height="538"
     inkscape:window-x="-8"
     inkscape:window-y="-8"
     inkscape:window-maximized="1"
     width="0px"
     height="0px"
     fit-margin-top="0"
     fit-margin-left="0"
     fit-margin-right="0"
     fit-margin-bottom="0">
    <sodipodi:guide
       orientation="1,0"
       position="400.22244,349.31075"
       id="guide3178" />
    <sodipodi:guide
       orientation="0,1"
       position="400.22244,349.31075"
       id="guide3180" />
  </sodipodi:namedview>
  <metadata
     id="metadata7">
    <rdf:RDF>
      <cc:Work
         rdf:about="">
        <dc:format>image/svg+xml</dc:format>
        <dc:type
           rdf:resource="http://purl.org/dc/dcmitype/StillImage" />
        <dc:title />
      </cc:Work>
    </rdf:RDF>
  </metadata>
  <g
     inkscape:label="Layer 1"
     inkscape:groupmode="layer"
     id="layer1"
     transform="translate(0,-352.36218)">
    <path
       id="rect3805"
       transform="translate(0,352.36218)"
       style="fill:#00ff00"
       d="m 567.375,148.3125 c -0.22877,-0.009 -0.46226,0.005 -0.6875,0.0312 -1.80195,0.20663 -3.47445,1.53189 -5.03125,3.9375 -1.61453,2.4948 -2.75518,3.54109 -5.1875,4.78125 -0.69719,0.35546 -2.19169,1.46236 -3.3125,2.46875 -2.7137,2.43657 -3.73622,5.63582 -2.8125,8.75 0.33271,1.1217 0.71168,2.54794 0.84375,3.1875 0.28757,1.39238 2.26288,3.84375 3.09375,3.84375 0.32537,-1e-5 1.18588,-1.24058 1.90625,-2.75 0.72042,-1.50945 1.70009,-3.09016 2.1875,-3.53125 0.88548,-0.80131 0.8949,-0.80511 -0.625,-2.28125 -0.94602,-0.91871 -1.53125,-1.9111 -1.53125,-2.59375 0,-0.96697 0.0603,-1.00215 0.625,-0.4375 1.41069,1.41071 3.75837,2.49569 6.75,3.125 4.93834,1.03883 6.33294,0.90951 11.46875,-0.9375 0.89725,-0.3227 1.59375,-0.44159 1.59375,-0.25 0,0.64052 -1.09931,1.84375 -2.15625,2.375 -1.42763,0.71762 -1.57985,1.49743 -0.375,1.875 0.55151,0.17288 1.49186,0.67938 2.0625,1.125 1.15711,0.90366 1.78125,1.04171 1.78125,0.375 0,-0.24403 0.48663,-1.18157 1.0625,-2.09375 0.57583,-0.9122 1.23198,-2.36976 1.46875,-3.1875 0.23682,-0.81773 0.7269,-2.15074 1.09375,-3 1.02231,-2.3666 -0.10854,-4.46423 -4.125,-7.65625 -1.75496,-1.39469 -4.03621,-3.37983 -5.0625,-4.40625 -1.74816,-1.74829 -3.43,-2.6871 -5.03125,-2.75 z m -3.40625,20.59375 c -0.96545,0.0467 -1.84959,0.21122 -2.53125,0.5 -1.89842,0.80415 -4.28502,3.33754 -5.5625,5.90625 -0.53546,1.07667 -1.21099,2.25558 -1.46875,2.625 -0.66687,0.95576 3.75185,9.5625 4.90625,9.5625 0.43876,0 0.88338,0.19826 1.03125,0.4375 0.35276,0.57059 2.41997,0.53207 4.78125,-0.0625 1.4444,-0.36371 2.66525,-1.21267 5.125,-3.625 3.58449,-3.51545 4.85162,-5.72352 3.6875,-6.375 -0.46301,-0.25909 -0.7663,-1.29684 -0.96875,-3.1875 -0.28312,-2.64381 -0.40142,-2.94945 -2,-4.125 -1.36518,-1.00402 -3.81393,-1.58535 -6.03125,-1.65625 -0.33258,-0.0106 -0.64691,-0.0156 -0.96875,0 z m 11.71875,4.375 c -0.53725,0.22655 -0.87903,1.8104 -0.53125,2.90625 0.40773,1.28449 1.12945,0.50947 1.21875,-1.3125 0.0384,-0.77827 -0.1785,-1.49146 -0.46875,-1.59375 -0.0833,-0.0293 -0.14195,-0.0323 -0.21875,0 z" />
  </g>
</svg>
