<?xml version="1.0" encoding="UTF-8" standalone="no"?>
<!-- Created with Inkscape (http://www.inkscape.org/) -->

<svg
   xmlns:dc="http://purl.org/dc/elements/1.1/"
   xmlns:cc="http://creativecommons.org/ns#"
   xmlns:rdf="http://www.w3.org/1999/02/22-rdf-syntax-ns#"
   xmlns:svg="http://www.w3.org/2000/svg"
   xmlns="http://www.w3.org/2000/svg"
   xmlns:sodipodi="http://sodipodi.sourceforge.net/DTD/sodipodi-0.dtd"
   xmlns:inkscape="http://www.inkscape.org/namespaces/inkscape"
   width="800"
   height="700"
   id="svg2"
   version="1.1"
   inkscape:version="0.48.2 r9819"
   sodipodi:docname="f32.svg">
  <defs
     id="defs4" />
  <sodipodi:namedview
     id="base"
     pagecolor="#ffffff"
     bordercolor="#666666"
     borderopacity="1.0"
     inkscape:pageopacity="0.0"
     inkscape:pageshadow="2"
     inkscape:zoom="2.8284271"
     inkscape:cx="104.49194"
     inkscape:cy="217.5297"
     inkscape:document-units="px"
     inkscape:current-layer="layer1"
     showgrid="false"
     showguides="true"
     inkscape:guide-bbox="true"
     inkscape:window-width="1366"
     inkscape:window-height="746"
     inkscape:window-x="-8"
     inkscape:window-y="-8"
     inkscape:window-maximized="1"
     width="0px"
     height="0px"
     fit-margin-top="0"
     fit-margin-left="0"
     fit-margin-right="0"
     fit-margin-bottom="0">
    <sodipodi:guide
       orientation="1,0"
       position="400.22244,349.31075"
       id="guide3178" />
    <sodipodi:guide
       orientation="0,1"
       position="400.22244,349.31075"
       id="guide3180" />
  </sodipodi:namedview>
  <metadata
     id="metadata7">
    <rdf:RDF>
      <cc:Work
         rdf:about="">
        <dc:format>image/svg+xml</dc:format>
        <dc:type
           rdf:resource="http://purl.org/dc/dcmitype/StillImage" />
        <dc:title></dc:title>
      </cc:Work>
    </rdf:RDF>
  </metadata>
  <g
     inkscape:label="Layer 1"
     inkscape:groupmode="layer"
     id="layer1"
     transform="translate(0,-352.36218)">
    <path
       id="rect3023"
       transform="translate(0,352.36218)"
       style="fill:#ff0000"
       d="m 21.3125,433.84375 c -0.42688,-0.005 -0.79103,0.082 -1.03125,0.28125 -0.73189,0.60744 -0.84505,3.57262 -0.21875,6.875 0.23782,1.25416 0.36493,2.51347 0.21875,2.75 -0.14614,0.23648 -1.10484,-0.32983 -2.09375,-1.25 -0.98892,-0.92021 -2.27682,-1.96574 -2.875,-2.3125 -4.29919,-2.49234 -5.65927,-2.76259 -6.71875,-1.25 -0.37245,0.53179 -0.6875,1.68206 -0.6875,2.5 0,1.70506 2.9136,10.52929 4.78125,14.53125 1.62302,3.47781 3.20972,8.20673 4.40625,13.125 0.8189,3.36611 0.878,4.58062 0.625,8.8125 -0.16159,2.70307 -0.64578,6.1375 -1.09375,7.625 -0.44794,1.4875 -0.93342,3.57957 -1.09375,4.65625 -0.16035,1.07672 -0.66683,3.22929 -1.125,4.75 -0.9518,3.15871 -1.06577,5.5332 -0.375,9.5 0.69239,3.97595 2.99514,6.23604 6.5,6.40625 0.87266,0.0423 2.14376,0.47191 2.84375,0.96875 0.69998,0.4968 1.67771,1.00468 2.15625,1.125 2.32478,0.58228 5.48382,-0.48802 7.6875,-2.59375 1.45794,-1.39341 2.52413,-1.17282 5.0625,1 1.92559,1.64816 3.5054,1.98627 4.65625,1.03125 0.36231,-0.30078 1.19476,-0.86283 1.875,-1.25 3.09993,-1.76461 7.90726,-8.59967 7.90625,-11.25 -0.002,-3.84749 -2.77942,-12.11399 -4.5625,-13.59375 -0.36504,-0.30303 -0.6875,-0.90277 -0.6875,-1.375 0,-0.47223 -0.26212,-1.39614 -0.59375,-2.03125 -1.70787,-3.2707 -3.3121,-7.18066 -3.75,-9.0625 -0.27029,-1.1615 -0.58426,-2.39109 -0.71875,-2.75 -0.13447,-0.35882 -0.28756,-0.868 -0.34375,-1.125 -0.16585,-0.75908 -2.01046,-6.66444 -3.15625,-10.15625 -0.58422,-1.78036 -1.14499,-3.56447 -1.21875,-3.9375 -0.36485,-1.84603 -3.6495,-8.51554 -6,-12.15625 -2.55634,-3.95957 -3.14537,-4.70934 -6.03125,-7.75 -1.17713,-1.24028 -3.06314,-2.08133 -4.34375,-2.09375 z m 0.53125,1.5625 c 0.0733,-0.0134 0.1553,0 0.25,0 0.79112,0 7.55743,6.7361 7.5625,7.53125 8.9e-4,0.20795 0.73215,1.59555 1.625,3.0625 3.03849,4.992 4.5834,8.92157 7.46875,19.1875 1.21072,4.30773 4.3041,13.25295 5.0625,14.625 0.35105,0.63504 0.65625,1.68719 0.65625,2.34375 l 0,1.21875 -3.59375,-0.25 c -2.30241,-0.16188 -4.86111,-0.0256 -7.09375,0.375 -1.91413,0.34349 -5.42336,0.82447 -7.8125,1.0625 -2.38912,0.23798 -4.9608,0.54555 -5.71875,0.6875 -1.68552,0.31623 -2.08012,-0.538 -1.46875,-3.125 0.60671,-2.56729 0.5306,-8.34543 -0.15625,-11.0625 -0.33025,-1.30643 -0.85685,-3.76261 -1.15625,-5.4375 -0.29943,-1.67487 -0.92798,-3.83903 -1.375,-4.78125 -0.44702,-0.94212 -0.78125,-1.86557 -0.78125,-2.0625 0,-0.19694 -0.36644,-1.20448 -0.8125,-2.21875 -3.89066,-8.84707 -3.97121,-9.01435 -4.59375,-12.53125 -0.53994,-3.05019 -0.2152303,-4.28125 1.125,-4.28125 0.92475,0 4.30056,2.27838 5.875,3.96875 3.46233,3.71732 8.49372,12.46806 10.96875,19.0625 0.6867,1.82956 2.58647,5.5886 5.03125,9.9375 1.34174,2.38675 4.68926,6.43216 4.875,5.875 0.078,-0.23445 -0.63835,-1.75092 -1.625,-3.375 -2.8191,-4.64039 -3.47889,-5.85279 -5.59375,-10.03125 -2.28346,-4.51169 -2.9314,-5.99333 -3.3125,-7.8125 -0.15038,-0.71785 -0.51096,-2.00632 -0.84375,-2.84375 C 23.06326,446.11948 21.72299,441.88207 21.5,438.75 c -0.19327,-2.71446 -0.16968,-3.24985 0.34375,-3.34375 z M 39.5,484.125 c 1.77171,0.0327 3.42392,0.32076 4.71875,0.8125 1.84562,0.70097 2.38157,1.18521 3.78125,3.5 1.71904,2.84299 2.43204,5.38695 2.84375,10.03125 0.30097,3.39509 -0.32083,3.13653 -1.375,-0.5625 -0.39208,-1.37591 -0.89243,-2.5 -1.125,-2.5 -0.51988,0 -0.52404,-0.20769 0.25,2.34375 0.35632,1.17461 0.625,3.22701 0.625,4.5 0,2.27362 -0.03699,2.33439 -2.9375,5.28125 -3.52484,3.58115 -5.01102,4.1445 -6.90625,2.5625 -0.69045,-0.57639 -1.84322,-1.3653 -2.59375,-1.75 -1.08036,-0.55384 -1.42755,-1.07214 -1.59375,-2.375 -0.11547,-0.90502 -0.05752,-1.79808 0.125,-2 0.31948,-0.35324 -0.23631,-3.10382 -0.8125,-4 -0.15384,-0.23922 -0.36906,0.97752 -0.5,2.65625 -0.2757,3.53389 -1.20403,5.05213 -4.40625,7.40625 -1.10875,0.8151 -2.2669,1.47422 -2.59375,1.46875 -0.60121,-0.0101 -3.47422,-1.28423 -3.875,-1.71875 -0.11965,-0.12977 -1.12232,-0.65643 -2.25,-1.1875 -1.8752,-0.88277 -2.14711,-1.16239 -2.78125,-3.34375 -0.38135,-1.31178 -0.67836,-3.38582 -0.6875,-4.59375 -0.0131,-1.6878 -0.16857,-2.1875 -0.6875,-2.1875 -0.57642,0 -0.60411,0.49792 -0.375,3.46875 0.26418,3.42567 -0.24979,4.81348 -0.78125,2.15625 -0.60435,-3.02174 -0.25193,-7.42798 0.8125,-10.5625 0.58237,-1.71523 1.11189,-3.59294 1.1875,-4.1875 0.2393,-1.88209 3.00147,-3.01126 8.6875,-3.53125 2.71509,-0.24826 6.17724,-0.71762 7.6875,-1.0625 1.89609,-0.43268 3.79081,-0.65766 5.5625,-0.625 z" />
  </g>
</svg>
