<?xml version="1.0" encoding="UTF-8" standalone="no"?>
<!-- Created with Inkscape (http://www.inkscape.org/) -->

<svg
   xmlns:dc="http://purl.org/dc/elements/1.1/"
   xmlns:cc="http://creativecommons.org/ns#"
   xmlns:rdf="http://www.w3.org/1999/02/22-rdf-syntax-ns#"
   xmlns:svg="http://www.w3.org/2000/svg"
   xmlns="http://www.w3.org/2000/svg"
   xmlns:sodipodi="http://sodipodi.sourceforge.net/DTD/sodipodi-0.dtd"
   xmlns:inkscape="http://www.inkscape.org/namespaces/inkscape"
   width="800"
   height="400"
   id="svg2"
   version="1.1"
   inkscape:version="0.48.2 r9819"
   sodipodi:docname="f17.svg">
  <defs
     id="defs4" />
  <sodipodi:namedview
     id="base"
     pagecolor="#ffffff"
     bordercolor="#666666"
     borderopacity="1.0"
     inkscape:pageopacity="0.0"
     inkscape:pageshadow="2"
     inkscape:zoom="2.8284271"
     inkscape:cx="761.95965"
     inkscape:cy="123.1953"
     inkscape:document-units="px"
     inkscape:current-layer="layer1"
     showgrid="false"
     showguides="true"
     inkscape:guide-bbox="true"
     inkscape:window-width="1366"
     inkscape:window-height="746"
     inkscape:window-x="-8"
     inkscape:window-y="-8"
     inkscape:window-maximized="1"
     width="0px"
     height="0px"
     fit-margin-top="0"
     fit-margin-left="0"
     fit-margin-right="0"
     fit-margin-bottom="0">
    <sodipodi:guide
       orientation="1,0"
       position="400.22244,349.31075"
       id="guide3178" />
    <sodipodi:guide
       orientation="0,1"
       position="655.48799,210.71782"
       id="guide3180" />
  </sodipodi:namedview>
  <metadata
     id="metadata7">
    <rdf:RDF>
      <cc:Work
         rdf:about="">
        <dc:format>image/svg+xml</dc:format>
        <dc:type
           rdf:resource="http://purl.org/dc/dcmitype/StillImage" />
        <dc:title></dc:title>
      </cc:Work>
    </rdf:RDF>
  </metadata>
  <g
     inkscape:label="Layer 1"
     inkscape:groupmode="layer"
     id="layer1"
     transform="translate(0,-652.36218)">
    <path
       id="rect3003"
       transform="translate(0,652.36218)"
       style="fill:#ff0000"
       d="m 779.6875,257.21875 c -1.88112,0.01 -5.06698,1.1388 -7.5,2.6875 -3.39129,2.1586 -3.76323,2.2389 -5.3125,1.0625 -2.117,-1.608 -5.44304,-2.90625 -7.4375,-2.90625 -0.99984,0 -3.04928,0.4265 -4.5625,0.9375 -3.3477,1.1305 -5.40375,3.1619 -6.375,6.25 -0.62017,1.9721 -0.63374,2.4013 -0.0312,4.5625 0.98011,3.5159 1.91279,5.92915 3.53125,9.34375 1.86527,3.9353 3.03458,7.2247 4.5625,12.625 2.96798,10.4897 5.11923,16.1374 7.90625,20.75 2.57714,4.2654 9.40521,11.10005 14.5,14.53125 1.20325,0.8103 2.62016,1.46885 3.15625,1.46875 1.55559,0 2.37618,-1.6995 2.21875,-4.625 -0.0822,-1.5298 0.0501,-2.52265 0.3125,-2.46875 0.23925,0.048 1.51521,0.49335 2.84375,0.96875 1.32849,0.4754 3.40863,0.9636 4.625,1.125 1.93199,0.2564 2.3374,0.19375 3.1875,-0.65625 0.85418,-0.8542 0.9307,-1.27465 0.6875,-3.34375 -0.31342,-2.6668 -1.61333,-5.05115 -4.375,-7.96875 -2.06291,-2.1793 -4.58965,-6.4994 -5.6875,-9.75 -1.85261,-5.486 -1.56202,-12.52885 0.84375,-20.46875 1.57737,-5.2061 2.57332,-11.28145 2.25,-13.71875 -0.35956,-2.7105 -0.96752,-3.8612 -3.0625,-5.6875 -0.94023,-0.8194 -2.48809,-2.2277 -3.4375,-3.125 -1.08595,-1.0261 -2.13564,-1.59375 -2.84375,-1.59375 z m -0.84375,2.15625 c 0.78461,0 4.79361,2.712 6.90625,4.6875 1.01926,0.9529 1.057,1.23925 1,5.65625 -0.0442,3.4012 -0.26935,5.4307 -0.9375,7.5 -0.50215,1.5553 -0.93341,3.22205 -0.9375,3.71875 -0.0138,2.2285 -4.0505,3.95455 -10.65625,4.53125 -1.91413,0.167 -3.76596,0.39965 -4.125,0.53125 -0.79076,0.2903 -1.71468,0.0942 -4.71875,-1 -1.26512,-0.4608 -3.26572,-0.84375 -4.4375,-0.84375 -3.81351,0 -4.07983,-0.2339 -7.28125,-6.75 -2.46348,-5.0142 -2.91247,-6.36305 -3.0625,-8.71875 -0.0972,-1.5289 -0.0579,-3.2709 0.0937,-3.875 0.34874,-1.3895 2.70388,-2.89445 6.34375,-4.03125 l 2.84375,-0.875 2.375,0.875 c 4.28978,1.5595 5.66539,3.51035 5.65625,8.03125 -0.007,3.1498 -0.20107,3.7429 -1.40625,4.1875 -1.54853,0.5713 -0.75931,1.196 1.3125,1.0625 1.7996,-0.1154 2.05186,-0.21105 1.90625,-0.96875 -0.33902,-1.7643 -0.58768,-7.778 -0.34375,-8.75 0.16744,-0.667 0.69777,-1.0601 1.5625,-1.25 0.71528,-0.1572 1.405,-0.4834 1.53125,-0.6875 0.36722,-0.5938 5.49739,-3.03125 6.375,-3.03125 z m -19.9375,26.96875 c 1.00166,-0.039 2.53914,0.1973 3.5625,0.625 0.82057,0.3427 2.34901,0.7343 3.375,0.875 2.05621,0.2815 14.36147,-0.37615 15.8125,-0.84375 0.88925,-0.2865 0.8979,-0.14045 1.15625,5.71875 0.21125,4.7902 0.50518,6.7284 1.40625,9.5 0.62235,1.914 1.38057,3.86525 1.6875,4.34375 0.30684,0.4785 0.69244,1.37045 0.84375,1.96875 0.29665,1.1727 0.77251,1.8029 5.59375,7.3125 1.7094,1.9534 2.09375,2.6874 2.09375,4.0625 0,1.9472 -0.10502,1.969 -4.4375,1.0625 -1.66259,-0.3476 -3.31359,-1.00805 -3.875,-1.53125 -0.5398,-0.5029 -1.22544,-0.90625 -1.5,-0.90625 -0.60754,0 -6.28125,-5.8154 -6.28125,-6.4375 0,-0.2436 -0.96198,-1.96865 -2.125,-3.84375 -2.10088,-3.3875 -4.04325,-6.84515 -5.96875,-10.59375 l -1,-1.96875 -0.0312,1.84375 c -0.0155,1.2618 0.35498,2.42345 1.09375,3.59375 0.59816,0.9476 1.0625,1.88635 1.0625,2.09375 0,0.2073 0.39648,0.85445 0.875,1.40625 0.47853,0.5517 0.875,1.175 0.875,1.4375 0.002,0.2624 0.86241,1.86365 1.9375,3.53125 1.07509,1.6676 1.96875,3.16745 1.96875,3.34375 0,0.1759 0.76865,1.42485 1.71875,2.78125 2.63212,3.7574 3.70229,6.2422 3.71875,8.6875 0.0109,1.5986 -0.14287,2.18 -0.625,2.25 -1.11436,0.162 -9.26168,-7.01015 -13.71875,-12.09375 -0.71779,-0.8188 -1.77682,-2.47025 -2.375,-3.65625 -0.59816,-1.1862 -1.21738,-2.2559 -1.34375,-2.375 -0.60656,-0.5748 -2.67399,-6.5318 -4.09375,-11.75 -0.89572,-3.2922 -2.40625,-9.6059 -2.40625,-10.0625 -1.1e-4,-0.2229 0.39903,-0.3518 1,-0.375 z" />
  </g>
</svg>
