<?xml version="1.0" encoding="UTF-8" standalone="no"?>
<!-- Created with Inkscape (http://www.inkscape.org/) -->

<svg
   xmlns:dc="http://purl.org/dc/elements/1.1/"
   xmlns:cc="http://creativecommons.org/ns#"
   xmlns:rdf="http://www.w3.org/1999/02/22-rdf-syntax-ns#"
   xmlns:svg="http://www.w3.org/2000/svg"
   xmlns="http://www.w3.org/2000/svg"
   xmlns:sodipodi="http://sodipodi.sourceforge.net/DTD/sodipodi-0.dtd"
   xmlns:inkscape="http://www.inkscape.org/namespaces/inkscape"
   width="900"
   height="800"
   id="svg2"
   version="1.1"
   inkscape:version="0.48+devel r11738"
   sodipodi:docname="f17.svg">
  <defs
     id="defs4" />
  <sodipodi:namedview
     id="base"
     pagecolor="#ffffff"
     bordercolor="#666666"
     borderopacity="1.0"
     inkscape:pageopacity="0.0"
     inkscape:pageshadow="2"
     inkscape:zoom="2"
     inkscape:cx="195.14482"
     inkscape:cy="177.73065"
     inkscape:document-units="px"
     inkscape:current-layer="layer1"
     showgrid="false"
     showguides="true"
     inkscape:guide-bbox="true"
     inkscape:window-width="1366"
     inkscape:window-height="705"
     inkscape:window-x="-4"
     inkscape:window-y="-4"
     inkscape:window-maximized="1"
     width="0px"
     height="0px"
     fit-margin-top="0"
     fit-margin-left="0"
     fit-margin-right="0"
     fit-margin-bottom="0">
    <sodipodi:guide
       orientation="1,0"
       position="450,784"
       id="guide3178" />
    <sodipodi:guide
       orientation="0,1"
       position="-61,400"
       id="guide3180" />
  </sodipodi:namedview>
  <metadata
     id="metadata7">
    <rdf:RDF>
      <cc:Work
         rdf:about="">
        <dc:format>image/svg+xml</dc:format>
        <dc:type
           rdf:resource="http://purl.org/dc/dcmitype/StillImage" />
        <dc:title />
      </cc:Work>
    </rdf:RDF>
  </metadata>
  <g
     inkscape:label="Layer 1"
     inkscape:groupmode="layer"
     id="layer1"
     transform="translate(0,-252.36218)">
    <path
       id="rect146"
       transform="translate(0,252.36218)"
       style="fill:#ff0000;fill-opacity:1;stroke:none"
       d="m 26.0625,640.875 c -1.183297,0.029 -2.036765,0.40641 -2.3125,1.125 -0.142055,0.37013 -1.502409,1.14691 -3.03125,1.71875 -1.842968,0.68961 -3.548462,1.84442 -5.125,3.4375 l -2.40625,2.40625 0.21875,3.5625 c 0.18604,3.11588 1.426349,9.61146 3.3125,17.125 0.350886,1.39781 0.484864,5.12355 0.34375,10.09375 -0.195851,6.89815 -0.356226,8.25999 -1.4375,11.0625 -2.426651,6.28941 -6.8015365,13.29487 -11.46875,18.4375 -1.7690229,1.94933 -2.1564534,2.68155 -1.9375,3.65625 0.3920919,1.7453 1.8006967,2.80613 4.34375,3.1875 2.8296,0.42424 5.336525,-0.79699 9.21875,-4.5 1.55285,-1.48119 3.044346,-2.62659 3.3125,-2.53125 0.290886,0.10316 0.121519,1.26112 -0.4375,2.875 -1.082298,3.12426 -1.218439,5.43772 -0.375,6.28125 0.32458,0.32464 1.842605,0.61855 3.34375,0.625 l 2.71875,0 4.0625,-4.28125 c 2.244203,-2.35346 4.976246,-5.61164 6.03125,-7.25 1.054993,-1.6387 2.154841,-3.26705 2.46875,-3.625 0.806126,-0.91946 3.90625,-8.18659 3.90625,-9.15625 0,-0.44273 0.784968,-2.85212 1.75,-5.34375 0.965023,-2.49187 1.972836,-5.41799 2.21875,-6.5 1.4587,-6.41787 3.047617,-11.30177 4.84375,-14.75 1.122264,-2.15448 2.218753,-4.01209 2.4375,-4.15625 0.218745,-0.14463 1.150102,-1.82549 2.0625,-3.71875 1.37777,-2.85913 1.687887,-4.12232 1.84375,-7.5 0.103225,-2.23684 0.02908,-4.57361 -0.125,-5.1875 -0.15407,-0.61389 -1.395754,-2.27798 -2.8125,-3.6875 -2.428845,-2.41604 -2.722708,-2.54733 -5.0625,-2.53125 -2.784039,0.013 -4.561285,0.39623 -8.90625,2 l -3.03125,1.125 -2.46875,-1.5625 C 30.938057,641.69789 28.034669,640.82686 26.0625,640.875 z m 1.625,2.375 c 2.139393,-0.0339 4.422278,0.72536 6,2.1875 l 1.34375,1.3125 -0.25,5.4375 c -0.250061,5.27565 -0.318424,5.49576 -1.65625,6.5625 -1.615549,1.28832 -1.2307,2.11261 0.59375,1.28125 0.690069,-0.31441 1.914918,-0.625 2.78125,-0.625 l 1.59375,0 L 36.9375,658.5 c -1.126352,-0.86607 -1.177244,-1.10772 -0.9375,-5.3125 0.137976,-2.41974 0.466383,-4.81934 0.75,-5.34375 0.283615,-0.52464 1.982251,-1.70141 3.75,-2.59375 2.780316,-1.40299 3.614207,-1.59659 6.25,-1.46875 2.974456,0.14361 3.091261,0.20078 5.0625,2.53125 1.854777,2.19287 2.020448,2.60624 2,5.15625 -0.04117,5.13929 -1.179136,8.85866 -4.03125,13.25 -2.125343,3.27211 -2.865806,4.0625 -3.84375,4.0625 -0.666909,0 -1.21875,0.19819 -1.21875,0.46875 0,0.27041 -0.597569,0.5 -1.375,0.5 -0.777429,0 -2.378961,0.3306 -3.5625,0.75 -2.553219,0.90488 -10.248866,1.29416 -14.6875,0.75 -2.88273,-0.35657 -3.307837,-0.56318 -5.15625,-2.53125 -1.57369,-1.67544 -2.21655,-2.833 -2.71875,-5.125 -0.355575,-1.62294 -1.029233,-3.94248 -1.53125,-5.1875 -1.397034,-3.4651 -1.639358,-5.96906 -0.78125,-7.625 1.010087,-1.9493 3.132231,-3.77759 5.5625,-4.75 1.116345,-0.44664 2.778801,-1.25856 3.6875,-1.8125 C 25.173667,643.59871 26.403872,643.27036 27.6875,643.25 z m 17.5,27.5 c 0.829272,0 0.615137,1.56106 -1,7.46875 -0.833317,3.04788 -1.904004,7.10661 -2.40625,9 -0.502247,1.89337 -1.357296,4.66862 -1.90625,6.15625 -0.548966,1.48764 -1.022059,3.12092 -1.03125,3.625 -0.01915,1.09293 -1.990008,4.71875 -2.5625,4.71875 -0.220676,0 -0.375,0.28084 -0.375,0.625 0,0.3443 -0.772073,1.7812 -1.71875,3.21875 -0.946675,1.43743 -1.75,2.7984 -1.75,3 0,0.55083 -7.465942,8.07396 -8.71875,8.78125 -1.174337,0.6627 -3.187315,0.81267 -3.71875,0.28125 -0.759386,-0.75955 -0.237,-4.0418 1.5625,-9.4375 1.859224,-5.575 2.663475,-7.56541 4.3125,-10.65625 4.58942,-8.60244 5.492006,-10.5625 4.875,-10.5625 -0.557456,0 -4.21875,5.40063 -4.21875,6.21875 0,0.13395 -0.510306,0.9514 -1.15625,1.8125 -0.645944,0.86088 -1.760233,2.64768 -2.46875,4 -5.219271,9.96257 -12.558285,16.8442 -16.71875,15.65625 -2.4173224,-0.69004 -2.1367659,-1.96557 1.34375,-5.9375 1.7156195,-1.95794 3.541995,-4.41524 4.03125,-5.5 0.489254,-1.08512 1.012255,-2 1.1875,-2 0.288668,0 2.633103,-4.72956 4.6875,-9.46875 1.337379,-3.08521 1.775658,-7.19964 1.4375,-13.46875 -0.228765,-4.24086 -0.180591,-6.03438 0.21875,-6.28125 0.308473,-0.1907 1.818214,0.097 3.3125,0.65625 2.228869,0.83389 3.812595,1.03125 9,1.03125 5.927475,0 6.562481,-0.0857 9.8125,-1.46875 C 43.125601,671.40764 44.902195,670.75 45.1875,670.75 Z" />
  </g>
</svg>
