<?xml version="1.0" encoding="UTF-8" standalone="no"?>
<!-- Created with Inkscape (http://www.inkscape.org/) -->

<svg
   xmlns:dc="http://purl.org/dc/elements/1.1/"
   xmlns:cc="http://creativecommons.org/ns#"
   xmlns:rdf="http://www.w3.org/1999/02/22-rdf-syntax-ns#"
   xmlns:svg="http://www.w3.org/2000/svg"
   xmlns="http://www.w3.org/2000/svg"
   xmlns:sodipodi="http://sodipodi.sourceforge.net/DTD/sodipodi-0.dtd"
   xmlns:inkscape="http://www.inkscape.org/namespaces/inkscape"
   width="900"
   height="800"
   id="svg2"
   version="1.1"
   inkscape:version="0.48+devel r11738"
   sodipodi:docname="l17.svg">
  <defs
     id="defs4" />
  <sodipodi:namedview
     id="base"
     pagecolor="#ffffff"
     bordercolor="#666666"
     borderopacity="1.0"
     inkscape:pageopacity="0.0"
     inkscape:pageshadow="2"
     inkscape:zoom="2"
     inkscape:cx="195.14482"
     inkscape:cy="257.73065"
     inkscape:document-units="px"
     inkscape:current-layer="layer1"
     showgrid="false"
     showguides="true"
     inkscape:guide-bbox="true"
     inkscape:window-width="1366"
     inkscape:window-height="705"
     inkscape:window-x="-4"
     inkscape:window-y="-4"
     inkscape:window-maximized="1"
     width="0px"
     height="0px"
     fit-margin-top="0"
     fit-margin-left="0"
     fit-margin-right="0"
     fit-margin-bottom="0">
    <sodipodi:guide
       orientation="1,0"
       position="450,784"
       id="guide3178" />
    <sodipodi:guide
       orientation="0,1"
       position="-61,400"
       id="guide3180" />
  </sodipodi:namedview>
  <metadata
     id="metadata7">
    <rdf:RDF>
      <cc:Work
         rdf:about="">
        <dc:format>image/svg+xml</dc:format>
        <dc:type
           rdf:resource="http://purl.org/dc/dcmitype/StillImage" />
        <dc:title />
      </cc:Work>
    </rdf:RDF>
  </metadata>
  <g
     inkscape:label="Layer 1"
     inkscape:groupmode="layer"
     id="layer1"
     transform="translate(0,-252.36218)">
    <path
       id="rect158"
       transform="translate(0,252.36218)"
       style="fill:#ff0000;fill-opacity:1;stroke:none"
       d="m 23,490.46875 c -0.482557,-0.005 -0.91597,0.0872 -1.1875,0.3125 -0.827379,0.68667 -0.8955,4.07932 -0.1875,7.8125 0.268843,1.41777 0.352736,2.7951 0.1875,3.0625 -0.165226,0.26732 -1.194567,-0.33479 -2.3125,-1.375 -1.117932,-1.04026 -2.605047,-2.23301 -3.28125,-2.625 -4.860044,-2.81749 -6.3960582,-3.11617 -7.59375,-1.40625 -0.4210511,0.60117 -0.75,1.88785 -0.75,2.8125 0,1.92749 3.263717,11.91348 5.375,16.4375 1.834743,3.9315 3.647389,9.25264 5,14.8125 0.925722,3.80525 1.004756,5.21607 0.71875,10 -0.182686,3.0557 -0.774856,6.91221 -1.28125,8.59375 -0.506383,1.68155 -1.0375,4.06413 -1.21875,5.28125 -0.18125,1.2172 -0.763301,3.62465 -1.28125,5.34375 -1.075957,3.57078 -1.187127,6.26572 -0.40625,10.75 0.782714,4.49462 3.381663,7.05759 7.34375,7.25 0.986492,0.0478 2.427453,0.53211 3.21875,1.09375 0.791296,0.56163 1.896542,1.14524 2.4375,1.28125 2.628052,0.65823 6.196358,-0.58831 8.6875,-2.96875 1.648151,-1.57517 2.849244,-1.30003 5.71875,1.15625 2.176796,1.86315 3.980253,2.23585 5.28125,1.15625 0.409554,-0.34003 1.324773,-0.96857 2.09375,-1.40625 3.504317,-1.99481 8.938648,-9.72269 8.9375,-12.71875 -0.0018,-4.34941 -3.140556,-13.67094 -5.15625,-15.34375 -0.412667,-0.34256 -0.75,-1.05992 -0.75,-1.59375 0,-0.53384 -0.312604,-1.56328 -0.6875,-2.28125 -1.930652,-3.69737 -3.723741,-8.12268 -4.21875,-10.25 -0.305557,-1.31304 -0.691723,-2.71927 -0.84375,-3.125 -0.152026,-0.40562 -0.311474,-0.95947 -0.375,-1.25 -0.187465,-0.85811 -2.267223,-7.52142 -3.5625,-11.46875 -0.66042,-2.01261 -1.291601,-4.04705 -1.375,-4.46875 -0.412426,-2.08684 -4.124124,-9.63436 -6.78125,-13.75 -2.889804,-4.47611 -3.550132,-5.31268 -6.8125,-8.75 C 26.606818,491.44168 24.447683,490.48278 23,490.46875 z m 0.625,1.75 c 0.08291,-0.0151 0.174198,0 0.28125,0 0.894327,0 8.525508,7.66362 8.53125,8.5625 0.0015,0.23507 0.834432,1.77919 1.84375,3.4375 3.434866,5.64322 5.175741,10.08234 8.4375,21.6875 1.368658,4.86969 4.861423,14.98021 5.71875,16.53125 0.396837,0.71788 0.75,1.91403 0.75,2.65625 l 0,1.375 -4.0625,-0.28125 c -2.602776,-0.18299 -5.476107,-0.0154 -8,0.4375 -2.163838,0.38829 -6.142958,0.91843 -8.84375,1.1875 -2.700799,0.26903 -5.643179,0.62078 -6.5,0.78125 -1.905415,0.35749 -2.347363,-0.60676 -1.65625,-3.53125 0.685863,-2.9022 0.620193,-9.45972 -0.15625,-12.53125 -0.373334,-1.47685 -0.974019,-4.23162 -1.3125,-6.125 -0.338481,-1.89336 -1.025902,-4.30987 -1.53125,-5.375 -0.505348,-1.06502 -0.90625,-2.12111 -0.90625,-2.34375 0,-0.22262 -0.433264,-1.35342 -0.9375,-2.5 C 10.883039,506.1863 10.828763,505.9757 10.125,502 c -0.6103787,-3.4481 -0.2650445,-4.84375 1.25,-4.84375 1.0454,0 4.876429,2.55785 6.65625,4.46875 3.914001,4.20226 9.608335,14.13903 12.40625,21.59375 0.776282,2.06822 2.923781,6.27128 5.6875,11.1875 1.516769,2.69812 5.321269,7.2861 5.53125,6.65625 0.08831,-0.26503 -0.759639,-1.97655 -1.875,-3.8125 -3.18686,-5.24573 -3.921748,-6.62018 -6.3125,-11.34375 -2.581354,-5.10024 -3.319183,-6.78725 -3.75,-8.84375 C 29.548758,516.251 29.126229,514.82168 28.75,513.875 24.970913,504.3659 23.470832,499.5719 23.21875,496.03125 23.000269,492.96268 23.04458,492.32492 23.625,492.21875 z m 18.4375,55.125 c 0.518751,-0.024 1.030545,-0.009 1.53125,0 2.002817,0.0369 3.848758,0.31912 5.3125,0.875 2.086389,0.79241 2.667742,1.352 4.25,3.96875 1.943312,3.21386 2.784583,6.09359 3.25,11.34375 0.34025,3.83799 -0.370806,3.55658 -1.5625,-0.625 -0.443223,-1.55541 -1.018336,-2.84375 -1.28125,-2.84375 -0.587704,0 -0.593744,-0.22804 0.28125,2.65625 0.4028,1.32784 0.71875,3.62345 0.71875,5.0625 0,2.57021 -0.06495,2.66873 -3.34375,6 -3.984669,4.04833 -5.638779,4.66337 -7.78125,2.875 -0.780532,-0.65158 -2.089066,-1.53384 -2.9375,-1.96875 -1.221287,-0.62608 -1.624632,-1.18344 -1.8125,-2.65625 -0.130522,-1.02309 -0.05008,-2.02175 0.15625,-2.25 0.361158,-0.39933 -0.286145,-3.51816 -0.9375,-4.53125 -0.173898,-0.27042 -0.414459,1.07101 -0.5625,2.96875 -0.311643,3.99489 -1.348798,5.71379 -4.96875,8.375 -1.253395,0.92142 -2.568015,1.6937 -2.9375,1.6875 -0.679638,-0.0115 -3.921942,-1.4463 -4.375,-1.9375 -0.135242,-0.1467 -1.287716,-0.77465 -2.5625,-1.375 -2.119842,-0.99792 -2.408131,-1.28407 -3.125,-3.75 -0.431092,-1.48292 -0.770912,-3.85324 -0.78125,-5.21875 -0.01478,-1.90797 -0.194639,-2.46875 -0.78125,-2.46875 -0.65162,0 -0.696488,0.57913 -0.4375,3.9375 0.298642,3.87257 -0.274201,5.41012 -0.875,2.40625 -0.683174,-3.41594 -0.297022,-8.36281 0.90625,-11.90625 0.658351,-1.93898 1.289534,-4.07787 1.375,-4.75 0.270509,-2.1276 3.353457,-3.38093 9.78125,-3.96875 3.069287,-0.28064 6.980222,-0.82887 8.6875,-1.21875 C 38.857595,547.66441 40.506248,547.41568 42.0625,547.34375 Z" />
  </g>
</svg>
