<?xml version="1.0" encoding="UTF-8" standalone="no"?>
<!-- Created with Inkscape (http://www.inkscape.org/) -->

<svg
   xmlns:dc="http://purl.org/dc/elements/1.1/"
   xmlns:cc="http://creativecommons.org/ns#"
   xmlns:rdf="http://www.w3.org/1999/02/22-rdf-syntax-ns#"
   xmlns:svg="http://www.w3.org/2000/svg"
   xmlns="http://www.w3.org/2000/svg"
   xmlns:sodipodi="http://sodipodi.sourceforge.net/DTD/sodipodi-0.dtd"
   xmlns:inkscape="http://www.inkscape.org/namespaces/inkscape"
   width="800"
   height="700"
   id="svg2"
   version="1.1"
   inkscape:version="0.48.2 r9819"
   sodipodi:docname="f17.svg">
  <defs
     id="defs4" />
  <sodipodi:namedview
     id="base"
     pagecolor="#ffffff"
     bordercolor="#666666"
     borderopacity="1.0"
     inkscape:pageopacity="0.0"
     inkscape:pageshadow="2"
     inkscape:zoom="3.5355339"
     inkscape:cx="108.94915"
     inkscape:cy="121.18273"
     inkscape:document-units="px"
     inkscape:current-layer="layer1"
     showgrid="false"
     showguides="true"
     inkscape:guide-bbox="true"
     inkscape:window-width="1366"
     inkscape:window-height="746"
     inkscape:window-x="-8"
     inkscape:window-y="-8"
     inkscape:window-maximized="1"
     width="0px"
     height="0px"
     fit-margin-top="0"
     fit-margin-left="0"
     fit-margin-right="0"
     fit-margin-bottom="0">
    <sodipodi:guide
       orientation="1,0"
       position="400.22244,349.31075"
       id="guide3178" />
    <sodipodi:guide
       orientation="0,1"
       position="400.22244,349.31075"
       id="guide3180" />
  </sodipodi:namedview>
  <metadata
     id="metadata7">
    <rdf:RDF>
      <cc:Work
         rdf:about="">
        <dc:format>image/svg+xml</dc:format>
        <dc:type
           rdf:resource="http://purl.org/dc/dcmitype/StillImage" />
        <dc:title></dc:title>
      </cc:Work>
    </rdf:RDF>
  </metadata>
  <g
     inkscape:label="Layer 1"
     inkscape:groupmode="layer"
     id="layer1"
     transform="translate(0,-352.36218)">
    <path
       id="rect3210"
       transform="translate(0,352.36218)"
       style="fill:#ff0000"
       d="m 37.1875,523.125 c -0.95387,-0.006 -1.99608,0.0113 -3.15625,0.0312 -10.38863,0.17885 -12.07523,0.78276 -16.125,5.5625 -1.2408,1.46443 -2.87452,5.6712 -3.6875,9.5625 -0.29992,1.43557 -0.8694,3.38671 -1.28125,4.34375 -0.41184,0.95705 -0.86848,3.10433 -1,4.78125 -0.23531,2.99979 -0.19735,3.08191 1.40625,5.21875 3.32091,4.42496 5.97113,6.565 9.375,7.625 1.66301,0.5179 5.10347,0.48515 7.90625,-0.0937 1.92139,-0.3967 3.91978,-0.4278 8.375,-0.0625 6.02082,0.4941 8.57132,0.2702 10.4375,-1 0.47193,-0.3214 1.35275,-0.59375 1.96875,-0.59375 0.72251,0 1.69657,-0.60395 2.71875,-1.65625 1.28848,-1.32667 1.70024,-2.14371 2.125,-4.46875 0.68975,-3.77545 0.24746,-6.27014 -1.625,-9.375 -1.20961,-2.00577 -1.68703,-3.41449 -2.15625,-6.53125 -0.78282,-5.19944 -1.63027,-7.34864 -3.9375,-9.75 -2.6687,-2.7771 -4.66673,-3.55374 -11.34375,-3.59375 z m 1.3125,1.90625 c 8.2976,-0.21018 12.18956,3.352 12.9375,11.53125 0.27418,2.99857 0.6262,4.06155 2.1875,6.90625 1.74145,3.17307 1.80241,3.49433 1.59375,6.09375 -0.31676,3.94617 -1.20392,5.1867 -5.09375,7.09375 l -3.28125,1.625 -5.65625,-0.125 C 38.07703,558.08525 34.37309,558 32.9375,558 c -1.43559,-0.01 -4.17963,0.1127 -6.09375,0.25 -5.44341,0.3754 -8.79149,-1.42487 -12.03125,-6.4375 -2.07491,-3.21025 -2.28448,-5.89193 -0.65625,-8.96875 0.56878,-1.07481 1.43571,-3.59837 1.9375,-5.59375 1.16189,-4.61992 2.38532,-6.95456 4.625,-9.09375 2.32702,-2.22291 5.08841,-3.30374 7.53125,-2.9375 1.01821,0.15274 1.92636,0.42394 2.03125,0.59375 0.10489,0.16959 0.0075,1.94784 -0.21875,3.96875 -0.37087,3.3148 -0.34044,3.89795 0.5,5.96875 0.51234,1.26221 0.8263,2.57583 0.6875,2.9375 -0.32344,0.83785 -2.24446,0.84007 -4.625,0 -1.01724,-0.35892 -2.66287,-0.625 -3.65625,-0.625 -0.99338,0 -2.22294,-0.28706 -2.75,-0.65625 -0.94516,-0.66205 -0.97424,-0.6858 -0.90625,1.15625 0.0379,1.02706 -0.08384,2.37061 -0.28125,2.96875 -0.32522,0.98629 -0.26651,0.93837 0.8125,-0.34375 1.06951,-1.27034 1.43854,-1.375 3.53125,-1.375 1.28056,0 2.40065,0.16371 2.53125,0.375 0.1306,0.21124 1.3487,0.48888 2.6875,0.65625 2.17544,0.27182 2.52259,0.47357 3.3125,1.8125 1.04654,1.77459 2.53125,2.76051 2.53125,1.6875 0,-0.3774 -0.39645,-1.11143 -0.875,-1.625 -2.19248,-2.35339 -0.12596,-5.09199 3.78125,-5.0625 2.21096,0.0158 10.07268,1.00866 10.34375,1.3125 0.0866,0.0971 0.46802,0.82514 0.875,1.625 0.40697,0.79994 0.80315,1.3843 0.90625,1.28125 0.30577,-0.30586 -0.69809,-2.96875 -1.125,-2.96875 -0.21586,0 -0.40625,-0.79287 -0.40625,-1.75 0,-0.95706 -0.06396,-1.6875 -0.15625,-1.6875 -0.0923,0 -0.75217,0.26762 -1.4375,0.625 -1.57289,0.81997 -3.49109,0.8394 -7.34375,0.0312 -1.67478,-0.35077 -3.72506,-0.53663 -4.5625,-0.40625 -1.17705,0.18331 -1.7571,0.009 -2.53125,-0.71875 -0.92698,-0.87148 -0.95563,-1.17826 -0.6875,-4.0625 0.42407,-4.56187 0.81872,-5.2461 3.4375,-5.59375 1.36866,-0.18133 2.65838,-0.28247 3.84375,-0.3125 z" />
  </g>
</svg>
