<?xml version="1.0" encoding="UTF-8" standalone="no"?>
<!-- Created with Inkscape (http://www.inkscape.org/) -->

<svg
   xmlns:dc="http://purl.org/dc/elements/1.1/"
   xmlns:cc="http://creativecommons.org/ns#"
   xmlns:rdf="http://www.w3.org/1999/02/22-rdf-syntax-ns#"
   xmlns:svg="http://www.w3.org/2000/svg"
   xmlns="http://www.w3.org/2000/svg"
   xmlns:sodipodi="http://sodipodi.sourceforge.net/DTD/sodipodi-0.dtd"
   xmlns:inkscape="http://www.inkscape.org/namespaces/inkscape"
   width="900"
   height="800"
   id="svg2"
   version="1.1"
   inkscape:version="0.48+devel r11738"
   sodipodi:docname="m17.svg">
  <defs
     id="defs4" />
  <sodipodi:namedview
     id="base"
     pagecolor="#ffffff"
     bordercolor="#666666"
     borderopacity="1.0"
     inkscape:pageopacity="0.0"
     inkscape:pageshadow="2"
     inkscape:zoom="2"
     inkscape:cx="195.14482"
     inkscape:cy="257.73065"
     inkscape:document-units="px"
     inkscape:current-layer="layer1"
     showgrid="false"
     showguides="true"
     inkscape:guide-bbox="true"
     inkscape:window-width="1366"
     inkscape:window-height="705"
     inkscape:window-x="-4"
     inkscape:window-y="-4"
     inkscape:window-maximized="1"
     width="0px"
     height="0px"
     fit-margin-top="0"
     fit-margin-left="0"
     fit-margin-right="0"
     fit-margin-bottom="0">
    <sodipodi:guide
       orientation="1,0"
       position="450,784"
       id="guide3178" />
    <sodipodi:guide
       orientation="0,1"
       position="-61,400"
       id="guide3180" />
  </sodipodi:namedview>
  <metadata
     id="metadata7">
    <rdf:RDF>
      <cc:Work
         rdf:about="">
        <dc:format>image/svg+xml</dc:format>
        <dc:type
           rdf:resource="http://purl.org/dc/dcmitype/StillImage" />
        <dc:title />
      </cc:Work>
    </rdf:RDF>
  </metadata>
  <g
     inkscape:label="Layer 1"
     inkscape:groupmode="layer"
     id="layer1"
     transform="translate(0,-252.36218)">
    <path
       id="rect170"
       transform="translate(0,252.36218)"
       style="fill:#ff0000;fill-opacity:1;stroke:none"
       d="m 40.96875,591.40625 c -1.07829,-0.006 -2.282219,0.009 -3.59375,0.0312 -11.743849,0.20218 -13.640701,0.90923 -18.21875,6.3125 -1.402685,1.65547 -3.237222,6.38232 -4.15625,10.78125 -0.339054,1.62285 -1.003172,3.85562 -1.46875,4.9375 -0.465569,1.08191 -0.976317,3.47933 -1.125,5.375 -0.265994,3.39113 -0.219052,3.5219 1.59375,5.9375 3.75415,5.00225 6.745851,7.39549 10.59375,8.59375 1.87997,0.58553 5.769076,0.56099 8.9375,-0.0937 2.172039,-0.44846 4.432338,-0.50707 9.46875,-0.0937 6.80624,0.55862 9.702882,0.31096 11.8125,-1.125 0.533515,-0.36324 1.522398,-0.65625 2.21875,-0.65625 0.816763,0 1.90698,-0.68535 3.0625,-1.875 1.456551,-1.49969 1.926083,-2.43414 2.40625,-5.0625 0.779717,-4.26796 0.272979,-7.08385 -1.84375,-10.59375 -1.367407,-2.26742 -1.907063,-3.85165 -2.4375,-7.375 -0.884942,-5.87773 -1.829289,-8.31663 -4.4375,-11.03125 C 50.764415,592.32935 48.516807,591.45148 40.96875,591.40625 z m 1.46875,2.15625 c 9.380045,-0.23762 13.810721,3.78499 14.65625,13.03125 0.309956,3.38975 0.67253,4.59669 2.4375,7.8125 1.968631,3.587 2.048374,3.93648 1.8125,6.875 -0.358078,4.46095 -1.383982,5.87538 -5.78125,8.03125 L 51.875,631.15625 45.46875,631 c -3.516222,-0.0804 -7.689632,-0.15625 -9.3125,-0.15625 -1.622878,-0.006 -4.742423,0.12606 -6.90625,0.28125 -6.153506,0.42436 -9.931337,-1.61468 -13.59375,-7.28125 -2.34557,-3.62904 -2.559375,-6.64681 -0.71875,-10.125 0.643003,-1.21503 1.620257,-4.05681 2.1875,-6.3125 1.31345,-5.22259 2.686909,-7.89425 5.21875,-10.3125 2.630611,-2.5129 5.738487,-3.72652 8.5,-3.3125 1.151039,0.17266 2.162675,0.46429 2.28125,0.65625 0.118573,0.19172 0.0054,2.18421 -0.25,4.46875 -0.41925,3.74724 -0.356328,4.40908 0.59375,6.75 0.579167,1.42688 0.938147,2.93491 0.78125,3.34375 -0.365625,0.94715 -2.558896,0.94967 -5.25,0 -1.149938,-0.40575 -3.002036,-0.71875 -4.125,-0.71875 -1.122964,0 -2.529199,-0.33265 -3.125,-0.75 -1.068467,-0.74841 -1.076852,-0.7386 -1,1.34375 0.04281,1.16104 -0.0895,2.63633 -0.3125,3.3125 -0.367648,1.11497 -0.282258,1.10562 0.9375,-0.34375 1.209029,-1.43606 1.60303,-1.59375 3.96875,-1.59375 1.447624,0 2.727363,0.19866 2.875,0.4375 0.147626,0.23882 1.486551,0.5608 3,0.75 2.459227,0.3073 2.888278,0.5489 3.78125,2.0625 1.183067,2.00608 2.84375,3.11923 2.84375,1.90625 0,-0.42664 -0.42779,-1.26318 -0.96875,-1.84375 -2.478505,-2.6604 -0.166923,-5.78332 4.25,-5.75 2.499366,0.018 11.381069,1.18777 11.6875,1.53125 0.09785,0.10972 0.539935,0.9083 1,1.8125 0.460064,0.9043 0.914722,1.55398 1.03125,1.4375 0.345673,-0.34578 -0.798636,-3.34375 -1.28125,-3.34375 -0.244019,0 -0.46875,-0.88675 -0.46875,-1.96875 0,-1.08191 -0.0832,-1.9375 -0.1875,-1.9375 -0.104319,0 -0.819018,0.31474 -1.59375,0.71875 -1.778098,0.92695 -3.957252,0.94485 -8.3125,0.0312 -1.89325,-0.39653 -4.209573,-0.61613 -5.15625,-0.46875 -1.330601,0.20724 -1.968619,0.0417 -2.84375,-0.78125 -1.047928,-0.98516 -1.08437,-1.33326 -0.78125,-4.59375 0.479388,-5.15699 0.914604,-5.9195 3.875,-6.3125 C 39.640949,593.73251 41.097489,593.59646 42.4375,593.5625 Z" />
  </g>
</svg>
