<?xml version="1.0" encoding="UTF-8" standalone="no"?>
<!-- Created with Inkscape (http://www.inkscape.org/) -->

<svg
   xmlns:dc="http://purl.org/dc/elements/1.1/"
   xmlns:cc="http://creativecommons.org/ns#"
   xmlns:rdf="http://www.w3.org/1999/02/22-rdf-syntax-ns#"
   xmlns:svg="http://www.w3.org/2000/svg"
   xmlns="http://www.w3.org/2000/svg"
   xmlns:sodipodi="http://sodipodi.sourceforge.net/DTD/sodipodi-0.dtd"
   xmlns:inkscape="http://www.inkscape.org/namespaces/inkscape"
   width="800"
   height="700"
   id="svg2"
   version="1.1"
   inkscape:version="0.48.2 r9819"
   sodipodi:docname="m18-fill.svg">
  <defs
     id="defs4" />
  <sodipodi:namedview
     id="base"
     pagecolor="#ffffff"
     bordercolor="#666666"
     borderopacity="1.0"
     inkscape:pageopacity="0.0"
     inkscape:pageshadow="2"
     inkscape:zoom="5.0000001"
     inkscape:cx="88.087651"
     inkscape:cy="161.35686"
     inkscape:document-units="px"
     inkscape:current-layer="layer1"
     showgrid="false"
     showguides="true"
     inkscape:guide-bbox="true"
     inkscape:window-width="1024"
     inkscape:window-height="538"
     inkscape:window-x="-8"
     inkscape:window-y="-8"
     inkscape:window-maximized="1"
     width="0px"
     height="0px"
     fit-margin-top="0"
     fit-margin-left="0"
     fit-margin-right="0"
     fit-margin-bottom="0">
    <sodipodi:guide
       orientation="1,0"
       position="400.22244,349.31075"
       id="guide3178" />
    <sodipodi:guide
       orientation="0,1"
       position="400.22244,349.31075"
       id="guide3180" />
  </sodipodi:namedview>
  <metadata
     id="metadata7">
    <rdf:RDF>
      <cc:Work
         rdf:about="">
        <dc:format>image/svg+xml</dc:format>
        <dc:type
           rdf:resource="http://purl.org/dc/dcmitype/StillImage" />
        <dc:title />
      </cc:Work>
    </rdf:RDF>
  </metadata>
  <g
     inkscape:label="Layer 1"
     inkscape:groupmode="layer"
     id="layer1"
     transform="translate(0,-352.36218)">
    <path
       id="rect4055"
       transform="translate(0,352.36218)"
       style="fill:#00ff00"
       d="m 86.4375,519.21875 c -2.9149,0.11585 -4.79579,0.85975 -7.65625,2.8125 -1.03645,0.70758 -3.01588,1.34496 -5.875,1.875 -4.39782,0.8154 -7.77635,1.78915 -8.8125,2.59375 -1.72868,1.34269 -3.5847,3.49862 -3.8125,4.40625 -0.66344,2.64332 0.82305,14.86124 2.28125,18.75 0.37208,0.9925 1.27677,2.37447 2.03125,3.09375 1.40667,1.34094 8.07113,4.3985 9.6875,4.4375 0.49617,0.0121 2.5464,-0.5124 4.5625,-1.125 3.35083,-1.01797 4.11433,-1.06339 8.6875,-0.8125 5.51562,0.30232 8.50496,-0.20962 10.5,-1.78125 1.55411,-1.22452 3.23469,-6.3467 3.625,-11.09375 0.29292,-3.56307 0.22507,-3.87877 -1.0625,-6.8125 -1.048809,-2.38947 -1.3125,-3.71794 -1.3125,-5.875 0,-2.3666 -0.21296,-3.10499 -1.375,-4.9375 -2.69173,-4.24502 -4.95606,-5.46055 -10.15625,-5.53125 -0.46428,-0.006 -0.89608,-0.0166 -1.3125,0 z m -8.28125,6.4375 0.78125,2.40625 c 0.43758,1.31606 1.08734,2.79845 1.4375,3.34375 0.57128,0.88978 0.71552,0.97201 1.3125,0.375 1.09054,-1.09038 1.5,-0.80992 1.5,1.1875 0,3.20891 1.36195,3.89381 6.28125,3.03125 2.99614,-0.52516 3.95521,-1.1507 5.09375,-3.28125 l 1,-1.84375 0.15625,1.6875 c 0.07611,0.9288 -0.08811,1.90089 -0.34375,2.15625 -0.72216,0.7223 -0.56776,1.01247 1,1.9375 0.80193,0.47304 1.55476,1.27366 1.6875,1.78125 0.27438,1.04921 -0.16861,1.20158 -0.90625,0.3125 -0.90165,-1.08608 -4.19407,-1.72157 -6.25,-1.21875 -1.02194,0.24998 -3.37716,0.58458 -5.21875,0.75 -4.52865,0.4072 -4.89359,0.87515 -4.5,5.21875 0.16305,1.79864 0.17316,3.25 0.03125,3.25 -0.14182,0 -0.55958,-0.6703 -0.90625,-1.5 -0.34669,-0.82982 -0.621,-2.35038 -0.625,-3.375 -0.01015,-2.79543 -0.35153,-3.07225 -2.59375,-2.28125 -1.03436,0.36501 -3.25072,0.7524 -4.90625,0.90625 -2.75871,0.25637 -3.07486,0.4142 -4.09375,1.75 -1.58438,2.07729 -2.5142,1.95732 -2.15625,-0.28125 0.27291,-1.7067 0.2537,-1.75 -1.03125,-1.75 -1.75429,0 -1.68966,-0.67625 0.15625,-1.34375 1.36512,-0.49358 1.49127,-0.65609 1.25,-1.875 -0.25055,-1.26578 -0.22828,-1.30494 0.5625,-0.6875 0.45907,0.35849 1.14108,0.96206 1.5,1.34375 1.00061,1.06393 2.43417,1.71875 3.8125,1.71875 1.82173,0 6.49038,-1.71078 6.78125,-2.46875 0.1372,-0.3575 -0.11745,-1.41005 -0.59375,-2.34375 -1.03835,-2.03541 -1.05656,-2.15625 -0.21875,-2.15625 0.76762,0 0.90844,-2.2166 0.1875,-2.9375 -0.25554,-0.25567 -0.3887,-1.19621 -0.3125,-2.125 l 0.125,-1.6875 z" />
  </g>
</svg>
