<?xml version="1.0" encoding="UTF-8" standalone="no"?>
<!-- Created with Inkscape (http://www.inkscape.org/) -->

<svg
   xmlns:dc="http://purl.org/dc/elements/1.1/"
   xmlns:cc="http://creativecommons.org/ns#"
   xmlns:rdf="http://www.w3.org/1999/02/22-rdf-syntax-ns#"
   xmlns:svg="http://www.w3.org/2000/svg"
   xmlns="http://www.w3.org/2000/svg"
   xmlns:sodipodi="http://sodipodi.sourceforge.net/DTD/sodipodi-0.dtd"
   xmlns:inkscape="http://www.inkscape.org/namespaces/inkscape"
   width="800"
   height="400"
   id="svg2"
   version="1.1"
   inkscape:version="0.48.2 r9819"
   sodipodi:docname="f10.svg">
  <defs
     id="defs4" />
  <sodipodi:namedview
     id="base"
     pagecolor="#ffffff"
     bordercolor="#666666"
     borderopacity="1.0"
     inkscape:pageopacity="0.0"
     inkscape:pageshadow="2"
     inkscape:zoom="4"
     inkscape:cx="529.06561"
     inkscape:cy="317.72019"
     inkscape:document-units="px"
     inkscape:current-layer="layer1"
     showgrid="false"
     showguides="true"
     inkscape:guide-bbox="true"
     inkscape:window-width="1366"
     inkscape:window-height="746"
     inkscape:window-x="-8"
     inkscape:window-y="-8"
     inkscape:window-maximized="1"
     width="0px"
     height="0px"
     fit-margin-top="0"
     fit-margin-left="0"
     fit-margin-right="0"
     fit-margin-bottom="0">
    <sodipodi:guide
       orientation="1,0"
       position="400.22244,349.31075"
       id="guide3178" />
    <sodipodi:guide
       orientation="0,1"
       position="-117.37973,199.40411"
       id="guide3180" />
  </sodipodi:namedview>
  <metadata
     id="metadata7">
    <rdf:RDF>
      <cc:Work
         rdf:about="">
        <dc:format>image/svg+xml</dc:format>
        <dc:type
           rdf:resource="http://purl.org/dc/dcmitype/StillImage" />
        <dc:title></dc:title>
      </cc:Work>
    </rdf:RDF>
  </metadata>
  <g
     inkscape:label="Layer 1"
     inkscape:groupmode="layer"
     id="layer1"
     transform="translate(0,-652.36218)">
    <path
       id="rect3279"
       transform="translate(0,652.36218)"
       style="fill:#ff0000"
       d="m 485.78125,20.4375 c -4.7285,0 -8.48685,4.11315 -11.28125,12.34375 -1.2007,3.53664 -2.84375,10.94663 -2.84375,12.75 0,0.9398 -0.31465,2.69505 -0.65625,3.875 -0.3416,1.17993 -0.725,3.51265 -0.875,5.1875 -0.2651,2.96139 -1.15765,10.14177 -1.96875,15.875 -0.2201,1.55521 -0.51125,4.6645 -0.65625,6.9375 -0.2376,3.72472 -1.23485,9.43806 -3.03125,17.40625 -2.4601,10.91183 -2.87365,13.80466 -2.90625,19.59375 -0.028,4.97138 0.0858,6.20433 0.8125,7.84375 1.1047,2.49211 1.65125,2.93444 4.46875,3.46875 1.2739,0.24162 2.4447,0.53844 2.5625,0.65625 0.4111,0.41109 6.95195,0.21299 7.21875,-0.21875 0.1478,-0.23925 1.43645,-0.4375 2.84375,-0.4375 1.4074,0 2.6647,0.19825 2.8125,0.4375 0.4885,0.79031 4.2764,0.44721 6.25,-0.5625 2.2863,-1.16969 3.1159,-3.0666 3.125,-7.25 0.01,-3.06417 0.0562,-2.88323 -2.78125,-11.3125 -3.4594,-10.27748 -3.6455,-12.331 -3.8125,-45.03125 -0.1559,-30.52285 -0.2234,-29.75268 2.125,-34.4375 1.3109,-2.6149 1.48775,-3.90296 0.78125,-5.59375 -0.5611,-1.34246 -0.8165,-1.53125 -2.1875,-1.53125 z m -1.625,1.96875 c 0.902,-0.0691 1.68,0.43492 2.25,1.5 0.4966,0.9279 0.1093,2.2113 -1.5625,4.8125 -2.4381,3.79304 -2.77915,11.81758 -1.65625,41.6875 0.3721,9.8977 0.5693,18.0859 0.4375,18.21875 -0.1328,0.13281 -0.21865,-0.0047 -0.21875,-0.34375 -3e-4,-0.89174 -4.13585,-4.30937 -5.78125,-4.78125 -2.3355,-0.66985 -4.3533,-0.45533 -6.5,0.6875 -1.1237,0.59814 -2.18355,1.0625 -2.34375,1.0625 -0.1613,0 -0.1659,-1.12424 0,-2.5 0.1658,-1.37582 0.46475,-4.05463 0.65625,-5.96875 0.1915,-1.91414 0.64975,-6.60927 1.03125,-10.4375 1.5621,-15.67407 2.22315,-19.51777 4.96875,-30 1.2105,-4.62143 1.8736,-6.37206 3.5625,-9.15625 1.8177,-2.99687 3.65295,-4.66631 5.15625,-4.78125 z m -9.53125,63.3125 c 1.2956,-0.0789 2.6508,0.18734 3.9375,0.84375 3.2513,1.65867 4.61625,4.67791 6.59375,14.71875 0.4838,2.45641 1.64605,7.1218 2.59375,10.40625 0.9477,3.28448 1.71875,6.5356 1.71875,7.21875 0,2.26836 -1.2111,4.10702 -3.1875,4.8125 -1.2447,0.44435 -4.514,0.72182 -10.5,0.90625 l -8.71875,0.28125 -1.78125,-1.34375 c -1.7262,-1.27525 -1.86365,-1.4869 -2.15625,-4.21875 -0.4933,-4.60728 0.0104,-8.51504 2.65625,-20.40625 1.5449,-6.95696 1.8264,-7.74565 3.375,-10.03125 1.3284,-1.9609 3.30925,-3.0558 5.46875,-3.1875 z" />
  </g>
</svg>
