<?xml version="1.0" encoding="UTF-8" standalone="no"?>
<!-- Created with Inkscape (http://www.inkscape.org/) -->

<svg
   xmlns:dc="http://purl.org/dc/elements/1.1/"
   xmlns:cc="http://creativecommons.org/ns#"
   xmlns:rdf="http://www.w3.org/1999/02/22-rdf-syntax-ns#"
   xmlns:svg="http://www.w3.org/2000/svg"
   xmlns="http://www.w3.org/2000/svg"
   xmlns:sodipodi="http://sodipodi.sourceforge.net/DTD/sodipodi-0.dtd"
   xmlns:inkscape="http://www.inkscape.org/namespaces/inkscape"
   width="800"
   height="700"
   id="svg2"
   version="1.1"
   inkscape:version="0.48.2 r9819"
   sodipodi:docname="l11.svg">
  <defs
     id="defs4" />
  <sodipodi:namedview
     id="base"
     pagecolor="#ffffff"
     bordercolor="#666666"
     borderopacity="1.0"
     inkscape:pageopacity="0.0"
     inkscape:pageshadow="2"
     inkscape:zoom="2.8284271"
     inkscape:cx="507.11797"
     inkscape:cy="622.26633"
     inkscape:document-units="px"
     inkscape:current-layer="layer1"
     showgrid="false"
     showguides="true"
     inkscape:guide-bbox="true"
     inkscape:window-width="1366"
     inkscape:window-height="746"
     inkscape:window-x="-8"
     inkscape:window-y="-8"
     inkscape:window-maximized="1"
     width="0px"
     height="0px"
     fit-margin-top="0"
     fit-margin-left="0"
     fit-margin-right="0"
     fit-margin-bottom="0">
    <sodipodi:guide
       orientation="1,0"
       position="400.22244,349.31075"
       id="guide3178" />
    <sodipodi:guide
       orientation="0,1"
       position="400.22244,349.31075"
       id="guide3180" />
  </sodipodi:namedview>
  <metadata
     id="metadata7">
    <rdf:RDF>
      <cc:Work
         rdf:about="">
        <dc:format>image/svg+xml</dc:format>
        <dc:type
           rdf:resource="http://purl.org/dc/dcmitype/StillImage" />
        <dc:title></dc:title>
      </cc:Work>
    </rdf:RDF>
  </metadata>
  <g
     inkscape:label="Layer 1"
     inkscape:groupmode="layer"
     id="layer1"
     transform="translate(0,-352.36218)">
    <path
       id="rect3107"
       transform="translate(0,352.36218)"
       style="fill:#ff0000"
       d="m 484.21875,28.71875 c -4.72844,0 -8.45567,4.0819 -11.25,12.3125 -1.20075,3.53664 -2.875,10.97788 -2.875,12.78125 0,0.9398 -0.28337,2.69505 -0.625,3.875 -0.3416,1.17993 -0.75628,3.51265 -0.90625,5.1875 -0.26515,2.96139 -1.15759,10.14177 -1.96875,15.875 -0.22004,1.55521 -0.51125,4.6645 -0.65625,6.9375 -0.23761,3.72472 -1.23486,9.43806 -3.03125,17.40625 -2.46006,10.91183 -2.87364,13.80466 -2.90625,19.59375 -0.028,4.97138 0.0858,6.20433 0.8125,7.84375 1.10476,2.49211 1.68254,2.93444 4.5,3.46875 1.27398,0.24162 2.41344,0.53844 2.53125,0.65625 0.4111,0.41109 6.9832,0.21299 7.25,-0.21875 0.14787,-0.23925 1.40517,-0.4375 2.8125,-0.4375 1.40735,0 2.69589,0.19825 2.84375,0.4375 0.48846,0.79031 4.27634,0.44721 6.25,-0.5625 2.28629,-1.16969 3.0846,-3.0666 3.09375,-7.25 0.007,-3.06417 0.0562,-2.91448 -2.78125,-11.34375 -3.45943,-10.27748 -3.64551,-12.331 -3.8125,-45.03125 -0.1559,-30.52285 -0.22344,-29.72143 2.125,-34.40625 1.31083,-2.6149 1.48768,-3.90296 0.78125,-5.59375 -0.56094,-1.34246 -0.81651,-1.53125 -2.1875,-1.53125 z m -1.625,1.96875 c 0.90199,-0.0691 1.71124,0.43492 2.28125,1.5 0.49658,0.9279 0.0781,2.18005 -1.59375,4.78125 -2.43807,3.79304 -2.77916,11.84883 -1.65625,41.71875 0.3721,9.8977 0.56928,18.0859 0.4375,18.21875 -0.13275,0.13281 -0.21861,-0.0047 -0.21875,-0.34375 -3e-4,-0.89174 -4.13584,-4.34062 -5.78125,-4.8125 -2.33556,-0.66985 -4.35324,-0.42408 -6.5,0.71875 -1.12365,0.59814 -2.15229,1.0625 -2.3125,1.0625 -0.16132,0 -0.16586,-1.12424 0,-2.5 0.16583,-1.37582 0.43347,-4.05463 0.625,-5.96875 0.19156,-1.91414 0.68098,-6.60927 1.0625,-10.4375 1.5621,-15.67407 2.19194,-19.54902 4.9375,-30.03125 1.21052,-4.62143 1.87356,-6.34081 3.5625,-9.125 1.81793,-2.99687 3.65297,-4.66631 5.15625,-4.78125 z m -9.5,63.28125 c 1.29569,-0.0789 2.65086,0.21859 3.9375,0.875 3.25134,1.65867 4.58507,4.64666 6.5625,14.6875 0.48379,2.45641 1.64602,7.15305 2.59375,10.4375 0.94767,3.28448 1.71875,6.50435 1.71875,7.1875 0,2.26836 -1.17982,4.13827 -3.15625,4.84375 -1.2447,0.44435 -4.54526,0.69057 -10.53125,0.875 l -8.6875,0.28125 -1.8125,-1.3125 c -1.72621,-1.27525 -1.83244,-1.4869 -2.125,-4.21875 -0.49334,-4.60728 -0.0157,-8.51504 2.625,-20.40625 1.54499,-6.95696 1.82642,-7.74565 3.375,-10.03125 1.32857,-1.9609 3.34052,-3.08705 5.5,-3.21875 z" />
  </g>
</svg>
