<?xml version="1.0" encoding="UTF-8" standalone="no"?>
<!-- Created with Inkscape (http://www.inkscape.org/) -->

<svg
   xmlns:dc="http://purl.org/dc/elements/1.1/"
   xmlns:cc="http://creativecommons.org/ns#"
   xmlns:rdf="http://www.w3.org/1999/02/22-rdf-syntax-ns#"
   xmlns:svg="http://www.w3.org/2000/svg"
   xmlns="http://www.w3.org/2000/svg"
   xmlns:sodipodi="http://sodipodi.sourceforge.net/DTD/sodipodi-0.dtd"
   xmlns:inkscape="http://www.inkscape.org/namespaces/inkscape"
   width="900"
   height="800"
   id="svg2"
   version="1.1"
   inkscape:version="0.48.2 r9819"
   sodipodi:docname="l11.svg">
  <defs
     id="defs4" />
  <sodipodi:namedview
     id="base"
     pagecolor="#ffffff"
     bordercolor="#666666"
     borderopacity="1.0"
     inkscape:pageopacity="0.0"
     inkscape:pageshadow="2"
     inkscape:zoom="1.4142136"
     inkscape:cx="565.81255"
     inkscape:cy="660.05619"
     inkscape:document-units="px"
     inkscape:current-layer="layer1"
     showgrid="false"
     showguides="true"
     inkscape:guide-bbox="true"
     inkscape:window-width="1366"
     inkscape:window-height="746"
     inkscape:window-x="-8"
     inkscape:window-y="-8"
     inkscape:window-maximized="1"
     width="0px"
     height="0px"
     fit-margin-top="0"
     fit-margin-left="0"
     fit-margin-right="0"
     fit-margin-bottom="0">
    <sodipodi:guide
       orientation="1,0"
       position="450,784"
       id="guide3178" />
    <sodipodi:guide
       orientation="0,1"
       position="-61,400"
       id="guide3180" />
  </sodipodi:namedview>
  <metadata
     id="metadata7">
    <rdf:RDF>
      <cc:Work
         rdf:about="">
        <dc:format>image/svg+xml</dc:format>
        <dc:type
           rdf:resource="http://purl.org/dc/dcmitype/StillImage" />
        <dc:title></dc:title>
      </cc:Work>
    </rdf:RDF>
  </metadata>
  <g
     inkscape:label="Layer 1"
     inkscape:groupmode="layer"
     id="layer1"
     transform="translate(0,-252.36218)">
    <path
       id="rect3027"
       transform="translate(0,252.36218)"
       style="fill:#ff0000"
       d="m 546.3125,32.5 c -5.34527,0 -9.59113,4.63318 -12.75,13.9375 -1.35739,3.998 -3.21875,12.39888 -3.21875,14.4375 0,1.06239 -0.33255,3.04113 -0.71875,4.375 -0.38615,1.33386 -0.83046,3.9504 -1,5.84375 -0.29973,3.34771 -1.333,11.48761 -2.25,17.96875 -0.24873,1.7581 -0.58609,5.27423 -0.75,7.84375 -0.26862,4.21063 -1.37551,10.67985 -3.40625,19.6875 -2.78096,12.33532 -3.24437,15.61194 -3.28125,22.15625 -0.0317,5.61991 0.0847,6.99048 0.90625,8.84375 1.24887,2.81722 1.87748,3.30223 5.0625,3.90625 1.44017,0.27314 2.74183,0.64807 2.875,0.78125 0.46474,0.46472 7.88591,0.23804 8.1875,-0.25 0.16716,-0.27048 1.59656,-0.53125 3.1875,-0.53125 1.59094,0 3.05158,0.26077 3.21875,0.53125 0.55217,0.8934 4.83138,0.48518 7.0625,-0.65625 2.58454,-1.32229 3.5209,-3.45836 3.53125,-8.1875 0.007,-3.46389 0.0201,-3.28361 -3.1875,-12.8125 -3.91073,-11.61821 -4.09246,-13.94016 -4.28125,-50.90625 -0.17621,-34.50466 -0.24854,-33.61029 2.40625,-38.90625 1.48184,-2.95603 1.6736,-4.40115 0.875,-6.3125 -0.63411,-1.51758 -0.9189,-1.75 -2.46875,-1.75 z m -1.84375,2.25 c 1.01965,-0.078 1.91814,0.48349 2.5625,1.6875 0.56137,1.04895 0.10876,2.46572 -1.78125,5.40625 -2.75611,4.28785 -3.14439,13.35845 -1.875,47.125 0.42065,11.1889 0.64897,20.47483 0.5,20.625 -0.15005,0.15015 -0.24986,-0.0231 -0.25,-0.40625 -3.4e-4,-1.00807 -4.67119,-4.87279 -6.53125,-5.40625 -2.64023,-0.75721 -4.94816,-0.51066 -7.375,0.78125 -1.27021,0.67619 -2.44388,1.21875 -2.625,1.21875 -0.18236,0 -0.1875,-1.28851 0,-2.84375 0.18746,-1.55528 0.50223,-4.58618 0.71875,-6.75 0.21654,-2.16385 0.7562,-7.48485 1.1875,-11.8125 1.76588,-17.7188 2.52128,-22.05658 5.625,-33.90625 1.36844,-5.22432 2.09072,-7.19635 4,-10.34375 2.05509,-3.38783 4.14435,-5.24507 5.84375,-5.375 z m -10.75,71.53125 c 1.46473,-0.0892 2.98301,0.22671 4.4375,0.96875 3.67548,1.87505 5.20212,5.27429 7.4375,16.625 0.5469,2.77685 1.86613,8.06832 2.9375,11.78125 1.07129,3.71294 1.9375,7.35272 1.9375,8.125 0,2.56427 -1.35948,4.67124 -3.59375,5.46875 -1.40707,0.50231 -5.10813,0.7915 -11.875,1 l -9.84375,0.34375 -2.03125,-1.53125 c -1.95139,-1.44161 -2.07554,-1.66176 -2.40625,-4.75 -0.55771,-5.20831 -0.0158,-9.62005 2.96875,-23.0625 1.74655,-7.86453 2.0619,-8.75999 3.8125,-11.34375 1.50189,-2.21672 3.77756,-3.47612 6.21875,-3.625 z" />
  </g>
</svg>
