<?xml version="1.0" encoding="UTF-8" standalone="no"?>
<!-- Created with Inkscape (http://www.inkscape.org/) -->

<svg
   xmlns:dc="http://purl.org/dc/elements/1.1/"
   xmlns:cc="http://creativecommons.org/ns#"
   xmlns:rdf="http://www.w3.org/1999/02/22-rdf-syntax-ns#"
   xmlns:svg="http://www.w3.org/2000/svg"
   xmlns="http://www.w3.org/2000/svg"
   xmlns:sodipodi="http://sodipodi.sourceforge.net/DTD/sodipodi-0.dtd"
   xmlns:inkscape="http://www.inkscape.org/namespaces/inkscape"
   width="800"
   height="700"
   id="svg2"
   version="1.1"
   inkscape:version="0.48.2 r9819"
   sodipodi:docname="m10.svg">
  <defs
     id="defs4" />
  <sodipodi:namedview
     id="base"
     pagecolor="#ffffff"
     bordercolor="#666666"
     borderopacity="1.0"
     inkscape:pageopacity="0.0"
     inkscape:pageshadow="2"
     inkscape:zoom="2.8284271"
     inkscape:cx="507.11797"
     inkscape:cy="452.5607"
     inkscape:document-units="px"
     inkscape:current-layer="layer1"
     showgrid="false"
     showguides="true"
     inkscape:guide-bbox="true"
     inkscape:window-width="1366"
     inkscape:window-height="746"
     inkscape:window-x="-8"
     inkscape:window-y="-8"
     inkscape:window-maximized="1"
     width="0px"
     height="0px"
     fit-margin-top="0"
     fit-margin-left="0"
     fit-margin-right="0"
     fit-margin-bottom="0">
    <sodipodi:guide
       orientation="1,0"
       position="400.22244,349.31075"
       id="guide3178" />
    <sodipodi:guide
       orientation="0,1"
       position="400.22244,349.31075"
       id="guide3180" />
  </sodipodi:namedview>
  <metadata
     id="metadata7">
    <rdf:RDF>
      <cc:Work
         rdf:about="">
        <dc:format>image/svg+xml</dc:format>
        <dc:type
           rdf:resource="http://purl.org/dc/dcmitype/StillImage" />
        <dc:title></dc:title>
      </cc:Work>
    </rdf:RDF>
  </metadata>
  <g
     inkscape:label="Layer 1"
     inkscape:groupmode="layer"
     id="layer1"
     transform="translate(0,-352.36218)">
    <path
       id="rect3115"
       transform="translate(0,352.36218)"
       style="fill:#ff0000"
       d="m 474.9375,206.375 c -5.66676,-0.0557 -9.72182,1.3251 -11.375,4 -1.19467,1.93305 -1.10539,3.67566 0.78125,11.5 2.56969,10.65743 3.55092,15.63836 4.21875,21.59375 0.37239,3.32028 1.06691,8.08146 1.53125,10.59375 0.46431,2.51228 1.16112,8.86115 1.53125,14.125 0.76379,10.86358 1.4311,15.6071 3.28125,23.0625 2.55176,10.2823 5.43905,15.98642 9.03125,17.71875 2.82695,1.36327 6.625,0.23471 6.625,-1.96875 0,-0.47693 -0.70825,-2.86423 -1.53125,-5.28125 -2.93095,-8.60808 -3.30872,-11.60861 -3.09375,-24.59375 0.10497,-6.34053 0.42648,-13.11713 0.6875,-15.03125 0.26099,-1.91413 0.62166,-6.21279 0.84375,-9.5625 0.92624,-13.9701 1.80765,-20.13902 4.03125,-28.21875 1.67557,-6.08817 1.78208,-6.6363 1.3125,-8.875 -1.10037,-5.24598 -2.97869,-6.8608 -9.25,-8.09375 -3.17511,-0.62427 -6.0492,-0.94337 -8.625,-0.96875 z m 1.90625,1.65625 c 2.36033,-0.0347 3.7264,0.1789 6.84375,0.90625 2.58267,0.60258 5.01281,1.35564 5.375,1.65625 2.09957,1.74251 2.40642,6.21424 0.84375,11.71875 -0.98641,3.47468 -1.70117,7.57782 -2.875,16.09375 -0.61278,4.44538 -1.48353,6.64126 -3.53125,8.8125 -2.09042,2.21652 -3.70638,2.21769 -6,0 -2.76473,-2.67311 -5.46275,-8.4069 -9.6875,-20.5625 -2.5049,-7.20733 -3.375,-10.58204 -3.375,-13 0,-1.8922 0.1497,-2.23531 1.40625,-3.1875 2.42189,-1.83523 3.08552,-2.01975 8.1875,-2.3125 1.09839,-0.0631 2.0257,-0.11341 2.8125,-0.125 z m -7.375,3.375 c -1.15617,0 -1.66486,1.76772 -1.4375,5 0.27615,3.9263 1.75947,7.29568 6.4375,14.4375 3.21487,4.90804 5.625,10.28311 5.625,12.59375 0,0.34979 0.28477,0.625 0.625,0.625 0.69987,0 1.30711,-1.6746 1.96875,-5.40625 0.63109,-3.55942 2.92493,-10.74079 4.65625,-14.5625 2.2888,-5.05244 1.97342,-9.05976 -0.90625,-11.75 -0.92577,-0.86489 -1.125,-0.94109 -1.125,-0.34375 0,0.4006 0.21604,0.71875 0.46875,0.71875 0.25273,0 0.8326,0.85813 1.28125,1.875 0.76575,1.73563 0.76699,2.05597 0.15625,5.28125 -0.41196,2.17579 -1.34123,4.78638 -2.53125,7.15625 -1.03355,2.05821 -2.29602,5.17158 -2.8125,6.90625 -0.51645,1.73467 -1.02275,3.15625 -1.125,3.15625 -0.10221,0 -0.87767,-1.42158 -1.71875,-3.15625 -0.84109,-1.73467 -2.38723,-4.21528 -3.4375,-5.53125 -2.79004,-3.49592 -5.83152,-9.28462 -6.4375,-12.21875 -0.46714,-2.26158 -0.46334,-2.65582 0.1875,-3.375 0.90389,-0.99866 0.95824,-1.40625 0.125,-1.40625 z m 0.0937,26.5625 c 0.24544,0 1.0899,1.81805 1.875,4.03125 1.46587,4.13224 2.35563,5.28573 5.8125,7.78125 2.28442,1.64909 3.8787,1.89884 5.59375,0.90625 0.77384,-0.44786 1.57634,-1.25222 1.8125,-1.78125 1.25029,-2.80056 1.39941,0.37666 0.46875,9.875 -0.34206,3.49091 -0.76005,11.82133 -0.90625,18.46875 -0.26004,11.82333 -0.22761,12.21288 0.875,17.625 0.6478,3.17947 1.66878,6.67194 2.40625,8.21875 1.57415,3.30189 1.61899,4.16026 0.1875,4.8125 -1.30486,0.59455 -1.07353,0.61 -2.125,0 -2.10616,-1.22172 -5.60474,-6.8763 -7.28125,-11.8125 -1.77886,-5.23757 -4.48879,-20.58185 -4.9375,-27.90625 -0.16127,-2.63192 -0.59118,-6.73234 -0.9375,-9.125 -0.34629,-2.39266 -0.88591,-6.39394 -1.25,-8.90625 -0.36401,-2.51228 -0.86174,-5.75191 -1.0625,-7.1875 -0.20072,-1.4356 -0.48545,-3.15453 -0.65625,-3.8125 -0.18931,-0.72959 -0.14716,-1.1875 0.125,-1.1875 z" />
  </g>
</svg>
