<?xml version="1.0" encoding="UTF-8" standalone="no"?>
<!-- Created with Inkscape (http://www.inkscape.org/) -->

<svg
   xmlns:dc="http://purl.org/dc/elements/1.1/"
   xmlns:cc="http://creativecommons.org/ns#"
   xmlns:rdf="http://www.w3.org/1999/02/22-rdf-syntax-ns#"
   xmlns:svg="http://www.w3.org/2000/svg"
   xmlns="http://www.w3.org/2000/svg"
   xmlns:sodipodi="http://sodipodi.sourceforge.net/DTD/sodipodi-0.dtd"
   xmlns:inkscape="http://www.inkscape.org/namespaces/inkscape"
   width="900"
   height="800"
   id="svg2"
   version="1.1"
   inkscape:version="0.48.2 r9819"
   sodipodi:docname="m10.svg">
  <defs
     id="defs4" />
  <sodipodi:namedview
     id="base"
     pagecolor="#ffffff"
     bordercolor="#666666"
     borderopacity="1.0"
     inkscape:pageopacity="0.0"
     inkscape:pageshadow="2"
     inkscape:zoom="2"
     inkscape:cx="555.30419"
     inkscape:cy="518.51706"
     inkscape:document-units="px"
     inkscape:current-layer="layer1"
     showgrid="false"
     showguides="true"
     inkscape:guide-bbox="true"
     inkscape:window-width="1366"
     inkscape:window-height="746"
     inkscape:window-x="-8"
     inkscape:window-y="-8"
     inkscape:window-maximized="1"
     width="0px"
     height="0px"
     fit-margin-top="0"
     fit-margin-left="0"
     fit-margin-right="0"
     fit-margin-bottom="0">
    <sodipodi:guide
       orientation="1,0"
       position="450,784"
       id="guide3178" />
    <sodipodi:guide
       orientation="0,1"
       position="-61,400"
       id="guide3180" />
  </sodipodi:namedview>
  <metadata
     id="metadata7">
    <rdf:RDF>
      <cc:Work
         rdf:about="">
        <dc:format>image/svg+xml</dc:format>
        <dc:type
           rdf:resource="http://purl.org/dc/dcmitype/StillImage" />
        <dc:title></dc:title>
      </cc:Work>
    </rdf:RDF>
  </metadata>
  <g
     inkscape:label="Layer 1"
     inkscape:groupmode="layer"
     id="layer1"
     transform="translate(0,-252.36218)">
    <path
       id="rect3036"
       transform="translate(0,252.36218)"
       style="fill:#ff0000"
       d="m 535.78125,233.3125 c -6.40601,-0.063 -10.9749,1.5074 -12.84375,4.53125 -1.35052,2.18522 -1.22651,4.15495 0.90625,13 2.90493,12.04772 4.02631,17.67395 4.78125,24.40625 0.42096,3.75341 1.19384,9.15997 1.71875,12 0.52488,2.84002 1.30035,10.01822 1.71875,15.96875 0.86344,12.28077 1.59597,17.63453 3.6875,26.0625 2.88464,11.62366 6.18918,18.07294 10.25,20.03125 3.19574,1.54111 7.46875,0.27216 7.46875,-2.21875 0,-0.53913 -0.81963,-3.23642 -1.75,-5.96875 -3.31331,-9.73102 -3.71178,-13.13343 -3.46875,-27.8125 0.11867,-7.16769 0.45493,-14.80493 0.75,-16.96875 0.29502,-2.16383 0.71769,-7.0258 0.96875,-10.8125 1.04707,-15.79255 2.04883,-22.7725 4.5625,-31.90625 1.89415,-6.88241 1.99959,-7.5005 1.46875,-10.03125 -1.24391,-5.93033 -3.34807,-7.76245 -10.4375,-9.15625 -3.5893,-0.7057 -6.86943,-1.09631 -9.78125,-1.125 z m 2.15625,1.875 c 2.66825,-0.0393 4.22597,0.24027 7.75,1.0625 2.91956,0.68119 5.68431,1.50394 6.09375,1.84375 2.37347,1.96983 2.73528,7.02741 0.96875,13.25 -1.11507,3.92798 -1.95428,8.5919 -3.28125,18.21875 -0.69271,5.02528 -1.65389,7.48301 -3.96875,9.9375 -2.36313,2.50568 -4.21966,2.507 -6.8125,0 -3.12539,-3.02184 -6.16161,-9.47742 -10.9375,-23.21875 -2.83167,-8.14756 -3.8125,-11.9541 -3.8125,-14.6875 0,-2.13904 0.17327,-2.54858 1.59375,-3.625 2.73782,-2.07465 3.48246,-2.29406 9.25,-2.625 1.2417,-0.0713 2.26681,-0.14314 3.15625,-0.15625 z m -8.3125,3.84375 c -1.307,0 -1.88201,1.97106 -1.625,5.625 0.31218,4.43851 1.99295,8.27024 7.28125,16.34375 3.63427,5.54829 6.375,11.60667 6.375,14.21875 0,0.39541 0.30287,0.71875 0.6875,0.71875 0.79115,0 1.4708,-1.87529 2.21875,-6.09375 0.71341,-4.02376 3.32406,-12.17974 5.28125,-16.5 2.58739,-5.71156 2.22409,-10.24008 -1.03125,-13.28125 -1.04654,-0.97773 -1.28125,-1.05026 -1.28125,-0.375 0,0.45287 0.24558,0.8125 0.53125,0.8125 0.28572,0 0.93033,0.97546 1.4375,2.125 0.86565,1.96203 0.87792,2.32272 0.1875,5.96875 -0.4657,2.45963 -1.52975,5.41472 -2.875,8.09375 -1.16838,2.32671 -2.57239,5.85153 -3.15625,7.8125 -0.58382,1.96097 -1.16568,3.5625 -1.28125,3.5625 -0.11556,0 -0.98669,-1.60153 -1.9375,-3.5625 -0.9508,-1.96097 -2.68773,-4.76236 -3.875,-6.25 -3.15403,-3.95197 -6.62746,-10.52687 -7.3125,-13.84375 -0.52809,-2.55663 -0.517,-2.96824 0.21875,-3.78125 1.0218,-1.12893 1.0982,-1.59375 0.15625,-1.59375 z m 0.0937,30 0,0.0312 c 0.27747,0 1.23748,2.02933 2.125,4.53125 1.65709,4.6713 2.65468,5.99144 6.5625,8.8125 2.58244,1.86422 4.37373,2.15332 6.3125,1.03125 0.87481,-0.50629 1.79552,-1.40195 2.0625,-2 1.41339,-3.1659 1.58332,0.41881 0.53125,11.15625 -0.38669,3.9463 -0.83472,13.3604 -1,20.875 -0.29395,13.36571 -0.2777,13.7881 0.96875,19.90625 0.73231,3.59424 1.88508,7.56391 2.71875,9.3125 1.77951,3.73264 1.83698,4.70017 0.21875,5.4375 -1.47508,0.6721 -1.21761,0.68956 -2.40625,0 -2.3809,-1.38111 -6.32353,-7.76362 -8.21875,-13.34375 -2.01092,-5.92083 -5.08649,-23.2826 -5.59375,-31.5625 -0.18231,-2.97526 -0.63974,-7.63895 -1.03125,-10.34375 -0.39146,-2.70478 -1.02593,-7.1912 -1.4375,-10.03125 -0.41151,-2.84002 -0.96054,-6.50214 -1.1875,-8.125 -0.2269,-1.62288 -0.55692,-3.56869 -0.75,-4.3125 -0.21401,-0.82477 -0.18266,-1.375 0.125,-1.375 z" />
  </g>
</svg>
