<?xml version="1.0" encoding="UTF-8" standalone="no"?>
<!-- Created with Inkscape (http://www.inkscape.org/) -->

<svg
   xmlns:dc="http://purl.org/dc/elements/1.1/"
   xmlns:cc="http://creativecommons.org/ns#"
   xmlns:rdf="http://www.w3.org/1999/02/22-rdf-syntax-ns#"
   xmlns:svg="http://www.w3.org/2000/svg"
   xmlns="http://www.w3.org/2000/svg"
   xmlns:sodipodi="http://sodipodi.sourceforge.net/DTD/sodipodi-0.dtd"
   xmlns:inkscape="http://www.inkscape.org/namespaces/inkscape"
   width="800"
   height="400"
   id="svg2"
   version="1.1"
   inkscape:version="0.48.2 r9819"
   sodipodi:docname="m10.svg">
  <defs
     id="defs4" />
  <sodipodi:namedview
     id="base"
     pagecolor="#ffffff"
     bordercolor="#666666"
     borderopacity="1.0"
     inkscape:pageopacity="0.0"
     inkscape:pageshadow="2"
     inkscape:zoom="4"
     inkscape:cx="529.06561"
     inkscape:cy="257.72019"
     inkscape:document-units="px"
     inkscape:current-layer="layer1"
     showgrid="false"
     showguides="true"
     inkscape:guide-bbox="true"
     inkscape:window-width="1366"
     inkscape:window-height="746"
     inkscape:window-x="-8"
     inkscape:window-y="-8"
     inkscape:window-maximized="1"
     width="0px"
     height="0px"
     fit-margin-top="0"
     fit-margin-left="0"
     fit-margin-right="0"
     fit-margin-bottom="0">
    <sodipodi:guide
       orientation="1,0"
       position="400.22244,349.31075"
       id="guide3178" />
    <sodipodi:guide
       orientation="0,1"
       position="-117.37973,199.40411"
       id="guide3180" />
  </sodipodi:namedview>
  <metadata
     id="metadata7">
    <rdf:RDF>
      <cc:Work
         rdf:about="">
        <dc:format>image/svg+xml</dc:format>
        <dc:type
           rdf:resource="http://purl.org/dc/dcmitype/StillImage" />
        <dc:title></dc:title>
      </cc:Work>
    </rdf:RDF>
  </metadata>
  <g
     inkscape:label="Layer 1"
     inkscape:groupmode="layer"
     id="layer1"
     transform="translate(0,-652.36218)">
    <path
       id="rect3299"
       transform="translate(0,652.36218)"
       style="fill:#ff0000"
       d="m 479.15625,140.59375 c -0.5066,8e-4 -1.01175,0.006 -1.46875,0.0312 -5.7697,0.329 -9.07415,2.37037 -11.71875,7.25 -2.2186,4.09374 -1.532,7.57407 2.375,11.78125 1.1549,1.24366 2.27655,3.11869 3.03125,5.09375 1.5743,4.11978 3.68775,6.46876 6.78125,7.53125 4.6135,1.5846 7.4575,0.79207 11.125,-3.125 1.2161,-1.29879 3.7166,-3.1939 5.5625,-4.25 4.1728,-2.38749 5.5332,-4.19172 5.8125,-7.71875 0.13,-1.64155 -0.0392,-2.87435 -0.40625,-3.46875 -2.4397,-3.95517 -9.06245,-10.8971 -10.78125,-11.3125 -0.5982,-0.14459 -1.28755,-0.43537 -1.53125,-0.625 -0.8243,-0.64113 -5.23555,-1.19348 -8.78125,-1.1875 z m 1.59375,1.9375 c 6.2935,-0.0644 8.2715,0.63156 11.5,4.1875 1.3482,1.48498 2.89555,3.14918 3.40625,3.6875 0.8792,0.92706 0.88025,0.95824 0.0937,0.9375 -0.4567,-0.0121 -1.7685,-0.56448 -2.9375,-1.25 -1.1691,-0.68555 -3.9443,-1.68984 -6.125,-2.21875 -5.1585,-1.25123 -12.3806,-1.05648 -15.6875,0.40625 -1.1583,0.51237 -2.40195,0.9375 -2.78125,0.9375 -1.1227,0 3.3884,-4.32085 5.8125,-5.5625 1.8999,-0.97298 2.72725,-1.08404 6.71875,-1.125 z m -0.59375,6.25 c 4.2302,0.086 8.9916,1.17842 13.3125,3.28125 1.7057,0.83012 3.3427,1.5 3.625,1.5 0.8626,0 1.96875,1.5431 1.96875,2.75 0,3.12709 -2.7795,6.52475 -6.8125,8.375 -2.2567,1.03535 -3.44015,1.89913 -4.34375,3.15625 -0.6828,0.94986 -1.8252,2.11973 -2.5625,2.625 -1.6182,1.10877 -4.88225,1.21423 -7.28125,0.21875 -1.2821,-0.53206 -2.0155,-1.3513 -3.5625,-4 -1.0704,-1.83273 -2.06375,-3.83868 -2.21875,-4.46875 -0.1549,-0.6301 -1.22895,-2.14135 -2.40625,-3.34375 -2.3492,-2.39902 -2.62335,-3.40991 -1.40625,-5.625 1.676,-3.05016 6.2486,-4.57933 11.6875,-4.46875 z m -1.28125,3.9375 c -4.8321,0.0322 -7.20125,1.62843 -7.21875,4.84375 -0.01,1.621 2.08425,3.70147 4.96875,4.875 2.8132,1.14453 5.03125,2.99113 5.03125,4.21875 0,0.49241 0.1898,1.25596 0.4375,1.71875 0.2477,0.46284 0.66785,0.84375 0.90625,0.84375 0.4547,0 0.571,-0.3229 1,-2.28125 0.3127,-1.42719 2.8134,-3.16189 5.125,-3.5625 1.8433,-0.31945 6,-3.7832 6,-5 0,-0.42144 -0.4757,-1.27315 -1.0625,-1.90625 -1.237,-1.33477 -2.6827,-1.6092 -2.1875,-0.40625 0.7169,1.74145 0.63735,2.17592 -0.84375,3.90625 -1.1086,1.29512 -2.21555,2.00605 -3.84375,2.53125 -1.253,0.40424 -2.6826,0.99718 -3.1875,1.3125 -0.8099,0.50597 -1.3121,0.36486 -4.25,-1.09375 -4.0498,-2.01054 -5.5,-3.45534 -5.5,-5.46875 0,-2.0614 1.6661,-3.15126 5.375,-3.53125 3.7613,-0.38534 3.2585,-1.02684 -0.75,-1 z" />
  </g>
</svg>
