<?xml version="1.0" encoding="UTF-8" standalone="no"?>
<!-- Created with Inkscape (http://www.inkscape.org/) -->

<svg
   xmlns:dc="http://purl.org/dc/elements/1.1/"
   xmlns:cc="http://creativecommons.org/ns#"
   xmlns:rdf="http://www.w3.org/1999/02/22-rdf-syntax-ns#"
   xmlns:svg="http://www.w3.org/2000/svg"
   xmlns="http://www.w3.org/2000/svg"
   xmlns:sodipodi="http://sodipodi.sourceforge.net/DTD/sodipodi-0.dtd"
   xmlns:inkscape="http://www.inkscape.org/namespaces/inkscape"
   width="900"
   height="800"
   id="svg2"
   version="1.1"
   inkscape:version="0.48.2 r9819"
   sodipodi:docname="f10.svg">
  <defs
     id="defs4" />
  <sodipodi:namedview
     id="base"
     pagecolor="#ffffff"
     bordercolor="#666666"
     borderopacity="1.0"
     inkscape:pageopacity="0.0"
     inkscape:pageshadow="2"
     inkscape:zoom="2"
     inkscape:cx="555.30419"
     inkscape:cy="598.51706"
     inkscape:document-units="px"
     inkscape:current-layer="layer1"
     showgrid="false"
     showguides="true"
     inkscape:guide-bbox="true"
     inkscape:window-width="1366"
     inkscape:window-height="746"
     inkscape:window-x="-8"
     inkscape:window-y="-8"
     inkscape:window-maximized="1"
     width="0px"
     height="0px"
     fit-margin-top="0"
     fit-margin-left="0"
     fit-margin-right="0"
     fit-margin-bottom="0">
    <sodipodi:guide
       orientation="1,0"
       position="450,784"
       id="guide3178" />
    <sodipodi:guide
       orientation="0,1"
       position="-61,400"
       id="guide3180" />
  </sodipodi:namedview>
  <metadata
     id="metadata7">
    <rdf:RDF>
      <cc:Work
         rdf:about="">
        <dc:format>image/svg+xml</dc:format>
        <dc:type
           rdf:resource="http://purl.org/dc/dcmitype/StillImage" />
        <dc:title></dc:title>
      </cc:Work>
    </rdf:RDF>
  </metadata>
  <g
     inkscape:label="Layer 1"
     inkscape:groupmode="layer"
     id="layer1"
     transform="translate(0,-252.36218)">
    <path
       id="rect3032"
       transform="translate(0,252.36218)"
       style="fill:#ff0000"
       d="m 538.8125,168.3125 c -0.57263,9.1e-4 -1.13966,0.001 -1.65625,0.0312 -6.5224,0.37192 -10.26044,2.70255 -13.25,8.21875 -2.50808,4.62778 -1.72916,8.55647 2.6875,13.3125 1.30557,1.4059 2.55309,3.51729 3.40625,5.75 1.77965,4.65723 4.1905,7.33016 7.6875,8.53125 5.21536,1.79131 8.41648,0.89681 12.5625,-3.53125 1.37474,-1.46823 4.19457,-3.61862 6.28125,-4.8125 4.71709,-2.69894 6.27794,-4.7316 6.59375,-8.71875 0.14699,-1.8557 -0.023,-3.23432 -0.4375,-3.90625 -2.75789,-4.47114 -10.27573,-12.34291 -12.21875,-12.8125 -0.67621,-0.16344 -1.44327,-0.47313 -1.71875,-0.6875 -0.93178,-0.72477 -5.9292,-1.38176 -9.9375,-1.375 z m 1.84375,2.1875 c 7.11445,-0.0729 9.31915,0.73018 12.96875,4.75 1.52413,1.67869 3.26647,3.54769 3.84375,4.15625 0.99395,1.048 1.01392,1.1172 0.125,1.09375 -0.51619,-0.0137 -2.02224,-0.66254 -3.34375,-1.4375 -1.32152,-0.77497 -4.44105,-1.90209 -6.90625,-2.5 -5.83152,-1.41445 -13.98053,-1.21606 -17.71875,0.4375 -1.30942,0.57921 -2.72748,1.09375 -3.15625,1.09375 -1.26911,0 3.8222,-4.87762 6.5625,-6.28125 2.14746,-1.09989 3.11282,-1.2662 7.625,-1.3125 z m -0.6875,7.0625 c 4.78207,0.0972 10.14674,1.3416 15.03125,3.71875 1.92822,0.93841 3.77469,1.71875 4.09375,1.71875 0.97514,0 2.21875,1.7294 2.21875,3.09375 0,3.53502 -3.12838,7.37712 -7.6875,9.46875 -2.55109,1.17042 -3.8848,2.14139 -4.90625,3.5625 -0.77186,1.07377 -2.07273,2.39758 -2.90625,2.96875 -1.82927,1.25342 -5.50677,1.37535 -8.21875,0.25 -1.44936,-0.60146 -2.28245,-1.53701 -4.03125,-4.53125 -1.21007,-2.07182 -2.32483,-4.35023 -2.5,-5.0625 -0.17518,-0.71229 -1.38781,-2.39074 -2.71875,-3.75 -2.65566,-2.71199 -2.96965,-3.87093 -1.59375,-6.375 1.89459,-3.44805 7.07036,-5.1875 13.21875,-5.0625 z m -1.4375,4.46875 c -5.46249,0.0363 -8.16774,1.86524 -8.1875,5.5 -0.0104,1.83247 2.36428,4.14212 5.625,5.46875 3.18021,1.29384 5.6875,3.39349 5.6875,4.78125 0,0.55664 0.21997,1.41434 0.5,1.9375 0.27997,0.52321 0.73054,0.96875 1,0.96875 0.51406,0 0.67121,-0.34868 1.15625,-2.5625 0.35344,-1.61337 3.16804,-3.57838 5.78125,-4.03125 2.08373,-0.36113 6.78125,-4.31196 6.78125,-5.6875 0,-0.4764 -0.52419,-1.44057 -1.1875,-2.15625 -1.3984,-1.5089 -3.02859,-1.79736 -2.46875,-0.4375 0.81039,1.96862 0.70556,2.45019 -0.96875,4.40625 -1.25319,1.46407 -2.50321,2.28127 -4.34375,2.875 -1.41652,0.45696 -3.02309,1.11228 -3.59375,1.46875 -0.91566,0.57196 -1.49128,0.43015 -4.8125,-1.21875 -4.57809,-2.27283 -6.21875,-3.91144 -6.21875,-6.1875 0,-2.33032 1.86974,-3.53919 6.0625,-3.96875 4.25193,-0.43561 3.71886,-1.18658 -0.8125,-1.15625 z" />
  </g>
</svg>
