<?xml version="1.0" encoding="UTF-8" standalone="no"?>
<!-- Created with Inkscape (http://www.inkscape.org/) -->

<svg
   xmlns:dc="http://purl.org/dc/elements/1.1/"
   xmlns:cc="http://creativecommons.org/ns#"
   xmlns:rdf="http://www.w3.org/1999/02/22-rdf-syntax-ns#"
   xmlns:svg="http://www.w3.org/2000/svg"
   xmlns="http://www.w3.org/2000/svg"
   xmlns:sodipodi="http://sodipodi.sourceforge.net/DTD/sodipodi-0.dtd"
   xmlns:inkscape="http://www.inkscape.org/namespaces/inkscape"
   width="800"
   height="700"
   id="svg2"
   version="1.1"
   inkscape:version="0.48.2 r9819"
   sodipodi:docname="f10.svg">
  <defs
     id="defs4" />
  <sodipodi:namedview
     id="base"
     pagecolor="#ffffff"
     bordercolor="#666666"
     borderopacity="1.0"
     inkscape:pageopacity="0.0"
     inkscape:pageshadow="2"
     inkscape:zoom="2.8284271"
     inkscape:cx="507.11797"
     inkscape:cy="494.98711"
     inkscape:document-units="px"
     inkscape:current-layer="layer1"
     showgrid="false"
     showguides="true"
     inkscape:guide-bbox="true"
     inkscape:window-width="1366"
     inkscape:window-height="746"
     inkscape:window-x="-8"
     inkscape:window-y="-8"
     inkscape:window-maximized="1"
     width="0px"
     height="0px"
     fit-margin-top="0"
     fit-margin-left="0"
     fit-margin-right="0"
     fit-margin-bottom="0">
    <sodipodi:guide
       orientation="1,0"
       position="400.22244,349.31075"
       id="guide3178" />
    <sodipodi:guide
       orientation="0,1"
       position="400.22244,349.31075"
       id="guide3180" />
  </sodipodi:namedview>
  <metadata
     id="metadata7">
    <rdf:RDF>
      <cc:Work
         rdf:about="">
        <dc:format>image/svg+xml</dc:format>
        <dc:type
           rdf:resource="http://purl.org/dc/dcmitype/StillImage" />
        <dc:title></dc:title>
      </cc:Work>
    </rdf:RDF>
  </metadata>
  <g
     inkscape:label="Layer 1"
     inkscape:groupmode="layer"
     id="layer1"
     transform="translate(0,-352.36218)">
    <path
       id="rect3111"
       transform="translate(0,352.36218)"
       style="fill:#ff0000"
       d="m 477.59375,148.84375 c -0.50655,8e-4 -1.01177,0.006 -1.46875,0.0312 -5.76973,0.329 -9.07418,2.40162 -11.71875,7.28125 -2.21866,4.09374 -1.53198,7.57407 2.375,11.78125 1.15492,1.24366 2.27654,3.11869 3.03125,5.09375 1.57428,4.11978 3.68781,6.46876 6.78125,7.53125 4.61351,1.5846 7.45742,0.79207 11.125,-3.125 1.21609,-1.29879 3.71663,-3.1939 5.5625,-4.25 4.17276,-2.38749 5.53313,-4.19172 5.8125,-7.71875 0.13002,-1.64155 -0.008,-2.87435 -0.375,-3.46875 -2.43964,-3.95517 -9.0937,-10.92835 -10.8125,-11.34375 -0.59818,-0.14459 -1.28757,-0.40412 -1.53125,-0.59375 -0.82424,-0.64113 -5.2355,-1.22473 -8.78125,-1.21875 z m 1.625,1.9375 c 6.29345,-0.0644 8.27156,0.66281 11.5,4.21875 1.34824,1.48498 2.86434,3.11793 3.375,3.65625 0.87924,0.92706 0.88009,0.98949 0.0937,0.96875 -0.45662,-0.0121 -1.7685,-0.59573 -2.9375,-1.28125 -1.16902,-0.68555 -3.91303,-1.65859 -6.09375,-2.1875 -5.15856,-1.25123 -12.38068,-1.08773 -15.6875,0.375 -1.15833,0.51237 -2.43321,0.96875 -2.8125,0.96875 -1.12267,0 3.38842,-4.32085 5.8125,-5.5625 1.89964,-0.97298 2.75853,-1.11529 6.75,-1.15625 z m -0.625,6.28125 c 4.23024,0.086 8.99165,1.14717 13.3125,3.25 1.70572,0.83012 3.34276,1.53125 3.625,1.53125 0.86263,0 1.96875,1.51185 1.96875,2.71875 0,3.12709 -2.74826,6.556 -6.78125,8.40625 -2.2567,1.03535 -3.47142,1.86788 -4.375,3.125 -0.68279,0.94986 -1.82516,2.15098 -2.5625,2.65625 -1.61817,1.10877 -4.88223,1.21423 -7.28125,0.21875 -1.28212,-0.53206 -1.98425,-1.3513 -3.53125,-4 -1.07044,-1.83273 -2.09504,-3.86993 -2.25,-4.5 -0.15496,-0.6301 -1.22889,-2.1101 -2.40625,-3.3125 -2.34919,-2.39902 -2.62337,-3.40991 -1.40625,-5.625 1.67596,-3.05016 6.24864,-4.57933 11.6875,-4.46875 z m -1.25,3.9375 c -4.83212,0.0322 -7.23253,1.62843 -7.25,4.84375 -0.01,1.621 2.11555,3.70147 5,4.875 2.81322,1.14453 5,2.99113 5,4.21875 0,0.49241 0.18979,1.25596 0.4375,1.71875 0.24766,0.46284 0.66789,0.84375 0.90625,0.84375 0.45474,0 0.57094,-0.3229 1,-2.28125 0.31267,-1.42719 2.81337,-3.16189 5.125,-3.5625 1.84327,-0.31945 6,-3.81445 6,-5.03125 0,-0.42144 -0.44447,-1.27315 -1.03125,-1.90625 -1.23701,-1.33477 -2.71398,-1.6092 -2.21875,-0.40625 0.71688,1.74145 0.63735,2.17592 -0.84375,3.90625 -1.10857,1.29512 -2.21561,2.0373 -3.84375,2.5625 -1.25306,0.40424 -2.68268,0.96593 -3.1875,1.28125 -0.80998,0.50597 -1.31205,0.39611 -4.25,-1.0625 -4.04979,-2.01054 -5.5,-3.45534 -5.5,-5.46875 0,-2.0614 1.66608,-3.15126 5.375,-3.53125 3.76127,-0.38534 3.2897,-1.02684 -0.71875,-1 z" />
  </g>
</svg>
