<?xml version="1.0" encoding="UTF-8" standalone="no"?>
<!-- Created with Inkscape (http://www.inkscape.org/) -->

<svg
   xmlns:dc="http://purl.org/dc/elements/1.1/"
   xmlns:cc="http://creativecommons.org/ns#"
   xmlns:rdf="http://www.w3.org/1999/02/22-rdf-syntax-ns#"
   xmlns:svg="http://www.w3.org/2000/svg"
   xmlns="http://www.w3.org/2000/svg"
   xmlns:sodipodi="http://sodipodi.sourceforge.net/DTD/sodipodi-0.dtd"
   xmlns:inkscape="http://www.inkscape.org/namespaces/inkscape"
   width="800"
   height="700"
   id="svg2"
   version="1.1"
   inkscape:version="0.48.2 r9819"
   sodipodi:docname="l31.svg">
  <defs
     id="defs4" />
  <sodipodi:namedview
     id="base"
     pagecolor="#ffffff"
     bordercolor="#666666"
     borderopacity="1.0"
     inkscape:pageopacity="0.0"
     inkscape:pageshadow="2"
     inkscape:zoom="2.5"
     inkscape:cx="681.25906"
     inkscape:cy="207.67183"
     inkscape:document-units="px"
     inkscape:current-layer="layer1"
     showgrid="false"
     showguides="true"
     inkscape:guide-bbox="true"
     inkscape:window-width="1366"
     inkscape:window-height="746"
     inkscape:window-x="-8"
     inkscape:window-y="-8"
     inkscape:window-maximized="1"
     width="0px"
     height="0px"
     fit-margin-top="0"
     fit-margin-left="0"
     fit-margin-right="0"
     fit-margin-bottom="0">
    <sodipodi:guide
       orientation="1,0"
       position="400.22244,349.31075"
       id="guide3178" />
    <sodipodi:guide
       orientation="0,1"
       position="400.22244,349.31075"
       id="guide3180" />
  </sodipodi:namedview>
  <metadata
     id="metadata7">
    <rdf:RDF>
      <cc:Work
         rdf:about="">
        <dc:format>image/svg+xml</dc:format>
        <dc:type
           rdf:resource="http://purl.org/dc/dcmitype/StillImage" />
        <dc:title></dc:title>
      </cc:Work>
    </rdf:RDF>
  </metadata>
  <g
     inkscape:label="Layer 1"
     inkscape:groupmode="layer"
     id="layer1"
     transform="translate(0,-352.36218)">
    <path
       id="rect3396"
       transform="translate(0,352.36218)"
       style="fill:#ff0000"
       d="m 780.0625,432.125 c -0.6105,-0.005 -1.24709,0.18496 -2.3125,0.65625 -5.41178,2.39389 -10.2661,7.36048 -13.375,13.65625 -1.76941,3.58309 -3.70208,9.01647 -4.03125,11.34375 -0.10153,0.71785 -0.69353,3.19563 -1.3125,5.46875 -0.61891,2.27301 -1.2592,4.49023 -1.375,4.96875 -0.11568,0.47855 -0.36708,1.37063 -0.59375,1.96875 -0.22663,0.59823 -0.71414,2.19278 -1.09375,3.5625 -0.37966,1.36979 -1.25333,3.74847 -1.9375,5.25 -0.68419,1.50142 -1.37663,3.43929 -1.53125,4.3125 -0.15463,0.87322 -0.58492,1.83232 -0.9375,2.125 -0.35257,0.29244 -0.625,0.76314 -0.625,1.0625 0,0.29918 -0.39204,1.43934 -0.875,2.53125 -0.7506,1.69673 -0.82715,2.29246 -0.4375,4.03125 0.45091,2.01197 2.72816,5.84375 3.46875,5.84375 0.21068,0 0.68759,0.28134 1.03125,0.625 0.34368,0.34366 1.51101,1.19981 2.625,1.90625 1.82815,1.15937 2.21444,1.24418 3.875,0.875 1.01192,-0.2251 2.53756,-0.86367 3.375,-1.4375 2.54037,-1.74084 3.47673,-1.9736 5.1875,-1.125 0.8374,0.41542 2.07096,0.90691 2.71875,1.0625 0.64785,0.15556 1.71182,0.79155 2.375,1.40625 1.07981,1.00074 1.47432,1.05746 3.625,0.84375 7.76928,-0.77242 8.31372,-0.95025 10.84375,-3.84375 l 1.46875,-1.65625 -0.25,-4 c -0.16342,-2.84064 -0.57219,-4.84965 -1.375,-6.9375 -0.62308,-1.62042 -1.09375,-3.53864 -1.09375,-4.21875 0,-0.68005 -0.42771,-1.73534 -0.90625,-2.34375 -0.47854,-0.60838 -0.84375,-1.27543 -0.84375,-1.5 0,-0.22459 -0.36509,-1.06062 -0.78125,-1.875 -0.60787,-1.18954 -0.77826,-2.9654 -0.90625,-8.90625 -0.21799,-10.11068 0.59133,-13.60039 5.25,-23.1875 2.81258,-5.78788 2.94706,-6.90092 1.03125,-8.15625 -0.87877,-0.57576 -1.35638,-0.58421 -2.9375,-0.15625 -2.10275,0.56906 -4.93659,1.91016 -6.09375,2.90625 -1.38951,1.19611 -0.90707,-0.39245 0.53125,-1.75 2.4014,-2.2665 2.13146,-4.17375 -0.65625,-5.09375 -0.43843,-0.14469 -0.75871,-0.21544 -1.125,-0.21875 z m -0.3125,1.34375 c 0.3723,0.0158 0.68275,0.16818 1.09375,0.4375 1.29278,0.84703 1.24213,0.98578 -0.5625,2.84375 -1.57042,1.61682 -4.00489,6.50979 -5.96875,11.90625 -1.06783,2.9343 -2.13358,5.57964 -2.9375,7.40625 -0.51377,1.1674 -1.71875,7.01844 -1.71875,8.28125 0,0.55474 0.16635,1.12103 0.375,1.25 0.47365,0.29276 2.23081,-4.80668 2.25,-6.53125 0.0155,-1.37185 1.2861,-5.43998 2,-6.375 0.23997,-0.31419 0.77367,-1.47314 1.1875,-2.59375 1.88996,-5.11804 9.2791,-12.52616 12.5,-12.53125 2.48444,-0.005 2.51134,1.53487 0.0625,5.21875 -0.70759,1.06444 -1.63397,2.88691 -2.0625,4.03125 -0.42854,1.1443 -0.95248,2.21765 -1.15625,2.34375 -0.20379,0.12595 -0.375,0.50657 -0.375,0.875 0,0.36842 -0.26616,1.2772 -0.59375,2.03125 -0.32754,0.75391 -0.82681,2.83051 -1.09375,4.625 -0.5648,3.79667 -0.77333,15.58276 -0.3125,17.875 0.41076,2.04327 0.1549,2.11037 -6.46875,1.53125 -7.69124,-0.67252 -14.15062,-0.39093 -16.59375,0.65625 -1.093,0.46857 -2.08755,0.84375 -2.1875,0.84375 -0.45146,0 0.25114,-3.02059 2.03125,-8.9375 1.08966,-3.6219 1.80926,-6.24835 3.4375,-12.46875 1.2589,-4.80931 3.69319,-10.57618 5.75,-13.65625 1.66109,-2.48736 7.99283,-8.10293 9.875,-8.75 0.65302,-0.22448 1.09646,-0.32818 1.46875,-0.3125 z m -15.25,43.75 c 0.46285,-0.007 0.98371,-0.008 1.53125,0 2.62818,0.0399 6.30996,0.24816 11.46875,0.625 2.6576,0.19419 4.03563,0.51726 5,1.15625 1.30859,0.86702 3.25407,3.85979 3.25,5.03125 -7.1e-4,0.32193 0.29444,1.21401 0.6875,1.96875 1.35287,2.59756 1.48209,2.90625 1.125,2.90625 -0.19696,0 -0.65715,-0.65302 -1.03125,-1.4375 -0.72927,-1.52926 -2.95353,-4.35909 -3.21875,-4.09375 -0.0883,0.0883 0.41273,1.7358 1.125,3.6875 0.71228,1.9519 1.4674,4.68281 1.6875,6.0625 0.5904,3.70114 -0.28518,5.07545 -4.65625,7.1875 -3.80114,1.83656 -3.90788,1.84226 -5.09375,1.03125 -0.47197,-0.32235 -1.83491,-0.94209 -3.03125,-1.375 -3.27766,-1.18619 -3.80743,-1.85982 -3.3125,-4.0625 0.54409,-2.42148 -0.17457,-2.36763 -2.03125,0.15625 -1.44634,1.96625 -2.46598,2.58893 -7.1875,4.1875 -2.52197,0.8544 -2.55501,0.8544 -3.9375,0 -3.75509,-2.32068 -4.47535,-5.08372 -2.84375,-10.5 1.17474,-3.89982 3.88561,-9.83136 5.125,-11.15625 0.83185,-0.88922 2.10378,-1.32601 5.34375,-1.375 z m -11.96875,10.125 c 0.0528,-0.0163 0.10694,3.8e-4 0.15625,0.0312 0.18879,0.11664 0.10096,1.24389 -0.21875,2.5 -0.3196,1.2559 -0.67335,2.77688 -0.75,3.375 -0.0975,0.76113 -0.24717,0.89173 -0.5,0.5 -0.62334,-0.96553 0.51837,-6.16118 1.3125,-6.40625 z m 35.34375,2.75 c 0.19612,-0.0863 0.49392,1.65148 0.78125,5 0.1637,1.90749 0.0693,2.50255 -0.375,2.5 -0.43971,-0.004 -0.58932,-0.97604 -0.625,-3.9375 -0.028,-2.32442 0.0662,-3.49538 0.21875,-3.5625 z" />
  </g>
</svg>
