<?xml version="1.0" encoding="UTF-8" standalone="no"?>
<!-- Created with Inkscape (http://www.inkscape.org/) -->

<svg
   xmlns:dc="http://purl.org/dc/elements/1.1/"
   xmlns:cc="http://creativecommons.org/ns#"
   xmlns:rdf="http://www.w3.org/1999/02/22-rdf-syntax-ns#"
   xmlns:svg="http://www.w3.org/2000/svg"
   xmlns="http://www.w3.org/2000/svg"
   xmlns:sodipodi="http://sodipodi.sourceforge.net/DTD/sodipodi-0.dtd"
   xmlns:inkscape="http://www.inkscape.org/namespaces/inkscape"
   width="800"
   height="400"
   id="svg2"
   version="1.1"
   inkscape:version="0.48.2 r9819"
   sodipodi:docname="f32.svg">
  <defs
     id="defs4" />
  <sodipodi:namedview
     id="base"
     pagecolor="#ffffff"
     bordercolor="#666666"
     borderopacity="1.0"
     inkscape:pageopacity="0.0"
     inkscape:pageshadow="2"
     inkscape:zoom="4"
     inkscape:cx="79.747121"
     inkscape:cy="93.28904"
     inkscape:document-units="px"
     inkscape:current-layer="layer1"
     showgrid="false"
     showguides="true"
     inkscape:guide-bbox="true"
     inkscape:window-width="1366"
     inkscape:window-height="746"
     inkscape:window-x="-8"
     inkscape:window-y="-8"
     inkscape:window-maximized="1"
     width="0px"
     height="0px"
     fit-margin-top="0"
     fit-margin-left="0"
     fit-margin-right="0"
     fit-margin-bottom="0">
    <sodipodi:guide
       orientation="1,0"
       position="400.22244,349.31075"
       id="guide3178" />
    <sodipodi:guide
       orientation="0,1"
       position="-117.37973,199.40411"
       id="guide3180" />
  </sodipodi:namedview>
  <metadata
     id="metadata7">
    <rdf:RDF>
      <cc:Work
         rdf:about="">
        <dc:format>image/svg+xml</dc:format>
        <dc:type
           rdf:resource="http://purl.org/dc/dcmitype/StillImage" />
        <dc:title></dc:title>
      </cc:Work>
    </rdf:RDF>
  </metadata>
  <g
     inkscape:label="Layer 1"
     inkscape:groupmode="layer"
     id="layer1"
     transform="translate(0,-652.36218)">
    <path
       id="rect3325"
       transform="translate(0,652.36218)"
       style="fill:#ff0000"
       d="m 24,266.90625 c -1.04673,0.026 -1.78735,0.33315 -2.03125,0.96875 -0.12567,0.3274 -1.33511,1.02535 -2.6875,1.53125 -1.63031,0.61 -3.13665,1.62195 -4.53125,3.03125 l -2.125,2.125 0.1875,3.15625 c 0.16459,2.7563 1.26902,8.50975 2.9375,15.15625 0.31041,1.2365 0.40606,4.50965 0.28125,8.90625 -0.17325,6.1021 -0.29352,7.30215 -1.25,9.78125 -2.14662,5.5637 -5.99638,11.79455 -10.125,16.34375 -1.56488,1.7243 -1.91244,2.35645 -1.71875,3.21875 0.34684,1.5438 1.59416,2.50645 3.84375,2.84375 2.50306,0.3753 4.72204,-0.7243 8.15625,-4 1.37364,-1.3103 2.66903,-2.30305 2.90625,-2.21875 0.25731,0.091 0.11951,1.10365 -0.375,2.53125 -0.95741,2.7638 -1.08987,4.8163 -0.34375,5.5625 0.28712,0.2872 1.60959,0.52555 2.9375,0.53125 l 2.4375,0 3.59375,-3.78125 c 1.98524,-2.0818 4.37926,-4.95695 5.3125,-6.40625 0.93325,-1.4496 1.90981,-2.90215 2.1875,-3.21875 0.7131,-0.8134 3.46875,-7.23595 3.46875,-8.09375 0,-0.3916 0.70884,-2.51465 1.5625,-4.71875 0.85366,-2.2043 1.71996,-4.7928 1.9375,-5.75 1.29036,-5.6773 2.69239,-10.0122 4.28125,-13.0625 0.99275,-1.9058 1.96274,-3.5599 2.15625,-3.6875 0.1935,-0.1279 1.03665,-1.60645 1.84375,-3.28125 1.21879,-2.5292 1.48712,-3.6371 1.625,-6.625 0.0913,-1.9787 0.04245,-4.05075 -0.09375,-4.59375 -0.13628,-0.543 -1.24674,-2.0032 -2.5,-3.25 -2.14856,-2.1372 -2.43022,-2.2642 -4.5,-2.25 -2.46276,0.011 -4.03144,0.36255 -7.875,1.78125 l -2.65625,0.96875 -2.1875,-1.34375 C 28.33467,267.6342 25.74459,266.86365 24,266.90625 z M 25.4375,269 c 1.89252,-0.03 3.91684,0.6441 5.3125,1.9375 l 1.1875,1.125 -0.21875,4.84375 c -0.22121,4.6668 -0.25407,4.8689 -1.4375,5.8125 -1.42913,1.1397 -1.11391,1.82915 0.5,1.09375 0.61043,-0.2782 1.70238,-0.53125 2.46875,-0.53125 l 1.40625,0 -1.03125,-0.8125 c -0.99637,-0.7661 -1.02457,-0.9679 -0.8125,-4.6875 0.12205,-2.1405 0.40535,-4.25485 0.65625,-4.71875 0.25088,-0.4641 1.74875,-1.49185 3.3125,-2.28125 2.45947,-1.2411 3.19962,-1.4256 5.53125,-1.3125 2.63121,0.127 2.72499,0.15725 4.46875,2.21875 1.64074,1.9398 1.79934,2.3067 1.78125,4.5625 -0.0364,4.5462 -1.03951,7.83415 -3.5625,11.71875 -1.88008,2.8945 -2.54117,3.59375 -3.40625,3.59375 -0.58996,0 -1.0625,0.16695 -1.0625,0.40625 0,0.2393 -0.56228,0.46875 -1.25,0.46875 -0.68771,0 -2.07804,0.28525 -3.125,0.65625 -2.25859,0.8005 -9.07358,1.13755 -13,0.65625 -2.55007,-0.3154 -2.92739,-0.509 -4.5625,-2.25 -1.3921,-1.4821 -1.962,-2.4725 -2.40625,-4.5 -0.31455,-1.4357 -0.89967,-3.5237 -1.34375,-4.625 -1.23582,-3.0653 -1.47784,-5.25385 -0.71875,-6.71875 0.89351,-1.7244 2.78768,-3.35855 4.9375,-4.21875 0.98752,-0.3951 2.47743,-1.10375 3.28125,-1.59375 C 23.24376,269.29525 24.302,269.018 25.4375,269 z m 15.5,24.3125 c 0.73358,0 0.55375,1.36775 -0.875,6.59375 -0.73716,2.6962 -1.68072,6.29385 -2.125,7.96875 -0.44429,1.6749 -1.20189,4.1215 -1.6875,5.4375 -0.48562,1.3159 -0.92939,2.77285 -0.9375,3.21875 -0.0169,0.9668 -1.74357,4.1875 -2.25,4.1875 -0.19521,0 -0.34375,0.22675 -0.34375,0.53125 0,0.3045 -0.6938,1.6033 -1.53125,2.875 -0.83742,1.2716 -1.53125,2.4467 -1.53125,2.625 0,0.4873 -6.61052,7.15565 -7.71875,7.78125 -1.03884,0.5863 -2.81113,0.7201 -3.28125,0.25 -0.67175,-0.6719 -0.21685,-3.57075 1.375,-8.34375 1.64466,-4.9317 2.35377,-6.7034 3.8125,-9.4375 4.05981,-7.6098 4.88956,-9.34375 4.34375,-9.34375 -0.49312,0 -3.75,4.7763 -3.75,5.5 0,0.1185 -0.45984,0.83205 -1.03125,1.59375 -0.57142,0.7615 -1.56074,2.3662 -2.1875,3.5625 -4.61699,8.8129 -11.13214,14.89465 -14.8125,13.84375 -2.13836,-0.6104 -1.86011,-1.7364 1.21875,-5.25 1.51764,-1.732 3.12969,-3.9154 3.5625,-4.875 0.43277,-0.9599 0.87622,-1.75 1.03125,-1.75 0.25536,0 2.37019,-4.21395 4.1875,-8.40625 1.18305,-2.7292 1.54915,-6.36055 1.25,-11.90625 -0.20238,-3.7515 -0.16577,-5.31285 0.1875,-5.53125 0.27286,-0.1687 1.61566,0.0679 2.9375,0.5625 1.97165,0.7377 3.37996,0.90625 7.96875,0.90625 5.24344,0 5.78129,-0.0582 8.65625,-1.28125 1.6868,-0.7176 3.27887,-1.3125 3.53125,-1.3125 z" />
  </g>
</svg>
