<?xml version="1.0" encoding="UTF-8" standalone="no"?>
<!-- Created with Inkscape (http://www.inkscape.org/) -->

<svg
   xmlns:dc="http://purl.org/dc/elements/1.1/"
   xmlns:cc="http://creativecommons.org/ns#"
   xmlns:rdf="http://www.w3.org/1999/02/22-rdf-syntax-ns#"
   xmlns:svg="http://www.w3.org/2000/svg"
   xmlns="http://www.w3.org/2000/svg"
   xmlns:sodipodi="http://sodipodi.sourceforge.net/DTD/sodipodi-0.dtd"
   xmlns:inkscape="http://www.inkscape.org/namespaces/inkscape"
   width="900"
   height="800"
   id="svg2"
   version="1.1"
   inkscape:version="0.48+devel r11738"
   sodipodi:docname="f32.svg">
  <defs
     id="defs4" />
  <sodipodi:namedview
     id="base"
     pagecolor="#ffffff"
     bordercolor="#666666"
     borderopacity="1.0"
     inkscape:pageopacity="0.0"
     inkscape:pageshadow="2"
     inkscape:zoom="4"
     inkscape:cx="929.78879"
     inkscape:cy="122.91303"
     inkscape:document-units="px"
     inkscape:current-layer="layer1"
     showgrid="false"
     showguides="false"
     inkscape:guide-bbox="true"
     inkscape:window-width="1366"
     inkscape:window-height="705"
     inkscape:window-x="-4"
     inkscape:window-y="-4"
     inkscape:window-maximized="1"
     width="0px"
     height="0px"
     fit-margin-top="0"
     fit-margin-left="0"
     fit-margin-right="0"
     fit-margin-bottom="0">
    <sodipodi:guide
       orientation="1,0"
       position="450,784"
       id="guide3178" />
    <sodipodi:guide
       orientation="0,1"
       position="-61,400"
       id="guide3180" />
  </sodipodi:namedview>
  <metadata
     id="metadata7">
    <rdf:RDF>
      <cc:Work
         rdf:about="">
        <dc:format>image/svg+xml</dc:format>
        <dc:type
           rdf:resource="http://purl.org/dc/dcmitype/StillImage" />
        <dc:title />
      </cc:Work>
    </rdf:RDF>
  </metadata>
  <g
     inkscape:label="Layer 1"
     inkscape:groupmode="layer"
     id="layer1"
     transform="translate(0,-252.36218)">
    <path
       id="rect182"
       transform="translate(0,252.36218)"
       style="fill:#ff0000;fill-opacity:1;stroke:none"
       d="m 880.3125,629.9375 c -2.12652,0.009 -5.71832,1.3118 -8.46875,3.0625 -3.83367,2.4403 -4.24862,2.51741 -6,1.1875 -2.39316,-1.81778 -6.1516,-3.28125 -8.40625,-3.28125 -1.13026,0 -3.44563,0.45355 -5.15625,1.03125 -3.78444,1.2779 -6.1208,3.6028 -7.21875,7.09375 -0.70107,2.22937 -0.71242,2.7131 -0.0312,5.15625 1.10798,3.97458 2.13917,6.70244 3.96875,10.5625 2.1086,4.44865 3.42901,8.17643 5.15625,14.28125 3.35517,11.85814 5.81817,18.22319 8.96875,23.4375 2.91335,4.82189 10.61557,12.55872 16.375,16.4375 1.36022,0.916 2.95648,1.65636 3.5625,1.65625 1.75852,0 2.70923,-1.94285 2.53125,-5.25 -0.0931,-1.72933 0.0471,-2.81088 0.34375,-2.75 0.27047,0.0547 1.68566,0.52513 3.1875,1.0625 1.50182,0.5375 3.87494,1.13006 5.25,1.3125 2.18402,0.28982 2.63276,0.21093 3.59375,-0.75 0.96561,-0.96564 1.05616,-1.44228 0.78125,-3.78125 -0.35431,-3.01468 -1.81555,-5.70182 -4.9375,-9 -2.33203,-2.46363 -5.19644,-7.3565 -6.4375,-11.03125 -2.09428,-6.20165 -1.75085,-14.18059 0.96875,-23.15625 1.78315,-5.8853 2.928,-12.74484 2.5625,-15.5 -0.40646,-3.06409 -1.1317,-4.37297 -3.5,-6.4375 -1.06289,-0.92635 -2.80174,-2.48565 -3.875,-3.5 C 882.30359,630.62134 881.11297,629.9375 880.3125,629.9375 z m -0.9375,2.4375 c 0.88697,0 5.39302,3.07934 7.78125,5.3125 1.15222,1.07721 1.22069,1.41295 1.15625,6.40625 -0.0499,3.84489 -0.33844,6.12943 -1.09375,8.46875 -0.56765,1.75817 -1.02665,3.62598 -1.03125,4.1875 -0.0156,2.51922 -4.59502,4.47309 -12.0625,5.125 -2.16384,0.18887 -4.25038,0.47623 -4.65625,0.625 -0.89392,0.32808 -1.91655,0.0808 -5.3125,-1.15625 -1.43015,-0.52096 -3.7066,-0.9375 -5.03125,-0.9375 -4.31099,0 -4.5997,-0.25883 -8.21875,-7.625 -2.78485,-5.66829 -3.33039,-7.18071 -3.5,-9.84375 -0.10983,-1.72831 -0.0463,-3.69208 0.125,-4.375 0.39424,-1.57071 3.07279,-3.27751 7.1875,-4.5625 l 3.1875,-1 2.6875,1 c 4.84939,1.76289 6.41658,3.92067 6.40625,9.03125 -0.007,3.56078 -0.23135,4.2474 -1.59375,4.75 -1.75056,0.64582 -0.87333,1.3697 1.46875,1.21875 2.03438,-0.13049 2.32086,-0.26849 2.15625,-1.125 -0.38326,-1.99446 -0.6195,-8.77622 -0.34375,-9.875 0.18928,-0.75404 0.77245,-1.22281 1.75,-1.4375 0.80858,-0.17774 1.57603,-0.51933 1.71875,-0.75 C 872.57137,635.14127 878.3829,632.375 879.375,632.375 z m -22.5625,30.53125 c 1.13234,-0.0435 2.87439,0.17277 4.03125,0.65625 0.92762,0.38735 2.65266,0.87226 3.8125,1.03125 2.32445,0.3182 16.23468,-0.47135 17.875,-1 1.00526,-0.32384 1.02044,-0.15484 1.3125,6.46875 0.23881,5.41512 0.57513,7.61687 1.59375,10.75 0.70353,2.16379 1.55929,4.36529 1.90625,4.90625 0.34688,0.54094 0.79769,1.54247 0.96875,2.21875 0.33534,1.32576 0.86231,2.08419 6.3125,8.3125 1.9324,2.20824 2.375,3.00801 2.375,4.5625 0,2.20123 -0.1336,2.24355 -5.03125,1.21875 -1.87949,-0.39299 -3.74036,-1.12727 -4.375,-1.71875 -0.6102,-0.56853 -1.37712,-1.0625 -1.6875,-1.0625 -0.68678,0 -7.09375,-6.57799 -7.09375,-7.28125 0,-0.27536 -1.09152,-2.22396 -2.40625,-4.34375 -2.37495,-3.82938 -4.57332,-7.73113 -6.75,-11.96875 l -1.125,-2.21875 -0.0312,2.09375 c -0.0176,1.42642 0.3836,2.73949 1.21875,4.0625 0.67619,1.07121 1.21875,2.14054 1.21875,2.375 0,0.23434 0.42779,0.93872 0.96875,1.5625 0.54095,0.62366 1,1.35954 1,1.65625 0.002,0.29673 0.97218,2.08364 2.1875,3.96875 1.21534,1.88521 2.21875,3.58204 2.21875,3.78125 0,0.19895 0.86344,1.623 1.9375,3.15625 2.97547,4.24763 4.20014,7.04814 4.21875,9.8125 0.0124,1.80711 -0.17372,2.4521 -0.71875,2.53125 -1.25974,0.1831 -10.46151,-7.90948 -15.5,-13.65625 -0.81143,-0.92554 -2.04255,-2.78429 -2.71875,-4.125 -0.6762,-1.34094 -1.35714,-2.58413 -1.5,-2.71875 -0.68568,-0.64974 -3.02002,-7.3823 -4.625,-13.28125 -1.01257,-3.72163 -2.71875,-10.85874 -2.71875,-11.375 C 855.68733,663.02935 856.13312,662.93239 856.8125,662.90625 Z" />
  </g>
</svg>
