<?xml version="1.0" encoding="UTF-8" standalone="no"?>
<!-- Created with Inkscape (http://www.inkscape.org/) -->

<svg
   xmlns:dc="http://purl.org/dc/elements/1.1/"
   xmlns:cc="http://creativecommons.org/ns#"
   xmlns:rdf="http://www.w3.org/1999/02/22-rdf-syntax-ns#"
   xmlns:svg="http://www.w3.org/2000/svg"
   xmlns="http://www.w3.org/2000/svg"
   xmlns:sodipodi="http://sodipodi.sourceforge.net/DTD/sodipodi-0.dtd"
   xmlns:inkscape="http://www.inkscape.org/namespaces/inkscape"
   width="900"
   height="800"
   id="svg2"
   version="1.1"
   inkscape:version="0.48+devel r11738"
   sodipodi:docname="l32.svg">
  <defs
     id="defs4" />
  <sodipodi:namedview
     id="base"
     pagecolor="#ffffff"
     bordercolor="#666666"
     borderopacity="1.0"
     inkscape:pageopacity="0.0"
     inkscape:pageshadow="2"
     inkscape:zoom="2.8284271"
     inkscape:cx="709.31838"
     inkscape:cy="282.77795"
     inkscape:document-units="px"
     inkscape:current-layer="layer1"
     showgrid="false"
     showguides="true"
     inkscape:guide-bbox="true"
     inkscape:window-width="1366"
     inkscape:window-height="705"
     inkscape:window-x="-4"
     inkscape:window-y="-4"
     inkscape:window-maximized="1"
     width="0px"
     height="0px"
     fit-margin-top="0"
     fit-margin-left="0"
     fit-margin-right="0"
     fit-margin-bottom="0">
    <sodipodi:guide
       orientation="1,0"
       position="450,784"
       id="guide3178" />
    <sodipodi:guide
       orientation="0,1"
       position="-61,400"
       id="guide3180" />
  </sodipodi:namedview>
  <metadata
     id="metadata7">
    <rdf:RDF>
      <cc:Work
         rdf:about="">
        <dc:format>image/svg+xml</dc:format>
        <dc:type
           rdf:resource="http://purl.org/dc/dcmitype/StillImage" />
        <dc:title />
      </cc:Work>
    </rdf:RDF>
  </metadata>
  <g
     inkscape:label="Layer 1"
     inkscape:groupmode="layer"
     id="layer1"
     transform="translate(0,-252.36218)">
    <path
       id="rect194"
       transform="translate(0,252.36218)"
       style="fill:#ff0000;fill-opacity:1;stroke:none"
       d="m 880.75,488.53125 c -0.69012,-0.005 -1.4206,0.21722 -2.625,0.75 -6.11776,2.70618 -11.61053,8.32043 -15.125,15.4375 -2.00023,4.05051 -4.19037,10.18162 -4.5625,12.8125 -0.11477,0.81148 -0.76903,3.61786 -1.46875,6.1875 -0.69965,2.56953 -1.40036,5.08406 -1.53125,5.625 -0.13078,0.54097 -0.43127,1.54259 -0.6875,2.21875 -0.25622,0.67626 -0.82087,2.48284 -1.25,4.03125 -0.42918,1.54847 -1.41408,4.24008 -2.1875,5.9375 -0.77346,1.69727 -1.57522,3.88787 -1.75,4.875 -0.17482,0.98713 -0.63266,2.07539 -1.03125,2.40625 -0.39854,0.3306 -0.71875,0.84907 -0.71875,1.1875 0,0.33819 -0.45403,1.64066 -1,2.875 -0.84851,1.91808 -0.90923,2.56562 -0.46875,4.53125 0.50974,2.27442 3.06906,6.625 3.90625,6.625 0.23818,0 0.76777,0.33025 1.15625,0.71875 0.38851,0.3885 1.70945,1.35764 2.96875,2.15625 2.06663,1.31061 2.52905,1.3861 4.40625,0.96875 1.14392,-0.25444 2.83457,-0.9763 3.78125,-1.625 2.87179,-1.96793 3.97232,-2.2093 5.90625,-1.25 0.94666,0.46962 2.29895,1.01162 3.03125,1.1875 0.73237,0.17586 1.9378,0.86762 2.6875,1.5625 1.22068,1.1313 1.66252,1.21034 4.09375,0.96875 8.78281,-0.87318 9.42117,-1.07279 12.28125,-4.34375 l 1.65625,-1.84375 L 891.9375,558 c -0.18475,-3.21122 -0.62372,-5.51478 -1.53125,-7.875 -0.70437,-1.83182 -1.28125,-3.9499 -1.28125,-4.71875 0,-0.76875 -0.45904,-1.96847 -1,-2.65625 -0.54096,-0.68774 -0.96875,-1.46488 -0.96875,-1.71875 0,-0.25389 -0.3733,-1.20439 -0.84375,-2.125 -0.68716,-1.34472 -0.91783,-3.34664 -1.0625,-10.0625 -0.24644,-11.42964 0.67108,-15.38097 5.9375,-26.21875 3.17948,-6.54294 3.35325,-7.79966 1.1875,-9.21875 -0.99339,-0.65088 -1.55638,-0.64004 -3.34375,-0.15625 -2.37706,0.64329 -5.59814,2.15523 -6.90625,3.28125 -1.57077,1.35216 -1.00097,-0.46535 0.625,-2 2.71466,-2.56216 2.43261,-4.70999 -0.71875,-5.75 C 881.53562,488.61768 881.16407,488.53499 880.75,488.53125 z m -0.375,1.5 c 0.42086,0.0178 0.78539,0.19556 1.25,0.5 1.46143,0.95754 1.41507,1.14964 -0.625,3.25 -1.77526,1.82774 -4.52993,7.36832 -6.75,13.46875 -1.20713,3.31709 -2.40369,6.27886 -3.3125,8.34375 -0.58079,1.31969 -1.96875,7.94744 -1.96875,9.375 0,0.6271 0.20166,1.26046 0.4375,1.40625 0.53546,0.33095 2.50954,-5.4567 2.53125,-7.40625 0.0174,-1.55082 1.44297,-6.13051 2.25,-7.1875 0.27129,-0.35518 0.87593,-1.67068 1.34375,-2.9375 2.1365,-5.78569 10.51516,-14.18175 14.15625,-14.1875 2.80853,-0.005 2.83091,1.77305 0.0625,5.9375 -0.7999,1.20331 -1.8593,3.26888 -2.34375,4.5625 -0.48444,1.29358 -1.0509,2.48243 -1.28125,2.625 -0.23037,0.14238 -0.4375,0.58352 -0.4375,1 0,0.41649 -0.31718,1.42882 -0.6875,2.28125 -0.37026,0.85225 -0.91699,3.22141 -1.21875,5.25 -0.63849,4.29196 -0.86471,17.62746 -0.34375,20.21875 0.46434,2.30981 0.14397,2.37341 -7.34375,1.71875 -8.69459,-0.76025 -15.9569,-0.46504 -18.71875,0.71875 -1.23558,0.5297 -2.38701,0.96875 -2.5,0.96875 -0.51036,0 0.30018,-3.40496 2.3125,-10.09375 1.23181,-4.09438 2.03434,-7.06188 3.875,-14.09375 1.42313,-5.43669 4.17488,-11.95563 6.5,-15.4375 1.87778,-2.81184 9.02853,-9.17477 11.15625,-9.90625 C 879.45694,490.15248 879.95415,490.01353 880.375,490.03125 Z M 863.15625,539.5 c 0.52323,-0.008 1.09979,-0.009 1.71875,0 2.97103,0.0451 7.10572,0.29275 12.9375,0.71875 3.00428,0.21952 4.59733,0.59015 5.6875,1.3125 1.47931,0.98012 3.66084,4.36323 3.65625,5.6875 -7.9e-4,0.36392 0.33692,1.36556 0.78125,2.21875 1.52935,2.93642 1.68493,3.28125 1.28125,3.28125 -0.22267,0 -0.73335,-0.73817 -1.15625,-1.625 -0.82441,-1.72875 -3.35643,-4.92495 -3.65625,-4.625 -0.0998,0.0997 0.47607,1.94995 1.28125,4.15625 0.8052,2.20653 1.65745,5.31533 1.90625,6.875 0.66743,4.18397 -0.33994,5.70617 -5.28125,8.09375 -4.297,2.07614 -4.40941,2.10431 -5.75,1.1875 -0.53352,-0.3644 -2.05384,-1.04187 -3.40625,-1.53125 -3.70525,-1.34093 -4.30949,-2.10372 -3.75,-4.59375 0.61508,-2.73737 -0.2136,-2.66564 -2.3125,0.1875 -1.63503,2.22275 -2.78754,2.8804 -8.125,4.6875 -2.85096,0.96587 -2.87468,0.96587 -4.4375,0 -4.24495,-2.62342 -5.06319,-5.72089 -3.21875,-11.84375 1.32799,-4.40857 4.41143,-11.12726 5.8125,-12.625 C 858.06538,540.05727 859.49361,539.55539 863.15625,539.5 Z M 849.625,550.96875 c 0.0598,-0.0185 0.10051,-0.004 0.15625,0.0312 0.21341,0.13187 0.11134,1.42377 -0.25,2.84375 -0.36131,1.41973 -0.72586,3.1051 -0.8125,3.78125 -0.11028,0.86042 -0.30795,1.03658 -0.59375,0.59375 C 847.42033,557.12727 848.72726,551.24579 849.625,550.96875 z m 39.9375,3.125 c 0.2217,-0.0975 0.58143,1.83965 0.90625,5.625 0.18505,2.15632 0.0647,2.84663 -0.4375,2.84375 -0.49705,-0.004 -0.67841,-1.12094 -0.71875,-4.46875 C 889.28075,555.46611 889.39008,554.16963 889.5625,554.09375 Z" />
  </g>
</svg>
