<?xml version="1.0" encoding="UTF-8" standalone="no"?>
<!-- Created with Inkscape (http://www.inkscape.org/) -->

<svg
   xmlns:dc="http://purl.org/dc/elements/1.1/"
   xmlns:cc="http://creativecommons.org/ns#"
   xmlns:rdf="http://www.w3.org/1999/02/22-rdf-syntax-ns#"
   xmlns:svg="http://www.w3.org/2000/svg"
   xmlns="http://www.w3.org/2000/svg"
   xmlns:sodipodi="http://sodipodi.sourceforge.net/DTD/sodipodi-0.dtd"
   xmlns:inkscape="http://www.inkscape.org/namespaces/inkscape"
   width="800"
   height="700"
   id="svg2"
   version="1.1"
   inkscape:version="0.48.2 r9819"
   sodipodi:docname="f32.svg">
  <defs
     id="defs4" />
  <sodipodi:namedview
     id="base"
     pagecolor="#ffffff"
     bordercolor="#666666"
     borderopacity="1.0"
     inkscape:pageopacity="0.0"
     inkscape:pageshadow="2"
     inkscape:zoom="2.5"
     inkscape:cx="681.25906"
     inkscape:cy="111.67183"
     inkscape:document-units="px"
     inkscape:current-layer="layer1"
     showgrid="false"
     showguides="true"
     inkscape:guide-bbox="true"
     inkscape:window-width="1366"
     inkscape:window-height="746"
     inkscape:window-x="-8"
     inkscape:window-y="-8"
     inkscape:window-maximized="1"
     width="0px"
     height="0px"
     fit-margin-top="0"
     fit-margin-left="0"
     fit-margin-right="0"
     fit-margin-bottom="0">
    <sodipodi:guide
       orientation="1,0"
       position="400.22244,349.31075"
       id="guide3178" />
    <sodipodi:guide
       orientation="0,1"
       position="400.22244,349.31075"
       id="guide3180" />
  </sodipodi:namedview>
  <metadata
     id="metadata7">
    <rdf:RDF>
      <cc:Work
         rdf:about="">
        <dc:format>image/svg+xml</dc:format>
        <dc:type
           rdf:resource="http://purl.org/dc/dcmitype/StillImage" />
        <dc:title></dc:title>
      </cc:Work>
    </rdf:RDF>
  </metadata>
  <g
     inkscape:label="Layer 1"
     inkscape:groupmode="layer"
     id="layer1"
     transform="translate(0,-352.36218)">
    <path
       id="rect3400"
       transform="translate(0,352.36218)"
       style="fill:#ff0000"
       d="m 758.96875,517.375 -2.65625,1.25 c -2.28882,1.05774 -4.53125,2.81165 -4.53125,3.5625 0,0.22429 -2.74304,6.35135 -3.46875,7.71875 -0.62165,1.17146 -0.49608,8.25343 0.1875,10.15625 0.66959,1.86378 3.27371,6.33583 4.46875,7.65625 0.42109,0.46542 2.32967,1.6219 4.25,2.5625 3.16431,1.54956 3.73781,1.67294 5.90625,1.4375 1.448,-0.15468 3.77958,-0.90974 5.9375,-1.9375 2.97357,-1.41594 4.2561,-1.77547 7.71875,-2.09375 4.89872,-0.45037 6.27381,-1.19201 9.875,-5.28125 2.94403,-3.34286 3.36531,-4.46931 3.40625,-9.59375 0.0292,-3.66895 -0.12568,-4.43962 -1.15625,-6.53125 -0.64212,-1.30306 -1.26889,-2.44351 -1.4375,-2.5625 -0.1686,-0.1195 -0.89556,-1.21537 -1.59375,-2.40625 -2.25508,-3.84628 -2.52362,-3.9375 -15.5625,-3.9375 l -11.34375,0 z m 19.21875,1.53125 c 3.12206,-0.0133 6.12211,2.21315 7.9375,5.875 1.75684,3.54353 1.89585,4.11044 1.125,4.40625 -0.92603,0.35526 -1.9375,-0.64862 -1.9375,-1.90625 0,-1.47317 -0.97575,-1.00512 -1.40625,0.65625 -0.18947,0.73105 -0.59432,1.52241 -0.90625,1.78125 -0.84321,0.69985 -3.7512,0.95007 -5.9375,0.5 -2.4601,-0.50625 -2.80777,-0.88262 -2.15625,-2.3125 0.53668,-1.17786 0.33481,-1.8956 -0.40625,-1.4375 -0.2261,0.1397 -0.75035,0.95718 -1.15625,1.8125 -1.06337,2.2409 -1.74482,1.69467 -1.90625,-1.5625 -0.20872,-4.2122 0.47689,-5.93382 2.6875,-6.9375 1.01456,-0.46043 2.82089,-0.875 4.0625,-0.875 z m -11.375,0.0625 c 2.07771,-0.002 3.57628,0.0764 3.75,0.25 0.25532,0.25537 0.2422,0.8967 -0.0625,1.6875 -0.26832,0.6969 -0.4627,3.2528 -0.4375,5.6875 0.0441,4.24799 -0.0211,4.44612 -0.96875,4.71875 -0.54338,0.15629 -1.26603,0.38005 -1.625,0.46875 -0.35889,0.0881 -1.42626,-0.16414 -2.375,-0.5 -1.29244,-0.45758 -2.20483,-0.47442 -3.625,-0.15625 -1.39439,0.31198 -2.20516,0.25307 -3.0625,-0.15625 -1.01299,-0.48349 -1.19818,-0.83013 -1.3125,-2.8125 -0.19232,-3.33604 -1.375,-2.82469 -1.375,0.59375 0,1.83991 -0.65606,2.15626 -2.75,1.28125 -1.35104,-0.56441 -1.59375,-0.89643 -1.59375,-2 0,-1.50681 1.71111,-5.07453 2.90625,-6.09375 0.44462,-0.37924 1.67334,-1.15214 2.75,-1.71875 1.69304,-0.891 2.6979,-1.06834 7.53125,-1.21875 0.79142,-0.0242 1.55741,-0.0305 2.25,-0.0312 z m -15.6875,12.125 c 0.59268,-0.0232 1.25538,0.30872 1.875,0.96875 0.90136,0.95999 0.90256,1.04143 0.21875,4.15625 -0.64389,2.93281 -0.62778,3.24704 0.0312,3.90625 0.96315,0.96314 1.47483,0.3273 0.78125,-0.96875 -0.48557,-0.90724 -0.45523,-1.27493 0.4375,-3.0625 1.55532,-3.11422 2.24838,-3.4375 7.25,-3.09375 2.33135,0.16036 4.91259,0.32722 5.75,0.375 0.83743,0.0475 1.56537,0.25794 1.625,0.4375 0.50905,1.52704 -1.26059,3.75241 -4.03125,5.09375 -1.87609,0.9083 -2.61177,2.1875 -1.28125,2.1875 0.94588,0 4.125,-1.32122 4.125,-1.71875 0,-0.18761 0.3411,-0.49936 0.75,-0.65625 0.8325,-0.31938 1.78582,0.69791 3.21875,3.40625 1.28169,2.4224 0.87139,3.39057 -2.25,5.125 -1.46361,0.81336 -3.07904,1.70441 -3.59375,2 -0.51478,0.29552 -2.24968,0.52793 -3.84375,0.53125 -2.42357,0.005 -3.35101,-0.2225 -5.65625,-1.40625 -2.86528,-1.47133 -3.29273,-2.0357 -6.4375,-8.375 -0.9816,-1.97854 -1.20718,-6.02343 -0.40625,-7.78125 0.31747,-0.69631 0.84486,-1.10186 1.4375,-1.125 z m 35.28125,0 c 0.7875,0 1.23694,0.32953 1.59375,1.1875 0.70354,1.69105 0.62807,4.45677 -0.1875,6.03125 -1.00585,1.94153 -3.6665,4.97262 -5.53125,6.34375 -1.19129,0.87618 -2.34166,1.26096 -4.40625,1.46875 -1.53866,0.15579 -2.94558,0.12175 -3.125,-0.0625 -0.17946,-0.18418 -0.3125,-1.2385 -0.3125,-2.375 0,-1.13662 -0.1738,-2.1395 -0.375,-2.21875 -0.20124,-0.0797 -1.08653,-1.11772 -1.96875,-2.28125 -1.26883,-1.67365 -1.49326,-2.23748 -1.09375,-2.71875 0.6152,-0.74141 1.56762,-0.0795 2.15625,1.46875 0.20843,0.54832 0.59859,0.96875 0.84375,0.96875 0.74934,0 0.50718,-1.7392 -0.5,-3.53125 -0.8851,-1.57479 -0.94271,-1.74482 -0.28125,-2.40625 0.73173,-0.73145 1.85218,-0.8242 6.9375,-0.65625 2.80699,0.0928 2.90973,0.14778 3.78125,1.625 0.49409,0.83736 1.22679,1.53125 1.59375,1.53125 0.74277,0 0.89759,-1.11174 0.21875,-1.53125 -0.23927,-0.14785 -0.4375,-0.85889 -0.4375,-1.5625 0,-1.07793 0.16827,-1.28125 1.09375,-1.28125 z" />
  </g>
</svg>
