<?xml version="1.0" encoding="UTF-8" standalone="no"?>
<!-- Created with Inkscape (http://www.inkscape.org/) -->

<svg
   xmlns:dc="http://purl.org/dc/elements/1.1/"
   xmlns:cc="http://creativecommons.org/ns#"
   xmlns:rdf="http://www.w3.org/1999/02/22-rdf-syntax-ns#"
   xmlns:svg="http://www.w3.org/2000/svg"
   xmlns="http://www.w3.org/2000/svg"
   xmlns:sodipodi="http://sodipodi.sourceforge.net/DTD/sodipodi-0.dtd"
   xmlns:inkscape="http://www.inkscape.org/namespaces/inkscape"
   width="900"
   height="800"
   id="svg2"
   version="1.1"
   inkscape:version="0.48+devel r11738"
   sodipodi:docname="m32.svg">
  <defs
     id="defs4" />
  <sodipodi:namedview
     id="base"
     pagecolor="#ffffff"
     bordercolor="#666666"
     borderopacity="1.0"
     inkscape:pageopacity="0.0"
     inkscape:pageshadow="2"
     inkscape:zoom="2"
     inkscape:cx="630.33547"
     inkscape:cy="176.11952"
     inkscape:document-units="px"
     inkscape:current-layer="layer1"
     showgrid="false"
     showguides="true"
     inkscape:guide-bbox="true"
     inkscape:window-width="1366"
     inkscape:window-height="705"
     inkscape:window-x="-4"
     inkscape:window-y="-4"
     inkscape:window-maximized="1"
     width="0px"
     height="0px"
     fit-margin-top="0"
     fit-margin-left="0"
     fit-margin-right="0"
     fit-margin-bottom="0">
    <sodipodi:guide
       orientation="1,0"
       position="450,784"
       id="guide3178" />
    <sodipodi:guide
       orientation="0,1"
       position="-61,400"
       id="guide3180" />
  </sodipodi:namedview>
  <metadata
     id="metadata7">
    <rdf:RDF>
      <cc:Work
         rdf:about="">
        <dc:format>image/svg+xml</dc:format>
        <dc:type
           rdf:resource="http://purl.org/dc/dcmitype/StillImage" />
        <dc:title />
      </cc:Work>
    </rdf:RDF>
  </metadata>
  <g
     inkscape:label="Layer 1"
     inkscape:groupmode="layer"
     id="layer1"
     transform="translate(0,-252.36218)">
    <path
       id="rect206"
       transform="translate(0,252.36218)"
       style="fill:#ff0000;fill-opacity:1;stroke:none"
       d="m 856.90625,584.90625 -3.03125,1.40625 c -2.58741,1.19574 -5.09375,3.18245 -5.09375,4.03125 -3.0282,6.33612 -5.96414,13.14308 -3.71875,20.21875 0.75695,2.10693 3.71157,7.13232 5.0625,8.625 0.47602,0.52613 2.64167,1.87422 4.8125,2.9375 3.57711,1.75173 4.20492,1.85991 6.65625,1.59375 1.6369,-0.17485 4.27932,-1.02565 6.71875,-2.1875 3.36147,-1.60065 4.80438,-2.01521 8.71875,-2.375 5.53776,-0.50913 7.08528,-1.3148 11.15625,-5.9375 3.32811,-3.77894 3.79747,-5.05081 3.84375,-10.84375 0.0331,-4.14757 -0.11623,-5.04176 -1.28125,-7.40625 -0.72587,-1.47304 -1.46563,-2.77174 -1.65625,-2.90625 -0.19058,-0.13509 -0.99197,-1.34127 -1.78125,-2.6875 -2.54926,-4.34804 -2.85391,-4.46875 -17.59375,-4.46875 L 856.90625,584.90625 z m 21.71875,1.75 c 3.52933,-0.015 6.91654,2.48545 8.96875,6.625 1.98604,4.00581 2.1214,4.66561 1.25,5 -1.04685,0.40162 -2.1875,-0.73456 -2.1875,-2.15625 0,-1.66535 -1.07583,-1.15935 -1.5625,0.71875 -0.21417,0.82642 -0.67863,1.70741 -1.03125,2 -0.95321,0.79115 -4.21598,1.10253 -6.6875,0.59375 -2.78103,-0.57231 -3.20526,-1.00859 -2.46875,-2.625 0.60671,-1.33152 0.40023,-2.14286 -0.4375,-1.625 -0.2556,0.15793 -0.85366,1.06435 -1.3125,2.03125 -1.2021,2.53323 -1.97375,1.93209 -2.15625,-1.75 -0.23595,-4.76169 0.53226,-6.70913 3.03125,-7.84375 C 875.17816,587.1045 877.22141,586.65625 878.625,586.65625 z m -12.84375,0.0625 c 2.34876,-0.002 4.02237,0.0848 4.21875,0.28125 0.28864,0.28867 0.28184,1.01229 -0.0625,1.90625 -0.30334,0.78782 -0.52849,3.68519 -0.5,6.4375 0.0498,4.80215 -0.0218,5.03555 -1.09375,5.34375 -0.61427,0.17668 -1.4067,0.39971 -1.8125,0.5 -0.4057,0.0995 -1.64627,-0.15158 -2.71875,-0.53125 -1.46106,-0.51728 -2.45708,-0.54718 -4.0625,-0.1875 -1.57631,0.35267 -2.53081,0.27521 -3.5,-0.1875 -1.14514,-0.54657 -1.33952,-0.94652 -1.46875,-3.1875 -0.21742,-3.77124 -1.53125,-3.1769 -1.53125,0.6875 0,2.07994 -0.75788,2.42668 -3.125,1.4375 -1.52728,-0.63802 -1.8125,-1.03372 -1.8125,-2.28125 0,-1.70338 1.93019,-5.72281 3.28125,-6.875 0.50261,-0.42872 1.90787,-1.29696 3.125,-1.9375 1.91388,-1.00723 3.03614,-1.20497 8.5,-1.375 C 864.11342,586.72258 864.99832,586.71956 865.78125,586.71875 z m -17.75,13.71875 c 0.66999,-0.0262 1.42456,0.31637 2.125,1.0625 1.01896,1.08522 1.023,1.19758 0.25,4.71875 -0.72791,3.31542 -0.71373,3.66104 0.0312,4.40625 1.0888,1.08879 1.65906,0.37137 0.875,-1.09375 -0.54891,-1.0256 -0.50918,-1.44799 0.5,-3.46875 1.75822,-3.52048 2.5334,-3.85736 8.1875,-3.46875 2.63549,0.18129 5.58459,0.35225 6.53125,0.40625 0.94668,0.0538 1.74508,0.26577 1.8125,0.46875 0.57544,1.72623 -1.43041,4.26491 -4.5625,5.78125 -2.12084,1.02677 -2.97285,2.5 -1.46875,2.5 1.06928,0 4.6875,-1.5506 4.6875,-2 0,-0.21207 0.38151,-0.54138 0.84375,-0.71875 0.94112,-0.36105 2.00513,0.7821 3.625,3.84375 1.44889,2.7384 0.99732,3.82056 -2.53125,5.78125 -1.65455,0.91946 -3.48065,1.94708 -4.0625,2.28125 -0.58193,0.33406 -2.54174,0.58998 -4.34375,0.59375 -2.73974,0.005 -3.80029,-0.22432 -6.40625,-1.5625 -3.23907,-1.66328 -3.72623,-2.33371 -7.28125,-9.5 -1.10966,-2.23663 -1.34292,-6.79414 -0.4375,-8.78125 C 846.76514,600.90034 847.36129,600.46364 848.03125,600.4375 z m 39.875,0 c 0.89022,0 1.40913,0.34261 1.8125,1.3125 0.79531,1.91164 0.7032,5.03263 -0.21875,6.8125 -1.13708,2.19481 -4.14199,5.63749 -6.25,7.1875 -1.34669,0.99046 -2.66607,1.42134 -5,1.65625 -1.73938,0.17611 -3.29718,0.14577 -3.5,-0.0625 -0.20288,-0.20819 -0.375,-1.40273 -0.375,-2.6875 0,-1.28489 -0.21005,-2.44165 -0.4375,-2.53125 -0.2275,-0.0901 -1.22144,-1.21593 -2.21875,-2.53125 -1.43435,-1.89199 -1.67039,-2.54969 -1.21875,-3.09375 0.69544,-0.83813 1.77208,-0.094 2.4375,1.65625 0.23561,0.61986 0.66034,1.09375 0.9375,1.09375 0.84709,0 0.57607,-1.94292 -0.5625,-3.96875 -1.00056,-1.78023 -1.029,-2.00228 -0.28125,-2.75 0.82718,-0.82688 2.06379,-0.93988 7.8125,-0.75 3.17317,0.10489 3.29605,0.17381 4.28125,1.84375 0.55856,0.94658 1.3664,1.71875 1.78125,1.71875 0.83965,0 1.01739,-1.24453 0.25,-1.71875 -0.27047,-0.16714 -0.5,-0.9546 -0.5,-1.75 C 886.65625,600.65645 886.86004,600.4375 887.90625,600.4375 Z" />
  </g>
</svg>
