<?xml version="1.0" encoding="UTF-8" standalone="no"?>
<!-- Created with Inkscape (http://www.inkscape.org/) -->

<svg
   xmlns:dc="http://purl.org/dc/elements/1.1/"
   xmlns:cc="http://creativecommons.org/ns#"
   xmlns:rdf="http://www.w3.org/1999/02/22-rdf-syntax-ns#"
   xmlns:svg="http://www.w3.org/2000/svg"
   xmlns="http://www.w3.org/2000/svg"
   xmlns:sodipodi="http://sodipodi.sourceforge.net/DTD/sodipodi-0.dtd"
   xmlns:inkscape="http://www.inkscape.org/namespaces/inkscape"
   width="800"
   height="400"
   id="svg2"
   version="1.1"
   inkscape:version="0.48.2 r9819"
   sodipodi:docname="f11.svg">
  <defs
     id="defs4" />
  <sodipodi:namedview
     id="base"
     pagecolor="#ffffff"
     bordercolor="#666666"
     borderopacity="1.0"
     inkscape:pageopacity="0.0"
     inkscape:pageshadow="2"
     inkscape:zoom="4"
     inkscape:cx="529.06561"
     inkscape:cy="305.45132"
     inkscape:document-units="px"
     inkscape:current-layer="layer1"
     showgrid="false"
     showguides="true"
     inkscape:guide-bbox="true"
     inkscape:window-width="1366"
     inkscape:window-height="746"
     inkscape:window-x="-8"
     inkscape:window-y="-8"
     inkscape:window-maximized="1"
     width="0px"
     height="0px"
     fit-margin-top="0"
     fit-margin-left="0"
     fit-margin-right="0"
     fit-margin-bottom="0">
    <sodipodi:guide
       orientation="1,0"
       position="400.22244,349.31075"
       id="guide3178" />
    <sodipodi:guide
       orientation="0,1"
       position="-117.37973,199.40411"
       id="guide3180" />
  </sodipodi:namedview>
  <metadata
     id="metadata7">
    <rdf:RDF>
      <cc:Work
         rdf:about="">
        <dc:format>image/svg+xml</dc:format>
        <dc:type
           rdf:resource="http://purl.org/dc/dcmitype/StillImage" />
        <dc:title></dc:title>
      </cc:Work>
    </rdf:RDF>
  </metadata>
  <g
     inkscape:label="Layer 1"
     inkscape:groupmode="layer"
     id="layer1"
     transform="translate(0,-652.36218)">
    <path
       id="rect3239"
       transform="translate(0,652.36218)"
       style="fill:#ff0000"
       d="m 528.625,9.96875 c -1.1553,0.01 -2.38235,0.27329 -2.96875,0.78125 -0.9323,0.80761 -3.4181,6.86465 -4.625,11.21875 -0.398,1.43559 -0.89565,3.18845 -1.09375,3.90625 -0.198,0.71778 -0.65635,2.20457 -1.03125,3.28125 -1.0653,3.05931 -2.4598,9.75456 -3.125,15 -0.3337,2.63196 -0.82755,6.0385 -1.09375,7.59375 -0.2662,1.55522 -0.6685,4.5966 -0.875,6.75 -0.2066,2.15339 -0.6412,5.5811 -1,7.59375 -0.3588,2.01272 -0.80985,5.22104 -0.96875,7.15625 -0.1589,1.93518 -0.52645,4.81766 -0.84375,6.375 -0.3173,1.55736 -0.89575,5.26132 -1.28125,8.25 -0.7499,5.81401 -0.92515,6.49706 -3.09375,12.1875 -1.8534,4.86311 -2.9706,10.02618 -2.625,12.1875 0.371,2.32038 1.80565,4.95625 3.21875,5.90625 1.6184,1.088 3.1594,1.90625 3.625,1.90625 0.4769,0 3.89245,1.67467 9.96875,4.90625 5.543,2.94794 6.9769,3.10506 10.0625,1.125 2.2275,-1.42934 6.72605,-6.62839 8.59375,-9.9375 1.007,-1.78428 1.1291,-2.41116 1.125,-6.96875 0,-4.67067 -0.12295,-5.31132 -1.65625,-9.65625 C 538.0342,96.97159 536.9505,94.02933 536.5,93 c -0.8019,-1.83224 -1.836,-7.30751 -2.6875,-14.6875 -0.5048,-4.3749 -1.27925,-28.6051 -1.65625,-50.9375 -0.2118,-12.54851 -0.4044,-16.08984 -0.875,-16.65625 -0.4157,-0.50033 -1.50095,-0.75876 -2.65625,-0.75 z m -0.375,0.875 c 0.0911,-0.02033 0.19496,-0.0046 0.28125,0 0.3186,0.0169 0.5742,0.185 0.8125,0.5625 0.1889,0.29908 0.3491,6.34791 0.375,13.40625 0.026,7.05837 0.30725,16.15124 0.59375,20.21875 0.2866,4.06752 0.80315,13.45775 1.15625,20.875 0.3531,7.41726 0.85425,14.74081 1.09375,16.28125 0.2395,1.54043 0.27635,2.92309 0.0937,3.09375 -0.1823,0.17068 -1.53315,-0.89841 -2.96875,-2.375 -3.3472,-3.4428 -5.85765,-5.10341 -7.71875,-5.15625 -2.3147,-0.0656 -5.4837,1.78218 -7.625,4.4375 l -1.90625,2.34375 0.25,-2.125 c 0.1444,-1.18042 0.46035,-4.50378 0.71875,-7.375 0.2584,-2.87116 0.7727,-7.17324 1.125,-9.5625 0.3523,-2.38926 0.80565,-6.81827 1.03125,-9.8125 0.644,-8.54672 1.5745,-15.78395 2.125,-16.8125 0.2772,-0.51795 0.7894,-2.17751 1.125,-3.6875 0.6657,-2.99494 3.12955,-11.628 4.59375,-16.0625 1.602,-4.851647 3.47763,-7.945111 4.84375,-8.25 z M 521.1875,80.25 c 0.8077,0.0153 1.72325,0.24493 2.90625,0.6875 4.6902,1.75486 8.16595,6.07843 11.15625,13.8125 0.7056,1.82505 1.4722,3.54776 1.6875,3.8125 0.2153,0.2648 0.5744,1.45417 0.8125,2.625 0.2382,1.17085 0.6734,3.2153 0.9375,4.53125 1.0192,5.07889 -0.2465,9.24605 -4.3125,14.34375 -1.7621,2.20908 -3.6465,4.07058 -4.6875,4.625 -1.5961,0.84999 -1.9257,0.88461 -4.4375,0.40625 -1.7268,-0.32885 -3.1862,-0.92273 -3.9375,-1.59375 -2.5605,-2.28667 -4.60335,-3.44978 -8.96875,-5 -3.1808,-1.12951 -5.38595,-2.77117 -5.96875,-4.5 -0.3168,-0.93966 -0.4105,-2.86952 -0.25,-5.21875 0.2663,-3.89796 0.95225,-5.86088 4.96875,-14.375 0.9594,-2.03377 2.2826,-5.20665 2.9375,-7.0625 0.9595,-2.71903 1.59155,-3.71642 3.15625,-5.09375 1.5921,-1.40157 2.6537,-2.0254 4,-2 z" />
  </g>
</svg>
