<?xml version="1.0" encoding="UTF-8" standalone="no"?>
<!-- Created with Inkscape (http://www.inkscape.org/) -->

<svg
   xmlns:dc="http://purl.org/dc/elements/1.1/"
   xmlns:cc="http://creativecommons.org/ns#"
   xmlns:rdf="http://www.w3.org/1999/02/22-rdf-syntax-ns#"
   xmlns:svg="http://www.w3.org/2000/svg"
   xmlns="http://www.w3.org/2000/svg"
   xmlns:sodipodi="http://sodipodi.sourceforge.net/DTD/sodipodi-0.dtd"
   xmlns:inkscape="http://www.inkscape.org/namespaces/inkscape"
   width="800"
   height="700"
   id="svg2"
   version="1.1"
   inkscape:version="0.48.2 r9819"
   sodipodi:docname="l10.svg">
  <defs
     id="defs4" />
  <sodipodi:namedview
     id="base"
     pagecolor="#ffffff"
     bordercolor="#666666"
     borderopacity="1.0"
     inkscape:pageopacity="0.0"
     inkscape:pageshadow="2"
     inkscape:zoom="2.5"
     inkscape:cx="413.58754"
     inkscape:cy="624.08823"
     inkscape:document-units="px"
     inkscape:current-layer="layer1"
     showgrid="false"
     showguides="true"
     inkscape:guide-bbox="true"
     inkscape:window-width="1366"
     inkscape:window-height="746"
     inkscape:window-x="-8"
     inkscape:window-y="-8"
     inkscape:window-maximized="1"
     width="0px"
     height="0px"
     fit-margin-top="0"
     fit-margin-left="0"
     fit-margin-right="0"
     fit-margin-bottom="0">
    <sodipodi:guide
       orientation="1,0"
       position="400.22244,349.31075"
       id="guide3178" />
    <sodipodi:guide
       orientation="0,1"
       position="400.22244,349.31075"
       id="guide3180" />
  </sodipodi:namedview>
  <metadata
     id="metadata7">
    <rdf:RDF>
      <cc:Work
         rdf:about="">
        <dc:format>image/svg+xml</dc:format>
        <dc:type
           rdf:resource="http://purl.org/dc/dcmitype/StillImage" />
        <dc:title></dc:title>
      </cc:Work>
    </rdf:RDF>
  </metadata>
  <g
     inkscape:label="Layer 1"
     inkscape:groupmode="layer"
     id="layer1"
     transform="translate(0,-352.36218)">
    <path
       id="rect3134"
       transform="translate(0,352.36218)"
       style="fill:#ff0000"
       d="m 527.0625,18.25 c -1.15529,0.01 -2.35114,0.27329 -2.9375,0.78125 -0.93229,0.80761 -3.44933,6.86465 -4.65625,11.21875 -0.39793,1.43559 -0.86447,3.18845 -1.0625,3.90625 -0.19801,0.71778 -0.68758,2.20457 -1.0625,3.28125 -1.06535,3.05931 -2.42858,9.72331 -3.09375,14.96875 -0.33375,2.63196 -0.85879,6.06975 -1.125,7.625 -0.26614,1.55522 -0.63722,4.5966 -0.84375,6.75 -0.20656,2.15339 -0.67242,5.54985 -1.03125,7.5625 -0.35879,2.01272 -0.77861,5.25229 -0.9375,7.1875 -0.15885,1.93518 -0.5577,4.78641 -0.875,6.34375 -0.31731,1.55736 -0.86453,5.29257 -1.25,8.28125 -0.74993,5.81401 -0.95633,6.49706 -3.125,12.1875 -1.77622,5.30232 -4.98379,14.0974 0.59375,18.09375 1.61837,1.088 3.1594,1.90625 3.625,1.90625 0.47688,0 3.89245,1.64342 9.96875,4.875 5.54302,2.94794 6.97693,3.13631 10.0625,1.15625 2.22749,-1.42934 6.7573,-6.62839 8.625,-9.9375 1.00701,-1.78428 1.09782,-2.44241 1.09375,-7 -0.004,-4.67067 -0.12295,-5.31132 -1.65625,-9.65625 -0.90329,-2.55966 -1.98701,-5.47067 -2.4375,-6.5 -0.8019,-1.83224 -1.8047,-7.30751 -2.65625,-14.6875 -0.50476,-4.3749 -1.31054,-28.6051 -1.6875,-50.9375 C 530.38194,23.10774 530.22057,19.56641 529.75,19 c -0.41571,-0.50033 -1.53218,-0.75876 -2.6875,-0.75 z m -0.0937,0.84375 c 0.3186,0.0169 0.60538,0.21625 0.84375,0.59375 0.18887,0.29908 0.34916,6.31666 0.375,13.375 0.0257,7.05837 0.27596,16.18249 0.5625,20.25 0.28659,4.06752 0.83437,13.4265 1.1875,20.84375 0.35307,7.41726 0.82301,14.77206 1.0625,16.3125 0.2395,1.54043 0.27611,2.92309 0.0937,3.09375 -0.18227,0.17068 -1.5019,-0.89841 -2.9375,-2.375 -3.3472,-3.4428 -5.8577,-5.13466 -7.71875,-5.1875 -2.31475,-0.0656 -5.51495,1.81343 -7.65625,4.46875 l -1.90625,2.34375 0.25,-2.125 c 0.14433,-1.18042 0.46036,-4.50378 0.71875,-7.375 0.2584,-2.87116 0.77271,-7.17324 1.125,-9.5625 0.35231,-2.38926 0.80563,-6.81827 1.03125,-9.8125 0.644,-8.54672 1.60581,-15.78395 2.15625,-16.8125 0.27719,-0.51795 0.75812,-2.17751 1.09375,-3.6875 0.66571,-2.99494 3.12951,-11.65925 4.59375,-16.09375 1.70874,-5.17509 3.7444,-8.32366 5.125,-8.25 z m -7.8125,69.4375 c 0.16101,-0.01738 0.30047,-0.0032 0.46875,0 0.80776,0.0153 1.72334,0.24493 2.90625,0.6875 4.69029,1.75486 8.19721,6.07843 11.1875,13.8125 0.70562,1.82505 1.44097,3.54776 1.65625,3.8125 0.21527,0.2648 0.60558,1.42292 0.84375,2.59375 0.23821,1.17085 0.64212,3.24655 0.90625,4.5625 1.01919,5.07889 -0.24649,9.24605 -4.3125,14.34375 -1.76206,2.20908 -3.61526,4.03933 -4.65625,4.59375 -1.5961,0.84999 -1.95694,0.91586 -4.46875,0.4375 -1.72684,-0.32885 -3.18613,-0.92273 -3.9375,-1.59375 -2.56052,-2.28667 -4.60335,-3.44978 -8.96875,-5 -3.18082,-1.12951 -5.35466,-2.77117 -5.9375,-4.5 -0.31676,-0.93966 -0.41046,-2.86952 -0.25,-5.21875 0.26631,-3.89796 0.92102,-5.86088 4.9375,-14.375 0.95942,-2.03377 2.31393,-5.2379 2.96875,-7.09375 0.95949,-2.71903 1.56031,-3.68517 3.125,-5.0625 1.39323,-1.226374 2.40418,-1.878323 3.53125,-2 z" />
  </g>
</svg>
