<?xml version="1.0" encoding="UTF-8" standalone="no"?>
<!-- Created with Inkscape (http://www.inkscape.org/) -->

<svg
   xmlns:dc="http://purl.org/dc/elements/1.1/"
   xmlns:cc="http://creativecommons.org/ns#"
   xmlns:rdf="http://www.w3.org/1999/02/22-rdf-syntax-ns#"
   xmlns:svg="http://www.w3.org/2000/svg"
   xmlns="http://www.w3.org/2000/svg"
   xmlns:sodipodi="http://sodipodi.sourceforge.net/DTD/sodipodi-0.dtd"
   xmlns:inkscape="http://www.inkscape.org/namespaces/inkscape"
   width="900"
   height="800"
   id="svg2"
   version="1.1"
   inkscape:version="0.48.2 r9819"
   sodipodi:docname="adult.svg">
  <defs
     id="defs4" />
  <sodipodi:namedview
     id="base"
     pagecolor="#ffffff"
     bordercolor="#666666"
     borderopacity="1.0"
     inkscape:pageopacity="0.0"
     inkscape:pageshadow="2"
     inkscape:zoom="2.8284271"
     inkscape:cx="509.02606"
     inkscape:cy="726.63568"
     inkscape:document-units="px"
     inkscape:current-layer="layer1"
     showgrid="false"
     showguides="true"
     inkscape:guide-bbox="true"
     inkscape:window-width="1366"
     inkscape:window-height="746"
     inkscape:window-x="-8"
     inkscape:window-y="-8"
     inkscape:window-maximized="1"
     width="0px"
     height="0px"
     fit-margin-top="0"
     fit-margin-left="0"
     fit-margin-right="0"
     fit-margin-bottom="0">
    <sodipodi:guide
       orientation="1,0"
       position="450,784"
       id="guide3178" />
    <sodipodi:guide
       orientation="0,1"
       position="-61,400"
       id="guide3180" />
  </sodipodi:namedview>
  <metadata
     id="metadata7">
    <rdf:RDF>
      <cc:Work
         rdf:about="">
        <dc:format>image/svg+xml</dc:format>
        <dc:type
           rdf:resource="http://purl.org/dc/dcmitype/StillImage" />
        <dc:title></dc:title>
      </cc:Work>
    </rdf:RDF>
  </metadata>
  <g
     inkscape:label="Layer 1"
     inkscape:groupmode="layer"
     id="layer1"
     transform="translate(0,-252.36218)">
    <path
       id="rect3009"
       transform="translate(0,252.36218)"
       style="fill:#ff0000"
       d="m 594.75,20.65625 c -1.30602,0.0103 -2.68089,0.33203 -3.34375,0.90625 -1.05391,0.91296 -3.88563,7.73413 -5.25,12.65625 -0.44984,1.62285 -0.9949,3.62607 -1.21875,4.4375 -0.22385,0.81142 -0.76366,2.47036 -1.1875,3.6875 -1.20433,3.4584 -2.74806,11.00777 -3.5,16.9375 -0.37729,2.97529 -0.98032,6.86687 -1.28125,8.625 -0.30088,1.7581 -0.73526,5.19068 -0.96875,7.625 -0.23349,2.4343 -0.71937,6.28727 -1.125,8.5625 -0.4056,2.27527 -0.91413,5.93734 -1.09375,8.125 -0.17958,2.18765 -0.61005,5.39575 -0.96875,7.15625 -0.3587,1.76052 -1.00173,5.9652 -1.4375,9.34375 -0.84776,6.57247 -1.04843,7.34847 -3.5,13.78125 -2.09518,5.49752 -3.35941,11.33798 -2.96875,13.78125 0.41943,2.62308 2.02755,5.61357 3.625,6.6875 1.82949,1.22993 3.5674,2.15625 4.09375,2.15625 0.53909,0 4.41228,1.8781 11.28125,5.53125 6.26612,3.33251 7.8869,3.51961 11.375,1.28125 2.51806,-1.6158 7.63865,-7.47795 9.75,-11.21875 1.13838,-2.01704 1.25461,-2.75412 1.25,-7.90625 -0.004,-5.27998 -0.14169,-5.9945 -1.875,-10.90625 -1.02113,-2.89357 -2.24072,-6.21138 -2.75,-7.375 -0.9065,-2.07127 -2.06863,-8.28226 -3.03125,-16.625 -0.57063,-4.94563 -1.48011,-32.31677 -1.90625,-57.5625 -0.23944,-14.1855 -0.43679,-18.17219 -0.96875,-18.8125 -0.46993,-0.5656 -1.69398,-0.88491 -3,-0.875 z m -0.125,0.96875 c 0.36016,0.0191 0.66802,0.2295 0.9375,0.65625 0.21349,0.3381 0.40831,7.17711 0.4375,15.15625 0.029,7.97913 0.33232,18.24562 0.65625,22.84375 0.32398,4.59814 0.9133,15.2089 1.3125,23.59375 0.39912,8.38486 0.948,16.6961 1.21875,18.4375 0.27075,1.74137 0.33111,3.30706 0.125,3.5 -0.20606,0.19294 -1.72087,-1.01828 -3.34375,-2.6875 -3.78386,-3.89193 -6.61492,-5.78403 -8.71875,-5.84375 -2.61672,-0.0742 -6.23562,2.02953 -8.65625,5.03125 l -2.15625,2.65625 0.28125,-2.40625 c 0.16314,-1.33442 0.52039,-5.09798 0.8125,-8.34375 0.2921,-3.24572 0.88301,-8.11154 1.28125,-10.8125 0.39829,-2.70094 0.93244,-7.7089 1.1875,-11.09375 0.72801,-9.66166 1.78401,-17.86853 2.40625,-19.03125 0.31335,-0.58552 0.87059,-2.44928 1.25,-4.15625 0.75256,-3.38564 3.53226,-13.14325 5.1875,-18.15625 1.93166,-5.85019 4.22057,-9.42703 5.78125,-9.34375 z m -8.28125,78.46875 c 0.91313,0.0173 1.91279,0.3122 3.25,0.8125 5.30216,1.98379 9.27586,6.85074 12.65625,15.59375 0.79766,2.06313 1.66289,4.01323 1.90625,4.3125 0.24336,0.29935 0.66827,1.61393 0.9375,2.9375 0.26927,1.32358 0.73267,3.66862 1.03125,5.15625 1.15217,5.74144 -0.27857,10.45605 -4.875,16.21875 -1.99191,2.49728 -4.10446,4.592 -5.28125,5.21875 -1.80432,0.96088 -2.19178,1.00952 -5.03125,0.46875 -1.95211,-0.37175 -3.61937,-1.05395 -4.46875,-1.8125 -2.89457,-2.58498 -5.22135,-3.87254 -10.15625,-5.625 -3.59575,-1.27685 -6.02862,-3.1394 -6.6875,-5.09375 -0.35808,-1.06224 -0.49389,-3.25056 -0.3125,-5.90625 0.30104,-4.40646 1.08454,-6.62518 5.625,-16.25 1.08457,-2.29909 2.57225,-5.90206 3.3125,-8 1.08464,-3.07373 1.79369,-4.19301 3.5625,-5.75 1.79997,-1.58442 3.00937,-2.30996 4.53125,-2.28125 z" />
  </g>
</svg>
