<?xml version="1.0" encoding="UTF-8" standalone="no"?>
<!-- Created with Inkscape (http://www.inkscape.org/) -->

<svg
   xmlns:dc="http://purl.org/dc/elements/1.1/"
   xmlns:cc="http://creativecommons.org/ns#"
   xmlns:rdf="http://www.w3.org/1999/02/22-rdf-syntax-ns#"
   xmlns:svg="http://www.w3.org/2000/svg"
   xmlns="http://www.w3.org/2000/svg"
   xmlns:sodipodi="http://sodipodi.sourceforge.net/DTD/sodipodi-0.dtd"
   xmlns:inkscape="http://www.inkscape.org/namespaces/inkscape"
   width="800"
   height="700"
   id="svg2"
   version="1.1"
   inkscape:version="0.48.2 r9819"
   sodipodi:docname="m11.svg">
  <defs
     id="defs4" />
  <sodipodi:namedview
     id="base"
     pagecolor="#ffffff"
     bordercolor="#666666"
     borderopacity="1.0"
     inkscape:pageopacity="0.0"
     inkscape:pageshadow="2"
     inkscape:zoom="2.8284271"
     inkscape:cx="535.8864"
     inkscape:cy="420.20799"
     inkscape:document-units="px"
     inkscape:current-layer="layer1"
     showgrid="false"
     showguides="true"
     inkscape:guide-bbox="true"
     inkscape:window-width="1366"
     inkscape:window-height="746"
     inkscape:window-x="-8"
     inkscape:window-y="-8"
     inkscape:window-maximized="1"
     width="0px"
     height="0px"
     fit-margin-top="0"
     fit-margin-left="0"
     fit-margin-right="0"
     fit-margin-bottom="0">
    <sodipodi:guide
       orientation="1,0"
       position="400.22244,349.31075"
       id="guide3178" />
    <sodipodi:guide
       orientation="0,1"
       position="400.22244,349.31075"
       id="guide3180" />
  </sodipodi:namedview>
  <metadata
     id="metadata7">
    <rdf:RDF>
      <cc:Work
         rdf:about="">
        <dc:format>image/svg+xml</dc:format>
        <dc:type
           rdf:resource="http://purl.org/dc/dcmitype/StillImage" />
        <dc:title></dc:title>
      </cc:Work>
    </rdf:RDF>
  </metadata>
  <g
     inkscape:label="Layer 1"
     inkscape:groupmode="layer"
     id="layer1"
     transform="translate(0,-352.36218)">
    <path
       id="rect3103"
       transform="translate(0,352.36218)"
       style="fill:#ff0000"
       d="m 522.875,205.8125 c -1.3447,-0.0508 -2.70132,0.29878 -4.28125,0.9375 -2.82635,1.14264 -8.35847,6.53686 -10.40625,10.125 -0.68276,1.19635 -1.45106,2.28134 -1.6875,2.4375 -0.66803,0.44123 -0.0826,6.0996 1.21875,11.6875 0.64078,2.75157 1.66586,7.14932 2.28125,9.78125 1.23383,5.27717 2.23309,10.87656 3.5625,19.78125 0.48223,3.23006 1.00883,6.1609 1.125,6.46875 0.36923,0.978 1.83502,12.25705 2.375,18.125 0.28629,3.11048 0.82318,7.47686 1.15625,9.6875 0.33301,2.21064 0.59375,4.76388 0.59375,5.6875 0,1.98989 3.09643,14.48489 4.4375,17.90625 0.51579,1.31596 1.28288,2.8669 1.71875,3.4375 0.43581,0.57062 0.78125,1.19717 0.78125,1.40625 0,0.41308 1.77402,2.55674 3.4375,4.15625 1.40307,1.34904 5.02621,1.48139 5.71875,0.1875 1.0032,-1.8746 0.94118,-4.67525 -0.15625,-10.5 -2.01831,-10.71226 -2.1242,-11.49968 -2.46875,-15.21875 -0.46783,-5.05006 -0.46774,-25.57808 0,-36.96875 0.381,-9.27912 1.36297,-16.06597 2.8125,-19.34375 0.31737,-0.71778 0.73988,-2.44768 0.90625,-3.84375 0.29564,-2.48169 1.63192,-5.88975 3.59375,-9.0625 1.41982,-2.29609 1.94291,-7.20301 1.09375,-10.0625 -1.00038,-3.36854 -2.44073,-5.3681 -7.375,-10.1875 -4.64941,-4.54116 -7.47909,-6.51324 -10.4375,-6.625 z m -0.5,1.34375 c 2.67353,-0.0282 5.42559,2.02863 10.5625,7.09375 l 5.28125,5.21875 L 539,223.25 l 0.8125,3.78125 -1,2.375 c -0.54692,1.31951 -1.74411,3.38221 -2.65625,4.53125 -3.52565,4.44141 -4.40393,5.63958 -6,8.375 -0.90742,1.55523 -1.75702,3.32068 -1.90625,3.9375 -0.14918,0.6168 -0.77104,1.66085 -1.375,2.3125 -0.60391,0.65167 -1.125,1.35309 -1.125,1.5625 0,0.20943 -0.58919,0.71734 -1.34375,1.09375 -0.75454,0.37643 -1.41443,0.66152 -1.4375,0.65625 -0.023,-0.005 -0.82216,-0.34552 -1.78125,-0.78125 -2.94261,-1.3368 -4.19126,-3.26838 -6.5,-9.90625 -1.16011,-3.3355 -2.36256,-6.52685 -2.65625,-7.125 -0.29367,-0.59819 -0.725,-1.58935 -0.96875,-2.1875 -0.2437,-0.59816 -0.88005,-2.14337 -1.40625,-3.4375 -1.33496,-3.28309 -2.26442,-7.04019 -2,-8.09375 0.45415,-1.80953 8.46058,-10.56389 10.90625,-11.9375 1.39655,-0.78447 2.59724,-1.23715 3.8125,-1.25 z M 528.125,213 c -0.36174,0.098 0.33726,1.15748 2.0625,3.0625 4.5497,5.02395 4.97493,8.4143 1.5625,12.375 -0.76761,0.89095 -1.97951,2.52404 -2.65625,3.625 -1.1245,1.8294 -1.34704,2 -2.90625,2 -1.22642,0 -1.71875,0.1559 -1.71875,0.625 0,0.35893 0.1902,0.65625 0.4375,0.65625 0.24738,0 0.8809,0.69384 1.375,1.53125 0.49411,0.83746 0.95802,1.53125 1.0625,1.53125 0.10448,0 0.59271,-0.90406 1.0625,-2 0.46975,-1.09594 1.50215,-2.81487 2.3125,-3.8125 3.19423,-3.93267 5.0625,-7.32244 5.0625,-9.1875 0,-3.12474 -3.20328,-8.00287 -6.53125,-9.96875 -0.60581,-0.35778 -0.96057,-0.48204 -1.125,-0.4375 z m -17.46875,12.34375 c -0.0626,-0.005 -0.0913,0.14606 -0.0937,0.40625 -0.005,0.3425 1.11528,2.39272 2.5,4.5625 2.64826,4.14958 3.21653,5.37238 4,8.4375 0.39599,1.5494 0.61796,1.79594 1.125,1.375 0.33861,-0.28103 0.7433,-1.22055 0.90625,-2.09375 0.18952,-1.01517 0.84369,-2.12959 1.84375,-3.0625 l 1.5625,-1.4375 -1.53125,0.3125 c -0.83742,0.16682 -1.77586,0.60366 -2.09375,1 -0.65306,0.81421 -0.65951,0.81667 -3.15625,-2.96875 -2.68369,-4.06891 -4.30538,-6.29042 -4.3125,-5.875 -0.005,0.23651 -0.20554,0.14013 -0.4375,-0.21875 -0.17628,-0.27248 -0.2501,-0.43318 -0.3125,-0.4375 z m 23.5625,14.4375 c 0.0368,0.005 0.0666,0.0351 0.0937,0.0625 0.14062,0.14065 -0.0612,1.19174 -0.4375,2.34375 -2.86223,8.7622 -3.78125,19.09102 -3.78125,42.09375 -8.1e-4,16.48161 0.37441,21.21596 2.6875,32.96875 1.08308,5.50312 1.34976,7.59054 1.03125,8.5 -0.54348,1.55172 -1.77729,1.66119 -3.625,0.34375 -1.61208,-1.14945 -4.4375,-5.03975 -4.4375,-6.125 0,-0.38021 -0.29546,-1.27098 -0.65625,-1.96875 -0.36086,-0.69774 -1.33872,-4.46298 -2.1875,-8.34375 -0.84878,-3.88076 -1.60547,-7.14616 -1.6875,-7.28125 -0.082,-0.13513 -0.45489,-2.59755 -0.84375,-5.46875 -0.38892,-2.87117 -1.00508,-7.07071 -1.375,-9.34375 -1.25,-7.68101 -1.45778,-9.35849 -1.71875,-13.9375 -0.24001,-4.21138 -0.97717,-8.90432 -3.28125,-21.53125 -0.96814,-5.30568 -1.05764,-7.1875 -0.40625,-7.1875 0.23925,0 0.40625,0.39853 0.40625,0.875 0,1.2736 2.88683,4.84886 4.96875,6.15625 2.42626,1.52358 3.50687,1.82616 5.4375,1.5 1.41025,-0.23827 1.82808,-0.66455 3.3125,-3 0.94266,-1.48306 2.30748,-4.00841 3.03125,-5.59375 1.29213,-2.83008 2.91484,-5.14021 3.46875,-5.0625 z" />
  </g>
</svg>
