<?xml version="1.0" encoding="UTF-8" standalone="no"?>
<!-- Created with Inkscape (http://www.inkscape.org/) -->

<svg
   xmlns:dc="http://purl.org/dc/elements/1.1/"
   xmlns:cc="http://creativecommons.org/ns#"
   xmlns:rdf="http://www.w3.org/1999/02/22-rdf-syntax-ns#"
   xmlns:svg="http://www.w3.org/2000/svg"
   xmlns="http://www.w3.org/2000/svg"
   xmlns:sodipodi="http://sodipodi.sourceforge.net/DTD/sodipodi-0.dtd"
   xmlns:inkscape="http://www.inkscape.org/namespaces/inkscape"
   width="900"
   height="800"
   id="svg2"
   version="1.1"
   inkscape:version="0.48.2 r9819"
   sodipodi:docname="m11.svg">
  <defs
     id="defs4" />
  <sodipodi:namedview
     id="base"
     pagecolor="#ffffff"
     bordercolor="#666666"
     borderopacity="1.0"
     inkscape:pageopacity="0.0"
     inkscape:pageshadow="2"
     inkscape:zoom="2.8284271"
     inkscape:cx="509.02606"
     inkscape:cy="514.50365"
     inkscape:document-units="px"
     inkscape:current-layer="layer1"
     showgrid="false"
     showguides="true"
     inkscape:guide-bbox="true"
     inkscape:window-width="1366"
     inkscape:window-height="746"
     inkscape:window-x="-8"
     inkscape:window-y="-8"
     inkscape:window-maximized="1"
     width="0px"
     height="0px"
     fit-margin-top="0"
     fit-margin-left="0"
     fit-margin-right="0"
     fit-margin-bottom="0">
    <sodipodi:guide
       orientation="1,0"
       position="450,784"
       id="guide3178" />
    <sodipodi:guide
       orientation="0,1"
       position="-61,400"
       id="guide3180" />
  </sodipodi:namedview>
  <metadata
     id="metadata7">
    <rdf:RDF>
      <cc:Work
         rdf:about="">
        <dc:format>image/svg+xml</dc:format>
        <dc:type
           rdf:resource="http://purl.org/dc/dcmitype/StillImage" />
        <dc:title></dc:title>
      </cc:Work>
    </rdf:RDF>
  </metadata>
  <g
     inkscape:label="Layer 1"
     inkscape:groupmode="layer"
     id="layer1"
     transform="translate(0,-252.36218)">
    <path
       id="rect3019"
       transform="translate(0,252.36218)"
       style="fill:#ff0000"
       d="m 590,232.71875 c -1.52013,-0.0574 -3.05772,0.30919 -4.84375,1.03125 -3.19505,1.2917 -9.46633,7.41252 -11.78125,11.46875 -0.77183,1.35241 -1.63897,2.57346 -1.90625,2.75 -0.75518,0.49878 -0.0649,6.90189 1.40625,13.21875 0.72437,3.11051 1.89809,8.08725 2.59375,11.0625 1.39479,5.96562 2.49718,12.27741 4,22.34375 0.54515,3.65143 1.14992,6.96447 1.28125,7.3125 0.41739,1.10557 2.07707,13.86656 2.6875,20.5 0.32363,3.51625 0.90473,8.43848 1.28125,10.9375 0.37644,2.49903 0.6875,5.3934 0.6875,6.4375 0,2.24947 3.51525,16.35108 5.03125,20.21875 0.58309,1.48764 1.44476,3.26121 1.9375,3.90625 0.49266,0.64506 0.90625,1.35741 0.90625,1.59375 0,0.46696 1.9945,2.9106 3.875,4.71875 1.5861,1.52503 5.65461,1.61893 6.4375,0.15625 1.13407,-2.11915 1.08435,-5.25913 -0.15625,-11.84375 -2.28162,-12.1097 -2.42303,-12.98326 -2.8125,-17.1875 -0.52887,-5.70884 -0.52878,-28.93588 0,-41.8125 0.43069,-10.4896 1.54887,-18.16963 3.1875,-21.875 0.35877,-0.81143 0.81191,-2.76556 1,-4.34375 0.33419,-2.80544 1.84474,-6.6321 4.0625,-10.21875 1.60503,-2.59562 2.24119,-8.14248 1.28125,-11.375 -1.13088,-3.80797 -2.76579,-6.08315 -8.34375,-11.53125 -5.25595,-5.13357 -8.46817,-7.34241 -11.8125,-7.46875 z m -0.5625,1.5 c 3.02232,-0.0319 6.13046,2.27412 11.9375,8 l 5.96875,5.9375 0.90625,4.28125 0.875,4.25 -1.09375,2.6875 c -0.61828,1.49163 -2.00011,3.82606 -3.03125,5.125 -3.98558,5.02081 -4.97699,6.3765 -6.78125,9.46875 -1.0258,1.75812 -1.98754,3.74022 -2.15625,4.4375 -0.16864,0.69728 -0.8485,1.88834 -1.53125,2.625 -0.68268,0.73667 -1.25,1.51327 -1.25,1.75 0,0.23674 -0.7095,0.8245 -1.5625,1.25 -0.85298,0.42553 -1.56767,0.75596 -1.59375,0.75 -0.026,-0.005 -0.94705,-0.41368 -2.03125,-0.90625 -3.32648,-1.51119 -4.73384,-3.65246 -7.34375,-11.15625 -1.31146,-3.77063 -2.66801,-7.41756 -3,-8.09375 -0.33197,-0.67621 -0.81821,-1.79256 -1.09375,-2.46875 -0.2755,-0.67618 -0.99891,-2.41206 -1.59375,-3.875 -1.50911,-3.71139 -2.5489,-7.96526 -2.25,-9.15625 0.51342,-2.04559 9.54779,-11.94719 12.3125,-13.5 1.57874,-0.88679 2.93872,-1.39172 4.3125,-1.40625 z m 6.5,6.625 c -0.40894,0.11074 0.36219,1.28395 2.3125,3.4375 5.14322,5.67933 5.63884,9.52261 1.78125,14 -0.86775,1.0072 -2.23499,2.84918 -3,4.09375 -1.27121,2.06806 -1.51862,2.25 -3.28125,2.25 -1.38641,0 -1.96875,0.18845 -1.96875,0.71875 0,0.40575 0.25168,0.75 0.53125,0.75 0.27964,0 0.97269,0.7721 1.53125,1.71875 0.55856,0.9467 1.10064,1.75 1.21875,1.75 0.1181,0 0.65642,-1.04235 1.1875,-2.28125 0.53103,-1.23891 1.70894,-3.18473 2.625,-4.3125 3.61092,-4.4457 5.6875,-8.26665 5.6875,-10.375 0,-3.53237 -3.58164,-9.02766 -7.34375,-11.25 -0.68485,-0.40445 -1.09537,-0.55034 -1.28125,-0.5 z m -19.75,13.9375 c -0.0707,-0.005 -0.12224,0.14336 -0.125,0.4375 -0.005,0.38718 1.27837,2.73466 2.84375,5.1875 2.99372,4.69089 3.64557,6.06628 4.53125,9.53125 0.44765,1.75153 0.67681,2.03836 1.25,1.5625 0.38275,-0.31768 0.84705,-1.3879 1.03125,-2.375 0.21424,-1.14761 0.96323,-2.38289 2.09375,-3.4375 l 1.75,-1.65625 -1.71875,0.34375 c -0.94665,0.18859 -2.01565,0.7082 -2.375,1.15625 -0.73827,0.92041 -0.7088,0.90424 -3.53125,-3.375 -3.03378,-4.59971 -4.89819,-7.12588 -4.90625,-6.65625 -0.005,0.26736 -0.23778,0.1557 -0.5,-0.25 -0.19927,-0.30803 -0.2732,-0.46386 -0.34375,-0.46875 z m 26.5,16.3125 c 0.0481,-0.0152 0.0859,-0.005 0.125,0 0.0416,0.005 0.0944,0.0317 0.125,0.0625 0.15898,0.15901 -0.0746,1.35395 -0.5,2.65625 -3.23562,9.90526 -4.28125,21.6215 -4.28125,47.625 -9.2e-4,18.63169 0.41642,23.96401 3.03125,37.25 1.22438,6.22101 1.51631,8.56566 1.15625,9.59375 -0.61438,1.75415 -2.00501,1.86431 -4.09375,0.375 -1.82238,-1.2994 -4.96875,-5.67942 -4.96875,-6.90625 0,-0.42981 -0.37339,-1.46121 -0.78125,-2.25 -0.40795,-0.78877 -1.50925,-5.01923 -2.46875,-9.40625 -0.95951,-4.38703 -1.81353,-8.09727 -1.90625,-8.25 -0.0926,-0.15274 -0.52915,-2.91051 -0.96875,-6.15625 -0.43966,-3.24574 -1.11308,-7.99295 -1.53125,-10.5625 -1.41308,-8.68303 -1.64247,-10.57364 -1.9375,-15.75 -0.27131,-4.76077 -1.08285,-10.06959 -3.6875,-24.34375 -1.09445,-5.9978 -1.20509,-8.125 -0.46875,-8.125 0.27047,0 0.46875,0.43014 0.46875,0.96875 0,1.43975 3.24024,5.4908 5.59375,6.96875 2.74278,1.72233 3.94251,2.05619 6.125,1.6875 1.59422,-0.26937 2.10318,-0.7349 3.78125,-3.375 1.06563,-1.67655 2.58805,-4.52035 3.40625,-6.3125 1.36939,-2.99933 3.05934,-5.52145 3.78125,-5.75 z" />
  </g>
</svg>
