<?xml version="1.0" encoding="UTF-8" standalone="no"?>
<!-- Created with Inkscape (http://www.inkscape.org/) -->

<svg
   xmlns:dc="http://purl.org/dc/elements/1.1/"
   xmlns:cc="http://creativecommons.org/ns#"
   xmlns:rdf="http://www.w3.org/1999/02/22-rdf-syntax-ns#"
   xmlns:svg="http://www.w3.org/2000/svg"
   xmlns="http://www.w3.org/2000/svg"
   xmlns:sodipodi="http://sodipodi.sourceforge.net/DTD/sodipodi-0.dtd"
   xmlns:inkscape="http://www.inkscape.org/namespaces/inkscape"
   width="900"
   height="800"
   id="svg2"
   version="1.1"
   inkscape:version="0.48.2 r9819"
   sodipodi:docname="f11.svg">
  <defs
     id="defs4" />
  <sodipodi:namedview
     id="base"
     pagecolor="#ffffff"
     bordercolor="#666666"
     borderopacity="1.0"
     inkscape:pageopacity="0.0"
     inkscape:pageshadow="2"
     inkscape:zoom="2.8284271"
     inkscape:cx="509.02606"
     inkscape:cy="627.64073"
     inkscape:document-units="px"
     inkscape:current-layer="layer1"
     showgrid="false"
     showguides="true"
     inkscape:guide-bbox="true"
     inkscape:window-width="1366"
     inkscape:window-height="746"
     inkscape:window-x="-8"
     inkscape:window-y="-8"
     inkscape:window-maximized="1"
     width="0px"
     height="0px"
     fit-margin-top="0"
     fit-margin-left="0"
     fit-margin-right="0"
     fit-margin-bottom="0">
    <sodipodi:guide
       orientation="1,0"
       position="450,784"
       id="guide3178" />
    <sodipodi:guide
       orientation="0,1"
       position="-61,400"
       id="guide3180" />
  </sodipodi:namedview>
  <metadata
     id="metadata7">
    <rdf:RDF>
      <cc:Work
         rdf:about="">
        <dc:format>image/svg+xml</dc:format>
        <dc:type
           rdf:resource="http://purl.org/dc/dcmitype/StillImage" />
        <dc:title></dc:title>
      </cc:Work>
    </rdf:RDF>
  </metadata>
  <g
     inkscape:label="Layer 1"
     inkscape:groupmode="layer"
     id="layer1"
     transform="translate(0,-252.36218)">
    <path
       id="rect3015"
       transform="translate(0,252.36218)"
       style="fill:#ff0000"
       d="m 586.9375,162.90625 c -0.39462,-0.024 -0.75427,-0.004 -1.125,0.0312 -4.99944,0.48037 -12.3081,5.63254 -15.34375,10.8125 -1.65225,2.81935 -2.10641,6.73077 -1.15625,10.21875 0.90498,3.3222 2.44177,7.54311 2.875,7.875 0.17651,0.13524 0.89837,1.46661 1.5625,2.96875 0.66415,1.50213 1.85986,3.47407 2.65625,4.40625 0.79635,0.93217 2.24022,2.80385 3.21875,4.15625 2.89577,4.0024 4.77979,5.57309 7.75,6.34375 2.75761,0.71545 7.33343,0.59032 8.96875,-0.25 0.86473,-0.44436 5.78125,-7.51757 5.78125,-8.3125 0,-0.23052 1.60154,-2.07823 3.5625,-4.15625 4.32,-4.57781 4.82661,-5.48958 5.15625,-9.125 0.2479,-2.73393 0.18149,-2.96856 -2,-6.25 -1.24586,-1.87408 -3.18084,-4.04993 -4.28125,-4.8125 -1.1004,-0.76259 -2.12127,-1.65954 -2.3125,-2 -0.55854,-0.99485 -4.61267,-5.60207 -6.75,-7.6875 -2.52106,-2.45983 -5.80017,-4.05086 -8.5625,-4.21875 z m -1.78125,2.53125 c 0.99292,-0.0602 2.08853,0.0703 3.40625,0.34375 3.55094,0.73717 6.25069,2.76661 9.125,6.9375 1.23486,1.79193 3.26411,4.13276 4.53125,5.21875 5.00517,4.28953 6.3125,6.39716 6.3125,10.125 0,3.04948 -0.76038,4.41098 -4.84375,8.65625 -1.4008,1.45636 -3.55401,4.07603 -4.75,5.875 -1.1959,1.79897 -2.60842,3.723 -3.15625,4.21875 -0.99675,0.90202 -4.36383,1.424 -6.21875,0.96875 -3.42581,-0.84086 -7.82311,-3.91108 -8.40625,-5.84375 -0.16632,-0.55135 -1.59569,-2.67609 -3.1875,-4.75 -1.59183,-2.0739 -2.90625,-4.00969 -2.90625,-4.28125 0,-0.2716 -1.00127,-2.45654 -2.25,-4.84375 -2.16363,-4.13627 -2.2813,-4.48382 -2.0625,-7.53125 0.23904,-3.32957 1.57274,-6.50658 3.25,-7.90625 0.51998,-0.43396 1.20859,-1.20603 1.59375,-1.71875 0.38518,-0.51279 1.07859,-1.16703 1.5,-1.4375 0.42138,-0.27049 1.84353,-1.218 3.15625,-2.09375 1.86258,-1.24272 3.25137,-1.83716 4.90625,-1.9375 z m 10.1875,11.875 c -1.53661,0.006 -3.76827,0.13041 -6.71875,0.3125 -4.82216,0.29747 -9.29855,0.4346 -9.9375,0.3125 -0.8721,-0.16669 -1.15625,-0.006 -1.15625,0.65625 0,0.5776 0.45873,0.96991 1.34375,1.125 2.23651,0.39199 11.07185,-0.13069 15.125,-0.90625 2.08784,-0.39947 3.9282,-0.71875 4.09375,-0.71875 0.16553,0 0.0857,-0.25813 -0.1875,-0.53125 -0.16707,-0.16699 -1.02589,-0.25737 -2.5625,-0.25 z m -19.75,6.03125 -0.28125,1.28125 c -0.4577,1.82371 2.00639,5.95416 7.375,12.375 3.71417,4.44219 4.01397,4.52051 5.0625,1.375 0.43179,-1.29534 1.01995,-2.10668 1.6875,-2.28125 1.33065,-0.34798 3.64333,0.86631 4.375,2.28125 0.31323,0.60579 0.89364,1.48885 1.3125,1.96875 1.08835,1.24704 1.62498,0.88775 3.5625,-2.375 0.94666,-1.59475 2.48154,-3.74183 3.4375,-4.75 1.79206,-1.88996 3.46875,-4.78355 3.46875,-6.09375 0,-0.40997 -0.38543,-1.42413 -0.8125,-2.25 L 604,183.40625 l -5.96875,0.28125 c -8.06666,0.4325 -9.45045,0.45446 -16.40625,0.0312 l -6.03125,-0.375 z m 22.375,1.875 c 3.14399,-0.1236 5.625,0.80672 5.625,2.40625 0,1.06499 -2.52118,4.21875 -3.375,4.21875 -0.26251,0 -1.16785,1.11636 -2,2.46875 -0.83211,1.3524 -1.76331,2.4375 -2.09375,2.4375 -0.3304,0 -1.06458,-0.54712 -1.625,-1.25 -0.74078,-0.92902 -1.62225,-1.38677 -3.21875,-1.5625 -1.96752,-0.21655 -2.36217,-0.0488 -3.65625,1.3125 -0.79443,0.8358 -1.59893,1.49994 -1.8125,1.5 -1.03305,0 -7.3125,-8.90758 -7.3125,-10.375 0,-1.05181 0.13763,-1.06298 3.34375,-0.71875 7.76743,0.83392 9.76282,0.8526 12.8125,0.0625 1.1244,-0.29143 2.2645,-0.45879 3.3125,-0.5 z" />
  </g>
</svg>
