<?xml version="1.0" encoding="UTF-8" standalone="no"?>
<!-- Created with Inkscape (http://www.inkscape.org/) -->

<svg
   xmlns:dc="http://purl.org/dc/elements/1.1/"
   xmlns:cc="http://creativecommons.org/ns#"
   xmlns:rdf="http://www.w3.org/1999/02/22-rdf-syntax-ns#"
   xmlns:svg="http://www.w3.org/2000/svg"
   xmlns="http://www.w3.org/2000/svg"
   xmlns:sodipodi="http://sodipodi.sourceforge.net/DTD/sodipodi-0.dtd"
   xmlns:inkscape="http://www.inkscape.org/namespaces/inkscape"
   width="800"
   height="700"
   id="svg2"
   version="1.1"
   inkscape:version="0.48.2 r9819"
   sodipodi:docname="f11.svg">
  <defs
     id="defs4" />
  <sodipodi:namedview
     id="base"
     pagecolor="#ffffff"
     bordercolor="#666666"
     borderopacity="1.0"
     inkscape:pageopacity="0.0"
     inkscape:pageshadow="2"
     inkscape:zoom="2.8284271"
     inkscape:cx="535.8864"
     inkscape:cy="490.91867"
     inkscape:document-units="px"
     inkscape:current-layer="layer1"
     showgrid="false"
     showguides="true"
     inkscape:guide-bbox="true"
     inkscape:window-width="1366"
     inkscape:window-height="746"
     inkscape:window-x="-8"
     inkscape:window-y="-8"
     inkscape:window-maximized="1"
     width="0px"
     height="0px"
     fit-margin-top="0"
     fit-margin-left="0"
     fit-margin-right="0"
     fit-margin-bottom="0">
    <sodipodi:guide
       orientation="1,0"
       position="400.22244,349.31075"
       id="guide3178" />
    <sodipodi:guide
       orientation="0,1"
       position="400.22244,349.31075"
       id="guide3180" />
  </sodipodi:namedview>
  <metadata
     id="metadata7">
    <rdf:RDF>
      <cc:Work
         rdf:about="">
        <dc:format>image/svg+xml</dc:format>
        <dc:type
           rdf:resource="http://purl.org/dc/dcmitype/StillImage" />
        <dc:title></dc:title>
      </cc:Work>
    </rdf:RDF>
  </metadata>
  <g
     inkscape:label="Layer 1"
     inkscape:groupmode="layer"
     id="layer1"
     transform="translate(0,-352.36218)">
    <path
       id="rect3099"
       transform="translate(0,352.36218)"
       style="fill:#ff0000"
       d="m 520.1875,144.0625 c -0.34908,-0.0212 -0.7033,-2.6e-4 -1.03125,0.0312 -4.42251,0.42495 -10.87716,4.98031 -13.5625,9.5625 -1.46159,2.494 -1.84052,5.94579 -1,9.03125 0.80055,2.93883 2.14801,6.67516 2.53125,6.96875 0.15614,0.11963 0.7875,1.29621 1.375,2.625 0.58751,1.32877 1.63927,3.08163 2.34375,3.90625 0.70446,0.82459 1.97813,2.49115 2.84375,3.6875 2.56158,3.54052 4.24755,4.91203 6.875,5.59375 2.43938,0.6329 6.4909,0.5246 7.9375,-0.21875 0.76496,-0.39307 5.09375,-6.64054 5.09375,-7.34375 0,-0.20391 1.42159,-1.84927 3.15625,-3.6875 3.82148,-4.04952 4.27089,-4.8466 4.5625,-8.0625 0.21929,-2.41843 0.17976,-2.62848 -1.75,-5.53125 -1.10207,-1.65781 -2.80784,-3.57545 -3.78125,-4.25 -0.97343,-0.6746 -1.89334,-1.48008 -2.0625,-1.78125 -0.49409,-0.88005 -4.1093,-4.93648 -6,-6.78125 -2.23013,-2.17598 -5.08769,-3.60148 -7.53125,-3.75 z m -1.59375,2.25 c 0.87833,-0.0532 1.83433,0.0393 3,0.28125 3.14116,0.6521 5.51988,2.46669 8.0625,6.15625 1.09237,1.58515 2.91034,3.66433 4.03125,4.625 4.42757,3.79452 5.5625,5.63984 5.5625,8.9375 0,2.69757 -0.6691,3.90088 -4.28125,7.65625 -1.23916,1.2883 -3.12953,3.62737 -4.1875,5.21875 -1.05789,1.59136 -2.29664,3.28022 -2.78125,3.71875 -0.88173,0.79794 -3.85914,1.24647 -5.5,0.84375 -3.03048,-0.74382 -6.92167,-3.41536 -7.4375,-5.125 -0.14714,-0.48774 -1.40439,-2.41542 -2.8125,-4.25 -1.40816,-1.83459 -2.59375,-3.54103 -2.59375,-3.78125 0,-0.24025 -0.89539,-2.16952 -2,-4.28125 -1.91397,-3.65896 -2.00605,-3.96048 -1.8125,-6.65625 0.21146,-2.94534 1.39131,-5.76184 2.875,-7 0.45999,-0.38388 1.09679,-1.04645 1.4375,-1.5 0.34074,-0.45361 0.90847,-1.042 1.28125,-1.28125 0.37275,-0.23929 1.65127,-1.06907 2.8125,-1.84375 1.64765,-1.09933 2.87984,-1.62998 4.34375,-1.71875 z m 9,10.5 c -1.35929,0.006 -3.32752,0.12018 -5.9375,0.28125 -4.26569,0.26313 -8.21605,0.38925 -8.78125,0.28125 -0.77147,-0.14746 -1.03125,-0.0237 -1.03125,0.5625 0,0.51094 0.40462,0.89406 1.1875,1.03125 1.97842,0.34676 9.78958,-0.15768 13.375,-0.84375 1.84692,-0.35336 3.47855,-0.625 3.625,-0.625 0.14642,0 0.0854,-0.1959 -0.15625,-0.4375 -0.1478,-0.14772 -0.92196,-0.25651 -2.28125,-0.25 z m -17.4375,5.34375 -0.28125,1.125 c -0.40489,1.61327 1.78217,5.25762 6.53125,10.9375 3.28555,3.92956 3.54122,4.00127 4.46875,1.21875 0.38196,-1.14585 0.90948,-1.84557 1.5,-2 1.17709,-0.30782 3.22775,0.74834 3.875,2 0.27707,0.53588 0.78572,1.32549 1.15625,1.75 0.96275,1.10314 1.44232,0.79248 3.15625,-2.09375 0.8374,-1.41073 2.1856,-3.29568 3.03125,-4.1875 1.58526,-1.67186 3.0625,-4.24724 3.0625,-5.40625 0,-0.36265 -0.30971,-1.26944 -0.6875,-2 l -0.71875,-1.3125 -5.25,0.25 c -7.13577,0.38259 -8.37814,0.40561 -14.53125,0.0312 l -5.3125,-0.3125 z m 19.78125,1.65625 c 2.78118,-0.10932 4.96875,0.71005 4.96875,2.125 0,0.94209 -2.21347,3.71875 -2.96875,3.71875 -0.23223,0 -1.04512,0.99116 -1.78125,2.1875 -0.73607,1.19633 -1.55144,2.15625 -1.84375,2.15625 -0.29227,0 -0.97302,-0.47198 -1.46875,-1.09375 -0.6553,-0.8218 -1.40024,-1.21955 -2.8125,-1.375 -1.74048,-0.19156 -2.10525,-0.0479 -3.25,1.15625 -0.70274,0.73936 -1.43607,1.31244 -1.625,1.3125 -0.91383,0 -6.4375,-7.85816 -6.4375,-9.15625 0,-0.93043 0.10136,-0.96076 2.9375,-0.65625 6.87107,0.73768 8.64602,0.76132 11.34375,0.0625 0.99465,-0.25781 2.01043,-0.40104 2.9375,-0.4375 z" />
  </g>
</svg>
