<?xml version="1.0" encoding="UTF-8" standalone="no"?>
<!-- Created with Inkscape (http://www.inkscape.org/) -->

<svg
   xmlns:dc="http://purl.org/dc/elements/1.1/"
   xmlns:cc="http://creativecommons.org/ns#"
   xmlns:rdf="http://www.w3.org/1999/02/22-rdf-syntax-ns#"
   xmlns:svg="http://www.w3.org/2000/svg"
   xmlns="http://www.w3.org/2000/svg"
   xmlns:sodipodi="http://sodipodi.sourceforge.net/DTD/sodipodi-0.dtd"
   xmlns:inkscape="http://www.inkscape.org/namespaces/inkscape"
   width="800"
   height="400"
   id="svg2"
   version="1.1"
   inkscape:version="0.48.2 r9819"
   sodipodi:docname="m11.svg">
  <defs
     id="defs4" />
  <sodipodi:namedview
     id="base"
     pagecolor="#ffffff"
     bordercolor="#666666"
     borderopacity="1.0"
     inkscape:pageopacity="0.0"
     inkscape:pageshadow="2"
     inkscape:zoom="4"
     inkscape:cx="529.06561"
     inkscape:cy="247.72019"
     inkscape:document-units="px"
     inkscape:current-layer="layer1"
     showgrid="false"
     showguides="true"
     inkscape:guide-bbox="true"
     inkscape:window-width="1366"
     inkscape:window-height="746"
     inkscape:window-x="-8"
     inkscape:window-y="-8"
     inkscape:window-maximized="1"
     width="0px"
     height="0px"
     fit-margin-top="0"
     fit-margin-left="0"
     fit-margin-right="0"
     fit-margin-bottom="0">
    <sodipodi:guide
       orientation="1,0"
       position="400.22244,349.31075"
       id="guide3178" />
    <sodipodi:guide
       orientation="0,1"
       position="-117.37973,199.40411"
       id="guide3180" />
  </sodipodi:namedview>
  <metadata
     id="metadata7">
    <rdf:RDF>
      <cc:Work
         rdf:about="">
        <dc:format>image/svg+xml</dc:format>
        <dc:type
           rdf:resource="http://purl.org/dc/dcmitype/StillImage" />
        <dc:title></dc:title>
      </cc:Work>
    </rdf:RDF>
  </metadata>
  <g
     inkscape:label="Layer 1"
     inkscape:groupmode="layer"
     id="layer1"
     transform="translate(0,-652.36218)">
    <path
       id="rect3259"
       transform="translate(0,652.36218)"
       style="fill:#ff0000"
       d="m 520.71875,135.8125 c -4.4225,0.42495 -10.8772,4.98031 -13.5625,9.5625 -1.4616,2.494 -1.87175,5.97704 -1.03125,9.0625 0.8005,2.93883 2.1792,6.64391 2.5625,6.9375 0.1561,0.11963 0.75625,1.32746 1.34375,2.65625 0.5875,1.32877 1.6705,3.08163 2.375,3.90625 0.7045,0.82459 1.97805,2.4599 2.84375,3.65625 2.5615,3.54052 4.2476,4.91203 6.875,5.59375 2.4394,0.6329 6.4909,0.5246 7.9375,-0.21875 0.7649,-0.39307 5.09375,-6.64054 5.09375,-7.34375 0,-0.20391 1.42165,-1.81802 3.15625,-3.65625 3.8215,-4.04952 4.2709,-4.87785 4.5625,-8.09375 0.2193,-2.41843 0.14855,-2.59723 -1.78125,-5.5 -1.102,-1.65781 -2.80785,-3.57545 -3.78125,-4.25 -0.9734,-0.6746 -1.8934,-1.48008 -2.0625,-1.78125 -0.4941,-0.88005 -4.07805,-4.96773 -5.96875,-6.8125 -2.5489,-2.48683 -5.939,-3.97085 -8.5625,-3.71875 z m -0.59375,2.21875 c 0.8783,-0.0532 1.86555,0.0706 3.03125,0.3125 3.1411,0.6521 5.5198,2.46669 8.0625,6.15625 1.0923,1.58515 2.8791,3.63308 4,4.59375 4.4276,3.79452 5.59375,5.67109 5.59375,8.96875 0,2.69757 -0.66905,3.86963 -4.28125,7.625 -1.2392,1.2883 -3.1295,3.62737 -4.1875,5.21875 -1.0579,1.59136 -2.3279,3.28022 -2.8125,3.71875 -0.8817,0.79794 -3.8591,1.24647 -5.5,0.84375 -3.0305,-0.74382 -6.89045,-3.41536 -7.40625,-5.125 -0.1472,-0.48774 -1.43565,-2.38417 -2.84375,-4.21875 -1.4082,-1.83459 -2.5625,-3.54103 -2.5625,-3.78125 0,-0.24025 -0.8954,-2.16952 -2,-4.28125 -1.9139,-3.65896 -2.006,-3.99173 -1.8125,-6.6875 0.2115,-2.94534 1.36005,-5.73059 2.84375,-6.96875 0.4599,-0.38388 1.0968,-1.0777 1.4375,-1.53125 0.3407,-0.45361 0.9397,-1.042 1.3125,-1.28125 0.3727,-0.23929 1.62005,-1.06907 2.78125,-1.84375 1.6476,-1.09933 2.87975,-1.62998 4.34375,-1.71875 z m 9.03125,10.53125 c -1.3593,0.006 -3.3275,0.0889 -5.9375,0.25 -4.2657,0.26313 -8.21605,0.38925 -8.78125,0.28125 -0.7715,-0.14746 -1.03125,-0.0237 -1.03125,0.5625 0,0.51094 0.4046,0.89406 1.1875,1.03125 1.9784,0.34676 9.75835,-0.15768 13.34375,-0.84375 1.8469,-0.35336 3.4785,-0.625 3.625,-0.625 0.1464,0 0.0856,-0.1959 -0.15625,-0.4375 -0.1478,-0.14772 -0.8907,-0.22526 -2.25,-0.21875 z m -17.46875,5.3125 -0.25,1.125 c -0.4048,1.61327 1.7509,5.28887 6.5,10.96875 3.2855,3.92956 3.5724,3.97002 4.5,1.1875 0.3819,-1.14585 0.87825,-1.84557 1.46875,-2 1.1771,-0.30782 3.2278,0.74834 3.875,2 0.2771,0.53588 0.817,1.32549 1.1875,1.75 0.9627,1.10314 1.44235,0.79248 3.15625,-2.09375 0.8374,-1.41073 2.18555,-3.29568 3.03125,-4.1875 1.5852,-1.67186 3.0625,-4.24724 3.0625,-5.40625 0,-0.36265 -0.34095,-1.26944 -0.71875,-2 l -0.6875,-1.3125 -5.28125,0.28125 c -7.1358,0.38259 -8.3469,0.40561 -14.5,0.0312 L 511.6875,153.875 z m 19.78125,1.65625 c 2.7812,-0.10932 5,0.71005 5,2.125 0,0.94209 -2.2447,3.71875 -3,3.71875 -0.2322,0 -1.04515,0.99116 -1.78125,2.1875 -0.7361,1.19633 -1.55145,2.15625 -1.84375,2.15625 -0.2923,0 -0.9418,-0.47198 -1.4375,-1.09375 -0.6553,-0.8218 -1.43145,-1.21955 -2.84375,-1.375 -1.7405,-0.19156 -2.07395,-0.0479 -3.21875,1.15625 -0.7027,0.73936 -1.4361,1.31244 -1.625,1.3125 -0.9139,0 -6.4375,-7.85816 -6.4375,-9.15625 0,-0.93043 0.1014,-0.96076 2.9375,-0.65625 6.8711,0.73768 8.64595,0.79257 11.34375,0.0937 0.9946,-0.25781 1.97915,-0.43229 2.90625,-0.46875 z" />
  </g>
</svg>
