<?xml version="1.0" encoding="UTF-8" standalone="no"?>
<!-- Created with Inkscape (http://www.inkscape.org/) -->

<svg
   xmlns:dc="http://purl.org/dc/elements/1.1/"
   xmlns:cc="http://creativecommons.org/ns#"
   xmlns:rdf="http://www.w3.org/1999/02/22-rdf-syntax-ns#"
   xmlns:svg="http://www.w3.org/2000/svg"
   xmlns="http://www.w3.org/2000/svg"
   xmlns:sodipodi="http://sodipodi.sourceforge.net/DTD/sodipodi-0.dtd"
   xmlns:inkscape="http://www.inkscape.org/namespaces/inkscape"
   width="800"
   height="700"
   id="svg2"
   version="1.1"
   inkscape:version="0.48.2 r9819"
   sodipodi:docname="f23.svg">
  <defs
     id="defs4" />
  <sodipodi:namedview
     id="base"
     pagecolor="#ffffff"
     bordercolor="#666666"
     borderopacity="1.0"
     inkscape:pageopacity="0.0"
     inkscape:pageshadow="2"
     inkscape:zoom="2.5"
     inkscape:cx="305.9394"
     inkscape:cy="214.4269"
     inkscape:document-units="px"
     inkscape:current-layer="layer1"
     showgrid="false"
     showguides="true"
     inkscape:guide-bbox="true"
     inkscape:window-width="1366"
     inkscape:window-height="746"
     inkscape:window-x="-8"
     inkscape:window-y="-8"
     inkscape:window-maximized="1"
     width="0px"
     height="0px"
     fit-margin-top="0"
     fit-margin-left="0"
     fit-margin-right="0"
     fit-margin-bottom="0">
    <sodipodi:guide
       orientation="1,0"
       position="400.22244,349.31075"
       id="guide3178" />
    <sodipodi:guide
       orientation="0,1"
       position="400.22244,349.31075"
       id="guide3180" />
  </sodipodi:namedview>
  <metadata
     id="metadata7">
    <rdf:RDF>
      <cc:Work
         rdf:about="">
        <dc:format>image/svg+xml</dc:format>
        <dc:type
           rdf:resource="http://purl.org/dc/dcmitype/StillImage" />
        <dc:title></dc:title>
      </cc:Work>
    </rdf:RDF>
  </metadata>
  <g
     inkscape:label="Layer 1"
     inkscape:groupmode="layer"
     id="layer1"
     transform="translate(0,-352.36218)">
    <path
       style="fill:#ff0000"
       d="m 326,822.76843 c 0.15465,-0.0138 0.31988,-0.005 0.46875,0 0.3403,0.0117 0.63444,0.0724 0.9375,0.1875 1.40723,0.53503 4.06284,3.79857 4.40625,5.40625 0.16014,0.74954 0.44171,1.54194 0.625,1.78125 0.3648,0.4762 0.43039,0.73249 1.71875,9.59375 0.48702,3.34966 1.05981,7.15499 1.3125,8.46875 0.2565,1.33343 0.31681,3.79059 0.15625,5.5625 -0.2427,2.67817 -0.4287,3.31136 -1.34375,4.03125 -1.15983,0.91223 -2.87306,0.98903 -6.21875,0.34375 -1.0767,-0.20772 -4.21928,-0.52507 -7.03125,-0.71875 -2.81199,-0.19379 -5.30042,-0.51904 -5.53125,-0.75 -0.23088,-0.23069 -0.32859,-0.86624 -0.1875,-1.40625 0.24084,-0.92098 0.2945,-0.94269 0.84375,-0.21875 0.78166,1.03 0.76075,0.37536 -0.0312,-1.15625 -0.47359,-0.91588 -0.5251,-1.58802 -0.21875,-2.65625 0.22667,-0.79039 0.33226,-1.54316 0.21875,-1.65625 -0.11343,-0.11331 -0.0602,-0.39509 0.15625,-0.65625 0.5463,-0.65921 4.15478,-9.13593 5,-11.78125 0.38224,-1.19647 0.80956,-3.24399 0.96875,-4.5 0.4062,-3.20507 -0.41698,-2.9241 -1.46875,0.46875 -0.46355,1.49541 -1.17057,3.57958 -1.53125,4.65625 -0.36068,1.07675 -1.17595,3.67017 -1.84375,5.75 -0.66782,2.08004 -1.40556,3.6661 -1.625,3.53125 -0.2304,-0.14226 -0.27403,-1.64708 -0.0937,-3.5625 0.17165,-1.82457 0.35026,-3.90728 0.40625,-4.625 0.2326,-2.97978 1.69712,-8.39215 2.75,-10.21875 1.92908,-3.34684 4.83637,-5.66713 7.15625,-5.875 z"
       id="path3205" />
    <path
       style="fill:#ff0000"
       d="m 328.125,829.76843 c -0.24213,-0.0591 -0.18619,0.26755 0.1875,1.09375 0.35921,0.79426 1.42886,5.40207 2.40625,10.1875 2.35697,11.53985 2.32043,11.24663 1.75,12.3125 -0.28687,0.53615 -0.30256,0.9375 -0.0625,0.9375 0.9232,0 1.44627,-3.03482 0.96875,-5.5625 -0.25542,-1.35192 -0.6721,-4.55019 -0.9375,-7.0625 -0.26542,-2.51232 -0.60814,-4.85985 -0.75,-5.21875 -0.14156,-0.35892 -0.24293,-0.73722 -0.21875,-0.875 0.10601,-0.60597 -1.08128,-3.34424 -1.875,-4.34375 -0.72432,-0.91217 -1.22661,-1.40939 -1.46875,-1.46875 z"
       id="rect3278" />
  </g>
</svg>
