<?xml version="1.0" encoding="UTF-8" standalone="no"?>
<!-- Created with Inkscape (http://www.inkscape.org/) -->

<svg
   xmlns:dc="http://purl.org/dc/elements/1.1/"
   xmlns:cc="http://creativecommons.org/ns#"
   xmlns:rdf="http://www.w3.org/1999/02/22-rdf-syntax-ns#"
   xmlns:svg="http://www.w3.org/2000/svg"
   xmlns="http://www.w3.org/2000/svg"
   xmlns:sodipodi="http://sodipodi.sourceforge.net/DTD/sodipodi-0.dtd"
   xmlns:inkscape="http://www.inkscape.org/namespaces/inkscape"
   width="800"
   height="700"
   id="svg2"
   version="1.1"
   inkscape:version="0.48.2 r9819"
   sodipodi:docname="f23-fill.svg">
  <defs
     id="defs4" />
  <sodipodi:namedview
     id="base"
     pagecolor="#ffffff"
     bordercolor="#666666"
     borderopacity="1.0"
     inkscape:pageopacity="0.0"
     inkscape:pageshadow="2"
     inkscape:zoom="2.5"
     inkscape:cx="305.9394"
     inkscape:cy="211.54613"
     inkscape:document-units="px"
     inkscape:current-layer="layer1"
     showgrid="false"
     showguides="true"
     inkscape:guide-bbox="true"
     inkscape:window-width="1024"
     inkscape:window-height="538"
     inkscape:window-x="-8"
     inkscape:window-y="-8"
     inkscape:window-maximized="1"
     width="0px"
     height="0px"
     fit-margin-top="0"
     fit-margin-left="0"
     fit-margin-right="0"
     fit-margin-bottom="0">
    <sodipodi:guide
       orientation="1,0"
       position="400.22244,349.31075"
       id="guide3178" />
    <sodipodi:guide
       orientation="0,1"
       position="400.22244,349.31075"
       id="guide3180" />
  </sodipodi:namedview>
  <metadata
     id="metadata7">
    <rdf:RDF>
      <cc:Work
         rdf:about="">
        <dc:format>image/svg+xml</dc:format>
        <dc:type
           rdf:resource="http://purl.org/dc/dcmitype/StillImage" />
        <dc:title />
      </cc:Work>
    </rdf:RDF>
  </metadata>
  <g
     inkscape:label="Layer 1"
     inkscape:groupmode="layer"
     id="layer1"
     transform="translate(0,-352.36218)">
    <path
       id="rect4287"
       transform="translate(0,352.36218)"
       style="fill:#00ff00"
       d="m 326,470.40625 c -2.31988,0.20787 -5.22717,2.52816 -7.15625,5.875 -1.05288,1.8266 -2.5174,7.23897 -2.75,10.21875 -0.056,0.71772 -0.2346,2.80043 -0.40625,4.625 -0.18033,1.91542 -0.13665,3.42024 0.0937,3.5625 0.21944,0.13485 0.95718,-1.45121 1.625,-3.53125 0.6678,-2.07983 1.48307,-4.67325 1.84375,-5.75 0.36068,-1.07667 1.0677,-3.16084 1.53125,-4.65625 1.05177,-3.39285 1.87495,-3.67382 1.46875,-0.46875 -0.15919,1.25601 -0.58651,3.30353 -0.96875,4.5 -0.84522,2.64532 -4.4537,11.12204 -5,11.78125 -0.21645,0.26116 -0.26968,0.54294 -0.15625,0.65625 0.11351,0.11309 0.008,0.86586 -0.21875,1.65625 -0.30635,1.06823 -0.25484,1.74037 0.21875,2.65625 0.79195,1.53161 0.81291,2.18625 0.0312,1.15625 -0.54925,-0.72394 -0.60291,-0.70223 -0.84375,0.21875 -0.14109,0.54001 -0.0434,1.17556 0.1875,1.40625 0.23083,0.23096 2.71926,0.55621 5.53125,0.75 2.81197,0.19368 5.95455,0.51103 7.03125,0.71875 3.34569,0.64528 5.05892,0.56848 6.21875,-0.34375 0.91505,-0.71989 1.10105,-1.35308 1.34375,-4.03125 0.16056,-1.77191 0.10025,-4.22907 -0.15625,-5.5625 -0.25269,-1.31376 -0.82548,-5.11909 -1.3125,-8.46875 -1.28836,-8.86126 -1.35395,-9.11755 -1.71875,-9.59375 -0.18329,-0.23931 -0.46486,-1.03171 -0.625,-1.78125 -0.34341,-1.60768 -2.99902,-4.87122 -4.40625,-5.40625 -0.30306,-0.1151 -0.5972,-0.1758 -0.9375,-0.1875 -0.14887,-0.005 -0.3141,-0.0138 -0.46875,0 z m 2.125,7 c 0.24214,0.0594 0.74443,0.55658 1.46875,1.46875 0.79372,0.99951 1.98101,3.73778 1.875,4.34375 -0.0242,0.13778 0.0772,0.51608 0.21875,0.875 0.14186,0.3589 0.48458,2.70643 0.75,5.21875 0.2654,2.51231 0.68208,5.71058 0.9375,7.0625 0.47752,2.52768 -0.0455,5.5625 -0.96875,5.5625 -0.24006,0 -0.22437,-0.40135 0.0625,-0.9375 0.57043,-1.06587 0.60697,-0.77265 -1.75,-12.3125 -0.97739,-4.78543 -2.04704,-9.39324 -2.40625,-10.1875 -0.37369,-0.8262 -0.42963,-1.15285 -0.1875,-1.09375 z" />
  </g>
</svg>
