<?xml version="1.0" encoding="UTF-8" standalone="no"?>
<!-- Created with Inkscape (http://www.inkscape.org/) -->

<svg
   xmlns:dc="http://purl.org/dc/elements/1.1/"
   xmlns:cc="http://creativecommons.org/ns#"
   xmlns:rdf="http://www.w3.org/1999/02/22-rdf-syntax-ns#"
   xmlns:svg="http://www.w3.org/2000/svg"
   xmlns="http://www.w3.org/2000/svg"
   xmlns:sodipodi="http://sodipodi.sourceforge.net/DTD/sodipodi-0.dtd"
   xmlns:inkscape="http://www.inkscape.org/namespaces/inkscape"
   width="800"
   height="400"
   id="svg2"
   version="1.1"
   inkscape:version="0.48.2 r9819"
   sodipodi:docname="fm.svg">
  <defs
     id="defs4" />
  <sodipodi:namedview
     id="base"
     pagecolor="#ffffff"
     bordercolor="#666666"
     borderopacity="1.0"
     inkscape:pageopacity="0.0"
     inkscape:pageshadow="2"
     inkscape:zoom="2.8284271"
     inkscape:cx="649.24113"
     inkscape:cy="51.895415"
     inkscape:document-units="px"
     inkscape:current-layer="layer1"
     showgrid="false"
     showguides="true"
     inkscape:guide-bbox="true"
     inkscape:window-width="1366"
     inkscape:window-height="746"
     inkscape:window-x="-8"
     inkscape:window-y="-8"
     inkscape:window-maximized="1"
     width="0px"
     height="0px"
     fit-margin-top="0"
     fit-margin-left="0"
     fit-margin-right="0"
     fit-margin-bottom="0">
    <sodipodi:guide
       orientation="1,0"
       position="400.22244,349.31075"
       id="guide3178" />
  </sodipodi:namedview>
  <metadata
     id="metadata7">
    <rdf:RDF>
      <cc:Work
         rdf:about="">
        <dc:format>image/svg+xml</dc:format>
        <dc:type
           rdf:resource="http://purl.org/dc/dcmitype/StillImage" />
        <dc:title></dc:title>
        <cc:license
           rdf:resource="" />
      </cc:Work>
    </rdf:RDF>
  </metadata>
  <g
     inkscape:label="Layer 1"
     inkscape:groupmode="layer"
     id="layer1"
     transform="translate(0,-652.36218)">
    <path
       id="rect3177"
       transform="translate(0,652.36218)"
       style="fill:#ff0000"
       d="m 564.71875,288.78125 c -1.13402,-0.0227 -2.07026,0.28843 -3.15625,1 -1.48956,0.97599 -2.85497,1.2096 -3.84375,0.65625 -0.84298,-0.47175 -4.37554,-0.88265 -7.84375,-0.90625 -3.46821,-0.0236 -7.42417,-0.0528 -8.78125,-0.0937 -14.14036,-0.4261 -14.68434,-0.37728 -17.40625,1.65625 -1.50764,1.12636 -3.13466,3.57829 -3.625,5.4375 -1.05021,3.98203 -0.21167,16.33894 1.21875,18.0625 0.54668,0.65871 1.27369,2.99048 1.625,5.1875 0.51657,3.23042 0.0434,5.36147 -2.5,11.15625 -3.51551,8.00979 -7.2811,26.2475 -7.125,34.5 0.0745,3.9373 0.61314,5.89445 2.0625,7.34375 1.69041,1.6905 2.20432,1.7781 3.59375,0.625 0.89051,-0.7391 2.49152,-3.37045 3.5625,-5.84375 1.07097,-2.4733 2.59273,-5.74445 3.375,-7.28125 0.78226,-1.5367 1.40625,-3.1968 1.40625,-3.6875 0,-2.0019 6.57595,-11.62273 11.21875,-16.40625 l 4.96875,-5.125 4.9375,3.9375 c 6.08959,4.84861 13.64897,17.50995 17.34375,29.03125 0.68775,2.1445 2.16782,4.9037 3.28125,6.125 2.52229,2.7667 3.17241,2.77435 5.09375,0.0312 3.55408,-5.0742 0.9363,-28.06235 -4.53125,-39.875 -3.1167,-6.73364 -3.63633,-12.61525 -1.375,-15.84375 2.00269,-2.85924 4.47415,-12.67089 4.40625,-17.53125 -0.0943,-6.74965 -1.98335,-10.71879 -5.59375,-11.75 -0.89645,-0.25605 -1.63209,-0.39261 -2.3125,-0.40625 z m -32.09375,1.75 c 1.1411,0.002 4.22758,1.09434 6.875,2.4375 7.5233,3.81688 10.29834,3.98461 18.3125,1.09375 3.89627,-1.40547 7.46677,-2.5625 7.9375,-2.5625 1.60523,0 3.96875,6.23424 3.96875,10.46875 0,2.32356 -1.06802,6.78043 -2.375,9.9375 -1.30698,3.15706 -2.60014,6.47097 -2.875,7.34375 -0.27485,0.87277 -1.91325,1.87016 -3.65625,2.21875 -4.04823,0.80965 -12.1762,0.6223 -17.25,-0.40625 -17.53973,-3.5556 -17.99725,-3.74191 -19.1875,-7.15625 -1.58462,-4.54565 -2.21475,-12.62217 -1.25,-15.96875 0.94153,-3.26603 6.25596,-7.41325 9.5,-7.40625 z m 17.375,1.125 c 6.89343,-0.0638 7.20406,0.0302 4.90625,1.34375 -2.95738,1.69057 -3.32542,1.66423 -8.375,0 l -3.9375,-1.28125 7.40625,-0.0625 z m -22,29.3125 c 1.12259,0.0278 3.09742,0.43816 6.6875,1.25 16.41278,3.71153 18.60448,3.96022 23.6875,2.96875 2.71373,-0.52933 4.98315,-0.87215 5.03125,-0.78125 0.0481,0.0909 1.11756,3.49127 2.375,7.5625 1.25744,4.07123 2.85875,8.51792 3.5625,9.875 3.56096,6.86678 5.54727,22.552 3.71875,29.375 -0.58956,2.2 -1.84266,2.89585 -2.625,1.46875 -0.22318,-0.4071 -1.63915,-4.4515 -3.125,-9 -3.15595,-9.6609 -9.2808,-19.67354 -15.5625,-25.4375 -7.11461,-6.52821 -7.8963,-6.47862 -15.3125,0.78125 -3.5238,3.44952 -6.99504,7.6408 -7.71875,9.3125 -0.72371,1.6717 -1.99815,3.6107 -2.84375,4.3125 -0.84561,0.7018 -1.5625,2.1106 -1.5625,3.125 0,2.9264 -6.07949,15.7688 -7.28125,15.375 -3.07154,-1.0065 -0.43685,-18.96051 5.3125,-36.21875 2.07962,-6.24256 3.93872,-12.06742 4.125,-12.9375 0.154,-0.71929 0.40866,-1.059 1.53125,-1.03125 z" />
  </g>
</svg>
