<?xml version="1.0" encoding="UTF-8" standalone="no"?>
<!-- Created with Inkscape (http://www.inkscape.org/) -->

<svg
   xmlns:dc="http://purl.org/dc/elements/1.1/"
   xmlns:cc="http://creativecommons.org/ns#"
   xmlns:rdf="http://www.w3.org/1999/02/22-rdf-syntax-ns#"
   xmlns:svg="http://www.w3.org/2000/svg"
   xmlns="http://www.w3.org/2000/svg"
   xmlns:sodipodi="http://sodipodi.sourceforge.net/DTD/sodipodi-0.dtd"
   xmlns:inkscape="http://www.inkscape.org/namespaces/inkscape"
   width="800"
   height="400"
   id="svg2"
   version="1.1"
   inkscape:version="0.48.2 r9819"
   sodipodi:docname="fk.svg">
  <defs
     id="defs4" />
  <sodipodi:namedview
     id="base"
     pagecolor="#ffffff"
     bordercolor="#666666"
     borderopacity="1.0"
     inkscape:pageopacity="0.0"
     inkscape:pageshadow="2"
     inkscape:zoom="2"
     inkscape:cx="532.21429"
     inkscape:cy="184.47551"
     inkscape:document-units="px"
     inkscape:current-layer="layer1"
     showgrid="false"
     showguides="true"
     inkscape:guide-bbox="true"
     inkscape:window-width="1366"
     inkscape:window-height="746"
     inkscape:window-x="-8"
     inkscape:window-y="-8"
     inkscape:window-maximized="1"
     width="0px"
     height="0px"
     fit-margin-top="0"
     fit-margin-left="0"
     fit-margin-right="0"
     fit-margin-bottom="0">
    <sodipodi:guide
       orientation="1,0"
       position="400.22244,349.31075"
       id="guide3178" />
  </sodipodi:namedview>
  <metadata
     id="metadata7">
    <rdf:RDF>
      <cc:Work
         rdf:about="">
        <dc:format>image/svg+xml</dc:format>
        <dc:type
           rdf:resource="http://purl.org/dc/dcmitype/StillImage" />
        <dc:title></dc:title>
        <cc:license
           rdf:resource="" />
      </cc:Work>
    </rdf:RDF>
  </metadata>
  <g
     inkscape:label="Layer 1"
     inkscape:groupmode="layer"
     id="layer1"
     transform="translate(0,-652.36218)">
    <path
       id="rect3185"
       transform="translate(0,652.36218)"
       style="fill:#ff0000"
       d="m 548.21875,228.59375 c -2.89105,0.0359 -5.21549,0.593 -9.28125,1.65625 -11.51082,3.01026 -12.56377,3.70723 -15.75,10.4375 -2.24461,4.74127 -2.81188,7.27618 -2.8125,12.78125 -0.001,11.35619 2.95091,16.5791 10.375,18.375 4.86467,1.17677 9.22463,1.0116 12.84375,-0.5 2.97244,-1.24253 3.75427,-1.26848 6.125,-0.0312 1.89042,0.98656 4.23014,1.24452 7.65625,0.8125 6.65414,-0.83905 9.92948,-2.67527 12.71875,-7.09375 1.99711,-3.16364 2.31712,-4.77602 2.125,-11.0625 -0.30865,-10.09991 -1.17464,-13.51753 -4.75,-18.875 -2.4711,-3.7028 -3.74122,-4.70901 -6.5625,-5.125 -6.33507,-0.93411 -9.79645,-1.4109 -12.6875,-1.375 z m 2.96875,3.34375 c 0.99173,0.0207 1.86731,0.11942 2.5625,0.3125 2.00677,0.55735 4.85867,1.02825 6.34375,1.03125 3.85201,0.008 7.18335,5.58362 8.625,14.4375 1.85261,11.37771 -1.17151,18.06253 -9.8125,21.71875 -3.1781,1.34473 -3.8006,1.33669 -6.78125,-0.25 -1.80164,-0.95908 -3.72839,-2.59197 -4.28125,-3.625 -0.97501,-1.82183 -1.0212,-1.83455 -2.4375,0.1875 -0.80308,1.14654 -3.03884,2.75614 -4.96875,3.5625 -1.9299,0.80637 -3.58685,1.3899 -3.65625,1.3125 -0.0694,-0.0774 -2.1472,-0.79038 -4.625,-1.59375 -6.51573,-2.11257 -8.8125,-5.87032 -8.8125,-14.4375 0,-6.96419 1.27421,-10.81711 5.1875,-15.6875 2.68727,-3.3445 15.71412,-7.11373 22.65625,-6.96875 z m 10.03125,10.21875 c -0.34133,0 -2.36578,1.56885 -4.46875,3.46875 -3.0814,2.78387 -4.62201,3.4375 -7.9375,3.4375 -2.37122,0 -4.84672,0.6602 -5.84375,1.5625 -1.58935,1.43835 -1.96599,1.3997 -4.84375,-0.71875 -1.72268,-1.26815 -3.77804,-3.55196 -4.5625,-5.0625 -1.67377,-3.22298 -3.32235,-2.7088 -3.34375,1.0625 -0.0184,3.22433 -0.78453,4.47125 -3.6875,6 -2.82829,1.48943 -2.76255,2.17951 0.34375,5.53125 1.85264,1.99903 2.8289,2.45235 3.625,1.65625 0.79609,-0.79609 0.61987,-1.59647 -0.59375,-2.9375 -1.56425,-1.72846 -1.52103,-1.93741 0.34375,-3.625 1.09006,-0.98649 2.0048,-2.73776 2.0625,-3.875 0.0913,-1.79859 0.24776,-1.72897 1.15625,0.5625 2.00677,5.06163 7.19727,6.26282 12.96875,2.96875 2.25176,-1.28521 2.92412,-1.35858 3.28125,-0.34375 0.24901,0.70763 2.65867,3.47118 5.34375,6.15625 5.38134,5.38131 6.21132,5.83666 5.28125,2.90625 -0.3594,-1.13235 -0.16683,-1.96875 0.4375,-1.96875 0.57942,0 1.0625,-0.71304 1.0625,-1.59375 0,-1.33539 -0.2537,-1.40403 -1.53125,-0.34375 -1.29586,1.07546 -2.0077,0.78826 -4.46875,-1.90625 -3.10258,-3.39689 -3.4076,-4.0625 -2,-4.0625 0.48855,0 2.48331,-1.57706 4.4375,-3.53125 3.29977,-3.29977 4.42167,-5.34375 2.9375,-5.34375 z" />
  </g>
</svg>
