<?xml version="1.0" encoding="UTF-8" standalone="no"?>
<!-- Created with Inkscape (http://www.inkscape.org/) -->

<svg
   xmlns:dc="http://purl.org/dc/elements/1.1/"
   xmlns:cc="http://creativecommons.org/ns#"
   xmlns:rdf="http://www.w3.org/1999/02/22-rdf-syntax-ns#"
   xmlns:svg="http://www.w3.org/2000/svg"
   xmlns="http://www.w3.org/2000/svg"
   xmlns:sodipodi="http://sodipodi.sourceforge.net/DTD/sodipodi-0.dtd"
   xmlns:inkscape="http://www.inkscape.org/namespaces/inkscape"
   width="800"
   height="400"
   id="svg2"
   version="1.1"
   inkscape:version="0.48.2 r9819"
   sodipodi:docname="mt-fill.svg">
  <defs
     id="defs4" />
  <sodipodi:namedview
     id="base"
     pagecolor="#ffffff"
     bordercolor="#666666"
     borderopacity="1.0"
     inkscape:pageopacity="0.0"
     inkscape:pageshadow="2"
     inkscape:zoom="2"
     inkscape:cx="92.934097"
     inkscape:cy="129.39031"
     inkscape:document-units="px"
     inkscape:current-layer="layer1"
     showgrid="false"
     showguides="true"
     inkscape:guide-bbox="true"
     inkscape:window-width="1024"
     inkscape:window-height="538"
     inkscape:window-x="-8"
     inkscape:window-y="-8"
     inkscape:window-maximized="1"
     width="0px"
     height="0px"
     fit-margin-top="0"
     fit-margin-left="0"
     fit-margin-right="0"
     fit-margin-bottom="0">
    <sodipodi:guide
       orientation="1,0"
       position="400.22244,349.31075"
       id="guide3178" />
    <sodipodi:guide
       orientation="1,0"
       position="169,162.5"
       id="guide4533" />
  </sodipodi:namedview>
  <metadata
     id="metadata7">
    <rdf:RDF>
      <cc:Work
         rdf:about="">
        <dc:format>image/svg+xml</dc:format>
        <dc:type
           rdf:resource="http://purl.org/dc/dcmitype/StillImage" />
        <dc:title />
        <cc:license
           rdf:resource="" />
      </cc:Work>
    </rdf:RDF>
  </metadata>
  <g
     inkscape:label="Layer 1"
     inkscape:groupmode="layer"
     id="layer1"
     transform="translate(0,-652.36218)">
    <path
       id="rect4531"
       transform="translate(0,652.36218)"
       style="fill:#00ff00"
       d="m 194.5,227.6875 c -1.54427,0.0868 -3.18002,0.77291 -5.4375,2.25 -5.37643,3.51784 -8.5109,11.40881 -8.625,21.71875 -0.0701,6.33116 0.16511,7.23198 2.34375,9 l 2.4375,1.96875 1.78125,-2.25 c 0.97477,-1.23905 1.75,-2.91644 1.75,-3.75 0,-0.83356 0.84635,-2.12325 1.875,-2.84375 1.83551,-1.28565 1.83944,-1.35356 0,-3.625 -1.23884,-1.5299 -2.54214,-2.12162 -3.84375,-1.78125 -2.75987,0.72173 -3.32889,-0.78444 -1.40625,-3.71875 1.95237,-2.9797 3.81891,-3.30428 3.09375,-0.53125 -0.30993,1.18515 -0.0426,1.96875 0.6875,1.96875 0.6688,0 2.28759,1.11167 3.5625,2.46875 3.83921,4.08665 6.6106,3.22757 9.9375,-3.0625 1.13803,-2.15161 1.32024,-3.6305 0.65625,-5.375 -0.50459,-1.32572 -0.66773,-4.5153 -0.375,-7.09375 0.49983,-4.40264 0.3764,-4.6875 -1.78125,-4.6875 -1.26365,0 -3.56436,-0.26016 -5.125,-0.5625 -0.51741,-0.0997 -1.01649,-0.12275 -1.53125,-0.0937 z m 16.21875,0.375 c -4.76297,0.0395 -6.76886,4.05798 -4.53125,10.625 1.00715,2.95582 1.21228,4.9267 0.59375,5.71875 -0.5196,0.66534 -1.43566,2.56902 -2,4.25 -0.93412,2.78239 -0.76423,3.19518 1.65625,4.625 2.58715,1.52826 2.7201,1.49918 5.125,-1.5625 1.35932,-1.73056 3.06589,-4.57955 3.78125,-6.34375 0.71535,-1.7642 1.63076,-3.21875 2.0625,-3.21875 1.61857,0 1.57005,2.55647 -0.125,5.34375 -1.74087,2.86262 -1.7558,2.91873 0.75,4.21875 3.17886,1.64922 3.28125,1.61236 3.28125,-0.28125 0,-0.85949 0.57146,-1.34256 1.25,-1.09375 0.67854,0.24879 1.09344,1.06611 0.90625,1.8125 -0.18718,0.7464 -0.51584,2.19534 -0.71875,3.21875 -0.56932,2.87135 -1.03095,2.8753 -3.75,0.15625 -2.98125,-2.98126 -4.02435,-3.10709 -5.78125,-0.78125 -0.71758,0.94995 -2.1726,2.2258 -3.25,2.84375 -1.0774,0.61796 -1.86863,1.72964 -1.75,2.46875 0.38106,2.37426 1.41832,7.2285 1.8125,8.5 0.50033,1.61398 9.04885,1.58701 12.21875,-0.0312 4.46296,-2.27846 6.22279,-7.11194 5.84375,-16.03125 -0.28568,-6.72257 -0.86627,-9.00524 -3.65625,-14.5 -2.92762,-5.76587 -3.89257,-6.78645 -8.09375,-8.59375 -2.13786,-0.91968 -4.03734,-1.35695 -5.625,-1.34375 z m -12.03125,25.375 c -1.25811,-0.0273 -2.49903,0.31396 -3.59375,1.03125 -2.811,1.84184 -6.53652,8.71928 -5.78125,10.6875 1.33858,3.4883 11.25937,5.78184 15.40625,3.5625 1.74661,-0.93477 1.92595,-1.68585 1.34375,-5.6875 -0.36812,-2.53023 -1.29048,-5.5328 -2.03125,-6.6875 -1.17009,-1.82389 -3.24691,-2.86085 -5.34375,-2.90625 z" />
  </g>
</svg>
