<?xml version="1.0" encoding="UTF-8" standalone="no"?>
<!-- Created with Inkscape (http://www.inkscape.org/) -->

<svg
   xmlns:dc="http://purl.org/dc/elements/1.1/"
   xmlns:cc="http://creativecommons.org/ns#"
   xmlns:rdf="http://www.w3.org/1999/02/22-rdf-syntax-ns#"
   xmlns:svg="http://www.w3.org/2000/svg"
   xmlns="http://www.w3.org/2000/svg"
   xmlns:sodipodi="http://sodipodi.sourceforge.net/DTD/sodipodi-0.dtd"
   xmlns:inkscape="http://www.inkscape.org/namespaces/inkscape"
   width="800"
   height="400"
   id="svg2"
   version="1.1"
   inkscape:version="0.48.2 r9819"
   sodipodi:docname="mt13-fill.svg">
  <defs
     id="defs4" />
  <sodipodi:namedview
     id="base"
     pagecolor="#ffffff"
     bordercolor="#666666"
     borderopacity="1.0"
     inkscape:pageopacity="0.0"
     inkscape:pageshadow="2"
     inkscape:zoom="8"
     inkscape:cx="215.05518"
     inkscape:cy="147.63194"
     inkscape:document-units="px"
     inkscape:current-layer="layer1"
     showgrid="false"
     showguides="true"
     inkscape:guide-bbox="true"
     inkscape:window-width="1366"
     inkscape:window-height="746"
     inkscape:window-x="-8"
     inkscape:window-y="-8"
     inkscape:window-maximized="1"
     width="0px"
     height="0px"
     fit-margin-top="0"
     fit-margin-left="0"
     fit-margin-right="0"
     fit-margin-bottom="0">
    <sodipodi:guide
       orientation="1,0"
       position="400.22244,349.31075"
       id="guide3178" />
  </sodipodi:namedview>
  <metadata
     id="metadata7">
    <rdf:RDF>
      <cc:Work
         rdf:about="">
        <dc:format>image/svg+xml</dc:format>
        <dc:type
           rdf:resource="http://purl.org/dc/dcmitype/StillImage" />
        <dc:title></dc:title>
        <cc:license
           rdf:resource="" />
      </cc:Work>
    </rdf:RDF>
  </metadata>
  <g
     inkscape:label="Layer 1"
     inkscape:groupmode="layer"
     id="layer1"
     transform="translate(0,-652.36218)">
    <path
       style="fill:#d45500;fill-opacity:1;stroke:none"
       d="M 181.78125 241.34375 C 180.95642 244.39025 180.47958 247.85352 180.4375 251.65625 C 180.41643 253.55908 180.42144 254.9385 180.5 256.03125 L 188.875 256.03125 C 189.13754 255.26091 189.81879 254.34595 190.625 253.78125 C 192.46051 252.4956 192.46444 252.42769 190.625 250.15625 C 189.38616 248.62635 188.08286 248.03463 186.78125 248.375 C 184.02138 249.09673 183.45236 247.59056 185.375 244.65625 C 187.32737 241.67655 189.19391 241.35197 188.46875 244.125 C 188.15882 245.31015 188.42614 246.09375 189.15625 246.09375 C 189.82505 246.09375 191.44384 247.20542 192.71875 248.5625 C 193.67855 249.58416 194.58581 250.29164 195.4375 250.6875 L 195.4375 241.34375 L 181.78125 241.34375 z M 195.4375 254.28125 C 195.32361 254.34627 195.20477 254.39601 195.09375 254.46875 C 194.5484 254.82608 193.9498 255.36747 193.375 256.03125 L 195.4375 256.03125 L 195.4375 254.28125 z "
       transform="translate(0,652.36218)"
       id="rect4070-8" />
  </g>
</svg>
