<?xml version="1.0" encoding="UTF-8" standalone="no"?>
<!-- Created with Inkscape (http://www.inkscape.org/) -->

<svg
   xmlns:dc="http://purl.org/dc/elements/1.1/"
   xmlns:cc="http://creativecommons.org/ns#"
   xmlns:rdf="http://www.w3.org/1999/02/22-rdf-syntax-ns#"
   xmlns:svg="http://www.w3.org/2000/svg"
   xmlns="http://www.w3.org/2000/svg"
   xmlns:sodipodi="http://sodipodi.sourceforge.net/DTD/sodipodi-0.dtd"
   xmlns:inkscape="http://www.inkscape.org/namespaces/inkscape"
   width="800"
   height="400"
   id="svg2"
   version="1.1"
   inkscape:version="0.48.2 r9819"
   sodipodi:docname="mt22-fill.svg">
  <defs
     id="defs4" />
  <sodipodi:namedview
     id="base"
     pagecolor="#ffffff"
     bordercolor="#666666"
     borderopacity="1.0"
     inkscape:pageopacity="0.0"
     inkscape:pageshadow="2"
     inkscape:zoom="8"
     inkscape:cx="215.05518"
     inkscape:cy="147.63194"
     inkscape:document-units="px"
     inkscape:current-layer="layer1"
     showgrid="false"
     showguides="true"
     inkscape:guide-bbox="true"
     inkscape:window-width="1366"
     inkscape:window-height="746"
     inkscape:window-x="-8"
     inkscape:window-y="-8"
     inkscape:window-maximized="1"
     width="0px"
     height="0px"
     fit-margin-top="0"
     fit-margin-left="0"
     fit-margin-right="0"
     fit-margin-bottom="0">
    <sodipodi:guide
       orientation="1,0"
       position="400.22244,349.31075"
       id="guide3178" />
  </sodipodi:namedview>
  <metadata
     id="metadata7">
    <rdf:RDF>
      <cc:Work
         rdf:about="">
        <dc:format>image/svg+xml</dc:format>
        <dc:type
           rdf:resource="http://purl.org/dc/dcmitype/StillImage" />
        <dc:title></dc:title>
        <cc:license
           rdf:resource="" />
      </cc:Work>
    </rdf:RDF>
  </metadata>
  <g
     inkscape:label="Layer 1"
     inkscape:groupmode="layer"
     id="layer1"
     transform="translate(0,-652.36218)">
    <path
       style="fill:#ffaaaa;fill-opacity:1;stroke:none"
       d="M 212.34375 241.34375 L 212.34375 250.625 C 213.51851 248.93912 214.76099 246.81218 215.34375 245.375 C 216.0591 243.6108 216.97451 242.15625 217.40625 242.15625 C 219.02482 242.15625 218.9763 244.71272 217.28125 247.5 C 215.54038 250.36262 215.52545 250.41873 218.03125 251.71875 C 221.21011 253.36797 221.3125 253.33111 221.3125 251.4375 C 221.3125 250.57801 221.88396 250.09494 222.5625 250.34375 C 223.24104 250.59254 223.65594 251.40986 223.46875 252.15625 C 223.28157 252.90265 222.95291 254.35159 222.75 255.375 C 222.70013 255.62651 222.64355 255.82364 222.59375 256.03125 L 228.09375 256.03125 C 228.12722 254.92957 228.14732 253.76059 228.09375 252.5 C 227.87358 247.31901 227.47811 244.75325 226.03125 241.34375 L 212.34375 241.34375 z M 215.34375 253.125 C 214.62628 253.17021 213.98739 253.73245 213.21875 254.75 C 212.99444 255.04695 212.67812 255.35691 212.34375 255.6875 L 212.34375 256.03125 L 219.5 256.03125 C 219.33318 255.86968 219.18752 255.71877 219 255.53125 C 217.32305 253.85429 216.26621 253.06687 215.34375 253.125 z "
       transform="translate(0,652.36218)"
       id="rect4070-9-4-2" />
  </g>
</svg>
