<?xml version="1.0" encoding="UTF-8" standalone="no"?>
<!-- Created with Inkscape (http://www.inkscape.org/) -->

<svg
   xmlns:dc="http://purl.org/dc/elements/1.1/"
   xmlns:cc="http://creativecommons.org/ns#"
   xmlns:rdf="http://www.w3.org/1999/02/22-rdf-syntax-ns#"
   xmlns:svg="http://www.w3.org/2000/svg"
   xmlns="http://www.w3.org/2000/svg"
   xmlns:sodipodi="http://sodipodi.sourceforge.net/DTD/sodipodi-0.dtd"
   xmlns:inkscape="http://www.inkscape.org/namespaces/inkscape"
   width="800"
   height="400"
   id="svg2"
   version="1.1"
   inkscape:version="0.48.2 r9819"
   sodipodi:docname="mt31-fill.svg">
  <defs
     id="defs4" />
  <sodipodi:namedview
     id="base"
     pagecolor="#ffffff"
     bordercolor="#666666"
     borderopacity="1.0"
     inkscape:pageopacity="0.0"
     inkscape:pageshadow="2"
     inkscape:zoom="8"
     inkscape:cx="215.05518"
     inkscape:cy="147.63194"
     inkscape:document-units="px"
     inkscape:current-layer="layer1"
     showgrid="false"
     showguides="true"
     inkscape:guide-bbox="true"
     inkscape:window-width="1366"
     inkscape:window-height="746"
     inkscape:window-x="-8"
     inkscape:window-y="-8"
     inkscape:window-maximized="1"
     width="0px"
     height="0px"
     fit-margin-top="0"
     fit-margin-left="0"
     fit-margin-right="0"
     fit-margin-bottom="0">
    <sodipodi:guide
       orientation="1,0"
       position="400.22244,349.31075"
       id="guide3178" />
  </sodipodi:namedview>
  <metadata
     id="metadata7">
    <rdf:RDF>
      <cc:Work
         rdf:about="">
        <dc:format>image/svg+xml</dc:format>
        <dc:type
           rdf:resource="http://purl.org/dc/dcmitype/StillImage" />
        <dc:title></dc:title>
        <cc:license
           rdf:resource="" />
      </cc:Work>
    </rdf:RDF>
  </metadata>
  <g
     inkscape:label="Layer 1"
     inkscape:groupmode="layer"
     id="layer1"
     transform="translate(0,-652.36218)">
    <path
       style="fill:#ff5555;fill-opacity:1;stroke:none"
       d="M 195.40625 256.03125 L 195.40625 268.9375 C 198.70847 269.80036 202.52294 269.89391 204.71875 268.71875 C 206.46536 267.78398 206.6447 267.0329 206.0625 263.03125 C 205.69438 260.50102 204.77202 257.49845 204.03125 256.34375 C 203.96207 256.23592 203.88783 256.13354 203.8125 256.03125 L 195.40625 256.03125 z M 212 256.03125 C 211.33712 256.64241 210.59558 257.23423 209.96875 257.59375 C 208.89135 258.21171 208.10012 259.32339 208.21875 260.0625 C 208.59981 262.43676 209.63707 267.291 210.03125 268.5625 C 210.18209 269.0491 211.0665 269.37285 212.3125 269.5625 L 212.3125 256.03125 L 212 256.03125 z "
       transform="translate(0,652.36218)"
       id="rect4070-9" />
  </g>
</svg>
