<?xml version="1.0" encoding="UTF-8" standalone="no"?>
<!-- Created with Inkscape (http://www.inkscape.org/) -->

<svg
   xmlns:dc="http://purl.org/dc/elements/1.1/"
   xmlns:cc="http://creativecommons.org/ns#"
   xmlns:rdf="http://www.w3.org/1999/02/22-rdf-syntax-ns#"
   xmlns:svg="http://www.w3.org/2000/svg"
   xmlns="http://www.w3.org/2000/svg"
   xmlns:sodipodi="http://sodipodi.sourceforge.net/DTD/sodipodi-0.dtd"
   xmlns:inkscape="http://www.inkscape.org/namespaces/inkscape"
   width="900"
   height="800"
   id="svg2"
   version="1.1"
   inkscape:version="0.48.2 r9819"
   sodipodi:docname="l30.svg">
  <defs
     id="defs4" />
  <sodipodi:namedview
     id="base"
     pagecolor="#ffffff"
     bordercolor="#666666"
     borderopacity="1.0"
     inkscape:pageopacity="0.0"
     inkscape:pageshadow="2"
     inkscape:zoom="4"
     inkscape:cx="792.71621"
     inkscape:cy="280.575"
     inkscape:document-units="px"
     inkscape:current-layer="layer1"
     showgrid="false"
     showguides="true"
     inkscape:guide-bbox="true"
     inkscape:window-width="1366"
     inkscape:window-height="746"
     inkscape:window-x="-8"
     inkscape:window-y="-8"
     inkscape:window-maximized="1"
     width="0px"
     height="0px"
     fit-margin-top="0"
     fit-margin-left="0"
     fit-margin-right="0"
     fit-margin-bottom="0">
    <sodipodi:guide
       orientation="1,0"
       position="450,784"
       id="guide3178" />
    <sodipodi:guide
       orientation="0,1"
       position="-61,400"
       id="guide3180" />
  </sodipodi:namedview>
  <metadata
     id="metadata7">
    <rdf:RDF>
      <cc:Work
         rdf:about="">
        <dc:format>image/svg+xml</dc:format>
        <dc:type
           rdf:resource="http://purl.org/dc/dcmitype/StillImage" />
        <dc:title></dc:title>
      </cc:Work>
    </rdf:RDF>
  </metadata>
  <g
     inkscape:label="Layer 1"
     inkscape:groupmode="layer"
     id="layer1"
     transform="translate(0,-252.36218)">
    <path
       id="rect3283"
       transform="translate(0,252.36218)"
       style="fill:#ff0000"
       d="m 822.84375,477 c -2.3717,0.0258 -7.06851,2.06531 -7.625,3.3125 -0.23991,0.53772 -0.97629,1.27786 -1.625,1.625 -0.64869,0.34719 -1.1875,0.77848 -1.1875,0.9375 0,0.15901 -0.99661,1.45442 -2.1875,2.90625 -1.1909,1.45179 -2.74337,4.08295 -3.46875,5.875 -0.72532,1.79204 -1.72592,4.28281 -2.25,5.5 -0.52412,1.21713 -1.16712,3.84639 -1.4375,5.875 -0.732,5.49236 -2.06996,17.68916 -2.1875,19.9375 -0.3171,6.06072 -1.65046,10.73297 -4.40625,15.6875 -3.42415,6.15606 -5.09564,9.94828 -5.90625,13.40625 -0.77156,3.29165 -0.76048,3.81034 -0.0312,6.65625 0.85479,3.3368 2.58956,5.627 4.65625,6.125 0.68369,0.16472 1.84456,0.7173 2.5625,1.21875 0.71796,0.50154 1.51579,0.90625 1.78125,0.90625 0.26541,0 1.10027,0.34599 1.875,0.75 2.30134,1.20033 3.48096,0.85949 7.21875,-2 1.95454,-1.49533 4.02327,-2.81299 4.625,-2.96875 0.67214,-0.17324 2.07879,0.21403 3.65625,1 1.41234,0.70397 2.82152,1.25 3.125,1.25 0.30347,0 1.41766,0.78379 2.46875,1.71875 1.05108,0.93521 2.35294,1.79596 2.90625,1.90625 0.55329,0.10994 1.26079,0.21438 1.53125,0.25 0.27048,0.0353 1.3556,-0.48997 2.4375,-1.15625 1.08193,-0.6664 2.59279,-1.21875 3.34375,-1.21875 2.32203,-0.026 5.4048,-3.63664 6.6875,-7.78125 0.95426,-3.08324 1.0387,-3.80525 0.5625,-6.5625 -0.58743,-3.4018 -2.57835,-9.86378 -3.96875,-12.96875 -1.73204,-3.86801 -2.4375,-7.44715 -2.4375,-11.96875 0,-5.22385 0.96925,-8.66528 4.34375,-15.5625 4.1163,-8.41356 5.08041,-11.72612 5.34375,-17.75 0.19796,-4.52776 0.0834,-6.0022 -0.78125,-9.0625 -1.11182,-3.93478 -1.94101,-4.96601 -3.65625,-4.53125 -3.09314,0.78415 -4.72591,3.8885 -6.03125,11.40625 -0.91354,5.26134 -2.04771,7.49987 -5.34375,10.59375 -2.72985,2.56254 -7.64821,10.45485 -7.65625,12.28125 -0.006,1.37817 -2.28825,6.125 -2.9375,6.125 -0.28965,0 -0.7361,-0.55593 -1,-1.25 -0.64447,-1.69489 -0.69489,-14.35662 -0.0625,-16 0.27628,-0.7181 0.63655,-2.26225 0.78125,-3.4375 0.26495,-2.15213 1.63609,-6.17922 3.0625,-8.9375 0.42387,-0.81972 2.04142,-2.74558 3.625,-4.25 2.26785,-2.15445 3.04451,-3.24631 3.53125,-5.125 0.60522,-2.33621 0.59388,-2.40659 -0.75,-3.5625 -0.92848,-0.79859 -1.95832,-1.16842 -3.1875,-1.15625 z m 0.625,1.625 c 0.52494,0.0374 0.82964,0.24458 1.25,0.625 1.75762,1.59066 1.22929,2.93397 -2.71875,6.6875 -2.81644,2.67763 -4.09451,4.3665 -5.40625,7.09375 -0.94678,1.96838 -1.87025,4.29635 -2.03125,5.1875 -0.16094,0.89121 -0.61491,2.73849 -1,4.125 -0.41219,1.48413 -0.7175,5.04262 -0.75,8.625 -0.0891,9.84356 1.31241,12.3201 5.5625,9.8125 1.34498,-0.79357 1.86142,-1.54554 2.5625,-3.8125 1.58744,-5.13319 3.87777,-9.13753 7.28125,-12.75 4.49865,-4.77493 6.26299,-8.6766 6.96875,-15.28125 0.35046,-3.27964 1.99131,-6.53125 3.28125,-6.53125 1.43958,0 2.36343,1.77235 3,5.875 0.89377,5.76078 -0.32871,11.66798 -4.03125,19.53125 -1.04813,2.22599 -1.90625,4.18384 -1.90625,4.3125 0,0.12844 -0.66253,1.57858 -1.4375,3.28125 -3.10844,6.82923 -2.99047,6.45893 -3.03125,13.4375 -0.0181,3.1045 0.24449,5.84739 0.71875,7.375 0.41316,1.331 0.63863,2.58816 0.5,2.8125 -0.54376,0.87973 -4.69882,0.3524 -10.28125,-1.3125 -4.1699,-1.24364 -5.46636,-1.27144 -16.65625,-0.46875 l -5.375,0.34375 0.28125,-1.375 c 0.15131,-0.78461 0.70773,-2.93211 1.25,-4.75 0.96235,-3.22641 1.1584,-4.37921 1.8125,-11.46875 0.1747,-1.89337 0.84398,-7.36934 1.5,-12.15625 1.00148,-7.30767 1.46053,-9.30549 2.90625,-12.59375 0.94708,-2.15403 1.71875,-4.18278 1.71875,-4.46875 0,-1.33212 2.38401,-4.81802 5.375,-7.875 2.95382,-3.01899 3.61352,-3.44086 6.15625,-3.96875 1.25762,-0.26114 1.97505,-0.34984 2.5,-0.3125 z m -9.28125,59.40625 c 1.39433,-0.0231 2.79298,0.13048 3.53125,0.34375 0.98434,0.28454 3.35666,0.8546 5.25,1.3125 7.53064,1.82089 7.96165,2.06099 8.84375,4.59375 3.48588,10.00876 3.02278,15.05673 -1.8125,20.28125 -2.82638,3.0542 -3.79223,3.29734 -5.875,1.46875 -0.91153,-0.80045 -3.3828,-2.22864 -5.46875,-3.21875 -2.08587,-0.99011 -3.78125,-1.93464 -3.78125,-2.0625 0,-0.12752 0.35563,-0.89568 0.78125,-1.71875 1.17688,-2.27582 0.34105,-2.32118 -1.6875,-0.125 -0.99797,1.08041 -2.3895,2.20455 -3.09375,2.5625 -0.70427,0.35783 -2.13365,1.52114 -3.1875,2.53125 -2.79794,2.68165 -3.25805,2.71103 -7.34375,0.71875 -3.55871,-1.73532 -3.58574,-1.81397 -4.21875,-4.3125 -1.5488,-6.11367 0.69198,-19.65937 3.4375,-20.71875 0.73588,-0.28398 5.69334,-0.90736 13.25,-1.59375 0.43007,-0.0391 0.91021,-0.0548 1.375,-0.0625 z m 19.34375,3.84375 c 1.08585,0 1.51143,0.65611 2.71875,4.1875 2.43452,7.12077 2.78088,10.56841 1.3125,13.75 -0.49936,1.08201 -1.56055,2.54258 -2.3125,3.21875 l -1.375,1.25 0.375,-1.25 c 0.90882,-3.13082 1.23048,-5.49106 1.25,-9.28125 0.0184,-3.50622 -0.20634,-4.53011 -1.46875,-7.40625 -1.73764,-3.95893 -1.78229,-4.46875 -0.5,-4.46875 z m -38.21875,3.4375 c 0.23491,0 0.0443,0.65807 -0.375,1.46875 -0.56244,1.08776 -0.79296,3.29487 -0.875,8.375 -0.0611,3.78584 -0.24546,6.90475 -0.4375,6.90625 -0.6998,0.005 -2.42909,-7.77521 -1.8125,-8.15625 0.24649,-0.15232 0.3551,-0.46694 0.21875,-0.6875 -0.5129,-0.82961 2.42423,-7.90625 3.28125,-7.90625 z" />
  </g>
</svg>
