<?xml version="1.0" encoding="UTF-8" standalone="no"?>
<!-- Created with Inkscape (http://www.inkscape.org/) -->

<svg
   xmlns:dc="http://purl.org/dc/elements/1.1/"
   xmlns:cc="http://creativecommons.org/ns#"
   xmlns:rdf="http://www.w3.org/1999/02/22-rdf-syntax-ns#"
   xmlns:svg="http://www.w3.org/2000/svg"
   xmlns="http://www.w3.org/2000/svg"
   xmlns:sodipodi="http://sodipodi.sourceforge.net/DTD/sodipodi-0.dtd"
   xmlns:inkscape="http://www.inkscape.org/namespaces/inkscape"
   width="800"
   height="700"
   id="svg2"
   version="1.1"
   inkscape:version="0.48.2 r9819"
   sodipodi:docname="l30.svg">
  <defs
     id="defs4" />
  <sodipodi:namedview
     id="base"
     pagecolor="#ffffff"
     bordercolor="#666666"
     borderopacity="1.0"
     inkscape:pageopacity="0.0"
     inkscape:pageshadow="2"
     inkscape:zoom="5"
     inkscape:cx="720.04341"
     inkscape:cy="229.62435"
     inkscape:document-units="px"
     inkscape:current-layer="layer1"
     showgrid="false"
     showguides="true"
     inkscape:guide-bbox="true"
     inkscape:window-width="1366"
     inkscape:window-height="746"
     inkscape:window-x="-8"
     inkscape:window-y="-8"
     inkscape:window-maximized="1"
     width="0px"
     height="0px"
     fit-margin-top="0"
     fit-margin-left="0"
     fit-margin-right="0"
     fit-margin-bottom="0">
    <sodipodi:guide
       orientation="1,0"
       position="400.22244,349.31075"
       id="guide3178" />
    <sodipodi:guide
       orientation="0,1"
       position="400.22244,349.31075"
       id="guide3180" />
  </sodipodi:namedview>
  <metadata
     id="metadata7">
    <rdf:RDF>
      <cc:Work
         rdf:about="">
        <dc:format>image/svg+xml</dc:format>
        <dc:type
           rdf:resource="http://purl.org/dc/dcmitype/StillImage" />
        <dc:title></dc:title>
      </cc:Work>
    </rdf:RDF>
  </metadata>
  <g
     inkscape:label="Layer 1"
     inkscape:groupmode="layer"
     id="layer1"
     transform="translate(0,-352.36218)">
    <path
       id="rect3384"
       transform="translate(0,352.36218)"
       style="fill:#ff0000"
       d="m 728.84375,421.9375 c -2.09801,0.0228 -6.25774,1.80298 -6.75,2.90625 -0.21224,0.47567 -0.83241,1.13041 -1.40625,1.4375 -0.57385,0.30712 -1.0625,0.67182 -1.0625,0.8125 0,0.14065 -0.88405,1.30946 -1.9375,2.59375 -1.05349,1.28426 -2.42084,3.60225 -3.0625,5.1875 -0.64163,1.58524 -1.56765,3.79826 -2.03125,4.875 -0.46366,1.07666 -1.01083,3.39299 -1.25,5.1875 -0.64752,4.85854 -1.83352,15.63611 -1.9375,17.625 -0.28051,5.36132 -1.43722,9.49222 -3.875,13.875 -3.029,5.44565 -4.53293,8.81609 -5.25,11.875 -0.68251,2.9118 -0.6763,3.35751 -0.0312,5.875 0.75615,2.95174 2.2968,4.99697 4.125,5.4375 0.6048,0.1457 1.61489,0.65017 2.25,1.09375 0.63511,0.44366 1.35892,0.78125 1.59375,0.78125 0.23479,0 0.97092,0.33011 1.65625,0.6875 2.03577,1.06181 3.06852,0.74826 6.375,-1.78125 1.72897,-1.32277 3.56146,-2.51847 4.09375,-2.65625 0.59459,-0.15326 1.85456,0.21098 3.25,0.90625 1.24935,0.62274 2.48154,1.09375 2.75,1.09375 0.26844,0 1.28895,0.70418 2.21875,1.53125 0.92977,0.82729 2.07304,1.58994 2.5625,1.6875 0.48944,0.0973 1.10451,0.18725 1.34375,0.21875 0.23926,0.0312 1.19919,-0.41061 2.15625,-1 0.95707,-0.5895 2.27319,-1.09375 2.9375,-1.09375 2.05406,-0.023 4.80283,-3.23992 5.9375,-6.90625 0.84415,-2.72743 0.88999,-3.34219 0.46875,-5.78125 -0.51965,-3.00924 -2.23881,-8.72208 -3.46875,-11.46875 -1.53217,-3.42163 -2.15625,-6.59395 -2.15625,-10.59375 0,-4.62102 0.85867,-7.67996 3.84375,-13.78125 3.6413,-7.44265 4.4858,-10.35876 4.71875,-15.6875 0.17512,-4.00526 0.0774,-5.3241 -0.6875,-8.03125 -0.98351,-3.48071 -1.73268,-4.38459 -3.25,-4 -2.7362,0.69366 -4.18903,3.44355 -5.34375,10.09375 -0.8081,4.6542 -1.80307,6.63815 -4.71875,9.375 -2.41484,2.26682 -6.77414,9.25937 -6.78125,10.875 -0.006,1.21913 -2.01945,5.40625 -2.59375,5.40625 -0.25623,0 -0.64157,-0.47978 -0.875,-1.09375 -0.57011,-1.4993 -0.59062,-12.70252 -0.0312,-14.15625 0.24439,-0.63524 0.52825,-2.02287 0.65625,-3.0625 0.23437,-1.90377 1.45695,-5.46628 2.71875,-7.90625 0.37496,-0.72514 1.81792,-2.41919 3.21875,-3.75 2.00615,-1.90583 2.69441,-2.86934 3.125,-4.53125 0.53536,-2.06661 0.50131,-2.13373 -0.6875,-3.15625 -0.82132,-0.70644 -1.72516,-1.01076 -2.8125,-1 z m 0.5625,1.40625 c 0.46436,0.0332 0.75316,0.22599 1.125,0.5625 1.5548,1.4071 1.05494,2.61713 -2.4375,5.9375 -2.49142,2.36863 -3.62089,3.83746 -4.78125,6.25 -0.83751,1.74124 -1.63884,3.80544 -1.78125,4.59375 -0.14237,0.78836 -0.53436,2.42976 -0.875,3.65625 -0.36463,1.31288 -0.65876,4.45602 -0.6875,7.625 -0.0788,8.70762 1.17787,10.87447 4.9375,8.65625 1.18978,-0.70199 1.62982,-1.3384 2.25,-3.34375 1.40426,-4.54082 3.42677,-8.08565 6.4375,-11.28125 3.97951,-4.22391 5.53193,-7.68877 6.15625,-13.53125 0.31002,-2.90117 1.79641,-5.78125 2.9375,-5.78125 1.27344,0 2.0619,1.58955 2.625,5.21875 0.79063,5.096 -0.28723,10.32539 -3.5625,17.28125 -0.92719,1.96911 -1.6875,3.66742 -1.6875,3.78125 0,0.11361 -0.56447,1.43132 -1.25,2.9375 -2.74975,6.04114 -2.68268,5.70174 -2.71875,11.875 -0.0159,2.74624 0.23671,5.14867 0.65625,6.5 0.36548,1.1774 0.56013,2.3328 0.4375,2.53125 -0.481,0.77821 -4.15553,0.28526 -9.09375,-1.1875 -3.68869,-1.10012 -4.82017,-1.11631 -14.71875,-0.40625 l -4.78125,0.3125 0.28125,-1.25 c 0.13383,-0.69407 0.61405,-2.57939 1.09375,-4.1875 0.8513,-2.85407 1.01513,-3.85358 1.59375,-10.125 0.15454,-1.67487 0.76344,-6.5155 1.34375,-10.75 0.88591,-6.46437 1.28362,-8.24745 2.5625,-11.15625 0.83779,-1.90545 1.53125,-3.68453 1.53125,-3.9375 0,-1.1784 2.10417,-4.2958 4.75,-7 2.61296,-2.67061 3.18819,-3.00178 5.4375,-3.46875 1.11249,-0.231 1.75439,-0.34554 2.21875,-0.3125 z m -8.21875,52.5625 c 1.23344,-0.0205 2.47192,0.0926 3.125,0.28125 0.87075,0.25171 2.9814,0.78244 4.65625,1.1875 6.66162,1.61077 7.03219,1.82203 7.8125,4.0625 3.0836,8.85377 2.68355,13.31589 -1.59375,17.9375 -2.50022,2.70175 -3.37632,2.93007 -5.21875,1.3125 -0.80635,-0.70809 -2.96727,-1.99916 -4.8125,-2.875 -1.84516,-0.87587 -3.375,-1.69938 -3.375,-1.8125 0,-0.1128 0.34225,-0.77191 0.71875,-1.5 1.04108,-2.01319 0.29445,-2.06774 -1.5,-0.125 -0.8828,0.95573 -2.12702,1.9646 -2.75,2.28125 -0.62299,0.31654 -1.88027,1.32521 -2.8125,2.21875 -2.47506,2.37219 -2.85455,2.38736 -6.46875,0.625 -3.14804,-1.53507 -3.19005,-1.6023 -3.75,-3.8125 -1.37008,-5.40816 0.60255,-17.37537 3.03125,-18.3125 0.65096,-0.25121 5.03413,-0.79907 11.71875,-1.40625 0.38044,-0.0345 0.80761,-0.0556 1.21875,-0.0625 z m 17.125,3.40625 c 0.96054,0 1.33826,0.59488 2.40625,3.71875 2.15358,6.29904 2.42393,9.3418 1.125,12.15625 -0.44173,0.95714 -1.36609,2.21435 -2.03125,2.8125 l -1.1875,1.125 0.3125,-1.125 c 0.80394,-2.76953 1.07649,-4.8347 1.09375,-8.1875 0.0162,-3.10161 -0.16452,-4.01827 -1.28125,-6.5625 -1.53713,-3.50209 -1.57182,-3.9375 -0.4375,-3.9375 z m -33.84375,3.03125 c 0.20779,0 0.0584,0.59539 -0.3125,1.3125 -0.49753,0.96225 -0.67743,2.91237 -0.75,7.40625 -0.054,3.34897 -0.23638,6.09243 -0.40625,6.09375 -0.61906,0.005 -2.13918,-6.88168 -1.59375,-7.21875 0.21805,-0.13474 0.30811,-0.39865 0.1875,-0.59375 -0.45372,-0.73389 2.11686,-7 2.875,-7 z" />
  </g>
</svg>
