<?xml version="1.0" encoding="UTF-8" standalone="no"?>
<!-- Created with Inkscape (http://www.inkscape.org/) -->

<svg
   xmlns:dc="http://purl.org/dc/elements/1.1/"
   xmlns:cc="http://creativecommons.org/ns#"
   xmlns:rdf="http://www.w3.org/1999/02/22-rdf-syntax-ns#"
   xmlns:svg="http://www.w3.org/2000/svg"
   xmlns="http://www.w3.org/2000/svg"
   xmlns:sodipodi="http://sodipodi.sourceforge.net/DTD/sodipodi-0.dtd"
   xmlns:inkscape="http://www.inkscape.org/namespaces/inkscape"
   width="800"
   height="700"
   id="svg2"
   version="1.1"
   inkscape:version="0.48.2 r9819"
   sodipodi:docname="m31.svg">
  <defs
     id="defs4" />
  <sodipodi:namedview
     id="base"
     pagecolor="#ffffff"
     bordercolor="#666666"
     borderopacity="1.0"
     inkscape:pageopacity="0.0"
     inkscape:pageshadow="2"
     inkscape:zoom="3.5355339"
     inkscape:cx="699.10218"
     inkscape:cy="101.32578"
     inkscape:document-units="px"
     inkscape:current-layer="layer1"
     showgrid="false"
     showguides="true"
     inkscape:guide-bbox="true"
     inkscape:window-width="1366"
     inkscape:window-height="746"
     inkscape:window-x="-8"
     inkscape:window-y="-8"
     inkscape:window-maximized="1"
     width="0px"
     height="0px"
     fit-margin-top="0"
     fit-margin-left="0"
     fit-margin-right="0"
     fit-margin-bottom="0">
    <sodipodi:guide
       orientation="1,0"
       position="400.22244,349.31075"
       id="guide3178" />
    <sodipodi:guide
       orientation="0,1"
       position="400.22244,349.31075"
       id="guide3180" />
  </sodipodi:namedview>
  <metadata
     id="metadata7">
    <rdf:RDF>
      <cc:Work
         rdf:about="">
        <dc:format>image/svg+xml</dc:format>
        <dc:type
           rdf:resource="http://purl.org/dc/dcmitype/StillImage" />
        <dc:title></dc:title>
      </cc:Work>
    </rdf:RDF>
  </metadata>
  <g
     inkscape:label="Layer 1"
     inkscape:groupmode="layer"
     id="layer1"
     transform="translate(0,-352.36218)">
    <path
       id="rect3392"
       transform="translate(0,352.36218)"
       style="fill:#ff0000"
       d="m 709.25,558.46875 c -1.64339,0.053 -3.36965,0.51675 -5.15625,1.34375 -1.54892,0.7169 -3.49243,1.81935 -4.34375,2.46875 -1.67674,1.2789 -3.625,4.04905 -3.625,5.15625 0,1.0105 4.14242,9.47065 4.96875,10.15625 0.38837,0.3223 0.6875,0.75385 0.6875,0.96875 0,0.433 2.08751,3.7585 2.90625,4.625 0.28625,0.303 1.0436,2.2464 1.6875,4.3125 1.09847,3.5245 1.17879,4.01765 0.84375,8.34375 -0.52986,6.8426 -0.47902,12.53775 0.1875,15.71875 0.5566,2.6568 3.31321,8.9275 5.125,11.625 0.44677,0.6652 1.26251,1.8626 1.78125,2.625 0.97267,1.4299 1.72456,3.2427 3.125,7.625 0.48372,1.5136 1.36136,3.0528 2.15625,3.8125 2.13644,2.0417 4.38403,1.53565 5.15625,-1.21875 0.17983,-0.6414 0.31657,-3.33675 0.3125,-5.96875 -0.01,-5.0132 -0.57637,-7.266 -3.09375,-12.625 -2.69574,-5.739 -3.43904,-11.23145 -2.03125,-15.15625 1.01014,-2.816 1.92469,-3.3662 3.3125,-2.0625 2.78298,2.6145 6.375,12.34675 6.375,17.28125 0,2.5306 3.15345,13.08345 4.53125,15.15625 1.10126,1.6568 1.80329,2.21185 4.0625,3.28125 2.24262,1.0619 3.12496,1.1031 4.84375,0.125 1.6211,-0.9227 1.63142,-1.3042 0.25,-6.375 -0.9531,-3.4985 -1.08257,-5.084 -1.21875,-12.6875 -0.11493,-6.4191 -0.35905,-9.23535 -0.875,-10.84375 -0.38376,-1.1963 -1.10671,-3.5751 -1.625,-5.25 -0.51831,-1.6747 -1.40286,-3.9233 -1.9375,-5 -2.19688,-4.4243 -2.46511,-9.4048 -0.75,-13.0625 1.74508,-3.7216 2.04737,-5.3501 2.0625,-10.875 0.0134,-4.9221 -0.10037,-5.5533 -1,-7 -0.89115,-1.4331 -2.74293,-2.7967 -7.21875,-5.25 -2.60826,-1.4296 -7.19237,-0.67965 -10.09375,1.65625 l -1.8125,1.4375 -1.6875,-1.34375 c -2.59991,-2.0934 -5.16728,-3.0887 -7.90625,-3 z m 3.625,2.40625 3.15625,2.375 3.15625,2.375 0,4.5625 c 0,3.5706 -0.17489,4.7115 -0.71875,5.3125 -0.98026,1.0833 -0.40428,1.71875 1.59375,1.71875 1.86542,0 2.03122,-0.2191 1.0625,-1.5 -0.4801,-0.6347 -0.625,-2.1569 -0.625,-6.125 0,-4.9278 0.0549,-5.34805 0.96875,-6.15625 3.04164,-2.6897 6.56073,-3.1624 9.375,-1.25 0.88029,0.5982 1.90788,1.09375 2.3125,1.09375 1.28781,0 3.37984,2.1609 3.875,4 0.56813,2.1097 -0.12041,9.9952 -1.0625,12.25 -0.33638,0.805 -0.71261,2.25735 -0.875,3.21875 -0.21599,1.2782 -0.61681,1.8904 -1.40625,2.25 -1.44474,0.6582 -2.35569,0.50835 -5.6875,-0.71875 -1.38005,-0.5082 -2.60011,-0.5999 -5,-0.375 -2.36704,0.2219 -3.94849,0.14045 -6.125,-0.40625 -2.47886,-0.6227 -3.31742,-0.65435 -5.53125,-0.21875 -1.43897,0.2836 -2.98945,0.392 -3.4375,0.25 -0.74917,-0.2378 -4.1406,-4.69805 -5.71875,-7.53125 -0.36599,-0.657 -1.03691,-1.743 -1.5,-2.4375 -0.92331,-1.3847 -2.80844,-5.8387 -2.8125,-6.625 -0.004,-0.6347 3.06538,-3.65625 3.71875,-3.65625 0.27268,0 1.25682,-0.51715 2.1875,-1.15625 1.49352,-1.0256 2.14236,-1.1571 5.40625,-1.1875 l 3.6875,-0.0312 0,-0.0312 z m -1.46875,23.96875 c 0.40951,-0.011 0.89251,0 1.40625,0 4.31242,0.024 12.96465,0.85815 15.0625,1.46875 0.83584,0.2434 2.31066,0.46875 3.28125,0.46875 2.27032,0 2.8125,0.56335 2.8125,3.03125 0,2.9145 0.97801,6.0357 4,12.625 1.36927,2.9856 2.45752,9.03545 2.21875,12.46875 -0.22441,3.2275 0.89213,14.28525 1.53125,15.09375 0.21767,0.2753 0.557,1.2276 0.71875,2.125 0.26447,1.4679 0.14055,1.69345 -0.875,2.15625 -1.47679,0.6728 -3.82802,-0.1471 -5.40625,-1.875 -1.95527,-2.1408 -4.56867,-11.31825 -5.0625,-17.78125 -0.34764,-4.549 -2.3192,-10.7629 -4.34375,-13.5625 -1.46942,-2.0321 -4.67931,-5.15625 -5.28125,-5.15625 -0.6275,0 -3.23931,4.2753 -3.625,5.9375 -0.9048,3.8996 -0.3395,9.01505 1.53125,13.84375 0.64889,1.6749 1.57671,4.22065 2.0625,5.65625 0.48583,1.4356 1.17014,3.2461 1.5,4 0.76958,1.7585 0.78874,9.09675 0.0312,10.59375 -0.82032,1.6215 -1.88848,1.6071 -2.90625,-0.0625 -0.4841,-0.7938 -0.875,-1.8121 -0.875,-2.25 -0.005,-1.7945 -3.05353,-8.604 -5.875,-13.125 -0.74658,-1.1964 -1.95187,-3.47595 -2.65625,-5.03125 l -1.25,-2.8125 -0.0625,-12.15625 c -0.0295,-8.3074 -0.17889,-12.60445 -0.53125,-13.46875 -0.6639,-1.6285 -0.27273,-2.1099 2.59375,-2.1875 z" />
  </g>
</svg>
