<?xml version="1.0" encoding="UTF-8" standalone="no"?>
<!-- Created with Inkscape (http://www.inkscape.org/) -->

<svg
   xmlns:dc="http://purl.org/dc/elements/1.1/"
   xmlns:cc="http://creativecommons.org/ns#"
   xmlns:rdf="http://www.w3.org/1999/02/22-rdf-syntax-ns#"
   xmlns:svg="http://www.w3.org/2000/svg"
   xmlns="http://www.w3.org/2000/svg"
   xmlns:sodipodi="http://sodipodi.sourceforge.net/DTD/sodipodi-0.dtd"
   xmlns:inkscape="http://www.inkscape.org/namespaces/inkscape"
   width="900"
   height="800"
   id="svg2"
   version="1.1"
   inkscape:version="0.48.2 r9819"
   sodipodi:docname="m31.svg">
  <defs
     id="defs4" />
  <sodipodi:namedview
     id="base"
     pagecolor="#ffffff"
     bordercolor="#666666"
     borderopacity="1.0"
     inkscape:pageopacity="0.0"
     inkscape:pageshadow="2"
     inkscape:zoom="4"
     inkscape:cx="792.71621"
     inkscape:cy="118.47848"
     inkscape:document-units="px"
     inkscape:current-layer="layer1"
     showgrid="false"
     showguides="true"
     inkscape:guide-bbox="true"
     inkscape:window-width="1366"
     inkscape:window-height="746"
     inkscape:window-x="-8"
     inkscape:window-y="-8"
     inkscape:window-maximized="1"
     width="0px"
     height="0px"
     fit-margin-top="0"
     fit-margin-left="0"
     fit-margin-right="0"
     fit-margin-bottom="0">
    <sodipodi:guide
       orientation="1,0"
       position="450,784"
       id="guide3178" />
    <sodipodi:guide
       orientation="0,1"
       position="-61,400"
       id="guide3180" />
  </sodipodi:namedview>
  <metadata
     id="metadata7">
    <rdf:RDF>
      <cc:Work
         rdf:about="">
        <dc:format>image/svg+xml</dc:format>
        <dc:type
           rdf:resource="http://purl.org/dc/dcmitype/StillImage" />
        <dc:title></dc:title>
      </cc:Work>
    </rdf:RDF>
  </metadata>
  <g
     inkscape:label="Layer 1"
     inkscape:groupmode="layer"
     id="layer1"
     transform="translate(0,-252.36218)">
    <path
       id="rect3291"
       transform="translate(0,252.36218)"
       style="fill:#ff0000"
       d="m 800.6875,631.375 c -1.85778,0.0601 -3.79284,0.56516 -5.8125,1.5 -1.75099,0.81046 -3.97512,2.07845 -4.9375,2.8125 -1.89548,1.44581 -4.09375,4.56082 -4.09375,5.8125 0,1.14233 4.69086,10.69368 5.625,11.46875 0.43903,0.36438 0.78125,0.88203 0.78125,1.125 0,0.48948 2.38696,4.23921 3.3125,5.21875 0.32359,0.34244 1.14712,2.53937 1.875,4.875 1.24177,3.98424 1.31623,4.54704 0.9375,9.4375 -0.59898,7.73526 -0.5347,14.18518 0.21875,17.78125 0.62923,3.0033 3.76437,10.07564 5.8125,13.125 0.50506,0.75198 1.44484,2.0757 2.03125,2.9375 1.09955,1.61642 1.91688,3.70235 3.5,8.65625 0.54683,1.71106 1.53891,3.45379 2.4375,4.3125 2.41514,2.30807 4.93954,1.70756 5.8125,-1.40625 0.20329,-0.72498 0.3796,-3.77472 0.375,-6.75 -0.0103,-5.66725 -0.65422,-8.1918 -3.5,-14.25 -3.04742,-6.48768 -3.87269,-12.71953 -2.28125,-17.15625 1.14192,-3.18342 2.14989,-3.8176 3.71875,-2.34375 3.14602,2.95552 7.21875,13.98427 7.21875,19.5625 0,2.86072 3.59871,14.78177 5.15625,17.125 1.24492,1.87293 1.97733,2.50979 4.53125,3.71875 2.53518,1.20042 3.55698,1.23067 5.5,0.125 1.83256,-1.04308 1.84289,-1.48647 0.28125,-7.21875 -1.07744,-3.95492 -1.22105,-5.71705 -1.375,-14.3125 -0.12993,-7.25643 -0.38548,-10.46301 -0.96875,-12.28125 -0.43382,-1.35231 -1.25785,-4.01288 -1.84375,-5.90625 -0.58593,-1.89326 -1.5831,-4.43905 -2.1875,-5.65625 -2.48347,-5.00146 -2.81384,-10.64642 -0.875,-14.78125 1.97273,-4.20719 2.32664,-6.03559 2.34375,-12.28125 0.0152,-5.56423 -0.10805,-6.30203 -1.125,-7.9375 -1.00741,-1.61997 -3.09655,-3.13292 -8.15625,-5.90625 -2.94851,-1.61618 -8.15763,-0.79678 -11.4375,1.84375 l -2.03125,1.65625 L 809.625,634.75 c -2.93907,-2.36653 -5.84122,-3.47522 -8.9375,-3.375 z m 4.09375,2.71875 3.59375,2.65625 3.53125,2.6875 0,5.1875 c 0,4.03636 -0.16643,5.32061 -0.78125,6 -1.10812,1.22457 -0.44619,1.9375 1.8125,1.9375 2.10876,0 2.25133,-0.23948 1.15625,-1.6875 -0.54273,-0.71751 -0.71875,-2.45174 -0.71875,-6.9375 0,-5.57066 0.092,-6.05515 1.125,-6.96875 3.43844,-3.04052 7.41235,-3.56809 10.59375,-1.40625 0.99512,0.67627 2.1676,1.21875 2.625,1.21875 1.45583,0 3.81523,2.45224 4.375,4.53125 0.64224,2.38493 -0.12252,11.32603 -1.1875,13.875 -0.38026,0.90993 -0.81643,2.53816 -1,3.625 -0.24417,1.44501 -0.70132,2.12471 -1.59375,2.53125 -1.63322,0.74406 -2.63977,0.60598 -6.40625,-0.78125 -1.56006,-0.57448 -2.97453,-0.69182 -5.6875,-0.4375 -2.67584,0.25077 -4.4458,0.14929 -6.90625,-0.46875 -2.80223,-0.70394 -3.74736,-0.74246 -6.25,-0.25 -1.6267,0.32062 -3.36852,0.44185 -3.875,0.28125 -0.84691,-0.2688 -4.68471,-5.29728 -6.46875,-8.5 -0.41374,-0.74268 -1.164,-1.96494 -1.6875,-2.75 -1.04375,-1.5654 -3.1829,-6.64247 -3.1875,-7.53125 -0.004,-0.71752 3.4489,-4.125 4.1875,-4.125 0.30825,0 1.41667,-0.55879 2.46875,-1.28125 1.68837,-1.15943 2.43532,-1.34055 6.125,-1.375 l 4.15625,-0.0312 z m -1.65625,27.0625 c 0.46293,-0.0125 0.98174,-0.004 1.5625,0 4.87498,0.0273 14.69098,0.99722 17.0625,1.6875 0.94489,0.27514 2.59029,0.5 3.6875,0.5 2.56647,0 3.21875,0.67888 3.21875,3.46875 0,3.29463 1.08378,6.80102 4.5,14.25 1.54789,3.37503 2.76992,10.21256 2.5,14.09375 -0.25369,3.64855 1.02751,16.14854 1.75,17.0625 0.24608,0.3113 0.5984,1.39179 0.78125,2.40625 0.29896,1.65936 0.17927,1.91438 -0.96875,2.4375 -1.66944,0.7606 -4.30962,-0.17164 -6.09375,-2.125 -2.21033,-2.42007 -5.19174,-12.78766 -5.75,-20.09375 -0.39298,-5.14239 -2.61759,-12.17892 -4.90625,-15.34375 -1.66112,-2.29716 -5.28828,-5.8125 -5.96875,-5.8125 -0.70935,0.002 -3.65772,4.83973 -4.09375,6.71875 -1.02281,4.40834 -0.39605,10.19762 1.71875,15.65625 0.73353,1.89338 1.79458,4.75215 2.34375,6.375 0.54922,1.62296 1.31463,3.67898 1.6875,4.53125 0.87,1.98793 0.88761,10.2764 0.0312,11.96875 -0.92732,1.83306 -2.09946,1.79319 -3.25,-0.0937 -0.54725,-0.89741 -1.03125,-2.03626 -1.03125,-2.53125 -0.005,-2.02859 -3.43545,-9.73294 -6.625,-14.84375 -0.84397,-1.35242 -2.17249,-3.89807 -2.96875,-5.65625 l -1.4375,-3.1875 -0.0937,-13.75 c -0.0334,-9.39117 -0.19544,-14.24173 -0.59375,-15.21875 -0.75052,-1.84101 -0.30293,-2.41223 2.9375,-2.5 z" />
  </g>
</svg>
