<?xml version="1.0" encoding="UTF-8" standalone="no"?>
<!-- Created with Inkscape (http://www.inkscape.org/) -->

<svg
   xmlns:dc="http://purl.org/dc/elements/1.1/"
   xmlns:cc="http://creativecommons.org/ns#"
   xmlns:rdf="http://www.w3.org/1999/02/22-rdf-syntax-ns#"
   xmlns:svg="http://www.w3.org/2000/svg"
   xmlns="http://www.w3.org/2000/svg"
   xmlns:sodipodi="http://sodipodi.sourceforge.net/DTD/sodipodi-0.dtd"
   xmlns:inkscape="http://www.inkscape.org/namespaces/inkscape"
   width="800"
   height="400"
   id="svg2"
   version="1.1"
   inkscape:version="0.48.2 r9819"
   sodipodi:docname="m31.svg">
  <defs
     id="defs4" />
  <sodipodi:namedview
     id="base"
     pagecolor="#ffffff"
     bordercolor="#666666"
     borderopacity="1.0"
     inkscape:pageopacity="0.0"
     inkscape:pageshadow="2"
     inkscape:zoom="5.6568542"
     inkscape:cx="76.870299"
     inkscape:cy="143.18532"
     inkscape:document-units="px"
     inkscape:current-layer="layer1"
     showgrid="false"
     showguides="true"
     inkscape:guide-bbox="true"
     inkscape:window-width="1366"
     inkscape:window-height="746"
     inkscape:window-x="-8"
     inkscape:window-y="-8"
     inkscape:window-maximized="1"
     width="0px"
     height="0px"
     fit-margin-top="0"
     fit-margin-left="0"
     fit-margin-right="0"
     fit-margin-bottom="0">
    <sodipodi:guide
       orientation="1,0"
       position="400.22244,349.31075"
       id="guide3178" />
    <sodipodi:guide
       orientation="0,1"
       position="-117.37973,199.40411"
       id="guide3180" />
  </sodipodi:namedview>
  <metadata
     id="metadata7">
    <rdf:RDF>
      <cc:Work
         rdf:about="">
        <dc:format>image/svg+xml</dc:format>
        <dc:type
           rdf:resource="http://purl.org/dc/dcmitype/StillImage" />
        <dc:title></dc:title>
      </cc:Work>
    </rdf:RDF>
  </metadata>
  <g
     inkscape:label="Layer 1"
     inkscape:groupmode="layer"
     id="layer1"
     transform="translate(0,-652.36218)">
    <path
       id="rect3385"
       transform="translate(0,652.36218)"
       style="fill:#ff0000"
       d="m 86.1875,216.84375 c -0.90241,0.0879 -1.76412,0.44302 -3.375,1.21875 -1.61094,0.77566 -3.50095,1.85206 -4.21875,2.375 -1.50074,1.09394 -4.09535,1.88982 -7.75,2.40625 -1.40421,0.19867 -3.85031,0.9906 -5.46875,1.75 -2.46002,1.15417 -3.22954,1.77341 -4.53125,3.75 -2.18275,3.31451 -2.6721,5.97922 -1.84375,10.28125 0.36114,1.87516 0.68837,4.05585 0.6875,4.8125 -7.5e-4,0.75656 0.4127,2.82334 0.9375,4.59375 0.79338,2.67665 1.34862,3.58439 3.21875,5.5 1.26202,1.29259 2.79474,2.44135 3.5,2.59375 0.69133,0.1496 1.94384,0.63775 2.78125,1.09375 1.70982,0.9311 5.85231,1.095 9.15625,0.375 1.0767,-0.2346 5.04674,-0.58615 8.875,-0.78125 9.98311,-0.5088 11.89456,-1.44656 14.65625,-7.4375 0.7849,-1.70292 0.84443,-2.5874 0.6875,-6.75 -0.1578,-4.18579 -0.31594,-5.03698 -1.3125,-6.75 -0.79207,-1.36136 -1.21117,-2.88349 -1.40625,-5 -0.15437,-1.67458 -0.55501,-3.62539 -0.875,-4.34375 -0.31999,-0.71824 -0.97359,-2.205 -1.4375,-3.28125 -0.46391,-1.07627 -1.36475,-2.46302 -2,-3.09375 -1.36271,-1.35348 -5.18789,-2.82142 -8.40625,-3.21875 -0.75613,-0.0932 -1.3336,-0.14655 -1.875,-0.0937 z m 0.25,2.375 c 0.41642,-0.0166 0.84822,-0.006 1.3125,0 5.20019,0.0707 7.46452,1.28623 10.15625,5.53125 1.16204,1.83251 1.375,2.5709 1.375,4.9375 0,2.15706 0.263691,3.48553 1.3125,5.875 1.28757,2.93373 1.35542,3.24943 1.0625,6.8125 -0.39031,4.74705 -2.07089,9.86923 -3.625,11.09375 -1.99504,1.57163 -4.98438,2.08357 -10.5,1.78125 -4.57317,-0.25089 -5.33667,-0.20547 -8.6875,0.8125 -2.0161,0.6126 -4.06633,1.1371 -4.5625,1.125 -1.61637,-0.039 -8.28083,-3.09656 -9.6875,-4.4375 -0.75448,-0.71928 -1.65917,-2.10125 -2.03125,-3.09375 -1.4582,-3.88876 -2.94469,-16.10668 -2.28125,-18.75 0.2278,-0.90763 2.08382,-3.06356 3.8125,-4.40625 1.03615,-0.8046 4.41468,-1.77835 8.8125,-2.59375 2.85912,-0.53004 4.83855,-1.16742 5.875,-1.875 2.86046,-1.95275 4.74135,-2.69665 7.65625,-2.8125 z m -8.28125,6.4375 -0.125,1.6875 c -0.0762,0.92879 0.05696,1.86933 0.3125,2.125 0.72094,0.7209 0.58012,2.9375 -0.1875,2.9375 -0.83781,0 -0.8196,0.12084 0.21875,2.15625 0.4763,0.9337 0.73095,1.98625 0.59375,2.34375 -0.29087,0.75797 -4.95952,2.46875 -6.78125,2.46875 -1.37833,0 -2.81189,-0.65482 -3.8125,-1.71875 -0.35892,-0.38169 -1.04093,-0.98526 -1.5,-1.34375 -0.79078,-0.61744 -0.81305,-0.57828 -0.5625,0.6875 0.24127,1.21891 0.11512,1.38142 -1.25,1.875 -1.84591,0.6675 -1.91054,1.34375 -0.15625,1.34375 1.28495,0 1.30416,0.0433 1.03125,1.75 -0.35795,2.23857 0.57187,2.35854 2.15625,0.28125 1.01889,-1.3358 1.33504,-1.49363 4.09375,-1.75 1.65553,-0.15385 3.87189,-0.54124 4.90625,-0.90625 2.24222,-0.791 2.5836,-0.51418 2.59375,2.28125 0.004,1.02462 0.27831,2.54518 0.625,3.375 0.34667,0.8297 0.76443,1.5 0.90625,1.5 0.14191,0 0.1318,-1.45136 -0.03125,-3.25 -0.39359,-4.3436 -0.02865,-4.81155 4.5,-5.21875 1.84159,-0.16542 4.19681,-0.50002 5.21875,-0.75 2.05593,-0.50282 5.34835,0.13267 6.25,1.21875 0.73764,0.88908 1.18063,0.73671 0.90625,-0.3125 -0.13274,-0.50759 -0.88557,-1.30821 -1.6875,-1.78125 -1.56776,-0.92503 -1.72216,-1.2152 -1,-1.9375 0.25564,-0.25536 0.41986,-1.22745 0.34375,-2.15625 l -0.15625,-1.6875 -1,1.84375 c -1.13854,2.13055 -2.09761,2.75609 -5.09375,3.28125 -4.9193,0.86256 -6.28125,0.17766 -6.28125,-3.03125 0,-1.99742 -0.40946,-2.27788 -1.5,-1.1875 -0.59698,0.59701 -0.74122,0.51478 -1.3125,-0.375 -0.35016,-0.5453 -0.99992,-2.02769 -1.4375,-3.34375 l -0.78125,-2.40625 z" />
  </g>
</svg>
