<?xml version="1.0" encoding="UTF-8" standalone="no"?>
<!-- Created with Inkscape (http://www.inkscape.org/) -->

<svg
   xmlns:dc="http://purl.org/dc/elements/1.1/"
   xmlns:cc="http://creativecommons.org/ns#"
   xmlns:rdf="http://www.w3.org/1999/02/22-rdf-syntax-ns#"
   xmlns:svg="http://www.w3.org/2000/svg"
   xmlns="http://www.w3.org/2000/svg"
   xmlns:sodipodi="http://sodipodi.sourceforge.net/DTD/sodipodi-0.dtd"
   xmlns:inkscape="http://www.inkscape.org/namespaces/inkscape"
   width="800"
   height="700"
   id="svg2"
   version="1.1"
   inkscape:version="0.48.2 r9819"
   sodipodi:docname="f31.svg">
  <defs
     id="defs4" />
  <sodipodi:namedview
     id="base"
     pagecolor="#ffffff"
     bordercolor="#666666"
     borderopacity="1.0"
     inkscape:pageopacity="0.0"
     inkscape:pageshadow="2"
     inkscape:zoom="3.5355339"
     inkscape:cx="699.10218"
     inkscape:cy="146.58061"
     inkscape:document-units="px"
     inkscape:current-layer="layer1"
     showgrid="false"
     showguides="true"
     inkscape:guide-bbox="true"
     inkscape:window-width="1366"
     inkscape:window-height="746"
     inkscape:window-x="-8"
     inkscape:window-y="-8"
     inkscape:window-maximized="1"
     width="0px"
     height="0px"
     fit-margin-top="0"
     fit-margin-left="0"
     fit-margin-right="0"
     fit-margin-bottom="0">
    <sodipodi:guide
       orientation="1,0"
       position="400.22244,349.31075"
       id="guide3178" />
    <sodipodi:guide
       orientation="0,1"
       position="400.22244,349.31075"
       id="guide3180" />
  </sodipodi:namedview>
  <metadata
     id="metadata7">
    <rdf:RDF>
      <cc:Work
         rdf:about="">
        <dc:format>image/svg+xml</dc:format>
        <dc:type
           rdf:resource="http://purl.org/dc/dcmitype/StillImage" />
        <dc:title></dc:title>
      </cc:Work>
    </rdf:RDF>
  </metadata>
  <g
     inkscape:label="Layer 1"
     inkscape:groupmode="layer"
     id="layer1"
     transform="translate(0,-352.36218)">
    <path
       id="rect3388"
       transform="translate(0,352.36218)"
       style="fill:#ff0000"
       d="m 725.09375,512.09375 c -0.68218,0.0181 -1.42446,0.0382 -2.21875,0.0937 -4.70251,0.32974 -5.61213,0.32771 -13.46875,0.125 -4.96903,-0.12835 -6.4842,0.55218 -8.15625,3.53125 -0.94078,1.6763 -1.29269,3.0794 -1.65625,6.625 -0.48146,4.69519 -1.11991,8.38201 -1.78125,10.53125 -0.53061,1.72447 -0.48658,3.469 0.15625,6.3125 0.47876,2.11782 0.95752,2.88586 4.09375,6.15625 2.16898,2.26154 4.48068,4.15644 5.875,4.875 2.83509,1.46077 5.4996,1.54783 9.71875,0.28125 1.95914,-0.58785 5.0082,-1.01734 8.625,-1.21875 l 5.625,-0.34375 1.46875,-1.53125 c 0.79815,-0.871 1.56141,-2.17409 1.71875,-2.84375 0.15741,-0.66965 1.00099,-2.07951 1.875,-3.15625 3.4464,-4.24556 3.9481,-6.30933 3.09375,-12.28125 -1.26993,-8.87633 -1.85391,-10.48723 -5.25,-13.8125 -2.69813,-2.64178 -4.94351,-3.47065 -9.71875,-3.34375 z m -7.15625,1.84375 c 4.98516,-0.007 9.85242,0.13212 11.03125,0.40625 5.20009,1.20866 8.78902,6.22331 9.375,13.15625 0.17679,2.09163 0.4634,4.50162 0.625,5.34375 0.23586,1.22897 -0.004,2.03621 -1.09375,4.125 -0.74563,1.43108 -1.58751,2.82055 -1.875,3.0625 -1.13412,0.95451 -2.40281,3.2015 -2.6875,4.71875 -0.47139,2.51285 -1.9595,3.05251 -7.40625,2.6875 -3.9586,-0.26502 -4.83237,-0.18346 -8.375,0.8125 -2.17594,0.61175 -4.61588,1.11084 -5.40625,1.09375 -1.96378,-0.0419 -4.49508,-1.04306 -5.90625,-2.3125 -0.64499,-0.58012 -1.99708,-1.77776 -3,-2.65625 -2.53895,-2.22454 -3.59375,-4.63158 -3.59375,-8.09375 7.5e-4,-3.144 0.94574,-5.57416 2.40625,-6.09375 1.57107,-0.5586 2.1023,0.14368 1.5,1.96875 -0.44256,1.34087 -0.40406,1.75335 0.1875,2.65625 0.9564,1.45966 1.32395,1.34825 1.90625,-0.5625 0.2734,-0.89739 0.95185,-2.1962 1.5,-2.875 1.48078,-1.83382 5.21343,-2.37197 9.09375,-1.3125 1.33044,0.36319 1.35648,1.84452 0.0937,3.5 -0.86339,1.13202 -1.01324,1.67425 -0.65625,2.03125 0.35694,0.35728 0.64721,0.32189 1.03125,-0.0625 0.82238,-0.82221 1.03131,-0.63989 1.8125,1.3125 0.84598,2.11429 0.56371,6.4868 -0.46875,7.34375 -0.996,0.82656 -0.68949,1.28125 0.84375,1.28125 l 1.4375,0 -0.125,-4.625 c -0.0716,-2.52442 -0.32138,-4.92441 -0.5625,-5.375 -0.52265,-0.97635 -0.59904,-4.8125 -0.0937,-4.8125 0.61366,0 2.11826,2.35914 2.4375,3.8125 0.46765,2.12912 1.20578,1.70666 1.0625,-0.625 l -0.125,-2.0625 1.6875,-0.375 c 0.91425,-0.19004 2.18199,-0.64043 2.84375,-1.03125 2.02171,-1.19423 3.18765,-0.5634 4.5625,2.5 1.01578,2.26357 1.1504,2.92214 0.78125,4.125 -0.36405,1.18132 -0.34102,1.39044 0.1875,1.1875 0.78514,-0.30118 1.4375,-1.95224 1.4375,-3.625 0,-1.10187 0.19697,-1.34029 1.71875,-1.75 2.16545,-0.5832 2.3969,-1.4995 0.28125,-1.15625 -2.08002,0.3376 -2.6443,-0.43288 -1.96875,-2.6875 0.56341,-1.88065 0.27739,-3.76207 -0.59375,-4.09375 -0.38711,-0.14756 -0.52411,0.35121 -0.53125,1.6875 -0.0149,2.53612 -0.54242,2.99232 -2.40625,2.0625 -1.71392,-0.85534 -3.89277,-0.8181 -5.65625,0.0937 -1.55064,0.80311 -3.19165,0.81704 -3.84375,0.0312 -0.3884,-0.46805 -0.3075,-1.14158 0.375,-2.9375 1.10181,-2.89889 1.0977,-3.34018 0.0312,-2.375 -1.41499,1.2805 -1.83558,0.47025 -1.75,-3.375 0.10058,-4.52172 0.085,-4.76056 -0.4375,-4.4375 -0.23927,0.14784 -0.4375,1.85012 -0.4375,3.75 0,2.7806 -0.16226,3.4375 -0.6875,3.4375 -0.3589,0 -0.625,-0.16362 -0.625,-0.375 0,-0.21145 -0.47159,-0.44942 -1.0625,-0.5625 -0.70955,-0.13557 -1.0029,-0.0677 -0.8125,0.25 0.15862,0.26451 0.9588,1.50556 1.75,2.75 0.79123,1.24463 1.4375,2.44128 1.4375,2.6875 0,0.78369 -2.08539,1.04174 -4.34375,0.5 -1.66478,-0.40005 -2.8772,-0.40637 -5.03125,-0.0312 -4.13361,0.71987 -5.00957,-0.061 -5.65625,-4.90625 -0.44413,-3.32772 -1.17518,-1.98722 -1,1.8125 0.1484,3.2197 0.10398,3.32525 -0.90625,3.46875 l -1.03125,0.15625 0.21875,-4.96875 c 0.12273,-2.78039 0.46567,-5.43374 0.78125,-6.03125 0.88748,-1.67987 2.46518,-2.9238 4,-3.1875 1.61655,-0.27766 6.7336,-0.43085 11.71875,-0.4375 z" />
  </g>
</svg>
