<?xml version="1.0" encoding="UTF-8" standalone="no"?>
<!-- Created with Inkscape (http://www.inkscape.org/) -->

<svg
   xmlns:dc="http://purl.org/dc/elements/1.1/"
   xmlns:cc="http://creativecommons.org/ns#"
   xmlns:rdf="http://www.w3.org/1999/02/22-rdf-syntax-ns#"
   xmlns:svg="http://www.w3.org/2000/svg"
   xmlns="http://www.w3.org/2000/svg"
   xmlns:sodipodi="http://sodipodi.sourceforge.net/DTD/sodipodi-0.dtd"
   xmlns:inkscape="http://www.inkscape.org/namespaces/inkscape"
   width="900"
   height="800"
   id="svg2"
   version="1.1"
   inkscape:version="0.48.2 r9819"
   sodipodi:docname="f31.svg">
  <defs
     id="defs4" />
  <sodipodi:namedview
     id="base"
     pagecolor="#ffffff"
     bordercolor="#666666"
     borderopacity="1.0"
     inkscape:pageopacity="0.0"
     inkscape:pageshadow="2"
     inkscape:zoom="4"
     inkscape:cx="792.71621"
     inkscape:cy="208.47848"
     inkscape:document-units="px"
     inkscape:current-layer="layer1"
     showgrid="false"
     showguides="true"
     inkscape:guide-bbox="true"
     inkscape:window-width="1366"
     inkscape:window-height="746"
     inkscape:window-x="-8"
     inkscape:window-y="-8"
     inkscape:window-maximized="1"
     width="0px"
     height="0px"
     fit-margin-top="0"
     fit-margin-left="0"
     fit-margin-right="0"
     fit-margin-bottom="0">
    <sodipodi:guide
       orientation="1,0"
       position="450,784"
       id="guide3178" />
    <sodipodi:guide
       orientation="0,1"
       position="-61,400"
       id="guide3180" />
  </sodipodi:namedview>
  <metadata
     id="metadata7">
    <rdf:RDF>
      <cc:Work
         rdf:about="">
        <dc:format>image/svg+xml</dc:format>
        <dc:type
           rdf:resource="http://purl.org/dc/dcmitype/StillImage" />
        <dc:title></dc:title>
      </cc:Work>
    </rdf:RDF>
  </metadata>
  <g
     inkscape:label="Layer 1"
     inkscape:groupmode="layer"
     id="layer1"
     transform="translate(0,-252.36218)">
    <path
       id="rect3287"
       transform="translate(0,252.36218)"
       style="fill:#ff0000"
       d="m 818.59375,578.9375 c -0.77117,0.0205 -1.60208,0.0309 -2.5,0.0937 -5.31594,0.37277 -6.3372,0.38541 -15.21875,0.15625 -5.61725,-0.1451 -7.35983,0.60106 -9.25,3.96875 -1.06351,1.89498 -1.43279,3.49187 -1.84375,7.5 -0.54428,5.30769 -1.28363,9.50788 -2.03125,11.9375 -0.59981,1.94944 -0.53917,3.91056 0.1875,7.125 0.54123,2.39411 1.07963,3.24047 4.625,6.9375 2.45193,2.55655 5.08003,4.71897 6.65625,5.53125 3.20492,1.65134 6.19922,1.7443 10.96875,0.3125 2.21473,-0.66455 5.69263,-1.17856 9.78125,-1.40625 L 826.3125,620.75 827.96875,619 c 0.90227,-0.98462 1.75963,-2.46172 1.9375,-3.21875 0.17794,-0.75701 1.13698,-2.37653 2.125,-3.59375 3.89601,-4.79939 4.46581,-7.09276 3.5,-13.84375 -1.43558,-10.03426 -2.09839,-11.86595 -5.9375,-15.625 -3.05011,-2.98642 -5.60181,-3.9247 -11,-3.78125 z M 810.53125,581 c 5.63549,-0.007 11.10489,0.15887 12.4375,0.46875 5.87845,1.36633 9.93134,7.06887 10.59375,14.90625 0.19986,2.36448 0.53606,5.07927 0.71875,6.03125 0.26664,1.3893 0.0121,2.29499 -1.21875,4.65625 -0.8429,1.61778 -1.80001,3.16401 -2.125,3.4375 -1.28206,1.07904 -2.70944,3.65981 -3.03125,5.375 -0.5329,2.84064 -2.21769,3.41263 -8.375,3 -4.47501,-0.29959 -5.46397,-0.18839 -9.46875,0.9375 -2.4598,0.69155 -5.23153,1.23807 -6.125,1.21875 -2.21997,-0.0474 -5.061,-1.15871 -6.65625,-2.59375 -0.72913,-0.6558 -2.2725,-2.0069 -3.40625,-3 -2.87016,-2.51474 -4.0625,-5.24243 -4.0625,-9.15625 8.4e-4,-3.55413 1.06769,-6.31889 2.71875,-6.90625 1.77601,-0.63147 2.36837,0.18685 1.6875,2.25 -0.50029,1.51579 -0.44996,1.97933 0.21875,3 1.08119,1.65007 1.498,1.50376 2.15625,-0.65625 0.30907,-1.01446 1.06785,-2.4514 1.6875,-3.21875 1.67396,-2.07305 5.92598,-2.6977 10.3125,-1.5 1.50402,0.41056 1.52121,2.06606 0.0937,3.9375 -0.97602,1.27971 -1.15356,1.90894 -0.75,2.3125 0.4035,0.40391 0.7221,0.34069 1.15625,-0.0937 0.92967,-0.92947 1.17941,-0.67585 2.0625,1.53125 0.95636,2.3901 0.63589,7.3125 -0.53125,8.28125 -1.12595,0.93437 -0.79576,1.4375 0.9375,1.4375 l 1.65625,0 -0.15625,-5.21875 c -0.0809,-2.85373 -0.38368,-5.58439 -0.65625,-6.09375 -0.59084,-1.10372 -0.66494,-5.40625 -0.0937,-5.40625 0.69373,0 2.38911,2.63831 2.75,4.28125 0.52866,2.40687 1.34944,1.91707 1.1875,-0.71875 l -0.125,-2.3125 1.90625,-0.40625 c 1.03352,-0.21482 2.47065,-0.74569 3.21875,-1.1875 2.28544,-1.35002 3.60205,-0.61928 5.15625,2.84375 1.14828,2.55886 1.2923,3.29649 0.875,4.65625 -0.41156,1.33543 -0.37871,1.57317 0.21875,1.34375 0.88757,-0.34047 1.625,-2.20279 1.625,-4.09375 0,-1.24561 0.24846,-1.50558 1.96875,-1.96875 2.44795,-0.65927 2.67289,-1.73179 0.28125,-1.34375 -2.35137,0.38163 -2.98242,-0.45126 -2.21875,-3 0.63691,-2.126 0.32854,-4.25005 -0.65625,-4.625 -0.4376,-0.1668 -0.5857,0.36438 -0.59375,1.875 -0.017,2.86695 -0.64302,3.39487 -2.75,2.34375 -1.93751,-0.96691 -4.38147,-0.90581 -6.375,0.125 -1.75294,0.90788 -3.60657,0.91957 -4.34375,0.0312 -0.43905,-0.52911 -0.33405,-1.31355 0.4375,-3.34375 1.24554,-3.27705 1.23686,-3.74733 0.0312,-2.65625 -1.59958,1.44755 -2.06549,0.50313 -1.96875,-3.84375 0.11371,-5.1116 0.0594,-5.3652 -0.53125,-5 -0.27047,0.16713 -0.5,2.10227 -0.5,4.25 0,3.14333 -0.15623,3.875 -0.75,3.875 -0.40571,0 -0.71875,-0.19855 -0.71875,-0.4375 0,-0.23905 -0.55077,-0.52842 -1.21875,-0.65625 -0.80212,-0.15325 -1.12149,-0.0466 -0.90625,0.3125 0.17931,0.29901 1.1056,1.71823 2,3.125 0.89445,1.40699 1.59375,2.75291 1.59375,3.03125 0,0.88592 -2.35329,1.14365 -4.90625,0.53125 -1.88196,-0.45225 -3.25243,-0.45535 -5.6875,-0.0312 -4.67284,0.81377 -5.64396,-0.054 -6.375,-5.53125 -0.50207,-3.76183 -1.35428,-2.23291 -1.15625,2.0625 0.16778,3.63971 0.14202,3.74404 -1,3.90625 l -1.1875,0.1875 0.25,-5.59375 c 0.13874,-3.14311 0.54951,-6.16829 0.90625,-6.84375 1.00327,-1.89901 2.79621,-3.3269 4.53125,-3.625 1.82744,-0.31388 7.61452,-0.49248 13.25,-0.5 z" />
  </g>
</svg>
