<?xml version="1.0" encoding="UTF-8" standalone="no"?>
<!-- Created with Inkscape (http://www.inkscape.org/) -->

<svg
   xmlns:dc="http://purl.org/dc/elements/1.1/"
   xmlns:cc="http://creativecommons.org/ns#"
   xmlns:rdf="http://www.w3.org/1999/02/22-rdf-syntax-ns#"
   xmlns:svg="http://www.w3.org/2000/svg"
   xmlns="http://www.w3.org/2000/svg"
   xmlns:sodipodi="http://sodipodi.sourceforge.net/DTD/sodipodi-0.dtd"
   xmlns:inkscape="http://www.inkscape.org/namespaces/inkscape"
   width="800"
   height="700"
   id="svg2"
   version="1.1"
   inkscape:version="0.48.2 r9819"
   sodipodi:docname="m20-fill.svg">
  <defs
     id="defs4" />
  <sodipodi:namedview
     id="base"
     pagecolor="#ffffff"
     bordercolor="#666666"
     borderopacity="1.0"
     inkscape:pageopacity="0.0"
     inkscape:pageshadow="2"
     inkscape:zoom="3.5355339"
     inkscape:cx="134.01144"
     inkscape:cy="149.4233"
     inkscape:document-units="px"
     inkscape:current-layer="layer1"
     showgrid="false"
     showguides="true"
     inkscape:guide-bbox="true"
     inkscape:window-width="1024"
     inkscape:window-height="538"
     inkscape:window-x="-8"
     inkscape:window-y="-8"
     inkscape:window-maximized="1"
     width="0px"
     height="0px"
     fit-margin-top="0"
     fit-margin-left="0"
     fit-margin-right="0"
     fit-margin-bottom="0">
    <sodipodi:guide
       orientation="1,0"
       position="400.22244,349.31075"
       id="guide3178" />
    <sodipodi:guide
       orientation="0,1"
       position="400.22244,349.31075"
       id="guide3180" />
  </sodipodi:namedview>
  <metadata
     id="metadata7">
    <rdf:RDF>
      <cc:Work
         rdf:about="">
        <dc:format>image/svg+xml</dc:format>
        <dc:type
           rdf:resource="http://purl.org/dc/dcmitype/StillImage" />
        <dc:title />
      </cc:Work>
    </rdf:RDF>
  </metadata>
  <g
     inkscape:label="Layer 1"
     inkscape:groupmode="layer"
     id="layer1"
     transform="translate(0,-352.36218)">
    <path
       id="rect4170"
       transform="translate(0,352.36218)"
       style="fill:#00ff00"
       d="m 188.25,531.625 c -0.91055,0.0197 -1.80362,0.18448 -2.625,0.53125 -0.94985,0.40141 -3.47554,1.02344 -5.59375,1.34375 -4.62309,0.69941 -5.5106,1.37396 -7.90625,6.09375 l -1.625,3.15625 0.21875,4.75 c 0.12572,2.58995 0.56639,5.74556 0.96875,7.03125 0.99135,3.16749 3.8487,6.14185 7.75,8.09375 2.61858,1.3098 3.48058,1.53125 6.125,1.53125 l 3.0625,0 3.78125,-3.84375 c 5.69298,-5.78032 7.01216,-9.16261 5.90625,-15.0625 -0.3588,-1.91421 -0.9222,-4.5074 -1.28125,-5.75 -0.65942,-2.28214 -2.81188,-5.76405 -3.5625,-5.78125 -0.22383,0 -0.83613,-0.43123 -1.375,-0.9375 -0.83926,-0.78837 -2.32619,-1.18915 -3.84375,-1.15625 z m -2.375,3.53125 c 0.91318,0.0184 1.10512,1.34526 0,2.75 -1.46857,1.86693 -1.12772,4.93706 0.65625,5.75 0.58912,0.2685 1.96254,0.5 3.03125,0.5 1.87528,0 2.24519,-0.11975 4.46875,-1.28125 0.56162,-0.29327 1.09325,-0.48275 1.15625,-0.40625 0.2923,0.35486 0.58569,6.005 0.3125,6 -0.17043,0 -0.73453,-0.64132 -1.25,-1.4375 l -0.9375,-1.4375 -3.625,0.15625 c -2.38947,0.11176 -4.57645,0.50373 -6.4375,1.1875 -1.55523,0.57173 -3.35177,1.18383 -3.96875,1.3125 -0.63357,0.13188 -1.34245,0.72356 -1.625,1.34375 -0.74405,1.6328 -1.8125,1.40344 -1.8125,-0.375 0,-0.90614 0.29817,-1.78747 0.84375,-2.28125 0.83541,-0.75592 0.86899,-1.14517 0.125,-3.125 -0.4029,-1.07209 1.02305,-0.52928 1.96875,0.75 1.03251,1.39655 2.32066,1.66586 4.125,0.84375 0.997,-0.45413 1.0367,-0.63749 1,-4.8125 -0.0338,-3.83927 0.0594,-4.41689 0.8125,-4.96875 0.44096,-0.32323 0.85188,-0.47475 1.15625,-0.46875 z" />
  </g>
</svg>
