<?xml version="1.0" encoding="UTF-8" standalone="no"?>
<!-- Created with Inkscape (http://www.inkscape.org/) -->

<svg
   xmlns:dc="http://purl.org/dc/elements/1.1/"
   xmlns:cc="http://creativecommons.org/ns#"
   xmlns:rdf="http://www.w3.org/1999/02/22-rdf-syntax-ns#"
   xmlns:svg="http://www.w3.org/2000/svg"
   xmlns="http://www.w3.org/2000/svg"
   xmlns:sodipodi="http://sodipodi.sourceforge.net/DTD/sodipodi-0.dtd"
   xmlns:inkscape="http://www.inkscape.org/namespaces/inkscape"
   width="800"
   height="400"
   id="svg2"
   version="1.1"
   inkscape:version="0.48.2 r9819"
   sodipodi:docname="mh.svg">
  <defs
     id="defs4" />
  <sodipodi:namedview
     id="base"
     pagecolor="#ffffff"
     bordercolor="#666666"
     borderopacity="1.0"
     inkscape:pageopacity="0.0"
     inkscape:pageshadow="2"
     inkscape:zoom="4"
     inkscape:cx="542.67639"
     inkscape:cy="326.64972"
     inkscape:document-units="px"
     inkscape:current-layer="layer1"
     showgrid="false"
     showguides="true"
     inkscape:guide-bbox="true"
     inkscape:window-width="1366"
     inkscape:window-height="746"
     inkscape:window-x="-8"
     inkscape:window-y="-8"
     inkscape:window-maximized="1"
     width="0px"
     height="0px"
     fit-margin-top="0"
     fit-margin-left="0"
     fit-margin-right="0"
     fit-margin-bottom="0">
    <sodipodi:guide
       orientation="1,0"
       position="400.22244,349.31075"
       id="guide3178" />
  </sodipodi:namedview>
  <metadata
     id="metadata7">
    <rdf:RDF>
      <cc:Work
         rdf:about="">
        <dc:format>image/svg+xml</dc:format>
        <dc:type
           rdf:resource="http://purl.org/dc/dcmitype/StillImage" />
        <dc:title></dc:title>
        <cc:license
           rdf:resource="" />
      </cc:Work>
    </rdf:RDF>
  </metadata>
  <g
     inkscape:label="Layer 1"
     inkscape:groupmode="layer"
     id="layer1"
     transform="translate(0,-652.36218)">
    <path
       id="rect3086"
       transform="translate(0,652.36218)"
       style="fill:#ff0000"
       d="m 528.25,26.75 c -0.49441,0.05679 -1.01073,0.217346 -1.5625,0.46875 -5.13737,2.34074 -5.52324,15.02713 -1,32.34375 3.86289,14.78852 4.16798,19.62342 1.625,25.3125 -1.20587,2.69774 -2.38212,7.85162 -2.6875,11.75 -0.45663,5.82933 -0.22568,7.5874 1.53125,11.03125 1.1515,2.25713 2.88998,4.59902 3.84375,5.1875 2.11486,1.30488 11.20673,0.50312 14.875,-1.3125 2.17741,-1.07794 3.08153,-1.08124 5.125,0 5.28194,2.79475 13.8008,0.71657 17.78125,-4.34375 2.5365,-3.22514 2.53932,-9.51356 0,-19.0625 -2.46753,-9.27909 -2.47924,-11.9203 -0.0312,-16.71875 1.08566,-2.12808 1.983,-4.42484 2,-5.125 0.017,-0.70017 1.12754,-3.50459 2.46875,-6.21875 3.25217,-6.58127 4.78325,-16.13621 3.40625,-21.25 -1.07736,-4.00099 -2.59352,-4.86514 -4.78125,-2.6875 -0.68169,0.67854 -2.41053,1.25 -3.84375,1.25 -1.96698,0 -3.51388,1.18394 -6.3125,4.875 -2.0392,2.68946 -4.4931,6.48165 -5.46875,8.40625 -0.97566,1.9246 -3.00721,4.93566 -4.5,6.71875 C 549.22597,59.15809 548,61.5886 548,62.75 c 0,2.08532 -0.0332,2.08165 -2.5625,-0.28125 -3.60795,-3.37062 -4.8075,-6.06702 -7.75,-17.25 C 533.95857,31.046944 531.71089,26.352445 528.25,26.75 z M 528.03125,29 c 1.70567,0.02341 3.11153,3.78252 9,24.15625 2.68788,9.29984 7.12672,13.90842 12.46875,12.90625 6.53394,-1.22578 16.71381,-13.13183 20.15625,-23.5625 0.6362,-1.92771 1.88091,-4.09122 2.75,-4.8125 1.4305,-1.1872 1.52938,-0.65959 1.0625,5.59375 -0.28364,3.79913 -1.20517,8.4751 -2.03125,10.375 -5.06713,11.65387 -8.625,20.82002 -8.625,22.25 0,1.28117 -0.49492,1.50254 -2.21875,0.90625 -1.22137,-0.42248 -5.81969,-0.9662 -10.21875,-1.1875 -5.12019,-0.25758 -9.9952,0.13095 -13.5625,1.0625 l -5.59375,1.4375 0,-3.03125 c 0,-3.73683 -1.44477,-11.82301 -4.53125,-25.09375 -2.14862,-9.23833 -2.26562,-11.59782 -0.8125,-18.8125 0.25962,-1.28902 1.16459,-2.2011 2.15625,-2.1875 z m 38.9375,9.78125 c 0.14749,0.01244 0.24936,0.116719 0.3125,0.28125 1.12597,2.93422 -4.46218,12.84075 -11.71875,20.75 C 552.70076,62.93165 550,64.56119 550,63.15625 550,62.95358 552.06992,59.27568 554.625,55 560.33814,45.439579 565.54299,38.660989 566.96875,38.78125 z M 548,78 c 12.08859,-0.10824 13.7618,0.92554 16.46875,10.1875 1.18818,4.06539 2.2168,8.67401 2.25,10.21875 0.0888,4.12987 -2.55111,7.86376 -7.34375,10.40625 -3.9953,2.1195 -4.40259,2.15994 -7.25,0.6875 -3.8798,-2.00634 -4.97567,-1.97473 -11.75,0.40625 -3.0889,1.08567 -5.73857,1.96875 -5.875,1.96875 -0.13643,0 -1.80074,-1.55075 -3.71875,-3.46875 -2.93925,-2.93925 -3.5,-4.19994 -3.5,-7.875 0,-4.67172 2.1044,-13.79768 3.96875,-17.28125 1.81101,-3.38388 7.44625,-5.1667 16.75,-5.25 z" />
  </g>
</svg>
