<?xml version="1.0" encoding="UTF-8" standalone="no"?>
<!-- Created with Inkscape (http://www.inkscape.org/) -->

<svg
   xmlns:dc="http://purl.org/dc/elements/1.1/"
   xmlns:cc="http://creativecommons.org/ns#"
   xmlns:rdf="http://www.w3.org/1999/02/22-rdf-syntax-ns#"
   xmlns:svg="http://www.w3.org/2000/svg"
   xmlns="http://www.w3.org/2000/svg"
   xmlns:sodipodi="http://sodipodi.sourceforge.net/DTD/sodipodi-0.dtd"
   xmlns:inkscape="http://www.inkscape.org/namespaces/inkscape"
   width="800"
   height="700"
   id="svg2"
   version="1.1"
   inkscape:version="0.48.2 r9819"
   sodipodi:docname="m10-fill.svg">
  <defs
     id="defs4" />
  <sodipodi:namedview
     id="base"
     pagecolor="#ffffff"
     bordercolor="#666666"
     borderopacity="1.0"
     inkscape:pageopacity="0.0"
     inkscape:pageshadow="2"
     inkscape:zoom="5"
     inkscape:cx="508.30607"
     inkscape:cy="538.83199"
     inkscape:document-units="px"
     inkscape:current-layer="layer1"
     showgrid="false"
     showguides="true"
     inkscape:guide-bbox="true"
     inkscape:window-width="1024"
     inkscape:window-height="538"
     inkscape:window-x="-8"
     inkscape:window-y="-8"
     inkscape:window-maximized="1"
     width="0px"
     height="0px"
     fit-margin-top="0"
     fit-margin-left="0"
     fit-margin-right="0"
     fit-margin-bottom="0">
    <sodipodi:guide
       orientation="1,0"
       position="400.22244,349.31075"
       id="guide3178" />
    <sodipodi:guide
       orientation="0,1"
       position="400.22244,349.31075"
       id="guide3180" />
  </sodipodi:namedview>
  <metadata
     id="metadata7">
    <rdf:RDF>
      <cc:Work
         rdf:about="">
        <dc:format>image/svg+xml</dc:format>
        <dc:type
           rdf:resource="http://purl.org/dc/dcmitype/StillImage" />
        <dc:title />
      </cc:Work>
    </rdf:RDF>
  </metadata>
  <g
     inkscape:label="Layer 1"
     inkscape:groupmode="layer"
     id="layer1"
     transform="translate(0,-352.36218)">
    <path
       id="rect3698"
       transform="translate(0,352.36218)"
       style="fill:#00ff00"
       d="m 479.21875,150.78125 c -3.99147,0.041 -4.85036,0.18327 -6.75,1.15625 -2.42408,1.24165 -6.93517,5.5625 -5.8125,5.5625 0.37929,0 1.65417,-0.45638 2.8125,-0.96875 3.30682,-1.46273 10.52894,-1.62623 15.6875,-0.375 2.18072,0.52891 4.92473,1.50195 6.09375,2.1875 1.169,0.68552 2.48088,1.26915 2.9375,1.28125 0.78639,0.0207 0.78549,-0.0417 -0.0937,-0.96875 -0.51066,-0.53832 -2.02676,-2.17127 -3.375,-3.65625 -3.22844,-3.55594 -5.20655,-4.28315 -11.5,-4.21875 z m -0.625,6.28125 c -5.43886,-0.11058 -10.01154,1.41859 -11.6875,4.46875 -1.21712,2.21509 -0.94294,3.22598 1.40625,5.625 1.17736,1.2024 2.25129,2.6824 2.40625,3.3125 0.15496,0.63007 1.17956,2.66727 2.25,4.5 1.547,2.6487 2.24913,3.46794 3.53125,4 2.39902,0.99548 5.66308,0.89002 7.28125,-0.21875 0.73734,-0.50527 1.87971,-1.70639 2.5625,-2.65625 0.90358,-1.25712 2.1183,-2.08965 4.375,-3.125 4.03299,-1.85025 6.78125,-5.27916 6.78125,-8.40625 0,-1.2069 -1.10612,-2.71875 -1.96875,-2.71875 -0.28224,0 -1.91928,-0.70113 -3.625,-1.53125 -4.32085,-2.10283 -9.08226,-3.164 -13.3125,-3.25 z m -1.25,3.9375 c 4.00845,-0.0268 4.48002,0.61466 0.71875,1 -3.70892,0.37999 -5.375,1.46985 -5.375,3.53125 0,2.01341 1.45021,3.45821 5.5,5.46875 2.93795,1.45861 3.44002,1.56847 4.25,1.0625 0.50482,-0.31532 1.93444,-0.87701 3.1875,-1.28125 1.62814,-0.5252 2.73518,-1.26738 3.84375,-2.5625 1.4811,-1.73033 1.56063,-2.1648 0.84375,-3.90625 -0.49523,-1.20295 0.98174,-0.92852 2.21875,0.40625 0.58678,0.6331 1.03125,1.48481 1.03125,1.90625 0,1.2168 -4.15673,4.7118 -6,5.03125 -2.31163,0.40061 -4.81233,2.13531 -5.125,3.5625 -0.42906,1.95835 -0.54526,2.28125 -1,2.28125 -0.23836,0 -0.65859,-0.38091 -0.90625,-0.84375 -0.24771,-0.46279 -0.4375,-1.22634 -0.4375,-1.71875 0,-1.22762 -2.18678,-3.07422 -5,-4.21875 -2.88445,-1.17353 -5.01,-3.254 -5,-4.875 0.0175,-3.21532 2.41788,-4.81155 7.25,-4.84375 z" />
  </g>
</svg>
