<?xml version="1.0" encoding="UTF-8" standalone="no"?>
<!-- Created with Inkscape (http://www.inkscape.org/) -->

<svg
   xmlns:dc="http://purl.org/dc/elements/1.1/"
   xmlns:cc="http://creativecommons.org/ns#"
   xmlns:rdf="http://www.w3.org/1999/02/22-rdf-syntax-ns#"
   xmlns:svg="http://www.w3.org/2000/svg"
   xmlns="http://www.w3.org/2000/svg"
   xmlns:sodipodi="http://sodipodi.sourceforge.net/DTD/sodipodi-0.dtd"
   xmlns:inkscape="http://www.inkscape.org/namespaces/inkscape"
   width="800"
   height="700"
   id="svg2"
   version="1.1"
   inkscape:version="0.48.2 r9819"
   sodipodi:docname="f27.svg">
  <defs
     id="defs4" />
  <sodipodi:namedview
     id="base"
     pagecolor="#ffffff"
     bordercolor="#666666"
     borderopacity="1.0"
     inkscape:pageopacity="0.0"
     inkscape:pageshadow="2"
     inkscape:zoom="3.535534"
     inkscape:cx="539.1496"
     inkscape:cy="246.2091"
     inkscape:document-units="px"
     inkscape:current-layer="layer1"
     showgrid="false"
     showguides="true"
     inkscape:guide-bbox="true"
     inkscape:window-width="1366"
     inkscape:window-height="746"
     inkscape:window-x="-8"
     inkscape:window-y="-8"
     inkscape:window-maximized="1"
     width="0px"
     height="0px"
     fit-margin-top="0"
     fit-margin-left="0"
     fit-margin-right="0"
     fit-margin-bottom="0">
    <sodipodi:guide
       orientation="1,0"
       position="400.22244,349.31075"
       id="guide3178" />
    <sodipodi:guide
       orientation="0,1"
       position="400.22244,349.31075"
       id="guide3180" />
  </sodipodi:namedview>
  <metadata
     id="metadata7">
    <rdf:RDF>
      <cc:Work
         rdf:about="">
        <dc:format>image/svg+xml</dc:format>
        <dc:type
           rdf:resource="http://purl.org/dc/dcmitype/StillImage" />
        <dc:title></dc:title>
      </cc:Work>
    </rdf:RDF>
  </metadata>
  <g
     inkscape:label="Layer 1"
     inkscape:groupmode="layer"
     id="layer1"
     transform="translate(0,-352.36218)">
    <path
       style="fill:#ff0000"
       d="m 520.9375,814.33093 c 2.26548,-0.0203 3.68749,0.79003 5.875,3.1875 2.64065,2.89408 3.99309,5.46172 5.875,11.125 2.05704,6.19022 2.68023,9.27483 2.65625,12.625 -0.0322,4.54185 -1.64628,6.79131 -9.25,12.9375 -4.7951,3.87576 -8.64341,4.65466 -12.28125,2.40625 -3.63357,-2.24559 -4.34619,-3.94523 -4.59375,-10.59375 -0.29604,-7.95057 1.00409,-17.29609 2.6875,-19.15625 0.56669,-0.62622 0.65793,-1.24902 0.4375,-2.71875 -0.35529,-2.36934 1.02374,-5.31345 3.625,-7.84375 1.4407,-1.40144 2.11771,-1.73136 3.9375,-1.90625 0.36326,-0.0348 0.7076,-0.0595 1.03125,-0.0625 z"
       id="path3389" />
    <path
       style="fill:#ff0000"
       d="m 525.0625,822.95593 c -0.21502,0 -0.79626,0.98849 -1.28125,2.125 -0.48499,1.13648 -1.27783,2.89436 -1.75,3.9375 -0.47223,1.0432 -0.74225,2.00772 -0.625,2.125 0.44907,0.44913 1.28236,-0.53534 2.125,-2.46875 1.53097,-3.51259 1.58697,-3.46536 3.65625,0.65625 1.03795,2.06742 1.875,4.03082 1.875,4.375 0,0.34419 0.2784,0.71062 0.625,0.84375 0.34665,0.13291 0.97353,1.26019 1.375,2.46875 0.93737,2.82234 0.66033,6.72619 -0.625,8.53125 -0.50215,0.70515 -0.9375,1.50503 -0.9375,1.78125 0,0.80594 0.83976,0.0881 2,-1.75 1.14949,-1.82092 1.21692,-2.87402 0.53125,-7.15625 -0.61788,-3.85877 -1.98414,-7.84131 -3.53125,-10.1875 -0.75268,-1.14147 -1.73112,-2.77692 -2.1875,-3.65625 -0.45639,-0.8793 -1.03497,-1.625 -1.25,-1.625 z"
       id="path3387" />
    <path
       style="fill:#ff0000"
       d="m 514.96875,824.29968 c -0.60205,0 -2.86785,6.4029 -2.875,8.15625 -0.002,0.64141 -0.36767,3.40445 -0.84375,6.125 -0.47603,2.72075 -0.90643,5.66301 -0.90625,6.53125 4.4e-4,1.92404 2.17294,6.68608 3.46875,7.59375 0.9737,0.68196 2.62497,0.54115 2.625,-0.21875 0,-0.23678 -0.49781,-0.85041 -1.125,-1.34375 -2.48031,-1.95108 -3.36112,-6.55939 -2.5,-12.8125 0.72372,-5.25553 1.46209,-8.75677 1.90625,-9.03125 0.19699,-0.12173 0.67759,0.31281 1.09375,0.96875 0.80712,1.27205 3.23871,3.59375 3.78125,3.59375 0.47632,0.002 0.41381,-0.77996 -0.0937,-1.09375 -0.23926,-0.14784 -0.4375,-0.60394 -0.4375,-1.03125 0,-0.42731 -0.39548,-1.15972 -0.875,-1.59375 -0.47954,-0.43391 -1.3029,-1.91488 -1.8125,-3.3125 -0.50961,-1.39757 -1.11733,-2.53125 -1.40625,-2.53125 z"
       id="rect3330" />
  </g>
</svg>
