<?xml version="1.0" encoding="UTF-8" standalone="no"?>
<!-- Created with Inkscape (http://www.inkscape.org/) -->

<svg
   xmlns:dc="http://purl.org/dc/elements/1.1/"
   xmlns:cc="http://creativecommons.org/ns#"
   xmlns:rdf="http://www.w3.org/1999/02/22-rdf-syntax-ns#"
   xmlns:svg="http://www.w3.org/2000/svg"
   xmlns="http://www.w3.org/2000/svg"
   xmlns:sodipodi="http://sodipodi.sourceforge.net/DTD/sodipodi-0.dtd"
   xmlns:inkscape="http://www.inkscape.org/namespaces/inkscape"
   width="800"
   height="700"
   id="svg2"
   version="1.1"
   inkscape:version="0.48.2 r9819"
   sodipodi:docname="f27-fill.svg">
  <defs
     id="defs4" />
  <sodipodi:namedview
     id="base"
     pagecolor="#ffffff"
     bordercolor="#666666"
     borderopacity="1.0"
     inkscape:pageopacity="0.0"
     inkscape:pageshadow="2"
     inkscape:zoom="3.535534"
     inkscape:cx="539.1496"
     inkscape:cy="234.89539"
     inkscape:document-units="px"
     inkscape:current-layer="layer1"
     showgrid="false"
     showguides="true"
     inkscape:guide-bbox="true"
     inkscape:window-width="1024"
     inkscape:window-height="538"
     inkscape:window-x="-8"
     inkscape:window-y="-8"
     inkscape:window-maximized="1"
     width="0px"
     height="0px"
     fit-margin-top="0"
     fit-margin-left="0"
     fit-margin-right="0"
     fit-margin-bottom="0">
    <sodipodi:guide
       orientation="1,0"
       position="400.22244,349.31075"
       id="guide3178" />
    <sodipodi:guide
       orientation="0,1"
       position="400.22244,349.31075"
       id="guide3180" />
  </sodipodi:namedview>
  <metadata
     id="metadata7">
    <rdf:RDF>
      <cc:Work
         rdf:about="">
        <dc:format>image/svg+xml</dc:format>
        <dc:type
           rdf:resource="http://purl.org/dc/dcmitype/StillImage" />
        <dc:title />
      </cc:Work>
    </rdf:RDF>
  </metadata>
  <g
     inkscape:label="Layer 1"
     inkscape:groupmode="layer"
     id="layer1"
     transform="translate(0,-352.36218)">
    <path
       id="rect4485"
       transform="translate(0,352.36218)"
       style="fill:#00ff00"
       d="m 520.9375,461.96875 c -0.32365,0.003 -0.66799,0.0277 -1.03125,0.0625 -1.81979,0.17489 -2.4968,0.50481 -3.9375,1.90625 -2.60126,2.5303 -3.98029,5.47441 -3.625,7.84375 0.22043,1.46973 0.12919,2.09253 -0.4375,2.71875 -1.68341,1.86016 -2.98354,11.20568 -2.6875,19.15625 0.24756,6.64852 0.96018,8.34816 4.59375,10.59375 3.63784,2.24841 7.48615,1.46951 12.28125,-2.40625 7.60372,-6.14619 9.2178,-8.39565 9.25,-12.9375 0.024,-3.35017 -0.59921,-6.43478 -2.65625,-12.625 -1.88191,-5.66328 -3.23435,-8.23092 -5.875,-11.125 -2.18751,-2.39747 -3.60952,-3.2078 -5.875,-3.1875 z m 4.125,8.625 c 0.21503,0 0.79361,0.7457 1.25,1.625 0.45638,0.87933 1.43482,2.51478 2.1875,3.65625 1.54711,2.34619 2.91337,6.32873 3.53125,10.1875 0.68567,4.28223 0.61824,5.33533 -0.53125,7.15625 -1.16024,1.8381 -2,2.55594 -2,1.75 0,-0.27622 0.43535,-1.0761 0.9375,-1.78125 1.28533,-1.80506 1.56237,-5.70891 0.625,-8.53125 -0.40147,-1.20856 -1.02835,-2.33584 -1.375,-2.46875 -0.3466,-0.13313 -0.625,-0.49956 -0.625,-0.84375 0,-0.34418 -0.83705,-2.30758 -1.875,-4.375 -2.06928,-4.12161 -2.12528,-4.16884 -3.65625,-0.65625 -0.84264,1.93341 -1.67593,2.91788 -2.125,2.46875 -0.11725,-0.11728 0.15277,-1.0818 0.625,-2.125 0.47217,-1.04314 1.26501,-2.80102 1.75,-3.9375 0.48499,-1.13651 1.06623,-2.125 1.28125,-2.125 z m -10.09375,1.34375 c 0.28892,0 0.89664,1.13368 1.40625,2.53125 0.5096,1.39762 1.33296,2.87859 1.8125,3.3125 0.47952,0.43403 0.875,1.16644 0.875,1.59375 0,0.42731 0.19824,0.88341 0.4375,1.03125 0.50751,0.31379 0.57007,1.09575 0.0937,1.09375 -0.54254,0 -2.97413,-2.3217 -3.78125,-3.59375 -0.41616,-0.65594 -0.89676,-1.09048 -1.09375,-0.96875 -0.44416,0.27448 -1.18253,3.77572 -1.90625,9.03125 -0.86112,6.25311 0.0197,10.86142 2.5,12.8125 0.62719,0.49334 1.125,1.10697 1.125,1.34375 -3e-5,0.7599 -1.6513,0.90071 -2.625,0.21875 -1.29581,-0.90767 -3.46831,-5.66971 -3.46875,-7.59375 -1.8e-4,-0.86824 0.43022,-3.8105 0.90625,-6.53125 0.47608,-2.72055 0.84175,-5.48359 0.84375,-6.125 0.007,-1.75335 2.27295,-8.15625 2.875,-8.15625 z" />
  </g>
</svg>
