<?xml version="1.0" encoding="UTF-8" standalone="no"?>
<!-- Created with Inkscape (http://www.inkscape.org/) -->

<svg
   xmlns:dc="http://purl.org/dc/elements/1.1/"
   xmlns:cc="http://creativecommons.org/ns#"
   xmlns:rdf="http://www.w3.org/1999/02/22-rdf-syntax-ns#"
   xmlns:svg="http://www.w3.org/2000/svg"
   xmlns="http://www.w3.org/2000/svg"
   xmlns:sodipodi="http://sodipodi.sourceforge.net/DTD/sodipodi-0.dtd"
   xmlns:inkscape="http://www.inkscape.org/namespaces/inkscape"
   width="800"
   height="400"
   id="svg2"
   version="1.1"
   inkscape:version="0.48.2 r9819"
   sodipodi:docname="mm.svg">
  <defs
     id="defs4" />
  <sodipodi:namedview
     id="base"
     pagecolor="#ffffff"
     bordercolor="#666666"
     borderopacity="1.0"
     inkscape:pageopacity="0.0"
     inkscape:pageshadow="2"
     inkscape:zoom="2.8284271"
     inkscape:cx="517.91887"
     inkscape:cy="56.126695"
     inkscape:document-units="px"
     inkscape:current-layer="layer1"
     showgrid="false"
     showguides="true"
     inkscape:guide-bbox="true"
     inkscape:window-width="1366"
     inkscape:window-height="746"
     inkscape:window-x="-8"
     inkscape:window-y="-8"
     inkscape:window-maximized="1"
     width="0px"
     height="0px"
     fit-margin-top="0"
     fit-margin-left="0"
     fit-margin-right="0"
     fit-margin-bottom="0">
    <sodipodi:guide
       orientation="1,0"
       position="400.22244,349.31075"
       id="guide3178" />
  </sodipodi:namedview>
  <metadata
     id="metadata7">
    <rdf:RDF>
      <cc:Work
         rdf:about="">
        <dc:format>image/svg+xml</dc:format>
        <dc:type
           rdf:resource="http://purl.org/dc/dcmitype/StillImage" />
        <dc:title></dc:title>
        <cc:license
           rdf:resource="" />
      </cc:Work>
    </rdf:RDF>
  </metadata>
  <g
     inkscape:label="Layer 1"
     inkscape:groupmode="layer"
     id="layer1"
     transform="translate(0,-652.36218)">
    <path
       id="rect3173"
       transform="translate(0,652.36218)"
       style="fill:#ff0000"
       d="m 500.96875,286.65625 c -0.66075,-0.0279 -1.38246,0.0586 -2.34375,0.1875 -4.66078,0.62514 -10.97089,4.65823 -14.0625,9 -3.01206,4.23002 -2.96931,15.52535 0.0937,23.78125 1.68771,4.5489 2.40553,9.46741 3.09375,21.21875 0.49276,8.41385 1.41627,18.64745 2.03125,22.71875 0.615,4.0712 1.3181,8.7684 1.5625,10.4375 0.2444,1.6691 1.33744,4.0067 2.4375,5.1875 1.10005,1.1808 2.59321,2.125 3.3125,2.125 2.02007,0 6.51205,-7.15255 6.53125,-10.40625 0.009,-1.5994 0.73232,-6.0126 1.625,-9.8125 0.90666,-3.8593 1.92321,-13.89749 2.28125,-22.71875 0.58757,-14.47607 0.90925,-16.50565 3.8125,-24.375 4.31506,-11.69607 3.76767,-15.10742 -3.4375,-22.375 -3.76267,-3.79527 -4.95526,-4.88508 -6.9375,-4.96875 z m -1.3125,1.875 c 1.55992,0 8.875,7.03581 8.875,8.53125 0,0.75108 0.40656,1.34375 0.90625,1.34375 4.03055,0 -0.65634,17.34494 -6.46875,23.9375 -5.18567,5.8817 -6.469,6.156 -10.5,2.125 -3.50701,-3.50701 -5.97957,-9.35221 -7.1875,-16.90625 -0.94937,-5.93699 2.45901,-12.28056 8.65625,-16.09375 2.61698,-1.61024 5.18564,-2.9375 5.71875,-2.9375 z m 5.90625,35.375 0,6.40625 c 0,15.53934 -4.27226,44.3985 -7.09375,47.8125 -2.8247,3.4179 -4.96599,-0.4234 -5.8125,-10.4375 -0.3983,-4.7118 -1.23051,-12.62815 -1.84375,-17.59375 -0.61325,-4.96556 -0.97205,-12.44653 -0.8125,-16.625 L 490.28125,325.875 493,328 c 3.11548,2.45577 5.21028,2.08973 9.625,-1.625 l 2.9375,-2.46875 z" />
  </g>
</svg>
