<?xml version="1.0" encoding="UTF-8" standalone="no"?>
<!-- Created with Inkscape (http://www.inkscape.org/) -->

<svg
   xmlns:dc="http://purl.org/dc/elements/1.1/"
   xmlns:cc="http://creativecommons.org/ns#"
   xmlns:rdf="http://www.w3.org/1999/02/22-rdf-syntax-ns#"
   xmlns:svg="http://www.w3.org/2000/svg"
   xmlns="http://www.w3.org/2000/svg"
   xmlns:sodipodi="http://sodipodi.sourceforge.net/DTD/sodipodi-0.dtd"
   xmlns:inkscape="http://www.inkscape.org/namespaces/inkscape"
   width="800"
   height="400"
   id="svg2"
   version="1.1"
   inkscape:version="0.48.2 r9819"
   sodipodi:docname="fm.svg">
  <defs
     id="defs4" />
  <sodipodi:namedview
     id="base"
     pagecolor="#ffffff"
     bordercolor="#666666"
     borderopacity="1.0"
     inkscape:pageopacity="0.0"
     inkscape:pageshadow="2"
     inkscape:zoom="2.8284271"
     inkscape:cx="517.91887"
     inkscape:cy="112.69524"
     inkscape:document-units="px"
     inkscape:current-layer="layer1"
     showgrid="false"
     showguides="true"
     inkscape:guide-bbox="true"
     inkscape:window-width="1366"
     inkscape:window-height="746"
     inkscape:window-x="-8"
     inkscape:window-y="-8"
     inkscape:window-maximized="1"
     width="0px"
     height="0px"
     fit-margin-top="0"
     fit-margin-left="0"
     fit-margin-right="0"
     fit-margin-bottom="0">
    <sodipodi:guide
       orientation="1,0"
       position="400.22244,349.31075"
       id="guide3178" />
  </sodipodi:namedview>
  <metadata
     id="metadata7">
    <rdf:RDF>
      <cc:Work
         rdf:about="">
        <dc:format>image/svg+xml</dc:format>
        <dc:type
           rdf:resource="http://purl.org/dc/dcmitype/StillImage" />
        <dc:title></dc:title>
        <cc:license
           rdf:resource="" />
      </cc:Work>
    </rdf:RDF>
  </metadata>
  <g
     inkscape:label="Layer 1"
     inkscape:groupmode="layer"
     id="layer1"
     transform="translate(0,-652.36218)">
    <path
       id="rect3169"
       transform="translate(0,652.36218)"
       style="fill:#ff0000"
       d="M 496.40625,231.21875 493.875,233.5 c -6.39467,5.69404 -8.10117,8.15532 -10,14.53125 -3.22307,10.82244 -2.8359,13.62642 2.6875,19 2.57845,2.50851 5.60184,4.80474 6.6875,5.09375 1.08567,0.28901 4.36514,0.33532 7.3125,0.125 4.55144,-0.32477 5.87616,-0.9074 8.8125,-3.84375 3.01229,-3.01228 3.53686,-4.2058 3.90625,-9.3125 0.36873,-5.0977 -0.0435,-6.84872 -3.03125,-13.4375 -2.97521,-6.56101 -4.11455,-8.02951 -8.625,-11 l -5.21875,-3.4375 z m 0.96875,3.28125 4.125,3.4375 c 4.09339,3.4002 5.70682,6.25547 8.65625,15.25 1.48593,4.53147 1.47785,4.75403 -1.15625,9.59375 -1.73352,3.18504 -3.85774,5.48183 -5.9375,6.46875 -5.42437,2.57404 -7.88952,1.74271 -14.21875,-4.78125 l -4.40625,-4.53125 1.28125,-6.1875 c 1.91949,-9.33071 4.78952,-15.17295 8.46875,-17.34375 L 497.375,234.5 z" />
  </g>
</svg>
