<?xml version="1.0" encoding="UTF-8" standalone="no"?>
<!-- Created with Inkscape (http://www.inkscape.org/) -->

<svg
   xmlns:dc="http://purl.org/dc/elements/1.1/"
   xmlns:cc="http://creativecommons.org/ns#"
   xmlns:rdf="http://www.w3.org/1999/02/22-rdf-syntax-ns#"
   xmlns:svg="http://www.w3.org/2000/svg"
   xmlns="http://www.w3.org/2000/svg"
   xmlns:sodipodi="http://sodipodi.sourceforge.net/DTD/sodipodi-0.dtd"
   xmlns:inkscape="http://www.inkscape.org/namespaces/inkscape"
   width="800"
   height="400"
   id="svg2"
   version="1.1"
   inkscape:version="0.48.2 r9819"
   sodipodi:docname="md.svg">
  <defs
     id="defs4" />
  <sodipodi:namedview
     id="base"
     pagecolor="#ffffff"
     bordercolor="#666666"
     borderopacity="1.0"
     inkscape:pageopacity="0.0"
     inkscape:pageshadow="2"
     inkscape:zoom="4"
     inkscape:cx="406.25371"
     inkscape:cy="326.43568"
     inkscape:document-units="px"
     inkscape:current-layer="layer1"
     showgrid="false"
     showguides="true"
     inkscape:guide-bbox="true"
     inkscape:window-width="1366"
     inkscape:window-height="746"
     inkscape:window-x="-8"
     inkscape:window-y="-8"
     inkscape:window-maximized="1"
     width="0px"
     height="0px"
     fit-margin-top="0"
     fit-margin-left="0"
     fit-margin-right="0"
     fit-margin-bottom="0">
    <sodipodi:guide
       orientation="1,0"
       position="400.22244,349.31075"
       id="guide3178" />
  </sodipodi:namedview>
  <metadata
     id="metadata7">
    <rdf:RDF>
      <cc:Work
         rdf:about="">
        <dc:format>image/svg+xml</dc:format>
        <dc:type
           rdf:resource="http://purl.org/dc/dcmitype/StillImage" />
        <dc:title></dc:title>
        <cc:license
           rdf:resource="" />
      </cc:Work>
    </rdf:RDF>
  </metadata>
  <g
     inkscape:label="Layer 1"
     inkscape:groupmode="layer"
     id="layer1"
     transform="translate(0,-652.36218)">
    <path
       id="rect3047"
       transform="translate(0,652.36218)"
       style="fill:#ff0000"
       d="m 378.6875,31.90625 c -1.50775,-0.05776 -2.79484,0.86982 -3.53125,2.75 -0.58468,1.49279 -1.44245,12.97177 -1.90625,25.5 -0.68402,18.47661 -1.22701,24.2528 -2.96875,30.59375 -1.19032,4.33346 -2.21665,11.01987 -2.28125,15.03125 -0.10449,6.48668 0.13013,7.42802 2.21875,9.125 2.75025,2.23453 3.58477,2.26118 16.34375,0.4375 5.56318,-0.79515 10.13009,-1.95652 10.59375,-2.6875 1.33029,-2.09732 0.91902,-11.79346 -0.6875,-16.40625 -0.82107,-2.35751 -2.36657,-6.02577 -3.4375,-8.125 -1.46376,-2.86919 -1.9375,-5.77285 -1.9375,-11.78125 0,-8.84621 -1.50515,-20.77699 -4.53125,-36.1875 -0.23162,-1.17953 -1.56326,-3.51717 -2.96875,-5.1875 -1.65929,-1.971955 -3.3985,-3.004741 -4.90625,-3.0625 z m -0.25,2.46875 c 1.47865,-0.02633 5.7375,4.533581 6.21875,6.84375 1.7765,8.5278 3.46875,23.8751 3.46875,31.375 0,8.48755 -0.0892,8.89969 -1.71875,7.46875 -0.94995,-0.83417 -2.67642,-1.77987 -3.8125,-2.125 -1.35395,-0.41132 -2.98399,0.0796 -4.75,1.46875 l -2.6875,2.125 0.59375,-19.125 c 0.66388,-20.9749 1.20785,-27.20878 2.4375,-27.96875 0.0721,-0.04458 0.15142,-0.06074 0.25,-0.0625 z m 2.625,46.5625 c 0.81387,-0.0758 1.64994,0.08144 2.5,0.46875 2.91348,1.32747 8.5,8.82552 8.5,11.40625 0,1.01185 0.72455,2.85279 1.59375,4.09375 2.11378,3.01785 2.35945,11.77472 0.375,13.03125 -0.81425,0.51557 -3.23493,0.93655 -5.40625,0.96875 -2.17133,0.0321 -5.73492,0.71775 -7.90625,1.5 -5.90388,2.12694 -7.1078,1.80828 -9.3125,-2.375 -0.96812,-1.83681 -0.99559,-4.03312 -0.0937,-10.34375 1.62262,-11.354099 5.35511,-18.340666 9.75,-18.75 z" />
  </g>
</svg>
