<?xml version="1.0" encoding="UTF-8" standalone="no"?>
<!-- Created with Inkscape (http://www.inkscape.org/) -->

<svg
   xmlns:dc="http://purl.org/dc/elements/1.1/"
   xmlns:cc="http://creativecommons.org/ns#"
   xmlns:rdf="http://www.w3.org/1999/02/22-rdf-syntax-ns#"
   xmlns:svg="http://www.w3.org/2000/svg"
   xmlns="http://www.w3.org/2000/svg"
   xmlns:sodipodi="http://sodipodi.sourceforge.net/DTD/sodipodi-0.dtd"
   xmlns:inkscape="http://www.inkscape.org/namespaces/inkscape"
   width="800"
   height="700"
   id="svg2"
   version="1.1"
   inkscape:version="0.48.2 r9819"
   sodipodi:docname="m24-fill.svg">
  <defs
     id="defs4" />
  <sodipodi:namedview
     id="base"
     pagecolor="#ffffff"
     bordercolor="#666666"
     borderopacity="1.0"
     inkscape:pageopacity="0.0"
     inkscape:pageshadow="2"
     inkscape:zoom="3.5355339"
     inkscape:cx="325.75673"
     inkscape:cy="129.27864"
     inkscape:document-units="px"
     inkscape:current-layer="layer1"
     showgrid="false"
     showguides="true"
     inkscape:guide-bbox="true"
     inkscape:window-width="1024"
     inkscape:window-height="538"
     inkscape:window-x="-8"
     inkscape:window-y="-8"
     inkscape:window-maximized="1"
     width="0px"
     height="0px"
     fit-margin-top="0"
     fit-margin-left="0"
     fit-margin-right="0"
     fit-margin-bottom="0">
    <sodipodi:guide
       orientation="1,0"
       position="400.22244,349.31075"
       id="guide3178" />
    <sodipodi:guide
       orientation="0,1"
       position="400.22244,349.31075"
       id="guide3180" />
  </sodipodi:namedview>
  <metadata
     id="metadata7">
    <rdf:RDF>
      <cc:Work
         rdf:about="">
        <dc:format>image/svg+xml</dc:format>
        <dc:type
           rdf:resource="http://purl.org/dc/dcmitype/StillImage" />
        <dc:title />
      </cc:Work>
    </rdf:RDF>
  </metadata>
  <g
     inkscape:label="Layer 1"
     inkscape:groupmode="layer"
     id="layer1"
     transform="translate(0,-352.36218)">
    <path
       id="rect4354"
       transform="translate(0,352.36218)"
       style="fill:#00ff00"
       d="m 370.6875,538.0625 c -1.35799,0 -3.33963,2.00774 -4.78125,4.875 -0.50788,1.01021 -1.22408,2.17678 -1.5625,2.5625 -0.98767,1.12635 -1.23012,4.80984 -0.4375,6.53125 0.37521,0.81502 1.10661,2.61538 1.59375,4.03125 1.35029,3.925 2.14796,4.59375 5.65625,4.59375 2.63319,-0.002 3.09739,-0.1041 4.84375,-1.4375 2.39816,-1.8312 5.37714,-5.21511 6.46875,-7.3125 1.22126,-2.34629 0.54786,-2.7528 -4.9375,-2.8125 -5.92431,-0.064 -12.46875,-0.61446 -12.46875,-1.0625 0,-0.20059 0.82685,-0.62934 1.84375,-0.90625 1.49334,-0.40646 2.64166,-0.30773 6.03125,0.28125 3.90675,0.67913 4.38898,0.6656 6.6875,0 2.38868,-0.69457 2.44554,-0.75931 1.71875,-1.5625 -0.41319,-0.4566 -0.92281,-0.84375 -1.125,-0.84375 -0.41951,0 -1.2644,-0.6964 -4.25,-3.46875 -3.15894,-2.93313 -3.99652,-3.46875 -5.28125,-3.46875 z" />
  </g>
</svg>
