<?xml version="1.0" encoding="UTF-8" standalone="no"?>
<!-- Created with Inkscape (http://www.inkscape.org/) -->

<svg
   xmlns:dc="http://purl.org/dc/elements/1.1/"
   xmlns:cc="http://creativecommons.org/ns#"
   xmlns:rdf="http://www.w3.org/1999/02/22-rdf-syntax-ns#"
   xmlns:svg="http://www.w3.org/2000/svg"
   xmlns="http://www.w3.org/2000/svg"
   xmlns:sodipodi="http://sodipodi.sourceforge.net/DTD/sodipodi-0.dtd"
   xmlns:inkscape="http://www.inkscape.org/namespaces/inkscape"
   width="800"
   height="700"
   id="svg2"
   version="1.1"
   inkscape:version="0.48.2 r9819"
   sodipodi:docname="f17-fill.svg">
  <defs
     id="defs4" />
  <sodipodi:namedview
     id="base"
     pagecolor="#ffffff"
     bordercolor="#666666"
     borderopacity="1.0"
     inkscape:pageopacity="0.0"
     inkscape:pageshadow="2"
     inkscape:zoom="3.5355339"
     inkscape:cx="108.94915"
     inkscape:cy="200.37869"
     inkscape:document-units="px"
     inkscape:current-layer="layer1"
     showgrid="false"
     showguides="true"
     inkscape:guide-bbox="true"
     inkscape:window-width="1024"
     inkscape:window-height="538"
     inkscape:window-x="-8"
     inkscape:window-y="-8"
     inkscape:window-maximized="1"
     width="0px"
     height="0px"
     fit-margin-top="0"
     fit-margin-left="0"
     fit-margin-right="0"
     fit-margin-bottom="0">
    <sodipodi:guide
       orientation="1,0"
       position="400.22244,349.31075"
       id="guide3178" />
    <sodipodi:guide
       orientation="0,1"
       position="400.22244,349.31075"
       id="guide3180" />
  </sodipodi:namedview>
  <metadata
     id="metadata7">
    <rdf:RDF>
      <cc:Work
         rdf:about="">
        <dc:format>image/svg+xml</dc:format>
        <dc:type
           rdf:resource="http://purl.org/dc/dcmitype/StillImage" />
        <dc:title />
      </cc:Work>
    </rdf:RDF>
  </metadata>
  <g
     inkscape:label="Layer 1"
     inkscape:groupmode="layer"
     id="layer1"
     transform="translate(0,-352.36218)">
    <path
       id="rect3990"
       transform="translate(0,352.36218)"
       style="fill:#00ff00"
       d="m 39.5,484.125 c -1.77169,-0.0327 -3.66641,0.19232 -5.5625,0.625 -1.51026,0.34488 -4.97241,0.81424 -7.6875,1.0625 -5.68603,0.51999 -8.4482,1.64916 -8.6875,3.53125 -0.07561,0.59456 -0.60513,2.47227 -1.1875,4.1875 -1.06443,3.13452 -1.41685,7.54076 -0.8125,10.5625 0.53146,2.65723 1.04543,1.26942 0.78125,-2.15625 -0.22911,-2.97083 -0.20142,-3.46875 0.375,-3.46875 0.51893,0 0.6744,0.4997 0.6875,2.1875 0.0091,1.20793 0.30615,3.28197 0.6875,4.59375 0.63414,2.18136 0.90605,2.46098 2.78125,3.34375 1.12768,0.53107 2.13035,1.05773 2.25,1.1875 0.40078,0.43452 3.27379,1.70865 3.875,1.71875 0.32685,0.005 1.485,-0.65365 2.59375,-1.46875 3.20222,-2.35412 4.13055,-3.87236 4.40625,-7.40625 0.13094,-1.67873 0.34616,-2.89547 0.5,-2.65625 0.57619,0.89618 1.13198,3.64676 0.8125,4 -0.18252,0.20192 -0.24047,1.09498 -0.125,2 0.1662,1.30286 0.51339,1.82116 1.59375,2.375 0.75053,0.3847 1.9033,1.17361 2.59375,1.75 1.89523,1.582 3.38141,1.01865 6.90625,-2.5625 2.90051,-2.94686 2.9375,-3.00763 2.9375,-5.28125 0,-1.27299 -0.26868,-3.32539 -0.625,-4.5 -0.77404,-2.55144 -0.76988,-2.34375 -0.25,-2.34375 0.23257,0 0.73292,1.12409 1.125,2.5 1.05417,3.69903 1.67597,3.95759 1.375,0.5625 -0.41171,-4.6443 -1.12471,-7.18826 -2.84375,-10.03125 -1.39968,-2.31479 -1.93563,-2.79903 -3.78125,-3.5 -1.29483,-0.49174 -2.94704,-0.7798 -4.71875,-0.8125 z" />
  </g>
</svg>
