<?xml version="1.0" encoding="UTF-8" standalone="no"?>
<!-- Created with Inkscape (http://www.inkscape.org/) -->

<svg
   xmlns:dc="http://purl.org/dc/elements/1.1/"
   xmlns:cc="http://creativecommons.org/ns#"
   xmlns:rdf="http://www.w3.org/1999/02/22-rdf-syntax-ns#"
   xmlns:svg="http://www.w3.org/2000/svg"
   xmlns="http://www.w3.org/2000/svg"
   xmlns:sodipodi="http://sodipodi.sourceforge.net/DTD/sodipodi-0.dtd"
   xmlns:inkscape="http://www.inkscape.org/namespaces/inkscape"
   width="800"
   height="700"
   id="svg2"
   version="1.1"
   inkscape:version="0.48.2 r9819"
   sodipodi:docname="f17.svg">
  <defs
     id="defs4" />
  <sodipodi:namedview
     id="base"
     pagecolor="#ffffff"
     bordercolor="#666666"
     borderopacity="1.0"
     inkscape:pageopacity="0.0"
     inkscape:pageshadow="2"
     inkscape:zoom="3.5355339"
     inkscape:cx="108.94915"
     inkscape:cy="200.37869"
     inkscape:document-units="px"
     inkscape:current-layer="layer1"
     showgrid="false"
     showguides="true"
     inkscape:guide-bbox="true"
     inkscape:window-width="1366"
     inkscape:window-height="746"
     inkscape:window-x="-8"
     inkscape:window-y="-8"
     inkscape:window-maximized="1"
     width="0px"
     height="0px"
     fit-margin-top="0"
     fit-margin-left="0"
     fit-margin-right="0"
     fit-margin-bottom="0">
    <sodipodi:guide
       orientation="1,0"
       position="400.22244,349.31075"
       id="guide3178" />
    <sodipodi:guide
       orientation="0,1"
       position="400.22244,349.31075"
       id="guide3180" />
  </sodipodi:namedview>
  <metadata
     id="metadata7">
    <rdf:RDF>
      <cc:Work
         rdf:about="">
        <dc:format>image/svg+xml</dc:format>
        <dc:type
           rdf:resource="http://purl.org/dc/dcmitype/StillImage" />
        <dc:title></dc:title>
      </cc:Work>
    </rdf:RDF>
  </metadata>
  <g
     inkscape:label="Layer 1"
     inkscape:groupmode="layer"
     id="layer1"
     transform="translate(0,-352.36218)">
    <path
       style="fill:#ff0000"
       d="m 39.5,836.48718 c 1.77171,0.0327 3.42392,0.32076 4.71875,0.8125 1.84562,0.70097 2.38157,1.18521 3.78125,3.5 1.71904,2.84299 2.43204,5.38695 2.84375,10.03125 0.30097,3.39509 -0.32083,3.13653 -1.375,-0.5625 -0.39208,-1.37591 -0.89243,-2.5 -1.125,-2.5 -0.51988,0 -0.52404,-0.20769 0.25,2.34375 0.35632,1.17461 0.625,3.22701 0.625,4.5 0,2.27362 -0.03699,2.33439 -2.9375,5.28125 -3.52484,3.58115 -5.01102,4.1445 -6.90625,2.5625 -0.69045,-0.57639 -1.84322,-1.3653 -2.59375,-1.75 -1.08036,-0.55384 -1.42755,-1.07214 -1.59375,-2.375 -0.11547,-0.90502 -0.05752,-1.79808 0.125,-2 0.31948,-0.35324 -0.23631,-3.10382 -0.8125,-4 -0.15384,-0.23922 -0.36906,0.97752 -0.5,2.65625 -0.2757,3.53389 -1.20403,5.05213 -4.40625,7.40625 -1.10875,0.8151 -2.2669,1.47422 -2.59375,1.46875 -0.60121,-0.0101 -3.47422,-1.28423 -3.875,-1.71875 -0.11965,-0.12977 -1.12232,-0.65643 -2.25,-1.1875 -1.8752,-0.88277 -2.14711,-1.16239 -2.78125,-3.34375 -0.38135,-1.31178 -0.67836,-3.38582 -0.6875,-4.59375 -0.0131,-1.6878 -0.16857,-2.1875 -0.6875,-2.1875 -0.57642,0 -0.60411,0.49792 -0.375,3.46875 0.26418,3.42567 -0.24979,4.81348 -0.78125,2.15625 -0.60435,-3.02174 -0.25193,-7.42798 0.8125,-10.5625 0.58237,-1.71523 1.11189,-3.59294 1.1875,-4.1875 0.2393,-1.88209 3.00147,-3.01126 8.6875,-3.53125 2.71509,-0.24826 6.17724,-0.71762 7.6875,-1.0625 1.89609,-0.43268 3.79081,-0.65766 5.5625,-0.625 z"
       id="rect3206" />
  </g>
</svg>
