<?xml version="1.0" encoding="UTF-8" standalone="no"?>
<!-- Created with Inkscape (http://www.inkscape.org/) -->

<svg
   xmlns:dc="http://purl.org/dc/elements/1.1/"
   xmlns:cc="http://creativecommons.org/ns#"
   xmlns:rdf="http://www.w3.org/1999/02/22-rdf-syntax-ns#"
   xmlns:svg="http://www.w3.org/2000/svg"
   xmlns="http://www.w3.org/2000/svg"
   xmlns:sodipodi="http://sodipodi.sourceforge.net/DTD/sodipodi-0.dtd"
   xmlns:inkscape="http://www.inkscape.org/namespaces/inkscape"
   width="800"
   height="400"
   id="svg2"
   version="1.1"
   inkscape:version="0.48.2 r9819"
   sodipodi:docname="mg.svg">
  <defs
     id="defs4" />
  <sodipodi:namedview
     id="base"
     pagecolor="#ffffff"
     bordercolor="#666666"
     borderopacity="1.0"
     inkscape:pageopacity="0.0"
     inkscape:pageshadow="2"
     inkscape:zoom="2.8284271"
     inkscape:cx="503.56353"
     inkscape:cy="325.7559"
     inkscape:document-units="px"
     inkscape:current-layer="layer1"
     showgrid="false"
     showguides="true"
     inkscape:guide-bbox="true"
     inkscape:window-width="1366"
     inkscape:window-height="746"
     inkscape:window-x="-8"
     inkscape:window-y="-8"
     inkscape:window-maximized="1"
     width="0px"
     height="0px"
     fit-margin-top="0"
     fit-margin-left="0"
     fit-margin-right="0"
     fit-margin-bottom="0">
    <sodipodi:guide
       orientation="1,0"
       position="400.22244,349.31075"
       id="guide3178" />
  </sodipodi:namedview>
  <metadata
     id="metadata7">
    <rdf:RDF>
      <cc:Work
         rdf:about="">
        <dc:format>image/svg+xml</dc:format>
        <dc:type
           rdf:resource="http://purl.org/dc/dcmitype/StillImage" />
        <dc:title></dc:title>
        <cc:license
           rdf:resource="" />
      </cc:Work>
    </rdf:RDF>
  </metadata>
  <g
     inkscape:label="Layer 1"
     inkscape:groupmode="layer"
     id="layer1"
     transform="translate(0,-652.36218)">
    <path
       id="rect3078"
       transform="translate(0,652.36218)"
       style="fill:#ff0000"
       d="m 504.5625,10.46875 c -2.54506,-0.01608 -4.8259,1.71474 -6.21875,4.875 -0.79063,1.79385 -2.31974,5.27601 -3.40625,7.71875 -3.19062,7.17324 -5.40082,20.14976 -6.125,36 -0.60148,13.16499 -1.01295,15.76786 -3.78125,23.40625 -4.62451,12.76004 -2.7077,18.81807 8.9375,28.1875 5.338,4.29481 7.92844,4.09632 13.46875,-0.96875 6.20797,-5.67544 8.22645,-9.23327 8.28125,-14.5625 0.0457,-4.44477 -3.57342,-16.70093 -6.75,-22.84375 -1.46862,-2.84001 -1.58068,-5.69354 -1.03125,-24.5 0.34196,-11.705 0.87849,-24.49231 1.21875,-28.40625 0.60728,-6.98537 0.58343,-7.1184 -1.96875,-8.28125 -0.88409,-0.402815 -1.77665,-0.619641 -2.625,-0.625 z m -0.125,1.9375 c 0.55644,-0.126333 0.98528,0.20403 1.71875,0.9375 1.38753,1.38752 1.4733,2.48365 0.5,8.375 -0.98852,5.98348 -1.6732,20.1798 -1.96875,41.09375 -0.0891,6.30229 -0.2034,6.64901 -2,5.6875 -2.62384,-1.40424 -5.01341,-1.29939 -8.34375,0.4375 -1.55484,0.81091 -2.97813,1.5 -3.1875,1.5 -1.54407,0 2.38347,-31.78843 5.125,-41.46875 0.84554,-2.98557 1.90772,-6.93156 2.375,-8.78125 0.46728,-1.84968 1.98357,-4.51481 3.375,-5.90625 1.16435,-1.16434 1.84981,-1.748667 2.40625,-1.875 z m -5.125,58.375 c 0.98916,-0.02762 1.95417,0.278555 3.53125,0.9375 2.67665,1.11838 3.79315,2.38074 4.71875,5.28125 0.66637,2.08815 1.76364,5.12151 2.4375,6.75 0.67386,1.62849 1.72463,4.20043 2.34375,5.71875 2.52868,6.20138 0.8718,10.73734 -6.25,17.21875 -2.53282,2.30507 -5.17026,4.21875 -5.875,4.21875 -2.11506,0 -8.69729,-5.77497 -11.625,-10.1875 -3.17396,-4.78369 -3.4623,-8.57785 -1.15625,-15.84375 2.78894,-8.78744 4.32144,-11.18005 8.21875,-12.9375 1.66184,-0.74938 2.66709,-1.128629 3.65625,-1.15625 z" />
  </g>
</svg>
