<?xml version="1.0" encoding="UTF-8" standalone="no"?>
<!-- Created with Inkscape (http://www.inkscape.org/) -->

<svg
   xmlns:dc="http://purl.org/dc/elements/1.1/"
   xmlns:cc="http://creativecommons.org/ns#"
   xmlns:rdf="http://www.w3.org/1999/02/22-rdf-syntax-ns#"
   xmlns:svg="http://www.w3.org/2000/svg"
   xmlns="http://www.w3.org/2000/svg"
   xmlns:sodipodi="http://sodipodi.sourceforge.net/DTD/sodipodi-0.dtd"
   xmlns:inkscape="http://www.inkscape.org/namespaces/inkscape"
   width="800"
   height="400"
   id="svg2"
   version="1.1"
   inkscape:version="0.48.2 r9819"
   sodipodi:docname="fh.svg">
  <defs
     id="defs4" />
  <sodipodi:namedview
     id="base"
     pagecolor="#ffffff"
     bordercolor="#666666"
     borderopacity="1.0"
     inkscape:pageopacity="0.0"
     inkscape:pageshadow="2"
     inkscape:zoom="2.8284271"
     inkscape:cx="503.56353"
     inkscape:cy="277.66712"
     inkscape:document-units="px"
     inkscape:current-layer="layer1"
     showgrid="false"
     showguides="true"
     inkscape:guide-bbox="true"
     inkscape:window-width="1366"
     inkscape:window-height="746"
     inkscape:window-x="-8"
     inkscape:window-y="-8"
     inkscape:window-maximized="1"
     width="0px"
     height="0px"
     fit-margin-top="0"
     fit-margin-left="0"
     fit-margin-right="0"
     fit-margin-bottom="0">
    <sodipodi:guide
       orientation="1,0"
       position="400.22244,349.31075"
       id="guide3178" />
  </sodipodi:namedview>
  <metadata
     id="metadata7">
    <rdf:RDF>
      <cc:Work
         rdf:about="">
        <dc:format>image/svg+xml</dc:format>
        <dc:type
           rdf:resource="http://purl.org/dc/dcmitype/StillImage" />
        <dc:title></dc:title>
        <cc:license
           rdf:resource="" />
      </cc:Work>
    </rdf:RDF>
  </metadata>
  <g
     inkscape:label="Layer 1"
     inkscape:groupmode="layer"
     id="layer1"
     transform="translate(0,-652.36218)">
    <path
       id="rect3082"
       transform="translate(0,652.36218)"
       style="fill:#ff0000"
       d="m 500.8125,127.65625 c -2.96793,0 -11.91498,6.29309 -14.625,10.28125 -3.22085,4.7399 -2.89691,10.72251 1,18.6875 2.07421,4.23953 3.55042,5.85405 6.8125,7.46875 5.75159,2.847 7.61104,2.63285 13.375,-1.625 5.20487,-3.84484 6.42456,-5.69149 8.6875,-13 1.26807,-4.09545 1.20314,-4.5786 -1.03125,-8.375 -2.94851,-5.00973 -11.85566,-13.4375 -14.21875,-13.4375 z m 0.28125,1.71875 5.59375,6.0625 c 8.28526,9.00821 8.66105,10.45512 4.65625,17.9375 -1.93103,3.60783 -4.7316,7.09368 -6.75,8.46875 -4.06009,2.76598 -3.51685,2.76096 -8.09375,0.34375 -5.83067,-3.07939 -10.65625,-11.43693 -10.65625,-18.4375 0,-2.46474 5.00696,-7.82354 10.8125,-11.53125 l 4.4375,-2.84375 z" />
  </g>
</svg>
