<?xml version="1.0" encoding="UTF-8" standalone="no"?>
<!-- Created with Inkscape (http://www.inkscape.org/) -->

<svg
   xmlns:dc="http://purl.org/dc/elements/1.1/"
   xmlns:cc="http://creativecommons.org/ns#"
   xmlns:rdf="http://www.w3.org/1999/02/22-rdf-syntax-ns#"
   xmlns:svg="http://www.w3.org/2000/svg"
   xmlns="http://www.w3.org/2000/svg"
   xmlns:sodipodi="http://sodipodi.sourceforge.net/DTD/sodipodi-0.dtd"
   xmlns:inkscape="http://www.inkscape.org/namespaces/inkscape"
   width="800"
   height="400"
   id="svg2"
   version="1.1"
   inkscape:version="0.48.2 r9819"
   sodipodi:docname="fc.svg">
  <defs
     id="defs4" />
  <sodipodi:namedview
     id="base"
     pagecolor="#ffffff"
     bordercolor="#666666"
     borderopacity="1.0"
     inkscape:pageopacity="0.0"
     inkscape:pageshadow="2"
     inkscape:zoom="4"
     inkscape:cx="361.24328"
     inkscape:cy="321.77732"
     inkscape:document-units="px"
     inkscape:current-layer="layer1"
     showgrid="false"
     showguides="true"
     inkscape:guide-bbox="true"
     inkscape:window-width="1366"
     inkscape:window-height="746"
     inkscape:window-x="-8"
     inkscape:window-y="-8"
     inkscape:window-maximized="1"
     width="0px"
     height="0px"
     fit-margin-top="0"
     fit-margin-left="0"
     fit-margin-right="0"
     fit-margin-bottom="0">
    <sodipodi:guide
       orientation="1,0"
       position="400.22244,349.31075"
       id="guide3178" />
  </sodipodi:namedview>
  <metadata
     id="metadata7">
    <rdf:RDF>
      <cc:Work
         rdf:about="">
        <dc:format>image/svg+xml</dc:format>
        <dc:type
           rdf:resource="http://purl.org/dc/dcmitype/StillImage" />
        <dc:title></dc:title>
        <cc:license
           rdf:resource="" />
      </cc:Work>
    </rdf:RDF>
  </metadata>
  <g
     inkscape:label="Layer 1"
     inkscape:groupmode="layer"
     id="layer1"
     transform="translate(0,-652.36218)">
    <path
       id="rect3030"
       transform="translate(0,652.36218)"
       style="fill:#ff0000"
       d="m 305.375,12.375 c -0.60212,-0.02851 -1.11708,0.394415 -2.0625,1.25 -3.29497,2.98191 -4.1414,7.19768 -3.03125,15.375 3.09082,22.76694 3.28395,25.79497 2.0625,35.375 -0.66573,5.22143 -2.02523,11.29742 -3.03125,13.46875 -1.00601,2.17132 -2.2917,5.70368 -2.84375,7.875 -0.55205,2.17133 -1.5169,6.03698 -2.15625,8.59375 -0.63935,2.55678 -0.86604,6.26753 -0.5,8.21875 0.7344,3.91463 5.99769,9.61652 10.90625,11.8125 1.6285,0.72855 4.91152,1.36195 7.28125,1.40625 3.85342,0.072 4.72072,-0.37355 8.15625,-4.125 2.11276,-2.30703 4.05749,-5.07059 4.34375,-6.15625 0.28628,-1.08567 1.0141,-3.65132 1.625,-5.6875 0.93556,-3.11829 0.77861,-4.9863 -1.125,-11.84375 -1.58716,-5.71751 -2.51365,-12.54072 -3.0625,-22.9375 -0.73693,-13.95964 -1.27825,-17.53903 -5.28125,-34.53125 -1.89552,-8.0462 -4.89798,-13.81504 -8.6875,-16.625 C 306.67172,12.882 305.97712,12.403506 305.375,12.375 z m -0.0625,3.25 c 2.32941,-0.584004 8.16837,9.608705 9.1875,16.25 0.37073,2.41581 1.04964,4.86774 1.5,5.4375 0.45036,0.56976 1.04863,3.2546 1.34375,5.96875 0.29511,2.71416 1.03987,8.72868 1.65625,13.375 0.61637,4.64632 1.00805,11.29175 0.84375,14.75 l -0.3125,6.28125 -3.125,-3.125 C 312.9316,71.08004 309.79853,70.58019 306.34375,73 l -2.28125,1.59375 0.71875,-5.78125 c 1.15385,-9.10863 0.81579,-21.49626 -0.96875,-34.96875 -1.61908,-12.22347 -1.3121,-16.52223 1.28125,-18.125 0.0675,-0.04175 0.14361,-0.07491 0.21875,-0.09375 z m 5.25,59.0625 c 1.12936,-0.05726 2.09993,0.466862 4.03125,1.78125 1.89368,1.28878 4.14365,3.68401 5,5.3125 0.85635,1.62849 2.20213,4.08042 2.96875,5.4375 1.50001,2.65532 1.7658,7.13638 0.78125,13.09375 -0.42514,2.57243 -2.04491,5.24443 -5.21875,8.625 -2.53236,2.69729 -5.08623,4.90625 -5.65625,4.90625 -2.30274,0 -10.88767,-5.23576 -13.40625,-8.1875 -3.2916,-3.8577 -3.38922,-6.86528 -0.59375,-15.96875 2.51121,-8.17776 5.48319,-12.58396 9.65625,-14.3125 1.01902,-0.422096 1.75989,-0.653146 2.4375,-0.6875 z" />
  </g>
</svg>
