<?xml version="1.0" encoding="UTF-8" standalone="no"?>
<!-- Created with Inkscape (http://www.inkscape.org/) -->

<svg
   xmlns:dc="http://purl.org/dc/elements/1.1/"
   xmlns:cc="http://creativecommons.org/ns#"
   xmlns:rdf="http://www.w3.org/1999/02/22-rdf-syntax-ns#"
   xmlns:svg="http://www.w3.org/2000/svg"
   xmlns="http://www.w3.org/2000/svg"
   xmlns:sodipodi="http://sodipodi.sourceforge.net/DTD/sodipodi-0.dtd"
   xmlns:inkscape="http://www.inkscape.org/namespaces/inkscape"
   width="800"
   height="400"
   id="svg2"
   version="1.1"
   inkscape:version="0.48.2 r9819"
   sodipodi:docname="fc.svg">
  <defs
     id="defs4" />
  <sodipodi:namedview
     id="base"
     pagecolor="#ffffff"
     bordercolor="#666666"
     borderopacity="1.0"
     inkscape:pageopacity="0.0"
     inkscape:pageshadow="2"
     inkscape:zoom="4"
     inkscape:cx="361.24328"
     inkscape:cy="231.77732"
     inkscape:document-units="px"
     inkscape:current-layer="layer1"
     showgrid="false"
     showguides="true"
     inkscape:guide-bbox="true"
     inkscape:window-width="1366"
     inkscape:window-height="746"
     inkscape:window-x="-8"
     inkscape:window-y="-8"
     inkscape:window-maximized="1"
     width="0px"
     height="0px"
     fit-margin-top="0"
     fit-margin-left="0"
     fit-margin-right="0"
     fit-margin-bottom="0">
    <sodipodi:guide
       orientation="1,0"
       position="400.22244,349.31075"
       id="guide3178" />
  </sodipodi:namedview>
  <metadata
     id="metadata7">
    <rdf:RDF>
      <cc:Work
         rdf:about="">
        <dc:format>image/svg+xml</dc:format>
        <dc:type
           rdf:resource="http://purl.org/dc/dcmitype/StillImage" />
        <dc:title></dc:title>
        <cc:license
           rdf:resource="" />
      </cc:Work>
    </rdf:RDF>
  </metadata>
  <g
     inkscape:label="Layer 1"
     inkscape:groupmode="layer"
     id="layer1"
     transform="translate(0,-652.36218)">
    <path
       id="rect3035"
       transform="translate(0,652.36218)"
       style="fill:#ff0000"
       d="m 307.96875,132.96875 c -1.1896,0.0624 -2.2448,0.25073 -3.0625,0.5625 -5.592,2.13211 -11.53125,11.09664 -11.53125,17.40625 0,6.05099 6.27761,15.94082 11.625,18.34375 2.02441,0.90969 4.342,1.69045 5.15625,1.71875 2.26925,0.079 9.17431,-3.34422 10.96875,-5.4375 1.97125,-2.29956 6.78125,-15.6751 6.78125,-18.84375 0,-3.50747 -4.32653,-9.66462 -8.03125,-11.40625 -3.50822,-1.64925 -8.33746,-2.5309 -11.90625,-2.34375 z m 1.84375,2.9375 c 1.4058,0.0233 3.05535,0.75789 6.53125,2.5 3.38314,1.69561 6.91579,4.14048 7.84375,5.4375 1.61446,2.25654 1.57723,2.64099 -0.90625,9.125 -1.42746,3.72687 -3.25771,7.80985 -4.0625,9.0625 -1.80907,2.81578 -8.06269,6.07735 -10.0625,5.25 -6.38223,-2.64043 -13.24254,-11.37578 -13.09375,-16.625 0.11196,-3.94947 6.65409,-12.24183 11.125,-14.09375 1.01411,-0.42006 1.78152,-0.67023 2.625,-0.65625 z" />
  </g>
</svg>
