<?xml version="1.0" encoding="UTF-8" standalone="no"?>
<!-- Created with Inkscape (http://www.inkscape.org/) -->

<svg
   xmlns:dc="http://purl.org/dc/elements/1.1/"
   xmlns:cc="http://creativecommons.org/ns#"
   xmlns:rdf="http://www.w3.org/1999/02/22-rdf-syntax-ns#"
   xmlns:svg="http://www.w3.org/2000/svg"
   xmlns="http://www.w3.org/2000/svg"
   xmlns:sodipodi="http://sodipodi.sourceforge.net/DTD/sodipodi-0.dtd"
   xmlns:inkscape="http://www.inkscape.org/namespaces/inkscape"
   width="800"
   height="700"
   id="svg2"
   version="1.1"
   inkscape:version="0.48.2 r9819"
   sodipodi:docname="f31-fill.svg">
  <defs
     id="defs4" />
  <sodipodi:namedview
     id="base"
     pagecolor="#ffffff"
     bordercolor="#666666"
     borderopacity="1.0"
     inkscape:pageopacity="0.0"
     inkscape:pageshadow="2"
     inkscape:zoom="5"
     inkscape:cx="720.04341"
     inkscape:cy="224.69704"
     inkscape:document-units="px"
     inkscape:current-layer="layer1"
     showgrid="false"
     showguides="true"
     inkscape:guide-bbox="true"
     inkscape:window-width="1024"
     inkscape:window-height="538"
     inkscape:window-x="-8"
     inkscape:window-y="-8"
     inkscape:window-maximized="1"
     width="0px"
     height="0px"
     fit-margin-top="0"
     fit-margin-left="0"
     fit-margin-right="0"
     fit-margin-bottom="0">
    <sodipodi:guide
       orientation="1,0"
       position="400.22244,349.31075"
       id="guide3178" />
    <sodipodi:guide
       orientation="0,1"
       position="400.22244,349.31075"
       id="guide3180" />
  </sodipodi:namedview>
  <metadata
     id="metadata7">
    <rdf:RDF>
      <cc:Work
         rdf:about="">
        <dc:format>image/svg+xml</dc:format>
        <dc:type
           rdf:resource="http://purl.org/dc/dcmitype/StillImage" />
        <dc:title />
      </cc:Work>
    </rdf:RDF>
  </metadata>
  <g
     inkscape:label="Layer 1"
     inkscape:groupmode="layer"
     id="layer1"
     transform="translate(0,-352.36218)">
    <path
       id="rect4674"
       transform="translate(0,352.36218)"
       style="fill:#00ff00"
       d="m 721.1875,475.90625 c -0.41114,0.007 -0.83831,0.028 -1.21875,0.0625 -6.68462,0.60718 -11.06779,1.15504 -11.71875,1.40625 -2.4287,0.93713 -4.40133,12.90434 -3.03125,18.3125 0.55995,2.2102 0.60196,2.27743 3.75,3.8125 3.6142,1.76236 3.99369,1.74719 6.46875,-0.625 0.93223,-0.89354 2.18951,-1.90221 2.8125,-2.21875 0.62298,-0.31665 1.8672,-1.32552 2.75,-2.28125 1.79445,-1.94274 2.54108,-1.88819 1.5,0.125 -0.3765,0.72809 -0.71875,1.3872 -0.71875,1.5 0,0.11312 1.52984,0.93663 3.375,1.8125 1.84523,0.87584 4.00615,2.16691 4.8125,2.875 1.84243,1.61757 2.71853,1.38925 5.21875,-1.3125 4.2773,-4.62161 4.67735,-9.08373 1.59375,-17.9375 -0.78031,-2.24047 -1.15088,-2.45173 -7.8125,-4.0625 -1.67485,-0.40506 -3.7855,-0.93579 -4.65625,-1.1875 -0.65308,-0.18865 -1.89156,-0.30175 -3.125,-0.28125 z m 17.125,3.40625 c -1.13432,0 -1.09963,0.43541 0.4375,3.9375 1.11673,2.54423 1.29745,3.46089 1.28125,6.5625 -0.0173,3.3528 -0.28981,5.41797 -1.09375,8.1875 l -0.3125,1.125 1.1875,-1.125 c 0.66516,-0.59815 1.58952,-1.85536 2.03125,-2.8125 1.29893,-2.81445 1.02858,-5.85721 -1.125,-12.15625 -1.06799,-3.12387 -1.44571,-3.71875 -2.40625,-3.71875 z m -33.84375,3.03125 c -0.75814,0 -3.32872,6.26611 -2.875,7 0.12061,0.1951 0.0305,0.45901 -0.1875,0.59375 -0.54543,0.33707 0.97469,7.22375 1.59375,7.21875 0.16987,-0.001 0.35225,-2.74478 0.40625,-6.09375 0.0726,-4.49388 0.25247,-6.444 0.75,-7.40625 0.3709,-0.71711 0.52029,-1.3125 0.3125,-1.3125 z" />
  </g>
</svg>
