<?xml version="1.0" encoding="UTF-8" standalone="no"?>
<!-- Created with Inkscape (http://www.inkscape.org/) -->

<svg
   xmlns:dc="http://purl.org/dc/elements/1.1/"
   xmlns:cc="http://creativecommons.org/ns#"
   xmlns:rdf="http://www.w3.org/1999/02/22-rdf-syntax-ns#"
   xmlns:svg="http://www.w3.org/2000/svg"
   xmlns="http://www.w3.org/2000/svg"
   xmlns:sodipodi="http://sodipodi.sourceforge.net/DTD/sodipodi-0.dtd"
   xmlns:inkscape="http://www.inkscape.org/namespaces/inkscape"
   width="800"
   height="700"
   id="svg2"
   version="1.1"
   inkscape:version="0.48.2 r9819"
   sodipodi:docname="f31.svg">
  <defs
     id="defs4" />
  <sodipodi:namedview
     id="base"
     pagecolor="#ffffff"
     bordercolor="#666666"
     borderopacity="1.0"
     inkscape:pageopacity="0.0"
     inkscape:pageshadow="2"
     inkscape:zoom="5"
     inkscape:cx="720.04341"
     inkscape:cy="229.62435"
     inkscape:document-units="px"
     inkscape:current-layer="layer1"
     showgrid="false"
     showguides="true"
     inkscape:guide-bbox="true"
     inkscape:window-width="1366"
     inkscape:window-height="746"
     inkscape:window-x="-8"
     inkscape:window-y="-8"
     inkscape:window-maximized="1"
     width="0px"
     height="0px"
     fit-margin-top="0"
     fit-margin-left="0"
     fit-margin-right="0"
     fit-margin-bottom="0">
    <sodipodi:guide
       orientation="1,0"
       position="400.22244,349.31075"
       id="guide3178" />
    <sodipodi:guide
       orientation="0,1"
       position="400.22244,349.31075"
       id="guide3180" />
  </sodipodi:namedview>
  <metadata
     id="metadata7">
    <rdf:RDF>
      <cc:Work
         rdf:about="">
        <dc:format>image/svg+xml</dc:format>
        <dc:type
           rdf:resource="http://purl.org/dc/dcmitype/StillImage" />
        <dc:title></dc:title>
      </cc:Work>
    </rdf:RDF>
  </metadata>
  <g
     inkscape:label="Layer 1"
     inkscape:groupmode="layer"
     id="layer1"
     transform="translate(0,-352.36218)">
    <path
       style="fill:#ff0000"
       d="m 721.1875,828.26843 c 1.23344,-0.0205 2.47192,0.0926 3.125,0.28125 0.87075,0.25171 2.9814,0.78244 4.65625,1.1875 6.66162,1.61077 7.03219,1.82203 7.8125,4.0625 3.0836,8.85377 2.68355,13.31589 -1.59375,17.9375 -2.50022,2.70175 -3.37632,2.93007 -5.21875,1.3125 -0.80635,-0.70809 -2.96727,-1.99916 -4.8125,-2.875 -1.84516,-0.87587 -3.375,-1.69938 -3.375,-1.8125 0,-0.1128 0.34225,-0.77191 0.71875,-1.5 1.04108,-2.01319 0.29445,-2.06774 -1.5,-0.125 -0.8828,0.95573 -2.12702,1.9646 -2.75,2.28125 -0.62299,0.31654 -1.88027,1.32521 -2.8125,2.21875 -2.47506,2.37219 -2.85455,2.38736 -6.46875,0.625 -3.14804,-1.53507 -3.19005,-1.6023 -3.75,-3.8125 -1.37008,-5.40816 0.60255,-17.37537 3.03125,-18.3125 0.65096,-0.25121 5.03413,-0.79907 11.71875,-1.40625 0.38044,-0.0345 0.80761,-0.0556 1.21875,-0.0625 z"
       id="path3097" />
    <path
       style="fill:#ff0000"
       d="m 738.3125,831.67468 c 0.96054,0 1.33826,0.59488 2.40625,3.71875 2.15358,6.29904 2.42393,9.3418 1.125,12.15625 -0.44173,0.95714 -1.36609,2.21435 -2.03125,2.8125 l -1.1875,1.125 0.3125,-1.125 c 0.80394,-2.76953 1.07649,-4.8347 1.09375,-8.1875 0.0162,-3.10161 -0.16452,-4.01827 -1.28125,-6.5625 -1.53713,-3.50209 -1.57182,-3.9375 -0.4375,-3.9375 z"
       id="path3095" />
    <path
       style="fill:#ff0000"
       d="m 704.46875,834.70593 c 0.20779,0 0.0584,0.59539 -0.3125,1.3125 -0.49753,0.96225 -0.67743,2.91237 -0.75,7.40625 -0.054,3.34897 -0.23638,6.09243 -0.40625,6.09375 -0.61906,0.005 -2.13918,-6.88168 -1.59375,-7.21875 0.21805,-0.13474 0.30811,-0.39865 0.1875,-0.59375 -0.45372,-0.73389 2.11686,-7 2.875,-7 z"
       id="rect3384" />
  </g>
</svg>
