<?xml version="1.0" encoding="UTF-8" standalone="no"?>
<!-- Created with Inkscape (http://www.inkscape.org/) -->

<svg
   xmlns:dc="http://purl.org/dc/elements/1.1/"
   xmlns:cc="http://creativecommons.org/ns#"
   xmlns:rdf="http://www.w3.org/1999/02/22-rdf-syntax-ns#"
   xmlns:svg="http://www.w3.org/2000/svg"
   xmlns="http://www.w3.org/2000/svg"
   xmlns:sodipodi="http://sodipodi.sourceforge.net/DTD/sodipodi-0.dtd"
   xmlns:inkscape="http://www.inkscape.org/namespaces/inkscape"
   width="800"
   height="700"
   id="svg2"
   version="1.1"
   inkscape:version="0.48.2 r9819"
   sodipodi:docname="f9.svg">
  <defs
     id="defs4" />
  <sodipodi:namedview
     id="base"
     pagecolor="#ffffff"
     bordercolor="#666666"
     borderopacity="1.0"
     inkscape:pageopacity="0.0"
     inkscape:pageshadow="2"
     inkscape:zoom="3.5355339"
     inkscape:cx="449.71075"
     inkscape:cy="611.16079"
     inkscape:document-units="px"
     inkscape:current-layer="layer1"
     showgrid="false"
     showguides="true"
     inkscape:guide-bbox="true"
     inkscape:window-width="1366"
     inkscape:window-height="746"
     inkscape:window-x="-8"
     inkscape:window-y="-8"
     inkscape:window-maximized="1"
     width="0px"
     height="0px"
     fit-margin-top="0"
     fit-margin-left="0"
     fit-margin-right="0"
     fit-margin-bottom="0">
    <sodipodi:guide
       orientation="1,0"
       position="400.22244,349.31075"
       id="guide3178" />
    <sodipodi:guide
       orientation="0,1"
       position="400.22244,349.31075"
       id="guide3180" />
  </sodipodi:namedview>
  <metadata
     id="metadata7">
    <rdf:RDF>
      <cc:Work
         rdf:about="">
        <dc:format>image/svg+xml</dc:format>
        <dc:type
           rdf:resource="http://purl.org/dc/dcmitype/StillImage" />
        <dc:title></dc:title>
      </cc:Work>
    </rdf:RDF>
  </metadata>
  <g
     inkscape:label="Layer 1"
     inkscape:groupmode="layer"
     id="layer1"
     transform="translate(0,-352.36218)">
    <path
       style="fill:#ff0000"
       d="m 424.78125,444.67468 c 0.25801,-0.0128 0.49481,-0.007 0.75,0 1.70129,0.0449 3.33214,0.52965 5.25,1.5 4.03008,2.039 6.58208,6.14111 7.96875,12.875 0.28245,1.37165 1.23807,4.22687 2.15625,6.34375 2.76886,6.384 4.51309,12.55688 4.25,15.09375 -0.41748,4.02481 -1.32528,5.10269 -5.28125,6.15625 -2.29521,0.61128 -6.07565,0.63971 -11.53125,0.125 -1.79448,-0.16929 -6.32054,-0.31236 -10.0625,-0.34375 -9.18345,-0.0767 -8.89632,0.17227 -8.8125,-7.3125 0.0741,-6.59991 0.58125,-10.57084 2.375,-18.21875 2.07704,-8.85594 2.33922,-9.467 5.34375,-12.53125 2.29669,-2.34234 3.05691,-2.80888 5.15625,-3.3125 0.86895,-0.20851 1.66343,-0.33676 2.4375,-0.375 z"
       id="rect3110" />
  </g>
</svg>
