<?xml version="1.0" encoding="UTF-8" standalone="no"?>
<!-- Created with Inkscape (http://www.inkscape.org/) -->

<svg
   xmlns:dc="http://purl.org/dc/elements/1.1/"
   xmlns:cc="http://creativecommons.org/ns#"
   xmlns:rdf="http://www.w3.org/1999/02/22-rdf-syntax-ns#"
   xmlns:svg="http://www.w3.org/2000/svg"
   xmlns="http://www.w3.org/2000/svg"
   xmlns:sodipodi="http://sodipodi.sourceforge.net/DTD/sodipodi-0.dtd"
   xmlns:inkscape="http://www.inkscape.org/namespaces/inkscape"
   width="800"
   height="700"
   id="svg2"
   version="1.1"
   inkscape:version="0.48.2 r9819"
   sodipodi:docname="f9-fill.svg">
  <defs
     id="defs4" />
  <sodipodi:namedview
     id="base"
     pagecolor="#ffffff"
     bordercolor="#666666"
     borderopacity="1.0"
     inkscape:pageopacity="0.0"
     inkscape:pageshadow="2"
     inkscape:zoom="3.5355339"
     inkscape:cx="449.71075"
     inkscape:cy="588.53337"
     inkscape:document-units="px"
     inkscape:current-layer="layer1"
     showgrid="false"
     showguides="true"
     inkscape:guide-bbox="true"
     inkscape:window-width="1024"
     inkscape:window-height="538"
     inkscape:window-x="-8"
     inkscape:window-y="-8"
     inkscape:window-maximized="1"
     width="0px"
     height="0px"
     fit-margin-top="0"
     fit-margin-left="0"
     fit-margin-right="0"
     fit-margin-bottom="0">
    <sodipodi:guide
       orientation="1,0"
       position="400.22244,349.31075"
       id="guide3178" />
    <sodipodi:guide
       orientation="0,1"
       position="400.22244,349.31075"
       id="guide3180" />
  </sodipodi:namedview>
  <metadata
     id="metadata7">
    <rdf:RDF>
      <cc:Work
         rdf:about="">
        <dc:format>image/svg+xml</dc:format>
        <dc:type
           rdf:resource="http://purl.org/dc/dcmitype/StillImage" />
        <dc:title />
      </cc:Work>
    </rdf:RDF>
  </metadata>
  <g
     inkscape:label="Layer 1"
     inkscape:groupmode="layer"
     id="layer1"
     transform="translate(0,-352.36218)">
    <path
       id="rect3622"
       transform="translate(0,352.36218)"
       style="fill:#00ff00"
       d="m 424.78125,92.3125 c -0.77407,0.03824 -1.56855,0.16649 -2.4375,0.375 -2.09934,0.50362 -2.85956,0.97016 -5.15625,3.3125 -3.00453,3.06425 -3.26671,3.67531 -5.34375,12.53125 -1.79375,7.64791 -2.3009,11.61884 -2.375,18.21875 -0.0838,7.48477 -0.37095,7.2358 8.8125,7.3125 3.74196,0.0314 8.26802,0.17446 10.0625,0.34375 5.4556,0.51471 9.23604,0.48628 11.53125,-0.125 3.95597,-1.05356 4.86377,-2.13144 5.28125,-6.15625 0.26309,-2.53687 -1.48114,-8.70975 -4.25,-15.09375 -0.91818,-2.11688 -1.8738,-4.9721 -2.15625,-6.34375 -1.38667,-6.73389 -3.93867,-10.836 -7.96875,-12.875 -1.91786,-0.97035 -3.54871,-1.4551 -5.25,-1.5 -0.25519,-0.007 -0.49199,-0.0128 -0.75,0 z" />
  </g>
</svg>
