<?xml version="1.0" encoding="UTF-8" standalone="no"?>
<!-- Created with Inkscape (http://www.inkscape.org/) -->

<svg
   xmlns:dc="http://purl.org/dc/elements/1.1/"
   xmlns:cc="http://creativecommons.org/ns#"
   xmlns:rdf="http://www.w3.org/1999/02/22-rdf-syntax-ns#"
   xmlns:svg="http://www.w3.org/2000/svg"
   xmlns="http://www.w3.org/2000/svg"
   xmlns:sodipodi="http://sodipodi.sourceforge.net/DTD/sodipodi-0.dtd"
   xmlns:inkscape="http://www.inkscape.org/namespaces/inkscape"
   width="900"
   height="800"
   id="svg2"
   version="1.1"
   inkscape:version="0.48.2 r9819"
   sodipodi:docname="l8.svg">
  <defs
     id="defs4" />
  <sodipodi:namedview
     id="base"
     pagecolor="#ffffff"
     bordercolor="#666666"
     borderopacity="1.0"
     inkscape:pageopacity="0.0"
     inkscape:pageshadow="2"
     inkscape:zoom="1.4142136"
     inkscape:cx="510.20531"
     inkscape:cy="597.9668"
     inkscape:document-units="px"
     inkscape:current-layer="layer1"
     showgrid="false"
     showguides="true"
     inkscape:guide-bbox="true"
     inkscape:window-width="1366"
     inkscape:window-height="746"
     inkscape:window-x="-8"
     inkscape:window-y="-8"
     inkscape:window-maximized="1"
     width="0px"
     height="0px"
     fit-margin-top="0"
     fit-margin-left="0"
     fit-margin-right="0"
     fit-margin-bottom="0">
    <sodipodi:guide
       orientation="1,0"
       position="450,784"
       id="guide3178" />
    <sodipodi:guide
       orientation="0,1"
       position="-61,400"
       id="guide3180" />
  </sodipodi:namedview>
  <metadata
     id="metadata7">
    <rdf:RDF>
      <cc:Work
         rdf:about="">
        <dc:format>image/svg+xml</dc:format>
        <dc:type
           rdf:resource="http://purl.org/dc/dcmitype/StillImage" />
        <dc:title></dc:title>
      </cc:Work>
    </rdf:RDF>
  </metadata>
  <g
     inkscape:label="Layer 1"
     inkscape:groupmode="layer"
     id="layer1"
     transform="translate(0,-252.36218)">
    <path
       id="rect3065"
       transform="translate(0,252.36218)"
       style="fill:#ff0000"
       d="m 352.125,30.53125 c -2.23033,-0.002 -2.35811,0.07638 -3.03125,1.6875 -1.08825,2.60455 -0.89467,5.258 0.84375,10.25 L 351.53125,47 351.5,67.15625 c -0.026,15.0965 -0.29981,23.82538 -1.0625,34.6875 l -1,14.5 -2.4375,7.375 c -4.60723,14.01633 -4.685,14.38248 -4.375,17 0.39698,3.35194 1.81821,6.23947 4.28125,8.71875 1.52762,1.53772 2.49076,2.0996 3.625,2.125 0.84794,0.019 1.95905,0.23628 2.5,0.46875 0.54095,0.23247 3.82533,0.38726 7.3125,0.40625 6.55207,0.0357 12.25423,-1.02824 14.125,-2.6875 0.427,-0.37875 0.99559,-0.71875 1.28125,-0.71875 0.28572,0 0.93305,-0.56867 1.4375,-1.3125 0.76022,-1.12095 0.93738,-2.15891 0.84375,-6.03125 -0.1142,-4.72049 -0.28463,-6.14707 -2.1875,-17.25 -0.70505,-4.11364 -1.10181,-8.73452 -1.1875,-14 -0.0937,-5.75558 -0.43843,-9.11392 -1.1875,-12.53125 -0.56319,-2.56955 -1.79693,-8.54789 -2.75,-13.28125 -0.95307,-4.7334 -2.39649,-11.71327 -3.1875,-15.5 -0.79101,-3.78668 -1.65867,-8.87817 -1.96875,-11.3125 -0.96646,-7.58695 -1.83344,-11.66212 -3.40625,-15.9375 -2.02459,-5.50339 -2.21229,-5.76646 -5.125,-8.75 -2.34457,-2.40147 -2.70772,-2.5903 -4.90625,-2.59375 z m -0.71875,1.5625 c 0.482,-0.006 1.14733,0.35547 2.15625,1.125 3.94524,3.00917 7.38203,12.39877 10.3125,28.0625 0.65786,3.51623 1.73109,8.92074 2.375,12.03125 0.6439,3.1105 1.33724,7.08563 1.53125,8.84375 0.19402,1.75814 0.72421,5.10718 1.21875,7.40625 0.49453,2.29907 1.26843,6.7434 1.71875,9.90625 0.45033,3.16282 0.7779,6.08874 0.6875,6.46875 -0.10281,0.43246 -1.04081,-0.29146 -2.53125,-1.9375 -2.29329,-2.53288 -2.49557,-2.62843 -4.9375,-2.625 -4.53331,0.005 -8.25017,0.84038 -9.65625,2.1875 -0.7128,0.68291 -1.42226,1.21875 -1.59375,1.21875 -0.70535,0 -0.91959,-4.56607 -0.40625,-8.65625 0.30173,-2.40402 0.86846,-13.492 1.28125,-24.65625 0.84652,-22.89532 0.65803,-25.63253 -2.1875,-31.71875 -1.6469,-3.52245 -1.81388,-4.52374 -1.0625,-6.5 0.29933,-0.78752 0.61175,-1.14967 1.09375,-1.15625 z m 7.5625,72.46875 c 0.5518,-0.0292 1.26662,0 2.1875,0 3.37125,0 3.96569,0.15684 5.5625,1.375 3.26821,2.49323 6.63281,11.84639 8.1875,22.71875 0.30943,2.16383 0.76813,5.30495 1.03125,7 0.26318,1.69505 0.37611,4.24078 0.21875,5.65625 -0.64262,5.77834 -0.60972,5.6963 -3.09375,6.9375 -1.27218,0.63567 -3.00104,1.29865 -3.8125,1.5 -5.80482,1.4405 -15.50886,1.08484 -19.15625,-0.71875 -3.46684,-1.71428 -4.47207,-3.61851 -4.34375,-8.28125 0.11153,-4.05781 0.95708,-8.07972 3.375,-16.0625 0.90119,-2.97525 2.00902,-7.04706 2.4375,-9.09375 0.83419,-3.98466 2.09265,-6.70961 4.375,-9.375 1.04238,-1.21738 1.37584,-1.56855 3.03125,-1.65625 z" />
  </g>
</svg>
