<?xml version="1.0" encoding="UTF-8" standalone="no"?>
<!-- Created with Inkscape (http://www.inkscape.org/) -->

<svg
   xmlns:dc="http://purl.org/dc/elements/1.1/"
   xmlns:cc="http://creativecommons.org/ns#"
   xmlns:rdf="http://www.w3.org/1999/02/22-rdf-syntax-ns#"
   xmlns:svg="http://www.w3.org/2000/svg"
   xmlns="http://www.w3.org/2000/svg"
   xmlns:sodipodi="http://sodipodi.sourceforge.net/DTD/sodipodi-0.dtd"
   xmlns:inkscape="http://www.inkscape.org/namespaces/inkscape"
   width="800"
   height="400"
   id="svg2"
   version="1.1"
   inkscape:version="0.48.2 r9819"
   sodipodi:docname="f7.svg">
  <defs
     id="defs4" />
  <sodipodi:namedview
     id="base"
     pagecolor="#ffffff"
     bordercolor="#666666"
     borderopacity="1.0"
     inkscape:pageopacity="0.0"
     inkscape:pageshadow="2"
     inkscape:zoom="2"
     inkscape:cx="249.15404"
     inkscape:cy="298.31862"
     inkscape:document-units="px"
     inkscape:current-layer="layer1"
     showgrid="false"
     showguides="true"
     inkscape:guide-bbox="true"
     inkscape:window-width="1366"
     inkscape:window-height="746"
     inkscape:window-x="-8"
     inkscape:window-y="-8"
     inkscape:window-maximized="1"
     width="0px"
     height="0px"
     fit-margin-top="0"
     fit-margin-left="0"
     fit-margin-right="0"
     fit-margin-bottom="0">
    <sodipodi:guide
       orientation="1,0"
       position="400.22244,349.31075"
       id="guide3178" />
    <sodipodi:guide
       orientation="0,1"
       position="-117.37973,199.40411"
       id="guide3180" />
  </sodipodi:namedview>
  <metadata
     id="metadata7">
    <rdf:RDF>
      <cc:Work
         rdf:about="">
        <dc:format>image/svg+xml</dc:format>
        <dc:type
           rdf:resource="http://purl.org/dc/dcmitype/StillImage" />
        <dc:title></dc:title>
      </cc:Work>
    </rdf:RDF>
  </metadata>
  <g
     inkscape:label="Layer 1"
     inkscape:groupmode="layer"
     id="layer1"
     transform="translate(0,-652.36218)">
    <path
       id="rect3043"
       transform="translate(0,652.36218)"
       style="fill:#ff0000"
       d="m 314,18.71875 c -1.9729,-0.002 -2.0921,0.04353 -2.6875,1.46875 -0.9627,2.304 -0.7878,4.64656 0.75,9.0625 l 1.40625,4.03125 -0.0312,17.8125 c -0.023,13.35439 -0.23155,21.07886 -0.90625,30.6875 l -0.90625,12.8125 -2.15625,6.5625 c -4.0756,12.39886 -4.1493,12.68454 -3.875,15 0.3511,2.96512 1.60245,5.52559 3.78125,7.71875 1.3513,1.36027 2.21545,1.85254 3.21875,1.875 0.7501,0.0168 1.74015,0.20061 2.21875,0.40625 0.4785,0.20564 3.38395,0.38946 6.46875,0.40625 5.7959,0.0316 10.81395,-0.93846 12.46875,-2.40625 0.3778,-0.33504 0.90365,-0.625 1.15625,-0.625 0.2528,0 0.83495,-0.52951 1.28125,-1.1875 0.6725,-0.99159 0.80155,-1.88702 0.71875,-5.3125 -0.1011,-4.17575 -0.2543,-5.42834 -1.9375,-15.25 -0.6237,-3.63893 -0.95545,-7.71715 -1.03125,-12.375 -0.083,-5.09139 -0.3999,-8.07077 -1.0625,-11.09375 -0.4982,-2.27303 -1.56315,-7.56285 -2.40625,-11.75 -0.8431,-4.18716 -2.14405,-10.36899 -2.84375,-13.71875 -0.6998,-3.34969 -1.4757,-7.84659 -1.75,-10 C 325.0201,36.13233 324.2663,32.532 322.875,28.75 321.084,23.88169 320.92035,23.63924 318.34375,21 316.26985,18.87566 315.9448,18.72181 314,18.71875 z m -0.625,1.34375 c 0.4264,-0.006 1.01375,0.35054 1.90625,1.03125 3.4899,2.66193 6.5327,10.92511 9.125,24.78125 0.5819,3.11047 1.52415,7.93593 2.09375,10.6875 0.5696,2.75155 1.17215,6.25727 1.34375,7.8125 0.1716,1.55526 0.65625,4.49749 1.09375,6.53125 0.4375,2.03376 1.13285,5.9834 1.53125,8.78125 0.3983,2.79784 0.67375,5.3826 0.59375,5.71875 -0.091,0.38256 -0.9316,-0.26265 -2.25,-1.71875 -2.0287,-2.24059 -2.18355,-2.34678 -4.34375,-2.34375 -4.0101,0.005 -7.3187,0.74583 -8.5625,1.9375 -0.6306,0.60409 -1.25455,1.09375 -1.40625,1.09375 -0.624,0 -0.8291,-4.03807 -0.375,-7.65625 0.267,-2.12658 0.79105,-11.93659 1.15625,-21.8125 0.7488,-20.25322 0.5796,-22.64736 -1.9375,-28.03125 -1.4569,-3.11595 -1.6022,-4.0018 -0.9375,-5.75 0.2646,-0.69663 0.54245,-1.05669 0.96875,-1.0625 z m 6.65625,64.125 c 0.4882,-0.0259 1.1229,0 1.9375,0 2.9823,0 3.525,0.14116 4.9375,1.21875 2.8911,2.20552 5.8748,10.47605 7.25,20.09375 0.2738,1.91412 0.67345,4.68807 0.90625,6.1875 0.2328,1.49946 0.3267,3.74788 0.1875,5 -0.5684,5.11153 -0.52135,5.05828 -2.71875,6.15625 -1.1254,0.56231 -2.6572,1.13438 -3.375,1.3125 -5.135,1.27427 -13.74225,0.97045 -16.96875,-0.625 -3.0667,-1.51646 -3.926,-3.21909 -3.8125,-7.34375 0.099,-3.58953 0.82985,-7.12591 2.96875,-14.1875 0.7972,-2.63191 1.77725,-6.252 2.15625,-8.0625 0.738,-3.52483 1.856,-5.92344 3.875,-8.28125 0.9218,-1.07689 1.19195,-1.39116 2.65625,-1.46875 z" />
  </g>
</svg>
