<?xml version="1.0" encoding="UTF-8" standalone="no"?>
<!-- Created with Inkscape (http://www.inkscape.org/) -->

<svg
   xmlns:dc="http://purl.org/dc/elements/1.1/"
   xmlns:cc="http://creativecommons.org/ns#"
   xmlns:rdf="http://www.w3.org/1999/02/22-rdf-syntax-ns#"
   xmlns:svg="http://www.w3.org/2000/svg"
   xmlns="http://www.w3.org/2000/svg"
   xmlns:sodipodi="http://sodipodi.sourceforge.net/DTD/sodipodi-0.dtd"
   xmlns:inkscape="http://www.inkscape.org/namespaces/inkscape"
   width="800"
   height="700"
   id="svg2"
   version="1.1"
   inkscape:version="0.48.2 r9819"
   sodipodi:docname="l6.svg">
  <defs
     id="defs4" />
  <sodipodi:namedview
     id="base"
     pagecolor="#ffffff"
     bordercolor="#666666"
     borderopacity="1.0"
     inkscape:pageopacity="0.0"
     inkscape:pageshadow="2"
     inkscape:zoom="2.5"
     inkscape:cx="360.94843"
     inkscape:cy="627.08618"
     inkscape:document-units="px"
     inkscape:current-layer="layer1"
     showgrid="false"
     showguides="true"
     inkscape:guide-bbox="true"
     inkscape:window-width="1366"
     inkscape:window-height="746"
     inkscape:window-x="-8"
     inkscape:window-y="-8"
     inkscape:window-maximized="1"
     width="0px"
     height="0px"
     fit-margin-top="0"
     fit-margin-left="0"
     fit-margin-right="0"
     fit-margin-bottom="0">
    <sodipodi:guide
       orientation="1,0"
       position="400.22244,349.31075"
       id="guide3178" />
    <sodipodi:guide
       orientation="0,1"
       position="400.22244,349.31075"
       id="guide3180" />
  </sodipodi:namedview>
  <metadata
     id="metadata7">
    <rdf:RDF>
      <cc:Work
         rdf:about="">
        <dc:format>image/svg+xml</dc:format>
        <dc:type
           rdf:resource="http://purl.org/dc/dcmitype/StillImage" />
        <dc:title></dc:title>
      </cc:Work>
    </rdf:RDF>
  </metadata>
  <g
     inkscape:label="Layer 1"
     inkscape:groupmode="layer"
     id="layer1"
     transform="translate(0,-352.36218)">
    <path
       id="rect3086"
       transform="translate(0,352.36218)"
       style="fill:#ff0000"
       d="m 312.46875,26.96875 c -1.97295,-0.002 -2.12329,0.07478 -2.71875,1.5 -0.96266,2.304 -0.75656,4.64656 0.78125,9.0625 l 1.375,4.03125 -0.0312,17.8125 c -0.023,13.35439 -0.23158,21.04761 -0.90625,30.65625 l -0.875,12.84375 -2.1875,6.53125 c -4.07556,12.39886 -4.14923,12.71579 -3.875,15.03125 0.35117,2.96512 1.60245,5.52559 3.78125,7.71875 1.35133,1.36027 2.2154,1.85254 3.21875,1.875 0.75009,0.0168 1.74022,0.20061 2.21875,0.40625 0.47852,0.20564 3.38399,0.35821 6.46875,0.375 5.79596,0.0316 10.84512,-0.90721 12.5,-2.375 0.37773,-0.33504 0.87231,-0.625 1.125,-0.625 0.25274,0 0.83502,-0.52951 1.28125,-1.1875 0.67249,-0.99159 0.80158,-1.91827 0.71875,-5.34375 -0.10102,-4.17575 -0.25422,-5.39709 -1.9375,-15.21875 -0.62368,-3.63893 -0.95545,-7.7484 -1.03125,-12.40625 -0.0829,-5.09139 -0.39988,-8.03952 -1.0625,-11.0625 -0.4982,-2.27303 -1.56316,-7.56285 -2.40625,-11.75 -0.84307,-4.18716 -2.11278,-10.36899 -2.8125,-13.71875 -0.69974,-3.34969 -1.47571,-7.84659 -1.75,-10 -0.85493,-6.71142 -1.63993,-10.343 -3.03125,-14.125 -1.79095,-4.86831 -1.95467,-5.11076 -4.53125,-7.75 -2.07401,-2.12434 -2.36767,-2.27819 -4.3125,-2.28125 z m -0.65625,1.375 c 0.42637,-0.006 1.01376,0.31929 1.90625,1 3.48996,2.66193 6.5327,10.95636 9.125,24.8125 0.58194,3.11047 1.52415,7.93593 2.09375,10.6875 0.5696,2.75155 1.20337,6.25727 1.375,7.8125 0.17163,1.55526 0.62503,4.49749 1.0625,6.53125 0.43746,2.03376 1.1329,5.95215 1.53125,8.75 0.39836,2.79784 0.67372,5.3826 0.59375,5.71875 -0.0909,0.38256 -0.93156,-0.26265 -2.25,-1.71875 -2.02865,-2.24059 -2.18361,-2.31553 -4.34375,-2.3125 -4.01016,0.005 -7.28743,0.74583 -8.53125,1.9375 -0.63054,0.60409 -1.2858,1.09375 -1.4375,1.09375 -0.62395,0 -0.79785,-4.03807 -0.34375,-7.65625 0.26691,-2.12658 0.75984,-11.93659 1.125,-21.8125 0.74883,-20.25322 0.57966,-22.67861 -1.9375,-28.0625 -1.45685,-3.11595 -1.60217,-4.0018 -0.9375,-5.75 0.26479,-0.69663 0.54237,-1.02544 0.96875,-1.03125 z m 6.6875,64.125 c 0.48812,-0.0259 1.12289,0 1.9375,0 2.98221,0 3.49371,0.10991 4.90625,1.1875 2.89106,2.20552 5.87473,10.5073 7.25,20.125 0.27372,1.91412 0.67349,4.68807 0.90625,6.1875 0.23281,1.49946 0.35795,3.74788 0.21875,5 -0.56846,5.11153 -0.55263,5.02703 -2.75,6.125 -1.12537,0.56231 -2.65718,1.16563 -3.375,1.34375 -5.13495,1.27427 -13.71101,0.97045 -16.9375,-0.625 -3.06678,-1.51646 -3.95726,-3.21909 -3.84375,-7.34375 0.0987,-3.58953 0.82985,-7.12591 2.96875,-14.1875 0.79719,-2.63191 1.77722,-6.252 2.15625,-8.0625 0.73793,-3.52483 1.85602,-5.95469 3.875,-8.3125 0.92209,-1.07689 1.22311,-1.35991 2.6875,-1.4375 z" />
  </g>
</svg>
