<?xml version="1.0" encoding="UTF-8" standalone="no"?>
<!-- Created with Inkscape (http://www.inkscape.org/) -->

<svg
   xmlns:dc="http://purl.org/dc/elements/1.1/"
   xmlns:cc="http://creativecommons.org/ns#"
   xmlns:rdf="http://www.w3.org/1999/02/22-rdf-syntax-ns#"
   xmlns:svg="http://www.w3.org/2000/svg"
   xmlns="http://www.w3.org/2000/svg"
   xmlns:sodipodi="http://sodipodi.sourceforge.net/DTD/sodipodi-0.dtd"
   xmlns:inkscape="http://www.inkscape.org/namespaces/inkscape"
   width="900"
   height="800"
   id="svg2"
   version="1.1"
   inkscape:version="0.48.2 r9819"
   sodipodi:docname="m7.svg">
  <defs
     id="defs4" />
  <sodipodi:namedview
     id="base"
     pagecolor="#ffffff"
     bordercolor="#666666"
     borderopacity="1.0"
     inkscape:pageopacity="0.0"
     inkscape:pageshadow="2"
     inkscape:zoom="1.4142136"
     inkscape:cx="510.20531"
     inkscape:cy="597.9668"
     inkscape:document-units="px"
     inkscape:current-layer="layer1"
     showgrid="false"
     showguides="true"
     inkscape:guide-bbox="true"
     inkscape:window-width="1366"
     inkscape:window-height="746"
     inkscape:window-x="-8"
     inkscape:window-y="-8"
     inkscape:window-maximized="1"
     width="0px"
     height="0px"
     fit-margin-top="0"
     fit-margin-left="0"
     fit-margin-right="0"
     fit-margin-bottom="0">
    <sodipodi:guide
       orientation="1,0"
       position="450,784"
       id="guide3178" />
    <sodipodi:guide
       orientation="0,1"
       position="-61,400"
       id="guide3180" />
  </sodipodi:namedview>
  <metadata
     id="metadata7">
    <rdf:RDF>
      <cc:Work
         rdf:about="">
        <dc:format>image/svg+xml</dc:format>
        <dc:type
           rdf:resource="http://purl.org/dc/dcmitype/StillImage" />
        <dc:title></dc:title>
      </cc:Work>
    </rdf:RDF>
  </metadata>
  <g
     inkscape:label="Layer 1"
     inkscape:groupmode="layer"
     id="layer1"
     transform="translate(0,-252.36218)">
    <path
       id="rect3075"
       transform="translate(0,252.36218)"
       style="fill:#ff0000"
       d="m 370.15625,232.75 c -2.347,0.0186 -5.04501,0.3229 -8.25,0.875 -3.51622,0.6057 -6.78516,1.31781 -7.25,1.5625 -1.1755,0.61883 -3.20128,4.17081 -4.125,7.28125 -0.93122,3.13576 -0.71311,10.69689 0.46875,16 0.49014,2.19941 0.7709,5.98061 0.78125,10.4375 0.0103,3.83672 0.25912,7.53424 0.53125,8.25 0.55288,1.45416 1.39331,26.16171 1.8125,53.3125 0.2626,17.0079 0.31905,17.91278 1.25,18.84375 0.77616,0.77612 1.38854,0.93352 3,0.71875 1.20753,-0.16094 2.23914,-0.64324 2.53125,-1.15625 0.2705,-0.47506 1.04249,-1.38929 1.6875,-2.0625 1.75295,-1.8296 3.36176,-5.97377 4.15625,-10.53125 1.32705,-7.6127 3.24541,-23.20198 3.25,-26.40625 0.007,-4.88585 1.33344,-16.49754 2.5,-22.1875 1.47177,-7.17858 2.44044,-12.60755 2.75,-15.1875 0.14609,-1.21714 0.4675,-2.47125 0.71875,-2.78125 0.25128,-0.30999 0.88631,-2.97051 1.40625,-5.90625 0.51994,-2.93575 1.40134,-6.80438 1.9375,-8.5625 0.53615,-1.75812 1.5383,-5.04469 2.25,-7.34375 1.62776,-5.25839 1.5445,-9.15234 -0.25,-11.0625 -2.63971,-2.80974 -5.99289,-4.1345 -11.15625,-4.09375 z m 0.65625,1.375 c 2.07249,0.0236 3.92309,0.1973 5.1875,0.53125 1.95871,0.51727 4.16059,2.71273 4.65625,4.6875 0.72534,2.89017 -1.80173,13.18517 -4.1875,17.0625 -1.30781,2.12542 -4,8.9799 -4,10.1875 0,1.32898 -2.68269,8.96644 -3.6875,10.5 -0.4484,0.68432 -1.47856,1.45929 -2.3125,1.75 -2.21906,0.77356 -3.88861,0.64032 -5.65625,-0.4375 -2.00375,-1.22178 -2.32507,-1.86879 -3.8125,-7.59375 -0.67634,-2.60302 -2.15979,-7.06924 -3.28125,-9.9375 -1.98535,-5.07795 -2.03126,-5.38573 -2.09375,-11.4375 -0.0674,-6.54316 0.32268,-9.12295 1.3125,-8.78125 0.38238,0.13193 0.50665,1.0146 0.40625,2.4375 -0.2457,3.47964 1.24752,9.38549 3.59375,14.40625 1.64855,3.52784 4.71875,13.13939 4.71875,14.78125 0,0.1244 0.22952,0.21875 0.5,0.21875 0.27049,0 0.46875,-0.31619 0.46875,-0.6875 0,-1.10923 1.802,-4.8479 3.40625,-7.0625 0.82504,-1.13895 1.5,-2.2295 1.5,-2.40625 0,-0.1767 0.44305,-0.80557 1,-1.375 3.79075,-3.8756 6.37231,-8.25508 7.59375,-12.96875 0.82256,-3.17438 0.58688,-4.76081 -0.90625,-6 -1.13269,-0.94005 -1.29906,-0.53741 -0.75,1.90625 0.61859,2.7531 -0.35362,6.4026 -2.65625,9.75 -0.91473,1.32979 -2.13818,3.3307 -2.71875,4.46875 -0.58061,1.13812 -1.29573,2.0625 -1.5625,2.0625 -0.26676,0 -1.50508,1.58903 -2.75,3.53125 -2.46933,3.8524 -2.53934,3.8352 -3.59375,-0.34375 -0.34124,-1.35237 -1.93684,-5.09801 -3.5,-8.34375 -1.69182,-3.51308 -2.9675,-6.87997 -3.15625,-8.34375 -0.42061,-3.26203 0.56983,-6.68141 2.1875,-7.5 0.7948,-0.40221 0.96367,-0.62041 0.4375,-0.625 -0.44018,-0.004 -1.02633,-0.28019 -1.3125,-0.625 -0.38979,-0.46967 -0.1424,-0.8992 1.03125,-1.6875 1.66031,-1.11519 6.97764,-1.93431 11.8125,-2.09375 0.72523,-0.024 1.43418,-0.0392 2.125,-0.0312 z m 3.5,32.53125 c 0.18152,0.0475 -0.004,0.85348 -0.84375,4.1875 -0.53682,2.13049 -0.99655,4.86185 -1,6.125 -0.005,1.26312 -0.59002,4.92795 -1.28125,8.125 -1.2118,5.60496 -1.53146,8.66331 -2.65625,23.5625 -0.46655,6.18 -2.18278,19.70604 -2.6875,21.1875 -0.10867,0.31907 -0.56277,2.78129 -1,5.4375 -0.50595,3.07393 -1.40672,6.30105 -2.53125,8.84375 -1.19281,2.69714 -2.22754,4.21984 -3.125,4.75 -1.27214,0.75147 -1.40356,0.73202 -2.53125,-0.46875 l -1.15625,-1.25 -0.0312,-14.8125 C 355.45265,324.18377 355.30834,316.81144 355.125,316 c -0.18339,-0.81143 -0.57034,-9.18178 -0.84375,-18.59375 -0.2734,-9.41196 -0.6352,-19.96536 -0.8125,-23.46875 -0.23645,-4.67171 -0.16621,-6.375 0.25,-6.375 0.31213,0 0.53125,0.35874 0.53125,0.78125 0,1.45296 1.67394,5.86148 2.59375,6.84375 0.50652,0.54095 1.38093,1.82607 1.9375,2.8125 1.22949,2.17911 2.65427,2.84375 5.8125,2.84375 2.2393,0 2.52151,-0.13 4.15625,-2.125 0.96478,-1.1774 1.71875,-2.45594 1.71875,-2.8125 0,-0.35657 0.31932,-0.97923 0.6875,-1.40625 0.36816,-0.42702 1.07616,-2.28864 1.5625,-4.125 0.48628,-1.83636 1.08503,-3.45316 1.3125,-3.59375 0.13713,-0.085 0.22075,-0.14086 0.28125,-0.125 z" />
  </g>
</svg>
