<?xml version="1.0" encoding="UTF-8" standalone="no"?>
<!-- Created with Inkscape (http://www.inkscape.org/) -->

<svg
   xmlns:dc="http://purl.org/dc/elements/1.1/"
   xmlns:cc="http://creativecommons.org/ns#"
   xmlns:rdf="http://www.w3.org/1999/02/22-rdf-syntax-ns#"
   xmlns:svg="http://www.w3.org/2000/svg"
   xmlns="http://www.w3.org/2000/svg"
   xmlns:sodipodi="http://sodipodi.sourceforge.net/DTD/sodipodi-0.dtd"
   xmlns:inkscape="http://www.inkscape.org/namespaces/inkscape"
   width="800"
   height="700"
   id="svg2"
   version="1.1"
   inkscape:version="0.48.2 r9819"
   sodipodi:docname="m7.svg">
  <defs
     id="defs4" />
  <sodipodi:namedview
     id="base"
     pagecolor="#ffffff"
     bordercolor="#666666"
     borderopacity="1.0"
     inkscape:pageopacity="0.0"
     inkscape:pageshadow="2"
     inkscape:zoom="2.5"
     inkscape:cx="360.94843"
     inkscape:cy="435.08618"
     inkscape:document-units="px"
     inkscape:current-layer="layer1"
     showgrid="false"
     showguides="true"
     inkscape:guide-bbox="true"
     inkscape:window-width="1366"
     inkscape:window-height="746"
     inkscape:window-x="-8"
     inkscape:window-y="-8"
     inkscape:window-maximized="1"
     width="0px"
     height="0px"
     fit-margin-top="0"
     fit-margin-left="0"
     fit-margin-right="0"
     fit-margin-bottom="0">
    <sodipodi:guide
       orientation="1,0"
       position="400.22244,349.31075"
       id="guide3178" />
    <sodipodi:guide
       orientation="0,1"
       position="400.22244,349.31075"
       id="guide3180" />
  </sodipodi:namedview>
  <metadata
     id="metadata7">
    <rdf:RDF>
      <cc:Work
         rdf:about="">
        <dc:format>image/svg+xml</dc:format>
        <dc:type
           rdf:resource="http://purl.org/dc/dcmitype/StillImage" />
        <dc:title></dc:title>
      </cc:Work>
    </rdf:RDF>
  </metadata>
  <g
     inkscape:label="Layer 1"
     inkscape:groupmode="layer"
     id="layer1"
     transform="translate(0,-352.36218)">
    <path
       id="rect3094"
       transform="translate(0,352.36218)"
       style="fill:#ff0000"
       d="m 328.40625,205.84375 c -2.07615,0.0164 -4.47736,0.29287 -7.3125,0.78125 -3.11045,0.5358 -5.99506,1.18979 -6.40625,1.40625 -1.03984,0.54742 -2.83913,3.686 -3.65625,6.4375 -0.82376,2.7739 -0.63923,9.43386 0.40625,14.125 0.43357,1.9456 0.70959,5.30744 0.71875,9.25 0.009,3.39397 0.22802,6.64809 0.46875,7.28125 0.48907,1.28635 1.22294,23.16988 1.59375,47.1875 0.2323,15.04521 0.27023,15.83271 1.09375,16.65625 0.68659,0.68655 1.262,0.81498 2.6875,0.625 1.06818,-0.14236 1.96035,-0.54619 2.21875,-1 0.23928,-0.42024 0.89817,-1.24823 1.46875,-1.84375 1.55066,-1.61845 2.98469,-5.28095 3.6875,-9.3125 1.1739,-6.73422 2.90219,-20.54051 2.90625,-23.375 0.007,-4.32203 1.15556,-14.59166 2.1875,-19.625 1.30193,-6.35018 2.16366,-11.15527 2.4375,-13.4375 0.12923,-1.07669 0.40274,-2.16327 0.625,-2.4375 0.22228,-0.27421 0.79006,-2.65304 1.25,-5.25 0.45994,-2.59697 1.24447,-5.97602 1.71875,-7.53125 0.47429,-1.55524 1.37043,-4.49749 2,-6.53125 1.43992,-4.65157 1.36867,-8.09153 -0.21875,-9.78125 -2.33509,-2.4855 -5.30748,-3.66104 -9.875,-3.625 z m 0.5625,1.21875 c 1.83333,0.021 3.5065,0.17334 4.625,0.46875 1.73268,0.45758 3.65528,2.40937 4.09375,4.15625 0.64164,2.55665 -1.57705,11.66386 -3.6875,15.09375 -1.15689,1.88014 -3.5625,7.96301 -3.5625,9.03125 0,1.17563 -2.36114,7.89341 -3.25,9.25 -0.39665,0.60536 -1.3248,1.30533 -2.0625,1.5625 -1.96299,0.68428 -3.40509,0.57845 -4.96875,-0.375 -1.77251,-1.08078 -2.09047,-1.65444 -3.40625,-6.71875 -0.5983,-2.30263 -1.91421,-6.27523 -2.90625,-8.8125 -1.75625,-4.49196 -1.75721,-4.74035 -1.8125,-10.09375 -0.0596,-5.78808 0.2494,-8.08354 1.125,-7.78125 0.33825,0.11668 0.46381,0.89755 0.375,2.15625 -0.21735,3.07809 1.11203,8.30864 3.1875,12.75 1.45831,3.12074 4.15625,11.61011 4.15625,13.0625 0,0.11004 0.19824,0.1875 0.4375,0.1875 0.23929,0 0.40625,-0.26529 0.40625,-0.59375 0,-0.98123 1.61213,-4.29097 3.03125,-6.25 0.72983,-1.00751 1.34375,-1.96866 1.34375,-2.125 0,-0.15631 0.38233,-0.71502 0.875,-1.21875 3.35331,-3.42835 5.63827,-7.29904 6.71875,-11.46875 0.72764,-2.80806 0.50833,-4.18507 -0.8125,-5.28125 -1.00198,-0.83157 -1.14195,-0.47418 -0.65625,1.6875 0.5472,2.43539 -0.30684,5.63263 -2.34375,8.59375 -0.80918,1.17632 -1.92392,2.96202 -2.4375,3.96875 -0.5136,1.00679 -1.10777,1.8125 -1.34375,1.8125 -0.23597,0 -1.36749,1.40691 -2.46875,3.125 -2.18437,3.40784 -2.22352,3.38421 -3.15625,-0.3125 -0.30187,-1.1963 -1.71097,-4.47257 -3.09375,-7.34375 -1.49658,-3.10768 -2.61428,-6.11138 -2.78125,-7.40625 -0.37208,-2.88558 0.5065,-5.93211 1.9375,-6.65625 0.70308,-0.35579 0.84046,-0.52719 0.375,-0.53125 -0.38938,-0.004 -0.93435,-0.25748 -1.1875,-0.5625 -0.3448,-0.41547 -0.1007,-0.80268 0.9375,-1.5 1.46872,-0.9865 6.16057,-1.70272 10.4375,-1.84375 0.64154,-0.0213 1.2639,-0.0383 1.875,-0.0312 z m 3.125,28.78125 c 0.16058,0.042 -0.0381,0.76948 -0.78125,3.71875 -0.47488,1.88464 -0.87194,4.28887 -0.875,5.40625 -0.005,1.11736 -0.51354,4.35939 -1.125,7.1875 -1.07196,4.95816 -1.34875,7.66391 -2.34375,20.84375 -0.4127,5.46683 -1.92853,17.4395 -2.375,18.75 -0.0961,0.28226 -0.51948,2.46281 -0.90625,4.8125 -0.44756,2.7192 -1.25525,5.56322 -2.25,7.8125 -1.05516,2.38589 -1.95611,3.74977 -2.75,4.21875 -1.12534,0.66475 -1.22119,0.65594 -2.21875,-0.40625 l -1.03125,-1.125 -0.0312,-13.125 c -0.0143,-7.21832 -0.15032,-13.7197 -0.3125,-14.4375 -0.16222,-0.7178 -0.47689,-8.11166 -0.71875,-16.4375 -0.24185,-8.32583 -0.59315,-17.68214 -0.75,-20.78125 -0.20917,-4.1326 -0.14943,-5.625 0.21875,-5.625 0.27611,0 0.5,0.2825 0.5,0.65625 0,1.2853 1.46759,5.22483 2.28125,6.09375 0.44807,0.47853 1.22641,1.59615 1.71875,2.46875 1.08761,1.92764 2.33122,2.53125 5.125,2.53125 1.98088,0 2.24141,-0.14147 3.6875,-1.90625 0.85345,-1.04153 1.53125,-2.15334 1.53125,-2.46875 0,-0.31542 0.26806,-0.87225 0.59375,-1.25 0.32568,-0.37773 0.94479,-2.0318 1.375,-3.65625 0.43017,-1.62445 0.98628,-3.03187 1.1875,-3.15625 0.1213,-0.0753 0.19648,-0.13904 0.25,-0.125 z" />
  </g>
</svg>
