<?xml version="1.0" encoding="UTF-8" standalone="no"?>
<!-- Created with Inkscape (http://www.inkscape.org/) -->

<svg
   xmlns:dc="http://purl.org/dc/elements/1.1/"
   xmlns:cc="http://creativecommons.org/ns#"
   xmlns:rdf="http://www.w3.org/1999/02/22-rdf-syntax-ns#"
   xmlns:svg="http://www.w3.org/2000/svg"
   xmlns="http://www.w3.org/2000/svg"
   xmlns:sodipodi="http://sodipodi.sourceforge.net/DTD/sodipodi-0.dtd"
   xmlns:inkscape="http://www.inkscape.org/namespaces/inkscape"
   width="800"
   height="400"
   id="svg2"
   version="1.1"
   inkscape:version="0.48.2 r9819"
   sodipodi:docname="m7.svg">
  <defs
     id="defs4" />
  <sodipodi:namedview
     id="base"
     pagecolor="#ffffff"
     bordercolor="#666666"
     borderopacity="1.0"
     inkscape:pageopacity="0.0"
     inkscape:pageshadow="2"
     inkscape:zoom="2"
     inkscape:cx="249.15404"
     inkscape:cy="298.31862"
     inkscape:document-units="px"
     inkscape:current-layer="layer1"
     showgrid="false"
     showguides="true"
     inkscape:guide-bbox="true"
     inkscape:window-width="1366"
     inkscape:window-height="746"
     inkscape:window-x="-8"
     inkscape:window-y="-8"
     inkscape:window-maximized="1"
     width="0px"
     height="0px"
     fit-margin-top="0"
     fit-margin-left="0"
     fit-margin-right="0"
     fit-margin-bottom="0">
    <sodipodi:guide
       orientation="1,0"
       position="400.22244,349.31075"
       id="guide3178" />
    <sodipodi:guide
       orientation="0,1"
       position="-117.37973,199.40411"
       id="guide3180" />
  </sodipodi:namedview>
  <metadata
     id="metadata7">
    <rdf:RDF>
      <cc:Work
         rdf:about="">
        <dc:format>image/svg+xml</dc:format>
        <dc:type
           rdf:resource="http://purl.org/dc/dcmitype/StillImage" />
        <dc:title></dc:title>
      </cc:Work>
    </rdf:RDF>
  </metadata>
  <g
     inkscape:label="Layer 1"
     inkscape:groupmode="layer"
     id="layer1"
     transform="translate(0,-652.36218)">
    <path
       id="rect3063"
       transform="translate(0,652.36218)"
       style="fill:#ff0000"
       d="m 323.28125,138.625 c -4.3899,0.0462 -4.6312,0.0587 -6.625,1.40625 -2.8055,1.89605 -6.35285,7.23281 -6.96875,10.5 -0.5607,2.97412 0.2533,6.23703 2.375,9.4375 0.7795,1.17592 1.6357,2.40534 1.875,2.78125 1.7975,2.82391 4.1544,5.26457 6.0625,6.21875 2.8329,1.41665 5.5161,1.43181 8.5625,0.0625 3.1173,-1.40129 4.5793,-3.29754 7.75,-10.25 0.7092,-1.55521 1.9533,-3.57312 2.8125,-4.5 1.8346,-1.97888 2.18875,-3.02911 1.90625,-5.96875 -0.2542,-2.64542 -1.8278,-4.53849 -4.4375,-5.28125 -0.967,-0.27519 -2.04735,-0.73274 -2.40625,-1 -0.3589,-0.26725 -1.3501,-0.79741 -2.1875,-1.21875 -0.8375,-0.42132 -2.12595,-1.12456 -2.84375,-1.53125 -1.0179,-0.5768 -2.3124,-0.69385 -5.875,-0.65625 z m 0.625,1.4375 c 3.016,0 8.9229,2.47529 8.9375,3.75 0.01,0.67809 -1.04335,1.0625 -3.09375,1.0625 -1.559,0 -6.4708,1.58556 -10.375,3.34375 -0.8375,0.37711 -2.4912,0.92539 -3.6875,1.25 -1.1963,0.32458 -2.30345,0.62216 -2.46875,0.625 -1.6443,0.0282 1.0594,-5.22263 3.75,-7.28125 2.1085,-1.61325 4.9227,-2.75 6.9375,-2.75 z m 10.0625,6 c 0.469,-0.0189 0.88575,-0.01 1.28125,0 2.7738,0.0666 3.6875,1.0953 3.6875,4.03125 0,2.11884 -0.47175,2.98585 -3.09375,5.75 -0.6347,0.66912 -1.61365,2.35409 -2.15625,3.71875 -1.5087,3.79414 -3.7457,6.91371 -5.8125,8.125 -2.1532,1.26181 -3.7276,1.35024 -6.125,0.25 -3.2832,-1.50669 -9.3125,-9.45034 -9.3125,-12.21875 0,-0.65344 0.42785,-1.82246 0.96875,-2.625 0.9833,-1.45929 1.3115,-1.61835 7.9375,-3.9375 1.4356,-0.50247 3.04625,-1.18657 3.59375,-1.53125 1.0103,-0.63589 5.74835,-1.4305 9.03125,-1.5625 z m -12.15625,6.65625 c -0.2678,0.0196 -0.8132,0.21417 -1.6875,0.65625 -5.4906,2.77596 -5.68145,5.53958 -0.59375,8.5 1.8355,1.06811 3.07595,2.18066 3.96875,3.5625 0.7178,1.11087 1.4455,2.02684 1.625,2.03125 0.1794,0.005 0.33465,-0.6965 0.34375,-1.59375 0.052,-4.50261 1.56625,-7.11242 6.40625,-11.125 2.5157,-2.08557 0.686,-2.23304 -1.9375,-0.15625 -1.6519,1.30773 -4.4862,4.35198 -4.5,4.875 0,0.20553 -0.3259,0.85512 -0.75,1.40625 -0.9612,1.24917 -2.07185,0.90463 -4.84375,-1.53125 -2.3301,-2.04764 -2.19035,-2.90371 0.71875,-5.125 1.3135,-1.00288 1.6962,-1.53262 1.25,-1.5 z" />
  </g>
</svg>
