<?xml version="1.0" encoding="UTF-8" standalone="no"?>
<!-- Created with Inkscape (http://www.inkscape.org/) -->

<svg
   xmlns:dc="http://purl.org/dc/elements/1.1/"
   xmlns:cc="http://creativecommons.org/ns#"
   xmlns:rdf="http://www.w3.org/1999/02/22-rdf-syntax-ns#"
   xmlns:svg="http://www.w3.org/2000/svg"
   xmlns="http://www.w3.org/2000/svg"
   xmlns:sodipodi="http://sodipodi.sourceforge.net/DTD/sodipodi-0.dtd"
   xmlns:inkscape="http://www.inkscape.org/namespaces/inkscape"
   width="900"
   height="800"
   id="svg2"
   version="1.1"
   inkscape:version="0.48.2 r9819"
   sodipodi:docname="f7.svg">
  <defs
     id="defs4" />
  <sodipodi:namedview
     id="base"
     pagecolor="#ffffff"
     bordercolor="#666666"
     borderopacity="1.0"
     inkscape:pageopacity="0.0"
     inkscape:pageshadow="2"
     inkscape:zoom="1.4142136"
     inkscape:cx="510.20531"
     inkscape:cy="597.9668"
     inkscape:document-units="px"
     inkscape:current-layer="layer1"
     showgrid="false"
     showguides="true"
     inkscape:guide-bbox="true"
     inkscape:window-width="1366"
     inkscape:window-height="746"
     inkscape:window-x="-8"
     inkscape:window-y="-8"
     inkscape:window-maximized="1"
     width="0px"
     height="0px"
     fit-margin-top="0"
     fit-margin-left="0"
     fit-margin-right="0"
     fit-margin-bottom="0">
    <sodipodi:guide
       orientation="1,0"
       position="450,784"
       id="guide3178" />
    <sodipodi:guide
       orientation="0,1"
       position="-61,400"
       id="guide3180" />
  </sodipodi:namedview>
  <metadata
     id="metadata7">
    <rdf:RDF>
      <cc:Work
         rdf:about="">
        <dc:format>image/svg+xml</dc:format>
        <dc:type
           rdf:resource="http://purl.org/dc/dcmitype/StillImage" />
        <dc:title></dc:title>
      </cc:Work>
    </rdf:RDF>
  </metadata>
  <g
     inkscape:label="Layer 1"
     inkscape:groupmode="layer"
     id="layer1"
     transform="translate(0,-252.36218)">
    <path
       id="rect3071"
       transform="translate(0,252.36218)"
       style="fill:#ff0000"
       d="m 362.625,166.09375 c -4.96266,0.0522 -5.24612,0.10156 -7.5,1.625 -3.1715,2.14341 -7.17872,8.15033 -7.875,11.84375 -0.63385,3.3621 0.28903,7.03827 2.6875,10.65625 0.88123,1.32933 1.85452,2.73129 2.125,3.15625 2.03193,3.19229 4.71798,5.95259 6.875,7.03125 3.20245,1.60145 6.21237,1.61054 9.65625,0.0625 3.5239,-1.5841 5.16577,-3.73432 8.75,-11.59375 0.80178,-1.7581 2.21615,-4.04596 3.1875,-5.09375 2.07385,-2.23703 2.47556,-3.42687 2.15625,-6.75 -0.28735,-2.99053 -2.08103,-5.09785 -5.03125,-5.9375 -1.09317,-0.31109 -2.31301,-0.82288 -2.71875,-1.125 -0.40572,-0.3021 -1.52207,-0.92995 -2.46875,-1.40625 -0.94669,-0.4763 -2.40729,-1.25901 -3.21875,-1.71875 -1.15067,-0.65206 -2.59764,-0.7925 -6.625,-0.75 z m 0.71875,1.65625 c 3.40945,0 10.07733,2.77775 10.09375,4.21875 0.007,0.76656 -1.18203,1.1875 -3.5,1.1875 -1.76235,0 -7.30514,1.7937 -11.71875,3.78125 -0.94667,0.42631 -2.8351,1.07055 -4.1875,1.4375 -1.35237,0.36692 -2.59435,0.6843 -2.78125,0.6875 -1.85883,0.0319 1.17716,-5.89157 4.21875,-8.21875 2.3835,-1.8237 5.59736,-3.09375 7.875,-3.09375 z m 11.34375,6.78125 c 0.53017,-0.0214 1.02167,-0.0103 1.46875,0 3.13564,0.0753 4.15625,1.21228 4.15625,4.53125 0,2.39525 -0.53595,3.40651 -3.5,6.53125 -0.71753,0.7564 -1.79283,2.6448 -2.40625,4.1875 -1.70547,4.2891 -4.25724,7.81819 -6.59375,9.1875 -2.43399,1.42642 -4.19604,1.49377 -6.90625,0.25 -3.7114,-1.70324 -10.5625,-10.65169 -10.5625,-13.78125 0,-0.73869 0.51364,-2.06153 1.125,-2.96875 1.11168,-1.64966 1.47827,-1.84707 8.96875,-4.46875 1.62287,-0.56804 3.44356,-1.3291 4.0625,-1.71875 1.14205,-0.71884 6.47629,-1.60079 10.1875,-1.75 z m -13.71875,7.5 c -0.3027,0.0221 -0.94904,0.25025 -1.9375,0.75 -6.20683,3.1381 -6.40755,6.24712 -0.65625,9.59375 2.07503,1.20744 3.49065,2.50039 4.5,4.0625 0.81146,1.25579 1.60964,2.27627 1.8125,2.28125 0.20285,0.005 0.3959,-0.82946 0.40625,-1.84375 0.0591,-5.09001 1.74728,-8.02645 7.21875,-12.5625 2.84381,-2.35762 0.77822,-2.50395 -2.1875,-0.15625 -1.86749,1.47832 -5.04699,4.94 -5.0625,5.53125 -0.005,0.23233 -0.39563,0.93947 -0.875,1.5625 -1.08658,1.41212 -2.30395,1.0349 -5.4375,-1.71875 -2.6341,-2.31476 -2.50736,-3.30145 0.78125,-5.8125 1.48483,-1.13372 1.94198,-1.72438 1.4375,-1.6875 z" />
  </g>
</svg>
