<?xml version="1.0" encoding="UTF-8" standalone="no"?>
<!-- Created with Inkscape (http://www.inkscape.org/) -->

<svg
   xmlns:dc="http://purl.org/dc/elements/1.1/"
   xmlns:cc="http://creativecommons.org/ns#"
   xmlns:rdf="http://www.w3.org/1999/02/22-rdf-syntax-ns#"
   xmlns:svg="http://www.w3.org/2000/svg"
   xmlns="http://www.w3.org/2000/svg"
   xmlns:sodipodi="http://sodipodi.sourceforge.net/DTD/sodipodi-0.dtd"
   xmlns:inkscape="http://www.inkscape.org/namespaces/inkscape"
   width="800"
   height="700"
   id="svg2"
   version="1.1"
   inkscape:version="0.48.2 r9819"
   sodipodi:docname="f7.svg">
  <defs
     id="defs4" />
  <sodipodi:namedview
     id="base"
     pagecolor="#ffffff"
     bordercolor="#666666"
     borderopacity="1.0"
     inkscape:pageopacity="0.0"
     inkscape:pageshadow="2"
     inkscape:zoom="2.5"
     inkscape:cx="360.94843"
     inkscape:cy="499.08618"
     inkscape:document-units="px"
     inkscape:current-layer="layer1"
     showgrid="false"
     showguides="true"
     inkscape:guide-bbox="true"
     inkscape:window-width="1366"
     inkscape:window-height="746"
     inkscape:window-x="-8"
     inkscape:window-y="-8"
     inkscape:window-maximized="1"
     width="0px"
     height="0px"
     fit-margin-top="0"
     fit-margin-left="0"
     fit-margin-right="0"
     fit-margin-bottom="0">
    <sodipodi:guide
       orientation="1,0"
       position="400.22244,349.31075"
       id="guide3178" />
    <sodipodi:guide
       orientation="0,1"
       position="400.22244,349.31075"
       id="guide3180" />
  </sodipodi:namedview>
  <metadata
     id="metadata7">
    <rdf:RDF>
      <cc:Work
         rdf:about="">
        <dc:format>image/svg+xml</dc:format>
        <dc:type
           rdf:resource="http://purl.org/dc/dcmitype/StillImage" />
        <dc:title></dc:title>
      </cc:Work>
    </rdf:RDF>
  </metadata>
  <g
     inkscape:label="Layer 1"
     inkscape:groupmode="layer"
     id="layer1"
     transform="translate(0,-352.36218)">
    <path
       id="rect3090"
       transform="translate(0,352.36218)"
       style="fill:#ff0000"
       d="m 321.71875,146.875 c -4.38998,0.0462 -4.63122,0.09 -6.625,1.4375 -2.80551,1.89605 -6.32158,7.20156 -6.9375,10.46875 -0.56071,2.97412 0.25331,6.23703 2.375,9.4375 0.77953,1.17592 1.63572,2.43659 1.875,2.8125 1.79744,2.82391 4.15439,5.26457 6.0625,6.21875 2.83288,1.41665 5.48479,1.43181 8.53125,0.0625 3.11725,-1.40129 4.57938,-3.29754 7.75,-10.25 0.70925,-1.55521 1.98449,-3.60437 2.84375,-4.53125 1.83453,-1.97888 2.18872,-3.02911 1.90625,-5.96875 -0.25419,-2.64542 -1.85899,-4.50724 -4.46875,-5.25 -0.96702,-0.27519 -2.04733,-0.73274 -2.40625,-1 -0.3589,-0.26725 -1.35006,-0.79741 -2.1875,-1.21875 -0.83744,-0.42132 -2.12593,-1.12456 -2.84375,-1.53125 -1.01788,-0.5768 -2.3124,-0.7251 -5.875,-0.6875 z m 0.65625,1.46875 c 3.016,0 8.89172,2.47529 8.90625,3.75 0.007,0.67809 -1.01202,1.0625 -3.0625,1.0625 -1.55897,0 -6.50197,1.55431 -10.40625,3.3125 -0.83742,0.37711 -2.45991,0.95664 -3.65625,1.28125 -1.19631,0.32458 -2.33468,0.59091 -2.5,0.59375 -1.64433,0.0282 1.05941,-5.19138 3.75,-7.25 2.10845,-1.61325 4.95395,-2.75 6.96875,-2.75 z m 10.03125,6 c 0.46899,-0.0189 0.91701,-0.01 1.3125,0 2.77379,0.0666 3.65625,1.06405 3.65625,4 0,2.11884 -0.47174,3.0171 -3.09375,5.78125 -0.63472,0.66912 -1.58237,2.35409 -2.125,3.71875 -1.50866,3.79414 -3.74562,6.91371 -5.8125,8.125 -2.15311,1.26181 -3.72754,1.31899 -6.125,0.21875 -3.28311,-1.50669 -9.34375,-9.41909 -9.34375,-12.1875 0,-0.65344 0.42794,-1.82246 0.96875,-2.625 0.98339,-1.45929 1.31142,-1.61835 7.9375,-3.9375 1.4356,-0.50247 3.04624,-1.18657 3.59375,-1.53125 1.01026,-0.63589 5.74831,-1.4305 9.03125,-1.5625 z M 320.28125,161 c -0.26777,0.0196 -0.84436,0.21417 -1.71875,0.65625 -5.49057,2.77596 -5.65011,5.50833 -0.5625,8.46875 1.83557,1.06811 3.07588,2.21191 3.96875,3.59375 0.71781,1.11087 1.4143,2.02684 1.59375,2.03125 0.17944,0.005 0.36585,-0.72775 0.375,-1.625 0.0523,-4.50261 1.53493,-7.08117 6.375,-11.09375 2.51563,-2.08557 0.68597,-2.23304 -1.9375,-0.15625 -1.65198,1.30773 -4.45503,4.35198 -4.46875,4.875 -0.005,0.20553 -0.3572,0.85512 -0.78125,1.40625 -0.96119,1.24917 -2.04056,0.90463 -4.8125,-1.53125 -2.33013,-2.04764 -2.2216,-2.93496 0.6875,-5.15625 1.31348,-1.00288 1.7275,-1.50137 1.28125,-1.46875 z" />
  </g>
</svg>
