<?xml version="1.0" encoding="UTF-8" standalone="no"?>
<!-- Created with Inkscape (http://www.inkscape.org/) -->

<svg
   xmlns:dc="http://purl.org/dc/elements/1.1/"
   xmlns:cc="http://creativecommons.org/ns#"
   xmlns:rdf="http://www.w3.org/1999/02/22-rdf-syntax-ns#"
   xmlns:svg="http://www.w3.org/2000/svg"
   xmlns="http://www.w3.org/2000/svg"
   xmlns:sodipodi="http://sodipodi.sourceforge.net/DTD/sodipodi-0.dtd"
   xmlns:inkscape="http://www.inkscape.org/namespaces/inkscape"
   width="800"
   height="700"
   id="svg2"
   version="1.1"
   inkscape:version="0.48.2 r9819"
   sodipodi:docname="m5-fill.svg">
  <defs
     id="defs4" />
  <sodipodi:namedview
     id="base"
     pagecolor="#ffffff"
     bordercolor="#666666"
     borderopacity="1.0"
     inkscape:pageopacity="0.0"
     inkscape:pageshadow="2"
     inkscape:zoom="2.5"
     inkscape:cx="177.35158"
     inkscape:cy="512.74647"
     inkscape:document-units="px"
     inkscape:current-layer="layer1"
     showgrid="false"
     showguides="true"
     inkscape:guide-bbox="true"
     inkscape:window-width="1024"
     inkscape:window-height="538"
     inkscape:window-x="-8"
     inkscape:window-y="-8"
     inkscape:window-maximized="1"
     width="0px"
     height="0px"
     fit-margin-top="0"
     fit-margin-left="0"
     fit-margin-right="0"
     fit-margin-bottom="0">
    <sodipodi:guide
       orientation="1,0"
       position="400.22244,349.31075"
       id="guide3178" />
    <sodipodi:guide
       orientation="0,1"
       position="400.22244,349.31075"
       id="guide3180" />
  </sodipodi:namedview>
  <metadata
     id="metadata7">
    <rdf:RDF>
      <cc:Work
         rdf:about="">
        <dc:format>image/svg+xml</dc:format>
        <dc:type
           rdf:resource="http://purl.org/dc/dcmitype/StillImage" />
        <dc:title />
      </cc:Work>
    </rdf:RDF>
  </metadata>
  <g
     inkscape:label="Layer 1"
     inkscape:groupmode="layer"
     id="layer1"
     transform="translate(0,-352.36218)">
    <path
       id="rect3455"
       transform="translate(0,352.36218)"
       style="fill:#00ff00"
       d="m 238.96875,147.25 c -0.47179,-0.0256 -1.06729,0.0566 -1.96875,0.25 -2.37733,0.50984 -9.31435,3.86066 -10.78125,5.21875 -0.49397,0.45728 -1.0999,0.84375 -1.34375,0.84375 -0.24387,0 -1.22772,0.75902 -2.1875,1.65625 -1.46659,1.37106 -1.80797,2.05193 -2.25,4.34375 -0.49149,2.54826 -0.4616,2.9424 0.59375,6 1.20804,3.50003 2.32378,5.69549 5.1875,10.1875 0.99148,1.55523 2.30885,3.73583 2.9375,4.8125 1.3891,2.37915 3.46224,4.34043 5.78125,5.5625 2.08449,1.09849 2.69284,1.16042 5.9375,0.25 2.96809,-0.83281 3.41911,-1.28552 4.90625,-4.84375 1.28468,-3.0738 1.43746,-5.40631 0.4375,-6.40625 -1.06403,-1.06401 -1.448,-0.82618 -1.75,1.0625 -0.35211,2.20182 -1.24384,1.70251 -1.59375,-0.90625 -0.13108,-0.97703 -0.67892,-2.26909 -1.21875,-2.84375 -0.86415,-0.91985 -1.36349,-1.03125 -4.1875,-1.03125 -2.94009,0 -3.32607,0.12222 -4.34375,1.21875 -0.9281,0.99985 -1.04847,1.48605 -0.875,3.03125 0.11418,1.01688 0.049,1.84375 -0.15625,1.84375 -0.64525,0 -0.9628,-2.1087 -0.65625,-4.5625 0.28598,-2.28893 0.27662,-2.42527 -1.4375,-4.59375 -0.99414,-1.25772 -1.78125,-2.70431 -1.78125,-3.3125 l 0,-1.09375 1,1.25 c 0.55744,0.67634 1.13319,1.56253 1.28125,1.96875 0.75234,2.06426 7.49881,3.26951 10.4375,1.875 0.85571,-0.40603 2.08258,-1.53873 2.71875,-2.5 0.63612,-0.96125 1.24454,-1.63044 1.375,-1.5 0.45095,0.45096 -0.26772,2.4223 -1.4375,3.8125 l -1.1875,1.34375 1.15625,0.96875 c 0.63115,0.50709 1.83488,1.34728 2.6875,1.875 l 1.53125,0.9375 0.84375,-0.90625 c 1.55727,-1.67152 3.85734,-11.39499 3.15625,-13.40625 -0.42418,-1.21673 -9.54993,-10.6296 -11.59375,-11.96875 -0.40299,-0.26407 -0.74693,-0.4118 -1.21875,-0.4375 z" />
  </g>
</svg>
