<?xml version="1.0" encoding="UTF-8" standalone="no"?>
<!-- Created with Inkscape (http://www.inkscape.org/) -->

<svg
   xmlns:dc="http://purl.org/dc/elements/1.1/"
   xmlns:cc="http://creativecommons.org/ns#"
   xmlns:rdf="http://www.w3.org/1999/02/22-rdf-syntax-ns#"
   xmlns:svg="http://www.w3.org/2000/svg"
   xmlns="http://www.w3.org/2000/svg"
   xmlns:sodipodi="http://sodipodi.sourceforge.net/DTD/sodipodi-0.dtd"
   xmlns:inkscape="http://www.inkscape.org/namespaces/inkscape"
   width="800"
   height="700"
   id="svg2"
   version="1.1"
   inkscape:version="0.48.2 r9819"
   sodipodi:docname="m5.svg">
  <defs
     id="defs4" />
  <sodipodi:namedview
     id="base"
     pagecolor="#ffffff"
     bordercolor="#666666"
     borderopacity="1.0"
     inkscape:pageopacity="0.0"
     inkscape:pageshadow="2"
     inkscape:zoom="2.5"
     inkscape:cx="177.35158"
     inkscape:cy="480.74647"
     inkscape:document-units="px"
     inkscape:current-layer="layer1"
     showgrid="false"
     showguides="true"
     inkscape:guide-bbox="true"
     inkscape:window-width="1366"
     inkscape:window-height="746"
     inkscape:window-x="-8"
     inkscape:window-y="-8"
     inkscape:window-maximized="1"
     width="0px"
     height="0px"
     fit-margin-top="0"
     fit-margin-left="0"
     fit-margin-right="0"
     fit-margin-bottom="0">
    <sodipodi:guide
       orientation="1,0"
       position="400.22244,349.31075"
       id="guide3178" />
    <sodipodi:guide
       orientation="0,1"
       position="400.22244,349.31075"
       id="guide3180" />
  </sodipodi:namedview>
  <metadata
     id="metadata7">
    <rdf:RDF>
      <cc:Work
         rdf:about="">
        <dc:format>image/svg+xml</dc:format>
        <dc:type
           rdf:resource="http://purl.org/dc/dcmitype/StillImage" />
        <dc:title></dc:title>
      </cc:Work>
    </rdf:RDF>
  </metadata>
  <g
     inkscape:label="Layer 1"
     inkscape:groupmode="layer"
     id="layer1"
     transform="translate(0,-352.36218)">
    <path
       style="fill:#ff0000"
       d="m 238.96875,499.61218 c 0.47182,0.0257 0.81576,0.17343 1.21875,0.4375 2.04382,1.33915 11.16957,10.75202 11.59375,11.96875 0.70109,2.01126 -1.59898,11.73473 -3.15625,13.40625 l -0.84375,0.90625 -1.53125,-0.9375 c -0.85262,-0.52772 -2.05635,-1.36791 -2.6875,-1.875 l -1.15625,-0.96875 1.1875,-1.34375 c 1.16978,-1.3902 1.88845,-3.36154 1.4375,-3.8125 -0.13046,-0.13044 -0.73888,0.53875 -1.375,1.5 -0.63617,0.96127 -1.86304,2.09397 -2.71875,2.5 -2.93869,1.39451 -9.68516,0.18926 -10.4375,-1.875 -0.14806,-0.40622 -0.72381,-1.29241 -1.28125,-1.96875 l -1,-1.25 0,1.09375 c 0,0.60819 0.78711,2.05478 1.78125,3.3125 1.71412,2.16848 1.72348,2.30482 1.4375,4.59375 -0.30655,2.4538 0.011,4.5625 0.65625,4.5625 0.20528,0 0.27043,-0.82687 0.15625,-1.84375 -0.17347,-1.5452 -0.0531,-2.0314 0.875,-3.03125 1.01768,-1.09653 1.40366,-1.21875 4.34375,-1.21875 2.82401,0 3.32335,0.1114 4.1875,1.03125 0.53983,0.57466 1.08767,1.86672 1.21875,2.84375 0.34991,2.60876 1.24164,3.10807 1.59375,0.90625 0.302,-1.88868 0.68597,-2.12651 1.75,-1.0625 0.99996,0.99994 0.84718,3.33245 -0.4375,6.40625 -1.48714,3.55823 -1.93816,4.01094 -4.90625,4.84375 -3.24466,0.91042 -3.85301,0.84849 -5.9375,-0.25 -2.31901,-1.22207 -4.39215,-3.18335 -5.78125,-5.5625 -0.62865,-1.07667 -1.94602,-3.25727 -2.9375,-4.8125 -2.86372,-4.49201 -3.97946,-6.68747 -5.1875,-10.1875 -1.05535,-3.0576 -1.08524,-3.45174 -0.59375,-6 0.44203,-2.29182 0.78341,-2.97269 2.25,-4.34375 0.95978,-0.89723 1.94363,-1.65625 2.1875,-1.65625 0.24385,0 0.84978,-0.38647 1.34375,-0.84375 1.4669,-1.35809 8.40392,-4.70891 10.78125,-5.21875 0.90146,-0.19343 1.49696,-0.27556 1.96875,-0.25 z"
       id="rect3066" />
  </g>
</svg>
