<?xml version="1.0" encoding="UTF-8" standalone="no"?>
<!-- Created with Inkscape (http://www.inkscape.org/) -->

<svg
   xmlns:dc="http://purl.org/dc/elements/1.1/"
   xmlns:cc="http://creativecommons.org/ns#"
   xmlns:rdf="http://www.w3.org/1999/02/22-rdf-syntax-ns#"
   xmlns:svg="http://www.w3.org/2000/svg"
   xmlns="http://www.w3.org/2000/svg"
   xmlns:sodipodi="http://sodipodi.sourceforge.net/DTD/sodipodi-0.dtd"
   xmlns:inkscape="http://www.inkscape.org/namespaces/inkscape"
   width="800"
   height="400"
   id="svg2"
   version="1.1"
   inkscape:version="0.48.2 r9819"
   sodipodi:docname="fl-fill.svg">
  <defs
     id="defs4" />
  <sodipodi:namedview
     id="base"
     pagecolor="#ffffff"
     bordercolor="#666666"
     borderopacity="1.0"
     inkscape:pageopacity="0.0"
     inkscape:pageshadow="2"
     inkscape:zoom="2.8284271"
     inkscape:cx="649.24113"
     inkscape:cy="94.321822"
     inkscape:document-units="px"
     inkscape:current-layer="layer1"
     showgrid="false"
     showguides="true"
     inkscape:guide-bbox="true"
     inkscape:window-width="1024"
     inkscape:window-height="538"
     inkscape:window-x="-8"
     inkscape:window-y="-8"
     inkscape:window-maximized="1"
     width="0px"
     height="0px"
     fit-margin-top="0"
     fit-margin-left="0"
     fit-margin-right="0"
     fit-margin-bottom="0">
    <sodipodi:guide
       orientation="1,0"
       position="400.22244,349.31075"
       id="guide3178" />
  </sodipodi:namedview>
  <metadata
     id="metadata7">
    <rdf:RDF>
      <cc:Work
         rdf:about="">
        <dc:format>image/svg+xml</dc:format>
        <dc:type
           rdf:resource="http://purl.org/dc/dcmitype/StillImage" />
        <dc:title />
        <cc:license
           rdf:resource="" />
      </cc:Work>
    </rdf:RDF>
  </metadata>
  <g
     inkscape:label="Layer 1"
     inkscape:groupmode="layer"
     id="layer1"
     transform="translate(0,-652.36218)">
    <path
       id="rect4197"
       transform="translate(0,652.36218)"
       style="fill:#00ff00"
       d="m 532.625,290.53125 c -3.24404,-0.007 -8.55847,4.14022 -9.5,7.40625 -0.96475,3.34658 -0.33462,11.4231 1.25,15.96875 1.19025,3.41434 1.64777,3.60065 19.1875,7.15625 5.0738,1.02855 13.20177,1.2159 17.25,0.40625 1.743,-0.34859 3.3814,-1.34598 3.65625,-2.21875 0.27486,-0.87278 1.56802,-4.18669 2.875,-7.34375 1.30698,-3.15707 2.375,-7.61394 2.375,-9.9375 0,-4.23451 -2.36352,-10.46875 -3.96875,-10.46875 -0.47073,0 -4.04123,1.15703 -7.9375,2.5625 -8.01416,2.89086 -10.7892,2.72313 -18.3125,-1.09375 -2.64742,-1.34316 -5.7339,-2.4355 -6.875,-2.4375 z" />
  </g>
</svg>
