<?xml version="1.0" encoding="UTF-8" standalone="no"?>
<!-- Created with Inkscape (http://www.inkscape.org/) -->

<svg
   xmlns:dc="http://purl.org/dc/elements/1.1/"
   xmlns:cc="http://creativecommons.org/ns#"
   xmlns:rdf="http://www.w3.org/1999/02/22-rdf-syntax-ns#"
   xmlns:svg="http://www.w3.org/2000/svg"
   xmlns="http://www.w3.org/2000/svg"
   xmlns:sodipodi="http://sodipodi.sourceforge.net/DTD/sodipodi-0.dtd"
   xmlns:inkscape="http://www.inkscape.org/namespaces/inkscape"
   width="800"
   height="400"
   id="svg2"
   version="1.1"
   inkscape:version="0.48.2 r9819"
   sodipodi:docname="fl.svg">
  <defs
     id="defs4" />
  <sodipodi:namedview
     id="base"
     pagecolor="#ffffff"
     bordercolor="#666666"
     borderopacity="1.0"
     inkscape:pageopacity="0.0"
     inkscape:pageshadow="2"
     inkscape:zoom="2.8284271"
     inkscape:cx="649.24113"
     inkscape:cy="51.895415"
     inkscape:document-units="px"
     inkscape:current-layer="layer1"
     showgrid="false"
     showguides="true"
     inkscape:guide-bbox="true"
     inkscape:window-width="1366"
     inkscape:window-height="746"
     inkscape:window-x="-8"
     inkscape:window-y="-8"
     inkscape:window-maximized="1"
     width="0px"
     height="0px"
     fit-margin-top="0"
     fit-margin-left="0"
     fit-margin-right="0"
     fit-margin-bottom="0">
    <sodipodi:guide
       orientation="1,0"
       position="400.22244,349.31075"
       id="guide3178" />
  </sodipodi:namedview>
  <metadata
     id="metadata7">
    <rdf:RDF>
      <cc:Work
         rdf:about="">
        <dc:format>image/svg+xml</dc:format>
        <dc:type
           rdf:resource="http://purl.org/dc/dcmitype/StillImage" />
        <dc:title></dc:title>
        <cc:license
           rdf:resource="" />
      </cc:Work>
    </rdf:RDF>
  </metadata>
  <g
     inkscape:label="Layer 1"
     inkscape:groupmode="layer"
     id="layer1"
     transform="translate(0,-652.36218)">
    <path
       style="fill:#ff0000"
       d="m 532.625,942.89343 c 1.1411,0.002 4.22758,1.09434 6.875,2.4375 7.5233,3.81688 10.29834,3.98461 18.3125,1.09375 3.89627,-1.40547 7.46677,-2.5625 7.9375,-2.5625 1.60523,0 3.96875,6.23424 3.96875,10.46875 0,2.32356 -1.06802,6.78043 -2.375,9.9375 -1.30698,3.15706 -2.60014,6.47097 -2.875,7.34375 -0.27485,0.87277 -1.91325,1.87016 -3.65625,2.21875 -4.04823,0.80965 -12.1762,0.6223 -17.25,-0.40625 -17.53973,-3.5556 -17.99725,-3.74191 -19.1875,-7.15625 -1.58462,-4.54565 -2.21475,-12.62217 -1.25,-15.96875 0.94153,-3.26603 6.25596,-7.41325 9.5,-7.40625 z"
       id="path3659" />
  </g>
</svg>
