<?xml version="1.0" encoding="UTF-8" standalone="no"?>
<!-- Created with Inkscape (http://www.inkscape.org/) -->

<svg
   xmlns:dc="http://purl.org/dc/elements/1.1/"
   xmlns:cc="http://creativecommons.org/ns#"
   xmlns:rdf="http://www.w3.org/1999/02/22-rdf-syntax-ns#"
   xmlns:svg="http://www.w3.org/2000/svg"
   xmlns="http://www.w3.org/2000/svg"
   xmlns:sodipodi="http://sodipodi.sourceforge.net/DTD/sodipodi-0.dtd"
   xmlns:inkscape="http://www.inkscape.org/namespaces/inkscape"
   width="900"
   height="800"
   id="svg2"
   version="1.1"
   inkscape:version="0.48.2 r9819"
   sodipodi:docname="l22.svg">
  <defs
     id="defs4" />
  <sodipodi:namedview
     id="base"
     pagecolor="#ffffff"
     bordercolor="#666666"
     borderopacity="1.0"
     inkscape:pageopacity="0.0"
     inkscape:pageshadow="2"
     inkscape:zoom="2"
     inkscape:cx="239.0722"
     inkscape:cy="311.89423"
     inkscape:document-units="px"
     inkscape:current-layer="layer1"
     showgrid="false"
     showguides="true"
     inkscape:guide-bbox="true"
     inkscape:window-width="1366"
     inkscape:window-height="746"
     inkscape:window-x="-8"
     inkscape:window-y="-8"
     inkscape:window-maximized="1"
     width="0px"
     height="0px"
     fit-margin-top="0"
     fit-margin-left="0"
     fit-margin-right="0"
     fit-margin-bottom="0">
    <sodipodi:guide
       orientation="1,0"
       position="450,784"
       id="guide3178" />
    <sodipodi:guide
       orientation="0,1"
       position="-61,400"
       id="guide3180" />
  </sodipodi:namedview>
  <metadata
     id="metadata7">
    <rdf:RDF>
      <cc:Work
         rdf:about="">
        <dc:format>image/svg+xml</dc:format>
        <dc:type
           rdf:resource="http://purl.org/dc/dcmitype/StillImage" />
        <dc:title></dc:title>
      </cc:Work>
    </rdf:RDF>
  </metadata>
  <g
     inkscape:label="Layer 1"
     inkscape:groupmode="layer"
     id="layer1"
     transform="translate(0,-252.36218)">
    <path
       id="rect3180"
       transform="translate(0,252.36218)"
       style="fill:#ff0000"
       d="m 359.53125,462.28125 c -0.86946,0.0138 -1.28679,0.36706 -2.1875,1.4375 -0.87551,1.04047 -1.28547,1.95865 -1.125,2.625 0.13625,0.5658 0.38895,2.7214 0.5625,4.75 0.17352,2.0286 0.44165,4.00055 0.59375,4.40625 0.15205,0.40571 0.30974,1.06304 0.375,1.46875 0.0651,0.40572 0.65097,3.41168 1.25,6.65625 1.55691,8.44132 1.55329,26.30284 0,31.71875 -0.27008,0.94176 -0.52205,3.34467 -0.53125,5.375 -0.009,2.03041 -0.33656,5.48017 -0.71875,7.625 -0.38206,2.14484 -0.60431,4.01865 -0.5,4.1875 0.24901,0.40287 -0.61026,4.43042 -1.21875,5.6875 -0.73192,1.512 -1.4621,6.26692 -1.96875,13 -0.25311,3.36342 -0.70959,6.72346 -1.03125,7.5 -0.66571,1.60711 -0.32942,8.53741 0.53125,10.96875 0.85873,2.42582 2.84889,3.28125 7.78125,3.28125 2.60683,3.4e-4 5.51875,0.3653 7.46875,0.90625 1.75808,0.48788 3.79238,0.87832 4.53125,0.90625 1.7236,0.0649 4.05649,-1.36503 5.5625,-3.40625 1.31454,-1.78173 2.48278,-6.45582 1.9375,-7.75 -0.40723,-0.96667 -1.0623,-6.40769 -1.5,-12.375 -0.16864,-2.299 -0.48488,-4.38572 -0.6875,-4.65625 -0.20259,-0.27042 -0.508,-2.30495 -0.6875,-4.46875 -0.55439,-6.6842 -0.82774,-9.66265 -1.34375,-14 -0.898,-7.54788 -1.35374,-13.91335 -1.40625,-20.15625 -0.0841,-10.00771 -2.40282,-25.74832 -4.34375,-29.375 -0.30629,-0.57231 -0.59375,-1.41727 -0.59375,-1.84375 0,-0.42644 -0.39853,-1.72841 -0.90625,-2.875 -0.50771,-1.14657 -1.24932,-3.03284 -1.6875,-4.25 -1.7233,-4.78697 -3.70601,-6.79141 -7.125,-7.25 -0.42158,-0.0566 -0.74143,-0.0983 -1.03125,-0.0937 z m 2.0625,1.90625 c 1.41791,0 3.65451,2.88224 4.5,5.78125 0.45549,1.56162 1.23976,4.15839 1.75,5.78125 2.95181,9.38814 4.50546,20.25509 5.4375,38.84375 0.27127,5.4096 0.61048,11.6748 0.78125,13.90625 0.34358,4.49059 0.0386,4.85832 -2.34375,3 -1.9994,-1.55968 -4.89073,-1.71202 -8.03125,-0.4375 -1.48031,0.60092 -2.92176,0.93347 -3.21875,0.75 -0.55887,-0.34544 -0.30206,-6.78678 0.3125,-7.78125 0.4046,-0.65468 1.09185,-9.79095 1.46875,-19.78125 0.45117,-11.95886 -0.70662,-21.58608 -3.5625,-30.125 -0.38765,-1.15904 -0.65625,-3.40496 -0.65625,-5 0,-2.63969 0.0749,-3.01173 1.375,-3.9375 0.78557,-0.5594 1.77674,-1 2.1875,-1 z m 5.875,67.625 c 0.17483,-0.0156 0.3317,-0.005 0.5,0 0.3847,0.0132 0.71991,0.0884 1.0625,0.21875 1.5908,0.60482 4.61179,4.3076 5,6.125 0.18102,0.84731 0.48031,1.72947 0.6875,2 0.4124,0.53832 0.48108,0.82651 1.9375,10.84375 0.55056,3.78663 1.21434,8.10862 1.5,9.59375 0.28996,1.50739 0.369,4.27818 0.1875,6.28125 -0.27436,3.02754 -0.52807,3.74871 -1.5625,4.5625 -1.31113,1.03124 -3.21786,1.10445 -7,0.375 -1.21716,-0.23482 -4.78994,-0.59356 -7.96875,-0.8125 -3.17882,-0.21907 -5.98905,-0.61391 -6.25,-0.875 -0.261,-0.26078 -0.347,-0.95205 -0.1875,-1.5625 0.27226,-1.04111 0.34785,-1.06838 0.96875,-0.25 0.88363,1.16437 0.83278,0.41891 -0.0625,-1.3125 -0.53537,-1.03536 -0.59632,-1.79242 -0.25,-3 0.25623,-0.89351 0.37831,-1.74715 0.25,-1.875 -0.12824,-0.12808 -0.0572,-0.45477 0.1875,-0.75 0.61755,-0.7452 4.66951,-10.32208 5.625,-13.3125 0.43211,-1.35256 0.94504,-3.64264 1.125,-5.0625 0.45919,-3.62318 -0.49853,-3.33545 -1.6875,0.5 -0.52403,1.6905 -1.31101,4.06413 -1.71875,5.28125 -0.40772,1.21722 -1.33883,4.14885 -2.09375,6.5 -0.75493,2.35139 -1.56442,4.12119 -1.8125,3.96875 -0.26044,-0.16082 -0.32876,-1.86596 -0.125,-4.03125 0.19406,-2.06258 0.40546,-4.40741 0.46875,-5.21875 0.26294,-3.3685 1.90352,-9.46637 3.09375,-11.53125 2.18074,-3.78345 5.50249,-6.42127 8.125,-6.65625 z m 2.3125,7.90625 c -0.1717,0.0425 -0.11964,0.43277 0.25,1.25 0.40606,0.89787 1.64511,6.09028 2.75,11.5 2.66444,13.04526 2.61359,12.73258 1.96875,13.9375 -0.3243,0.60609 -0.33388,1.0625 -0.0625,1.0625 1.04362,0 1.63356,-3.45508 1.09375,-6.3125 -0.28874,-1.52829 -0.76248,-5.12869 -1.0625,-7.96875 -0.30005,-2.84007 -0.68339,-5.46929 -0.84375,-5.875 -0.16003,-0.40575 -0.27734,-0.87548 -0.25,-1.03125 0.11984,-0.68501 -1.22774,-3.77634 -2.125,-4.90625 -0.81881,-1.03115 -1.35128,-1.58913 -1.625,-1.65625 -0.0342,-0.008 -0.0692,-0.006 -0.0937,0 z" />
  </g>
</svg>
