<?xml version="1.0" encoding="UTF-8" standalone="no"?>
<!-- Created with Inkscape (http://www.inkscape.org/) -->

<svg
   xmlns:dc="http://purl.org/dc/elements/1.1/"
   xmlns:cc="http://creativecommons.org/ns#"
   xmlns:rdf="http://www.w3.org/1999/02/22-rdf-syntax-ns#"
   xmlns:svg="http://www.w3.org/2000/svg"
   xmlns="http://www.w3.org/2000/svg"
   xmlns:sodipodi="http://sodipodi.sourceforge.net/DTD/sodipodi-0.dtd"
   xmlns:inkscape="http://www.inkscape.org/namespaces/inkscape"
   width="800"
   height="400"
   id="svg2"
   version="1.1"
   inkscape:version="0.48.2 r9819"
   sodipodi:docname="f23.svg">
  <defs
     id="defs4" />
  <sodipodi:namedview
     id="base"
     pagecolor="#ffffff"
     bordercolor="#666666"
     borderopacity="1.0"
     inkscape:pageopacity="0.0"
     inkscape:pageshadow="2"
     inkscape:zoom="2.8284271"
     inkscape:cx="413.2512"
     inkscape:cy="87.887328"
     inkscape:document-units="px"
     inkscape:current-layer="layer1"
     showgrid="false"
     showguides="true"
     inkscape:guide-bbox="true"
     inkscape:window-width="1366"
     inkscape:window-height="746"
     inkscape:window-x="-8"
     inkscape:window-y="-8"
     inkscape:window-maximized="1"
     width="0px"
     height="0px"
     fit-margin-top="0"
     fit-margin-left="0"
     fit-margin-right="0"
     fit-margin-bottom="0">
    <sodipodi:guide
       orientation="1,0"
       position="400.22244,349.31075"
       id="guide3178" />
    <sodipodi:guide
       orientation="0,1"
       position="655.48799,210.71782"
       id="guide3180" />
  </sodipodi:namedview>
  <metadata
     id="metadata7">
    <rdf:RDF>
      <cc:Work
         rdf:about="">
        <dc:format>image/svg+xml</dc:format>
        <dc:type
           rdf:resource="http://purl.org/dc/dcmitype/StillImage" />
        <dc:title></dc:title>
      </cc:Work>
    </rdf:RDF>
  </metadata>
  <g
     inkscape:label="Layer 1"
     inkscape:groupmode="layer"
     id="layer1"
     transform="translate(0,-652.36218)">
    <path
       id="rect3691"
       transform="translate(0,652.36218)"
       style="fill:#ff0000"
       d="m 463.03125,282.1875 c -5.74572,0.042 -5.50239,0.61735 -5.6875,6.46875 -0.16071,5.0785 0.79699,14.1598 1.9375,18.625 0.45047,1.7637 0.625,5.0772 0.625,11.75 -0.004,11.9667 0.73086,28.21855 1.53125,33.21875 2.08724,13.0395 2.55997,14.4998 6.28125,21.5 2.66737,5.0175 4.30635,7.2089 5.90625,7.875 1.16872,0.4865 4.61691,0.51215 5.375,0.0312 0.83957,-0.5314 0.4248,-4.07675 -1,-8.53125 -2.33107,-7.2878 -3.04732,-17.5889 -2.40625,-33.9375 0.64782,-16.5188 1.38005,-24.1373 2.53125,-26 1.10617,-1.7897 3.06421,-11.0588 3.40625,-16.1875 0.36473,-5.4691 -0.20967,-11.39715 -1.15625,-12.34375 -1.48803,-1.4881 -7.10159,-2.46875 -14.46875,-2.46875 -1.08378,9e-4 -2.05418,-0.0109 -2.875,0 z m -2.1875,1.90625 5.5,0.28125 c 5.61099,0.2897 9.40141,0.9233 11.65625,2 1.16998,0.5588 1.29474,0.82465 1.5,3.65625 0.30834,4.2542 -0.24552,10.26385 -1.25,13.65625 -0.46745,1.5786 -1.49848,5.1787 -2.28125,8 -1.27072,4.5798 -1.60644,5.31255 -3.09375,6.65625 -1.72488,1.5583 -3.3736,1.8818 -5.40625,1.0625 -1.08696,-0.4383 -4.10273,-4.28965 -5.09375,-6.53125 -1.03917,-2.3505 -1.94402,-9.8813 -2.71875,-22.0625 -0.24071,-3.785 -0.19986,-4.5897 0.4375,-5.5625 l 0.75,-1.15625 z m 1.4375,33.28125 c 0.39618,0.057 1.33212,0.7874 2.28125,1.75 2.25892,2.2912 3.89449,2.7636 7.125,2.125 1.17859,-0.2325 2.21966,-0.3121 2.34375,-0.1875 0.36043,0.3604 0.25516,3.63375 -0.1875,5.53125 -0.58459,2.5067 -0.63427,29.31385 -0.0625,36.71875 0.45936,5.9471 1.19336,9.27895 2.84375,13.15625 0.37864,0.8896 0.6875,2.1443 0.6875,2.75 0,0.9954 -0.17796,1.0625 -1.75,1.0625 -2.21151,0 -3.98588,-1.69075 -5.09375,-4.90625 -0.33884,-0.9838 -0.77103,-2.0089 -0.96875,-2.25 -0.59717,-0.7284 -3.53806,-9.7369 -4.65625,-14.3125 -0.57651,-2.359 -1.41637,-8.1132 -1.875,-12.8125 -1.00504,-10.2963 -1.53289,-28.16785 -0.84375,-28.59375 0.0321,-0.019 0.0997,-0.0403 0.15625,-0.0312 z" />
  </g>
</svg>
