<?xml version="1.0" encoding="UTF-8" standalone="no"?>
<!-- Created with Inkscape (http://www.inkscape.org/) -->

<svg
   xmlns:dc="http://purl.org/dc/elements/1.1/"
   xmlns:cc="http://creativecommons.org/ns#"
   xmlns:rdf="http://www.w3.org/1999/02/22-rdf-syntax-ns#"
   xmlns:svg="http://www.w3.org/2000/svg"
   xmlns="http://www.w3.org/2000/svg"
   xmlns:sodipodi="http://sodipodi.sourceforge.net/DTD/sodipodi-0.dtd"
   xmlns:inkscape="http://www.inkscape.org/namespaces/inkscape"
   width="800"
   height="700"
   id="svg2"
   version="1.1"
   inkscape:version="0.48.2 r9819"
   sodipodi:docname="l22.svg">
  <defs
     id="defs4" />
  <sodipodi:namedview
     id="base"
     pagecolor="#ffffff"
     bordercolor="#666666"
     borderopacity="1.0"
     inkscape:pageopacity="0.0"
     inkscape:pageshadow="2"
     inkscape:zoom="2.5"
     inkscape:cx="305.9394"
     inkscape:cy="214.4269"
     inkscape:document-units="px"
     inkscape:current-layer="layer1"
     showgrid="false"
     showguides="true"
     inkscape:guide-bbox="true"
     inkscape:window-width="1366"
     inkscape:window-height="746"
     inkscape:window-x="-8"
     inkscape:window-y="-8"
     inkscape:window-maximized="1"
     width="0px"
     height="0px"
     fit-margin-top="0"
     fit-margin-left="0"
     fit-margin-right="0"
     fit-margin-bottom="0">
    <sodipodi:guide
       orientation="1,0"
       position="400.22244,349.31075"
       id="guide3178" />
    <sodipodi:guide
       orientation="0,1"
       position="400.22244,349.31075"
       id="guide3180" />
  </sodipodi:namedview>
  <metadata
     id="metadata7">
    <rdf:RDF>
      <cc:Work
         rdf:about="">
        <dc:format>image/svg+xml</dc:format>
        <dc:type
           rdf:resource="http://purl.org/dc/dcmitype/StillImage" />
        <dc:title></dc:title>
      </cc:Work>
    </rdf:RDF>
  </metadata>
  <g
     inkscape:label="Layer 1"
     inkscape:groupmode="layer"
     id="layer1"
     transform="translate(0,-352.36218)">
    <path
       id="rect3278"
       transform="translate(0,352.36218)"
       style="fill:#ff0000"
       d="m 319,408.90625 c -0.76912,0.0122 -1.14074,0.33434 -1.9375,1.28125 -0.77448,0.9204 -1.14196,1.72304 -1,2.3125 0.12053,0.5005 0.37772,2.393 0.53125,4.1875 0.15349,1.79451 0.36546,3.54736 0.5,3.90625 0.13451,0.35889 0.28601,0.9536 0.34375,1.3125 0.0576,0.3589 0.56385,3.00485 1.09375,5.875 1.37725,7.4672 1.37404,23.27157 0,28.0625 -0.23891,0.83307 -0.46061,2.95397 -0.46875,4.75 -0.008,1.79611 -0.28692,4.85268 -0.625,6.75 -0.33797,1.89733 -0.52977,3.56938 -0.4375,3.71875 0.22027,0.35638 -0.55548,3.88799 -1.09375,5 -0.64745,1.33752 -1.30182,5.54391 -1.75,11.5 -0.22391,2.97529 -0.62172,5.93807 -0.90625,6.625 -0.58889,1.42166 -0.29261,7.56798 0.46875,9.71875 0.75963,2.14589 2.54308,2.90625 6.90625,2.90625 2.306,3e-4 4.86878,0.30273 6.59375,0.78125 1.5552,0.43157 3.3464,0.81905 4,0.84375 1.5247,0.0575 3.60528,-1.2256 4.9375,-3.03125 1.16284,-1.57613 2.16986,-5.69893 1.6875,-6.84375 -0.36023,-0.85513 -0.92531,-5.69006 -1.3125,-10.96875 -0.14918,-2.03371 -0.44576,-3.88568 -0.625,-4.125 -0.17921,-0.2392 -0.43497,-2.02339 -0.59375,-3.9375 -0.49041,-5.91285 -0.73104,-8.53819 -1.1875,-12.375 -0.79437,-6.67686 -1.20355,-12.32128 -1.25,-17.84375 -0.0743,-8.85284 -2.12679,-22.79183 -3.84375,-26 -0.27094,-0.50626 -0.5,-1.21648 -0.5,-1.59375 0,-0.37723 -0.39463,-1.54823 -0.84375,-2.5625 -0.44913,-1.01426 -1.08113,-2.70454 -1.46875,-3.78125 -1.52443,-4.23455 -3.28805,-6.00058 -6.3125,-6.40625 -0.37292,-0.0502 -0.64987,-0.0666 -0.90625,-0.0625 z m 1.84375,1.6875 c 1.25428,0 3.22083,2.52927 3.96875,5.09375 0.40293,1.3814 1.11114,3.68941 1.5625,5.125 2.61117,8.30475 3.95677,17.93144 4.78125,34.375 0.23997,4.78533 0.53644,10.30731 0.6875,12.28125 0.30393,3.97239 0.0449,4.30013 -2.0625,2.65625 -1.76867,-1.37969 -4.31564,-1.50243 -7.09375,-0.375 -1.30947,0.53158 -2.61229,0.81855 -2.875,0.65625 -0.49438,-0.30557 -0.26239,-5.99528 0.28125,-6.875 0.35791,-0.57912 0.9791,-8.66256 1.3125,-17.5 0.39911,-10.57882 -0.62993,-19.10272 -3.15625,-26.65625 -0.34291,-1.02528 -0.59375,-3.02653 -0.59375,-4.4375 0,-2.33508 0.0998,-2.6498 1.25,-3.46875 0.69491,-0.49484 1.57414,-0.875 1.9375,-0.875 z M 326,470.40625 c 0.15465,-0.0138 0.31988,-0.005 0.46875,0 0.3403,0.0117 0.63444,0.0724 0.9375,0.1875 1.40723,0.53503 4.06284,3.79857 4.40625,5.40625 0.16014,0.74954 0.44171,1.54194 0.625,1.78125 0.3648,0.4762 0.43039,0.73249 1.71875,9.59375 0.48702,3.34966 1.05981,7.15499 1.3125,8.46875 0.2565,1.33343 0.31681,3.79059 0.15625,5.5625 -0.2427,2.67817 -0.4287,3.31136 -1.34375,4.03125 -1.15983,0.91223 -2.87306,0.98903 -6.21875,0.34375 -1.0767,-0.20772 -4.21928,-0.52507 -7.03125,-0.71875 -2.81199,-0.19379 -5.30042,-0.51904 -5.53125,-0.75 -0.23088,-0.23069 -0.32859,-0.86624 -0.1875,-1.40625 0.24084,-0.92098 0.2945,-0.94269 0.84375,-0.21875 0.78166,1.03 0.76075,0.37536 -0.0312,-1.15625 -0.47359,-0.91588 -0.5251,-1.58802 -0.21875,-2.65625 0.22667,-0.79039 0.33226,-1.54316 0.21875,-1.65625 -0.11343,-0.11331 -0.0602,-0.39509 0.15625,-0.65625 0.5463,-0.65921 4.15478,-9.13593 5,-11.78125 0.38224,-1.19647 0.80956,-3.24399 0.96875,-4.5 0.4062,-3.20507 -0.41698,-2.9241 -1.46875,0.46875 -0.46355,1.49541 -1.17057,3.57958 -1.53125,4.65625 -0.36068,1.07675 -1.17595,3.67017 -1.84375,5.75 -0.66782,2.08004 -1.40556,3.6661 -1.625,3.53125 -0.2304,-0.14226 -0.27403,-1.64708 -0.0937,-3.5625 0.17165,-1.82457 0.35026,-3.90728 0.40625,-4.625 0.2326,-2.97978 1.69712,-8.39215 2.75,-10.21875 1.92908,-3.34684 4.83637,-5.66713 7.15625,-5.875 z m 2.125,7 c -0.24213,-0.0591 -0.18619,0.26755 0.1875,1.09375 0.35921,0.79426 1.42886,5.40207 2.40625,10.1875 2.35697,11.53985 2.32043,11.24663 1.75,12.3125 -0.28687,0.53615 -0.30256,0.9375 -0.0625,0.9375 0.9232,0 1.44627,-3.03482 0.96875,-5.5625 -0.25542,-1.35192 -0.6721,-4.55019 -0.9375,-7.0625 -0.26542,-2.51232 -0.60814,-4.85985 -0.75,-5.21875 -0.14156,-0.35892 -0.24293,-0.73722 -0.21875,-0.875 0.10601,-0.60597 -1.08128,-3.34424 -1.875,-4.34375 -0.72432,-0.91217 -1.22661,-1.40939 -1.46875,-1.46875 z" />
  </g>
</svg>
