<?xml version="1.0" encoding="UTF-8" standalone="no"?>
<!-- Created with Inkscape (http://www.inkscape.org/) -->

<svg
   xmlns:dc="http://purl.org/dc/elements/1.1/"
   xmlns:cc="http://creativecommons.org/ns#"
   xmlns:rdf="http://www.w3.org/1999/02/22-rdf-syntax-ns#"
   xmlns:svg="http://www.w3.org/2000/svg"
   xmlns="http://www.w3.org/2000/svg"
   xmlns:sodipodi="http://sodipodi.sourceforge.net/DTD/sodipodi-0.dtd"
   xmlns:inkscape="http://www.inkscape.org/namespaces/inkscape"
   width="900"
   height="800"
   id="svg2"
   version="1.1"
   inkscape:version="0.48.2 r9819"
   sodipodi:docname="m23.svg">
  <defs
     id="defs4" />
  <sodipodi:namedview
     id="base"
     pagecolor="#ffffff"
     bordercolor="#666666"
     borderopacity="1.0"
     inkscape:pageopacity="0.0"
     inkscape:pageshadow="2"
     inkscape:zoom="2"
     inkscape:cx="239.0722"
     inkscape:cy="131.89423"
     inkscape:document-units="px"
     inkscape:current-layer="layer1"
     showgrid="false"
     showguides="true"
     inkscape:guide-bbox="true"
     inkscape:window-width="1366"
     inkscape:window-height="746"
     inkscape:window-x="-8"
     inkscape:window-y="-8"
     inkscape:window-maximized="1"
     width="0px"
     height="0px"
     fit-margin-top="0"
     fit-margin-left="0"
     fit-margin-right="0"
     fit-margin-bottom="0">
    <sodipodi:guide
       orientation="1,0"
       position="450,784"
       id="guide3178" />
    <sodipodi:guide
       orientation="0,1"
       position="-61,400"
       id="guide3180" />
  </sodipodi:namedview>
  <metadata
     id="metadata7">
    <rdf:RDF>
      <cc:Work
         rdf:about="">
        <dc:format>image/svg+xml</dc:format>
        <dc:type
           rdf:resource="http://purl.org/dc/dcmitype/StillImage" />
        <dc:title></dc:title>
      </cc:Work>
    </rdf:RDF>
  </metadata>
  <g
     inkscape:label="Layer 1"
     inkscape:groupmode="layer"
     id="layer1"
     transform="translate(0,-252.36218)">
    <path
       id="rect3188"
       transform="translate(0,252.36218)"
       style="fill:#ff0000"
       d="m 358.625,650.40625 c -5.86211,0.1799 -8.6209,1.38028 -9.46875,3.8125 -1.23166,3.53311 -0.52489,9.37509 2.53125,21.1875 0.55984,2.16391 1.10381,4.59478 1.21875,5.40625 0.54915,3.87923 1.76425,11.13117 2.28125,13.78125 0.36321,1.86156 0.51389,7.11418 0.4375,14.25 -0.44297,41.40246 -0.35492,45.21015 1.28125,47.09375 1.83556,2.1125 5.26317,0.3398 7.9375,-4.125 1.11588,-1.863 1.99655,-3.6655 2,-4 0.004,-0.33463 0.55314,-2.32208 1.21875,-4.40625 2.12008,-6.63796 2.6466,-12.20553 3.5,-38.96875 0.15525,-4.86852 0.47653,-10.30433 0.71875,-12.0625 0.90145,-6.54341 1.51931,-10.10663 1.9375,-11.0625 0.23663,-0.54097 0.67172,-3.03075 0.96875,-5.53125 0.297,-2.50037 0.76688,-5.11727 1.03125,-5.8125 0.26433,-0.69534 0.46875,-4.03213 0.46875,-7.40625 0,-5.10368 -0.14281,-6.44229 -0.9375,-8 -1.63082,-3.19664 -2.79255,-3.62344 -10.84375,-4.03125 -1.28759,-0.0652 -2.48767,-0.10876 -3.59375,-0.125 -0.96785,-0.0138 -1.85008,-0.0257 -2.6875,0 z m 0.40625,2.21875 c 0.96422,-0.005 2.03823,0.007 3.1875,0.0312 12.56825,0.27157 13.21148,1.21673 11.21875,15.375 -0.64715,4.59811 -1.66006,10.73545 -2.25,13.65625 -0.97731,4.8388 -1.21936,5.51078 -2.9375,7.28125 -2.37239,2.44467 -4.32958,2.58924 -7.125,0.53125 -3.49867,-2.57574 -4.44107,-4.0159 -5.34375,-7.9375 -0.46689,-2.02859 -1.36612,-5.57598 -2,-7.875 -1.18538,-4.29933 -2.65625,-13.17396 -2.65625,-16.03125 0,-2.26581 0.88167,-3.96216 2.40625,-4.59375 0.61092,-0.25243 2.60731,-0.42346 5.5,-0.4375 z M 357.75,690 c 0.59756,-0.0587 1.64284,0.42136 3.28125,1.21875 3.54645,1.72599 4.71201,1.85982 7.6875,0.90625 l 1.0625,-0.375 -0.25,7.59375 c -0.14839,4.15619 -0.49315,11.3564 -0.75,16.03125 -0.25682,4.67485 -0.46875,10.35081 -0.46875,12.59375 0,6.60648 -3.44872,20.5207 -6.15625,24.75 -1.09667,1.7129 -2.45951,2.25915 -3.375,1.34375 -0.4241,-0.4242 -0.92224,-1.3164 -1.09375,-2 -0.17161,-0.6835 -0.14923,-10.1395 0.0625,-21 0.5432,-27.87957 0.56419,-29.4899 -0.1875,-35.0625 -0.57801,-4.28385 -0.80846,-5.90219 0.1875,-6 z" />
  </g>
</svg>
