<?xml version="1.0" encoding="UTF-8" standalone="no"?>
<!-- Created with Inkscape (http://www.inkscape.org/) -->

<svg
   xmlns:dc="http://purl.org/dc/elements/1.1/"
   xmlns:cc="http://creativecommons.org/ns#"
   xmlns:rdf="http://www.w3.org/1999/02/22-rdf-syntax-ns#"
   xmlns:svg="http://www.w3.org/2000/svg"
   xmlns="http://www.w3.org/2000/svg"
   xmlns:sodipodi="http://sodipodi.sourceforge.net/DTD/sodipodi-0.dtd"
   xmlns:inkscape="http://www.inkscape.org/namespaces/inkscape"
   width="900"
   height="800"
   id="svg2"
   version="1.1"
   inkscape:version="0.48.2 r9819"
   sodipodi:docname="f23.svg">
  <defs
     id="defs4" />
  <sodipodi:namedview
     id="base"
     pagecolor="#ffffff"
     bordercolor="#666666"
     borderopacity="1.0"
     inkscape:pageopacity="0.0"
     inkscape:pageshadow="2"
     inkscape:zoom="2"
     inkscape:cx="239.0722"
     inkscape:cy="131.89423"
     inkscape:document-units="px"
     inkscape:current-layer="layer1"
     showgrid="false"
     showguides="true"
     inkscape:guide-bbox="true"
     inkscape:window-width="1366"
     inkscape:window-height="746"
     inkscape:window-x="-8"
     inkscape:window-y="-8"
     inkscape:window-maximized="1"
     width="0px"
     height="0px"
     fit-margin-top="0"
     fit-margin-left="0"
     fit-margin-right="0"
     fit-margin-bottom="0">
    <sodipodi:guide
       orientation="1,0"
       position="450,784"
       id="guide3178" />
    <sodipodi:guide
       orientation="0,1"
       position="-61,400"
       id="guide3180" />
  </sodipodi:namedview>
  <metadata
     id="metadata7">
    <rdf:RDF>
      <cc:Work
         rdf:about="">
        <dc:format>image/svg+xml</dc:format>
        <dc:type
           rdf:resource="http://purl.org/dc/dcmitype/StillImage" />
        <dc:title></dc:title>
      </cc:Work>
    </rdf:RDF>
  </metadata>
  <g
     inkscape:label="Layer 1"
     inkscape:groupmode="layer"
     id="layer1"
     transform="translate(0,-252.36218)">
    <path
       id="rect3184"
       transform="translate(0,252.36218)"
       style="fill:#ff0000"
       d="m 365.40625,606.8125 c -1.76705,0 -2.86221,0.33242 -4.625,1.5 -1.26993,0.84124 -2.53848,1.988 -2.8125,2.5 -0.27405,0.51212 -1.9613,1.92606 -3.78125,3.125 -6.7442,4.44317 -7.06215,5.59129 -3.25,13.5625 3.14435,6.57477 6.09497,9.75083 10.03125,10.90625 4.52726,1.32876 6.63809,1.09014 11.21875,-1.125 3.83811,-1.85592 6.96875,-4.22232 6.96875,-5.3125 0,-0.26881 0.21487,-0.56089 0.5,-0.65625 0.28514,-0.0951 0.73068,-1.14502 1,-2.34375 0.6451,-2.87107 -0.36619,-6.10876 -3.28125,-10.28125 -1.19452,-1.70981 -2.49247,-3.9112 -2.90625,-4.90625 -2.05901,-4.95056 -4.70071,-6.96875 -9.0625,-6.96875 z m 0.53125,1.46875 c 1.24668,-0.0491 2.50169,0.26655 3.28125,0.8125 0.61546,0.43114 2.01055,2.65653 3.09375,4.96875 1.08319,2.31221 2.49531,4.87809 3.125,5.71875 4.28692,5.72228 4.15318,10.12473 -0.34375,13.46875 -0.46276,0.34417 -1.11735,0.91789 -1.46875,1.25 -0.35139,0.33188 -1.9075,1.19346 -3.46875,1.9375 -1.57353,0.74968 -3.6713,1.32202 -4.6875,1.3125 -2.37163,-0.0222 -6.58457,-1.97658 -8.5625,-4 -1.7182,-1.7576 -5.78125,-10.50335 -5.78125,-12.4375 0,-1.46616 1.0046,-1.5742 4.6875,-0.53125 1.33386,0.37771 4.90316,1.14541 7.90625,1.75 4.45941,0.89743 6.17191,1.03501 9.34375,0.71875 4.48647,-0.44698 3.58978,-1.05794 -1.75,-1.1875 -1.7581,-0.0426 -4.76289,-0.49983 -6.65625,-1.03125 -7.04367,-1.97677 -10.09375,-3.04369 -10.09375,-3.53125 0,-0.65178 8.02766,-8.30476 9.21875,-8.78125 0.64963,-0.2596 1.40825,-0.40802 2.15625,-0.4375 z" />
  </g>
</svg>
