<?xml version="1.0" encoding="UTF-8" standalone="no"?>
<!-- Created with Inkscape (http://www.inkscape.org/) -->

<svg
   xmlns:dc="http://purl.org/dc/elements/1.1/"
   xmlns:cc="http://creativecommons.org/ns#"
   xmlns:rdf="http://www.w3.org/1999/02/22-rdf-syntax-ns#"
   xmlns:svg="http://www.w3.org/2000/svg"
   xmlns="http://www.w3.org/2000/svg"
   xmlns:sodipodi="http://sodipodi.sourceforge.net/DTD/sodipodi-0.dtd"
   xmlns:inkscape="http://www.inkscape.org/namespaces/inkscape"
   width="800"
   height="400"
   id="svg2"
   version="1.1"
   inkscape:version="0.48.2 r9819"
   sodipodi:docname="me.svg">
  <defs
     id="defs4" />
  <sodipodi:namedview
     id="base"
     pagecolor="#ffffff"
     bordercolor="#666666"
     borderopacity="1.0"
     inkscape:pageopacity="0.0"
     inkscape:pageshadow="2"
     inkscape:zoom="2.8284271"
     inkscape:cx="503.56353"
     inkscape:cy="311.61376"
     inkscape:document-units="px"
     inkscape:current-layer="layer1"
     showgrid="false"
     showguides="true"
     inkscape:guide-bbox="true"
     inkscape:window-width="1366"
     inkscape:window-height="746"
     inkscape:window-x="-8"
     inkscape:window-y="-8"
     inkscape:window-maximized="1"
     width="0px"
     height="0px"
     fit-margin-top="0"
     fit-margin-left="0"
     fit-margin-right="0"
     fit-margin-bottom="0">
    <sodipodi:guide
       orientation="1,0"
       position="400.22244,349.31075"
       id="guide3178" />
  </sodipodi:namedview>
  <metadata
     id="metadata7">
    <rdf:RDF>
      <cc:Work
         rdf:about="">
        <dc:format>image/svg+xml</dc:format>
        <dc:type
           rdf:resource="http://purl.org/dc/dcmitype/StillImage" />
        <dc:title></dc:title>
        <cc:license
           rdf:resource="" />
      </cc:Work>
    </rdf:RDF>
  </metadata>
  <g
     inkscape:label="Layer 1"
     inkscape:groupmode="layer"
     id="layer1"
     transform="translate(0,-652.36218)">
    <path
       id="rect3055"
       transform="translate(0,652.36218)"
       style="fill:#ff0000"
       d="m 429.15625,27.9375 c -1.44373,0.03436 -3.02139,0.95452 -4.25,2.75 -1.79023,2.61625 -2.37178,4.21254 -5.71875,16.0625 -0.84326,2.98558 -1.92765,12.07628 -2.4375,20.21875 -0.50986,8.14247 -1.40984,16.35009 -2,18.25 -2.86905,9.23641 -3.9375,14.36895 -3.9375,19.21875 0,4.63058 0.34644,5.54257 2.71875,7.3125 2.33073,1.73892 4.2115,2.0357 13.21875,2.0625 11.7815,0.0351 12.5251,-0.35107 13.375,-6.6875 0.63682,-4.74785 -2.27164,-20.13317 -4.75,-25.0625 -1.6371,-3.25612 -1.84375,-6.1806 -1.84375,-26.34375 0,-12.47141 -0.43935,-23.79508 -0.96875,-25.1875 -0.6655,-1.75041 -1.96252,-2.628105 -3.40625,-2.59375 z m 0,2.5 c 0.34433,-0.06972 0.6677,0.09471 0.9375,0.53125 0.98336,1.59111 1.88951,48.34375 0.9375,48.34375 -0.44668,0 -1.6301,-0.72463 -2.625,-1.625 -1.58366,-1.43319 -2.12735,-1.4707 -4.5,-0.28125 -1.49059,0.74725 -3.06162,1.52039 -3.46875,1.71875 -1.06842,0.52056 -0.8582,-13.92684 0.3125,-22.03125 2.02121,-13.992195 5.99597,-26.168174 8.40625,-26.65625 z M 426.5,78.46875 430.9375,82.375 c 4.02475,3.54273 4.47871,4.39091 5.03125,9.53125 0.33409,3.10808 0.99118,7.39453 1.46875,9.5 1.14953,5.06784 -0.11117,8.01935 -4,9.375 -4.02085,1.40167 -12.63098,1.38414 -15.21875,-0.0312 -4.84514,-2.6501 -5.45559,-6.20469 -2.9375,-17.0625 2.10939,-9.09547 3.12012,-10.88301 7.4375,-13.1875 L 426.5,78.46875 z" />
  </g>
</svg>
