<?xml version="1.0" encoding="UTF-8" standalone="no"?>
<!-- Created with Inkscape (http://www.inkscape.org/) -->

<svg
   xmlns:dc="http://purl.org/dc/elements/1.1/"
   xmlns:cc="http://creativecommons.org/ns#"
   xmlns:rdf="http://www.w3.org/1999/02/22-rdf-syntax-ns#"
   xmlns:svg="http://www.w3.org/2000/svg"
   xmlns="http://www.w3.org/2000/svg"
   xmlns:sodipodi="http://sodipodi.sourceforge.net/DTD/sodipodi-0.dtd"
   xmlns:inkscape="http://www.inkscape.org/namespaces/inkscape"
   width="800"
   height="400"
   id="svg2"
   version="1.1"
   inkscape:version="0.48.2 r9819"
   sodipodi:docname="ff.svg">
  <defs
     id="defs4" />
  <sodipodi:namedview
     id="base"
     pagecolor="#ffffff"
     bordercolor="#666666"
     borderopacity="1.0"
     inkscape:pageopacity="0.0"
     inkscape:pageshadow="2"
     inkscape:zoom="2.8284271"
     inkscape:cx="503.56353"
     inkscape:cy="283.32949"
     inkscape:document-units="px"
     inkscape:current-layer="layer1"
     showgrid="false"
     showguides="true"
     inkscape:guide-bbox="true"
     inkscape:window-width="1366"
     inkscape:window-height="746"
     inkscape:window-x="-8"
     inkscape:window-y="-8"
     inkscape:window-maximized="1"
     width="0px"
     height="0px"
     fit-margin-top="0"
     fit-margin-left="0"
     fit-margin-right="0"
     fit-margin-bottom="0">
    <sodipodi:guide
       orientation="1,0"
       position="400.22244,349.31075"
       id="guide3178" />
  </sodipodi:namedview>
  <metadata
     id="metadata7">
    <rdf:RDF>
      <cc:Work
         rdf:about="">
        <dc:format>image/svg+xml</dc:format>
        <dc:type
           rdf:resource="http://purl.org/dc/dcmitype/StillImage" />
        <dc:title></dc:title>
        <cc:license
           rdf:resource="" />
      </cc:Work>
    </rdf:RDF>
  </metadata>
  <g
     inkscape:label="Layer 1"
     inkscape:groupmode="layer"
     id="layer1"
     transform="translate(0,-652.36218)">
    <path
       id="rect3066"
       transform="translate(0,652.36218)"
       style="fill:#ff0000"
       d="m 429.75,127.6875 c -14.63255,0.009 -19.259,2.44443 -19.25,10.125 0.0108,9.28767 3.01302,16.40736 10.59375,25.15625 3.10023,3.57796 6.33131,2.84162 11.40625,-2.59375 3.68952,-3.95157 4.95804,-6.41692 7.1875,-13.71875 3.25281,-10.6535 3.3669,-12.96868 0.6875,-16.375 -1.92982,-2.45337 -2.54531,-2.59875 -10.625,-2.59375 z m 1.875,2 c 3.52174,-0.0177 4.12186,0.56683 6.28125,2.84375 2.79736,2.94965 2.87823,3.19514 1.40625,5.78125 -0.84398,1.4828 -2.78383,6.34494 -4.3125,10.8125 -1.70939,4.99575 -3.92656,9.26065 -5.71875,11.09375 -1.60271,1.63929 -3.27016,2.96875 -3.71875,2.96875 -1.28785,0 -9.75603,-10.80172 -10.3125,-13.15625 -3.90111,-16.50616 -2.18543,-19.45229 11.71875,-20.15625 1.98379,-0.10044 3.48234,-0.18162 4.65625,-0.1875 z" />
  </g>
</svg>
