<?xml version="1.0" encoding="UTF-8" standalone="no"?>
<!-- Created with Inkscape (http://www.inkscape.org/) -->

<svg
   xmlns:dc="http://purl.org/dc/elements/1.1/"
   xmlns:cc="http://creativecommons.org/ns#"
   xmlns:rdf="http://www.w3.org/1999/02/22-rdf-syntax-ns#"
   xmlns:svg="http://www.w3.org/2000/svg"
   xmlns="http://www.w3.org/2000/svg"
   xmlns:sodipodi="http://sodipodi.sourceforge.net/DTD/sodipodi-0.dtd"
   xmlns:inkscape="http://www.inkscape.org/namespaces/inkscape"
   width="800"
   height="700"
   id="svg2"
   version="1.1"
   inkscape:version="0.48.2 r9819"
   sodipodi:docname="m30-fill.svg">
  <defs
     id="defs4" />
  <sodipodi:namedview
     id="base"
     pagecolor="#ffffff"
     bordercolor="#666666"
     borderopacity="1.0"
     inkscape:pageopacity="0.0"
     inkscape:pageshadow="2"
     inkscape:zoom="2.5"
     inkscape:cx="767.23831"
     inkscape:cy="131.28513"
     inkscape:document-units="px"
     inkscape:current-layer="layer1"
     showgrid="false"
     showguides="true"
     inkscape:guide-bbox="true"
     inkscape:window-width="1024"
     inkscape:window-height="538"
     inkscape:window-x="-8"
     inkscape:window-y="-8"
     inkscape:window-maximized="1"
     width="0px"
     height="0px"
     fit-margin-top="0"
     fit-margin-left="0"
     fit-margin-right="0"
     fit-margin-bottom="0">
    <sodipodi:guide
       orientation="1,0"
       position="400.22244,349.31075"
       id="guide3178" />
    <sodipodi:guide
       orientation="0,1"
       position="400.22244,349.31075"
       id="guide3180" />
  </sodipodi:namedview>
  <metadata
     id="metadata7">
    <rdf:RDF>
      <cc:Work
         rdf:about="">
        <dc:format>image/svg+xml</dc:format>
        <dc:type
           rdf:resource="http://purl.org/dc/dcmitype/StillImage" />
        <dc:title />
      </cc:Work>
    </rdf:RDF>
  </metadata>
  <g
     inkscape:label="Layer 1"
     inkscape:groupmode="layer"
     id="layer1"
     transform="translate(0,-352.36218)">
    <path
       id="rect4649"
       transform="translate(0,352.36218)"
       style="fill:#00ff00"
       d="m 681.34375,514.65625 c -0.36098,0.009 -0.69366,0.0388 -0.96875,0.0937 -0.79241,0.15915 -4.97447,0.41134 -9.28125,0.59375 -6.71489,0.28442 -8.12349,0.49322 -9.875,1.3125 -1.12341,0.52516 -2.19558,0.9375 -2.40625,0.9375 -0.7454,0 -2.33947,2.12603 -2.6875,3.5625 -0.19404,0.80057 -0.70202,2.36689 -1.125,3.46875 -0.86175,2.24515 -0.65384,3.4375 0.625,3.4375 0.65965,0 0.94283,-0.41717 1.21875,-1.8125 0.42845,-2.16663 1.20413,-2.62377 1.625,-0.9375 0.16685,0.66845 0.62263,1.54999 1,1.96875 0.84902,0.94222 3.7226,1.02402 4.46875,0.125 0.74055,-0.89241 3.42865,-1.32928 4.40625,-0.71875 1.02227,0.63848 2.21495,0.6258 3.65625,-0.0312 1.13443,-0.51685 1.13329,-0.57539 0.90625,-4.03125 -0.12653,-1.92526 -0.33751,-4.15971 -0.5,-4.9375 -0.16997,-0.81263 -0.1448,-1.375 0.0937,-1.375 0.71027,0 1.4816,2.18872 1.75,5.0625 0.17772,1.90322 0.40544,2.75 0.8125,2.75 0.3243,0 0.625,-0.18406 0.625,-0.4375 0,-0.253 0.18113,-0.38911 0.40625,-0.25 0.23634,0.14604 0.0673,1.03618 -0.40625,2.09375 -0.77005,1.72029 -0.7824,1.89522 -0.0937,2.65625 1.61844,1.78871 4.68442,2.48018 6.90625,1.53125 1.76786,-0.75533 4.82134,-3.29328 5.125,-4.25 0.14369,-0.45263 0.56056,-0.94893 0.9375,-1.09375 0.57397,-0.22003 0.64717,-0.003 0.40625,1.28125 -0.32576,1.73666 0.39482,2.33796 1.84375,1.5625 0.6922,-0.37051 0.88592,-1.06117 1.0625,-3.8125 0.27859,-4.34115 -0.0315,-5.32905 -2.03125,-6.6875 -1.66444,-1.1304 -5.97304,-2.1279 -8.5,-2.0625 z m -14.8125,13.53125 c -0.27712,0.008 -0.63428,0.1675 -1.21875,0.46875 -0.7865,0.40688 -2.43433,0.6875 -3.96875,0.6875 -2.46915,0 -2.65584,0.0962 -3.75,1.53125 -0.75009,0.98339 -1.22492,2.29946 -1.40625,3.78125 -0.20699,1.69145 -0.4988,2.32908 -1.0625,2.4375 -1.11515,0.21451 -1.01046,-2.57013 0.1875,-4.96875 0.70035,-1.40246 0.82699,-2.04791 0.46875,-2.40625 -0.56737,-0.56732 -1.80709,-0.20741 -2.03125,0.59375 -0.0852,0.30454 -0.65404,2.1507 -1.28125,4.09375 -1.60092,4.9596 -1.63539,10.12252 -0.0625,12.4375 1.41889,2.08808 3.36725,2.60908 8.375,2.28125 3.17117,-0.20772 4.1959,-0.0778 6.1875,0.65625 3.73946,1.37957 7.59799,1.0212 11.71875,-1.0625 2.24595,-1.1357 4.20593,-1.76673 6.3125,-2.03125 2.33637,-0.29337 3.39728,-0.68198 4.5625,-1.625 3.2948,-2.66658 4.72448,-7.53222 3.3125,-11.34375 -0.39882,-1.07675 -0.89176,-2.60965 -1.09375,-3.40625 -0.20198,-0.79649 -0.4692,-1.56292 -0.59375,-1.6875 -0.26094,-0.26085 -3.3125,0.6901 -3.3125,1.03125 0,0.12469 0.59471,0.76704 1.3125,1.4375 1.27267,1.18874 1.67431,2.15625 0.90625,2.15625 -0.20995,0 -0.60982,-0.2679 -0.90625,-0.625 -0.29649,-0.35729 -1.32483,-0.84459 -2.25,-1.09375 -1.37143,-0.36918 -1.88863,-0.33491 -2.78125,0.25 -0.6022,0.39459 -1.09375,1.05248 -1.09375,1.5 0,1.41727 2.51681,4.99976 4.5625,6.46875 1.08463,0.77903 1.96875,1.68739 1.96875,2.03125 0,0.80585 -0.12534,0.78544 -2.09375,-0.21875 -1.78108,-0.90857 -4.875,-4.02863 -4.875,-4.9375 0,-1.01395 -3.43079,-4.27147 -4.9375,-4.6875 -0.8097,-0.22359 -2.1947,-1.00427 -3.09375,-1.71875 -1.95633,-1.55465 -2.80893,-1.61516 -4,-0.3125 -1.48223,1.62111 -2.30463,3.63998 -2.59375,6.40625 -0.27388,2.62043 -1.09443,4.43693 -1.71875,3.8125 -0.33402,-0.33393 0.40085,-6.09812 1.1875,-9.21875 0.33475,-1.32824 0.30834,-1.81671 -0.1875,-2.3125 -0.27592,-0.27594 -0.47287,-0.41425 -0.75,-0.40625 z" />
  </g>
</svg>
