<?xml version="1.0" encoding="UTF-8" standalone="no"?>
<!-- Created with Inkscape (http://www.inkscape.org/) -->

<svg
   xmlns:dc="http://purl.org/dc/elements/1.1/"
   xmlns:cc="http://creativecommons.org/ns#"
   xmlns:rdf="http://www.w3.org/1999/02/22-rdf-syntax-ns#"
   xmlns:svg="http://www.w3.org/2000/svg"
   xmlns="http://www.w3.org/2000/svg"
   xmlns:sodipodi="http://sodipodi.sourceforge.net/DTD/sodipodi-0.dtd"
   xmlns:inkscape="http://www.inkscape.org/namespaces/inkscape"
   width="800"
   height="700"
   id="svg2"
   version="1.1"
   inkscape:version="0.48.2 r9819"
   sodipodi:docname="f18-fill.svg">
  <defs
     id="defs4" />
  <sodipodi:namedview
     id="base"
     pagecolor="#ffffff"
     bordercolor="#666666"
     borderopacity="1.0"
     inkscape:pageopacity="0.0"
     inkscape:pageshadow="2"
     inkscape:zoom="5"
     inkscape:cx="145.7556"
     inkscape:cy="197.70117"
     inkscape:document-units="px"
     inkscape:current-layer="layer1"
     showgrid="false"
     showguides="true"
     inkscape:guide-bbox="true"
     inkscape:window-width="1024"
     inkscape:window-height="538"
     inkscape:window-x="-8"
     inkscape:window-y="-8"
     inkscape:window-maximized="1"
     width="0px"
     height="0px"
     fit-margin-top="0"
     fit-margin-left="0"
     fit-margin-right="0"
     fit-margin-bottom="0">
    <sodipodi:guide
       orientation="1,0"
       position="400.22244,349.31075"
       id="guide3178" />
    <sodipodi:guide
       orientation="0,1"
       position="400.22244,349.31075"
       id="guide3180" />
  </sodipodi:namedview>
  <metadata
     id="metadata7">
    <rdf:RDF>
      <cc:Work
         rdf:about="">
        <dc:format>image/svg+xml</dc:format>
        <dc:type
           rdf:resource="http://purl.org/dc/dcmitype/StillImage" />
        <dc:title />
      </cc:Work>
    </rdf:RDF>
  </metadata>
  <g
     inkscape:label="Layer 1"
     inkscape:groupmode="layer"
     id="layer1"
     transform="translate(0,-352.36218)">
    <path
       id="rect4030"
       transform="translate(0,352.36218)"
       style="fill:#00ff00"
       d="m 82.46875,481 c -10.02436,0.0888 -12.78114,1.02056 -12.78125,3.8125 0,0.62761 -0.55815,2.24751 -1.25,3.59375 -3.25945,6.34294 -4.20234,9.79526 -3.15625,11.75 0.7753,1.44868 1.34375,1.08929 1.34375,-0.8125 0,-1.8591 1.56777,-6.53125 2.1875,-6.53125 0.80547,0 0.82219,0.84726 0.0625,3.09375 -1.08254,3.20089 -0.78657,5.62697 0.90625,7.4375 0.72538,0.77586 1.84364,2.13214 2.46875,2.96875 2.56991,3.43979 3.4234,3.61905 7.96875,1.84375 4.74696,-1.85423 5.86874,-3.52 5.5,-8.15625 -0.33107,-4.16283 0.76886,-1.26339 1.21875,3.21875 0.08252,0.82228 0.38186,1.73961 0.6875,2.03125 0.81994,0.78187 6.80923,3.21875 7.90625,3.21875 1.32085,0 2.63865,-1.02524 3.78125,-2.9375 0.53626,-0.89741 1.47385,-2.17052 2.09375,-2.84375 1.03235,-1.12115 1.09375,-1.57001 1.09375,-5.03125 0,-2.07831 -0.13024,-4.6081 -0.3125,-5.625 -0.18786,-1.04901 -0.15917,-1.84375 0.0625,-1.84375 0.39413,0 0.45804,0.26637 1.375,5 0.63479,3.27711 1.3125,4.08971 1.3125,1.59375 0,-3.72717 -4.51569,-14.58629 -6.34375,-15.28125 -0.55519,-0.21107 -5.64211,-0.4355 -11.34375,-0.5 -1.74137,-0.0196 -3.34922,-0.0127 -4.78125,0 z" />
  </g>
</svg>
