<?xml version="1.0" encoding="UTF-8" standalone="no"?>
<!-- Created with Inkscape (http://www.inkscape.org/) -->

<svg
   xmlns:dc="http://purl.org/dc/elements/1.1/"
   xmlns:cc="http://creativecommons.org/ns#"
   xmlns:rdf="http://www.w3.org/1999/02/22-rdf-syntax-ns#"
   xmlns:svg="http://www.w3.org/2000/svg"
   xmlns="http://www.w3.org/2000/svg"
   xmlns:sodipodi="http://sodipodi.sourceforge.net/DTD/sodipodi-0.dtd"
   xmlns:inkscape="http://www.inkscape.org/namespaces/inkscape"
   width="800"
   height="700"
   id="svg2"
   version="1.1"
   inkscape:version="0.48.2 r9819"
   sodipodi:docname="f18.svg">
  <defs
     id="defs4" />
  <sodipodi:namedview
     id="base"
     pagecolor="#ffffff"
     bordercolor="#666666"
     borderopacity="1.0"
     inkscape:pageopacity="0.0"
     inkscape:pageshadow="2"
     inkscape:zoom="5"
     inkscape:cx="145.7556"
     inkscape:cy="222.06804"
     inkscape:document-units="px"
     inkscape:current-layer="layer1"
     showgrid="false"
     showguides="true"
     inkscape:guide-bbox="true"
     inkscape:window-width="1366"
     inkscape:window-height="746"
     inkscape:window-x="-8"
     inkscape:window-y="-8"
     inkscape:window-maximized="1"
     width="0px"
     height="0px"
     fit-margin-top="0"
     fit-margin-left="0"
     fit-margin-right="0"
     fit-margin-bottom="0">
    <sodipodi:guide
       orientation="1,0"
       position="400.22244,349.31075"
       id="guide3178" />
    <sodipodi:guide
       orientation="0,1"
       position="400.22244,349.31075"
       id="guide3180" />
  </sodipodi:namedview>
  <metadata
     id="metadata7">
    <rdf:RDF>
      <cc:Work
         rdf:about="">
        <dc:format>image/svg+xml</dc:format>
        <dc:type
           rdf:resource="http://purl.org/dc/dcmitype/StillImage" />
        <dc:title></dc:title>
      </cc:Work>
    </rdf:RDF>
  </metadata>
  <g
     inkscape:label="Layer 1"
     inkscape:groupmode="layer"
     id="layer1"
     transform="translate(0,-352.36218)">
    <path
       style="fill:#ff0000"
       d="m 82.46875,833.36218 c 1.43203,-0.0127 3.03988,-0.0196 4.78125,0 5.70164,0.0645 10.78856,0.28893 11.34375,0.5 1.82806,0.69496 6.34375,11.55408 6.34375,15.28125 0,2.49596 -0.67771,1.68336 -1.3125,-1.59375 -0.91696,-4.73363 -0.98087,-5 -1.375,-5 -0.22167,0 -0.25036,0.79474 -0.0625,1.84375 0.18226,1.0169 0.3125,3.54669 0.3125,5.625 0,3.46124 -0.0614,3.9101 -1.09375,5.03125 -0.6199,0.67323 -1.55749,1.94634 -2.09375,2.84375 -1.1426,1.91226 -2.4604,2.9375 -3.78125,2.9375 -1.09702,0 -7.08631,-2.43688 -7.90625,-3.21875 -0.30564,-0.29164 -0.60498,-1.20897 -0.6875,-2.03125 -0.44989,-4.48214 -1.54982,-7.38158 -1.21875,-3.21875 0.36874,4.63625 -0.75304,6.30202 -5.5,8.15625 -4.54535,1.7753 -5.39884,1.59604 -7.96875,-1.84375 -0.62511,-0.83661 -1.74337,-2.19289 -2.46875,-2.96875 -1.69282,-1.81053 -1.98879,-4.23661 -0.90625,-7.4375 0.75969,-2.24649 0.74297,-3.09375 -0.0625,-3.09375 -0.61973,0 -2.1875,4.67215 -2.1875,6.53125 0,1.90179 -0.56845,2.26118 -1.34375,0.8125 -1.04609,-1.95474 -0.1032,-5.40706 3.15625,-11.75 0.69185,-1.34624 1.25,-2.96614 1.25,-3.59375 1.1e-4,-2.79194 2.75689,-3.72366 12.78125,-3.8125 z"
       id="rect3218" />
  </g>
</svg>
