<?xml version="1.0" encoding="UTF-8" standalone="no"?>
<!-- Created with Inkscape (http://www.inkscape.org/) -->

<svg
   xmlns:dc="http://purl.org/dc/elements/1.1/"
   xmlns:cc="http://creativecommons.org/ns#"
   xmlns:rdf="http://www.w3.org/1999/02/22-rdf-syntax-ns#"
   xmlns:svg="http://www.w3.org/2000/svg"
   xmlns="http://www.w3.org/2000/svg"
   xmlns:sodipodi="http://sodipodi.sourceforge.net/DTD/sodipodi-0.dtd"
   xmlns:inkscape="http://www.inkscape.org/namespaces/inkscape"
   width="800"
   height="700"
   id="svg2"
   version="1.1"
   inkscape:version="0.48.2 r9819"
   sodipodi:docname="m11-fill.svg">
  <defs
     id="defs4" />
  <sodipodi:namedview
     id="base"
     pagecolor="#ffffff"
     bordercolor="#666666"
     borderopacity="1.0"
     inkscape:pageopacity="0.0"
     inkscape:pageshadow="2"
     inkscape:zoom="7.071068"
     inkscape:cx="492.70179"
     inkscape:cy="535.15756"
     inkscape:document-units="px"
     inkscape:current-layer="layer1"
     showgrid="false"
     showguides="true"
     inkscape:guide-bbox="true"
     inkscape:window-width="1024"
     inkscape:window-height="538"
     inkscape:window-x="-8"
     inkscape:window-y="-8"
     inkscape:window-maximized="1"
     width="0px"
     height="0px"
     fit-margin-top="0"
     fit-margin-left="0"
     fit-margin-right="0"
     fit-margin-bottom="0">
    <sodipodi:guide
       orientation="1,0"
       position="400.22244,349.31075"
       id="guide3178" />
    <sodipodi:guide
       orientation="0,1"
       position="400.22244,349.31075"
       id="guide3180" />
  </sodipodi:namedview>
  <metadata
     id="metadata7">
    <rdf:RDF>
      <cc:Work
         rdf:about="">
        <dc:format>image/svg+xml</dc:format>
        <dc:type
           rdf:resource="http://purl.org/dc/dcmitype/StillImage" />
        <dc:title />
      </cc:Work>
    </rdf:RDF>
  </metadata>
  <g
     inkscape:label="Layer 1"
     inkscape:groupmode="layer"
     id="layer1"
     transform="translate(0,-352.36218)">
    <path
       id="rect3758"
       transform="translate(0,352.36218)"
       style="fill:#00ff00"
       d="m 518.59375,146.3125 c -1.46391,0.0888 -2.6961,0.61942 -4.34375,1.71875 -1.16123,0.77468 -2.43975,1.60446 -2.8125,1.84375 -0.37278,0.23925 -0.94051,0.82764 -1.28125,1.28125 -0.34071,0.45355 -0.97751,1.11612 -1.4375,1.5 -1.48369,1.23816 -2.66354,4.05466 -2.875,7 -0.19355,2.69577 -0.10147,2.99729 1.8125,6.65625 1.10461,2.11173 2,4.041 2,4.28125 0,0.24022 1.18559,1.94666 2.59375,3.78125 1.40811,1.83458 2.66536,3.76226 2.8125,4.25 0.51583,1.70964 4.40702,4.38118 7.4375,5.125 1.64086,0.40272 4.61827,-0.0458 5.5,-0.84375 0.48461,-0.43853 1.72336,-2.12739 2.78125,-3.71875 1.05797,-1.59138 2.94834,-3.93045 4.1875,-5.21875 3.61215,-3.75537 4.28125,-4.95868 4.28125,-7.65625 0,-3.29766 -1.13493,-5.14298 -5.5625,-8.9375 -1.12091,-0.96067 -2.93888,-3.03985 -4.03125,-4.625 -2.54262,-3.68956 -4.92134,-5.50415 -8.0625,-6.15625 -1.16567,-0.24195 -2.12167,-0.33445 -3,-0.28125 z m 9,10.5 c 1.35929,-0.007 2.13345,0.10228 2.28125,0.25 0.24165,0.2416 0.30267,0.4375 0.15625,0.4375 -0.14645,0 -1.77808,0.27164 -3.625,0.625 -3.58542,0.68607 -11.39658,1.19051 -13.375,0.84375 -0.78288,-0.13719 -1.1875,-0.52031 -1.1875,-1.03125 0,-0.5862 0.25978,-0.70996 1.03125,-0.5625 0.5652,0.108 4.51556,-0.0181 8.78125,-0.28125 2.60998,-0.16107 4.57821,-0.27525 5.9375,-0.28125 z m -17.4375,5.34375 5.3125,0.3125 c 6.15311,0.37441 7.39548,0.35134 14.53125,-0.0312 l 5.25,-0.25 0.71875,1.3125 c 0.37779,0.73056 0.6875,1.63735 0.6875,2 0,1.15901 -1.47724,3.73439 -3.0625,5.40625 -0.84565,0.89182 -2.19385,2.77677 -3.03125,4.1875 -1.71393,2.88623 -2.1935,3.19689 -3.15625,2.09375 -0.37053,-0.42451 -0.87918,-1.21412 -1.15625,-1.75 -0.64725,-1.25166 -2.69791,-2.30782 -3.875,-2 -0.59052,0.15443 -1.11804,0.85415 -1.5,2 -0.92753,2.78252 -1.1832,2.71081 -4.46875,-1.21875 -4.74908,-5.67988 -6.93614,-9.32423 -6.53125,-10.9375 l 0.28125,-1.125 z m 19.78125,1.65625 c -0.92707,0.0365 -1.94285,0.17969 -2.9375,0.4375 -2.69773,0.69882 -4.47268,0.67518 -11.34375,-0.0625 -2.83614,-0.30451 -2.9375,-0.27418 -2.9375,0.65625 0,1.29809 5.52367,9.15625 6.4375,9.15625 0.18893,-6e-5 0.92226,-0.57314 1.625,-1.3125 1.14475,-1.20415 1.50952,-1.34781 3.25,-1.15625 1.41226,0.15545 2.1572,0.5532 2.8125,1.375 0.49573,0.62177 1.17648,1.09375 1.46875,1.09375 0.29231,0 1.10768,-0.95992 1.84375,-2.15625 0.73613,-1.19634 1.54902,-2.1875 1.78125,-2.1875 0.75528,0 2.96875,-2.77666 2.96875,-3.71875 0,-1.41495 -2.18757,-2.23432 -4.96875,-2.125 z" />
  </g>
</svg>
