<?xml version="1.0" encoding="UTF-8" standalone="no"?>
<!-- Created with Inkscape (http://www.inkscape.org/) -->

<svg
   xmlns:dc="http://purl.org/dc/elements/1.1/"
   xmlns:cc="http://creativecommons.org/ns#"
   xmlns:rdf="http://www.w3.org/1999/02/22-rdf-syntax-ns#"
   xmlns:svg="http://www.w3.org/2000/svg"
   xmlns="http://www.w3.org/2000/svg"
   xmlns:sodipodi="http://sodipodi.sourceforge.net/DTD/sodipodi-0.dtd"
   xmlns:inkscape="http://www.inkscape.org/namespaces/inkscape"
   width="800"
   height="400"
   id="svg2"
   version="1.1"
   inkscape:version="0.48.2 r9819"
   sodipodi:docname="child.svg">
  <defs
     id="defs4" />
  <sodipodi:namedview
     id="base"
     pagecolor="#ffffff"
     bordercolor="#666666"
     borderopacity="1.0"
     inkscape:pageopacity="0.0"
     inkscape:pageshadow="2"
     inkscape:zoom="4"
     inkscape:cx="263.33157"
     inkscape:cy="324.03772"
     inkscape:document-units="px"
     inkscape:current-layer="layer1"
     showgrid="false"
     showguides="true"
     inkscape:guide-bbox="true"
     inkscape:window-width="1366"
     inkscape:window-height="746"
     inkscape:window-x="-8"
     inkscape:window-y="-8"
     inkscape:window-maximized="1"
     width="0px"
     height="0px"
     fit-margin-top="0"
     fit-margin-left="0"
     fit-margin-right="0"
     fit-margin-bottom="0">
    <sodipodi:guide
       orientation="1,0"
       position="400.22244,349.31075"
       id="guide3178" />
  </sodipodi:namedview>
  <metadata
     id="metadata7">
    <rdf:RDF>
      <cc:Work
         rdf:about="">
        <dc:format>image/svg+xml</dc:format>
        <dc:type
           rdf:resource="http://purl.org/dc/dcmitype/StillImage" />
        <dc:title></dc:title>
        <cc:license
           rdf:resource="" />
      </cc:Work>
    </rdf:RDF>
  </metadata>
  <g
     inkscape:label="Layer 1"
     inkscape:groupmode="layer"
     id="layer1"
     transform="translate(0,-652.36218)">
    <path
       id="rect3012"
       transform="translate(0,652.36218)"
       style="fill:#ff0000"
       d="m 226.8125,18.25 c -3.00842,0.341319 -7.25902,7.586284 -8.84375,15.90625 -1.05354,5.53119 -6.03584,18.03243 -7.03125,17.625 -0.52306,-0.2141 -1.7157,-2.35454 -2.625,-4.75 -2.23146,-5.87856 -3.61398,-7.35092 -6.625,-7 -3.13714,0.36561 -6.9847,7.36072 -7,12.75 -0.006,1.96915 -0.63361,4.10876 -1.40625,4.75 -1.14656,0.95156 -1.85184,0.37715 -3.84375,-3.09375 -1.34231,-2.33897 -2.78505,-5.36167 -3.1875,-6.71875 -0.40246,-1.35708 -1.55151,-3.51792 -2.5625,-4.8125 -1.01099,-1.29457 -1.87185,-3.28934 -1.90625,-4.4375 -0.11616,-3.87637 -5.23454,-12.92449 -7.5,-13.25 -3.16163,-0.45427 -5.25,3.2781 -5.25,9.375 0,12.18667 3.24913,25.74493 9.53125,39.65625 3.7244,8.24743 3.8738,9.64867 1.8125,17.5625 -2.959,11.36037 -1.32253,19.99163 4.65625,24.375 2.06694,1.5154 4.18017,1.97095 8.90625,1.90625 3.39896,-0.0465 7.26793,-0.51074 8.625,-1.03125 1.82081,-0.69839 3.76463,-0.49107 7.40625,0.84375 9.39105,3.44225 17.56706,0.75066 20.09375,-6.625 1.62914,-4.75566 0.96492,-14.1949 -1.21875,-17.3125 -0.86879,-1.24039 -1.59375,-3.49228 -1.59375,-5 0,-1.5077 -0.50677,-2.75 -1.125,-2.75 -0.80078,0 -0.90889,-1.76168 -0.375,-6.15625 0.41218,-3.3927 0.88282,-8.18226 1.0625,-10.625 0.17967,-2.44274 1.26297,-9.01049 2.375,-14.59375 2.91721,-14.64663 2.48767,-32.69983 -0.84375,-36.03125 -0.44639,-0.446394 -0.97413,-0.625707 -1.53125,-0.5625 z m -0.53125,3.8125 c 1.97865,0 2.34376,22.22183 0.5,30.59375 -1.25731,5.70907 -3.86,23.41591 -3.8125,25.96875 0.0408,2.1954 -0.27088,2.61048 -1.53125,2.03125 -0.8735,-0.40144 -8.99743,-0.6773 -18.0625,-0.625 -9.06507,0.05234 -16.92019,0.33653 -17.4375,0.65625 -0.51731,0.31971 -1.39915,-0.63286 -1.96875,-2.125 -0.5696,-1.49214 -1.66083,-3.83042 -2.4375,-5.1875 -5.84734,-10.21709 -11.07984,-32.12324 -9.59375,-40.25 0.73208,-4.00345 1.64912,-5.96886 2.34375,-5.0625 1.62347,2.11832 4.59375,8.23752 4.59375,9.4375 0,0.83385 1.79742,5.03758 3.96875,9.34375 2.17132,4.30616 3.9375,8.27216 3.9375,8.8125 0,0.54034 2.26549,3.88689 5.03125,7.40625 5.12865,6.52609 7.86492,8.07602 11.9375,6.84375 2.51334,-0.76048 7.71875,-5.24839 7.71875,-6.65625 0,-0.48655 1.37377,-4.27583 3.0625,-8.4375 1.68873,-4.16166 3.63532,-9.78585 4.34375,-12.5 2.10799,-8.07621 6.56293,-20.25 7.40625,-20.25 z m -24.6875,21 c 0.97514,-0.16654 2.75795,2.40629 5.25,7.53125 3.58874,7.38034 3.70358,7.91479 2.3125,10.59375 -0.8066,1.55335 -2.80933,3.80988 -4.46875,5.03125 -1.65942,1.22137 -3.28985,2.21875 -3.625,2.21875 -0.33515,0 -1.91326,-1.28826 -3.5,-2.875 -2.74012,-2.74012 -3.8284,-6.44492 -2.09375,-7.15625 0.44125,-0.18094 1.66721,-3.65358 2.71875,-7.71875 1.22174,-4.7232 2.4602,-7.46344 3.40625,-7.625 z m 6.375,39.71875 c 5.2614,0.05098 9.89017,0.279895 11.5,0.71875 1.69704,0.46263 2.99381,1.82691 3.78125,3.9375 0.66078,1.77111 2.05732,5.05047 3.09375,7.28125 2.03879,4.38824 2.47836,11.57222 0.9375,15.625 -0.5847,1.53787 -2.69888,3.35609 -5.375,4.65625 -4.28251,2.0806 -4.57012,2.10226 -9.53125,0.5 -2.80827,-0.90697 -6.02846,-1.631 -7.1875,-1.625 -1.15903,0.006 -4.15932,0.61712 -6.65625,1.375 -4.10569,1.24616 -4.93912,1.21271 -8.625,-0.4375 -5.19036,-2.32379 -8.07235,-6.92656 -8.03125,-12.8125 0.0447,-6.41545 3.17743,-16.74993 5.46875,-18.09375 1.32985,-0.779931 11.856,-1.20996 20.625,-1.125 z" />
  </g>
</svg>
