<?xml version="1.0" encoding="UTF-8" standalone="no"?>
<!-- Created with Inkscape (http://www.inkscape.org/) -->

<svg
   xmlns:dc="http://purl.org/dc/elements/1.1/"
   xmlns:cc="http://creativecommons.org/ns#"
   xmlns:rdf="http://www.w3.org/1999/02/22-rdf-syntax-ns#"
   xmlns:svg="http://www.w3.org/2000/svg"
   xmlns="http://www.w3.org/2000/svg"
   xmlns:sodipodi="http://sodipodi.sourceforge.net/DTD/sodipodi-0.dtd"
   xmlns:inkscape="http://www.inkscape.org/namespaces/inkscape"
   width="800"
   height="400"
   id="svg2"
   version="1.1"
   inkscape:version="0.48.2 r9819"
   sodipodi:docname="fk.svg">
  <defs
     id="defs4" />
  <sodipodi:namedview
     id="base"
     pagecolor="#ffffff"
     bordercolor="#666666"
     borderopacity="1.0"
     inkscape:pageopacity="0.0"
     inkscape:pageshadow="2"
     inkscape:zoom="2.8284271"
     inkscape:cx="649.24113"
     inkscape:cy="51.895415"
     inkscape:document-units="px"
     inkscape:current-layer="layer1"
     showgrid="false"
     showguides="true"
     inkscape:guide-bbox="true"
     inkscape:window-width="1366"
     inkscape:window-height="746"
     inkscape:window-x="-8"
     inkscape:window-y="-8"
     inkscape:window-maximized="1"
     width="0px"
     height="0px"
     fit-margin-top="0"
     fit-margin-left="0"
     fit-margin-right="0"
     fit-margin-bottom="0">
    <sodipodi:guide
       orientation="1,0"
       position="400.22244,349.31075"
       id="guide3178" />
  </sodipodi:namedview>
  <metadata
     id="metadata7">
    <rdf:RDF>
      <cc:Work
         rdf:about="">
        <dc:format>image/svg+xml</dc:format>
        <dc:type
           rdf:resource="http://purl.org/dc/dcmitype/StillImage" />
        <dc:title></dc:title>
        <cc:license
           rdf:resource="" />
      </cc:Work>
    </rdf:RDF>
  </metadata>
  <g
     inkscape:label="Layer 1"
     inkscape:groupmode="layer"
     id="layer1"
     transform="translate(0,-652.36218)">
    <path
       style="fill:#ff0000"
       d="m 599.3125,942.70593 c 2.54654,-0.0202 4.09579,1.29911 7.3125,4.65625 4.14851,4.32963 4.34642,4.41802 4.90625,2.1875 0.37768,-1.50479 2.01397,-2.9629 4.71875,-4.15625 3.70427,-1.63432 4.46241,-1.67093 6.71875,-0.40625 1.39378,0.78121 3.10807,2.62848 3.8125,4.09375 l 1.28125,2.65625 3.4375,-3.4375 c 4.06632,-4.06632 5.95649,-4.31903 7.46875,-1 1.20035,2.63448 -0.0217,7.87333 -4.625,19.75 l -2.28125,5.9375 -6.25,1.125 c -10.7387,1.93978 -32.914,0.69407 -34.5625,-1.9375 -0.40326,-0.64374 -1.21189,-3.40209 -1.78125,-6.125 -0.56935,-2.7229 -1.69789,-6.20392 -2.5,-7.75 -1.8991,-3.66052 -1.84691,-4.86594 0.4375,-9.34375 1.42217,-2.78768 2.8644,-4.04226 5.6875,-4.90625 2.80208,-0.85755 4.69083,-1.33161 6.21875,-1.34375 z"
       id="path3615" />
  </g>
</svg>
