<?xml version="1.0" encoding="UTF-8" standalone="no"?>
<!-- Created with Inkscape (http://www.inkscape.org/) -->

<svg
   xmlns:dc="http://purl.org/dc/elements/1.1/"
   xmlns:cc="http://creativecommons.org/ns#"
   xmlns:rdf="http://www.w3.org/1999/02/22-rdf-syntax-ns#"
   xmlns:svg="http://www.w3.org/2000/svg"
   xmlns="http://www.w3.org/2000/svg"
   xmlns:sodipodi="http://sodipodi.sourceforge.net/DTD/sodipodi-0.dtd"
   xmlns:inkscape="http://www.inkscape.org/namespaces/inkscape"
   width="800"
   height="700"
   id="svg2"
   version="1.1"
   inkscape:version="0.48.2 r9819"
   sodipodi:docname="f13-fill.svg">
  <defs
     id="defs4" />
  <sodipodi:namedview
     id="base"
     pagecolor="#ffffff"
     bordercolor="#666666"
     borderopacity="1.0"
     inkscape:pageopacity="0.0"
     inkscape:pageshadow="2"
     inkscape:zoom="5.0000001"
     inkscape:cx="589.53764"
     inkscape:cy="557.61681"
     inkscape:document-units="px"
     inkscape:current-layer="layer1"
     showgrid="false"
     showguides="true"
     inkscape:guide-bbox="true"
     inkscape:window-width="1024"
     inkscape:window-height="538"
     inkscape:window-x="-8"
     inkscape:window-y="-8"
     inkscape:window-maximized="1"
     width="0px"
     height="0px"
     fit-margin-top="0"
     fit-margin-left="0"
     fit-margin-right="0"
     fit-margin-bottom="0">
    <sodipodi:guide
       orientation="1,0"
       position="400.22244,349.31075"
       id="guide3178" />
    <sodipodi:guide
       orientation="0,1"
       position="400.22244,349.31075"
       id="guide3180" />
  </sodipodi:namedview>
  <metadata
     id="metadata7">
    <rdf:RDF>
      <cc:Work
         rdf:about="">
        <dc:format>image/svg+xml</dc:format>
        <dc:type
           rdf:resource="http://purl.org/dc/dcmitype/StillImage" />
        <dc:title />
      </cc:Work>
    </rdf:RDF>
  </metadata>
  <g
     inkscape:label="Layer 1"
     inkscape:groupmode="layer"
     id="layer1"
     transform="translate(0,-352.36218)">
    <path
       id="rect3825"
       transform="translate(0,352.36218)"
       style="fill:#00ff00"
       d="m 609.8125,94.46875 c -1.30201,0.03947 -2.10188,0.32868 -3.9375,1.3125 -1.50941,0.80918 -2.93371,1.89394 -3.21875,2.375 -1.66463,2.80899 -2.66391,4.07825 -3.59375,4.6875 -1.74644,1.14431 -3.27602,6.83214 -3.5625,13.15625 l -0.25,5.25 1.375,2.4375 c 0.75578,1.32096 2.07094,3.09586 2.9375,3.9375 2.07834,2.01875 6.33613,4.08183 9.3125,4.5625 1.31595,0.21254 2.48895,0.4096 2.625,0.4375 0.13604,0.028 1.19399,-0.21178 2.375,-0.5625 1.18102,-0.3507 2.61973,-1.01061 3.1875,-1.4375 2.64874,-1.99157 7.62971,-6.98424 8.125,-8.15625 0.86541,-2.04772 0.0667,-5.14695 -3.03125,-11.625 -1.52449,-3.18787 -3.29224,-7.46625 -3.9375,-9.5 -1.45846,-4.59705 -1.53895,-4.745 -2.96875,-5.8125 -0.7906,-0.59028 -2.06795,-0.91995 -3.90625,-1.03125 -0.60516,-0.0362 -1.09724,-0.04455 -1.53125,-0.03125 z" />
  </g>
</svg>
