<?xml version="1.0" encoding="UTF-8" standalone="no"?>
<!-- Created with Inkscape (http://www.inkscape.org/) -->

<svg
   xmlns:dc="http://purl.org/dc/elements/1.1/"
   xmlns:cc="http://creativecommons.org/ns#"
   xmlns:rdf="http://www.w3.org/1999/02/22-rdf-syntax-ns#"
   xmlns:svg="http://www.w3.org/2000/svg"
   xmlns="http://www.w3.org/2000/svg"
   xmlns:sodipodi="http://sodipodi.sourceforge.net/DTD/sodipodi-0.dtd"
   xmlns:inkscape="http://www.inkscape.org/namespaces/inkscape"
   width="800"
   height="700"
   id="svg2"
   version="1.1"
   inkscape:version="0.48.2 r9819"
   sodipodi:docname="f13.svg">
  <defs
     id="defs4" />
  <sodipodi:namedview
     id="base"
     pagecolor="#ffffff"
     bordercolor="#666666"
     borderopacity="1.0"
     inkscape:pageopacity="0.0"
     inkscape:pageshadow="2"
     inkscape:zoom="5.0000001"
     inkscape:cx="681.43469"
     inkscape:cy="609.67488"
     inkscape:document-units="px"
     inkscape:current-layer="layer1"
     showgrid="false"
     showguides="true"
     inkscape:guide-bbox="true"
     inkscape:window-width="1366"
     inkscape:window-height="746"
     inkscape:window-x="-8"
     inkscape:window-y="-8"
     inkscape:window-maximized="1"
     width="0px"
     height="0px"
     fit-margin-top="0"
     fit-margin-left="0"
     fit-margin-right="0"
     fit-margin-bottom="0">
    <sodipodi:guide
       orientation="1,0"
       position="400.22244,349.31075"
       id="guide3178" />
    <sodipodi:guide
       orientation="0,1"
       position="400.22244,349.31075"
       id="guide3180" />
  </sodipodi:namedview>
  <metadata
     id="metadata7">
    <rdf:RDF>
      <cc:Work
         rdf:about="">
        <dc:format>image/svg+xml</dc:format>
        <dc:type
           rdf:resource="http://purl.org/dc/dcmitype/StillImage" />
        <dc:title></dc:title>
      </cc:Work>
    </rdf:RDF>
  </metadata>
  <g
     inkscape:label="Layer 1"
     inkscape:groupmode="layer"
     id="layer1"
     transform="translate(0,-352.36218)">
    <path
       style="fill:#ff0000"
       d="m 609.81255,446.83093 c 0.43401,-0.0133 0.92609,-0.005 1.53125,0.0312 1.8383,0.1113 3.11565,0.44097 3.90625,1.03125 1.4298,1.0675 1.51029,1.21545 2.96875,5.8125 0.64526,2.03375 2.41301,6.31213 3.9375,9.5 3.098,6.47805 3.89666,9.57728 3.03125,11.625 -0.49529,1.17201 -5.47626,6.16468 -8.125,8.15625 -0.56777,0.42689 -2.00648,1.0868 -3.1875,1.4375 -1.18101,0.35072 -2.23896,0.59047 -2.375,0.5625 -0.13605,-0.0279 -1.30905,-0.22496 -2.625,-0.4375 -2.97637,-0.48067 -7.23416,-2.54375 -9.3125,-4.5625 -0.86656,-0.84164 -2.18172,-2.61654 -2.9375,-3.9375 l -1.37505,-2.4375 0.25,-5.25 c 0.28648,-6.32411 1.81606,-12.01194 3.5625,-13.15625 0.92984,-0.60925 1.92912,-1.87851 3.59375,-4.6875 0.28504,-0.48106 1.70934,-1.56582 3.21875,-2.375 1.83562,-0.98382 2.63549,-1.27303 3.9375,-1.3125 z"
       id="rect3158" />
  </g>
</svg>
