<?xml version="1.0" encoding="UTF-8" standalone="no"?>
<!-- Created with Inkscape (http://www.inkscape.org/) -->

<svg
   xmlns:dc="http://purl.org/dc/elements/1.1/"
   xmlns:cc="http://creativecommons.org/ns#"
   xmlns:rdf="http://www.w3.org/1999/02/22-rdf-syntax-ns#"
   xmlns:svg="http://www.w3.org/2000/svg"
   xmlns="http://www.w3.org/2000/svg"
   xmlns:sodipodi="http://sodipodi.sourceforge.net/DTD/sodipodi-0.dtd"
   xmlns:inkscape="http://www.inkscape.org/namespaces/inkscape"
   width="800"
   height="700"
   id="svg2"
   version="1.1"
   inkscape:version="0.48.2 r9819"
   sodipodi:docname="f19.svg">
  <defs
     id="defs4" />
  <sodipodi:namedview
     id="base"
     pagecolor="#ffffff"
     bordercolor="#666666"
     borderopacity="1.0"
     inkscape:pageopacity="0.0"
     inkscape:pageshadow="2"
     inkscape:zoom="3.5355339"
     inkscape:cx="120.4253"
     inkscape:cy="225.27857"
     inkscape:document-units="px"
     inkscape:current-layer="layer1"
     showgrid="false"
     showguides="true"
     inkscape:guide-bbox="true"
     inkscape:window-width="1366"
     inkscape:window-height="746"
     inkscape:window-x="-8"
     inkscape:window-y="-8"
     inkscape:window-maximized="1"
     width="0px"
     height="0px"
     fit-margin-top="0"
     fit-margin-left="0"
     fit-margin-right="0"
     fit-margin-bottom="0">
    <sodipodi:guide
       orientation="1,0"
       position="400.22244,349.31075"
       id="guide3178" />
    <sodipodi:guide
       orientation="0,1"
       position="400.22244,349.31075"
       id="guide3180" />
  </sodipodi:namedview>
  <metadata
     id="metadata7">
    <rdf:RDF>
      <cc:Work
         rdf:about="">
        <dc:format>image/svg+xml</dc:format>
        <dc:type
           rdf:resource="http://purl.org/dc/dcmitype/StillImage" />
        <dc:title></dc:title>
      </cc:Work>
    </rdf:RDF>
  </metadata>
  <g
     inkscape:label="Layer 1"
     inkscape:groupmode="layer"
     id="layer1"
     transform="translate(0,-352.36218)">
    <path
       style="fill:#ff0000"
       d="m 134,832.54968 c 1.93665,-0.0132 3.84103,0.19799 5.3125,0.59375 1.33697,0.35962 3.78365,0.74519 5.4375,0.90625 1.65387,0.16107 3.92452,0.61876 5.03125,0.96875 1.73037,0.54721 2.05236,0.82989 2.28125,2.03125 0.14639,0.76823 0.59788,2.46528 1,3.78125 0.40207,1.31595 0.80851,3.6684 0.90625,5.25 0.16142,2.61007 0.0466,3.10059 -1.15625,5.03125 -0.72894,1.16994 -2.67926,3.3171 -4.34375,4.8125 -1.66448,1.49543 -3.27712,2.71129 -3.59375,2.6875 -1.3871,-0.10531 -4.01846,-0.88114 -5.6875,-1.6875 -0.99529,-0.48084 -2.04132,-0.875 -2.34375,-0.875 -0.30245,0 -1.25433,-0.75986 -2.125,-1.65625 -1.3483,-1.3882 -1.57407,-1.80461 -1.375,-3.03125 0.24349,-1.50062 0.003,-2.6875 -0.5625,-2.6875 -0.18093,0 -0.66273,1.01029 -1.0625,2.28125 -0.55386,1.76084 -1.15635,2.6619 -2.53125,3.71875 -0.99243,0.76275 -2.2324,1.375 -2.75,1.375 -0.51759,0 -1.28569,0.39648 -1.71875,0.875 -0.98004,1.08296 -4.12236,1.1859 -5.8125,0.1875 -1.39572,-0.82444 -3.01794,-3.17452 -4.0625,-5.84375 -1.01908,-2.60388 -1.00104,-3.08176 0.46875,-6.21875 1.64866,-3.51885 3.53125,-8.44668 3.53125,-9.21875 0,-1.27147 1.16302,-1.78188 4.375,-1.90625 1.7715,-0.0686 4.20991,-0.38219 5.40625,-0.71875 1.47836,-0.41581 3.43832,-0.64305 5.375,-0.65625 z"
       id="path3005" />
    <path
       style="fill:#ff0000"
       d="m 154.59375,839.98718 c 0.0563,-0.0185 0.15563,0.0445 0.28125,0.1875 0.65403,0.74435 1.71695,4.30128 2.21875,7.34375 0.62166,3.76924 0.0208,7.38782 -1.40625,8.28125 -1.3138,0.8225 -4.09081,1.24855 -4.4375,0.6875 -0.15465,-0.25008 0.68995,-1.73007 1.875,-3.3125 2.52913,-3.37709 2.89311,-5.2695 1.96875,-9.6875 -0.53103,-2.53755 -0.66876,-3.44471 -0.5,-3.5 z"
       id="path3003" />
    <path
       style="fill:#ff0000"
       d="m 112.34375,850.17468 c 0.20288,0.0736 0.45353,0.78369 0.59375,1.71875 0.16027,1.06871 0.4933,2.04827 0.71875,2.1875 0.22543,0.13932 0.375,0.46231 0.375,0.6875 0,0.76061 -0.73066,0.3914 -1.4375,-0.6875 -0.75616,-1.15399 -0.9747,-3.48508 -0.34375,-3.875 0.0266,-0.0161 0.0648,-0.0417 0.0937,-0.0312 z"
       id="rect3230" />
  </g>
</svg>
