<?xml version="1.0" encoding="UTF-8" standalone="no"?>
<!-- Created with Inkscape (http://www.inkscape.org/) -->

<svg
   xmlns:dc="http://purl.org/dc/elements/1.1/"
   xmlns:cc="http://creativecommons.org/ns#"
   xmlns:rdf="http://www.w3.org/1999/02/22-rdf-syntax-ns#"
   xmlns:svg="http://www.w3.org/2000/svg"
   xmlns="http://www.w3.org/2000/svg"
   xmlns:sodipodi="http://sodipodi.sourceforge.net/DTD/sodipodi-0.dtd"
   xmlns:inkscape="http://www.inkscape.org/namespaces/inkscape"
   width="800"
   height="700"
   id="svg2"
   version="1.1"
   inkscape:version="0.48.2 r9819"
   sodipodi:docname="f19-fill.svg">
  <defs
     id="defs4" />
  <sodipodi:namedview
     id="base"
     pagecolor="#ffffff"
     bordercolor="#666666"
     borderopacity="1.0"
     inkscape:pageopacity="0.0"
     inkscape:pageshadow="2"
     inkscape:zoom="3.5355339"
     inkscape:cx="120.4253"
     inkscape:cy="199.20722"
     inkscape:document-units="px"
     inkscape:current-layer="layer1"
     showgrid="false"
     showguides="true"
     inkscape:guide-bbox="true"
     inkscape:window-width="1024"
     inkscape:window-height="538"
     inkscape:window-x="-8"
     inkscape:window-y="-8"
     inkscape:window-maximized="1"
     width="0px"
     height="0px"
     fit-margin-top="0"
     fit-margin-left="0"
     fit-margin-right="0"
     fit-margin-bottom="0">
    <sodipodi:guide
       orientation="1,0"
       position="400.22244,349.31075"
       id="guide3178" />
    <sodipodi:guide
       orientation="0,1"
       position="400.22244,349.31075"
       id="guide3180" />
  </sodipodi:namedview>
  <metadata
     id="metadata7">
    <rdf:RDF>
      <cc:Work
         rdf:about="">
        <dc:format>image/svg+xml</dc:format>
        <dc:type
           rdf:resource="http://purl.org/dc/dcmitype/StillImage" />
        <dc:title />
      </cc:Work>
    </rdf:RDF>
  </metadata>
  <g
     inkscape:label="Layer 1"
     inkscape:groupmode="layer"
     id="layer1"
     transform="translate(0,-352.36218)">
    <path
       id="rect4082"
       transform="translate(0,352.36218)"
       style="fill:#00ff00"
       d="m 134,480.1875 c -1.93668,0.0132 -3.89664,0.24044 -5.375,0.65625 -1.19634,0.33656 -3.63475,0.65015 -5.40625,0.71875 -3.21198,0.12437 -4.375,0.63478 -4.375,1.90625 0,0.77207 -1.88259,5.6999 -3.53125,9.21875 -1.46979,3.13699 -1.48783,3.61487 -0.46875,6.21875 1.04456,2.66923 2.66678,5.01931 4.0625,5.84375 1.69014,0.9984 4.83246,0.89546 5.8125,-0.1875 0.43306,-0.47852 1.20116,-0.875 1.71875,-0.875 0.5176,0 1.75757,-0.61225 2.75,-1.375 1.3749,-1.05685 1.97739,-1.95791 2.53125,-3.71875 0.39977,-1.27096 0.88157,-2.28125 1.0625,-2.28125 0.5655,0 0.80599,1.18688 0.5625,2.6875 -0.19907,1.22664 0.0267,1.64305 1.375,3.03125 0.87067,0.89639 1.82255,1.65625 2.125,1.65625 0.30243,0 1.34846,0.39416 2.34375,0.875 1.66904,0.80636 4.3004,1.58219 5.6875,1.6875 0.31663,0.0238 1.92927,-1.19207 3.59375,-2.6875 1.66449,-1.4954 3.61481,-3.64256 4.34375,-4.8125 1.20285,-1.93066 1.31767,-2.42118 1.15625,-5.03125 -0.0977,-1.5816 -0.50418,-3.93405 -0.90625,-5.25 -0.40212,-1.31597 -0.85361,-3.01302 -1,-3.78125 -0.22889,-1.20136 -0.55088,-1.48404 -2.28125,-2.03125 -1.10673,-0.34999 -3.37738,-0.80768 -5.03125,-0.96875 -1.65385,-0.16106 -4.10053,-0.54663 -5.4375,-0.90625 -1.47147,-0.39576 -3.37585,-0.60695 -5.3125,-0.59375 z m 20.59375,7.4375 c -0.16876,0.0553 -0.031,0.96245 0.5,3.5 0.92436,4.418 0.56038,6.31041 -1.96875,9.6875 -1.18505,1.58243 -2.02965,3.06242 -1.875,3.3125 0.34669,0.56105 3.1237,0.135 4.4375,-0.6875 1.42705,-0.89343 2.02791,-4.51201 1.40625,-8.28125 -0.5018,-3.04247 -1.56472,-6.5994 -2.21875,-7.34375 -0.12562,-0.143 -0.22495,-0.206 -0.28125,-0.1875 z m -42.25,10.1875 c -0.0289,-0.0105 -0.0671,0.0152 -0.0937,0.0312 -0.63095,0.38992 -0.41241,2.72101 0.34375,3.875 0.70684,1.0789 1.4375,1.44811 1.4375,0.6875 0,-0.22519 -0.14957,-0.54818 -0.375,-0.6875 -0.22545,-0.13923 -0.55848,-1.11879 -0.71875,-2.1875 -0.14022,-0.93506 -0.39087,-1.64515 -0.59375,-1.71875 z" />
  </g>
</svg>
