<?xml version="1.0" encoding="UTF-8" standalone="no"?>
<!-- Created with Inkscape (http://www.inkscape.org/) -->

<svg
   xmlns:dc="http://purl.org/dc/elements/1.1/"
   xmlns:cc="http://creativecommons.org/ns#"
   xmlns:rdf="http://www.w3.org/1999/02/22-rdf-syntax-ns#"
   xmlns:svg="http://www.w3.org/2000/svg"
   xmlns="http://www.w3.org/2000/svg"
   xmlns:sodipodi="http://sodipodi.sourceforge.net/DTD/sodipodi-0.dtd"
   xmlns:inkscape="http://www.inkscape.org/namespaces/inkscape"
   width="800"
   height="400"
   id="svg2"
   version="1.1"
   inkscape:version="0.48.2 r9819"
   sodipodi:docname="mf.svg">
  <defs
     id="defs4" />
  <sodipodi:namedview
     id="base"
     pagecolor="#ffffff"
     bordercolor="#666666"
     borderopacity="1.0"
     inkscape:pageopacity="0.0"
     inkscape:pageshadow="2"
     inkscape:zoom="2.8284271"
     inkscape:cx="503.56353"
     inkscape:cy="311.61376"
     inkscape:document-units="px"
     inkscape:current-layer="layer1"
     showgrid="false"
     showguides="true"
     inkscape:guide-bbox="true"
     inkscape:window-width="1366"
     inkscape:window-height="746"
     inkscape:window-x="-8"
     inkscape:window-y="-8"
     inkscape:window-maximized="1"
     width="0px"
     height="0px"
     fit-margin-top="0"
     fit-margin-left="0"
     fit-margin-right="0"
     fit-margin-bottom="0">
    <sodipodi:guide
       orientation="1,0"
       position="400.22244,349.31075"
       id="guide3178" />
  </sodipodi:namedview>
  <metadata
     id="metadata7">
    <rdf:RDF>
      <cc:Work
         rdf:about="">
        <dc:format>image/svg+xml</dc:format>
        <dc:type
           rdf:resource="http://purl.org/dc/dcmitype/StillImage" />
        <dc:title></dc:title>
        <cc:license
           rdf:resource="" />
      </cc:Work>
    </rdf:RDF>
  </metadata>
  <g
     inkscape:label="Layer 1"
     inkscape:groupmode="layer"
     id="layer1"
     transform="translate(0,-652.36218)">
    <path
       id="rect3070"
       transform="translate(0,652.36218)"
       style="fill:#ff0000"
       d="m 463.65625,32.125 c -0.50578,0.05756 -1.0903,0.313316 -1.90625,0.75 -2.84935,1.52492 -5.07257,6.47108 -6,13.40625 -0.36025,2.69383 -1.67906,9.35294 -2.9375,14.78125 -1.25843,5.42831 -2.5791,12.94249 -2.9375,16.71875 -0.3584,3.77626 -1.02472,7.33985 -1.46875,7.90625 -1.77565,2.26499 -4.7001,12.13081 -4.84375,16.3125 -0.18739,5.45508 2.07662,8.75907 6.8125,9.875 6.37869,1.50303 16.87251,1.12769 18.84375,-0.65625 C 471.77189,108.90819 471.657,97.4873 469,90.15625 466.16623,82.33748 465.59275,71.34802 467.0625,52.375 c 1.27672,-16.48107 1.28528,-16.65222 -0.78125,-18.71875 -1.15849,-1.158494 -1.78204,-1.627183 -2.625,-1.53125 z m -0.0625,3.125 c 0.20337,0.0024 0.40689,0.07201 0.59375,0.1875 0.86051,0.53182 1.00106,3.03847 0.5,9.21875 -0.37889,4.67339 -0.61405,14.59857 -0.53125,22.0625 0.1408,12.69433 0.0231,13.5625 -1.71875,13.5625 -1.02416,0 -2.37648,-0.50148 -3,-1.125 -0.8536,-0.8536 -1.75516,-0.72516 -3.625,0.5 -1.36585,0.89494 -2.70949,1.625 -3,1.625 -1.39954,0 -0.46389,-6.35666 3.84375,-25.65625 1.39334,-6.24256 2.80845,-12.70604 3.125,-14.34375 0.6638,-3.434034 2.38893,-6.048293 3.8125,-6.03125 z M 459.5,81.875 c 0.27124,0.0017 0.52273,0.04409 0.78125,0.09375 3.45419,0.66359 7.4749,9.35879 8.34375,18.0625 0.56887,5.69876 0.4082,6.61204 -1.40625,8.25 -4.07842,3.68175 -14.92371,2.62819 -19.96875,-1.9375 -2.16599,-1.96019 -2.0281,-3.99337 0.875,-13.09375 1.96572,-6.161934 7.30644,-11.400643 11.375,-11.375 z" />
  </g>
</svg>
