<?xml version="1.0" encoding="UTF-8" standalone="no"?>
<!-- Created with Inkscape (http://www.inkscape.org/) -->

<svg
   xmlns:dc="http://purl.org/dc/elements/1.1/"
   xmlns:cc="http://creativecommons.org/ns#"
   xmlns:rdf="http://www.w3.org/1999/02/22-rdf-syntax-ns#"
   xmlns:svg="http://www.w3.org/2000/svg"
   xmlns="http://www.w3.org/2000/svg"
   xmlns:sodipodi="http://sodipodi.sourceforge.net/DTD/sodipodi-0.dtd"
   xmlns:inkscape="http://www.inkscape.org/namespaces/inkscape"
   width="800"
   height="400"
   id="svg2"
   version="1.1"
   inkscape:version="0.48.2 r9819"
   sodipodi:docname="f21.svg">
  <defs
     id="defs4" />
  <sodipodi:namedview
     id="base"
     pagecolor="#ffffff"
     bordercolor="#666666"
     borderopacity="1.0"
     inkscape:pageopacity="0.0"
     inkscape:pageshadow="2"
     inkscape:zoom="2.8284271"
     inkscape:cx="595.6097"
     inkscape:cy="112.7428"
     inkscape:document-units="px"
     inkscape:current-layer="layer1"
     showgrid="false"
     showguides="true"
     inkscape:guide-bbox="true"
     inkscape:window-width="1366"
     inkscape:window-height="746"
     inkscape:window-x="-8"
     inkscape:window-y="-8"
     inkscape:window-maximized="1"
     width="0px"
     height="0px"
     fit-margin-top="0"
     fit-margin-left="0"
     fit-margin-right="0"
     fit-margin-bottom="0">
    <sodipodi:guide
       orientation="1,0"
       position="400.22244,349.31075"
       id="guide3178" />
    <sodipodi:guide
       orientation="0,1"
       position="655.48799,210.71782"
       id="guide3180" />
  </sodipodi:namedview>
  <metadata
     id="metadata7">
    <rdf:RDF>
      <cc:Work
         rdf:about="">
        <dc:format>image/svg+xml</dc:format>
        <dc:type
           rdf:resource="http://purl.org/dc/dcmitype/StillImage" />
        <dc:title></dc:title>
      </cc:Work>
    </rdf:RDF>
  </metadata>
  <g
     inkscape:label="Layer 1"
     inkscape:groupmode="layer"
     id="layer1"
     transform="translate(0,-652.36218)">
    <path
       id="rect3771"
       transform="translate(0,652.36218)"
       style="fill:#ff0000"
       d="m 566.65625,267.65625 c -1.15107,0.013 -4.13741,1.43285 -5.28125,2.53125 -0.52836,0.5072 -1.0378,0.9375 -1.15625,0.9375 -0.28612,0 -4.15625,3.92795 -4.15625,4.21875 0,0.1246 -0.39788,0.5505 -0.84375,0.9375 -2.05041,1.7797 -2.65625,3.5562 -2.65625,7.75 -7.9e-4,3.3738 0.28867,5.0166 1.75,10.1875 0.95706,3.3865 1.75,6.60535 1.75,7.15625 0,0.5512 0.16991,1.1237 0.375,1.25 0.55044,0.3402 0.96017,3.96085 1.375,11.78125 1.3707,25.8413 2.51298,37.0917 4.09375,40.875 0.37721,0.9028 0.65625,2.06965 0.65625,2.59375 0,1.8607 2.07692,5.35715 4,6.71875 1.48603,1.0523 2.34829,1.32815 4.15625,1.34375 1.80989,0.016 2.35945,-0.1413 2.71875,-0.8125 0.63269,-1.1823 0.52616,-4.0018 -0.25,-8.3125 -1.50825,-8.3765 -1.2351,-26.6591 0.5625,-41.125 0.35678,-2.8712 0.74354,-6.07965 0.875,-7.15625 0.13154,-1.0768 0.511,-2.2661 0.8125,-2.625 0.30148,-0.3588 0.96185,-2.11185 1.5,-3.90625 0.53806,-1.7946 1.42348,-4.6378 1.96875,-6.3125 3.37274,-10.3602 3.6564,-16.5639 0.8125,-18.6875 -0.64077,-0.4786 -2.8928,-2.5814 -4.96875,-4.625 -3.66372,-3.606 -5.66169,-4.74725 -8.09375,-4.71875 z m -0.875,2.59375 c 0.22183,-0.01 0.47346,0 0.75,0 2.23011,0 2.36213,0.0759 5.375,2.9375 1.70063,1.6149 3.99609,3.68465 5.125,4.59375 l 2.0625,1.65625 0,4.25 c 0,3.4721 -0.24152,5.1425 -1.3125,8.8125 -0.72479,2.4836 -1.47519,4.86525 -1.6875,5.34375 -0.21231,0.4785 -0.63702,1.8376 -0.90625,3 -0.37092,1.6015 -0.95774,2.58345 -2.46875,4.03125 -1.83708,1.7602 -2.16468,1.92625 -4.21875,1.90625 -2.84948,-0.028 -5.379,-1.2627 -8.125,-3.9375 -1.62209,-1.5798 -2.15625,-2.41305 -2.15625,-3.40625 0,-0.7191 -0.46268,-2.6207 -1.03125,-4.25 -2.3632,-6.7718 -3.55901,-14.0568 -2.4375,-14.75 0.23927,-0.1479 0.40625,-0.5207 0.40625,-0.875 0,-0.6338 0.52143,-1.17325 6.21875,-6.59375 2.41741,-2.3006 2.85352,-2.66565 4.40625,-2.71875 z m -6.0625,36.25 c 0.0931,-0.093 1.28372,0.2381 2.6875,0.75 4.12102,1.503 5.67244,1.7654 7.6875,1.3125 1.10882,-0.2493 1.98164,-0.26795 2.21875,-0.0312 0.23715,0.2373 0.1379,2.5429 -0.28125,5.75 -1.41931,10.8591 -1.7607,17.3232 -1.46875,28 0.15659,5.7292 0.58671,12.1592 0.9375,14.3125 0.78565,4.8234 0.80351,6.85275 0.125,7.53125 -0.57584,0.5759 -1.08125,0.60645 -2.21875,0.15625 -1.03997,-0.4119 -4.53246,-5.1807 -4.8125,-6.5625 -0.12524,-0.618 -0.73739,-3.3734 -1.34375,-6.125 -1.02685,-4.6597 -1.32421,-7.5313 -2.40625,-21.75 -0.59065,-7.7608 -1.32526,-23.14365 -1.125,-23.34375 z" />
  </g>
</svg>
