<?xml version="1.0" encoding="UTF-8" standalone="no"?>
<!-- Created with Inkscape (http://www.inkscape.org/) -->

<svg
   xmlns:dc="http://purl.org/dc/elements/1.1/"
   xmlns:cc="http://creativecommons.org/ns#"
   xmlns:rdf="http://www.w3.org/1999/02/22-rdf-syntax-ns#"
   xmlns:svg="http://www.w3.org/2000/svg"
   xmlns="http://www.w3.org/2000/svg"
   xmlns:sodipodi="http://sodipodi.sourceforge.net/DTD/sodipodi-0.dtd"
   xmlns:inkscape="http://www.inkscape.org/namespaces/inkscape"
   width="800"
   height="700"
   id="svg2"
   version="1.1"
   inkscape:version="0.48.2 r9819"
   sodipodi:docname="l20.svg">
  <defs
     id="defs4" />
  <sodipodi:namedview
     id="base"
     pagecolor="#ffffff"
     bordercolor="#666666"
     borderopacity="1.0"
     inkscape:pageopacity="0.0"
     inkscape:pageshadow="2"
     inkscape:zoom="1.767767"
     inkscape:cx="95.690779"
     inkscape:cy="163.02975"
     inkscape:document-units="px"
     inkscape:current-layer="layer1"
     showgrid="false"
     showguides="true"
     inkscape:guide-bbox="true"
     inkscape:window-width="1366"
     inkscape:window-height="746"
     inkscape:window-x="-8"
     inkscape:window-y="-8"
     inkscape:window-maximized="1"
     width="0px"
     height="0px"
     fit-margin-top="0"
     fit-margin-left="0"
     fit-margin-right="0"
     fit-margin-bottom="0">
    <sodipodi:guide
       orientation="1,0"
       position="400.22244,349.31075"
       id="guide3178" />
    <sodipodi:guide
       orientation="0,1"
       position="400.22244,349.31075"
       id="guide3180" />
  </sodipodi:namedview>
  <metadata
     id="metadata7">
    <rdf:RDF>
      <cc:Work
         rdf:about="">
        <dc:format>image/svg+xml</dc:format>
        <dc:type
           rdf:resource="http://purl.org/dc/dcmitype/StillImage" />
        <dc:title></dc:title>
      </cc:Work>
    </rdf:RDF>
  </metadata>
  <g
     inkscape:label="Layer 1"
     inkscape:groupmode="layer"
     id="layer1"
     transform="translate(0,-352.36218)">
    <path
       id="rect3254"
       transform="translate(0,352.36218)"
       style="fill:#ff0000"
       d="m 221.1875,414.5 c -3.34937,-0.007 -3.9199,2.38071 -3.21875,13.84375 0.85386,13.96035 0.62759,20.74 -1,29.21875 -0.34296,1.78646 -0.5329,3.37689 -0.4375,3.53125 0.0954,0.15447 -0.13755,2.10284 -0.5,4.34375 -0.36247,2.24089 -0.67287,4.98047 -0.6875,6.0625 -0.029,2.13755 -1.41009,9.7054 -2.21875,12.15625 -0.27628,0.83744 -0.76384,1.82167 -1.0625,2.1875 -0.84031,1.02961 -1.98435,5.60834 -2.1875,8.625 -0.14739,2.18846 0.0206,3.09127 0.8125,4.75 1.33454,2.79351 8.20411,9.56103 11.28125,11.09375 2.28357,1.13731 5.78461,1.59674 6.25,0.84375 0.11621,-0.1881 1.62691,-1.0463 3.40625,-1.9375 1.77932,-0.8914 4.42639,-2.71102 5.875,-4.03125 2.133,-1.94377 2.78289,-2.85918 3.4375,-4.875 0.73357,-2.25878 0.76513,-2.9815 0.3125,-7.71875 -0.47944,-5.01868 -1.24678,-9.0842 -1.90625,-10 -0.1723,-0.23923 -0.42602,-1.57647 -0.5625,-2.96875 -0.13648,-1.39228 -0.40965,-2.74876 -0.625,-3.03125 -0.70852,-0.92959 -2.24487,-9.07252 -3.8125,-20.125 -0.84836,-5.98162 -1.62098,-11.27144 -1.71875,-11.75 -0.0977,-0.47852 -0.72241,-3.58777 -1.34375,-6.9375 -0.62134,-3.34973 -1.41749,-7.13616 -1.78125,-8.40625 -0.36376,-1.27011 -0.80137,-3.22121 -1,-4.34375 -1.25177,-7.07507 -3.65014,-10.52412 -7.3125,-10.53125 z m -0.15625,1.375 c 2.05566,-0.16423 4.17193,2.48974 5.59375,7.3125 0.52906,1.79449 0.92939,3.67835 0.9375,4.1875 0.01,0.50914 0.33094,1.64663 0.6875,2.5 0.35654,0.8533 0.74662,2.50645 0.875,3.65625 0.12838,1.14984 0.50027,3.51801 0.84375,5.3125 1.09987,5.74637 2.49006,15.75264 2.875,20.90625 0.44228,5.92184 1.02661,10.01953 1.625,11.15625 0.58711,1.11536 1.97394,7.55738 1.6875,7.84375 -0.12611,0.12611 -0.53378,-0.35101 -0.90625,-1.03125 -2.08209,-3.80234 -6.15403,-5.91702 -9.5,-5 -1.78824,0.49001 -7.66707,4.90336 -8.65625,6.5 -0.48174,0.77758 -0.96251,1.4375 -1.0625,1.4375 -0.48552,0 -0.0882,-5.74941 0.65625,-9.5 0.46029,-2.31903 0.94279,-5.97159 1.09375,-8.125 0.15091,-2.15341 0.59168,-5.17722 0.9375,-6.6875 0.3458,-1.51026 0.59679,-3.65959 0.59375,-4.78125 -0.004,-1.12161 0.22327,-4.39865 0.5,-7.28125 0.39301,-4.09518 0.37417,-6.66758 -0.0625,-11.75 -0.30724,-3.57759 -0.61006,-8.53039 -0.71875,-11 -0.17562,-3.99103 -0.11892,-4.55376 0.59375,-5.09375 0.461,-0.34931 0.93186,-0.52459 1.40625,-0.5625 z m 6.53125,58.875 c 1.32772,-0.0209 2.84279,0.31261 3.84375,0.9375 3.03157,1.89276 5.45957,12.31988 4.125,17.6875 -0.68837,2.76859 -0.32467,3.78125 1.3125,3.78125 0.72988,0 0.80097,-0.20816 0.53125,-1.21875 -0.35479,-1.32958 -0.37579,-1.15366 0.125,-4.3125 0.19845,-1.25201 0.23903,-3.50133 0.0625,-5 -0.64582,-5.47707 0.57666,-2.79704 1.84375,4.03125 0.96114,5.17941 0.80708,7.34135 -0.71875,10.71875 -1.03446,2.28968 -1.83846,2.99377 -6.28125,5.375 -1.07669,0.5771 -2.5424,1.48984 -3.21875,2.03125 -0.72574,0.58138 -1.79835,0.96886 -2.65625,0.96875 -1.46105,0 -6.52766,-2.43161 -8.5625,-4.125 -1.76407,-1.46808 -5.46142,-6.00004 -6.375,-7.8125 -0.80343,-1.59389 -0.81184,-1.8484 -0.21875,-3.6875 0.35136,-1.08967 0.91869,-2.56825 1.25,-3.3125 0.33128,-0.74415 0.8056,-2.33325 1.0625,-3.53125 0.29173,-1.36026 0.89107,-2.54119 1.5625,-3.125 1.42821,-1.24179 1.66932,-0.4498 0.8125,2.375 -0.36116,1.19067 -0.65322,3.05207 -0.65625,4.15625 -0.004,1.38415 -0.26783,2.3446 -0.90625,3.15625 -1.31324,1.66949 -0.47413,2.40253 1.15625,1 1.0699,-0.92036 1.21838,-1.32226 1.125,-3.125 -0.1164,-2.24851 0.70791,-5.4929 2.4375,-9.59375 1.10449,-2.61872 3.78644,-5.54328 6.3125,-6.9375 0.50702,-0.27985 1.23462,-0.42502 2.03125,-0.4375 z" />
  </g>
</svg>
