<?xml version="1.0" encoding="UTF-8" standalone="no"?>
<!-- Created with Inkscape (http://www.inkscape.org/) -->

<svg
   xmlns:dc="http://purl.org/dc/elements/1.1/"
   xmlns:cc="http://creativecommons.org/ns#"
   xmlns:rdf="http://www.w3.org/1999/02/22-rdf-syntax-ns#"
   xmlns:svg="http://www.w3.org/2000/svg"
   xmlns="http://www.w3.org/2000/svg"
   xmlns:sodipodi="http://sodipodi.sourceforge.net/DTD/sodipodi-0.dtd"
   xmlns:inkscape="http://www.inkscape.org/namespaces/inkscape"
   width="900"
   height="800"
   id="svg2"
   version="1.1"
   inkscape:version="0.48.2 r9819"
   sodipodi:docname="l20.svg">
  <defs
     id="defs4" />
  <sodipodi:namedview
     id="base"
     pagecolor="#ffffff"
     bordercolor="#666666"
     borderopacity="1.0"
     inkscape:pageopacity="0.0"
     inkscape:pageshadow="2"
     inkscape:zoom="2"
     inkscape:cx="239.0722"
     inkscape:cy="254.43059"
     inkscape:document-units="px"
     inkscape:current-layer="layer1"
     showgrid="false"
     showguides="true"
     inkscape:guide-bbox="true"
     inkscape:window-width="1366"
     inkscape:window-height="746"
     inkscape:window-x="-8"
     inkscape:window-y="-8"
     inkscape:window-maximized="1"
     width="0px"
     height="0px"
     fit-margin-top="0"
     fit-margin-left="0"
     fit-margin-right="0"
     fit-margin-bottom="0">
    <sodipodi:guide
       orientation="1,0"
       position="450,784"
       id="guide3178" />
    <sodipodi:guide
       orientation="0,1"
       position="-61,400"
       id="guide3180" />
  </sodipodi:namedview>
  <metadata
     id="metadata7">
    <rdf:RDF>
      <cc:Work
         rdf:about="">
        <dc:format>image/svg+xml</dc:format>
        <dc:type
           rdf:resource="http://purl.org/dc/dcmitype/StillImage" />
        <dc:title></dc:title>
      </cc:Work>
    </rdf:RDF>
  </metadata>
  <g
     inkscape:label="Layer 1"
     inkscape:groupmode="layer"
     id="layer1"
     transform="translate(0,-252.36218)">
    <path
       id="rect3156"
       transform="translate(0,252.36218)"
       style="fill:#ff0000"
       d="m 248.96875,468.59375 c -3.78629,-0.007 -4.41762,2.69783 -3.625,15.65625 0.96524,15.78153 0.68367,23.44641 -1.15625,33.03125 -0.3877,2.0195 -0.60787,3.82551 -0.5,4 0.10787,0.17462 -0.12152,2.37302 -0.53125,4.90625 -0.40975,2.53323 -0.79596,5.62055 -0.8125,6.84375 -0.0328,2.4164 -1.58586,10.97944 -2.5,13.75 -0.31234,0.9467 -0.84988,2.08645 -1.1875,2.5 -0.94995,1.16393 -2.23908,6.30856 -2.46875,9.71875 -0.16661,2.47396 -0.0205,3.49989 0.875,5.375 1.50862,3.15793 9.30269,10.79858 12.78125,12.53125 2.58149,1.28567 6.50514,1.81997 7.03125,0.96875 0.13137,-0.21264 1.89479,-1.18003 3.90625,-2.1875 2.01144,-1.00768 4.98741,-3.07004 6.625,-4.5625 2.41126,-2.19734 3.13499,-3.25246 3.875,-5.53125 0.82926,-2.55344 0.88668,-3.36351 0.375,-8.71875 -0.54199,-5.67337 -1.41074,-10.27725 -2.15625,-11.3125 -0.19478,-0.27044 -0.50196,-1.73859 -0.65625,-3.3125 -0.15428,-1.57392 -0.47531,-3.14941 -0.71875,-3.46875 -0.80095,-1.05087 -2.54037,-10.22444 -4.3125,-22.71875 -0.95903,-6.76195 -1.82698,-12.74026 -1.9375,-13.28125 -0.1104,-0.54094 -0.7976,-4.05703 -1.5,-7.84375 -0.7024,-3.78671 -1.58879,-8.0642 -2,-9.5 -0.41122,-1.43579 -0.93171,-3.63728 -1.15625,-4.90625 -1.41506,-7.99804 -4.10986,-11.92945 -8.25,-11.9375 z m -0.1875,1.5625 c 2.32383,-0.18565 4.70519,2.82935 6.3125,8.28125 0.59807,2.0286 1.08457,4.17442 1.09375,4.75 0.0103,0.57555 0.34692,1.81656 0.75,2.78125 0.40305,0.96461 0.85486,2.85644 1,4.15625 0.14511,1.29983 0.58046,4.00266 0.96875,6.03125 1.24336,6.49601 2.7836,17.76784 3.21875,23.59375 0.49999,6.69437 1.16729,11.34 1.84375,12.625 0.66369,1.26087 2.23006,8.52002 1.90625,8.84375 -0.14256,0.14256 -0.57893,-0.35602 -1,-1.125 -2.3537,-4.29835 -6.96752,-6.72414 -10.75,-5.6875 -2.0215,0.55393 -8.69427,5.57008 -9.8125,7.375 -0.54458,0.87903 -1.04322,1.59375 -1.15625,1.59375 -0.54887,0 -0.15407,-6.47888 0.6875,-10.71875 0.52034,-2.62156 1.1106,-6.75317 1.28125,-9.1875 0.17061,-2.43432 0.64032,-5.82395 1.03125,-7.53125 0.3909,-1.70727 0.69093,-4.16951 0.6875,-5.4375 -0.004,-1.26794 0.24968,-4.96011 0.5625,-8.21875 0.44428,-4.62941 0.43102,-7.53581 -0.0625,-13.28125 -0.34733,-4.0443 -0.68964,-9.64572 -0.8125,-12.4375 -0.19853,-4.51167 -0.14939,-5.13957 0.65625,-5.75 0.52114,-0.3949 1.05746,-0.6134 1.59375,-0.65625 z m 7.40625,66.5625 c 1.50093,-0.0236 3.21222,0.35609 4.34375,1.0625 3.42705,2.13968 6.16491,13.93217 4.65625,20 -0.77819,3.12978 -0.382,4.28125 1.46875,4.28125 0.82509,0 0.89865,-0.23258 0.59375,-1.375 -0.40107,-1.50303 -0.40986,-1.30409 0.15625,-4.875 0.22433,-1.41535 0.26217,-3.99333 0.0625,-5.6875 -0.73007,-6.19157 0.66136,-3.15656 2.09375,4.5625 1.08652,5.85508 0.91239,8.307 -0.8125,12.125 -1.1694,2.58838 -2.10264,3.40189 -7.125,6.09375 -1.21715,0.65239 -2.86041,1.66921 -3.625,2.28125 -0.82042,0.65722 -2.03019,1.12512 -3,1.125 -1.65164,0 -7.35595,-2.77321 -9.65625,-4.6875 -1.9942,-1.6596 -6.18599,-6.76358 -7.21875,-8.8125 -0.90823,-1.80181 -0.92046,-2.07724 -0.25,-4.15625 0.3972,-1.23181 1.00047,-2.93991 1.375,-3.78125 0.37448,-0.84124 0.95958,-2.64572 1.25,-4 0.32979,-1.53771 0.99098,-2.84003 1.75,-3.5 1.61452,-1.40378 1.9061,-0.53706 0.9375,2.65625 -0.40827,1.34599 -0.74657,3.43928 -0.75,4.6875 -0.004,1.56473 -0.3408,2.67622 -1.0625,3.59375 -1.48456,1.88728 -0.49932,2.71051 1.34375,1.125 1.20946,-1.04042 1.35557,-1.49335 1.25,-3.53125 -0.13158,-2.54184 0.79478,-6.20794 2.75,-10.84375 1.24859,-2.96034 4.30065,-6.26766 7.15625,-7.84375 0.57317,-0.31635 1.41193,-0.4859 2.3125,-0.5 z" />
  </g>
</svg>
