<?xml version="1.0" encoding="UTF-8" standalone="no"?>
<!-- Created with Inkscape (http://www.inkscape.org/) -->

<svg
   xmlns:dc="http://purl.org/dc/elements/1.1/"
   xmlns:cc="http://creativecommons.org/ns#"
   xmlns:rdf="http://www.w3.org/1999/02/22-rdf-syntax-ns#"
   xmlns:svg="http://www.w3.org/2000/svg"
   xmlns="http://www.w3.org/2000/svg"
   xmlns:sodipodi="http://sodipodi.sourceforge.net/DTD/sodipodi-0.dtd"
   xmlns:inkscape="http://www.inkscape.org/namespaces/inkscape"
   width="900"
   height="800"
   id="svg2"
   version="1.1"
   inkscape:version="0.48.2 r9819"
   sodipodi:docname="m21.svg">
  <defs
     id="defs4" />
  <sodipodi:namedview
     id="base"
     pagecolor="#ffffff"
     bordercolor="#666666"
     borderopacity="1.0"
     inkscape:pageopacity="0.0"
     inkscape:pageshadow="2"
     inkscape:zoom="2"
     inkscape:cx="239.0722"
     inkscape:cy="173.44653"
     inkscape:document-units="px"
     inkscape:current-layer="layer1"
     showgrid="false"
     showguides="true"
     inkscape:guide-bbox="true"
     inkscape:window-width="1366"
     inkscape:window-height="746"
     inkscape:window-x="-8"
     inkscape:window-y="-8"
     inkscape:window-maximized="1"
     width="0px"
     height="0px"
     fit-margin-top="0"
     fit-margin-left="0"
     fit-margin-right="0"
     fit-margin-bottom="0">
    <sodipodi:guide
       orientation="1,0"
       position="450,784"
       id="guide3178" />
    <sodipodi:guide
       orientation="0,1"
       position="-61,400"
       id="guide3180" />
  </sodipodi:namedview>
  <metadata
     id="metadata7">
    <rdf:RDF>
      <cc:Work
         rdf:about="">
        <dc:format>image/svg+xml</dc:format>
        <dc:type
           rdf:resource="http://purl.org/dc/dcmitype/StillImage" />
        <dc:title></dc:title>
      </cc:Work>
    </rdf:RDF>
  </metadata>
  <g
     inkscape:label="Layer 1"
     inkscape:groupmode="layer"
     id="layer1"
     transform="translate(0,-252.36218)">
    <path
       id="rect3164"
       transform="translate(0,252.36218)"
       style="fill:#ff0000"
       d="m 253.71875,646.3125 c -0.62636,0.0278 -1.16553,0.26432 -2.15625,0.78125 -3.06191,1.59816 -3.901,2.17866 -4.59375,3.09375 -0.9843,1.3004 -1.73019,1.95593 -4.96875,4.28125 -1.84303,1.32335 -3.59603,3.13632 -4.53125,4.65625 -1.46628,2.38308 -1.5327,2.59201 -1.21875,6.15625 0.17998,2.04284 0.76489,5.29423 1.3125,7.1875 0.5476,1.89326 1.16099,4.12614 1.3125,4.9375 0.15149,0.81147 0.40922,1.57791 0.625,1.71875 0.61851,0.40263 1.9584,9.43512 1.96875,13.375 0.0116,4.11714 1.40883,14.8617 3.40625,26.1875 1.80285,10.22242 2.1482,13.8487 2.1875,22.4375 0.0321,6.97933 0.20368,9.317 0.71875,9.9375 0.95553,1.1515 2.9695,1.0466 4.96875,-0.3125 1.78195,-1.2114 6.40625,-8.91098 6.40625,-10.65625 0,-0.49501 0.41933,-2.19035 0.9375,-3.8125 1.52154,-4.76295 2.05198,-14.06731 1.6875,-29.5 -0.25591,-10.8346 -0.19647,-14.53473 0.3125,-16.65625 0.36005,-1.50074 0.8695,-2.83112 1.09375,-2.96875 0.22424,-0.13876 0.375,-0.9184 0.375,-1.75 0,-2.0248 1.06599,-5.4757 1.8125,-5.9375 0.33054,-0.20448 0.72135,-1.09122 0.90625,-1.96875 0.1849,-0.87755 0.67096,-2.28228 1.03125,-3.09375 0.99413,-2.23893 3.15625,-11.67972 3.15625,-13.75 0,-5.25611 -6.41677,-11.58587 -13.96875,-13.78125 -1.41189,-0.41011 -2.15486,-0.59025 -2.78125,-0.5625 z m 0.5625,2.375 c 0.26681,-0.0301 0.54361,-0.014 0.8125,0 1.29067,0.0671 2.64052,0.62042 4.34375,1.625 3.22567,1.90257 7.75086,6.52288 8.4375,8.5625 0.59146,1.75667 -0.42311,8.50831 -1.71875,11.4375 -0.55571,1.25615 -1.16508,3.03024 -1.34375,3.9375 -0.17868,0.90731 -0.5146,2.11529 -0.75,2.65625 -0.23541,0.54105 -0.77952,2.10266 -1.21875,3.5 -0.91864,2.92234 -2.60095,4.86952 -5.40625,6.15625 -1.20553,0.55301 -3.14415,0.86832 -4.96875,0.875 -2.43365,0.009 -3.33794,-0.20914 -5.125,-1.34375 -3.06395,-1.94508 -5.375,-4.42974 -5.375,-5.71875 0,-0.60126 -0.22307,-1.2744 -0.46875,-1.53125 -0.83235,-0.87077 -4,-11.69844 -4,-13.6875 0,-3.06199 1.61536,-5.72855 4.71875,-7.875 1.4986,-1.03641 3.98461,-3.04177 5.53125,-4.46875 2.80756,-2.58989 4.66359,-3.9146 6.53125,-4.125 z m -9.9375,37.84375 c 0.20663,0.0168 0.42616,0.12823 0.65625,0.3125 2.05917,1.65008 9.75716,2.60555 12.5,1.5625 0.73785,-0.28031 1.50835,-0.30669 1.71875,-0.0937 0.21034,0.21297 0.51261,8.13596 0.6875,17.625 0.35863,19.45794 0.0233,24.38714 -2.25,31.34375 -0.78739,2.40947 -1.43634,4.70755 -1.4375,5.15625 -0.006,1.26524 -2.67776,5.6211 -4.375,7.125 -1.73216,1.5348 -1.82214,1.5434 -2.3125,0.75 -0.87476,-1.4154 -1.12235,-4.96978 -0.625,-9.75 0.4421,-4.24923 0.4427,-5.96786 -0.1875,-9.8125 -0.42123,-2.56943 -1.15167,-7.11859 -1.59375,-10.09375 -0.44204,-2.97539 -1.24527,-7.83551 -1.78125,-10.8125 -0.53602,-2.97701 -1.17804,-8.18344 -1.4375,-11.5625 -0.25945,-3.37917 -0.59444,-7.16997 -0.75,-8.40625 -0.23298,-1.85009 0.22726,-3.17525 1,-3.3125 0.0644,-0.0114 0.11862,-0.0368 0.1875,-0.0312 z" />
  </g>
</svg>
