<?xml version="1.0" encoding="UTF-8" standalone="no"?>
<!-- Created with Inkscape (http://www.inkscape.org/) -->

<svg
   xmlns:dc="http://purl.org/dc/elements/1.1/"
   xmlns:cc="http://creativecommons.org/ns#"
   xmlns:rdf="http://www.w3.org/1999/02/22-rdf-syntax-ns#"
   xmlns:svg="http://www.w3.org/2000/svg"
   xmlns="http://www.w3.org/2000/svg"
   xmlns:sodipodi="http://sodipodi.sourceforge.net/DTD/sodipodi-0.dtd"
   xmlns:inkscape="http://www.inkscape.org/namespaces/inkscape"
   width="800"
   height="700"
   id="svg2"
   version="1.1"
   inkscape:version="0.48.2 r9819"
   sodipodi:docname="m21.svg">
  <defs
     id="defs4" />
  <sodipodi:namedview
     id="base"
     pagecolor="#ffffff"
     bordercolor="#666666"
     borderopacity="1.0"
     inkscape:pageopacity="0.0"
     inkscape:pageshadow="2"
     inkscape:zoom="1.767767"
     inkscape:cx="95.690779"
     inkscape:cy="117.77492"
     inkscape:document-units="px"
     inkscape:current-layer="layer1"
     showgrid="false"
     showguides="true"
     inkscape:guide-bbox="true"
     inkscape:window-width="1366"
     inkscape:window-height="746"
     inkscape:window-x="-8"
     inkscape:window-y="-8"
     inkscape:window-maximized="1"
     width="0px"
     height="0px"
     fit-margin-top="0"
     fit-margin-left="0"
     fit-margin-right="0"
     fit-margin-bottom="0">
    <sodipodi:guide
       orientation="1,0"
       position="400.22244,349.31075"
       id="guide3178" />
    <sodipodi:guide
       orientation="0,1"
       position="400.22244,349.31075"
       id="guide3180" />
  </sodipodi:namedview>
  <metadata
     id="metadata7">
    <rdf:RDF>
      <cc:Work
         rdf:about="">
        <dc:format>image/svg+xml</dc:format>
        <dc:type
           rdf:resource="http://purl.org/dc/dcmitype/StillImage" />
        <dc:title></dc:title>
      </cc:Work>
    </rdf:RDF>
  </metadata>
  <g
     inkscape:label="Layer 1"
     inkscape:groupmode="layer"
     id="layer1"
     transform="translate(0,-352.36218)">
    <path
       id="rect3262"
       transform="translate(0,352.36218)"
       style="fill:#ff0000"
       d="m 225.40625,571.6875 c -0.55407,0.025 -1.02986,0.2302 -1.90625,0.6875 -2.70857,1.4137 -3.44969,1.9405 -4.0625,2.75 -0.87072,1.1503 -1.54143,1.72435 -4.40625,3.78125 -1.63036,1.1707 -3.17272,2.7805 -4,4.125 -1.29709,2.1081 -1.37146,2.31585 -1.09375,5.46875 0.15921,1.8071 0.70309,4.66895 1.1875,6.34375 0.48441,1.6748 0.99097,3.62595 1.125,4.34375 0.134,0.7178 0.40288,1.40665 0.59375,1.53125 0.54715,0.3562 1.70961,8.35855 1.71875,11.84375 0.0102,3.642 1.23309,13.13745 3,23.15625 1.5948,9.0428 1.90274,12.24605 1.9375,19.84375 0.0284,6.1739 0.16938,8.23225 0.625,8.78125 0.84527,1.0185 2.66897,0.92105 4.4375,-0.28125 1.57632,-1.0716 5.65625,-7.86235 5.65625,-9.40625 0,-0.4379 0.35413,-1.94 0.8125,-3.375 1.34596,-4.2133 1.82241,-12.44195 1.5,-26.09375 -0.22638,-9.5843 -0.16899,-12.84205 0.28125,-14.71875 0.3185,-1.3275 0.73913,-2.53455 0.9375,-2.65625 0.19837,-0.1228 0.375,-0.79565 0.375,-1.53125 0,-1.7911 0.90214,-4.8415 1.5625,-5.25 0.2924,-0.1809 0.68018,-0.9737 0.84375,-1.75 0.16356,-0.7763 0.55629,-2.00085 0.875,-2.71875 0.87941,-1.9805 2.8125,-10.3561 2.8125,-12.1875 0,-4.6496 -5.6945,-10.2454 -12.375,-12.1875 -1.24895,-0.3627 -1.88339,-0.5246 -2.4375,-0.5 z m 1.21875,2.09375 c 1.14171,0.059 2.33708,0.58015 3.84375,1.46875 2.85343,1.683 6.8301,5.7583 7.4375,7.5625 0.52321,1.554 -0.35387,7.5338 -1.5,10.125 -0.49158,1.1112 -1.02945,2.66625 -1.1875,3.46875 -0.15806,0.8027 -0.44802,1.86525 -0.65625,2.34375 -0.20825,0.4786 -0.70521,1.85765 -1.09375,3.09375 -0.81264,2.5851 -2.29969,4.2993 -4.78125,5.4375 -1.06642,0.4892 -2.76095,0.8066 -4.375,0.8125 -2.15281,0.01 -2.98166,-0.21505 -4.5625,-1.21875 -2.71037,-1.7206 -4.75,-3.9222 -4.75,-5.0625 0,-0.5319 -0.18891,-1.11655 -0.40625,-1.34375 -0.73629,-0.7703 -3.53125,-10.3655 -3.53125,-12.125 0,-2.7086 1.41098,-5.0388 4.15625,-6.9375 1.32567,-0.9168 3.50685,-2.70645 4.875,-3.96875 2.83837,-2.6183 4.62837,-3.75535 6.53125,-3.65625 z m -9.6875,33.5 c 0.22783,-0.04 0.47859,0.033 0.75,0.25 1.82153,1.4597 8.63617,2.32895 11.0625,1.40625 0.65269,-0.248 1.34512,-0.28235 1.53125,-0.0937 0.18606,0.1884 0.43903,7.19975 0.59375,15.59375 0.31724,17.2125 0.0109,21.56495 -2,27.71875 -0.69653,2.1314 -1.28021,4.1656 -1.28125,4.5625 -0.006,1.1193 -2.37362,4.9822 -3.875,6.3125 -1.53227,1.3578 -1.59747,1.35805 -2.03125,0.65625 -0.77382,-1.2521 -0.97121,-4.3964 -0.53125,-8.625 0.39107,-3.7588 0.36999,-5.2866 -0.1875,-8.6875 -0.37261,-2.273 -1.01518,-6.27435 -1.40625,-8.90625 -0.39102,-2.632 -1.11962,-6.929 -1.59375,-9.5625 -0.47417,-2.6334 -1.02048,-7.2609 -1.25,-10.25 -0.22952,-2.9892 -0.5499,-6.31255 -0.6875,-7.40625 -0.20608,-1.6365 0.22268,-2.84735 0.90625,-2.96875 z" />
  </g>
</svg>
