<?xml version="1.0" encoding="UTF-8" standalone="no"?>
<!-- Created with Inkscape (http://www.inkscape.org/) -->

<svg
   xmlns:dc="http://purl.org/dc/elements/1.1/"
   xmlns:cc="http://creativecommons.org/ns#"
   xmlns:rdf="http://www.w3.org/1999/02/22-rdf-syntax-ns#"
   xmlns:svg="http://www.w3.org/2000/svg"
   xmlns="http://www.w3.org/2000/svg"
   xmlns:sodipodi="http://sodipodi.sourceforge.net/DTD/sodipodi-0.dtd"
   xmlns:inkscape="http://www.inkscape.org/namespaces/inkscape"
   width="900"
   height="800"
   id="svg2"
   version="1.1"
   inkscape:version="0.48.2 r9819"
   sodipodi:docname="f21.svg">
  <defs
     id="defs4" />
  <sodipodi:namedview
     id="base"
     pagecolor="#ffffff"
     bordercolor="#666666"
     borderopacity="1.0"
     inkscape:pageopacity="0.0"
     inkscape:pageshadow="2"
     inkscape:zoom="2"
     inkscape:cx="239.0722"
     inkscape:cy="154.43059"
     inkscape:document-units="px"
     inkscape:current-layer="layer1"
     showgrid="false"
     showguides="true"
     inkscape:guide-bbox="true"
     inkscape:window-width="1366"
     inkscape:window-height="746"
     inkscape:window-x="-8"
     inkscape:window-y="-8"
     inkscape:window-maximized="1"
     width="0px"
     height="0px"
     fit-margin-top="0"
     fit-margin-left="0"
     fit-margin-right="0"
     fit-margin-bottom="0">
    <sodipodi:guide
       orientation="1,0"
       position="450,784"
       id="guide3178" />
    <sodipodi:guide
       orientation="0,1"
       position="-61,400"
       id="guide3180" />
  </sodipodi:namedview>
  <metadata
     id="metadata7">
    <rdf:RDF>
      <cc:Work
         rdf:about="">
        <dc:format>image/svg+xml</dc:format>
        <dc:type
           rdf:resource="http://purl.org/dc/dcmitype/StillImage" />
        <dc:title></dc:title>
      </cc:Work>
    </rdf:RDF>
  </metadata>
  <g
     inkscape:label="Layer 1"
     inkscape:groupmode="layer"
     id="layer1"
     transform="translate(0,-252.36218)">
    <path
       id="rect3160"
       transform="translate(0,252.36218)"
       style="fill:#ff0000"
       d="m 252.875,598.1875 -2.84375,1.9375 c -8.44115,7.66724 -8.32179,17.82081 -4.5625,25.78125 1.18591,2.49499 2.6746,4.71368 3.75,5.65625 0.97309,0.85294 1.98263,1.76083 2.28125,2.03125 1.5543,1.40803 4.09971,2.93006 5.4375,3.25 2.19333,0.52475 2.0701,0.49873 4.96875,-0.34375 2.12498,-0.61768 3.03376,-1.19071 4.5,-3 1.01086,-1.2473 2.84713,-3.35701 4.03125,-4.65625 6.35088,-6.96938 7.11385,-14.61081 2.21875,-21.5625 -1.19454,-1.69647 -2.39892,-3.78182 -2.6875,-4.65625 -0.31605,-0.9576 -1.34072,-2.18507 -2.5625,-3.03125 -1.97135,-1.36562 -2.20575,-1.40625 -8.28125,-1.40625 l -6.25,0 z m 6.5,2.25 c 4.79562,0.002 7.01697,0.77725 8.15625,2.90625 0.45519,0.8504 0.26135,1.32902 -1.03125,2.9375 -1.52915,1.90292 -1.54186,1.90617 -3.1875,1.21875 -2.32466,-0.97139 -5.63505,-0.8528 -8.28125,0.28125 l -2.28125,0.9375 -0.75,-1.4375 c -0.41428,-0.80103 -0.79034,-1.46875 -0.875,-1.46875 -0.0846,0 -0.172,1.31901 -0.1875,2.90625 -0.0149,1.587 -0.31632,3.32934 -0.625,3.90625 -0.45955,0.85867 -0.39944,1.0625 0.21875,1.0625 0.41523,0 0.75,-0.21073 0.75,-0.46875 0,-0.258 1.05646,-1.22851 2.3125,-2.1875 1.94453,-1.48498 2.6431,-1.76953 4.78125,-1.75 1.38113,0.013 3.27204,0.41366 4.21875,0.875 1.70732,0.83216 2.23094,1.83738 3.15625,6.09375 0.16171,0.74359 0.617,1.375 1,1.375 0.56898,0 0.63447,-0.79006 0.40625,-4.3125 -0.33673,-5.19752 0.061,-5.84351 2.96875,-4.84375 2.84911,0.97955 3.52089,2.31577 3.53125,7.1875 0.0116,5.05534 -0.7566,6.97085 -4.375,10.84375 -1.38988,1.48764 -3.19482,3.48794 -4,4.46875 -0.80519,0.98092 -2.36123,2.23836 -3.5,2.8125 -1.13875,0.5745 -2.95372,1.0625 -4,1.0625 -3.23717,0 -7.20676,-3.21262 -10.28125,-8.34375 -1.40021,-2.3368 -2.10042,-6.22497 -2.15625,-11.8125 -0.0707,-7.05496 1.5707,-10.07057 7.125,-13 2.08072,-1.09714 3.04082,-1.25 6.90625,-1.25 z" />
  </g>
</svg>
