<?xml version="1.0" encoding="UTF-8" standalone="no"?>
<!-- Created with Inkscape (http://www.inkscape.org/) -->

<svg
   xmlns:dc="http://purl.org/dc/elements/1.1/"
   xmlns:cc="http://creativecommons.org/ns#"
   xmlns:rdf="http://www.w3.org/1999/02/22-rdf-syntax-ns#"
   xmlns:svg="http://www.w3.org/2000/svg"
   xmlns="http://www.w3.org/2000/svg"
   xmlns:sodipodi="http://sodipodi.sourceforge.net/DTD/sodipodi-0.dtd"
   xmlns:inkscape="http://www.inkscape.org/namespaces/inkscape"
   width="800"
   height="700"
   id="svg2"
   version="1.1"
   inkscape:version="0.48.2 r9819"
   sodipodi:docname="f28.svg">
  <defs
     id="defs4" />
  <sodipodi:namedview
     id="base"
     pagecolor="#ffffff"
     bordercolor="#666666"
     borderopacity="1.0"
     inkscape:pageopacity="0.0"
     inkscape:pageshadow="2"
     inkscape:zoom="2.5"
     inkscape:cx="638.689"
     inkscape:cy="263.79259"
     inkscape:document-units="px"
     inkscape:current-layer="layer1"
     showgrid="false"
     showguides="true"
     inkscape:guide-bbox="true"
     inkscape:window-width="1366"
     inkscape:window-height="746"
     inkscape:window-x="-8"
     inkscape:window-y="-8"
     inkscape:window-maximized="1"
     width="0px"
     height="0px"
     fit-margin-top="0"
     fit-margin-left="0"
     fit-margin-right="0"
     fit-margin-bottom="0">
    <sodipodi:guide
       orientation="1,0"
       position="400.22244,349.31075"
       id="guide3178" />
    <sodipodi:guide
       orientation="0,1"
       position="400.22244,349.31075"
       id="guide3180" />
  </sodipodi:namedview>
  <metadata
     id="metadata7">
    <rdf:RDF>
      <cc:Work
         rdf:about="">
        <dc:format>image/svg+xml</dc:format>
        <dc:type
           rdf:resource="http://purl.org/dc/dcmitype/StillImage" />
        <dc:title></dc:title>
      </cc:Work>
    </rdf:RDF>
  </metadata>
  <g
     inkscape:label="Layer 1"
     inkscape:groupmode="layer"
     id="layer1"
     transform="translate(0,-352.36218)">
    <path
       style="fill:#ff0000"
       d="m 572.68745,819.23718 c 0.16796,-0.0137 0.30978,-0.005 0.46875,0 0.42396,0.0149 0.81515,0.084 1.125,0.25 1.71906,0.91994 4.89898,5.14717 6.75,8.9375 1.89407,3.87841 1.90716,3.95712 1.5625,7 -0.47182,4.16585 -1.43377,6.00754 -4,7.6875 -1.16327,0.76164 -2.09375,1.55437 -2.09375,1.75 0,0.1955 -0.70148,0.62204 -1.53125,0.96875 -1.92758,0.80535 -1.62485,0.86968 -5.34375,-0.875 -3.51493,-1.64919 -4.54052,-2.63053 -5.4375,-5.21875 -0.74172,-2.14042 -0.62012,-3.96234 0.53125,-7.625 0.48889,-1.55526 0.90219,-3.36657 0.90625,-4.03125 0.007,-1.52637 2.14445,-5.83198 3.65625,-7.34375 0.85869,-0.85842 2.23053,-1.4038 3.40625,-1.5 z"
       id="path3435" />
    <path
       style="fill:#ff0000"
       d="m 562.625,835.61218 c 0.21011,0 0.375,0.78524 0.375,1.75 0,2.40857 0.93227,4.41423 2.90625,6.28125 l 1.6875,1.5625 -1.09375,0.8125 c -1.54007,1.16689 -0.79597,1.5748 1.34375,0.71875 1.69631,-0.67344 1.89258,-0.67384 3.3125,0 2.94099,1.39555 5.10905,0.56139 9.625,-3.75 2.02561,-1.9336 2.6875,-3.35236 2.6875,-5.90625 0,-2.39007 1.50688,-0.30277 2,2.78125 0.29739,1.85964 -0.41917,3.88697 -2.5625,7.28125 -2.44064,3.86487 -4.81192,6.36982 -6.78125,7.21875 -2.17182,0.93633 -3.08718,0.99561 -5.5,0.21875 -3.71995,-1.18964 -8.42956,-4.5771 -9.65625,-6.9375 -1.0184,-1.95951 -0.8775,-6.31789 0.3125,-9.5 0.52508,-1.40384 1.13367,-2.53125 1.34375,-2.53125 z"
       id="rect3342" />
  </g>
</svg>
