<?xml version="1.0" encoding="UTF-8" standalone="no"?>
<!-- Created with Inkscape (http://www.inkscape.org/) -->

<svg
   xmlns:dc="http://purl.org/dc/elements/1.1/"
   xmlns:cc="http://creativecommons.org/ns#"
   xmlns:rdf="http://www.w3.org/1999/02/22-rdf-syntax-ns#"
   xmlns:svg="http://www.w3.org/2000/svg"
   xmlns="http://www.w3.org/2000/svg"
   xmlns:sodipodi="http://sodipodi.sourceforge.net/DTD/sodipodi-0.dtd"
   xmlns:inkscape="http://www.inkscape.org/namespaces/inkscape"
   width="800"
   height="700"
   id="svg2"
   version="1.1"
   inkscape:version="0.48.2 r9819"
   sodipodi:docname="f28-fill.svg">
  <defs
     id="defs4" />
  <sodipodi:namedview
     id="base"
     pagecolor="#ffffff"
     bordercolor="#666666"
     borderopacity="1.0"
     inkscape:pageopacity="0.0"
     inkscape:pageshadow="2"
     inkscape:zoom="2.5"
     inkscape:cx="638.689"
     inkscape:cy="215.79259"
     inkscape:document-units="px"
     inkscape:current-layer="layer1"
     showgrid="false"
     showguides="true"
     inkscape:guide-bbox="true"
     inkscape:window-width="1024"
     inkscape:window-height="538"
     inkscape:window-x="-8"
     inkscape:window-y="-8"
     inkscape:window-maximized="1"
     width="0px"
     height="0px"
     fit-margin-top="0"
     fit-margin-left="0"
     fit-margin-right="0"
     fit-margin-bottom="0">
    <sodipodi:guide
       orientation="1,0"
       position="400.22244,349.31075"
       id="guide3178" />
    <sodipodi:guide
       orientation="0,1"
       position="400.22244,349.31075"
       id="guide3180" />
  </sodipodi:namedview>
  <metadata
     id="metadata7">
    <rdf:RDF>
      <cc:Work
         rdf:about="">
        <dc:format>image/svg+xml</dc:format>
        <dc:type
           rdf:resource="http://purl.org/dc/dcmitype/StillImage" />
        <dc:title />
      </cc:Work>
    </rdf:RDF>
  </metadata>
  <g
     inkscape:label="Layer 1"
     inkscape:groupmode="layer"
     id="layer1"
     transform="translate(0,-352.36218)">
    <path
       id="rect4536"
       transform="translate(0,352.36218)"
       style="fill:#00ff00"
       d="m 572.6875,466.875 c -1.17572,0.0962 -2.54756,0.64158 -3.40625,1.5 -1.5118,1.51177 -3.64925,5.81738 -3.65625,7.34375 -0.004,0.66468 -0.41736,2.47599 -0.90625,4.03125 -1.15137,3.66266 -1.27297,5.48458 -0.53125,7.625 0.89698,2.58822 1.92257,3.56956 5.4375,5.21875 3.7189,1.74468 3.41617,1.68035 5.34375,0.875 0.82977,-0.34671 1.53125,-0.77325 1.53125,-0.96875 0,-0.19563 0.93048,-0.98836 2.09375,-1.75 2.56623,-1.67996 3.52818,-3.52165 4,-7.6875 0.34466,-3.04288 0.33157,-3.12159 -1.5625,-7 -1.85102,-3.79033 -5.03094,-8.01756 -6.75,-8.9375 -0.30985,-0.166 -0.70104,-0.2351 -1.125,-0.25 -0.15897,-0.005 -0.30079,-0.0137 -0.46875,0 z M 562.625,483.25 c -0.21008,0 -0.81867,1.12741 -1.34375,2.53125 -1.19,3.18211 -1.3309,7.54049 -0.3125,9.5 1.22669,2.3604 5.9363,5.74786 9.65625,6.9375 2.41282,0.77686 3.32818,0.71758 5.5,-0.21875 1.96933,-0.84893 4.34061,-3.35388 6.78125,-7.21875 2.14333,-3.39428 2.85989,-5.42161 2.5625,-7.28125 -0.49312,-3.08402 -2,-5.17132 -2,-2.78125 0,2.55389 -0.66189,3.97265 -2.6875,5.90625 -4.51595,4.31139 -6.68401,5.14555 -9.625,3.75 -1.41992,-0.67384 -1.61619,-0.67344 -3.3125,0 -2.13972,0.85605 -2.88382,0.44814 -1.34375,-0.71875 l 1.09375,-0.8125 -1.6875,-1.5625 C 563.93227,489.41423 563,487.40857 563,485 c 0,-0.96476 -0.16489,-1.75 -0.375,-1.75 z" />
  </g>
</svg>
