<?xml version="1.0" encoding="UTF-8" standalone="no"?>
<!-- Created with Inkscape (http://www.inkscape.org/) -->

<svg
   xmlns:dc="http://purl.org/dc/elements/1.1/"
   xmlns:cc="http://creativecommons.org/ns#"
   xmlns:rdf="http://www.w3.org/1999/02/22-rdf-syntax-ns#"
   xmlns:svg="http://www.w3.org/2000/svg"
   xmlns="http://www.w3.org/2000/svg"
   xmlns:sodipodi="http://sodipodi.sourceforge.net/DTD/sodipodi-0.dtd"
   xmlns:inkscape="http://www.inkscape.org/namespaces/inkscape"
   width="800"
   height="700"
   id="svg2"
   version="1.1"
   inkscape:version="0.48.2 r9819"
   sodipodi:docname="l17.svg">
  <defs
     id="defs4" />
  <sodipodi:namedview
     id="base"
     pagecolor="#ffffff"
     bordercolor="#666666"
     borderopacity="1.0"
     inkscape:pageopacity="0.0"
     inkscape:pageshadow="2"
     inkscape:zoom="5"
     inkscape:cx="145.7556"
     inkscape:cy="222.06804"
     inkscape:document-units="px"
     inkscape:current-layer="layer1"
     showgrid="false"
     showguides="true"
     inkscape:guide-bbox="true"
     inkscape:window-width="1366"
     inkscape:window-height="746"
     inkscape:window-x="-8"
     inkscape:window-y="-8"
     inkscape:window-maximized="1"
     width="0px"
     height="0px"
     fit-margin-top="0"
     fit-margin-left="0"
     fit-margin-right="0"
     fit-margin-bottom="0">
    <sodipodi:guide
       orientation="1,0"
       position="400.22244,349.31075"
       id="guide3178" />
    <sodipodi:guide
       orientation="0,1"
       position="400.22244,349.31075"
       id="guide3180" />
  </sodipodi:namedview>
  <metadata
     id="metadata7">
    <rdf:RDF>
      <cc:Work
         rdf:about="">
        <dc:format>image/svg+xml</dc:format>
        <dc:type
           rdf:resource="http://purl.org/dc/dcmitype/StillImage" />
        <dc:title></dc:title>
      </cc:Work>
    </rdf:RDF>
  </metadata>
  <g
     inkscape:label="Layer 1"
     inkscape:groupmode="layer"
     id="layer1"
     transform="translate(0,-352.36218)">
    <path
       id="rect3218"
       transform="translate(0,352.36218)"
       style="fill:#ff0000"
       d="m 64.4375,429.90625 c -0.71651,0.13196 -1.20183,0.98067 -1.8125,2.6875 -0.87202,2.43736 -1.75119,12.81873 -1.375,16.34375 0.31635,2.96418 1.6473,6.78785 3.71875,10.5625 4.60095,8.38396 5.62262,19.43016 2.34375,26.15625 -0.59482,1.22012 -1.09375,2.36053 -1.09375,2.53125 0,0.17061 -0.58843,1.55085 -1.28125,3.03125 -1.94559,4.15731 -2.18768,5.13126 -1.75,7.5 0.4731,2.56059 1.36819,3.89157 3.84375,5.625 1.02515,0.71782 3.24298,2.63486 4.90625,4.25 3.3209,3.22457 4.14885,3.45769 7.15625,2.21875 3.28929,-1.35541 4.76067,-2.0995 6.09375,-3.09375 1.32743,-0.99017 1.34264,-0.99137 3.4375,-0.28125 1.17171,0.39723 3.07842,1.18885 4.1875,1.75 3.18961,1.61482 4.318511,1.38488 7.21875,-1.375 6.4604,-6.14774 6.51482,-6.19069 6.8125,-8.84375 0.3486,-3.1072 -0.78816,-7.71536 -2.78125,-11.40625 -0.2031,-0.37619 -0.91867,-1.73255 -1.59375,-3.03125 -0.67504,-1.29879 -1.56913,-2.72091 -1.96875,-3.15625 -1.079029,-1.17532 -1.21875,-2.75921 -1.21875,-10.84375 0,-14.07817 -2.67164,-25.35227 -7.59375,-32.25 -2.27765,-3.19186 -5.80302,-6.62856 -7.4375,-7.25 -4.27764,-1.62632 -7.23815,1.44304 -5.1875,5.375 0.35745,0.68535 0.625,1.45885 0.625,1.6875 0,0.22865 0.85072,1.81331 1.875,3.53125 1.73452,2.90913 4.40032,8.94609 4.84375,10.9375 0.10659,0.4785 0.49134,1.91136 0.84375,3.1875 0.9845,3.56459 1.37515,9.93388 0.6875,11.21875 -0.75333,1.40763 -1.39027,1.32132 -3.125,-0.375 -0.94486,-0.92403 -1.70582,-2.33523 -2.21875,-4.03125 -1.6877,-5.58111 -4.54737,-10.32082 -8.9375,-14.78125 -2.42723,-2.46611 -3.1647,-4.1762 -3.4375,-8.15625 -0.32736,-4.77625 -1.30623,-7.20408 -3.5625,-8.8125 -0.97588,-0.69577 -1.66148,-1.00886 -2.21875,-0.90625 z m 0.53125,2.1875 c 0.18828,-0.0424 0.42284,0.11317 0.78125,0.4375 0.81218,0.73503 2.1875,4.52718 2.1875,6 0,1.46789 1.37164,5.60677 2.53125,7.6875 0.6079,1.09079 1.96139,2.79853 3,3.78125 2.66621,2.52281 5.39019,6.9374 6.0625,9.8125 0.69539,2.97389 3.19593,7.36024 4.625,8.125 0.57459,0.30751 1.68094,0.51574 2.5,0.4375 1.23791,-0.11798 1.66099,-0.44556 2.34375,-1.84375 1.96449,-4.0231 -0.26936,-16.16003 -4.1875,-22.875 -0.62826,-1.07668 -1.93853,-3.64606 -2.9375,-5.71875 -1.51264,-3.13848 -1.74848,-3.96253 -1.34375,-4.71875 1.49435,-2.79227 7.15344,1.24406 10.875,7.75 4.93351,8.6246 5.75342,12.39676 6.53125,29.40625 0.21845,4.77785 0.36309,8.76167 0.3125,8.8125 -0.2804,0.28046 -9.3174,0.2332 -12.53125,-0.0625 -3.60401,-0.33128 -10.0025,0.24443 -11.6875,1.0625 -1.13123,0.54924 -2.92534,0.88733 -3.21875,0.59375 -0.15511,-0.15507 -0.27719,-1.97754 -0.28125,-4.03125 -0.008,-3.70813 -0.86694,-9.80198 -1.78125,-12.59375 -0.26242,-0.80126 -1.1121,-2.5541 -1.875,-3.90625 -3.16777,-5.61443 -3.82102,-8.0131 -4.0625,-14.75 -0.23065,-6.43509 0.29415,-10.66209 1.53125,-12.65625 0.29192,-0.47054 0.43675,-0.70765 0.625,-0.75 z M 82.46875,481 c 1.43203,-0.0127 3.03988,-0.0196 4.78125,0 5.70164,0.0645 10.78856,0.28893 11.34375,0.5 1.82806,0.69496 6.34375,11.55408 6.34375,15.28125 0,2.49596 -0.67771,1.68336 -1.3125,-1.59375 -0.91696,-4.73363 -0.98087,-5 -1.375,-5 -0.22167,0 -0.25036,0.79474 -0.0625,1.84375 0.18226,1.0169 0.3125,3.54669 0.3125,5.625 0,3.46124 -0.0614,3.9101 -1.09375,5.03125 -0.6199,0.67323 -1.55749,1.94634 -2.09375,2.84375 -1.1426,1.91226 -2.4604,2.9375 -3.78125,2.9375 -1.09702,0 -7.08631,-2.43688 -7.90625,-3.21875 -0.30564,-0.29164 -0.60498,-1.20897 -0.6875,-2.03125 -0.44989,-4.48214 -1.54982,-7.38158 -1.21875,-3.21875 0.36874,4.63625 -0.75304,6.30202 -5.5,8.15625 -4.54535,1.7753 -5.39884,1.59604 -7.96875,-1.84375 -0.62511,-0.83661 -1.74337,-2.19289 -2.46875,-2.96875 -1.69282,-1.81053 -1.98879,-4.23661 -0.90625,-7.4375 0.75969,-2.24649 0.74297,-3.09375 -0.0625,-3.09375 -0.61973,0 -2.1875,4.67215 -2.1875,6.53125 0,1.90179 -0.56845,2.26118 -1.34375,0.8125 -1.04609,-1.95474 -0.1032,-5.40706 3.15625,-11.75 0.69185,-1.34624 1.25,-2.96614 1.25,-3.59375 1.1e-4,-2.79194 2.75689,-3.72366 12.78125,-3.8125 z" />
  </g>
</svg>
