<?xml version="1.0" encoding="UTF-8" standalone="no"?>
<!-- Created with Inkscape (http://www.inkscape.org/) -->

<svg
   xmlns:dc="http://purl.org/dc/elements/1.1/"
   xmlns:cc="http://creativecommons.org/ns#"
   xmlns:rdf="http://www.w3.org/1999/02/22-rdf-syntax-ns#"
   xmlns:svg="http://www.w3.org/2000/svg"
   xmlns="http://www.w3.org/2000/svg"
   xmlns:sodipodi="http://sodipodi.sourceforge.net/DTD/sodipodi-0.dtd"
   xmlns:inkscape="http://www.inkscape.org/namespaces/inkscape"
   width="900"
   height="800"
   id="svg2"
   version="1.1"
   inkscape:version="0.48+devel r11738"
   sodipodi:docname="f18.svg">
  <defs
     id="defs4" />
  <sodipodi:namedview
     id="base"
     pagecolor="#ffffff"
     bordercolor="#666666"
     borderopacity="1.0"
     inkscape:pageopacity="0.0"
     inkscape:pageshadow="2"
     inkscape:zoom="2"
     inkscape:cx="125.76234"
     inkscape:cy="146.40425"
     inkscape:document-units="px"
     inkscape:current-layer="layer1"
     showgrid="false"
     showguides="true"
     inkscape:guide-bbox="true"
     inkscape:window-width="1366"
     inkscape:window-height="705"
     inkscape:window-x="-4"
     inkscape:window-y="-4"
     inkscape:window-maximized="1"
     width="0px"
     height="0px"
     fit-margin-top="0"
     fit-margin-left="0"
     fit-margin-right="0"
     fit-margin-bottom="0">
    <sodipodi:guide
       orientation="1,0"
       position="450,784"
       id="guide3178" />
    <sodipodi:guide
       orientation="0,1"
       position="-61,400"
       id="guide3180" />
  </sodipodi:namedview>
  <metadata
     id="metadata7">
    <rdf:RDF>
      <cc:Work
         rdf:about="">
        <dc:format>image/svg+xml</dc:format>
        <dc:type
           rdf:resource="http://purl.org/dc/dcmitype/StillImage" />
        <dc:title></dc:title>
      </cc:Work>
    </rdf:RDF>
  </metadata>
  <g
     inkscape:label="Layer 1"
     inkscape:groupmode="layer"
     id="layer1"
     transform="translate(0,-252.36218)">
    <path
       id="rect52"
       transform="translate(0,252.36218)"
       style="fill:#ff0000;fill-opacity:1;stroke:none"
       d="m 101.0625,641.25 c -2.289923,0 -6.027707,1.15415 -8.78125,2.78125 -1.029754,0.60849 -2.186688,1.125 -2.59375,1.125 -1.205749,0 -5.662165,-1.44352 -8.3125,-2.71875 -3.348743,-1.61124 -5.914418,-1.55158 -8.65625,0.21875 -5.427068,3.50369 -7.804458,7.50001 -7.8125,13.09375 -0.0032,2.32072 0.227658,3.79419 0.71875,4.4375 2.828094,3.70438 5.054008,7.65798 5.40625,9.5625 1.143525,6.18329 0.46446,13.34796 -1.96875,20.3125 -0.669067,1.91498 -1.21875,3.96653 -1.21875,4.5625 0,0.5961 -0.344344,1.92326 -0.78125,2.96875 -1.502454,3.59605 -2.155101,9.90992 -2.15625,20.90625 -0.0018,10.11546 0.03063,10.66537 1.03125,11.9375 0.578307,0.73519 1.522521,1.55035 2.09375,1.78125 2.590899,1.04686 4.186611,0.39349 6.09375,-2.5 1.319492,-2.00182 1.682806,-3.17564 2.09375,-6.71875 0.797326,-6.87436 1.266296,-9.54174 2.3125,-12.6875 1.445018,-4.3448 5.693929,-13.05237 7.1875,-14.75 0.713883,-0.81149 1.312161,-1.64422 1.3125,-1.84375 8.73e-4,-0.52981 3.640513,-2.75236 5.125,-3.125 1.127093,-0.28271 1.357537,-0.0872 2.0625,1.59375 1.442449,3.43903 0.985102,7.5907 -1.5,13.46875 -4.954695,11.71925 -5.901934,15.06859 -5.5,19.65625 0.328769,3.75251 0.995162,4.40625 4.1875,4.40625 1.942358,0 2.397957,-0.19703 4.0625,-2 1.034356,-1.12049 2.027997,-2.43503 2.1875,-2.9375 0.159452,-0.50246 0.466465,-0.9375 0.71875,-0.9375 0.252255,0 0.46875,-0.21374 0.46875,-0.5 0,-0.28638 0.617107,-1.34548 1.40625,-2.34375 2.45227,-3.10255 6.29176,-10.90546 8.125,-16.53125 1.64804,-5.05763 1.75346,-5.78132 1.75,-11.8125 -0.002,-3.53081 -0.34148,-8.86849 -0.75,-11.84375 -0.40857,-2.97528 -0.86534,-6.45017 -1.03125,-7.71875 -0.30451,-2.32818 -0.16608,-2.82941 3.125,-13 1.41854,-4.38387 1.5428,-9.41798 0.28125,-11.375 C 109.23322,644.81481 104.12299,641.25 101.0625,641.25 z m -24.3125,2 c 1.361743,-0.0386 2.861043,0.44578 4.8125,1.4375 1.59679,0.81137 3.261077,1.46875 3.71875,1.46875 2.736384,0 3.325104,1.92951 1.90625,6.09375 -0.772781,2.26833 -0.695355,4.99084 0.15625,8.75 0.257368,1.13624 0.09565,1.34988 -1,1.625 -2.152248,0.54003 -1.429437,1.10387 1.40625,1.0625 2.379043,-0.0343 2.604179,-0.11314 2,-0.78125 -0.374925,-0.41459 -0.914151,-2.21058 -1.21875,-3.96875 -0.475689,-2.74609 -0.443909,-3.77424 0.375,-7.28125 0.524298,-2.24538 1.026201,-4.15927 1.125,-4.25 0.967189,-0.87616 8.467897,-3.83218 10.21875,-4.03125 2.41666,-0.27513 2.04185,-0.55233 7.5625,4.53125 0.7676,0.70682 1.64054,2.36106 2.0625,3.8125 0.65093,2.23905 0.64892,2.88724 0.0312,5.25 -2.59502,9.92776 -3.32407,12.59312 -3.71875,13 -0.24552,0.25307 -1.95166,0.90288 -3.78125,1.4375 -2.648687,0.7738 -5.084938,0.9952 -11.9375,1.09375 -4.733382,0.0686 -8.938031,0.033 -9.34375,-0.0625 -0.405728,-0.0956 -2.003963,-0.29702 -3.5625,-0.46875 -2.726256,-0.30041 -2.871991,-0.39707 -3.8125,-2.34375 -0.537685,-1.11291 -0.967772,-2.35864 -0.96875,-2.78125 -0.0017,-0.71994 -1.729381,-3.92665 -2.40625,-4.46875 -1.099691,-0.8811 -3.51127,-5.01842 -3.59375,-6.1875 -0.208693,-2.95713 0.135376,-4.98735 0.96875,-5.90625 0.47548,-0.52428 1.238963,-1.53364 1.71875,-2.28125 0.479789,-0.74726 1.911326,-2.12614 3.1875,-3.0625 C 74.140455,643.84901 75.388256,643.28857 76.75,643.25 z m 28.625,29.1875 c 0.19921,0.004 0.30591,0.0561 0.375,0.125 1.28321,1.28327 2.12363,8.48671 2.15625,18.84375 0.0312,9.91707 -0.0174,10.69982 -1.03125,12.8125 -0.59446,1.23893 -1.53425,3.32564 -2.0625,4.65625 -2.29154,5.77248 -6.79637,13.4831 -9.9375,17.03125 -2.23748,2.52705 -4.662952,2.8466 -5.84375,0.78125 -0.692109,-1.21079 -0.676808,-1.72497 0.09375,-5.46875 0.466713,-2.26729 1.502364,-5.40231 2.3125,-7 0.810146,-1.59746 1.495428,-3.3652 1.5,-3.90625 0.005,-0.54084 0.413257,-1.62613 0.90625,-2.4375 2.419361,-3.98238 3.539028,-10.73285 2.53125,-15.09375 -1.181564,-5.11276 -2.273775,-5.69701 -6.65625,-3.65625 -7.031232,3.27407 -13.840393,17.25049 -14.84375,30.53125 -0.337354,4.46554 -1.46752,8.56853 -2.75,9.96875 -1.300103,1.41927 -2.804085,1.40828 -4.15625,-0.0312 -1.038116,-1.10499 -1.100643,-1.48996 -1.09375,-13.15625 0.0081,-13.35528 0.07163,-13.83199 3.5625,-24.53125 1.191351,-3.65156 2.446008,-8.54463 2.78125,-10.84375 0.335251,-2.29901 0.728614,-4.88683 0.875,-5.78125 l 0.28125,-1.65625 2.78125,0.40625 c 1.52227,0.21804 7.069418,0.39109 12.34375,0.375 8.777367,-0.018 9.864631,-0.14375 12.71875,-1.1875 C 103.64503,672.69145 104.77739,672.4271 105.375,672.4375 Z" />
  </g>
</svg>
