<?xml version="1.0" encoding="UTF-8" standalone="no"?>
<!-- Created with Inkscape (http://www.inkscape.org/) -->

<svg
   xmlns:dc="http://purl.org/dc/elements/1.1/"
   xmlns:cc="http://creativecommons.org/ns#"
   xmlns:rdf="http://www.w3.org/1999/02/22-rdf-syntax-ns#"
   xmlns:svg="http://www.w3.org/2000/svg"
   xmlns="http://www.w3.org/2000/svg"
   xmlns:sodipodi="http://sodipodi.sourceforge.net/DTD/sodipodi-0.dtd"
   xmlns:inkscape="http://www.inkscape.org/namespaces/inkscape"
   width="900"
   height="800"
   id="svg2"
   version="1.1"
   inkscape:version="0.48+devel r11738"
   sodipodi:docname="l18.svg">
  <defs
     id="defs4" />
  <sodipodi:namedview
     id="base"
     pagecolor="#ffffff"
     bordercolor="#666666"
     borderopacity="1.0"
     inkscape:pageopacity="0.0"
     inkscape:pageshadow="2"
     inkscape:zoom="1.4142136"
     inkscape:cx="122.0512"
     inkscape:cy="167.3086"
     inkscape:document-units="px"
     inkscape:current-layer="layer1"
     showgrid="false"
     showguides="true"
     inkscape:guide-bbox="true"
     inkscape:window-width="1366"
     inkscape:window-height="705"
     inkscape:window-x="-4"
     inkscape:window-y="-4"
     inkscape:window-maximized="1"
     width="0px"
     height="0px"
     fit-margin-top="0"
     fit-margin-left="0"
     fit-margin-right="0"
     fit-margin-bottom="0">
    <sodipodi:guide
       orientation="1,0"
       position="450,784"
       id="guide3178" />
    <sodipodi:guide
       orientation="0,1"
       position="-61,400"
       id="guide3180" />
  </sodipodi:namedview>
  <metadata
     id="metadata7">
    <rdf:RDF>
      <cc:Work
         rdf:about="">
        <dc:format>image/svg+xml</dc:format>
        <dc:type
           rdf:resource="http://purl.org/dc/dcmitype/StillImage" />
        <dc:title></dc:title>
      </cc:Work>
    </rdf:RDF>
  </metadata>
  <g
     inkscape:label="Layer 1"
     inkscape:groupmode="layer"
     id="layer1"
     transform="translate(0,-252.36218)">
    <path
       id="rect56"
       transform="translate(0,252.36218)"
       style="fill:#ff0000;fill-opacity:1;stroke:none"
       d="m 71.75,486.03125 c -0.809963,0.14916 -1.340906,1.10174 -2.03125,3.03125 -0.985779,2.75531 -1.987769,14.51512 -1.5625,18.5 0.357608,3.35087 1.877073,7.63919 4.21875,11.90625 5.201142,9.47767 6.331592,21.99024 2.625,29.59375 -0.672413,1.3793 -1.21875,2.68202 -1.21875,2.875 0,0.19288 -0.654314,1.73274 -1.4375,3.40625 -2.199406,4.69965 -2.463518,5.79101 -1.96875,8.46875 0.534837,2.89463 1.545247,4.3842 4.34375,6.34375 1.158896,0.81147 3.619753,2.98666 5.5,4.8125 3.754116,3.64522 4.694022,3.93181 8.09375,2.53125 3.718374,-1.53222 5.399261,-2.37605 6.90625,-3.5 1.50059,-1.11934 1.538116,-1.11525 3.90625,-0.3125 1.32456,0.44905 3.43374,1.33439 4.6875,1.96875 3.60571,1.82548 4.90892,1.58866 8.1875,-1.53125 7.30319,-6.94973 7.351,-7.03209 7.6875,-10.03125 0.39408,-3.51254 -0.87191,-8.70262 -3.125,-12.875 -0.2296,-0.42526 -1.01811,-2.00064 -1.78125,-3.46875 -0.76312,-1.46821 -1.79825,-3.03912 -2.25,-3.53125 -1.21979,-1.32865 -1.375,-3.11081 -1.375,-12.25 0,-15.91472 -3.02954,-28.67118 -8.59375,-36.46875 -2.574785,-3.60824 -6.558564,-7.48499 -8.40625,-8.1875 -4.835675,-1.83849 -8.193178,1.6176 -5.875,6.0625 0.404057,0.77475 0.71875,1.64777 0.71875,1.90625 0,0.25848 0.967087,2.05795 2.125,4 1.960799,3.28863 4.96746,10.1238 5.46875,12.375 0.12047,0.54092 0.539106,2.15115 0.9375,3.59375 1.112936,4.02961 1.558597,11.20378 0.78125,12.65625 -0.851616,1.59126 -1.53898,1.54261 -3.5,-0.375 -1.068129,-1.04457 -1.951434,-2.64523 -2.53125,-4.5625 -1.907874,-6.30918 -5.13092,-11.70769 -10.09375,-16.75 -2.743868,-2.78781 -3.597867,-4.71949 -3.90625,-9.21875 -0.370082,-5.39933 -1.449399,-8.11925 -4,-9.9375 C 73.178067,486.27598 72.379977,485.91525 71.75,486.03125 Z M 72.375,488.5 c 0.212818,-0.0479 0.438573,0.13336 0.84375,0.5 0.918131,0.83091 2.5,5.1163 2.5,6.78125 0,1.65939 1.564123,6.33534 2.875,8.6875 0.687184,1.23309 2.200904,3.17035 3.375,4.28125 3.014046,2.85193 6.083748,7.84358 6.84375,11.09375 0.786112,3.36183 3.634503,8.32295 5.25,9.1875 0.649528,0.34762 1.917853,0.58845 2.84375,0.5 1.399409,-0.13336 1.821915,-0.51317 2.59375,-2.09375 2.22077,-4.54792 -0.258225,-18.28404 -4.6875,-25.875 -0.710212,-1.21714 -2.21446,-4.12566 -3.34375,-6.46875 -1.709956,-3.5479 -1.957535,-4.45763 -1.5,-5.3125 1.689304,-3.15653 8.074198,1.42661 12.28125,8.78125 5.57712,9.74971 6.49571,13.99033 7.375,33.21875 0.24695,5.40114 0.4322,9.88005 0.375,9.9375 -0.31698,0.31706 -10.554386,0.27166 -14.1875,-0.0625 -4.074172,-0.3745 -11.313943,0.29398 -13.21875,1.21875 -1.278804,0.6209 -3.29333,0.98812 -3.625,0.65625 -0.175356,-0.1753 -0.307904,-2.24087 -0.3125,-4.5625 -0.0089,-4.19186 -0.96642,-11.06278 -2,-14.21875 -0.296654,-0.90579 -1.262583,-2.87771 -2.125,-4.40625 -3.581008,-6.34685 -4.320782,-9.07175 -4.59375,-16.6875 -0.260744,-7.27457 0.320256,-12.0582 1.71875,-14.3125 C 71.98624,488.81181 72.162183,488.54786 72.375,488.5 z m 19.78125,55.28125 c 1.618855,-0.0144 3.40646,-0.0221 5.375,0 6.44544,0.0729 12.21613,0.3239 12.84375,0.5625 2.06652,0.78563 7.15625,13.06786 7.15625,17.28125 0,2.82157 -0.75116,1.89212 -1.46875,-1.8125 -1.03658,-5.35113 -1.08569,-5.625 -1.53125,-5.625 -0.25058,0 -0.30621,0.90789 -0.0937,2.09375 0.20605,1.14956 0.375,3.99432 0.375,6.34375 0,3.91276 -0.0829,4.42009 -1.25,5.6875 -0.70078,0.76106 -1.76878,2.20429 -2.375,3.21875 -1.29165,2.16172 -2.78808,3.3125 -4.28125,3.3125 -1.24013,0 -8.010593,-2.74115 -8.9375,-3.625 -0.345522,-0.32969 -0.687973,-1.38294 -0.78125,-2.3125 -0.508568,-5.06683 -1.749259,-8.33087 -1.375,-3.625 0.416845,5.24106 -0.852516,7.09138 -6.21875,9.1875 -5.138301,2.00688 -6.094814,1.82603 -9,-2.0625 -0.706632,-0.94576 -1.992474,-2.46667 -2.8125,-3.34375 -1.913639,-2.04672 -2.223769,-4.78779 -1,-8.40625 0.858785,-2.53954 0.847934,-3.53125 -0.0625,-3.53125 -0.700555,0 -2.46875,5.30462 -2.46875,7.40625 0,2.14989 -0.654819,2.54391 -1.53125,0.90625 -1.182572,-2.20975 -0.122163,-6.11085 3.5625,-13.28125 0.782107,-1.52186 1.40625,-3.35301 1.40625,-4.0625 C 77.687617,544.93761 80.824197,543.88169 92.15625,543.78125 Z" />
  </g>
</svg>
