<?xml version="1.0" encoding="UTF-8" standalone="no"?>
<!-- Created with Inkscape (http://www.inkscape.org/) -->

<svg
   xmlns:dc="http://purl.org/dc/elements/1.1/"
   xmlns:cc="http://creativecommons.org/ns#"
   xmlns:rdf="http://www.w3.org/1999/02/22-rdf-syntax-ns#"
   xmlns:svg="http://www.w3.org/2000/svg"
   xmlns="http://www.w3.org/2000/svg"
   xmlns:sodipodi="http://sodipodi.sourceforge.net/DTD/sodipodi-0.dtd"
   xmlns:inkscape="http://www.inkscape.org/namespaces/inkscape"
   width="800"
   height="700"
   id="svg2"
   version="1.1"
   inkscape:version="0.48.2 r9819"
   sodipodi:docname="m18.svg">
  <defs
     id="defs4" />
  <sodipodi:namedview
     id="base"
     pagecolor="#ffffff"
     bordercolor="#666666"
     borderopacity="1.0"
     inkscape:pageopacity="0.0"
     inkscape:pageshadow="2"
     inkscape:zoom="1.767767"
     inkscape:cx="103.78884"
     inkscape:cy="125.23538"
     inkscape:document-units="px"
     inkscape:current-layer="layer1"
     showgrid="false"
     showguides="true"
     inkscape:guide-bbox="true"
     inkscape:window-width="1366"
     inkscape:window-height="746"
     inkscape:window-x="-8"
     inkscape:window-y="-8"
     inkscape:window-maximized="1"
     width="0px"
     height="0px"
     fit-margin-top="0"
     fit-margin-left="0"
     fit-margin-right="0"
     fit-margin-bottom="0">
    <sodipodi:guide
       orientation="1,0"
       position="400.22244,349.31075"
       id="guide3178" />
    <sodipodi:guide
       orientation="0,1"
       position="400.22244,349.31075"
       id="guide3180" />
  </sodipodi:namedview>
  <metadata
     id="metadata7">
    <rdf:RDF>
      <cc:Work
         rdf:about="">
        <dc:format>image/svg+xml</dc:format>
        <dc:type
           rdf:resource="http://purl.org/dc/dcmitype/StillImage" />
        <dc:title></dc:title>
      </cc:Work>
    </rdf:RDF>
  </metadata>
  <g
     inkscape:label="Layer 1"
     inkscape:groupmode="layer"
     id="layer1"
     transform="translate(0,-352.36218)">
    <path
       id="rect3226"
       transform="translate(0,352.36218)"
       style="fill:#ff0000"
       d="m 68.9375,567.21875 c -1.239828,0.03 -2.44354,0.43575 -3.65625,1.21875 -4.80079,3.0994 -6.89913,6.64555 -6.90625,11.59375 -0.003,2.0529 0.19058,3.3684 0.625,3.9375 2.50174,3.2769 4.5009,6.78405 4.8125,8.46875 1.01155,5.4698 0.40243,11.80795 -1.75,17.96875 -0.59185,1.6941 -1.09375,3.50405 -1.09375,4.03125 0,0.5273 -0.30102,1.7002 -0.6875,2.625 -1.32907,3.1811 -1.90522,8.7727 -1.90625,18.5 -0.002,8.9482 0.02102,9.4372 0.90625,10.5625 0.51158,0.6504 1.33844,1.3582 1.84375,1.5625 2.29191,0.926 3.71919,0.3721 5.40625,-2.1875 1.16721,-1.7708 1.48022,-2.83445 1.84375,-5.96875 0.7053,-6.0811 1.13704,-8.43605 2.0625,-11.21875 1.27826,-3.8434 5.02255,-11.5608 6.34375,-13.0625 0.63149,-0.7178 1.15593,-1.4485 1.15625,-1.625 7.6e-4,-0.4687 3.21806,-2.4204 4.53125,-2.75 0.99702,-0.2501 1.22013,-0.0811 1.84375,1.40625 1.27599,3.0421 0.88582,6.70655 -1.3125,11.90625 -4.38292,10.3669 -5.23056,13.34805 -4.875,17.40625 0.29083,3.3195 0.86355,3.90625 3.6875,3.90625 1.71821,0 2.12129,-0.18635 3.59375,-1.78125 0.91499,-0.9912 1.79641,-2.1805 1.9375,-2.625 0.14105,-0.4445 0.40183,-0.8125 0.625,-0.8125 0.22314,0 0.40625,-0.1843 0.40625,-0.4375 0,-0.2534 0.58316,-1.1794 1.28125,-2.0625 2.16928,-2.7445 5.56582,-9.67965 7.1875,-14.65625 1.45786,-4.474 1.53431,-5.1023 1.53125,-10.4375 -0.002,-3.1234 -0.29487,-7.83675 -0.65625,-10.46875 -0.36143,-2.6319 -0.75947,-5.72155 -0.90625,-6.84375 -0.26936,-2.0595 -0.16127,-2.5031 2.75,-11.5 1.25486,-3.878 1.36597,-8.3313 0.25,-10.0625 -2.22634,-3.4535 -6.76143,-6.59375 -9.46875,-6.59375 -2.02566,0 -5.3142,1.02945 -7.75,2.46875 -0.91091,0.5383 -1.95242,0.96875 -2.3125,0.96875 -1.06661,0 -4.99929,-1.27815 -7.34375,-2.40625 -1.48116,-0.71265 -2.760172,-1.06129 -4,-1.03125 z m 21.96875,1.75 c 1.031621,0.0461 1.743565,0.78358 5.40625,4.15625 0.67901,0.6253 1.47049,2.05975 1.84375,3.34375 0.57583,1.9806 0.57762,2.56615 0.03125,4.65625 -2.29556,8.7821 -2.93211,11.1401 -3.28125,11.5 -0.21718,0.2239 -1.72529,0.7771 -3.34375,1.25 -2.34304,0.6845 -4.53199,0.9128 -10.59375,1 -4.18716,0.061 -7.89109,0.0225 -8.25,-0.0625 -0.35891,-0.084 -1.74631,-0.25435 -3.125,-0.40625 -2.41164,-0.2658 -2.57428,-0.37165 -3.40625,-2.09375 -0.47564,-0.9845 -0.84288,-2.09495 -0.84375,-2.46875 -0.002,-0.6369 -1.55748,-3.458 -2.15625,-3.9375 -0.97278,-0.7795 -3.08327,-4.4658 -3.15625,-5.5 -0.1846,-2.6159 0.10654,-4.3746 0.84375,-5.1875 0.42061,-0.4638 1.10684,-1.36985 1.53125,-2.03125 0.42443,-0.661 1.6836,-1.89045 2.8125,-2.71875 1.31294,-0.9629 2.42039,-1.43465 3.625,-1.46875 1.20459,-0.034 2.52374,0.3727 4.25,1.25 1.41252,0.7177 2.90763,1.3125 3.3125,1.3125 2.42061,0 2.94261,1.72255 1.6875,5.40625 -0.68363,2.0066 -0.62832,4.39335 0.125,7.71875 0.22768,1.0051 0.09424,1.1942 -0.875,1.4375 -1.90389,0.4778 -1.28971,0.9741 1.21875,0.9375 2.1045,-0.03 2.3157,-0.12775 1.78125,-0.71875 -0.33168,-0.3667 -0.79306,-1.91345 -1.0625,-3.46875 -0.42079,-2.4292 -0.38066,-3.36645 0.34375,-6.46875 0.46377,-1.9863 0.88134,-3.6697 0.96875,-3.75 0.85558,-0.775 7.51368,-3.3864 9.0625,-3.5625 0.534442,-0.0608 0.906126,-0.14037 1.25,-0.125 z m 3.25,25.84375 c 0.17621,0 0.28262,0.0327 0.34375,0.0937 1.13513,1.1352 1.87739,7.49445 1.90625,16.65625 0.0276,8.7727 -0.0093,9.47485 -0.90625,11.34375 -0.52585,1.096 -1.34519,2.9479 -1.8125,4.125 -2.02708,5.1063 -6.03383,11.9238 -8.8125,15.0625 -1.97927,2.2355 -4.11169,2.5145 -5.15625,0.6875 -0.61222,-1.0711 -0.58782,-1.5008 0.09375,-4.8125 0.41286,-2.0057 1.31459,-4.7742 2.03125,-6.1875 0.71665,-1.4131 1.33969,-2.99015 1.34375,-3.46875 0.005,-0.4784 0.34513,-1.43855 0.78125,-2.15625 2.14016,-3.5228 3.14148,-9.48605 2.25,-13.34375 -1.04522,-4.5227 -2.02952,-5.0552 -5.90625,-3.25 -6.21984,2.8963 -12.23742,15.2519 -13.125,27 -0.29841,3.9503 -1.30303,7.60505 -2.4375,8.84375 -1.15007,1.2555 -2.49137,1.24245 -3.6875,-0.0312 -0.91831,-0.9775 -0.9436,-1.305 -0.9375,-11.625 0.007,-11.8141 0.03696,-12.25415 3.125,-21.71875 1.05387,-3.2302 2.20345,-7.55995 2.5,-9.59375 0.29656,-2.0337 0.62053,-4.3338 0.75,-5.125 l 0.25,-1.46875 2.4375,0.34375 c 1.34659,0.1929 6.27181,0.3892 10.9375,0.375 7.76447,-0.016 8.72522,-0.1392 11.25,-1.0625 1.26168,-0.4664 2.25259,-0.6967 2.78125,-0.6875 z" />
  </g>
</svg>
