<?xml version="1.0" encoding="UTF-8" standalone="no"?>
<!-- Created with Inkscape (http://www.inkscape.org/) -->

<svg
   xmlns:dc="http://purl.org/dc/elements/1.1/"
   xmlns:cc="http://creativecommons.org/ns#"
   xmlns:rdf="http://www.w3.org/1999/02/22-rdf-syntax-ns#"
   xmlns:svg="http://www.w3.org/2000/svg"
   xmlns="http://www.w3.org/2000/svg"
   xmlns:sodipodi="http://sodipodi.sourceforge.net/DTD/sodipodi-0.dtd"
   xmlns:inkscape="http://www.inkscape.org/namespaces/inkscape"
   width="45"
   height="55"
   id="svg2"
   version="1.1"
   inkscape:version="0.48+devel r11738"
   sodipodi:docname="m18.svg">
  <defs
     id="defs4" />
  <sodipodi:namedview
     id="base"
     pagecolor="#ffffff"
     bordercolor="#666666"
     borderopacity="1.0"
     inkscape:pageopacity="0.0"
     inkscape:pageshadow="2"
     inkscape:zoom="4"
     inkscape:cx="743.27216"
     inkscape:cy="152.15968"
     inkscape:document-units="px"
     inkscape:current-layer="layer1"
     showgrid="false"
     showguides="true"
     inkscape:guide-bbox="true"
     inkscape:window-width="1366"
     inkscape:window-height="746"
     inkscape:window-x="-8"
     inkscape:window-y="-8"
     inkscape:window-maximized="1"
     width="0px"
     height="0px"
     fit-margin-top="0"
     fit-margin-left="0"
     fit-margin-right="0"
     fit-margin-bottom="0">
    <sodipodi:guide
       orientation="1,0"
       position="400.22244,349.31075"
       id="guide3178" />
    <sodipodi:guide
       orientation="0,1"
       position="655.48799,210.71782"
       id="guide3180" />
  </sodipodi:namedview>
  <metadata
     id="metadata7">
    <rdf:RDF>
      <cc:Work
         rdf:about="">
        <dc:format>image/svg+xml</dc:format>
        <dc:type
           rdf:resource="http://purl.org/dc/dcmitype/StillImage" />
        <dc:title></dc:title>
        <cc:license
           rdf:resource="" />
      </cc:Work>
    </rdf:RDF>
  </metadata>
  <g
     inkscape:label="Layer 1"
     inkscape:groupmode="layer"
     id="layer1"
     transform="translate(0,-997.36218)">
    <path
       id="rect3933"
       style="fill:#ff0000"
       d="m 28.65671,1005.1594 c -0.68218,0.018 -1.42446,0.038 -2.21875,0.094 -4.70251,0.3297 -5.61213,0.3277 -13.46875,0.125 -4.9690301,-0.1283 -6.4842003,0.5522 -8.1562508,3.5313 -0.94078,1.6763 -1.29269,3.0794 -1.65625,6.625 -0.48146,4.6951 -1.11991,8.382 -1.78125,10.5312 -0.53061001,1.7245 -0.48658001,3.469 0.15625,6.3125 0.47876,2.1178 0.95752,2.8859 4.0937505,6.1563 2.1689802,2.2615 4.4806803,4.1564 5.8750003,4.875 2.83509,1.4607 5.4996,1.5478 9.71875,0.2812 1.95914,-0.5878 5.0082,-1.0173 8.625,-1.2187 l 5.625,-0.3438 1.46875,-1.5312 c 0.79815,-0.871 1.56141,-2.1741 1.71875,-2.8438 0.15741,-0.6696 1.00099,-2.0795 1.875,-3.1562 3.4464,-4.2456 3.9481,-6.3094 3.09375,-12.2813 -1.26993,-8.8763 -1.85391,-10.4872 -5.25,-13.8125 C 35.67733,1005.8613 33.43195,1005.0325 28.65671,1005.1594 z m -7.15625,1.8438 c 4.98516,-0.01 9.85242,0.1321 11.03125,0.4062 5.20009,1.2087 8.78902,6.2233 9.375,13.1563 0.17679,2.0916 0.4634,4.5016 0.625,5.3437 0.23586,1.229 -0.004,2.0362 -1.09375,4.125 -0.74563,1.4311 -1.58751,2.8206 -1.875,3.0625 -1.13412,0.9545 -2.40281,3.2015 -2.6875,4.7188 -0.47139,2.5128 -1.9595,3.0525 -7.40625,2.6875 -3.9586,-0.2651 -4.83237,-0.1835 -8.375,0.8125 -2.17594,0.6117 -4.61588,1.1108 -5.40625,1.0937 -1.96378,-0.042 -4.49508,-1.0431 -5.9062501,-2.3125 -0.64499,-0.5801 -1.99708,-1.7778 -3.0000002,-2.6562 -2.5389505,-2.2246 -3.5937505,-4.6316 -3.5937505,-8.0938 7.5e-4,-3.144 0.94574,-5.5742 2.4062505,-6.0937 1.57107,-0.5586 2.1023002,0.1436 1.5,1.9687 -0.44256,1.3409 -0.40406,1.7534 0.1875,2.6563 0.9564002,1.4596 1.3239502,1.3482 1.9062502,-0.5625 0.2734,-0.8974 0.9518501,-2.1962 1.5000001,-2.875 1.48078,-1.8339 5.21343,-2.372 9.09375,-1.3125 1.33044,0.3631 1.35648,1.8445 0.0937,3.5 -0.86339,1.132 -1.01324,1.6742 -0.65625,2.0312 0.35694,0.3573 0.64721,0.3219 1.03125,-0.062 0.82238,-0.8222 1.03131,-0.6399 1.8125,1.3125 0.84598,2.1143 0.56371,6.4868 -0.46875,7.3438 -0.996,0.8265 -0.68949,1.2812 0.84375,1.2812 l 1.4375,0 -0.125,-4.625 c -0.0716,-2.5244 -0.32138,-4.9244 -0.5625,-5.375 -0.52265,-0.9763 -0.59904,-4.8125 -0.0937,-4.8125 0.61366,0 2.11826,2.3591 2.4375,3.8125 0.46765,2.1291 1.20578,1.7067 1.0625,-0.625 l -0.125,-2.0625 1.6875,-0.375 c 0.91425,-0.19 2.18199,-0.6404 2.84375,-1.0312 2.02171,-1.1943 3.18765,-0.5634 4.5625,2.5 1.01578,2.2635 1.1504,2.9221 0.78125,4.125 -0.36405,1.1813 -0.34102,1.3904 0.1875,1.1875 0.78514,-0.3012 1.4375,-1.9523 1.4375,-3.625 0,-1.1019 0.19697,-1.3403 1.71875,-1.75 2.16545,-0.5832 2.3969,-1.4995 0.28125,-1.1563 -2.08002,0.3376 -2.6443,-0.4329 -1.96875,-2.6875 0.56341,-1.8806 0.27739,-3.7621 -0.59375,-4.0937 -0.38711,-0.1476 -0.52411,0.3512 -0.53125,1.6875 -0.0149,2.5361 -0.54242,2.9923 -2.40625,2.0625 -1.71392,-0.8554 -3.89277,-0.8181 -5.65625,0.094 -1.55064,0.8031 -3.19165,0.817 -3.84375,0.031 -0.3884,-0.4681 -0.3075,-1.1416 0.375,-2.9375 1.10181,-2.8989 1.0977,-3.3402 0.0312,-2.375 -1.41499,1.2805 -1.83558,0.4702 -1.75,-3.375 0.10058,-4.5218 0.085,-4.7606 -0.4375,-4.4375 -0.23927,0.1478 -0.4375,1.8501 -0.4375,3.75 0,2.7806 -0.16226,3.4375 -0.6875,3.4375 -0.3589,0 -0.625,-0.1637 -0.625,-0.375 0,-0.2115 -0.47159,-0.4495 -1.0625,-0.5625 -0.70955,-0.1356 -1.0029,-0.068 -0.8125,0.25 0.15862,0.2645 0.9588,1.5055 1.75,2.75 0.79123,1.2446 1.4375,2.4412 1.4375,2.6875 0,0.7836 -2.08539,1.0417 -4.34375,0.5 -1.66478,-0.4001 -2.8772,-0.4064 -5.03125,-0.031 -4.1336101,0.7198 -5.0095701,-0.061 -5.6562501,-4.9063 -0.4441302,-3.3277 -1.1751802,-1.9872 -1.0000002,1.8125 0.1484,3.2197 0.10398,3.3253 -0.90625,3.4688 l -1.0312505,0.1562 0.2187505,-4.9687 c 0.12273,-2.7804 0.46567,-5.4338 0.78125,-6.0313 0.88748,-1.6799 2.4651802,-2.9238 4.0000002,-3.1875 C 11.39821,1007.1629 16.51526,1007.0098 21.50041,1007.0031 Z"
       inkscape:connector-curvature="0" />
  </g>
</svg>
