<?xml version="1.0" encoding="UTF-8" standalone="no"?>
<!-- Created with Inkscape (http://www.inkscape.org/) -->

<svg
   xmlns:dc="http://purl.org/dc/elements/1.1/"
   xmlns:cc="http://creativecommons.org/ns#"
   xmlns:rdf="http://www.w3.org/1999/02/22-rdf-syntax-ns#"
   xmlns:svg="http://www.w3.org/2000/svg"
   xmlns="http://www.w3.org/2000/svg"
   xmlns:sodipodi="http://sodipodi.sourceforge.net/DTD/sodipodi-0.dtd"
   xmlns:inkscape="http://www.inkscape.org/namespaces/inkscape"
   width="900"
   height="800"
   id="svg2"
   version="1.1"
   inkscape:version="0.48+devel r11738"
   sodipodi:docname="m18.svg">
  <defs
     id="defs4" />
  <sodipodi:namedview
     id="base"
     pagecolor="#ffffff"
     bordercolor="#666666"
     borderopacity="1.0"
     inkscape:pageopacity="0.0"
     inkscape:pageshadow="2"
     inkscape:zoom="1.4142136"
     inkscape:cx="122.0512"
     inkscape:cy="167.3086"
     inkscape:document-units="px"
     inkscape:current-layer="layer1"
     showgrid="false"
     showguides="true"
     inkscape:guide-bbox="true"
     inkscape:window-width="1366"
     inkscape:window-height="705"
     inkscape:window-x="-4"
     inkscape:window-y="-4"
     inkscape:window-maximized="1"
     width="0px"
     height="0px"
     fit-margin-top="0"
     fit-margin-left="0"
     fit-margin-right="0"
     fit-margin-bottom="0">
    <sodipodi:guide
       orientation="1,0"
       position="450,784"
       id="guide3178" />
    <sodipodi:guide
       orientation="0,1"
       position="-61,400"
       id="guide3180" />
  </sodipodi:namedview>
  <metadata
     id="metadata7">
    <rdf:RDF>
      <cc:Work
         rdf:about="">
        <dc:format>image/svg+xml</dc:format>
        <dc:type
           rdf:resource="http://purl.org/dc/dcmitype/StillImage" />
        <dc:title></dc:title>
      </cc:Work>
    </rdf:RDF>
  </metadata>
  <g
     inkscape:label="Layer 1"
     inkscape:groupmode="layer"
     id="layer1"
     transform="translate(0,-252.36218)">
    <path
       id="rect60"
       transform="translate(0,252.36218)"
       style="fill:#ff0000;fill-opacity:1;stroke:none"
       d="m 96.34375,584.3125 c -1.020103,0.0993 -1.960221,0.49808 -3.78125,1.375 -1.821079,0.87685 -3.969809,2.09635 -4.78125,2.6875 -1.696515,1.23664 -4.649849,2.13495 -8.78125,2.71875 -1.587415,0.22458 -4.357937,1.11029 -6.1875,1.96875 -2.780937,1.30475 -3.622231,2.01556 -5.09375,4.25 -2.467488,3.7469 -3.030156,6.76176 -2.09375,11.625 0.408244,2.11979 0.750989,4.55089 0.75,5.40625 -8.5e-4,0.85526 0.500488,3.21739 1.09375,5.21875 0.896866,3.02583 1.510902,4.05324 3.625,6.21875 1.426648,1.46122 3.140231,2.76518 3.9375,2.9375 0.781509,0.16911 2.209574,0.7033 3.15625,1.21875 1.932858,1.05261 6.608804,1.25141 10.34375,0.4375 1.21717,-0.26524 5.70358,-0.65444 10.03125,-0.875 11.28544,-0.57518 13.44054,-1.66502 16.5625,-8.4375 0.88729,-1.92507 0.95865,-2.88812 0.78125,-7.59375 -0.17839,-4.73184 -0.34218,-5.71978 -1.46875,-7.65625 -0.89539,-1.53898 -1.37321,-3.23239 -1.59375,-5.625 -0.1745,-1.89304 -0.60702,-4.12543 -0.96875,-4.9375 -0.36172,-0.81193 -1.10057,-2.47086 -1.625,-3.6875 -0.52442,-1.21666 -1.56312,-2.81823 -2.28125,-3.53125 -1.54048,-1.53004 -5.86182,-3.17584 -9.5,-3.625 C 97.613974,584.30094 96.9558,584.25287 96.34375,584.3125 Z M 96.625,587 c 0.470736,-0.0188 0.975161,-0.006 1.5,0 5.87856,0.08 8.42588,1.4512 11.46875,6.25 1.31364,2.07156 1.5625,2.88716 1.5625,5.5625 0,2.43845 0.31436,3.95507 1.5,6.65625 1.45553,3.31645 1.51866,3.65962 1.1875,7.6875 -0.44121,5.36631 -2.33692,11.147 -4.09375,12.53125 -2.25531,1.77666 -5.63983,2.373 -11.875,2.03125 -5.169728,-0.28363 -6.024544,-0.21332 -9.8125,0.9375 -2.279114,0.69246 -4.626598,1.26366 -5.1875,1.25 -1.827231,-0.0446 -9.347326,-3.48412 -10.9375,-5 -0.852893,-0.8131 -1.860622,-2.37801 -2.28125,-3.5 -1.648415,-4.39605 -3.343738,-18.19936 -2.59375,-21.1875 0.257506,-1.02605 2.358308,-3.48216 4.3125,-5 1.171302,-0.90958 4.997231,-2.01573 9.96875,-2.9375 3.232108,-0.59919 5.484593,-1.32512 6.65625,-2.125 C 91.233617,587.94875 93.329858,587.13096 96.625,587 z m -9.34375,7.25 -0.15625,1.9375 c -0.08608,1.04996 0.08611,2.11722 0.375,2.40625 0.814977,0.81493 0.649006,3.3125 -0.21875,3.3125 -0.947125,0 -0.923807,0.13656 0.25,2.4375 0.538437,1.05549 0.84257,2.25212 0.6875,2.65625 -0.328824,0.85686 -5.628116,2.75 -7.6875,2.75 -1.558134,0 -3.181345,-0.73476 -4.3125,-1.9375 -0.405718,-0.43147 -1.168537,-1.09473 -1.6875,-1.5 -0.893937,-0.69798 -0.939476,-0.64964 -0.65625,0.78125 0.27276,1.37793 0.13694,1.56704 -1.40625,2.125 -2.086711,0.75459 -2.1394,1.5 -0.15625,1.5 1.452576,0 1.433498,0.0708 1.125,2 -0.404661,2.53059 0.646434,2.66078 2.4375,0.3125 1.151811,-1.51005 1.537671,-1.67894 4.65625,-1.96875 1.871514,-0.17392 4.361955,-0.64986 5.53125,-1.0625 2.534727,-0.89418 2.926007,-0.56637 2.9375,2.59375 0.0036,1.15828 0.326829,2.87443 0.71875,3.8125 0.391912,0.93795 0.839658,1.71875 1,1.71875 0.160406,0 0.153032,-1.65422 -0.03125,-3.6875 -0.444948,-4.91025 -0.02562,-5.44594 5.09375,-5.90625 2.081833,-0.18699 4.71975,-0.56116 5.875,-0.84375 2.32413,-0.56842 6.07449,0.17848 7.09375,1.40625 0.83387,1.00506 1.34141,0.81108 1.03125,-0.375 -0.15006,-0.57381 -0.9997,-1.46526 -1.90625,-2 -1.77227,-1.0457 -1.97262,-1.37096 -1.15625,-2.1875 0.289,-0.28867 0.49229,-1.38754 0.40625,-2.4375 l -0.1875,-1.90625 -1.09375,2.0625 c -1.28707,2.4085 -2.39425,3.12507 -5.78125,3.71875 -5.561023,0.97507 -7.125,0.19002 -7.125,-3.4375 0,-2.258 -0.454712,-2.57637 -1.6875,-1.34375 -0.674866,0.67489 -0.822934,0.5996 -1.46875,-0.40625 -0.395825,-0.61643 -1.130339,-2.32475 -1.625,-3.8125 L 87.28125,594.25 Z" />
  </g>
</svg>
