<?xml version="1.0" encoding="UTF-8" standalone="no"?>
<!-- Created with Inkscape (http://www.inkscape.org/) -->

<svg
   xmlns:dc="http://purl.org/dc/elements/1.1/"
   xmlns:cc="http://creativecommons.org/ns#"
   xmlns:rdf="http://www.w3.org/1999/02/22-rdf-syntax-ns#"
   xmlns:svg="http://www.w3.org/2000/svg"
   xmlns="http://www.w3.org/2000/svg"
   xmlns:sodipodi="http://sodipodi.sourceforge.net/DTD/sodipodi-0.dtd"
   xmlns:inkscape="http://www.inkscape.org/namespaces/inkscape"
   width="800"
   height="400"
   id="svg2"
   version="1.1"
   inkscape:version="0.48.2 r9819"
   sodipodi:docname="fa.svg">
  <defs
     id="defs4" />
  <sodipodi:namedview
     id="base"
     pagecolor="#ffffff"
     bordercolor="#666666"
     borderopacity="1.0"
     inkscape:pageopacity="0.0"
     inkscape:pageshadow="2"
     inkscape:zoom="4"
     inkscape:cx="263.33157"
     inkscape:cy="324.03772"
     inkscape:document-units="px"
     inkscape:current-layer="layer1"
     showgrid="false"
     showguides="true"
     inkscape:guide-bbox="true"
     inkscape:window-width="1366"
     inkscape:window-height="746"
     inkscape:window-x="-8"
     inkscape:window-y="-8"
     inkscape:window-maximized="1"
     width="0px"
     height="0px"
     fit-margin-top="0"
     fit-margin-left="0"
     fit-margin-right="0"
     fit-margin-bottom="0">
    <sodipodi:guide
       orientation="1,0"
       position="400.22244,349.31075"
       id="guide3178" />
  </sodipodi:namedview>
  <metadata
     id="metadata7">
    <rdf:RDF>
      <cc:Work
         rdf:about="">
        <dc:format>image/svg+xml</dc:format>
        <dc:type
           rdf:resource="http://purl.org/dc/dcmitype/StillImage" />
        <dc:title></dc:title>
        <cc:license
           rdf:resource="" />
      </cc:Work>
    </rdf:RDF>
  </metadata>
  <g
     inkscape:label="Layer 1"
     inkscape:groupmode="layer"
     id="layer1"
     transform="translate(0,-652.36218)">
    <path
       style="fill:#ff0000"
       d="m 207.96875,735.14343 c 5.2614,0.051 9.89017,0.27989 11.5,0.71875 1.69704,0.46263 2.99381,1.82691 3.78125,3.9375 0.66078,1.77111 2.05732,5.05047 3.09375,7.28125 2.03879,4.38824 2.47836,11.57222 0.9375,15.625 -0.5847,1.53787 -2.69888,3.35609 -5.375,4.65625 -4.28251,2.0806 -4.57012,2.10226 -9.53125,0.5 -2.80827,-0.90697 -6.02846,-1.631 -7.1875,-1.625 -1.15903,0.006 -4.15932,0.61712 -6.65625,1.375 -4.10569,1.24616 -4.93912,1.21271 -8.625,-0.4375 -5.19036,-2.32379 -8.07235,-6.92656 -8.03125,-12.8125 0.0447,-6.41545 3.17743,-16.74993 5.46875,-18.09375 1.32985,-0.77993 11.856,-1.20996 20.625,-1.125 z"
       id="rect3012" />
  </g>
</svg>
