<?xml version="1.0" encoding="UTF-8" standalone="no"?>
<!-- Created with Inkscape (http://www.inkscape.org/) -->

<svg
   xmlns:dc="http://purl.org/dc/elements/1.1/"
   xmlns:cc="http://creativecommons.org/ns#"
   xmlns:rdf="http://www.w3.org/1999/02/22-rdf-syntax-ns#"
   xmlns:svg="http://www.w3.org/2000/svg"
   xmlns="http://www.w3.org/2000/svg"
   xmlns:sodipodi="http://sodipodi.sourceforge.net/DTD/sodipodi-0.dtd"
   xmlns:inkscape="http://www.inkscape.org/namespaces/inkscape"
   width="800"
   height="400"
   id="svg2"
   version="1.1"
   inkscape:version="0.48.2 r9819"
   sodipodi:docname="f5.svg">
  <defs
     id="defs4" />
  <sodipodi:namedview
     id="base"
     pagecolor="#ffffff"
     bordercolor="#666666"
     borderopacity="1.0"
     inkscape:pageopacity="0.0"
     inkscape:pageshadow="2"
     inkscape:zoom="2"
     inkscape:cx="249.15404"
     inkscape:cy="298.31862"
     inkscape:document-units="px"
     inkscape:current-layer="layer1"
     showgrid="false"
     showguides="true"
     inkscape:guide-bbox="true"
     inkscape:window-width="1366"
     inkscape:window-height="746"
     inkscape:window-x="-8"
     inkscape:window-y="-8"
     inkscape:window-maximized="1"
     width="0px"
     height="0px"
     fit-margin-top="0"
     fit-margin-left="0"
     fit-margin-right="0"
     fit-margin-bottom="0">
    <sodipodi:guide
       orientation="1,0"
       position="400.22244,349.31075"
       id="guide3178" />
    <sodipodi:guide
       orientation="0,1"
       position="-117.37973,199.40411"
       id="guide3180" />
  </sodipodi:namedview>
  <metadata
     id="metadata7">
    <rdf:RDF>
      <cc:Work
         rdf:about="">
        <dc:format>image/svg+xml</dc:format>
        <dc:type
           rdf:resource="http://purl.org/dc/dcmitype/StillImage" />
        <dc:title></dc:title>
      </cc:Work>
    </rdf:RDF>
  </metadata>
  <g
     inkscape:label="Layer 1"
     inkscape:groupmode="layer"
     id="layer1"
     transform="translate(0,-652.36218)">
    <path
       id="rect3125"
       transform="translate(0,652.36218)"
       style="fill:#ff0000"
       d="m 236.875,15.21875 c -0.5025,0.0578 -1.0398,0.23338 -1.625,0.5 -1.3624,0.6208 -1.6681,1.87247 -1.3125,5.34375 0.4614,4.50301 -1.19954,15.79738 -2.4375,16.5625 -0.69509,0.42959 -1.2657,-1.30543 -2,-6.3125 -1.1482,-7.82947 -2.40135,-10.40587 -6.03125,-12.21875 -1.91154,-0.95467 -1.99908,-0.94886 -3.6875,-0.1875 -3.53644,1.59471 -3.40544,4.59784 0.4375,12.40625 3.28273,6.67017 3.57896,8.53874 3.625,21.125 0.029,7.9621 -0.15063,11.44433 -0.90625,17.15625 -0.93904,7.09832 -1.42551,8.87889 -5.09375,19.34375 -3.54819,10.1223 -4.14234,18.11395 -1.6875,21.65625 0.63533,0.9168 2.37698,2.63524 3.875,3.8125 1.49807,1.17725 3.32516,2.9908 4.0625,4.0625 1.50764,2.19126 3.20745,3.57528 4.8125,3.875 0.59504,0.11111 1.35178,0.2487 1.6875,0.28125 0.8765,0.0851 5.7479,-2.28795 7.25,-3.53125 0.7007,-0.57993 2.5002,-1.7391 4,-2.53125 3.2221,-1.70185 5.51595,-4.06929 6.15625,-6.375 0.6662,-2.39933 0.55995,-7.47622 -0.21875,-9.5 -2.288,-5.94626 -4.16695,-12.16353 -4.53125,-15.1875 -0.2317,-1.92265 -0.4021,-13.08846 -0.375,-24.8125 0.089,-38.50958 0.1583,-36.30715 -0.9375,-39.65625 -1.4035,-4.28897 -2.8848,-6.06295 -5.0625,-5.8125 z m 0,1.8125 c 0.4208,-0.0715 0.7907,0.2375 1.5625,1.09375 2.5655,2.84611 2.91645,7.60932 2.71875,38.53125 C 241.03895,74.99669 240.8745,81.31997 240.5,81.3125 240.2228,81.3065 239.1034,80.45926 238,79.40625 236.778,78.24001 235.26065,77.2974 234.15625,77 232.0101,76.42211 227.39814,76.8428 226,77.71875 c -2.09903,1.31506 -2.50062,0.85659 -2.1875,-2.59375 0.8093,-8.91773 3.21902,-19.04725 5.90625,-24.875 3.99784,-8.66998 5.33065,-14.37685 5.65625,-24.53125 0.2272,-7.08458 0.3665,-8.0741 1.0625,-8.5 0.1626,-0.0996 0.2972,-0.1637 0.4375,-0.1875 z m -15.75,3.90625 c 0.12294,-0.0249 0.23831,-0.0176 0.375,0 0.5467,0.0703 1.18728,0.45496 1.96875,1.1875 1.9118,1.79215 1.67626,1.08233 6.25,18.625 0.28419,1.08989 0.0749,2.0591 -1.125,4.96875 -0.82559,2.00173 -1.65702,3.8056 -1.84375,4 -0.51049,0.53145 -0.92835,-2.00617 -0.9375,-5.96875 -0.0157,-6.32602 -0.54009,-8.67719 -3.40625,-14.375 -2.7107,-5.38876 -2.95439,-6.22333 -2.1875,-7.65625 0.23727,-0.44383 0.53738,-0.70651 0.90625,-0.78125 z m 10.5625,57.84375 c 1.268,-0.0311 2.42585,0.15135 3.28125,0.59375 1.7762,0.91848 4.0461,4.04401 5.4375,7.5 0.651,1.61696 1.45595,3.44185 1.78125,4.0625 1.203,2.29559 3.28085,9.44716 3.53125,12.1875 0.3213,3.51563 -0.4005,7.48774 -1.6875,9.375 -0.5381,0.78902 -2.09035,2.05205 -3.40625,2.78125 -1.316,0.72919 -3.627,2.41118 -5.125,3.71875 -2.1365,1.86485 -3.01967,2.36539 -4.125,2.34375 -2.24066,-0.0439 -3.08055,-0.58394 -6.6875,-4.1875 -1.86809,-1.86632 -4.17332,-3.96787 -5.09375,-4.65625 -0.92042,-0.68837 -2.05201,-2.04477 -2.5,-3.03125 -1.74447,-3.84159 -0.65965,-11.21823 2.84375,-19.21875 0.31431,-0.71779 1.10689,-2.66888 1.75,-4.34375 0.64311,-1.67484 1.72049,-3.56146 2.34375,-4.21875 1.61164,-1.69992 4.86659,-2.83785 7.65625,-2.90625 z" />
  </g>
</svg>
