<?xml version="1.0" encoding="UTF-8" standalone="no"?>
<!-- Created with Inkscape (http://www.inkscape.org/) -->

<svg
   xmlns:dc="http://purl.org/dc/elements/1.1/"
   xmlns:cc="http://creativecommons.org/ns#"
   xmlns:rdf="http://www.w3.org/1999/02/22-rdf-syntax-ns#"
   xmlns:svg="http://www.w3.org/2000/svg"
   xmlns="http://www.w3.org/2000/svg"
   xmlns:sodipodi="http://sodipodi.sourceforge.net/DTD/sodipodi-0.dtd"
   xmlns:inkscape="http://www.inkscape.org/namespaces/inkscape"
   width="900"
   height="800"
   id="svg2"
   version="1.1"
   inkscape:version="0.48.2 r9819"
   sodipodi:docname="l6.svg">
  <defs
     id="defs4" />
  <sodipodi:namedview
     id="base"
     pagecolor="#ffffff"
     bordercolor="#666666"
     borderopacity="1.0"
     inkscape:pageopacity="0.0"
     inkscape:pageshadow="2"
     inkscape:zoom="1.4142136"
     inkscape:cx="534.45578"
     inkscape:cy="619.3811"
     inkscape:document-units="px"
     inkscape:current-layer="layer1"
     showgrid="false"
     showguides="true"
     inkscape:guide-bbox="true"
     inkscape:window-width="1366"
     inkscape:window-height="746"
     inkscape:window-x="-8"
     inkscape:window-y="-8"
     inkscape:window-maximized="1"
     width="0px"
     height="0px"
     fit-margin-top="0"
     fit-margin-left="0"
     fit-margin-right="0"
     fit-margin-bottom="0">
    <sodipodi:guide
       orientation="1,0"
       position="450,784"
       id="guide3178" />
    <sodipodi:guide
       orientation="0,1"
       position="-61,400"
       id="guide3180" />
  </sodipodi:namedview>
  <metadata
     id="metadata7">
    <rdf:RDF>
      <cc:Work
         rdf:about="">
        <dc:format>image/svg+xml</dc:format>
        <dc:type
           rdf:resource="http://purl.org/dc/dcmitype/StillImage" />
        <dc:title></dc:title>
      </cc:Work>
    </rdf:RDF>
  </metadata>
  <g
     inkscape:label="Layer 1"
     inkscape:groupmode="layer"
     id="layer1"
     transform="translate(0,-252.36218)">
    <path
       id="rect3091"
       transform="translate(0,252.36218)"
       style="fill:#ff0000"
       d="m 265.40625,26.5625 c -0.14777,-3.1e-4 -0.31489,0.01356 -0.46875,0.03125 -0.5681,0.0653 -1.15099,0.26111 -1.8125,0.5625 -1.5401,0.7018 -1.93328,2.10714 -1.53125,6.03125 0.52154,5.09044 -1.3193,17.88506 -2.71875,18.75 -0.78579,0.48564 -1.41991,-1.49598 -2.25,-7.15625 -1.29799,-8.85085 -2.74031,-11.76313 -6.84375,-13.8125 -2.16091,-1.0792 -2.24757,-1.07942 -4.15625,-0.21875 -3.99778,1.80274 -3.87551,5.20422 0.46875,14.03125 3.71097,7.54032 4.07296,9.64682 4.125,23.875 0.0329,9.00079 -0.17706,12.98044 -1.03125,19.4375 -1.06154,8.02434 -1.60322,10.01371 -5.75,21.84375 -4.01106,11.44278 -4.71258,20.49558 -1.9375,24.5 0.71821,1.03639 2.68156,2.98166 4.375,4.3125 1.69349,1.33083 3.76022,3.38226 4.59375,4.59375 1.70431,2.47712 3.65431,4.03618 5.46875,4.375 0.67265,0.12561 1.52674,0.24443 1.90625,0.28125 0.99086,0.0962 6.48944,-2.59451 8.1875,-4 0.79207,-0.65558 2.80456,-1.917 4.5,-2.8125 3.64245,-1.92386 6.24496,-4.61226 6.96875,-7.21875 0.75315,-2.71232 0.63027,-8.46222 -0.25,-10.75 -2.58646,-6.72197 -4.68193,-13.76904 -5.09375,-17.1875 -0.26191,-2.17347 -0.46818,-14.77778 -0.4375,-28.03125 0.10053,-43.53327 0.17621,-41.05775 -1.0625,-44.84375 -1.4873,-4.54545 -3.03339,-6.589096 -5.25,-6.59375 z m -0.46875,2.0625 c 0.47569,-0.0808 0.87749,0.28206 1.75,1.25 2.9002,3.2174 3.31725,8.60671 3.09375,43.5625 -0.13253,20.73302 -0.32667,27.9147 -0.75,27.90625 -0.31343,-0.006 -1.59642,-0.96588 -2.84375,-2.15625 -1.38145,-1.31837 -3.09528,-2.41382 -4.34375,-2.75 -2.42616,-0.65329 -7.63823,-0.17772 -9.21875,0.8125 -2.37286,1.48662 -2.79148,0.99422 -2.4375,-2.90625 0.91487,-10.08108 3.6497,-21.56825 6.6875,-28.15625 4.51941,-9.801 6.00687,-16.23968 6.375,-27.71875 0.25684,-8.0088 0.40073,-9.14353 1.1875,-9.625 0.18403,-0.11263 0.34144,-0.19185 0.5,-0.21875 z m -17.8125,4.4375 c 0.13898,-0.0282 0.28298,-0.0199 0.4375,0 0.61803,0.0793 1.33533,0.51565 2.21875,1.34375 2.1612,2.02594 1.92335,1.20011 7.09375,21.03125 0.32126,1.23207 0.0439,2.36703 -1.3125,5.65625 -0.93329,2.26287 -1.85141,4.31148 -2.0625,4.53125 -0.57707,0.60077 -1.05216,-2.27048 -1.0625,-6.75 -0.0178,-7.15127 -0.63494,-9.84014 -3.875,-16.28125 -3.06431,-6.09174 -3.33568,-7.03641 -2.46875,-8.65625 0.26845,-0.50174 0.61427,-0.79051 1.03125,-0.875 z m 11.96875,65.40625 c 1.43346,-0.0352 2.72041,0.15615 3.6875,0.65625 2.00788,1.0383 4.58327,4.59316 6.15625,8.5 0.73594,1.8279 1.63232,3.89213 2,4.59375 1.35997,2.59505 3.68565,10.65217 3.96875,13.75 0.36319,3.97426 -0.42009,8.49155 -1.875,10.625 -0.60828,0.89195 -2.35614,2.30068 -3.84375,3.125 -1.48766,0.82432 -4.0878,2.70935 -5.78125,4.1875 -2.41521,2.10812 -3.43798,2.68072 -4.6875,2.65625 -2.53297,-0.0496 -3.48501,-0.67634 -7.5625,-4.75 -2.11178,-2.10979 -4.70949,-4.44057 -5.75,-5.21875 -1.04048,-0.77816 -2.33732,-2.35357 -2.84375,-3.46875 -1.97205,-4.34274 -0.71043,-12.67454 3.25,-21.71875 0.35531,-0.81143 1.24174,-3.01288 1.96875,-4.90625 0.727,-1.89334 1.92044,-4.03821 2.625,-4.78125 1.82212,-1.92168 5.53393,-3.17267 8.6875,-3.25 z" />
  </g>
</svg>
