<?xml version="1.0" encoding="UTF-8" standalone="no"?>
<!-- Created with Inkscape (http://www.inkscape.org/) -->

<svg
   xmlns:dc="http://purl.org/dc/elements/1.1/"
   xmlns:cc="http://creativecommons.org/ns#"
   xmlns:rdf="http://www.w3.org/1999/02/22-rdf-syntax-ns#"
   xmlns:svg="http://www.w3.org/2000/svg"
   xmlns="http://www.w3.org/2000/svg"
   xmlns:sodipodi="http://sodipodi.sourceforge.net/DTD/sodipodi-0.dtd"
   xmlns:inkscape="http://www.inkscape.org/namespaces/inkscape"
   width="800"
   height="700"
   id="svg2"
   version="1.1"
   inkscape:version="0.48.2 r9819"
   sodipodi:docname="l4.svg">
  <defs
     id="defs4" />
  <sodipodi:namedview
     id="base"
     pagecolor="#ffffff"
     bordercolor="#666666"
     borderopacity="1.0"
     inkscape:pageopacity="0.0"
     inkscape:pageshadow="2"
     inkscape:zoom="2.5"
     inkscape:cx="177.35158"
     inkscape:cy="640.74647"
     inkscape:document-units="px"
     inkscape:current-layer="layer1"
     showgrid="false"
     showguides="true"
     inkscape:guide-bbox="true"
     inkscape:window-width="1366"
     inkscape:window-height="746"
     inkscape:window-x="-8"
     inkscape:window-y="-8"
     inkscape:window-maximized="1"
     width="0px"
     height="0px"
     fit-margin-top="0"
     fit-margin-left="0"
     fit-margin-right="0"
     fit-margin-bottom="0">
    <sodipodi:guide
       orientation="1,0"
       position="400.22244,349.31075"
       id="guide3178" />
    <sodipodi:guide
       orientation="0,1"
       position="400.22244,349.31075"
       id="guide3180" />
  </sodipodi:namedview>
  <metadata
     id="metadata7">
    <rdf:RDF>
      <cc:Work
         rdf:about="">
        <dc:format>image/svg+xml</dc:format>
        <dc:type
           rdf:resource="http://purl.org/dc/dcmitype/StillImage" />
        <dc:title></dc:title>
      </cc:Work>
    </rdf:RDF>
  </metadata>
  <g
     inkscape:label="Layer 1"
     inkscape:groupmode="layer"
     id="layer1"
     transform="translate(0,-352.36218)">
    <path
       id="rect3062"
       transform="translate(0,352.36218)"
       style="fill:#ff0000"
       d="m 235.3125,23.46875 c -0.50254,0.0578 -1.00858,0.26463 -1.59375,0.53125 -1.36238,0.6208 -1.69939,1.84122 -1.34375,5.3125 0.46135,4.50301 -1.16829,15.82863 -2.40625,16.59375 -0.69509,0.42959 -1.2657,-1.30543 -2,-6.3125 -1.1482,-7.82947 -2.40135,-10.43712 -6.03125,-12.25 -1.91154,-0.95467 -1.99908,-0.94886 -3.6875,-0.1875 -3.53644,1.59471 -3.43669,4.62909 0.40625,12.4375 3.28273,6.67017 3.61021,8.50749 3.65625,21.09375 0.029,7.9621 -0.18188,11.47558 -0.9375,17.1875 -0.93904,7.09832 -1.39426,8.87889 -5.0625,19.34375 -3.54819,10.1223 -4.17359,18.11395 -1.71875,21.65625 0.63533,0.9168 2.37698,2.63524 3.875,3.8125 1.49807,1.17725 3.32516,2.9908 4.0625,4.0625 1.50764,2.19126 3.20745,3.57528 4.8125,3.875 0.59504,0.11111 1.35178,0.21745 1.6875,0.25 0.8765,0.0851 5.7479,-2.28795 7.25,-3.53125 0.70068,-0.57993 2.50021,-1.70785 4,-2.5 3.22212,-1.70185 5.51597,-4.06929 6.15625,-6.375 0.66623,-2.39933 0.55993,-7.47622 -0.21875,-9.5 -2.28799,-5.94626 -4.1357,-12.19478 -4.5,-15.21875 -0.23168,-1.92265 -0.43339,-13.05721 -0.40625,-24.78125 0.0889,-38.50958 0.15827,-36.3384 -0.9375,-39.6875 -1.40337,-4.28897 -2.88479,-6.06295 -5.0625,-5.8125 z m 0,1.8125 c 0.42079,-0.0715 0.79067,0.26875 1.5625,1.125 2.5655,2.84611 2.94771,7.60932 2.75,38.53125 -0.11724,18.34044 -0.31302,24.66372 -0.6875,24.65625 -0.27724,-0.006 -1.39661,-0.85324 -2.5,-1.90625 -1.22204,-1.16624 -2.73935,-2.10885 -3.84375,-2.40625 -2.14618,-0.57789 -6.75811,-0.18845 -8.15625,0.6875 -2.09903,1.31506 -2.46937,0.88784 -2.15625,-2.5625 0.8093,-8.91773 3.21902,-19.0785 5.90625,-24.90625 3.99787,-8.66998 5.33061,-14.3456 5.65625,-24.5 0.22721,-7.08458 0.33527,-8.10535 1.03125,-8.53125 0.16279,-0.0996 0.29723,-0.1637 0.4375,-0.1875 z m -15.75,3.90625 c 0.12294,-0.0249 0.26956,-0.0176 0.40625,0 0.5467,0.0703 1.18728,0.48621 1.96875,1.21875 1.9118,1.79215 1.67626,1.05108 6.25,18.59375 0.28419,1.08989 0.0437,2.09035 -1.15625,5 -0.82559,2.00173 -1.65702,3.8056 -1.84375,4 -0.51049,0.53145 -0.8971,-2.00617 -0.90625,-5.96875 -0.0157,-6.32602 -0.57134,-8.67719 -3.4375,-14.375 -2.7107,-5.38876 -2.95439,-6.22333 -2.1875,-7.65625 0.23747,-0.44383 0.53738,-0.73776 0.90625,-0.8125 z m 10.59375,57.875 c 1.26804,-0.0311 2.39451,0.15135 3.25,0.59375 1.77617,0.91848 4.04605,4.04401 5.4375,7.5 0.65102,1.61696 1.456,3.44185 1.78125,4.0625 1.20302,2.29559 3.28083,9.41591 3.53125,12.15625 0.32128,3.51563 -0.4005,7.51899 -1.6875,9.40625 -0.5381,0.78902 -2.09031,2.0208 -3.40625,2.75 -1.31598,0.72919 -3.59572,2.41118 -5.09375,3.71875 -2.1365,1.86485 -3.01967,2.39664 -4.125,2.375 -2.24066,-0.0439 -3.1118,-0.61519 -6.71875,-4.21875 -1.86809,-1.86632 -4.14207,-3.93662 -5.0625,-4.625 -0.92042,-0.68837 -2.08326,-2.04477 -2.53125,-3.03125 -1.74447,-3.84159 -0.6284,-11.21823 2.875,-19.21875 0.31431,-0.71779 1.10689,-2.66888 1.75,-4.34375 0.64311,-1.67484 1.68924,-3.59271 2.3125,-4.25 1.61184,-1.69992 4.89784,-2.8066 7.6875,-2.875 z" />
  </g>
</svg>
