<?xml version="1.0" encoding="UTF-8" standalone="no"?>
<!-- Created with Inkscape (http://www.inkscape.org/) -->

<svg
   xmlns:dc="http://purl.org/dc/elements/1.1/"
   xmlns:cc="http://creativecommons.org/ns#"
   xmlns:rdf="http://www.w3.org/1999/02/22-rdf-syntax-ns#"
   xmlns:svg="http://www.w3.org/2000/svg"
   xmlns="http://www.w3.org/2000/svg"
   xmlns:sodipodi="http://sodipodi.sourceforge.net/DTD/sodipodi-0.dtd"
   xmlns:inkscape="http://www.inkscape.org/namespaces/inkscape"
   width="800"
   height="700"
   id="svg2"
   version="1.1"
   inkscape:version="0.48.2 r9819"
   sodipodi:docname="m5.svg">
  <defs
     id="defs4" />
  <sodipodi:namedview
     id="base"
     pagecolor="#ffffff"
     bordercolor="#666666"
     borderopacity="1.0"
     inkscape:pageopacity="0.0"
     inkscape:pageshadow="2"
     inkscape:zoom="2.5"
     inkscape:cx="177.35158"
     inkscape:cy="432.74647"
     inkscape:document-units="px"
     inkscape:current-layer="layer1"
     showgrid="false"
     showguides="true"
     inkscape:guide-bbox="true"
     inkscape:window-width="1366"
     inkscape:window-height="746"
     inkscape:window-x="-8"
     inkscape:window-y="-8"
     inkscape:window-maximized="1"
     width="0px"
     height="0px"
     fit-margin-top="0"
     fit-margin-left="0"
     fit-margin-right="0"
     fit-margin-bottom="0">
    <sodipodi:guide
       orientation="1,0"
       position="400.22244,349.31075"
       id="guide3178" />
    <sodipodi:guide
       orientation="0,1"
       position="400.22244,349.31075"
       id="guide3180" />
  </sodipodi:namedview>
  <metadata
     id="metadata7">
    <rdf:RDF>
      <cc:Work
         rdf:about="">
        <dc:format>image/svg+xml</dc:format>
        <dc:type
           rdf:resource="http://purl.org/dc/dcmitype/StillImage" />
        <dc:title></dc:title>
      </cc:Work>
    </rdf:RDF>
  </metadata>
  <g
     inkscape:label="Layer 1"
     inkscape:groupmode="layer"
     id="layer1"
     transform="translate(0,-352.36218)">
    <path
       id="rect3070"
       transform="translate(0,352.36218)"
       style="fill:#ff0000"
       d="m 238.3125,205.75 -2.75,0.0312 c -2.63176,0.0134 -6.61367,1.04537 -7.84375,2.03125 -0.31427,0.25189 -1.0239,0.61612 -1.5625,0.78125 -0.5386,0.1651 -1.19007,0.6314 -1.4375,1.09375 -0.24744,0.46235 -0.73331,0.875 -1.0625,0.875 -0.91129,0 -2.63786,2.28631 -4.15625,5.5 -1.87716,3.97297 -2.30363,8.33259 -1.46875,13.96875 0.70355,4.74954 1.82537,10.30213 2.375,11.625 0.19883,0.47854 0.57437,2.03318 0.84375,3.46875 0.26936,1.43563 1.06707,5.04851 1.78125,8 4.3182,17.84668 3.92879,28.41237 -1.625,44.125 -2.51973,7.12876 -2.60259,7.51139 -1.90625,8.8125 0.33621,0.62824 1.11128,1.40767 1.71875,1.75 2.65929,1.49857 5.61023,-0.28218 8.28125,-5.03125 0.80318,-1.42797 1.61675,-2.59375 1.78125,-2.59375 0.16451,0 0.4591,0.59739 0.65625,1.375 0.28423,1.12106 0.43244,0.49691 0.65625,-3.125 0.21509,-3.48076 0.58705,-5.50883 1.625,-8.46875 1.54433,-4.40409 1.87376,-4.91162 2.65625,-3.96875 0.52082,0.62757 1.52135,16.03605 1.125,17.34375 -0.0851,0.28071 -0.23478,1.04544 -0.375,1.6875 -0.50721,2.32322 -3.32143,1.90946 -4.4375,-0.65625 -0.33004,-0.75882 -0.61686,-1.1761 -0.625,-0.90625 -0.028,0.80414 1.20018,3.46589 1.84375,4 0.82119,0.68151 3.67137,-0.10636 4.25,-1.1875 0.61514,-1.14942 0.52033,-6.9119 -0.21875,-14.53125 -0.68262,-7.03719 -0.53975,-11.78026 0.46875,-14.96875 2.16442,-6.84309 3.65218,-12.20563 3.65625,-13.15625 0.004,-0.60231 0.28636,-2.13414 0.625,-3.40625 0.3386,-1.27212 0.7577,-4.77782 0.90625,-7.8125 0.272,-5.55684 0.56442,-6.97403 3.5625,-16.40625 3.38024,-10.63446 1.09574,-19.6161 -7.09375,-27.9375 l -2.25,-2.3125 z m -3.0625,0.53125 c 0.95673,-0.0124 1.71449,0.35948 2.46875,1.15625 4.20207,4.43887 7.89462,9.76165 7.25,10.40625 -0.36611,0.36614 -1.48458,-0.80221 -5.03125,-5.125 -3.08394,-3.75875 -3.28599,-3.90625 -5,-3.90625 -1.42472,0 -2.00898,0.26769 -3.03125,1.34375 -0.70275,0.7397 -2.00631,1.72353 -2.84375,2.15625 -0.83741,0.43271 -2.90191,2.17624 -4.625,3.875 -3.30335,3.25663 -3.32593,3.23667 -3.78125,2.78125 -0.61639,-0.61636 -0.19366,-1.89994 1.40625,-4.53125 1.73315,-2.8504 2.60961,-3.52951 9.40625,-6.9375 1.65145,-0.82811 2.82453,-1.20632 3.78125,-1.21875 z m -0.4375,4.8125 c 0.18121,0.005 0.3432,0.023 0.5,0.0625 0.59476,0.14926 1.53718,0.89625 2.09375,1.65625 0.55656,0.75999 2.13072,2.50385 3.5,3.875 2.50611,2.50954 3.72824,4.84026 4.125,7.84375 0.15968,1.20878 -0.23506,2.50967 -1.75,5.84375 -1.07717,2.37061 -2.27285,5.25115 -2.65625,6.40625 -1.11067,3.34588 -1.90287,4.57955 -3.71875,5.78125 -2.69427,1.78298 -4.60314,2.07598 -6.9375,0.96875 -1.08203,-0.51324 -2.19822,-1.04919 -2.4375,-1.15625 -0.23924,-0.10694 -0.0476,0.17952 0.375,0.65625 0.86898,0.98049 3.46903,1.88227 5.34375,1.84375 1.99888,-0.0409 8.31561,-3.51945 8.84375,-4.875 0.56032,-1.43821 1.78125,-5.54983 1.78125,-6.03125 0,-0.23152 0.59448,-1.82416 1.34375,-3.53125 1.26642,-2.88546 1.37006,-3.32222 1.125,-6.5 -0.19389,-2.51425 -0.1556,-3.40604 0.21875,-3.28125 1.84161,0.61386 1.44244,8.71452 -0.75,15.0625 -2.00841,5.81509 -2.27622,7.26055 -2.8125,14.84375 -0.24535,3.46937 -0.65944,7.50191 -0.90625,8.9375 -0.24685,1.43557 -0.66334,3.7519 -0.90625,5.1875 -0.48647,2.8752 -1.77577,7.02962 -4,12.78125 -1.65383,4.27663 -1.78332,4.65762 -4.5,12.6875 -1.09281,3.2301 -2.33331,6.61228 -2.78125,7.5 -0.44792,0.88772 -0.84375,1.90093 -0.84375,2.28125 0,1.07656 -1.24919,3.34236 -2.75,4.9375 -1.62509,1.72724 -3.38247,2.73274 -4.0625,2.3125 -0.70789,-0.43748 -1.4375,-2.49008 -1.4375,-4.125 0,-0.77469 0.79668,-3.07264 1.78125,-5.09375 0.98461,-2.02109 1.96805,-4.25095 2.1875,-4.96875 2.4324,-7.95723 3.58341,-15.24284 3.21875,-20.46875 -0.41256,-5.91249 -1.06432,-10.39052 -2.21875,-15.15625 -0.5737,-2.36849 -1.0625,-4.85461 -1.0625,-5.5 0,-0.64539 -0.28957,-1.76495 -0.65625,-2.5 -0.36669,-0.73507 -0.96873,-2.8762 -1.34375,-4.75 -0.37501,-1.8738 -0.93936,-4.56442 -1.25,-6 -1.62172,-7.49457 -1.96147,-9.76464 -2,-13.34375 -0.023,-2.15147 0.0452,-4.04509 0.1875,-4.1875 0.57751,-0.57748 0.94972,0.59458 1.21875,3.96875 0.38892,4.87832 1.54341,11.85496 2.15625,13 0.58163,1.08682 3.37566,3.8125 3.90625,3.8125 0.19567,0 -0.44611,-1.52069 -1.40625,-3.375 -1.41812,-2.73893 -1.86805,-4.32155 -2.5625,-8.5625 -0.87447,-5.34047 -0.83589,-8.93052 0.125,-10.1875 3.68809,-4.8246 9.00037,-8.71 11.71875,-8.65625 z" />
  </g>
</svg>
