<?xml version="1.0" encoding="UTF-8" standalone="no"?>
<!-- Created with Inkscape (http://www.inkscape.org/) -->

<svg
   xmlns:dc="http://purl.org/dc/elements/1.1/"
   xmlns:cc="http://creativecommons.org/ns#"
   xmlns:rdf="http://www.w3.org/1999/02/22-rdf-syntax-ns#"
   xmlns:svg="http://www.w3.org/2000/svg"
   xmlns="http://www.w3.org/2000/svg"
   xmlns:sodipodi="http://sodipodi.sourceforge.net/DTD/sodipodi-0.dtd"
   xmlns:inkscape="http://www.inkscape.org/namespaces/inkscape"
   width="900"
   height="800"
   id="svg2"
   version="1.1"
   inkscape:version="0.48.2 r9819"
   sodipodi:docname="m5.svg">
  <defs
     id="defs4" />
  <sodipodi:namedview
     id="base"
     pagecolor="#ffffff"
     bordercolor="#666666"
     borderopacity="1.0"
     inkscape:pageopacity="0.0"
     inkscape:pageshadow="2"
     inkscape:zoom="1.4142136"
     inkscape:cx="534.45578"
     inkscape:cy="619.3811"
     inkscape:document-units="px"
     inkscape:current-layer="layer1"
     showgrid="false"
     showguides="true"
     inkscape:guide-bbox="true"
     inkscape:window-width="1366"
     inkscape:window-height="746"
     inkscape:window-x="-8"
     inkscape:window-y="-8"
     inkscape:window-maximized="1"
     width="0px"
     height="0px"
     fit-margin-top="0"
     fit-margin-left="0"
     fit-margin-right="0"
     fit-margin-bottom="0">
    <sodipodi:guide
       orientation="1,0"
       position="450,784"
       id="guide3178" />
    <sodipodi:guide
       orientation="0,1"
       position="-61,400"
       id="guide3180" />
  </sodipodi:namedview>
  <metadata
     id="metadata7">
    <rdf:RDF>
      <cc:Work
         rdf:about="">
        <dc:format>image/svg+xml</dc:format>
        <dc:type
           rdf:resource="http://purl.org/dc/dcmitype/StillImage" />
        <dc:title></dc:title>
      </cc:Work>
    </rdf:RDF>
  </metadata>
  <g
     inkscape:label="Layer 1"
     inkscape:groupmode="layer"
     id="layer1"
     transform="translate(0,-252.36218)">
    <path
       id="rect3099"
       transform="translate(0,252.36218)"
       style="fill:#ff0000"
       d="m 268.3125,232.65625 -3.125,0.0312 c -2.97508,0.0152 -7.48447,1.16675 -8.875,2.28125 -0.35528,0.28476 -1.14113,0.68832 -1.75,0.875 -0.60885,0.18664 -1.34528,0.72734 -1.625,1.25 -0.2797,0.52266 -0.78412,0.96875 -1.15625,0.96875 -1.03017,0 -3.00227,2.58583 -4.71875,6.21875 -2.12202,4.49126 -2.63129,9.40983 -1.6875,15.78125 0.79533,5.36914 2.06615,11.66081 2.6875,13.15625 0.22475,0.54096 0.66423,2.31464 0.96875,3.9375 0.30449,1.62291 1.2239,5.66346 2.03125,9 4.88152,20.17483 4.43455,32.14384 -1.84375,49.90625 -2.84845,8.05872 -2.94343,8.46663 -2.15625,9.9375 0.38007,0.71018 1.25077,1.64427 1.9375,2.03125 3.0062,1.69407 6.35554,-0.35014 9.375,-5.71875 0.90796,-1.61424 1.81404,-2.9375 2,-2.9375 0.18597,0 0.49588,0.68343 0.71875,1.5625 0.32131,1.2673 0.49699,0.56315 0.75,-3.53125 0.24314,-3.93483 0.67041,-6.21643 1.84375,-9.5625 1.74581,-4.97862 2.11544,-5.53461 3,-4.46875 0.58877,0.70945 1.72932,18.11547 1.28125,19.59375 -0.0962,0.31733 -0.27899,1.18043 -0.4375,1.90625 -0.57338,2.6263 -3.73834,2.15042 -5,-0.75 -0.3731,-0.8578 -0.70956,-1.3363 -0.71875,-1.03125 -0.0317,0.90904 1.36622,3.92746 2.09375,4.53125 0.92829,0.77042 4.15839,-0.15283 4.8125,-1.375 0.69538,-1.29938 0.58549,-7.79294 -0.25,-16.40625 -0.77168,-7.95522 -0.60882,-13.33307 0.53125,-16.9375 2.44676,-7.7358 4.1204,-13.76911 4.125,-14.84375 0.004,-0.68088 0.33594,-2.40569 0.71875,-3.84375 0.38277,-1.43807 0.83207,-5.41319 1,-8.84375 0.30748,-6.28174 0.64205,-7.89982 4.03125,-18.5625 3.82119,-12.02175 1.25783,-22.1868 -8,-31.59375 l -2.5625,-2.5625 z m -3.4375,0.5625 c 1.08154,-0.014 1.89733,0.44303 2.75,1.34375 4.75024,5.01794 8.94746,10.99006 8.21875,11.71875 -0.41387,0.41389 -1.67815,-0.89454 -5.6875,-5.78125 -3.48624,-4.2491 -3.71863,-4.40625 -5.65625,-4.40625 -1.61057,0 -2.28187,0.28356 -3.4375,1.5 -0.79443,0.8362 -2.2408,1.94834 -3.1875,2.4375 -0.94664,0.48918 -3.30212,2.45463 -5.25,4.375 -3.73429,3.68147 -3.76654,3.70232 -4.28125,3.1875 -0.6968,-0.69678 -0.21487,-2.18169 1.59375,-5.15625 1.95924,-3.22225 2.97296,-3.95993 10.65625,-7.8125 1.86688,-0.93613 3.19972,-1.39219 4.28125,-1.40625 z m -0.5,5.46875 c 0.20485,0.005 0.38524,0.0179 0.5625,0.0625 0.67236,0.16875 1.74583,1.01586 2.375,1.875 0.62917,0.85913 2.38958,2.82498 3.9375,4.375 2.83305,2.83689 4.23899,5.4797 4.6875,8.875 0.18052,1.36647 -0.28744,2.82474 -2,6.59375 -1.2177,2.67987 -2.56658,5.94421 -3,7.25 -1.25555,3.78236 -2.13473,5.17278 -4.1875,6.53125 -3.04574,2.01557 -5.23611,2.34543 -7.875,1.09375 -1.22319,-0.58018 -2.44826,-1.19147 -2.71875,-1.3125 -0.27046,-0.1209 -0.1028,0.21108 0.375,0.75 0.98234,1.10839 3.94323,2.13729 6.0625,2.09375 2.25964,-0.0463 9.40297,-3.99886 10,-5.53125 0.63341,-1.62584 2,-6.26828 2,-6.8125 0,-0.26171 0.7155,-2.07021 1.5625,-4 1.43164,-3.26187 1.52703,-3.75143 1.25,-7.34375 -0.21917,-2.84225 -0.17319,-3.85981 0.25,-3.71875 2.08184,0.69394 1.60346,9.85515 -0.875,17.03125 -2.27041,6.57368 -2.55001,8.24004 -3.15625,16.8125 -0.27735,3.92196 -0.75224,8.43962 -1.03125,10.0625 -0.27904,1.62286 -0.7254,4.28338 -1,5.90625 -0.54992,3.25028 -2.01686,7.93556 -4.53125,14.4375 -1.86958,4.83454 -2.02267,5.26635 -5.09375,14.34375 -1.23538,3.65146 -2.64987,7.46521 -3.15625,8.46875 -0.50636,1.00353 -0.9375,2.16381 -0.9375,2.59375 0,1.21698 -1.42842,3.75925 -3.125,5.5625 -1.8371,1.95256 -3.82499,3.10006 -4.59375,2.625 -0.80022,-0.49455 -1.625,-2.8393 -1.625,-4.6875 0,-0.87574 0.88698,-3.43398 2,-5.71875 1.11304,-2.28475 2.25192,-4.84482 2.5,-5.65625 2.74972,-8.99528 4.03723,-17.21736 3.625,-23.125 -0.46638,-6.6838 -1.22622,-11.76882 -2.53125,-17.15625 -0.64854,-2.67747 -1.1875,-5.45791 -1.1875,-6.1875 0,-0.72957 -0.33549,-2.0128 -0.75,-2.84375 -0.41452,-0.83096 -1.07607,-3.22552 -1.5,-5.34375 -0.42394,-2.11826 -1.05508,-5.15839 -1.40625,-6.78125 -1.83328,-8.47226 -2.20645,-11.04772 -2.25,-15.09375 -0.026,-2.43213 0.0578,-4.55778 0.21875,-4.71875 0.65284,-0.65283 1.03963,0.65441 1.34375,4.46875 0.43967,5.51472 1.77597,13.39307 2.46875,14.6875 0.65749,1.22859 3.80644,4.3125 4.40625,4.3125 0.2212,0 -0.50838,-1.71629 -1.59375,-3.8125 -1.60314,-3.09622 -2.12121,-4.89332 -2.90625,-9.6875 -0.98854,-6.03717 -0.92999,-10.11029 0.15625,-11.53125 4.16921,-5.45398 10.177,-9.81076 13.25,-9.75 z" />
  </g>
</svg>
