<?xml version="1.0" encoding="UTF-8" standalone="no"?>
<!-- Created with Inkscape (http://www.inkscape.org/) -->

<svg
   xmlns:dc="http://purl.org/dc/elements/1.1/"
   xmlns:cc="http://creativecommons.org/ns#"
   xmlns:rdf="http://www.w3.org/1999/02/22-rdf-syntax-ns#"
   xmlns:svg="http://www.w3.org/2000/svg"
   xmlns="http://www.w3.org/2000/svg"
   xmlns:sodipodi="http://sodipodi.sourceforge.net/DTD/sodipodi-0.dtd"
   xmlns:inkscape="http://www.inkscape.org/namespaces/inkscape"
   width="800"
   height="400"
   id="svg2"
   version="1.1"
   inkscape:version="0.48.2 r9819"
   sodipodi:docname="m5.svg">
  <defs
     id="defs4" />
  <sodipodi:namedview
     id="base"
     pagecolor="#ffffff"
     bordercolor="#666666"
     borderopacity="1.0"
     inkscape:pageopacity="0.0"
     inkscape:pageshadow="2"
     inkscape:zoom="2"
     inkscape:cx="249.15404"
     inkscape:cy="298.25618"
     inkscape:document-units="px"
     inkscape:current-layer="layer1"
     showgrid="false"
     showguides="true"
     inkscape:guide-bbox="true"
     inkscape:window-width="1366"
     inkscape:window-height="746"
     inkscape:window-x="-8"
     inkscape:window-y="-8"
     inkscape:window-maximized="1"
     width="0px"
     height="0px"
     fit-margin-top="0"
     fit-margin-left="0"
     fit-margin-right="0"
     fit-margin-bottom="0">
    <sodipodi:guide
       orientation="1,0"
       position="400.22244,349.31075"
       id="guide3178" />
    <sodipodi:guide
       orientation="0,1"
       position="-117.37973,199.40411"
       id="guide3180" />
  </sodipodi:namedview>
  <metadata
     id="metadata7">
    <rdf:RDF>
      <cc:Work
         rdf:about="">
        <dc:format>image/svg+xml</dc:format>
        <dc:type
           rdf:resource="http://purl.org/dc/dcmitype/StillImage" />
        <dc:title></dc:title>
      </cc:Work>
    </rdf:RDF>
  </metadata>
  <g
     inkscape:label="Layer 1"
     inkscape:groupmode="layer"
     id="layer1"
     transform="translate(0,-652.36218)">
    <path
       id="rect3145"
       transform="translate(0,652.36218)"
       style="fill:#ff0000"
       d="m 239.8125,137.25 c -2.3863,0.0101 -3.2527,0.2405 -5.0625,1.3125 -2.97007,1.75935 -6.26384,3.90058 -7.65625,4.96875 -0.63597,0.48792 -1.39475,0.90625 -1.65625,0.90625 -0.74029,0 -3.91877,3.46806 -4.84375,5.28125 -0.99786,1.95593 -1.04023,3.43328 -0.1875,5.78125 0.35048,0.9651 0.82044,2.53815 1.0625,3.5 0.24208,0.96184 1.15821,2.9129 2.03125,4.34375 0.87302,1.43081 2.1761,3.68402 2.90625,5 3.27764,5.90738 6.315,9.43673 9.1875,10.6875 2.03,0.88397 5.34745,0.75619 8.21875,-0.34375 3.333,-1.27677 5.3901,-3.89763 6.25,-8 0.3266,-1.55796 1.2472,-4.25365 2.0625,-5.96875 1.6267,-3.42209 2.84375,-8.68363 2.84375,-12.1875 0,-1.6328 -0.2271,-2.62023 -0.9375,-3.625 -1.6489,-2.33209 -9.16975,-10.43138 -10.28125,-11.0625 -0.6008,-0.34128 -2.2917,-0.60086 -3.9375,-0.59375 z m 0.71875,1.71875 c 0.4718,0.0257 0.81575,0.17343 1.21875,0.4375 2.0438,1.33915 11.1383,10.75202 11.5625,11.96875 0.7011,2.01126 -1.5678,11.73473 -3.125,13.40625 l -0.875,0.90625 -1.5,-0.9375 c -0.8526,-0.52772 -2.08755,-1.36791 -2.71875,-1.875 l -1.125,-0.9375 1.15625,-1.375 c 1.1698,-1.3902 1.91965,-3.36154 1.46875,-3.8125 -0.1305,-0.13044 -0.77015,0.57 -1.40625,1.53125 -0.6362,0.96127 -1.8318,2.06272 -2.6875,2.46875 -2.9387,1.39451 -9.68516,0.18926 -10.4375,-1.875 -0.14806,-0.40622 -0.72381,-1.29241 -1.28125,-1.96875 l -1.03125,-1.25 0,1.09375 c 0,0.60819 0.78711,2.08603 1.78125,3.34375 1.71416,2.16848 1.75475,2.27357 1.46875,4.5625 -0.30653,2.4538 -0.0201,4.5625 0.625,4.5625 0.2053,0 0.3017,-0.82687 0.1875,-1.84375 -0.1734,-1.5452 -0.0532,-2.0314 0.875,-3.03125 1.0177,-1.09653 1.3724,-1.21875 4.3125,-1.21875 2.824,0 3.3233,0.14265 4.1875,1.0625 0.5398,0.57466 1.119,1.83547 1.25,2.8125 0.3499,2.60876 1.24155,3.13932 1.59375,0.9375 0.302,-1.88868 0.686,-2.15776 1.75,-1.09375 1,0.99994 0.81595,3.33245 -0.46875,6.40625 -1.4871,3.55823 -1.9069,4.01094 -4.875,4.84375 -3.2446,0.91042 -3.853,0.87974 -5.9375,-0.21875 -2.319,-1.22207 -4.39215,-3.2146 -5.78125,-5.59375 -0.62865,-1.07667 -1.97727,-3.25727 -2.96875,-4.8125 -2.86372,-4.49201 -3.94821,-6.68747 -5.15625,-10.1875 -1.05535,-3.0576 -1.08524,-3.45174 -0.59375,-6 0.44203,-2.29182 0.78341,-2.97269 2.25,-4.34375 0.95978,-0.89723 1.94363,-1.65625 2.1875,-1.65625 0.24385,0 0.81853,-0.35522 1.3125,-0.8125 1.4669,-1.35809 8.4352,-4.74016 10.8125,-5.25 0.9015,-0.19343 1.49695,-0.27556 1.96875,-0.25 z" />
  </g>
</svg>
