<?xml version="1.0" encoding="UTF-8" standalone="no"?>
<!-- Created with Inkscape (http://www.inkscape.org/) -->

<svg
   xmlns:dc="http://purl.org/dc/elements/1.1/"
   xmlns:cc="http://creativecommons.org/ns#"
   xmlns:rdf="http://www.w3.org/1999/02/22-rdf-syntax-ns#"
   xmlns:svg="http://www.w3.org/2000/svg"
   xmlns="http://www.w3.org/2000/svg"
   xmlns:sodipodi="http://sodipodi.sourceforge.net/DTD/sodipodi-0.dtd"
   xmlns:inkscape="http://www.inkscape.org/namespaces/inkscape"
   width="900"
   height="800"
   id="svg2"
   version="1.1"
   inkscape:version="0.48.2 r9819"
   sodipodi:docname="f5.svg">
  <defs
     id="defs4" />
  <sodipodi:namedview
     id="base"
     pagecolor="#ffffff"
     bordercolor="#666666"
     borderopacity="1.0"
     inkscape:pageopacity="0.0"
     inkscape:pageshadow="2"
     inkscape:zoom="1.4142136"
     inkscape:cx="534.45578"
     inkscape:cy="619.3811"
     inkscape:document-units="px"
     inkscape:current-layer="layer1"
     showgrid="false"
     showguides="true"
     inkscape:guide-bbox="true"
     inkscape:window-width="1366"
     inkscape:window-height="746"
     inkscape:window-x="-8"
     inkscape:window-y="-8"
     inkscape:window-maximized="1"
     width="0px"
     height="0px"
     fit-margin-top="0"
     fit-margin-left="0"
     fit-margin-right="0"
     fit-margin-bottom="0">
    <sodipodi:guide
       orientation="1,0"
       position="450,784"
       id="guide3178" />
    <sodipodi:guide
       orientation="0,1"
       position="-61,400"
       id="guide3180" />
  </sodipodi:namedview>
  <metadata
     id="metadata7">
    <rdf:RDF>
      <cc:Work
         rdf:about="">
        <dc:format>image/svg+xml</dc:format>
        <dc:type
           rdf:resource="http://purl.org/dc/dcmitype/StillImage" />
        <dc:title></dc:title>
      </cc:Work>
    </rdf:RDF>
  </metadata>
  <g
     inkscape:label="Layer 1"
     inkscape:groupmode="layer"
     id="layer1"
     transform="translate(0,-252.36218)">
    <path
       id="rect3095"
       transform="translate(0,252.36218)"
       style="fill:#ff0000"
       d="m 268.25,164.53125 c -2.69763,0.0115 -3.6729,0.28814 -5.71875,1.5 -3.35754,1.98884 -7.08222,4.41749 -8.65625,5.625 -0.71896,0.55157 -1.54812,1 -1.84375,1 -0.83686,0 -4.45434,3.95026 -5.5,6 -1.12803,2.21108 -1.18271,3.87698 -0.21875,6.53125 0.39621,1.09098 0.9451,2.85016 1.21875,3.9375 0.27367,1.0873 1.29432,3.32002 2.28125,4.9375 0.9869,1.61747 2.45584,4.13737 3.28125,5.625 3.70521,6.67803 7.15901,10.67981 10.40625,12.09375 2.29486,0.99927 6.03538,0.86843 9.28125,-0.375 3.76776,-1.44332 6.09037,-4.42495 7.0625,-9.0625 0.36915,-1.7612 1.39087,-4.81116 2.3125,-6.75 1.83895,-3.8685 3.25,-9.8203 3.25,-13.78125 0,-1.8458 -0.29066,-2.95792 -1.09375,-4.09375 -1.86402,-2.63632 -10.36847,-11.78655 -11.625,-12.5 -0.67925,-0.3858 -2.57702,-0.69554 -4.4375,-0.6875 z m 0.8125,1.96875 c 0.53337,0.029 0.91944,0.20147 1.375,0.5 2.31045,1.51384 12.61424,12.1558 13.09375,13.53125 0.79255,2.27364 -1.80208,13.23545 -3.5625,15.125 L 279,196.71875 277.28125,195.625 c -0.96385,-0.59657 -2.31777,-1.5205 -3.03125,-2.09375 l -1.3125,-1.09375 1.34375,-1.53125 c 1.32238,-1.57156 2.16603,-3.8027 1.65625,-4.3125 -0.14747,-0.14746 -0.87464,0.6321 -1.59375,1.71875 -0.71916,1.08668 -2.09516,2.35348 -3.0625,2.8125 -3.32205,1.57642 -10.96201,0.20856 -11.8125,-2.125 -0.16737,-0.4592 -0.77609,-1.45418 -1.40625,-2.21875 l -1.15625,-1.40625 0,1.21875 c 0,0.68753 0.87615,2.32821 2,3.75 1.93772,2.45136 1.97954,2.59998 1.65625,5.1875 -0.34655,2.7739 -0.0107,5.15625 0.71875,5.15625 0.23206,0 0.31657,-0.91298 0.1875,-2.0625 -0.19611,-1.74677 -0.049,-2.33847 1,-3.46875 1.15044,-1.23958 1.55137,-1.34375 4.875,-1.34375 3.19242,0 3.77312,0.14766 4.75,1.1875 0.61026,0.64962 1.22681,2.08302 1.375,3.1875 0.39556,2.94909 1.41447,3.52031 1.8125,1.03125 0.3414,-2.13506 0.76591,-2.42157 1.96875,-1.21875 1.1304,1.13038 0.95228,3.7752 -0.5,7.25 -1.68114,4.02239 -2.17597,4.52731 -5.53125,5.46875 -3.66794,1.02919 -4.36233,0.99178 -6.71875,-0.25 -2.62152,-1.3815 -4.96093,-3.62299 -6.53125,-6.3125 -0.71065,-1.21713 -2.22292,-3.67938 -3.34375,-5.4375 -3.2373,-5.07802 -4.47811,-7.57464 -5.84375,-11.53125 -1.19301,-3.45648 -1.24312,-3.90056 -0.6875,-6.78125 0.49969,-2.5908 0.90458,-3.35633 2.5625,-4.90625 1.08499,-1.01428 2.19305,-1.875 2.46875,-1.875 0.27565,0 0.94161,-0.42056 1.5,-0.9375 1.65827,-1.53525 9.53128,-5.3299 12.21875,-5.90625 1.01904,-0.21865 1.68542,-0.31015 2.21875,-0.28125 z" />
  </g>
</svg>
