<?xml version="1.0" encoding="UTF-8" standalone="no"?>
<!-- Created with Inkscape (http://www.inkscape.org/) -->

<svg
   xmlns:dc="http://purl.org/dc/elements/1.1/"
   xmlns:cc="http://creativecommons.org/ns#"
   xmlns:rdf="http://www.w3.org/1999/02/22-rdf-syntax-ns#"
   xmlns:svg="http://www.w3.org/2000/svg"
   xmlns="http://www.w3.org/2000/svg"
   xmlns:sodipodi="http://sodipodi.sourceforge.net/DTD/sodipodi-0.dtd"
   xmlns:inkscape="http://www.inkscape.org/namespaces/inkscape"
   width="800"
   height="700"
   id="svg2"
   version="1.1"
   inkscape:version="0.48.2 r9819"
   sodipodi:docname="f24-fill.svg">
  <defs
     id="defs4" />
  <sodipodi:namedview
     id="base"
     pagecolor="#ffffff"
     bordercolor="#666666"
     borderopacity="1.0"
     inkscape:pageopacity="0.0"
     inkscape:pageshadow="2"
     inkscape:zoom="5"
     inkscape:cx="343.75647"
     inkscape:cy="210.81286"
     inkscape:document-units="px"
     inkscape:current-layer="layer1"
     showgrid="false"
     showguides="true"
     inkscape:guide-bbox="true"
     inkscape:window-width="1024"
     inkscape:window-height="538"
     inkscape:window-x="-8"
     inkscape:window-y="-8"
     inkscape:window-maximized="1"
     width="0px"
     height="0px"
     fit-margin-top="0"
     fit-margin-left="0"
     fit-margin-right="0"
     fit-margin-bottom="0">
    <sodipodi:guide
       orientation="1,0"
       position="400.22244,349.31075"
       id="guide3178" />
    <sodipodi:guide
       orientation="0,1"
       position="400.22244,349.31075"
       id="guide3180" />
  </sodipodi:namedview>
  <metadata
     id="metadata7">
    <rdf:RDF>
      <cc:Work
         rdf:about="">
        <dc:format>image/svg+xml</dc:format>
        <dc:type
           rdf:resource="http://purl.org/dc/dcmitype/StillImage" />
        <dc:title />
      </cc:Work>
    </rdf:RDF>
  </metadata>
  <g
     inkscape:label="Layer 1"
     inkscape:groupmode="layer"
     id="layer1"
     transform="translate(0,-352.36218)">
    <path
       id="rect4332"
       transform="translate(0,352.36218)"
       style="fill:#00ff00"
       d="m 372.65625,471.71875 c -0.52367,-0.004 -0.86521,0.21612 -1.4375,0.75 -1.51033,1.40885 -2.6655,3.95142 -2.6875,5.84375 -0.009,0.90686 -0.31145,2.44921 -0.65625,3.40625 -0.34481,0.95715 -0.60805,2.01609 -0.59375,2.375 0.0145,0.35891 0.51491,-0.7001 1.09375,-2.375 1.08209,-3.13097 1.95637,-5.10608 2.1875,-4.875 0.14629,0.14623 -1.04303,7.23653 -2.40625,14.21875 -1.02004,5.22422 -1.1011,6.83885 -0.40625,8.5625 0.27152,0.67343 0.5507,1.68237 0.625,2.25 l 0.125,1.0625 -0.96875,-0.96875 c -1.17153,-1.10063 -2.21523,-4.92123 -1.90625,-7.03125 0.11872,-0.81133 0.53355,-3.12523 0.9375,-5.125 0.75142,-3.71935 0.70268,-4.94168 -0.0937,-2.78125 -0.74505,2.0213 -2.28125,10.68724 -2.28125,12.875 0,2.24863 0.95551,4.96317 1.84375,5.28125 1.12892,0.40393 11.93305,0.88458 13.34375,0.59375 0.79797,-0.16443 1.98999,-0.5235 2.6875,-0.8125 1.23415,-0.51113 1.28725,-0.60691 1.28125,-3.625 -0.008,-4.04372 -2.73969,-18.8842 -3.875,-21.0625 -0.21487,-0.41226 -0.6153,-1.55295 -0.875,-2.53125 -0.72747,-2.74035 -2.77246,-5.25253 -4.6875,-5.78125 -0.53847,-0.14871 -0.93582,-0.248 -1.25,-0.25 z m 3.5,7.28125 c 0.0273,-0.006 0.0663,-0.0106 0.0937,0 0.82696,0.32459 2.82365,7.81283 4.03125,15.34375 0.42281,2.63699 0.89667,5.19631 1.0625,5.71875 0.1913,0.60269 0.0144,1.41572 -0.46875,2.1875 -0.41876,0.66895 -0.76865,1.2199 -0.78125,1.25 -0.13723,0.3279 -1.96875,0.56114 -1.96875,0.25 0,-0.22986 0.30387,-0.54034 0.6875,-0.6875 0.59809,-0.22957 0.67265,-0.76936 0.40625,-3.84375 -0.17086,-1.972 -0.54112,-3.8283 -0.78125,-4.125 -0.24013,-0.29694 -0.49945,-1.81089 -0.625,-3.375 -0.12557,-1.5639 -0.419,-2.93516 -0.625,-3.0625 -0.206,-0.12753 -0.375,-1.30359 -0.375,-2.59375 0,-1.28993 -0.20613,-3.33799 -0.46875,-4.5625 -0.2621,-1.22462 -0.38275,-2.33604 -0.25,-2.46875 0.0222,-0.0212 0.0353,-0.0263 0.0625,-0.0312 z" />
  </g>
</svg>
