<?xml version="1.0" encoding="UTF-8" standalone="no"?>
<!-- Created with Inkscape (http://www.inkscape.org/) -->

<svg
   xmlns:dc="http://purl.org/dc/elements/1.1/"
   xmlns:cc="http://creativecommons.org/ns#"
   xmlns:rdf="http://www.w3.org/1999/02/22-rdf-syntax-ns#"
   xmlns:svg="http://www.w3.org/2000/svg"
   xmlns="http://www.w3.org/2000/svg"
   xmlns:sodipodi="http://sodipodi.sourceforge.net/DTD/sodipodi-0.dtd"
   xmlns:inkscape="http://www.inkscape.org/namespaces/inkscape"
   width="800"
   height="700"
   id="svg2"
   version="1.1"
   inkscape:version="0.48.2 r9819"
   sodipodi:docname="f24.svg">
  <defs
     id="defs4" />
  <sodipodi:namedview
     id="base"
     pagecolor="#ffffff"
     bordercolor="#666666"
     borderopacity="1.0"
     inkscape:pageopacity="0.0"
     inkscape:pageshadow="2"
     inkscape:zoom="5"
     inkscape:cx="343.75647"
     inkscape:cy="226.81286"
     inkscape:document-units="px"
     inkscape:current-layer="layer1"
     showgrid="false"
     showguides="true"
     inkscape:guide-bbox="true"
     inkscape:window-width="1366"
     inkscape:window-height="746"
     inkscape:window-x="-8"
     inkscape:window-y="-8"
     inkscape:window-maximized="1"
     width="0px"
     height="0px"
     fit-margin-top="0"
     fit-margin-left="0"
     fit-margin-right="0"
     fit-margin-bottom="0">
    <sodipodi:guide
       orientation="1,0"
       position="400.22244,349.31075"
       id="guide3178" />
    <sodipodi:guide
       orientation="0,1"
       position="400.22244,349.31075"
       id="guide3180" />
  </sodipodi:namedview>
  <metadata
     id="metadata7">
    <rdf:RDF>
      <cc:Work
         rdf:about="">
        <dc:format>image/svg+xml</dc:format>
        <dc:type
           rdf:resource="http://purl.org/dc/dcmitype/StillImage" />
        <dc:title></dc:title>
      </cc:Work>
    </rdf:RDF>
  </metadata>
  <g
     inkscape:label="Layer 1"
     inkscape:groupmode="layer"
     id="layer1"
     transform="translate(0,-352.36218)">
    <path
       style="fill:#ff0000"
       d="m 372.65625,824.08093 c 0.31418,0.002 0.71153,0.10129 1.25,0.25 1.91504,0.52872 3.96003,3.0409 4.6875,5.78125 0.2597,0.9783 0.66013,2.11899 0.875,2.53125 1.13531,2.1783 3.86687,17.01878 3.875,21.0625 0.006,3.01809 -0.0471,3.11387 -1.28125,3.625 -0.69751,0.289 -1.88953,0.64807 -2.6875,0.8125 -1.4107,0.29083 -12.21483,-0.18982 -13.34375,-0.59375 -0.88824,-0.31808 -1.84375,-3.03262 -1.84375,-5.28125 0,-2.18776 1.5362,-10.8537 2.28125,-12.875 0.79643,-2.16043 0.84512,-0.9381 0.0937,2.78125 -0.40395,1.99977 -0.81878,4.31367 -0.9375,5.125 -0.30898,2.11002 0.73472,5.93062 1.90625,7.03125 l 0.96875,0.96875 -0.125,-1.0625 c -0.0743,-0.56763 -0.35348,-1.57657 -0.625,-2.25 -0.69485,-1.72365 -0.61379,-3.33828 0.40625,-8.5625 1.36322,-6.98222 2.55254,-14.07252 2.40625,-14.21875 -0.23113,-0.23108 -1.10541,1.74403 -2.1875,4.875 -0.57884,1.6749 -1.07923,2.73391 -1.09375,2.375 -0.0143,-0.35891 0.24894,-1.41785 0.59375,-2.375 0.3448,-0.95704 0.64711,-2.49939 0.65625,-3.40625 0.022,-1.89233 1.17717,-4.4349 2.6875,-5.84375 0.57229,-0.53388 0.91383,-0.75372 1.4375,-0.75 z"
       id="path3249" />
    <path
       style="fill:#ff0000"
       d="m 376.15625,831.36218 c -0.0272,0.005 -0.0403,0.01 -0.0625,0.0312 -0.13275,0.13271 -0.0121,1.24413 0.25,2.46875 0.26262,1.22451 0.46875,3.27257 0.46875,4.5625 0,1.29016 0.169,2.46622 0.375,2.59375 0.206,0.12734 0.49943,1.4986 0.625,3.0625 0.12555,1.56411 0.38487,3.07806 0.625,3.375 0.24013,0.2967 0.61039,2.153 0.78125,4.125 0.2664,3.07439 0.19184,3.61418 -0.40625,3.84375 -0.38363,0.14716 -0.6875,0.45764 -0.6875,0.6875 0,0.31114 1.83152,0.0779 1.96875,-0.25 0.0126,-0.0301 0.36249,-0.58105 0.78125,-1.25 0.48312,-0.77178 0.66005,-1.58481 0.46875,-2.1875 -0.16583,-0.52244 -0.63969,-3.08176 -1.0625,-5.71875 -1.2076,-7.53092 -3.20429,-15.01916 -4.03125,-15.34375 -0.0275,-0.0106 -0.0664,-0.006 -0.0937,0 z"
       id="rect3290" />
  </g>
</svg>
