<?xml version="1.0" encoding="UTF-8" standalone="no"?>
<!-- Created with Inkscape (http://www.inkscape.org/) -->

<svg
   xmlns:dc="http://purl.org/dc/elements/1.1/"
   xmlns:cc="http://creativecommons.org/ns#"
   xmlns:rdf="http://www.w3.org/1999/02/22-rdf-syntax-ns#"
   xmlns:svg="http://www.w3.org/2000/svg"
   xmlns="http://www.w3.org/2000/svg"
   xmlns:sodipodi="http://sodipodi.sourceforge.net/DTD/sodipodi-0.dtd"
   xmlns:inkscape="http://www.inkscape.org/namespaces/inkscape"
   width="800"
   height="400"
   id="svg2"
   version="1.1"
   inkscape:version="0.48.2 r9819"
   sodipodi:docname="fj.svg">
  <defs
     id="defs4" />
  <sodipodi:namedview
     id="base"
     pagecolor="#ffffff"
     bordercolor="#666666"
     borderopacity="1.0"
     inkscape:pageopacity="0.0"
     inkscape:pageshadow="2"
     inkscape:zoom="4"
     inkscape:cx="523.44662"
     inkscape:cy="336.49504"
     inkscape:document-units="px"
     inkscape:current-layer="layer1"
     showgrid="false"
     showguides="true"
     inkscape:guide-bbox="true"
     inkscape:window-width="1366"
     inkscape:window-height="746"
     inkscape:window-x="-8"
     inkscape:window-y="-8"
     inkscape:window-maximized="1"
     width="0px"
     height="0px"
     fit-margin-top="0"
     fit-margin-left="0"
     fit-margin-right="0"
     fit-margin-bottom="0">
    <sodipodi:guide
       orientation="1,0"
       position="400.22244,349.31075"
       id="guide3178" />
  </sodipodi:namedview>
  <metadata
     id="metadata7">
    <rdf:RDF>
      <cc:Work
         rdf:about="">
        <dc:format>image/svg+xml</dc:format>
        <dc:type
           rdf:resource="http://purl.org/dc/dcmitype/StillImage" />
        <dc:title></dc:title>
        <cc:license
           rdf:resource="" />
      </cc:Work>
    </rdf:RDF>
  </metadata>
  <g
     inkscape:label="Layer 1"
     inkscape:groupmode="layer"
     id="layer1"
     transform="translate(0,-652.36218)">
    <path
       style="fill:#ff0000"
       d="m 616.09375,728.73718 c 1.35112,-0.007 4.36549,0.70696 6.6875,1.59375 3.12557,1.19366 4.36322,2.28204 4.78125,4.1875 0.31056,1.41559 1.23391,4.64627 2.03125,7.1875 0.79733,2.54123 1.29198,6.74563 1.125,9.34375 -0.32772,5.09954 0.13648,4.68522 -9.6875,9 -4.14833,1.82199 -4.7415,1.86813 -8.25,0.46875 -3.54555,-1.41415 -4.0603,-1.36498 -8.15625,0.625 -2.40063,1.16631 -4.44131,2.063 -4.5625,2 -0.12119,-0.063 -1.13309,-0.30515 -2.21875,-0.53125 -7.97043,-1.65994 -10.61674,-2.84984 -13.4375,-6.0625 -2.77015,-3.15505 -3.00542,-3.95123 -2.5,-8.21875 0.65908,-5.56492 5.99304,-17.17165 8.375,-18.21875 1.36587,-0.60044 14.78043,-1.3157 25.8125,-1.375 z"
       id="rect3097" />
  </g>
</svg>
