<?xml version="1.0" encoding="UTF-8" standalone="no"?>
<!-- Created with Inkscape (http://www.inkscape.org/) -->

<svg
   xmlns:dc="http://purl.org/dc/elements/1.1/"
   xmlns:cc="http://creativecommons.org/ns#"
   xmlns:rdf="http://www.w3.org/1999/02/22-rdf-syntax-ns#"
   xmlns:svg="http://www.w3.org/2000/svg"
   xmlns="http://www.w3.org/2000/svg"
   xmlns:sodipodi="http://sodipodi.sourceforge.net/DTD/sodipodi-0.dtd"
   xmlns:inkscape="http://www.inkscape.org/namespaces/inkscape"
   width="800"
   height="400"
   id="svg2"
   version="1.1"
   inkscape:version="0.48.2 r9819"
   sodipodi:docname="fj-fill.svg">
  <defs
     id="defs4" />
  <sodipodi:namedview
     id="base"
     pagecolor="#ffffff"
     bordercolor="#666666"
     borderopacity="1.0"
     inkscape:pageopacity="0.0"
     inkscape:pageshadow="2"
     inkscape:zoom="4"
     inkscape:cx="556.26257"
     inkscape:cy="305.80741"
     inkscape:document-units="px"
     inkscape:current-layer="layer1"
     showgrid="false"
     showguides="true"
     inkscape:guide-bbox="true"
     inkscape:window-width="1024"
     inkscape:window-height="538"
     inkscape:window-x="-8"
     inkscape:window-y="-8"
     inkscape:window-maximized="1"
     width="0px"
     height="0px"
     fit-margin-top="0"
     fit-margin-left="0"
     fit-margin-right="0"
     fit-margin-bottom="0">
    <sodipodi:guide
       orientation="1,0"
       position="400.22244,349.31075"
       id="guide3178" />
  </sodipodi:namedview>
  <metadata
     id="metadata7">
    <rdf:RDF>
      <cc:Work
         rdf:about="">
        <dc:format>image/svg+xml</dc:format>
        <dc:type
           rdf:resource="http://purl.org/dc/dcmitype/StillImage" />
        <dc:title />
        <cc:license
           rdf:resource="" />
      </cc:Work>
    </rdf:RDF>
  </metadata>
  <g
     inkscape:label="Layer 1"
     inkscape:groupmode="layer"
     id="layer1"
     transform="translate(0,-652.36218)">
    <path
       id="rect4103"
       transform="translate(0,652.36218)"
       style="fill:#00ff00"
       d="m 616.09375,76.375 c -11.03207,0.0593 -24.44663,0.77456 -25.8125,1.375 -2.38196,1.0471 -7.71592,12.65383 -8.375,18.21875 -0.50542,4.26752 -0.27015,5.0637 2.5,8.21875 2.82076,3.21266 5.46707,4.40256 13.4375,6.0625 1.08566,0.2261 2.09756,0.46825 2.21875,0.53125 0.12119,0.063 2.16187,-0.83369 4.5625,-2 4.09595,-1.98998 4.6107,-2.03915 8.15625,-0.625 3.5085,1.39938 4.10167,1.35324 8.25,-0.46875 9.82398,-4.31478 9.35978,-3.90046 9.6875,-9 0.16698,-2.59812 -0.32767,-6.80252 -1.125,-9.34375 -0.79734,-2.54123 -1.72069,-5.77191 -2.03125,-7.1875 -0.41803,-1.90546 -1.65568,-2.99384 -4.78125,-4.1875 -2.32201,-0.88679 -5.33638,-1.60075 -6.6875,-1.59375 z" />
  </g>
</svg>
