<?xml version="1.0" encoding="UTF-8" standalone="no"?>
<!-- Created with Inkscape (http://www.inkscape.org/) -->

<svg
   xmlns:dc="http://purl.org/dc/elements/1.1/"
   xmlns:cc="http://creativecommons.org/ns#"
   xmlns:rdf="http://www.w3.org/1999/02/22-rdf-syntax-ns#"
   xmlns:svg="http://www.w3.org/2000/svg"
   xmlns="http://www.w3.org/2000/svg"
   xmlns:sodipodi="http://sodipodi.sourceforge.net/DTD/sodipodi-0.dtd"
   xmlns:inkscape="http://www.inkscape.org/namespaces/inkscape"
   width="800"
   height="700"
   id="svg2"
   version="1.1"
   inkscape:version="0.48.2 r9819"
   sodipodi:docname="m3-fill.svg">
  <defs
     id="defs4" />
  <sodipodi:namedview
     id="base"
     pagecolor="#ffffff"
     bordercolor="#666666"
     borderopacity="1.0"
     inkscape:pageopacity="0.0"
     inkscape:pageshadow="2"
     inkscape:zoom="5.6568542"
     inkscape:cx="180.42459"
     inkscape:cy="533.09492"
     inkscape:document-units="px"
     inkscape:current-layer="layer1"
     showgrid="false"
     showguides="true"
     inkscape:guide-bbox="true"
     inkscape:window-width="1024"
     inkscape:window-height="538"
     inkscape:window-x="-8"
     inkscape:window-y="-8"
     inkscape:window-maximized="1"
     width="0px"
     height="0px"
     fit-margin-top="0"
     fit-margin-left="0"
     fit-margin-right="0"
     fit-margin-bottom="0">
    <sodipodi:guide
       orientation="1,0"
       position="400.22244,349.31075"
       id="guide3178" />
    <sodipodi:guide
       orientation="0,1"
       position="400.22244,349.31075"
       id="guide3180" />
  </sodipodi:namedview>
  <metadata
     id="metadata7">
    <rdf:RDF>
      <cc:Work
         rdf:about="">
        <dc:format>image/svg+xml</dc:format>
        <dc:type
           rdf:resource="http://purl.org/dc/dcmitype/StillImage" />
        <dc:title />
      </cc:Work>
    </rdf:RDF>
  </metadata>
  <g
     inkscape:label="Layer 1"
     inkscape:groupmode="layer"
     id="layer1"
     transform="translate(0,-352.36218)">
    <path
       id="rect3330"
       transform="translate(0,352.36218)"
       style="fill:#00ff00"
       d="m 142.1875,146.59375 c -2.50113,0 -6.36907,1.48091 -7.5,2.84375 -0.40943,0.49331 -1.39184,0.65625 -3.6875,0.65625 -3.56288,0 -7.00264,0.99751 -7.65625,2.21875 -0.24324,0.45453 -0.65074,0.84375 -0.90625,0.84375 -0.25552,0 -1.44978,0.88404 -2.65625,1.96875 -3.53739,3.18043 -6.58299,8.46195 -7.09375,12.3125 -0.24866,1.87425 -0.18662,2.17834 0.71875,2.8125 0.66834,0.46811 1.89864,0.72075 3.625,0.71875 2.48608,-0.003 2.6963,-0.0729 3.4375,-1.375 l 0.75,-1.375 1.15625,1.6875 c 1.50069,2.2352 1.69734,2.3347 4.25,2.3125 2.56557,-0.0224 5.81891,-1.44587 6.53125,-2.875 0.26754,-0.53672 0.85158,-1.36898 1.28125,-1.84375 0.56245,-0.62161 0.70431,-1.27719 0.53125,-2.34375 -0.1323,-0.81461 -0.0491,-1.63609 0.15625,-1.84375 0.20535,-0.20771 0.63526,-2.08895 0.9375,-4.1875 0.49356,-3.42718 0.47512,-3.97203 -0.1875,-5.09375 l -0.75,-1.25 1.53125,-0.1875 1.5625,-0.1875 L 138,154.625 c -0.67868,5.92172 -0.79979,11.11877 -0.25,11.78125 0.7751,0.9339 3.1316,1.86502 5.5625,2.1875 1.70068,0.22562 2.39928,0.0757 4.1875,-0.875 1.18384,-0.62947 2.31501,-1.36512 2.5,-1.65625 0.23785,-0.3743 0.33875,-0.34447 0.34375,0.15625 0.003,0.38941 -0.29735,0.98339 -0.65625,1.28125 -1.04489,0.86719 -0.76599,2.01758 0.625,2.59375 0.7015,0.29055 1.88862,0.99617 2.65625,1.5625 1.42035,1.04789 1.78653,1.01313 3.5,-0.34375 0.38457,-0.30454 1.14803,-1.7704 1.6875,-3.25 0.96564,-2.64832 0.97037,-2.73539 0.21875,-5.125 -0.91151,-2.8979 -2.66728,-5.24737 -6.5,-8.65625 -1.56357,-1.39066 -2.84375,-2.77191 -2.84375,-3.09375 0,-0.32183 -0.99654,-1.49489 -2.21875,-2.59375 -2.07605,-1.86658 -2.37126,-2 -4.625,-2 z m -4.625,22.0625 0,0.0312 c -1.22862,0.0429 -1.51534,0.5309 -1.65625,1.75 -0.10088,0.87358 -0.40287,1.2181 -1.21875,1.3125 -1.81602,0.21013 -8.21575,3.5731 -8.5,4.46875 -0.24044,0.75752 1.6708,4.18153 3.03125,5.40625 0.2658,0.23927 1.04326,1.26949 1.6875,2.28125 1.27891,2.00841 1.51642,4.24711 0.6875,6.625 -0.63963,1.83485 -1.24,0.97721 -1.25,-1.78125 -0.005,-1.80254 -0.33386,-2.38056 -2.875,-5.65625 -2.76454,-3.56352 -3.91429,-6.1448 -3.40625,-7.46875 0.36542,-0.9522 -1.15304,-2.47675 -2.4375,-2.46875 -1.33918,0.008 -1.75676,0.28346 -2.75,1.84375 -0.94853,1.49009 -1.59375,1.16562 -1.59375,-0.78125 0,-1.52764 -0.12258,-1.60487 -2.875,-2.15625 -1.83975,-0.36855 -2.21566,0.25424 -3.0625,4.84375 -0.8889,4.8175 -0.89234,6.18534 0,9.65625 1.46505,5.69535 4.22759,7.72037 10.28125,7.59375 1.79449,-0.0376 5.62883,-0.13795 8.5,-0.21875 3.56405,-0.10018 5.49972,0.0458 6.09375,0.40625 0.47854,0.29049 1.97259,0.52425 3.3125,0.53125 1.9282,0.0105 2.98448,-0.2933 5.1875,-1.4375 2.66805,-1.38571 3.5979,-2.52709 2.71875,-3.40625 -0.24371,-0.24369 -1.83153,-0.003 -4.0625,0.5625 -4.83454,1.22632 -6.53125,1.44484 -6.53125,0.90625 0,-0.44485 3.00836,-1.4342 9.375,-3.125 2.23862,-0.59452 3.86802,-1.34078 4.625,-2.0625 1.65561,-1.57853 2.5625,-4.46355 2.5625,-8.4375 0,-3.17919 -0.0894,-3.4734 -1.375,-4.9375 -0.75335,-0.85803 -1.52941,-1.41048 -1.71875,-1.21875 -0.18932,0.19172 -0.4258,1.30366 -0.5,2.5 l -0.125,2.1875 -1.40625,-2.9375 c -1.60101,-3.34729 -1.76263,-3.44311 -7.34375,-4.40625 -1.58224,-0.27304 -2.6378,-0.43205 -3.375,-0.40625 z" />
  </g>
</svg>
